<?xml version="1.0" standalone="no"?>
<!DOCTYPE svg PUBLIC "-//W3C//DTD SVG 20010904//EN"
 "http://www.w3.org/TR/2001/REC-SVG-20010904/DTD/svg10.dtd">
<svg version="1.0" xmlns="http://www.w3.org/2000/svg"
 width="1182.000000pt" height="664.000000pt" viewBox="0 0 1182.000000 664.000000"
 preserveAspectRatio="xMidYMid meet">
<metadata>
Created by potrace 1.13, written by Peter Selinger 2001-2015
</metadata>
<g transform="translate(0.000000,664.000000) scale(0.100000,-0.100000)"
fill="#000000" stroke="none">
<path d="M0 4546 l0 -2094 89 0 c72 1 97 -3 134 -21 26 -12 57 -21 69 -18 20
4 20 4 -4 6 -15 0 -41 9 -58 20 l-31 18 100 1 c56 0 103 -3 106 -8 6 -9 47 -1
56 12 3 4 18 9 35 11 16 1 43 10 61 20 17 9 38 14 46 11 8 -3 18 0 22 5 3 6
11 8 17 5 6 -4 9 -3 6 2 -3 5 3 17 14 26 10 10 18 13 18 8 0 -5 5 -10 10 -10
6 0 10 7 10 15 0 8 6 15 14 15 7 0 19 6 25 13 6 8 43 19 82 27 69 12 72 13 86
50 12 29 19 36 34 33 23 -6 121 33 132 53 4 8 15 14 22 14 8 0 15 8 15 19 0
14 6 18 25 16 14 -2 25 0 25 4 0 10 80 35 102 32 18 -2 38 27 38 57 0 10 9 27
21 38 11 10 41 39 65 63 l45 45 30 -18 c17 -10 33 -15 36 -12 4 3 2 6 -4 6 -6
0 -9 9 -6 20 3 12 -1 22 -11 26 -30 11 -14 142 17 131 6 -2 21 -21 32 -42 l20
-38 8 49 c5 27 4 58 0 69 -5 11 -6 49 -3 83 3 35 1 66 -3 69 -10 6 2 94 14
107 6 6 9 3 9 -7 0 -18 14 -20 72 -11 40 7 42 16 14 69 -25 48 -21 66 13 59
22 -5 29 -2 33 14 3 11 2 26 -3 33 -5 8 -9 22 -9 32 0 32 21 18 41 -28 11 -24
23 -46 28 -49 4 -3 21 8 36 24 16 17 24 30 19 30 -5 0 -8 20 -6 45 2 25 8 45
13 45 14 0 11 31 -8 77 -10 24 -24 43 -30 43 -7 0 -13 5 -13 10 0 6 7 10 15
10 8 0 15 4 15 9 0 16 -21 24 -33 12 -16 -16 -27 -13 -27 8 0 22 25 46 34 33
12 -20 43 -19 55 1 11 17 11 19 -4 14 -12 -5 -15 -3 -11 11 5 15 0 17 -35 14
-29 -3 -40 -1 -35 7 4 6 17 11 29 11 12 0 28 4 35 9 18 11 20 77 3 94 -10 10
-11 9 -6 -5 6 -14 2 -18 -18 -18 -32 0 -43 16 -25 37 10 13 10 17 1 20 -7 3
-13 11 -13 18 0 17 -37 58 -68 74 -22 12 -23 11 -17 -8 6 -20 3 -21 -49 -21
-31 0 -56 -4 -56 -10 0 -11 2 -11 38 -15 29 -3 34 -8 26 -29 -4 -9 -17 -16
-34 -16 -16 0 -32 -5 -36 -11 -3 -6 -15 -9 -25 -6 -10 3 -21 2 -24 -3 -7 -12
-85 13 -85 27 0 7 -7 13 -15 13 -8 0 -17 12 -20 28 -4 15 -10 35 -16 44 -15
28 -11 33 11 13 11 -10 20 -26 20 -36 0 -10 5 -21 12 -25 7 -4 8 -3 4 5 -4 6
0 18 8 27 25 24 19 48 -14 61 -17 6 -30 17 -30 23 0 7 7 10 16 6 9 -3 28 -6
42 -6 21 0 24 -2 12 -10 -12 -8 -10 -10 8 -10 13 0 20 4 17 10 -4 6 5 10 21
10 22 0 25 4 21 21 -4 15 -2 19 8 15 8 -3 17 -1 20 3 2 5 21 12 42 16 27 5 33
9 22 16 -10 6 -2 9 26 9 22 0 58 7 80 14 34 12 40 12 43 0 4 -16 28 -19 37 -4
3 6 25 10 48 10 43 1 77 18 77 39 0 7 4 10 9 7 5 -4 12 0 14 6 4 8 8 4 12 -9
9 -28 22 -29 30 -3 3 11 13 20 21 20 8 0 14 10 14 25 0 14 5 25 10 25 6 0 10
-9 10 -20 0 -11 5 -20 10 -20 6 0 10 6 10 14 0 8 6 17 12 19 10 4 10 6 1 6 -7
1 -13 6 -13 12 0 7 10 9 25 7 14 -3 30 1 36 8 8 9 8 14 1 14 -7 0 -9 19 -6 50
4 40 1 50 -11 50 -16 0 -18 12 -9 47 5 19 11 22 33 16 14 -3 32 -13 39 -20 8
-8 22 -11 32 -8 10 3 34 -3 54 -14 20 -12 50 -22 66 -23 17 -1 30 -7 30 -12 0
-5 3 -7 6 -3 3 3 17 2 31 -4 15 -5 22 -5 18 0 -9 16 12 22 27 8 7 -7 24 -13
37 -14 13 -1 27 -7 31 -12 4 -7 17 -8 38 -2 20 6 30 6 27 0 -4 -5 4 -9 17 -8
13 0 17 3 11 6 -24 9 -13 23 17 23 17 0 30 5 30 10 0 17 64 11 105 -10 22 -11
33 -20 25 -20 -24 0 2 -17 37 -25 28 -5 32 -4 27 9 -5 13 2 16 32 18 56 2 93
12 104 30 7 9 138 14 146 5 4 -3 17 -1 31 4 21 8 239 28 348 33 17 0 32 4 35
7 9 11 110 20 110 10 0 -6 16 -3 36 5 29 12 39 13 44 3 6 -8 24 -10 59 -6 28
3 53 2 56 -4 4 -5 15 -9 25 -9 10 0 26 -7 35 -16 8 -9 24 -14 35 -11 10 3 20
1 22 -3 2 -4 14 -11 27 -15 19 -6 23 -4 18 8 -4 11 0 13 14 10 10 -3 19 -9 19
-14 0 -5 7 -9 15 -9 8 0 15 7 15 15 0 10 10 15 34 15 41 0 66 -8 66 -22 0 -15
27 -38 44 -38 19 0 104 -20 131 -31 50 -19 182 -68 199 -74 16 -4 12 -10 -23
-36 -23 -16 -39 -34 -36 -40 4 -5 3 -15 -3 -22 -9 -13 -23 -47 -19 -47 11 0
65 48 60 53 -3 4 -2 7 4 7 6 0 16 -7 23 -15 9 -11 16 -13 24 -5 16 16 26 12
26 -10 0 -19 2 -19 23 -7 13 9 32 12 47 8 18 -5 21 -9 11 -15 -11 -7 -11 -10
0 -17 10 -6 8 -9 -9 -9 -64 0 -239 -70 -286 -114 l-30 -28 21 -18 c12 -10 20
-20 17 -23 -3 -3 0 -15 6 -27 11 -20 10 -21 -10 -10 -16 9 -21 9 -15 1 4 -7 1
-18 -5 -26 -9 -10 -9 -19 0 -32 10 -16 10 -15 5 5 -5 16 -2 22 9 22 22 0 30
-19 14 -37 -9 -12 -9 -15 -1 -9 9 5 13 0 13 -13 0 -18 6 -21 44 -21 24 0 58 8
75 17 16 10 33 14 37 10 15 -15 17 -113 2 -128 -18 -17 -34 -74 -18 -64 5 3
10 2 10 -4 0 -6 6 -8 14 -5 8 3 24 0 37 -6 19 -11 26 -8 56 25 26 28 37 35 46
26 8 -8 6 -15 -9 -25 -19 -15 -18 -16 9 -41 23 -22 25 -29 16 -47 -8 -15 -8
-19 0 -14 6 4 11 1 12 -6 3 -46 9 -60 33 -83 15 -14 39 -25 54 -26 30 -1 84
-16 64 -18 -7 -1 -11 -5 -8 -9 3 -5 18 -7 35 -4 22 3 28 8 23 21 -5 14 -4 14
12 -1 9 -10 35 -21 57 -24 55 -9 62 -27 8 -21 -24 2 -35 2 -24 0 35 -8 41 -23
10 -23 -23 0 -27 -3 -15 -10 13 -8 12 -10 -2 -10 -10 0 -18 -2 -18 -5 0 -7 41
-79 51 -89 23 -25 8 -36 -53 -38 l-63 -2 58 -3 c31 -2 57 -8 57 -13 0 -6 -4
-10 -9 -10 -5 0 -8 -11 -7 -24 1 -16 5 -21 12 -15 6 5 14 6 17 2 4 -3 7 3 7
15 0 15 6 22 20 22 11 0 20 -4 20 -10 0 -5 -6 -10 -14 -10 -8 0 -17 -7 -20
-16 -9 -22 -8 -24 10 -24 11 0 15 -6 11 -19 -2 -10 0 -27 6 -37 15 -26 19 -52
8 -58 -17 -11 1 -55 23 -58 12 -2 22 -11 24 -23 1 -11 25 -47 52 -78 28 -32
50 -63 50 -68 0 -5 6 -9 13 -9 18 0 118 -90 112 -100 -3 -5 -44 -21 -91 -36
-88 -27 -109 -40 -39 -23 66 15 115 20 115 11 0 -5 9 -20 20 -33 l21 -23 -23
-9 c-13 -4 -44 -13 -70 -18 -27 -6 -48 -14 -48 -19 0 -4 17 -4 38 1 60 14 70
10 27 -11 -43 -22 -41 -22 49 4 32 10 60 15 63 12 3 -2 -12 -10 -33 -16 -42
-11 -96 -39 -78 -40 6 0 31 7 54 15 58 20 83 18 41 -4 -21 -11 -30 -21 -22
-25 6 -4 9 -11 6 -16 -3 -5 9 -5 27 1 18 5 44 9 58 9 l25 -1 -25 -13 c-23 -13
-21 -14 25 -9 28 3 59 11 70 17 27 14 55 16 52 2 -1 -6 13 -11 34 -10 26 0 35
-4 32 -12 -3 -8 6 -14 24 -16 21 -2 27 -8 25 -22 -2 -11 1 -15 7 -11 24 14 9
-17 -24 -49 -19 -20 -35 -40 -35 -46 0 -13 -10 -13 -30 0 -8 5 -10 10 -4 10 7
0 11 8 10 18 -1 11 10 20 32 27 20 6 32 16 32 27 0 20 -24 14 -54 -14 -11 -10
-23 -18 -28 -18 -12 0 -47 38 -41 44 4 3 1 6 -5 6 -7 0 -12 -9 -12 -20 0 -12
-11 -32 -25 -46 -14 -14 -26 -35 -28 -47 -2 -22 -38 -59 -54 -56 -35 6 -45 -2
-40 -30 6 -26 3 -30 -36 -45 -67 -26 -143 -65 -127 -66 18 0 117 34 127 43 11
12 45 8 38 -4 -4 -6 -13 -8 -21 -5 -8 3 -14 0 -14 -7 0 -7 -20 -23 -44 -36
-48 -25 -72 -58 -36 -48 15 4 20 0 20 -15 0 -12 -8 -22 -21 -25 -13 -4 -18
-11 -14 -20 7 -19 -32 -83 -50 -83 -8 0 -17 -5 -21 -11 -5 -9 7 -10 44 -5 43
5 51 4 46 -8 -3 -8 -19 -19 -35 -25 -30 -10 -40 -31 -14 -31 8 0 15 -7 15 -15
0 -8 -4 -15 -10 -15 -5 0 -10 -5 -10 -10 0 -6 8 -5 20 2 17 11 22 10 30 -2 5
-8 10 -17 10 -20 -1 -5 -52 -29 -95 -45 l-20 -7 20 -8 c11 -5 30 -9 43 -9 27
-1 19 -21 -8 -21 -11 0 -34 -7 -52 -15 -18 -8 -77 -31 -131 -52 -54 -21 -93
-39 -88 -41 13 -4 99 22 156 47 22 10 60 21 84 24 37 5 41 4 25 -8 -11 -7 -35
-17 -54 -22 -19 -6 -66 -23 -105 -38 -38 -16 -92 -34 -120 -41 -42 -10 -45
-12 -19 -13 17 -1 71 12 120 28 49 16 109 32 134 35 l45 6 -40 -20 c-22 -11
-46 -20 -52 -20 -7 0 -72 -21 -145 -46 -129 -44 -136 -54 -13 -19 33 9 78 21
100 26 22 5 51 12 63 14 15 4 21 2 17 -5 -3 -5 -15 -10 -25 -10 -11 0 -39 -9
-62 -19 -49 -22 -241 -83 -272 -87 -12 -1 -30 -3 -41 -4 -19 -1 -19 -2 2 -10
13 -5 34 -5 50 -1 193 60 273 81 273 71 0 -9 -81 -44 -125 -54 -76 -18 -165
-49 -165 -58 0 -5 10 -7 23 -3 34 9 115 32 185 53 34 11 62 16 62 13 0 -8 -82
-51 -99 -51 -27 0 -181 -53 -181 -62 0 -6 7 -7 16 -4 44 17 179 47 198 43 14
-2 9 -6 -19 -11 -22 -4 -59 -16 -81 -26 -23 -11 -55 -22 -70 -26 -38 -9 -45
-14 -39 -24 5 -8 83 7 100 21 19 14 85 22 85 10 0 -6 -8 -12 -17 -12 -56 -4
-153 -36 -153 -50 0 -13 23 -11 75 7 25 8 61 14 78 12 26 -2 18 -7 -50 -27
-52 -15 -83 -29 -83 -37 0 -17 -4 -18 65 6 32 11 70 20 85 20 15 0 44 7 65 16
20 8 40 13 43 10 10 -10 -3 -15 -114 -47 -60 -17 -115 -33 -121 -35 -7 -2 -13
-14 -13 -26 0 -16 3 -19 8 -10 9 13 137 52 172 52 17 0 19 -2 8 -14 -7 -8 -16
-12 -19 -10 -3 2 -15 -6 -27 -16 -22 -21 -62 -26 -77 -11 -6 6 -17 4 -29 -5
-14 -10 -17 -17 -9 -25 15 -15 5 -47 -16 -51 -9 -2 -30 -1 -47 3 -35 7 -77
-14 -49 -24 9 -4 12 -13 8 -24 -10 -27 -31 -45 -38 -33 -10 17 -37 11 -42 -9
-11 -42 -32 -31 -48 24 -9 29 -22 59 -30 65 -8 7 -12 16 -9 21 13 21 -9 80
-38 100 -36 26 -50 17 -17 -12 l24 -21 -24 -19 c-13 -10 -29 -19 -37 -19 -12
0 -19 -20 -11 -36 1 -3 -6 -10 -15 -15 -10 -6 -18 -16 -18 -24 0 -9 -6 -12
-15 -9 -20 8 -32 -25 -14 -37 13 -8 5 -13 -14 -10 -5 1 -6 -6 -3 -16 4 -13
-13 -34 -65 -77 -79 -67 -136 -144 -152 -207 -5 -19 -1 -27 22 -41 24 -13 29
-22 28 -52 -1 -23 -6 -36 -15 -36 -7 0 -11 4 -8 8 3 5 -1 9 -9 9 -17 0 -20
-13 -5 -22 16 -10 12 -23 -7 -21 -10 0 -17 -5 -15 -12 2 -10 -6 -12 -30 -7
-20 4 -28 3 -20 -3 12 -8 -6 -22 -50 -35 -12 -4 -15 -13 -11 -29 6 -22 5 -22
-14 -5 -24 21 -29 21 -36 3 -3 -8 1 -13 11 -12 12 1 16 -6 14 -23 -1 -17 2
-22 13 -17 8 3 15 1 15 -4 0 -5 -9 -12 -20 -15 -11 -3 -27 -13 -35 -22 -9 -8
-21 -16 -28 -17 -6 -1 -22 -8 -34 -16 -16 -11 -19 -17 -11 -27 8 -10 6 -13 -5
-13 -8 0 -18 6 -20 13 -4 9 -6 9 -6 0 -1 -7 -10 -13 -22 -13 -13 0 -23 -8 -26
-20 -4 -15 -9 -18 -18 -10 -17 14 -27 -2 -18 -27 6 -16 5 -16 -10 -4 -16 12
-21 9 -18 -12 1 -4 -10 0 -23 9 -14 8 -30 13 -36 9 -5 -3 -10 -1 -10 4 0 6 -5
11 -11 11 -5 0 -8 -4 -4 -9 3 -5 -2 -17 -11 -25 -9 -9 -11 -16 -4 -16 6 0 8
-5 5 -10 -3 -6 5 -14 19 -20 36 -13 32 -23 -6 -15 l-33 6 34 -16 c19 -9 40
-20 46 -25 17 -14 41 5 27 22 -9 11 -5 13 26 9 20 -3 29 -6 20 -9 -10 -2 -31
-17 -49 -33 -17 -16 -36 -26 -42 -22 -8 5 -7 8 1 11 7 2 12 8 12 13 0 6 -4 7
-10 4 -5 -3 -10 -1 -10 6 0 8 -11 10 -35 6 -21 -3 -35 -2 -35 4 0 6 -9 7 -20
4 -29 -9 -26 21 4 41 15 9 22 21 19 30 -3 8 0 14 6 14 6 0 11 4 11 9 0 5 -11
4 -24 -2 -13 -7 -22 -16 -19 -21 4 -5 -8 -6 -27 -2 l-33 6 19 -21 c19 -22 19
-22 -6 -14 -14 4 -30 12 -37 17 -7 5 -14 5 -18 -2 -3 -5 -14 -10 -23 -10 -15
0 -15 2 -2 11 13 9 12 10 -2 5 -10 -3 -18 -1 -18 4 0 10 15 14 34 11 5 -1 16
5 25 13 10 9 27 14 40 11 12 -2 24 2 27 9 5 14 57 30 82 27 20 -3 46 15 33 23
-6 4 -11 3 -11 -2 0 -5 -12 -9 -27 -9 -35 0 -133 -25 -133 -35 0 -3 -13 -9
-29 -13 -16 -3 -35 -13 -42 -21 -6 -8 -27 -14 -45 -14 -19 0 -34 -5 -34 -10 0
-6 -6 -7 -17 -1 -23 11 -204 44 -210 37 -14 -14 170 -48 252 -47 28 0 57 -2
65 -6 8 -3 28 -5 44 -4 18 2 26 -1 22 -8 -4 -6 -17 -11 -29 -11 -28 0 -54 -16
-44 -27 5 -4 11 -3 15 3 6 9 14 10 50 6 6 -1 11 -5 11 -9 -3 -20 2 -24 16 -13
9 8 25 10 42 5 l28 -8 -30 -12 c-31 -14 -75 -10 -86 6 -6 11 -39 2 -39 -11 0
-4 -16 -10 -35 -12 -40 -5 -45 4 -15 25 19 13 17 15 -26 15 -26 1 -50 5 -53
10 -3 5 -22 13 -41 16 -36 7 -56 14 -101 36 -14 6 -41 12 -60 13 -19 1 -40 10
-47 20 -7 9 -19 17 -26 17 -8 0 -16 7 -20 15 -4 12 0 14 22 9 54 -12 58 -14
42 -24 -11 -7 -11 -10 -2 -10 7 0 25 8 39 17 15 10 34 18 42 18 9 0 15 6 13
13 -2 9 3 10 15 4 10 -5 24 -7 31 -5 6 3 12 0 12 -7 0 -6 -3 -9 -7 -7 -5 3
-17 1 -28 -4 -20 -7 -20 -8 1 -8 11 -1 36 7 55 16 l33 17 -27 9 c-34 11 -35
27 -1 27 14 0 23 -4 19 -10 -9 -14 -4 -13 41 10 30 15 34 19 17 20 -12 0 -30
3 -40 6 -14 5 -15 4 -4 -4 10 -7 4 -10 -23 -9 -36 1 -61 -17 -50 -35 3 -4 1
-8 -4 -8 -5 0 -9 15 -8 32 1 19 -5 39 -14 46 -8 8 -9 11 -2 7 6 -3 12 -2 12 3
0 6 -7 12 -15 16 -9 3 -15 0 -15 -10 0 -12 -5 -14 -17 -9 -10 4 -29 10 -43 12
-15 3 -33 17 -42 34 -16 27 -38 39 -38 20 0 -15 -40 -20 -48 -6 -4 9 -12 11
-20 6 -11 -6 -7 -13 13 -29 14 -11 31 -23 38 -25 23 -8 2 -15 -31 -10 -23 4
-32 10 -28 19 7 17 1 17 -39 3 -37 -14 -99 -4 -74 12 11 6 8 9 -11 9 -32 0
-65 -19 -35 -20 11 -1 34 -7 50 -15 19 -9 22 -13 8 -9 -13 3 -31 1 -40 -5 -15
-9 -14 -10 10 -11 16 0 26 -4 22 -10 -3 -5 -2 -10 4 -10 5 0 22 -11 36 -24 23
-21 32 -23 93 -19 84 6 96 9 88 28 -4 10 1 15 16 15 18 0 19 2 7 16 -12 15
-11 16 9 10 14 -5 22 -3 22 4 0 8 6 8 20 0 22 -12 27 -46 8 -53 -10 -4 -9 -8
2 -16 20 -14 13 -18 -54 -26 -41 -5 -56 -3 -52 4 10 15 -7 14 -40 -4 -17 -9
-42 -13 -59 -10 -24 4 -26 3 -10 -4 19 -9 19 -10 -3 -10 -31 -1 -18 -21 14
-21 30 0 32 -20 2 -21 -13 -1 -2 -6 25 -11 26 -6 47 -14 47 -19 0 -5 -5 -9
-11 -9 -5 0 -7 -5 -4 -10 4 -6 11 -8 16 -5 5 4 9 0 9 -8 0 -9 14 -13 48 -14
49 0 95 -14 107 -32 4 -8 -2 -8 -20 -1 -40 15 -104 15 -118 0 -10 -10 -7 -11
15 -6 15 3 29 2 32 -3 3 -5 34 -7 68 -5 34 1 68 -2 75 -8 7 -5 25 -7 40 -4 15
3 35 1 43 -5 12 -8 10 -9 -9 -4 -15 5 -21 3 -17 -3 11 -18 -24 -22 -61 -7 -44
19 -54 19 -47 1 3 -8 22 -18 42 -23 l37 -9 -49 -17 c-27 -9 -56 -17 -64 -17
-8 0 -26 -8 -40 -19 -22 -15 -36 -17 -76 -11 -36 5 -54 4 -63 -5 -6 -7 -9 -16
-5 -20 4 -4 -9 -5 -28 -2 l-35 7 23 -20 c18 -15 38 -19 100 -18 61 0 72 2 52
10 l-25 10 23 9 c44 17 242 9 242 -10 0 -14 -95 -10 -111 5 -11 10 -19 12 -23
5 -4 -6 -13 -8 -21 -4 -8 3 -15 1 -15 -5 0 -5 7 -13 16 -16 23 -9 244 -7 244
2 0 4 17 8 38 8 56 0 104 11 113 26 6 10 -1 14 -26 16 -19 2 -35 7 -35 12 0 4
8 7 18 5 61 -13 72 -17 67 -25 -4 -6 5 -5 19 2 14 6 26 18 26 25 0 9 7 12 18
9 9 -2 27 -7 40 -11 13 -4 22 -2 22 4 0 6 -4 11 -10 11 -5 0 -10 5 -10 10 0 6
14 3 32 -6 30 -15 31 -18 13 -24 -11 -5 -28 -18 -37 -29 -10 -12 -28 -21 -40
-20 l-23 0 23 10 c13 5 20 14 17 20 -5 8 -10 8 -18 0 -6 -6 -20 -11 -30 -11
-17 0 -18 -2 -6 -16 11 -14 9 -15 -17 -11 -16 2 -47 1 -69 -3 -27 -5 8 -8 107
-9 108 -1 148 2 152 12 5 9 7 9 12 0 7 -15 60 -17 69 -4 3 6 -3 9 -12 9 -56
-4 -97 31 -47 41 10 2 21 7 24 11 3 5 14 2 25 -7 14 -10 15 -14 5 -13 -30 4
-73 0 -67 -7 11 -10 82 -7 103 5 18 11 18 11 1 12 -10 0 -16 4 -13 9 4 5 -4 7
-16 3 -13 -3 -19 -1 -15 5 9 14 -47 22 -69 10 -11 -6 -15 -6 -10 1 7 11 -42
24 -96 24 -21 0 -35 4 -32 9 3 5 -9 12 -26 16 -25 4 -29 8 -17 15 9 5 27 4 43
-2 19 -8 30 -8 38 0 5 5 23 10 40 10 29 0 29 -1 10 -16 -18 -15 -18 -15 5 -8
17 4 22 3 16 -6 -5 -9 -4 -11 3 -6 7 4 12 15 12 26 0 19 -25 34 -42 24 -6 -4
-9 -1 -6 7 3 8 14 14 26 14 12 0 21 4 19 10 -1 5 -8 8 -16 7 -7 -2 -10 1 -6 7
8 14 45 14 45 1 0 -13 37 -13 45 0 4 6 16 8 27 4 18 -5 20 -3 14 19 -5 21 -2
26 21 32 15 3 29 2 31 -3 1 -5 9 -18 17 -28 14 -18 15 -18 21 3 6 22 29 37 43
28 10 -6 46 34 55 60 5 16 2 15 -14 -5 -18 -24 -20 -24 -20 -4 0 11 12 31 27
45 23 22 26 22 20 4 -5 -13 4 -7 23 15 16 19 30 39 30 43 0 5 9 16 19 25 21
18 61 86 61 103 0 20 27 38 49 32 14 -4 26 1 35 12 9 12 20 16 36 12 16 -4 28
0 38 11 13 16 13 16 8 0 -11 -36 63 -2 77 35 7 19 22 22 32 7 3 -5 1 -10 -5
-10 -6 0 -8 -11 -6 -25 4 -20 1 -25 -17 -25 -18 0 -19 -2 -7 -10 13 -8 11 -11
-7 -16 -33 -9 -27 -31 15 -53 24 -13 62 -7 62 10 0 17 18 9 23 -11 4 -15 0
-20 -13 -20 -10 0 -25 -11 -33 -24 -17 -25 -53 -40 -63 -25 -3 5 2 12 10 15
24 9 19 26 -5 19 -15 -5 -19 -4 -15 4 4 6 1 11 -6 11 -7 0 -19 -9 -26 -20 -10
-17 -10 -20 3 -20 8 0 15 -7 15 -15 0 -10 10 -15 30 -15 17 0 30 -5 30 -11 0
-6 -7 -8 -15 -5 -9 3 -18 -1 -21 -9 -4 -8 -15 -15 -26 -15 -10 0 -16 -4 -13
-10 3 -5 0 -10 -7 -10 -7 0 -24 -10 -38 -21 l-25 -20 25 12 c22 11 24 11 12
-4 -11 -13 -10 -16 5 -20 10 -3 3 -5 -15 -6 -21 -1 -31 -5 -26 -12 3 -6 15 -8
26 -6 14 4 17 2 9 -7 -6 -7 -8 -16 -4 -19 3 -4 1 -7 -6 -7 -7 0 -9 -4 -6 -10
3 -5 -1 -10 -10 -10 -12 0 -14 -4 -7 -17 7 -12 4 -21 -11 -33 -11 -9 -17 -22
-13 -28 10 -17 26 -15 26 3 0 19 14 19 30 -1 11 -13 10 -16 -10 -21 -22 -6
-23 -7 -4 -14 16 -7 15 -8 -7 -8 -19 -1 -28 5 -32 19 -3 13 -14 20 -30 20 -14
0 -32 6 -40 14 -8 8 -31 18 -51 21 -20 4 -35 12 -33 19 3 10 -15 36 -26 36 -3
0 -7 -10 -10 -21 -5 -19 -11 -21 -49 -16 l-43 6 45 -19 c25 -10 52 -19 60 -19
10 1 11 2 3 6 -7 2 -13 9 -13 14 0 5 11 4 25 -3 13 -6 22 -15 19 -19 -3 -5 9
-7 26 -5 23 3 30 0 26 -10 -3 -8 -1 -14 4 -14 6 0 10 -4 10 -10 0 -15 -16 -12
-34 6 -9 8 -20 13 -25 10 -13 -8 -21 -46 -9 -46 5 0 6 -4 3 -10 -3 -5 -1 -10
4 -10 6 0 11 7 11 15 0 8 5 15 10 15 6 0 9 -6 8 -12 -4 -19 -25 -38 -42 -38
-9 0 -16 -5 -16 -12 0 -6 3 -8 6 -5 4 3 15 2 25 -3 12 -7 19 -6 22 3 3 9 10 9
28 -2 13 -8 34 -15 47 -17 19 -2 22 2 20 24 -3 22 1 27 20 26 12 0 22 3 22 8
0 5 4 7 8 4 5 -3 21 2 36 9 16 8 32 12 37 9 6 -3 16 0 24 6 8 7 15 10 15 6 0
-3 11 -1 25 4 14 5 25 6 25 1 0 -5 -6 -11 -13 -14 -9 -3 -9 -7 2 -20 17 -22 3
-22 -21 0 -10 9 -18 11 -18 5 0 -6 6 -12 12 -15 7 -2 10 -7 7 -11 -3 -3 -20 1
-37 10 -23 11 -36 12 -50 5 -11 -6 -22 -7 -26 -4 -3 3 -6 1 -6 -5 0 -7 12 -13
28 -13 15 -1 32 -2 37 -4 6 -1 18 -3 28 -3 21 -2 22 -16 2 -36 -11 -10 -12
-17 -4 -22 12 -7 31 15 23 28 -3 4 6 10 20 14 14 3 23 11 20 18 -3 7 7 25 21
42 28 33 33 59 9 50 -8 -3 -12 -2 -9 4 3 5 -6 12 -21 16 -15 4 -39 13 -53 20
-14 7 -35 11 -47 8 -16 -4 -23 0 -27 15 -3 12 -1 21 4 21 4 0 6 7 3 15 -4 8
-1 21 5 29 6 7 7 16 3 20 -4 5 4 7 18 6 43 -4 50 -1 50 21 0 16 5 20 20 16 10
-3 21 0 23 7 3 8 9 7 21 -3 15 -13 16 -11 14 20 -3 29 0 34 19 34 12 0 25 4
29 8 4 4 0 7 -9 7 -10 0 -17 6 -17 14 0 18 17 30 24 17 4 -5 0 -12 -6 -14 -8
-3 -6 -6 5 -6 9 -1 17 6 17 15 0 9 8 23 18 30 16 12 15 13 -5 14 -13 0 -23 -4
-23 -10 0 -5 -7 -10 -17 -10 -14 0 -14 2 2 20 11 12 26 18 39 15 12 -3 32 3
46 15 14 11 19 20 13 20 -21 0 -15 27 8 33 11 3 23 14 25 25 3 10 18 26 34 35
33 20 46 22 33 5 -15 -20 -24 -50 -13 -43 6 3 10 0 10 -7 0 -10 2 -10 9 0 7
12 14 11 40 -2 36 -19 41 -31 10 -23 -41 11 -73 -4 -104 -46 -16 -23 -31 -51
-32 -62 -2 -11 -11 -36 -21 -55 l-17 -35 -6 45 c-3 25 -7 37 -7 28 -1 -9 -10
-19 -19 -21 -17 -4 -17 -5 0 -6 10 -1 17 -9 17 -20 0 -11 3 -26 6 -35 4 -12 0
-16 -15 -16 -12 0 -21 5 -21 10 0 6 -7 10 -15 10 -18 0 -20 -21 -3 -38 22 -22
15 -63 -16 -94 -18 -19 -25 -33 -19 -39 16 -16 43 1 43 27 0 13 5 24 10 24 6
0 10 6 9 12 -3 19 12 68 21 68 16 0 17 -40 3 -91 -9 -30 -17 -66 -20 -81 -6
-32 -19 -35 -44 -12 -16 14 -17 13 -17 -20 0 -19 -3 -41 -7 -48 -6 -10 -5 -11
6 0 17 16 26 15 26 -3 0 -8 -4 -12 -9 -9 -9 6 -10 3 -12 -39 l-2 -28 291 1
290 1 12 57 12 57 -4 -58 -4 -57 284 0 285 0 -7 33 c-3 17 -10 40 -14 49 -12
23 -11 51 1 43 6 -4 7 5 4 23 -5 25 -2 31 16 37 12 4 24 4 28 0 4 -3 21 -45
38 -93 l31 -87 372 -3 c323 -2 371 0 371 13 0 11 -5 13 -26 5 -34 -13 -39 -13
-24 5 14 17 48 19 70 5 10 -6 11 -10 3 -10 -7 0 -13 -4 -13 -10 0 -5 15 -10
33 -10 22 0 28 3 18 9 -18 12 4 19 37 13 17 -3 20 -7 11 -13 -7 -4 60 -7 150
-7 120 1 167 5 176 15 20 19 41 17 25 -2 -12 -14 5 -15 156 -13 126 2 169 6
170 16 1 6 2 15 3 19 0 3 12 -4 25 -16 l24 -22 6 25 c3 14 11 26 16 26 14 0
12 -24 -2 -38 -9 -9 9 -12 84 -12 86 0 96 2 101 19 5 21 -17 36 -35 25 -6 -4
-8 -1 -6 7 6 15 61 14 66 -2 2 -5 17 -9 33 -9 30 0 41 -23 17 -33 -10 -4 -10
-6 0 -6 7 -1 24 7 39 16 14 9 39 16 55 15 16 -1 38 3 50 9 15 8 19 8 14 0 -4
-6 -1 -18 7 -26 13 -12 101 -14 585 -15 563 0 570 0 575 20 3 13 13 20 29 19
12 0 17 -3 11 -6 -7 -2 -13 -10 -13 -16 0 -8 29 -13 90 -14 55 -1 88 2 85 7
-4 6 3 10 15 10 12 0 19 -4 16 -9 -4 -5 8 -4 24 2 25 9 33 9 39 -2 6 -9 11
-10 15 -2 4 6 15 11 24 10 14 0 14 -2 -3 -10 -16 -7 -14 -8 10 -3 17 3 50 8
75 10 34 3 40 2 25 -6 -23 -11 179 -7 230 5 23 5 26 4 15 -4 -11 -8 6 -11 68
-11 77 0 110 13 60 23 -13 3 7 5 43 4 36 0 71 3 77 7 6 3 13 2 17 -4 7 -11 4
-12 -42 -14 -54 -3 -50 -16 5 -16 29 0 52 5 52 10 0 6 5 10 11 10 5 0 7 -5 4
-11 -5 -7 27 -9 100 -8 58 1 108 6 111 11 7 12 44 10 44 -2 0 -7 172 -10 523
-8 287 1 514 3 505 6 -10 2 -18 8 -18 14 0 6 10 8 23 4 12 -3 28 -6 35 -6 7 0
10 -4 7 -10 -4 -7 62 -10 189 -10 l196 0 0 85 c0 75 -2 85 -18 85 -10 0 -23
-5 -29 -11 -6 -6 -17 -9 -25 -6 -7 3 5 13 30 23 l42 19 0 307 c-1 228 -4 308
-13 312 -9 3 -9 5 1 5 9 1 12 46 12 189 l0 187 -84 -1 c-46 -1 -88 -4 -93 -7
-4 -2 -39 2 -78 9 l-70 13 70 0 c192 -1 255 2 255 10 0 5 -10 12 -22 14 l-23
4 23 2 c20 1 22 6 22 57 l0 56 -30 -4 c-16 -3 -30 -1 -30 3 0 4 -10 5 -22 3
-14 -3 -10 2 11 11 24 12 37 13 44 6 6 -6 15 -11 19 -11 13 0 9 58 -4 64 -10
5 -10 7 -1 12 10 4 13 536 13 2605 l0 2599 -5910 0 -5910 0 0 -2094z m5340
-497 c0 -12 7 -19 20 -19 12 0 20 7 20 17 0 13 4 12 19 -6 19 -21 21 -22 43
-7 28 20 38 20 38 1 0 -8 7 -15 15 -15 9 0 12 -6 8 -16 -4 -11 -15 -15 -39
-12 -26 3 -31 1 -22 -9 6 -7 14 -13 19 -13 4 0 21 -12 36 -27 26 -24 26 -26 6
-21 -12 3 -29 0 -38 -6 -15 -11 -12 -14 19 -23 31 -10 36 -9 37 5 0 11 2 12 6
5 2 -7 10 -13 17 -13 7 0 18 -11 24 -25 10 -22 9 -25 -7 -25 -11 0 -22 6 -24
13 -4 9 -8 9 -15 -2 -7 -9 -12 -10 -16 -2 -4 6 -17 11 -29 11 -12 1 -38 9 -57
19 -26 15 -39 16 -57 8 -13 -6 -25 -8 -27 -6 -8 8 -11 197 -3 192 4 -2 7 -13
7 -24z m-60 -418 c-5 -11 -15 -23 -21 -27 -6 -3 -8 -17 -5 -30 4 -14 2 -24 -4
-24 -18 0 -11 -28 9 -35 11 -3 23 -15 26 -26 l7 -21 15 21 c8 12 18 21 24 21
16 0 10 -26 -10 -44 -11 -10 -17 -24 -14 -32 5 -12 10 -11 28 6 19 18 23 19
28 6 3 -9 2 -18 -3 -21 -6 -4 -10 -15 -10 -27 0 -16 3 -18 14 -9 7 6 21 9 30
5 12 -4 16 0 16 15 0 12 6 21 16 21 8 0 12 4 9 10 -3 6 1 7 9 4 14 -5 21 5 18
28 -2 12 27 17 34 6 4 -7 3 -8 -4 -4 -7 4 -13 2 -13 -3 -1 -6 -2 -14 -4 -18
-4 -19 -207 -210 -210 -200 -8 23 -38 203 -43 251 -5 56 14 126 35 126 7 0 13
5 13 10 0 6 5 10 10 10 7 0 7 -6 0 -19z m2113 -1931 c27 -22 47 -26 47 -10 0
6 5 10 11 10 6 0 9 -6 6 -14 -7 -19 45 -28 153 -27 55 1 94 -4 112 -13 20 -11
28 -11 32 -3 3 7 3 2 1 -9 -5 -18 0 -23 30 -28 40 -8 44 -16 14 -34 -17 -11
-24 -11 -36 -1 -13 12 -13 14 4 20 13 6 9 8 -15 8 -18 1 -31 4 -28 9 2 4 -20
8 -50 10 -51 2 -69 -8 -42 -24 7 -4 8 -3 4 4 -9 15 3 15 58 0 29 -8 46 -18 50
-31 2 -10 14 -21 25 -24 12 -3 21 -9 21 -13 0 -5 -21 -1 -47 8 -27 8 -64 15
-83 14 -29 -1 -32 1 -17 10 11 5 35 7 55 3 24 -4 33 -3 27 3 -16 15 -73 23
-81 11 -6 -10 -55 -6 -91 8 -11 4 -14 2 -9 -5 4 -7 1 -12 -9 -12 -11 0 -15 5
-12 14 4 10 1 13 -9 9 -8 -3 -25 2 -39 11 -21 14 -24 14 -19 1 4 -8 1 -15 -5
-15 -6 0 -11 6 -11 14 0 11 -8 12 -35 6 -20 -4 -44 -6 -55 -3 -11 3 -20 0 -20
-6 0 -7 -24 -11 -65 -11 -36 0 -65 -3 -65 -7 0 -5 56 -8 123 -9 68 0 132 -4
143 -8 19 -8 19 -8 -1 -16 -17 -8 -18 -9 -2 -9 10 -1 20 6 23 14 8 19 24 20
24 2 0 -8 11 -19 25 -25 15 -7 25 -8 25 -2 0 6 10 10 23 10 18 0 19 -2 7 -10
-12 -8 -11 -10 8 -10 12 0 22 5 22 12 0 7 5 5 13 -5 9 -13 39 -17 141 -23 72
-4 141 -11 155 -15 35 -12 -237 -2 -399 15 -46 4 -59 3 -45 -4 18 -9 18 -9 -5
-7 -14 1 -24 7 -23 12 1 6 -9 10 -22 10 -13 0 -21 -4 -18 -8 7 -11 -86 2 -112
16 -13 7 -20 7 -23 -2 -2 -6 -8 -11 -14 -11 -6 0 -8 6 -5 13 4 10 -4 14 -24
14 -29 0 -29 -1 -10 -18 20 -19 67 -35 89 -31 6 2 12 -3 12 -10 0 -11 2 -11 8
0 7 10 32 11 123 3 195 -17 219 -18 219 -9 0 5 6 6 13 1 6 -4 41 -6 76 -4 44
2 61 0 57 -8 -4 -6 -17 -9 -29 -6 -12 3 -35 2 -50 -3 -29 -8 -29 -8 -10 -31
16 -20 27 -23 98 -23 44 0 93 5 108 11 16 6 34 8 40 4 7 -4 2 -10 -13 -14 -14
-4 11 -6 55 -4 130 5 124 4 95 20 -28 16 -54 20 -30 5 9 -6 10 -10 3 -10 -6 0
-15 5 -18 11 -4 6 -14 8 -22 5 -8 -3 -23 -1 -34 4 -14 8 -19 7 -19 -2 0 -9 -2
-10 -8 -2 -4 7 -34 14 -67 17 -33 4 -61 6 -62 7 -2 0 -3 5 -3 11 0 5 3 8 8 6
8 -6 225 -21 260 -19 12 1 22 -2 22 -7 0 -6 12 -6 29 -1 16 4 31 7 33 5 7 -7
86 -16 141 -16 32 0 55 -5 52 -10 -4 -5 -1 -9 4 -9 6 0 11 5 11 11 0 6 7 9 15
5 10 -4 15 1 15 14 0 11 -7 20 -15 20 -8 0 -15 -4 -15 -10 0 -14 -43 -6 -48 8
-2 7 -12 12 -23 12 -11 0 -30 7 -42 15 -15 10 -45 14 -95 12 -55 -1 -75 2 -83
13 -9 13 -10 12 -5 -3 5 -15 3 -16 -15 -6 -11 6 -27 8 -35 5 -8 -3 -14 -3 -14
0 0 3 14 10 31 16 22 8 28 13 19 22 -8 8 -13 7 -20 -4 -9 -13 -11 -13 -20 0
-7 11 -10 12 -10 2 0 -9 -7 -11 -20 -7 -11 4 -20 2 -20 -4 0 -6 5 -11 10 -11
6 0 10 -4 10 -10 0 -18 -15 -10 -32 17 -15 26 -16 26 -22 5 -4 -12 -14 -22
-23 -22 -12 0 -13 3 -4 14 9 10 8 16 -4 26 -9 7 -18 10 -22 6 -3 -3 0 -6 7 -6
10 0 11 -3 3 -11 -15 -15 -119 -24 -127 -10 -5 8 9 11 46 12 l53 1 -60 14
c-49 11 -52 12 -17 9 23 -1 42 1 42 5 0 12 134 1 138 -11 2 -5 8 -9 13 -9 6 0
7 5 4 10 -4 6 5 10 19 10 14 0 26 -4 26 -10 0 -6 8 -6 23 1 14 6 42 7 77 2 30
-5 81 -8 113 -8 31 1 57 -2 57 -6 0 -4 10 -7 23 -7 63 4 157 -3 153 -11 -3 -5
1 -11 9 -15 8 -3 15 -10 15 -16 0 -15 -26 -12 -40 5 -7 8 -17 15 -22 15 -6 0
-5 -7 2 -16 12 -13 10 -14 -13 -3 -15 7 -24 16 -21 20 3 5 -4 9 -15 9 -11 0
-22 -4 -25 -8 -5 -9 -95 0 -135 13 -12 4 -21 2 -21 -4 0 -6 5 -11 10 -11 6 0
20 -9 32 -20 12 -11 36 -20 52 -21 116 -4 211 -1 214 7 6 16 46 33 65 28 9 -3
17 -1 17 5 0 6 7 11 15 11 19 0 20 -18 0 -22 -28 -6 0 -27 43 -33 33 -4 41 -2
36 8 -6 9 -4 9 7 1 8 -6 25 -11 39 -12 14 -1 26 -6 28 -12 2 -5 12 -10 23 -10
10 0 19 -4 19 -9 0 -5 10 -12 23 -14 12 -2 4 -2 -18 0 -22 2 -42 7 -45 12 -5
7 -46 12 -127 15 -22 0 -39 4 -37 8 5 8 -115 3 -137 -7 -10 -3 -23 -5 -30 -3
-14 3 -19 -3 -19 -23 0 -6 8 -8 18 -5 9 3 31 2 47 -3 l30 -9 -37 -1 c-20 -1
-48 -5 -62 -11 -27 -10 -158 -2 -151 10 2 4 -11 2 -29 -4 -25 -7 -30 -13 -22
-22 6 -7 13 -8 14 -3 2 5 16 9 30 9 21 0 24 -2 12 -10 -11 -7 -5 -8 19 -3 22
4 32 3 28 -4 -4 -6 20 -5 61 4 55 12 151 13 232 4 2 -1 -1 -6 -8 -13 -8 -8 -5
-14 15 -25 14 -7 36 -13 49 -13 12 0 26 -5 30 -11 3 -6 18 -8 33 -5 14 3 19 2
11 -1 -9 -5 4 -11 35 -18 27 -6 43 -13 35 -16 -22 -8 -141 21 -134 32 3 5 -2
9 -10 9 -9 0 -15 -3 -15 -7 4 -26 -3 -31 -38 -23 -21 5 -83 11 -138 15 -88 6
-152 25 -128 37 4 3 1 3 -7 0 -52 -15 -53 -15 -47 1 4 10 2 17 -3 17 -6 0 -10
-4 -10 -10 0 -5 -11 -10 -25 -10 -26 0 -34 -15 -12 -23 6 -2 -1 -2 -16 0 -24
4 -168 12 -246 14 -17 1 -20 3 -10 9 7 5 10 12 6 16 -4 4 -15 0 -25 -9 -16
-15 -20 -15 -39 -2 -15 11 -24 12 -29 4 -5 -8 -8 -8 -14 0 -7 12 -58 4 -104
-14 -14 -6 -18 -4 -14 6 2 8 14 15 26 17 12 2 22 7 22 10 0 10 -82 2 -97 -10
-7 -5 -12 -5 -15 1 -1 5 -16 12 -33 15 -16 3 -42 8 -57 12 -17 3 -28 1 -28 -5
0 -6 5 -11 11 -11 5 0 7 -5 4 -10 -4 -7 -21 -8 -43 -4 -20 4 -45 7 -55 6 -10
0 -21 6 -24 14 -4 10 -15 12 -44 8 -23 -4 -39 -3 -39 3 0 6 -27 18 -60 27 -55
16 -62 16 -76 1 -15 -14 -15 -18 0 -40 11 -17 26 -25 45 -25 15 0 36 -9 46
-20 10 -11 25 -20 34 -20 9 0 2 11 -19 30 -36 30 -35 39 3 18 24 -13 22 -13
202 -22 67 -3 152 -10 190 -15 52 -8 71 -7 77 2 6 9 8 9 8 0 0 -9 17 -13 53
-13 29 0 58 -5 64 -11 8 -8 17 -8 31 0 22 12 82 4 82 -11 0 -5 9 -4 19 2 26
13 44 13 35 -2 -5 -8 -2 -9 10 -5 10 4 49 7 87 7 55 0 69 3 69 15 0 8 5 15 10
15 15 0 12 -11 -7 -33 -17 -20 -17 -20 2 -12 31 14 137 7 128 -7 -7 -13 11 -8
31 7 22 17 46 20 46 6 0 -5 -7 -8 -16 -7 -9 0 -19 -5 -22 -13 -3 -9 1 -11 15
-7 11 3 27 -1 39 -10 10 -8 14 -13 7 -10 -6 4 -13 2 -15 -3 -2 -6 -17 -7 -40
-2 -28 7 -38 5 -42 -5 -6 -17 -20 -17 -86 -3 -39 8 -50 15 -46 26 5 12 0 13
-25 8 -25 -6 -30 -4 -24 6 6 11 5 12 -6 2 -19 -18 -32 -16 -25 5 5 15 5 15 -8
-1 -12 -16 -20 -17 -52 -8 -39 11 -141 4 -149 -9 -3 -5 5 -6 17 -3 23 5 23 4
-2 -17 -25 -21 -25 -22 -2 -17 12 3 22 1 22 -5 0 -6 9 -8 20 -5 11 3 23 1 26
-4 8 -14 52 -11 57 4 2 8 16 4 43 -14 21 -15 46 -30 54 -33 8 -3 2 -4 -13 -2
-21 2 -27 0 -23 -10 3 -9 -4 -16 -19 -20 -14 -3 -25 -10 -25 -14 0 -4 -11 -5
-25 -2 -19 3 -25 0 -25 -13 0 -14 -3 -15 -15 -5 -24 20 -18 30 18 30 42 0 61
17 42 36 -17 17 -55 18 -55 2 0 -7 -5 -6 -12 4 -21 26 -63 30 -82 9 -16 -18
-15 -19 31 -26 42 -7 45 -9 23 -16 -14 -4 -20 -7 -13 -8 7 -1 17 -11 24 -23
10 -18 9 -20 -5 -15 -9 4 -16 2 -16 -3 0 -6 -5 -10 -10 -10 -6 0 -10 6 -9 13
3 26 -2 37 -17 37 -8 0 -13 4 -9 10 3 5 -9 14 -27 19 -18 5 -26 10 -17 10 30
2 39 24 21 48 -22 27 -77 40 -85 19 -4 -11 2 -14 29 -11 19 1 37 -1 39 -5 7
-11 -62 -17 -80 -7 -9 4 -25 9 -38 11 -83 10 -126 20 -121 27 5 8 -6 10 -91
14 -46 3 -48 4 -31 20 12 12 20 13 35 5 11 -5 22 -6 25 -1 3 5 -12 13 -33 19
-36 9 -40 8 -45 -12 -3 -11 -5 -23 -5 -25 0 -2 -5 -8 -13 -12 -11 -7 -10 -11
2 -19 13 -8 13 -10 -1 -10 -24 0 -29 9 -19 36 7 18 6 22 -5 17 -8 -3 -15 -12
-15 -20 0 -8 -4 -12 -9 -9 -5 3 -7 16 -4 29 3 13 1 17 -4 10 -4 -6 -25 -14
-46 -18 -20 -4 -37 -11 -37 -15 0 -8 49 -20 83 -20 11 0 26 -8 33 -17 10 -15
16 -16 31 -6 10 6 17 16 16 21 -2 6 13 1 32 -11 40 -26 44 -37 13 -31 -13 2
-16 1 -8 -2 8 -4 18 -12 22 -18 5 -6 8 -7 8 -1 0 9 14 11 83 15 12 1 17 6 13
16 -3 8 1 14 9 14 8 0 14 -3 14 -7 -4 -24 4 -29 34 -25 32 4 32 4 10 -13 -13
-9 -23 -22 -23 -28 0 -7 -11 -17 -24 -23 -20 -9 -23 -9 -19 3 5 12 1 14 -15 8
-13 -4 -22 -2 -22 4 0 6 14 11 30 11 32 0 40 14 14 24 -23 9 -54 -2 -54 -20 0
-17 -30 -19 -31 -1 0 9 -2 9 -6 -1 -4 -10 -8 -10 -19 -1 -11 9 -14 9 -14 -1 0
-10 -3 -10 -15 0 -9 7 -13 15 -10 18 6 6 -62 32 -83 32 -7 0 -11 -4 -8 -9 8
-12 -77 -1 -85 12 -4 5 -9 5 -13 -2 -4 -6 -12 -11 -17 -11 -6 0 -7 5 -4 10 3
6 3 10 -2 10 -12 0 -39 -20 -28 -20 6 0 3 -5 -5 -11 -12 -8 -9 -9 12 -7 15 2
27 -1 27 -7 1 -5 -6 -10 -13 -10 -8 0 -18 -4 -22 -8 -14 -13 31 -6 50 8 13 10
15 15 6 15 -7 0 -11 3 -8 6 10 9 98 -7 92 -17 -3 -5 0 -9 5 -9 6 0 11 5 11 10
0 6 16 10 35 10 19 0 35 -5 35 -11 0 -5 -4 -8 -9 -4 -13 7 -59 -14 -65 -31 -3
-8 -1 -14 5 -14 5 0 12 6 15 13 6 16 76 15 82 -1 2 -7 12 -12 22 -12 10 0 22
-5 25 -10 4 -6 15 -8 26 -5 23 8 47 -4 30 -15 -9 -5 -8 -10 3 -19 11 -9 16 -9
22 0 4 8 3 9 -4 5 -7 -4 -12 -3 -12 3 0 16 22 24 30 11 4 -7 13 -10 19 -6 6 4
27 2 48 -3 20 -6 41 -7 47 -3 6 5 27 5 46 1 30 -5 31 -7 8 -8 -15 0 -30 -6
-34 -12 -4 -8 0 -9 15 -4 12 4 21 2 21 -4 0 -6 -10 -11 -23 -11 -13 0 -28 -5
-35 -12 -9 -9 -12 -9 -12 0 0 9 -5 10 -19 2 -13 -7 -22 -7 -26 0 -3 5 3 10 14
10 14 0 19 5 15 15 -7 18 -79 21 -90 4 -5 -9 4 -10 32 -6 34 6 36 5 16 -5 -17
-8 -32 -8 -62 2 -21 7 -39 16 -38 19 3 26 -3 33 -17 21 -13 -11 -18 -10 -29 6
-13 18 -16 18 -48 2 -27 -14 -29 -17 -11 -17 12 -1 25 4 28 9 11 18 23 10 17
-12 -4 -17 -2 -20 11 -15 10 4 17 2 17 -3 0 -6 -9 -10 -20 -10 -11 0 -20 4
-20 8 0 5 -13 9 -30 9 -23 0 -33 -7 -42 -29 -15 -33 -24 -36 -24 -8 0 11 4 20
8 20 4 0 8 5 8 11 0 7 -15 10 -40 7 -22 -2 -40 0 -40 5 0 5 -8 7 -18 5 -10 -3
-23 1 -30 9 -7 7 -17 11 -23 8 -5 -4 -9 -1 -9 4 0 6 -7 11 -15 11 -9 0 -18 6
-21 14 -3 8 -14 14 -25 13 -19 -1 -18 -2 3 -19 13 -10 30 -18 38 -19 13 0 13
-1 0 -6 -8 -4 -21 -13 -29 -20 -9 -10 -22 -12 -40 -7 -14 4 -38 8 -53 7 -16 0
-28 3 -28 7 0 4 -19 7 -42 8 -24 0 -60 4 -81 10 -31 8 -39 7 -44 -4 -3 -8 -13
-14 -22 -13 -10 0 -11 2 -3 6 6 2 12 16 12 29 0 14 -4 22 -10 19 -5 -3 -10 -1
-10 6 0 9 -3 9 -14 -1 -8 -6 -12 -18 -9 -26 3 -8 0 -14 -6 -14 -17 0 -13 31 5
44 14 11 14 13 0 25 -14 12 -16 12 -10 -3 5 -13 -1 -16 -27 -17 -19 -1 -50 -2
-69 -4 -19 -2 -43 1 -55 5 -13 6 -15 9 -5 10 10 1 9 4 -5 9 -21 9 -42 -9 -24
-20 14 -9 -37 -40 -55 -33 -8 3 -15 23 -18 49 l-3 43 37 4 c26 2 38 -1 38 -9
0 -7 9 -13 21 -13 22 0 20 3 -31 45 -19 15 -21 16 -11 3 12 -16 11 -18 -3 -18
-9 0 -16 4 -16 9 0 5 -10 7 -22 5 -13 -2 -17 -1 -10 2 10 5 9 9 -5 20 -16 12
-16 12 6 7 17 -4 22 -3 17 5 -10 16 26 16 44 0 8 -7 11 -9 7 -4 -11 15 35 34
54 23 20 -12 53 -2 44 13 -4 7 2 9 19 4 16 -4 26 -2 26 5 0 6 -12 12 -27 12
-19 1 -22 3 -10 6 27 7 67 -5 64 -20 -1 -8 8 -11 26 -9 17 2 26 -1 23 -7 -4
-6 4 -9 19 -7 26 3 48 16 27 16 -7 0 -12 5 -12 10 0 6 13 4 30 -5 32 -17 54
-20 30 -5 -10 6 -11 10 -2 10 6 0 12 7 12 15 0 8 7 15 16 15 11 0 15 -6 11
-19 -5 -20 15 -31 61 -31 20 0 21 2 10 13 -34 35 -130 67 -199 67 -26 0 -65 7
-88 15 -23 8 -48 12 -56 8 -9 -3 -21 -1 -28 4 -22 18 -77 24 -77 9 0 -17 42
-29 51 -15 4 7 9 5 12 -5 4 -11 1 -16 -10 -16 -20 0 -105 40 -114 53 -4 6 -25
7 -48 4 -25 -3 -41 -1 -41 5 0 11 151 2 202 -12 16 -5 39 -5 51 0 20 8 19 9
-8 9 -16 1 -50 7 -75 15 -25 7 -51 11 -58 9 -7 -3 -18 0 -26 6 -7 6 -30 14
-51 19 -27 5 -39 13 -41 27 -2 11 -6 32 -9 46 -6 24 -5 25 29 21 22 -3 36 0
36 7 0 6 -15 11 -34 11 -19 0 -37 4 -41 10 -3 5 10 8 32 6 24 -3 44 2 55 11
11 10 24 13 35 8 24 -10 63 -12 63 -4 0 7 -40 16 -107 23 -34 4 -43 1 -43 -11
0 -10 -6 -13 -16 -9 -9 3 -20 6 -25 6 -5 0 -9 9 -9 20 0 11 -5 29 -12 40 -16
25 -5 35 22 20 15 -8 20 -8 16 -1 -5 7 4 11 23 11 16 0 33 -5 36 -10 4 -6 11
-8 16 -4 5 3 7 10 4 15 -4 5 1 9 9 9 9 0 16 -4 16 -8 0 -5 10 -14 23 -21 20
-10 19 -11 -11 -6 -20 3 -31 1 -27 -5 8 -14 48 -13 63 2 14 14 160 12 178 -3
10 -8 14 -8 14 0 0 6 9 11 20 11 11 0 20 5 20 11 0 8 13 9 43 4 23 -4 65 -9
92 -11 28 -2 87 -6 133 -9 45 -4 82 -4 82 0 0 15 -30 34 -61 38 l-34 4 36 1
c23 1 46 -5 62 -18z m1670 -272 c-24 -32 -9 -77 25 -78 18 0 15 18 -5 24 -10
3 2 3 27 1 25 -3 40 -2 33 1 -7 3 -9 12 -6 20 3 8 1 14 -5 14 -6 0 -12 -4 -14
-9 -1 -4 -12 -5 -23 0 -19 7 -19 8 3 8 12 1 22 6 22 11 0 6 9 10 20 10 12 0
20 -6 19 -12 -5 -41 0 -46 47 -43 25 1 48 6 52 10 4 4 -9 6 -28 3 -36 -6 -60
-1 -60 10 0 4 27 9 61 10 48 3 63 0 73 -14 9 -12 15 -14 20 -6 4 7 2 12 -3 12
-19 0 -12 17 9 23 11 3 20 1 20 -4 0 -5 9 -9 21 -9 15 0 19 -5 15 -15 -6 -18
23 -17 37 0 4 6 10 5 15 -3 7 -10 36 -12 116 -10 60 2 103 2 97 0 -26 -9 -8
-19 29 -17 41 2 123 -8 153 -20 12 -5 17 -2 17 9 0 10 -6 13 -17 9 -12 -4 -8
3 10 22 22 22 30 26 40 16 9 -10 8 -11 -5 -6 -20 8 -25 -10 -5 -18 9 -4 8 -8
-3 -16 -12 -9 -9 -11 13 -11 16 0 26 4 23 9 -8 12 37 22 48 11 7 -7 6 -10 -3
-10 -7 0 -9 -5 -6 -10 4 -6 18 -10 33 -9 15 1 41 -2 57 -6 43 -11 28 0 -25 19
l-45 16 50 -6 c28 -4 56 -11 64 -17 15 -13 131 -20 131 -8 0 10 63 7 80 -4 6
-4 17 -2 23 4 15 15 32 14 19 -1 -8 -10 12 -13 96 -12 59 1 121 3 137 6 17 3
24 3 17 1 -9 -3 -10 -9 -3 -16 7 -9 -19 -11 -105 -9 -83 3 -119 0 -130 -9 -11
-9 -17 -10 -23 -1 -3 6 -29 11 -56 11 -28 0 -80 2 -117 6 -44 3 -68 2 -68 -5
0 -5 -8 -10 -17 -10 -14 0 -15 2 -5 9 9 5 -3 10 -35 14 -28 3 -51 1 -54 -5 -4
-7 -9 -6 -13 1 -4 6 -24 10 -44 10 -23 -1 -29 -3 -14 -6 24 -5 24 -5 16 -27
-3 -9 -10 -13 -15 -10 -5 3 -7 9 -4 13 2 5 -16 11 -41 14 -26 2 -50 10 -54 17
-5 8 -33 11 -93 8 -48 -3 -88 -2 -89 2 -2 4 -19 5 -38 2 -33 -5 -34 -6 -10
-13 l25 -7 -26 -1 c-15 -1 -29 5 -33 14 -6 17 -36 21 -36 5 0 -5 5 -10 11 -10
5 0 7 -4 4 -10 -8 -13 -45 -13 -45 -1 0 6 5 13 10 16 16 10 11 21 -9 21 -11 0
-19 -3 -19 -6 3 -33 -37 -50 -45 -19 -3 10 -13 22 -24 26 -10 3 -21 11 -25 17
-5 8 -13 7 -27 -1 -17 -11 -23 -9 -37 10 l-16 22 6 -26 c5 -23 2 -27 -19 -31
-13 -3 -29 0 -34 5 -7 7 -15 6 -26 -3 -10 -8 -15 -9 -15 -1 0 18 -60 12 -87
-9 -24 -19 -26 -19 -39 -3 -13 19 -14 19 -81 21 -48 2 -55 12 -20 28 17 8 26
7 35 -2 7 -8 19 -11 28 -7 11 4 12 8 4 13 -16 10 5 50 27 50 11 0 13 -4 6 -12z
m257 -118 c17 0 43 -6 58 -14 24 -12 30 -12 47 0 10 8 24 14 29 14 6 0 4 -5
-4 -10 -13 -9 -13 -10 0 -10 13 0 13 -1 0 -10 -22 -14 -83 -13 -74 1 5 8 -1
10 -20 7 -14 -3 -26 -2 -26 2 0 13 -64 18 -90 7 -26 -11 -35 -14 -57 -16 -7 0
-13 -5 -13 -11 0 -6 27 -10 62 -10 34 0 58 -3 55 -7 -9 -8 -186 -14 -209 -7
-27 8 -22 33 5 28 20 -4 20 -4 2 4 -32 14 -63 -6 -35 -23 13 -8 13 -25 1 -25
-5 0 -13 9 -16 20 -3 11 -13 20 -22 20 -13 0 -13 -3 -3 -15 11 -13 8 -15 -15
-15 -16 0 -25 3 -22 7 4 3 -1 12 -11 20 -14 12 -14 14 -1 10 9 -3 22 -1 30 4
11 7 10 9 -6 9 -19 1 -19 1 -1 11 10 7 35 8 59 5 28 -5 43 -3 49 6 6 10 8 9 8
-4 0 -11 5 -15 15 -12 8 4 15 2 15 -4 0 -6 -6 -13 -12 -15 -7 -3 -4 -6 7 -6
11 -1 27 8 35 19 9 12 21 18 34 14 12 -3 30 2 41 10 13 9 25 11 37 5 9 -5 31
-9 48 -9z m-570 -45 c0 -10 -11 -15 -32 -16 -18 0 -27 -3 -20 -6 6 -2 12 -9
12 -15 0 -6 -9 -3 -20 7 -11 10 -20 13 -20 7 0 -7 -10 -22 -21 -33 -17 -17
-19 -23 -8 -30 10 -6 15 -3 18 8 3 14 6 13 23 -8 18 -23 19 -23 13 -2 -3 12
-1 24 5 28 5 3 10 2 10 -4 0 -7 8 -7 25 -1 21 8 27 6 36 -13 17 -30 40 -46 67
-47 12 0 30 -8 41 -19 18 -18 18 -19 -3 -19 -11 -1 -28 -2 -36 -3 -8 -1 -33
-1 -55 1 l-40 3 37 6 c44 7 40 17 -20 48 -33 17 -40 18 -31 6 13 -14 9 -15
-45 -9 -47 6 -57 5 -51 -6 3 -7 0 -5 -8 4 -7 10 -28 19 -46 20 -22 2 -30 6
-26 16 2 7 0 10 -5 7 -5 -3 -25 -7 -43 -9 -18 -2 -43 -7 -55 -10 -13 -5 -22
-3 -22 4 0 6 -10 8 -23 5 -12 -3 -36 1 -52 10 l-30 15 45 -5 c25 -3 57 -8 73
-10 15 -3 27 0 27 6 0 6 9 9 19 6 29 -7 117 13 100 24 -7 4 -11 11 -7 14 3 4
17 -1 31 -10 15 -10 28 -12 31 -6 4 5 -2 12 -11 14 -13 3 -12 5 5 6 14 1 21 5
16 12 -4 8 3 9 24 4 18 -3 33 -2 37 4 9 16 35 13 35 -4z m825 -109 c34 -23 80
-29 95 -11 14 17 40 20 40 5 0 -6 -10 -15 -22 -20 -16 -6 -8 -7 27 -3 28 3 56
10 63 16 8 6 16 6 25 -1 19 -15 94 -25 102 -13 3 6 18 11 33 10 l27 0 -24 -10
c-31 -12 -21 -21 24 -21 23 0 33 -4 28 -9 -6 -6 -34 -6 -74 0 -35 6 -86 10
-114 10 l-50 -2 47 -6 c27 -4 53 -12 59 -18 9 -9 4 -10 -17 -7 -16 3 -36 5
-44 5 -8 0 -26 5 -40 10 -14 5 -44 10 -68 12 -32 3 -42 0 -38 -10 6 -15 4 -15
-19 -7 -13 5 -14 8 -3 15 9 6 6 9 -10 9 -13 0 -21 -4 -18 -9 4 -5 0 -12 -6
-14 -7 -3 -4 -6 7 -6 16 -1 17 -3 6 -10 -8 -5 -26 -5 -43 1 -22 8 -26 13 -16
19 8 5 -14 9 -57 10 -79 1 -109 8 -112 27 -3 13 22 16 125 12 65 -2 78 4 40
20 -14 5 -17 9 -8 9 9 1 24 -5 35 -13z m1190 -16 c3 -5 20 -10 36 -10 18 0 28
4 24 10 -4 6 14 9 47 9 29 -1 43 -4 30 -6 -12 -2 -20 -8 -17 -13 3 -5 12 -7
19 -4 17 6 86 -21 86 -34 0 -5 19 -12 42 -16 50 -8 37 -22 -19 -21 -23 0 -38
5 -39 13 -1 6 -2 17 -3 22 0 6 -39 10 -93 10 -84 0 -90 -1 -72 -15 17 -14 16
-14 -23 -9 -29 5 -43 3 -43 -5 0 -6 7 -11 15 -11 8 0 15 -5 15 -10 0 -10 -32
-6 -78 11 -13 5 -35 9 -50 9 -16 0 -22 3 -15 8 8 5 6 13 -7 30 -22 26 -38 29
-36 5 1 -12 -7 -19 -23 -21 -14 -2 -21 0 -17 7 4 5 14 7 24 4 14 -5 15 -3 5 7
-13 14 -113 23 -113 10 0 -4 -9 -6 -20 -3 -51 13 -9 23 113 26 72 1 149 4 169
5 20 1 40 -2 43 -8z m-3975 -76 c0 -8 -5 -14 -12 -14 -6 0 -8 -3 -5 -7 4 -3
16 3 27 15 12 12 24 22 27 22 4 0 3 -3 0 -7 -4 -3 3 -13 14 -21 18 -12 23 -13
30 -1 5 8 9 11 9 7 0 -4 11 -4 23 1 14 6 30 6 38 0 8 -5 10 -9 4 -10 -5 0 10
-7 34 -14 38 -12 47 -12 65 1 21 14 55 20 42 7 -4 -5 -13 -8 -18 -8 -6 0 -13
-6 -16 -13 -2 -7 0 -12 5 -10 4 1 25 -1 46 -6 25 -5 43 -3 53 5 11 9 14 8 14
-4 0 -8 9 -17 20 -20 11 -3 18 -1 14 4 -3 5 1 9 9 9 8 0 17 -7 21 -15 6 -17
46 -21 46 -5 0 6 5 10 11 10 5 0 7 -4 4 -10 -3 -5 -2 -10 2 -10 5 0 14 -9 21
-21 12 -18 11 -19 -5 -11 -18 9 -130 27 -147 23 -4 -1 -13 2 -20 7 -18 15
-106 25 -106 13 0 -6 7 -11 15 -11 8 0 15 -4 15 -10 0 -5 -6 -10 -14 -10 -8 0
-16 -5 -18 -12 -5 -15 -25 -3 -39 24 -10 19 -9 20 10 15 24 -6 29 8 5 17 -9 3
-38 6 -64 6 -54 0 -71 13 -39 30 11 7 18 14 15 17 -3 3 -17 -2 -30 -11 -14 -9
-34 -16 -46 -16 -11 0 -20 -5 -20 -11 0 -6 9 -9 20 -6 25 6 34 -7 16 -22 -10
-8 -16 -9 -21 -1 -3 5 -10 10 -15 10 -6 0 -2 -9 7 -20 19 -21 39 -28 27 -8 -5
8 2 9 24 5 18 -4 32 -2 32 3 0 5 9 8 20 7 11 -1 20 -7 20 -14 0 -7 7 -13 15
-13 8 0 15 -7 15 -15 0 -8 7 -15 15 -15 8 0 15 -4 15 -10 0 -23 -112 -3 -131
23 -4 5 -10 4 -13 -2 -4 -6 -13 -11 -19 -11 -8 0 -7 3 2 9 11 7 9 10 -8 16
-27 8 -41 -2 -21 -15 9 -6 10 -10 3 -10 -6 0 -18 -6 -25 -14 -12 -11 -19 -9
-49 19 -18 18 -39 41 -46 52 -11 19 -9 21 23 25 19 2 34 -1 35 -7 0 -5 3 -4 6
3 4 9 8 10 18 2 9 -8 15 -8 20 0 11 17 -5 30 -36 30 -28 0 -29 1 -17 23 7 12
11 26 10 30 -1 5 2 6 8 2 5 -3 10 -13 10 -21z m-2047 -186 c-2 -5 1 -8 8 -8 8
0 8 -4 -1 -15 -9 -10 -9 -15 -1 -15 6 0 11 -5 11 -11 0 -6 7 -17 15 -25 19
-19 20 -48 1 -41 -7 3 -23 -1 -35 -9 -13 -10 -21 -11 -21 -4 0 6 -5 8 -11 4
-17 -10 10 -24 47 -24 22 0 34 6 42 23 11 19 12 20 9 2 -1 -11 4 -26 13 -33
13 -11 13 -13 0 -9 -8 2 -37 -2 -65 -9 -43 -12 -52 -12 -61 1 -12 17 -29 21
-19 5 8 -13 -15 -36 -45 -44 -15 -4 -20 -4 -13 1 7 5 20 27 29 48 9 22 23 47
31 56 8 10 16 41 18 70 2 30 7 72 11 94 l7 39 17 -44 c10 -25 16 -48 13 -52z
m2187 -64 c0 -8 -4 -14 -10 -14 -5 0 -10 -5 -10 -11 0 -5 4 -8 9 -4 6 3 9 -4
8 -15 -1 -11 -7 -20 -14 -20 -17 0 -16 -8 2 -27 9 -8 21 -13 28 -10 8 3 19 -4
25 -14 14 -22 34 -26 26 -4 -4 10 0 15 15 15 14 0 19 -5 15 -15 -4 -8 -2 -15
4 -15 5 0 15 7 22 15 16 19 26 19 33 1 10 -25 -5 -56 -32 -71 -25 -13 -25 -14
-4 -15 12 0 26 8 32 17 5 10 13 14 17 10 5 -4 3 -17 -4 -27 -17 -27 -15 -35 4
-19 15 12 16 11 9 -11 -8 -25 -8 -25 14 -6 18 16 21 17 21 3 0 -8 -6 -18 -12
-20 -7 -3 1 -4 19 -2 18 2 37 6 42 9 5 4 13 2 16 -4 7 -11 -13 -32 -52 -57
-17 -11 -16 -12 7 -13 24 -1 24 -1 6 -15 -26 -20 -17 -26 37 -28 37 -2 43 -4
34 -17 -6 -11 -21 -15 -46 -12 -27 2 -32 1 -21 -7 13 -9 13 -11 -2 -11 -10 0
-18 4 -18 9 0 5 -9 7 -20 4 -16 -4 -20 0 -20 17 0 19 -4 21 -32 15 -32 -6 -32
-5 -9 8 l23 14 -55 44 c-31 24 -56 50 -56 57 -1 6 -5 12 -9 12 -5 0 -36 26
-69 58 -58 54 -61 60 -61 105 0 35 3 47 14 47 9 0 12 5 9 10 -4 6 -11 8 -16 5
-5 -4 -9 -1 -9 4 0 6 9 11 19 11 11 0 22 4 25 9 9 13 46 1 46 -15z m477 -379
c0 -10 -10 -15 -28 -15 -15 0 -35 -3 -45 -7 -12 -4 -15 -3 -10 5 4 7 2 12 -3
12 -17 0 -13 -30 5 -37 9 -3 20 0 25 8 7 11 9 11 9 -2 0 -12 15 -19 50 -26 28
-6 50 -6 50 -2 0 5 9 9 20 9 12 0 25 10 32 25 6 14 15 25 20 25 5 0 6 -4 3
-10 -3 -5 0 -10 7 -10 14 0 -31 -39 -45 -40 -5 0 -16 -7 -25 -16 -11 -12 -27
-15 -58 -11 -30 3 -47 0 -58 -11 -15 -15 -16 -15 -16 0 0 14 -4 14 -44 0 -35
-13 -43 -20 -36 -32 6 -11 24 -15 69 -15 63 1 87 -14 29 -17 -86 -4 -130 -3
-134 4 -3 4 2 8 10 8 10 0 13 6 9 16 -3 9 -13 14 -24 11 -11 -3 -22 -1 -25 4
-3 5 4 9 16 9 26 0 80 27 80 40 0 12 -3 12 -34 0 -16 -6 -27 -6 -31 0 -4 6 -1
10 4 10 22 0 10 20 -11 21 l-23 2 23 4 c12 2 22 8 22 13 0 13 89 40 95 29 4
-5 15 -3 27 5 23 17 45 12 45 -9z m-1595 -127 c20 -58 29 -74 46 -76 32 -5 27
-16 -13 -31 -21 -7 -41 -24 -50 -42 -19 -36 -26 -37 -24 -1 0 15 -6 52 -15 82
-19 66 -20 112 -4 128 24 24 37 11 60 -60z m4658 -8 c-13 -8 -12 -10 3 -10 26
0 15 -25 -11 -25 -30 -1 -40 -15 -14 -22 37 -9 26 -30 -20 -38 -23 -4 -23 -4
-3 12 19 15 18 15 -17 10 -21 -3 -40 -2 -43 3 -3 5 -21 9 -40 8 -19 -1 -32 -5
-29 -10 3 -4 -13 -8 -35 -8 -23 0 -41 -4 -41 -10 0 -5 -9 -10 -20 -10 -17 0
-19 3 -11 19 6 10 7 21 4 25 -10 10 -43 7 -43 -4 0 -5 5 -10 11 -10 5 0 7 -4
4 -10 -8 -13 -44 10 -39 25 6 14 84 19 84 5 0 -5 16 -10 35 -10 24 0 33 4 29
13 -3 9 13 16 53 24 32 6 74 16 93 21 19 6 42 10 50 11 13 1 13 0 0 -9z"/>
<path d="M6881 1434 c8 -9 21 -13 35 -10 13 4 26 1 29 -4 4 -6 11 -8 16 -5 5
4 9 -1 9 -9 0 -16 16 -22 90 -30 90 -9 164 -26 171 -37 4 -7 27 -12 53 -11 27
1 46 -2 46 -9 0 -5 -4 -7 -10 -4 -16 10 -35 -6 -19 -16 12 -8 12 -10 0 -18
-11 -7 -9 -10 8 -16 11 -3 21 -11 21 -16 0 -6 5 -7 11 -4 7 5 5 13 -6 25 -17
19 -13 40 6 40 6 0 8 -8 4 -19 -7 -22 22 -38 39 -21 8 8 6 9 -7 4 -13 -5 -16
-2 -11 10 3 9 11 16 18 16 19 1 -67 40 -88 40 -17 0 -18 2 -6 10 13 8 12 10
-2 10 -10 0 -18 -4 -18 -10 0 -5 -7 -10 -16 -10 -14 0 -14 3 -4 15 11 13 8 15
-17 15 -40 0 -47 9 -21 32 24 20 23 22 -9 32 -14 5 -23 3 -23 -3 0 -6 5 -11
10 -11 6 0 10 -4 10 -10 0 -5 -12 -10 -26 -10 -22 0 -25 -2 -14 -15 10 -12 10
-15 -4 -15 -9 0 -16 6 -16 14 0 9 -10 14 -27 14 -34 -2 -96 10 -143 27 -19 7
-50 16 -69 19 -29 5 -32 4 -20 -10z"/>
<path d="M877 1893 c-9 -2 -15 -8 -13 -12 3 -4 -16 -4 -42 0 -57 8 -62 6 -22
-11 36 -15 38 -25 8 -34 -22 -6 -22 -7 -5 -20 12 -9 14 -16 7 -21 -5 -3 -8
-11 -5 -16 4 -5 0 -9 -8 -9 -17 0 -15 -63 3 -85 16 -19 -15 -27 -65 -15 -32 7
-43 6 -57 -7 -11 -10 -18 -12 -18 -5 0 8 -25 12 -75 12 -49 0 -75 4 -75 11 0
8 -4 8 -13 1 -16 -13 -164 -14 -172 -1 -4 5 18 10 52 10 32 1 48 4 36 6 -13 2
-23 11 -23 19 0 16 26 19 35 4 3 -5 11 -10 17 -10 7 0 6 6 -2 15 -15 18 -45
19 -107 3 -28 -7 -47 -18 -50 -28 -7 -25 -80 -57 -95 -42 -7 7 -16 12 -22 12
-5 0 -2 -6 9 -13 17 -13 17 -14 -6 -22 -13 -4 -31 -9 -39 -10 -41 -7 -70 -26
-70 -45 0 -15 7 -20 29 -20 15 0 50 -3 76 -7 35 -4 46 -3 41 5 -4 7 -19 12
-34 12 -15 0 -34 5 -42 10 -11 8 -6 9 21 7 20 -2 41 -7 48 -11 7 -5 18 0 26
10 12 17 11 20 -8 26 l-22 6 22 1 c12 1 34 -4 50 -10 l28 -12 -25 -6 c-36 -10
-31 -34 10 -43 33 -7 69 -6 270 8 47 3 93 7 103 7 34 2 16 17 -22 17 -51 0
-108 20 -89 31 9 6 3 9 -18 9 -17 0 -37 7 -44 15 -16 19 -10 19 51 -1 28 -9
53 -23 56 -30 7 -18 34 -18 69 1 16 8 38 14 49 14 18 -1 18 -2 2 -6 -17 -4
-17 -6 4 -21 20 -14 23 -14 35 3 11 15 18 16 38 7 19 -9 25 -8 30 4 3 8 0 14
-6 14 -8 0 -5 7 5 17 13 13 20 15 29 5 14 -14 28 -16 28 -3 0 5 -9 13 -21 16
l-21 7 22 15 c17 12 19 17 9 24 -10 6 -8 9 9 9 15 0 22 5 20 16 -3 15 16 20
105 27 9 1 17 6 17 12 0 7 -14 9 -34 7 -18 -2 -47 3 -63 12 -17 8 -33 13 -36
10 -3 -3 -3 3 0 15 5 18 15 23 53 23 3 1 16 -2 30 -5 21 -5 26 -3 26 13 0 19
-16 25 -58 22 -16 -2 -23 9 -19 31 1 7 -3 7 -32 0z"/>
<path d="M1040 1696 c0 -16 -45 -30 -62 -20 -6 4 -8 3 -5 -2 5 -9 -7 -16 -68
-39 -18 -7 -19 -8 -2 -12 15 -4 16 -7 5 -20 -11 -14 -10 -15 10 -9 12 4 22 3
22 -2 0 -5 -8 -12 -17 -15 -10 -4 -36 -18 -58 -31 -22 -14 -59 -36 -82 -48
-27 -13 -43 -29 -43 -40 0 -10 -4 -18 -10 -18 -5 0 -10 5 -10 10 0 6 -9 10
-21 10 -15 0 -19 -4 -15 -16 5 -13 1 -15 -19 -12 -14 3 -25 2 -25 -1 0 -3 -18
-15 -40 -25 -38 -18 -52 -36 -30 -36 6 0 10 5 10 10 0 13 47 13 54 1 4 -5 0
-12 -6 -14 -7 -3 -1 -6 14 -6 14 -1 28 -6 30 -13 6 -17 136 -24 151 -9 7 7 8
12 2 11 -5 -2 -19 -2 -30 -1 -17 1 -18 3 -5 11 12 8 9 10 -12 10 -16 0 -29 3
-29 8 -7 40 -2 57 16 60 11 2 25 9 30 14 7 7 1 8 -20 4 l-30 -7 30 21 c17 11
39 20 50 20 26 0 49 15 42 27 -3 5 0 10 8 10 10 0 15 -10 15 -28 0 -26 2 -27
88 -38 48 -6 101 -16 118 -21 17 -6 39 -10 50 -9 18 0 18 1 -1 9 -18 8 -17 9
7 9 14 1 28 -4 30 -10 3 -9 25 -9 83 -1 53 7 97 7 130 1 28 -5 76 -6 107 -3
46 5 59 4 63 -9 5 -11 11 -12 28 -4 18 8 22 18 20 54 0 24 -7 51 -14 59 -10
13 -10 17 2 25 10 6 6 9 -17 9 -35 0 -48 -8 -35 -24 6 -7 4 -18 -5 -30 -13
-19 -15 -19 -27 -2 -12 16 -14 16 -26 2 -8 -9 -22 -16 -33 -16 -14 0 -18 -5
-14 -15 4 -10 -1 -15 -15 -15 -23 0 -36 27 -20 43 6 6 11 15 11 19 0 13 -38 9
-43 -4 -3 -9 -7 -7 -12 6 -5 11 -3 21 5 26 8 5 -6 9 -34 11 -34 3 -46 1 -46
-10 0 -10 -3 -11 -14 -2 -9 8 -16 8 -20 2 -4 -5 -2 -12 4 -16 19 -12 10 -20
-23 -22 l-33 -3 6 53 c6 41 4 54 -9 64 -25 18 -51 23 -51 8 0 -26 -60 -34 -79
-11 -10 11 -8 15 6 19 14 4 12 5 -6 6 -20 1 -22 5 -17 26 4 14 2 25 -4 25 -5
0 -10 -6 -10 -14z m130 -76 c0 -5 -7 -10 -15 -10 -9 0 -15 -9 -15 -24 0 -13
-6 -27 -12 -29 -8 -4 -4 -8 10 -12 12 -4 22 -10 22 -14 -1 -13 -82 -62 -95
-57 -8 3 -15 1 -15 -4 0 -6 -5 -10 -11 -10 -5 0 -8 4 -5 9 3 5 0 9 -7 8 -43
-1 -77 4 -77 13 0 6 34 10 81 10 69 0 80 2 70 14 -9 11 -20 12 -42 6 -33 -10
-62 -3 -53 11 3 6 14 7 25 4 10 -4 19 -2 19 3 0 15 -58 20 -103 10 -39 -9 -57
-5 -43 9 4 5 43 8 87 8 50 0 80 4 83 11 3 9 -12 10 -55 7 -52 -5 -59 -4 -53
11 6 17 42 22 126 17 25 -1 49 3 53 8 8 14 25 14 25 1z"/>
<path d="M465 1533 c-51 -7 -63 -14 -40 -23 13 -6 -4 -9 -51 -9 -39 -1 -75 4
-81 10 -6 6 -17 9 -25 6 -9 -4 -6 -8 9 -12 13 -4 20 -12 17 -17 -3 -5 3 -12
15 -15 11 -3 18 -10 14 -16 -4 -6 2 -8 14 -5 12 3 27 1 34 -4 14 -9 -14 -7
-98 8 -35 7 -41 0 -20 -20 8 -8 44 -14 97 -15 47 -1 87 -7 91 -13 10 -16 72 1
65 17 -3 8 3 17 13 20 10 3 18 12 18 20 0 16 -8 18 -42 16 -15 -2 -17 0 -6 7
11 8 11 10 0 15 -33 13 21 6 62 -8 39 -13 42 -13 25 0 -18 14 -14 15 50 16 38
1 57 4 41 6 -15 2 -25 9 -22 14 6 9 -117 10 -180 2z"/>
<path d="M850 1469 c0 -6 -9 -23 -20 -38 -18 -27 -18 -29 -2 -47 10 -10 21
-27 25 -38 6 -16 14 -18 51 -13 51 7 155 -7 170 -24 8 -9 2 -10 -24 -5 -32 6
-33 5 -15 -9 20 -15 20 -15 1 -30 -10 -8 -24 -16 -30 -18 -6 -2 -8 -7 -5 -11
10 -10 59 15 52 27 -4 6 4 7 23 3 16 -5 63 -10 104 -12 41 -2 94 -6 118 -8 35
-4 41 -2 33 8 -6 7 -7 17 -3 21 4 5 2 5 -5 1 -6 -3 -14 -2 -17 3 -4 5 2 12 11
14 14 4 13 5 -4 6 -20 1 -28 11 -20 26 1 2 -7 11 -18 19 -20 15 -19 15 5 16
19 0 21 3 11 9 -8 5 -20 7 -28 4 -7 -3 -13 0 -13 5 0 16 35 24 77 17 30 -4 34
-3 16 4 -13 6 -23 14 -23 19 0 5 -13 9 -30 8 -16 -1 -30 -4 -30 -8 0 -5 -7 -8
-15 -8 -8 0 -12 -6 -9 -15 7 -17 -42 -65 -65 -65 -9 1 -27 7 -41 15 -14 8 -41
14 -60 13 -34 0 -33 -1 8 -7 43 -7 82 -34 69 -48 -4 -3 -21 3 -37 15 -18 14
-45 22 -72 23 -24 1 -35 3 -25 6 31 8 7 23 -38 23 -24 0 -47 4 -50 10 -4 6 11
8 42 4 37 -5 45 -4 37 5 -6 7 -30 15 -52 18 -32 4 -46 13 -64 39 -23 34 -38
43 -38 23z"/>
<path d="M1685 1385 c1 -14 -2 -28 -8 -32 -6 -3 -7 -1 -3 5 4 7 1 12 -9 12 -9
0 -15 -6 -13 -14 2 -8 0 -15 -4 -15 -28 -3 -38 0 -33 9 9 14 -39 23 -110 21
-30 -1 -36 -4 -25 -11 10 -6 11 -10 3 -10 -7 0 -13 -5 -13 -11 0 -5 5 -7 12
-3 7 4 8 3 4 -4 -4 -7 -16 -12 -26 -12 -10 0 -26 -3 -35 -6 -13 -5 -14 -8 -3
-15 10 -7 10 -9 -2 -9 -8 0 -21 -9 -28 -20 -7 -11 -8 -20 -3 -20 6 0 13 5 16
10 3 6 23 10 43 10 74 0 107 25 65 48 -25 14 -9 42 25 42 20 0 33 -7 42 -25 7
-14 19 -25 27 -25 7 0 13 -5 13 -10 0 -7 -6 -7 -19 0 -30 15 -36 12 -17 -9 10
-11 24 -17 31 -15 7 3 16 1 20 -5 8 -14 -10 -14 -53 -2 -40 12 -58 6 -65 -19
-4 -16 1 -18 45 -17 34 1 52 -3 58 -13 8 -12 12 -12 18 -3 8 12 34 9 86 -13
14 -5 17 -4 12 4 -5 8 0 12 13 12 11 0 22 4 25 9 10 15 69 21 101 11 30 -10
30 -10 -5 -5 -24 4 -31 2 -24 -5 12 -12 144 -60 144 -53 0 3 -11 14 -26 25
-14 11 -23 23 -19 26 3 3 11 -3 19 -13 8 -12 19 -16 30 -12 30 12 11 32 -40
41 -26 5 -53 14 -60 20 -11 12 -15 46 -5 43 7 -2 11 7 11 24 0 8 -13 9 -40 5
-44 -7 -50 -1 -22 21 16 14 16 14 -3 8 -11 -4 -38 -9 -61 -12 -35 -4 -41 -3
-41 13 0 11 5 23 11 27 6 5 2 7 -11 4 -13 -3 -26 -1 -29 4 -11 18 -22 8 -19
-16z"/>
<path d="M730 1313 c-8 -2 -22 -7 -30 -10 -8 -3 -47 -6 -87 -6 -39 -1 -69 -5
-67 -9 3 -5 14 -8 25 -8 13 0 19 -7 19 -21 0 -16 -4 -19 -17 -14 -10 4 -29 9
-43 12 -20 3 -18 1 9 -12 18 -8 48 -15 66 -15 18 0 35 -5 37 -11 2 -6 18 -12
36 -13 18 -1 36 -6 40 -11 4 -6 25 -19 47 -30 50 -24 64 -30 45 -16 -12 9 -11
11 8 11 12 0 22 -6 22 -13 0 -8 10 -19 23 -25 21 -10 21 -11 -8 -12 -30 -1
-30 -1 -5 -11 13 -6 41 -7 61 -4 22 4 40 2 44 -4 3 -6 15 -11 27 -11 15 0 19
-5 15 -20 -3 -13 5 -30 23 -50 16 -17 27 -37 23 -46 -3 -7 0 -14 7 -14 7 0 10
-7 6 -15 -4 -12 3 -15 29 -15 18 0 36 -4 39 -9 8 -13 -30 -20 -70 -14 -22 4
-34 2 -34 -6 0 -15 36 -17 107 -5 l33 5 -26 41 c-20 32 -22 40 -9 34 9 -3 19
-6 21 -6 2 0 4 -7 4 -15 0 -8 4 -15 9 -15 17 0 -1 39 -22 46 -11 3 -28 14 -38
23 -17 15 -15 16 29 16 26 0 52 -3 59 -8 6 -4 14 -3 18 3 9 15 -21 23 -60 17
-23 -4 -40 -1 -49 9 -11 10 -16 11 -19 1 -4 -9 -8 -8 -16 3 -7 10 -7 16 0 19
5 1 2 9 -8 17 -10 7 -13 14 -6 14 13 0 -9 52 -35 83 -14 15 -13 17 9 17 22 1
22 2 -6 14 -16 7 -37 11 -46 9 -9 -3 -19 3 -22 11 -5 13 -1 15 21 11 15 -3 21
-2 15 1 -7 3 -13 16 -13 29 0 14 -7 26 -17 29 -10 3 -5 4 10 2 17 -2 26 1 24
8 -2 6 -27 12 -55 14 -43 3 -52 0 -52 -14 0 -16 -18 -16 -66 3 -11 4 -15 2
-11 -4 4 -6 -3 -8 -18 -5 -14 2 -25 8 -25 13 0 10 -7 10 -30 2z"/>
<path d="M416 1298 c4 -7 -5 -8 -25 -3 -25 5 -30 4 -25 -9 4 -11 -4 -17 -29
-21 -20 -4 -38 -14 -41 -22 -4 -9 -15 -14 -29 -11 -17 3 -22 -1 -23 -18 -1
-15 3 -21 12 -17 8 3 14 0 14 -6 0 -6 18 -11 43 -12 48 0 134 -16 99 -18 -12
0 -31 -7 -42 -13 -16 -10 -23 -10 -36 3 -11 12 -28 15 -61 11 -33 -3 -44 -2
-39 7 4 6 2 11 -3 11 -6 0 -11 -5 -11 -11 0 -5 -4 -8 -9 -5 -5 3 -7 16 -4 27
5 19 4 20 -16 10 -11 -7 -21 -16 -21 -22 0 -6 -4 -8 -9 -5 -5 3 -8 -2 -7 -11
1 -12 -9 -19 -28 -23 -44 -8 -45 -30 -2 -30 20 0 36 -4 36 -10 0 -5 -7 -10
-15 -10 -8 0 -12 -6 -9 -14 4 -12 -10 -16 -65 -22 -39 -3 -71 -10 -71 -15 0
-4 11 -7 24 -6 14 1 25 -2 25 -7 -1 -5 5 -13 13 -17 9 -6 6 -9 -12 -10 -23 0
-23 -1 -5 -9 17 -7 15 -9 -12 -9 l-33 -1 0 -145 c0 -122 2 -145 15 -145 8 0
15 -6 15 -14 0 -20 28 -46 48 -45 13 0 12 2 -4 9 -16 6 -19 15 -16 44 l4 37
54 -5 c51 -4 53 -3 41 15 -7 11 -20 22 -29 25 -10 3 -18 11 -18 19 0 7 -6 16
-12 18 -8 4 -7 6 4 6 9 1 18 6 20 13 3 8 12 4 26 -10 21 -21 42 -29 42 -16 0
9 -63 59 -72 56 -4 -1 -8 2 -8 8 0 5 7 10 16 10 23 0 54 -19 54 -34 0 -27 74
-40 123 -21 10 4 17 3 17 -4 0 -6 8 -11 17 -11 9 0 25 -8 35 -17 12 -10 22
-13 26 -7 4 5 20 14 36 19 43 14 33 29 -21 33 -27 2 -55 10 -64 18 -8 8 -28
14 -42 14 -15 0 -27 5 -27 10 0 6 9 10 20 10 11 0 20 5 20 11 0 7 -10 9 -25 7
-38 -8 -40 8 -2 17 l32 7 -25 11 c-25 12 -38 21 -65 45 -7 6 -18 12 -23 12 -6
0 -13 -6 -16 -12 -3 -10 -9 -8 -19 5 -8 9 -25 17 -38 18 -13 0 -33 4 -44 9
-14 6 2 9 50 9 44 1 65 5 56 10 -8 5 29 10 95 13 60 2 111 1 114 -3 6 -9 126
-16 134 -8 9 8 66 -2 66 -12 0 -5 -9 -9 -19 -9 -11 0 -22 -4 -26 -9 -7 -12 46
-23 95 -20 19 1 47 -1 63 -5 17 -5 27 -4 27 2 0 6 15 9 38 7 31 -4 33 -3 12 4
-21 8 -16 9 25 9 59 0 115 11 115 22 0 5 -13 5 -29 0 -15 -4 -34 -4 -42 1 -8
4 -16 4 -19 -1 -4 -6 -19 -6 -40 0 -24 7 -36 6 -41 -1 -4 -8 -15 -6 -33 6 -15
10 -29 15 -32 12 -3 -3 4 -8 15 -12 12 -3 21 -11 21 -16 0 -13 -5 -12 -78 24
-53 25 -62 33 -44 35 13 2 36 -1 51 -8 29 -12 241 -10 241 2 0 13 -63 19 -140
15 -41 -3 -69 -3 -62 0 24 9 -8 33 -42 32 -30 -2 -30 -2 -3 -6 51 -8 27 -23
-35 -23 -35 0 -80 -3 -101 -6 -34 -6 -35 -8 -20 -20 16 -12 15 -13 -12 -13
-16 0 -39 4 -50 9 -18 8 -18 9 5 10 14 0 34 7 44 15 19 15 19 15 -1 15 -12 0
-24 4 -28 10 -3 5 -12 7 -19 4 -8 -3 -17 -1 -21 5 -3 6 -16 11 -28 12 -12 0
-16 3 -9 6 6 2 10 9 7 14 -4 5 31 6 85 2 65 -4 94 -3 99 5 5 8 17 9 41 2 48
-14 71 -13 45 2 -29 17 -95 27 -95 15 0 -12 -14 0 -16 14 -3 22 -5 23 -13 10
-11 -17 -93 -19 -99 -2 -2 6 -20 11 -40 11 -28 0 -33 3 -22 10 13 8 12 10 -2
10 -10 0 -18 7 -18 15 0 8 4 15 9 15 5 0 14 -7 21 -15 8 -10 29 -15 59 -14 25
0 40 3 34 6 -7 2 -13 11 -13 18 0 7 -6 15 -12 18 -7 2 -3 2 9 1 32 -6 37 13 5
21 -25 6 -26 8 -9 20 16 12 14 13 -17 13 -22 0 -33 -4 -30 -10z"/>
<path d="M2023 1189 c-31 -11 -29 -27 5 -34 15 -4 35 -10 44 -16 10 -5 27 -9
38 -9 11 0 20 -5 20 -11 0 -6 9 -9 20 -6 11 3 18 1 15 -3 -5 -8 43 -30 75 -36
8 -1 40 -8 70 -15 30 -6 65 -12 78 -13 26 -1 29 -13 5 -19 -13 -3 -3 -11 30
-26 26 -12 52 -19 57 -16 5 3 19 1 31 -6 17 -9 23 -8 30 2 7 11 9 11 9 1 0 -8
5 -10 12 -6 15 10 88 11 88 2 0 -4 -12 -8 -27 -10 -25 -4 -26 -5 -8 -12 55
-23 117 -56 104 -56 -11 -1 -10 -3 3 -11 27 -16 143 -16 158 0 11 11 9 12 -10
6 -15 -5 -20 -4 -16 4 4 6 2 11 -3 11 -6 0 -11 -4 -11 -8 0 -5 -6 -9 -14 -9
-8 0 -11 7 -9 18 4 14 -1 17 -26 15 -17 -1 -31 1 -31 5 0 3 -18 5 -40 4 -34
-2 -38 0 -28 12 8 10 23 12 52 8 l41 -5 -40 14 c-27 11 -41 12 -46 4 -4 -6
-12 -7 -18 -4 -6 4 -9 11 -6 16 7 11 -51 34 -70 26 -8 -3 -27 0 -41 6 -19 9
-30 9 -45 0 -10 -7 -24 -12 -31 -11 -7 0 -4 4 7 8 29 11 -104 76 -139 67 -14
-3 -27 -2 -31 4 -3 5 -13 6 -22 3 -11 -4 -14 -3 -9 5 9 15 -27 29 -103 42 -99
16 -121 22 -121 30 0 5 8 11 18 13 14 4 13 5 -3 6 -12 0 -25 5 -30 10 -6 5
-20 5 -32 0z"/>
<path d="M592 953 c-27 -4 -32 -8 -27 -23 5 -16 -2 -20 -47 -29 -171 -33 -193
-39 -155 -40 20 -1 37 -5 37 -11 0 -5 24 -10 53 -10 37 0 48 3 37 10 -8 5 -28
10 -45 11 -18 1 -8 5 25 9 30 4 70 12 88 18 25 8 32 8 29 -1 -2 -6 -14 -15
-28 -19 -17 -5 -11 -6 21 -5 37 2 44 5 42 20 -2 11 6 21 23 27 34 13 48 13 40
0 -4 -6 -10 -8 -15 -5 -5 3 -11 2 -14 -3 -2 -4 37 -6 87 -4 51 3 94 8 97 12 6
9 21 11 128 13 50 1 72 6 72 15 0 6 -8 12 -17 13 -10 0 -47 2 -83 4 -45 2 -56
1 -35 -5 l30 -8 -37 -1 c-20 0 -38 3 -40 8 -4 13 -232 -6 -236 -19 -2 -6 -10
-10 -18 -10 -25 0 -5 19 29 29 33 9 17 11 -41 4z"/>
<path d="M305 761 c-3 -6 -34 -8 -70 -5 -62 4 -95 -8 -55 -21 11 -3 19 -12 17
-18 -1 -7 10 -13 26 -15 19 -2 27 1 27 12 0 9 7 16 15 16 9 0 15 -9 15 -25 0
-21 -5 -25 -27 -25 -16 0 -45 5 -67 11 -31 8 -41 8 -47 -3 -7 -11 -11 -10 -19
2 -7 11 -14 12 -25 5 -30 -18 -20 -30 28 -33 26 -2 45 -7 42 -12 -3 -4 20 -10
51 -12 31 -1 58 0 61 5 2 4 10 7 17 7 8 0 12 -16 12 -50 -1 -50 -1 -50 -30
-44 -20 4 -26 3 -22 -5 4 -6 19 -12 34 -12 24 -2 24 -2 4 -6 -12 -2 -20 -9
-17 -14 8 -12 -7 -11 -42 2 -19 7 -24 12 -14 18 7 5 -9 10 -41 14 -30 3 -71
15 -91 26 -62 35 -87 25 -87 -33 0 -17 6 -22 29 -24 17 -1 40 -7 53 -12 17 -8
10 -9 -30 -4 l-52 6 0 -49 0 -48 62 3 c41 2 58 0 49 -6 -7 -6 -10 -15 -6 -21
5 -9 10 -9 21 0 11 9 18 9 26 1 13 -13 1 -16 -62 -14 l-35 1 38 -10 c20 -6 37
-15 37 -20 0 -6 -7 -6 -18 0 -11 6 -40 13 -65 16 l-47 7 0 -50 c0 -45 3 -51
23 -55 l22 -4 -22 -2 c-16 -1 -23 -7 -23 -21 0 -23 15 -27 23 -6 5 12 11 12
44 0 46 -16 77 -18 68 -4 -4 6 -10 8 -15 5 -5 -3 -24 1 -42 10 l-33 15 33 -5
c17 -3 46 -8 64 -11 25 -5 30 -3 25 10 -3 8 -2 18 3 21 6 4 10 -4 10 -17 0
-13 4 -18 8 -13 13 18 332 4 332 -14 0 -4 -17 -6 -37 -5 -24 1 -28 0 -10 -3
15 -2 27 -8 27 -14 0 -14 -43 -11 -67 6 -27 19 -128 30 -179 20 -37 -8 -38 -8
-14 -16 16 -5 8 -6 -22 -2 -27 3 -48 1 -48 -4 0 -5 -38 -7 -85 -6 -71 3 -85 1
-85 -12 0 -11 11 -15 38 -15 21 0 47 -7 58 -16 18 -14 18 -15 -6 -7 -14 4 -38
7 -55 8 l-30 0 -3 -82 -3 -83 568 0 c384 0 573 4 583 11 12 9 12 10 1 7 -8 -3
-23 4 -33 14 -12 12 -35 19 -65 19 -30 1 -37 4 -20 6 15 2 27 9 27 14 0 12 60
2 75 -12 11 -11 35 -12 35 -1 0 5 -17 13 -37 20 l-38 11 42 -2 c24 -2 44 2 46
7 2 5 10 7 19 4 10 -4 13 -15 10 -37 -4 -27 -7 -30 -31 -25 -22 4 -23 4 -8 -6
9 -6 15 -15 12 -21 -4 -5 12 -9 36 -9 41 0 42 0 24 20 -10 11 -14 20 -8 20 11
0 11 59 0 77 -6 9 -2 13 12 13 18 0 21 -7 22 -45 1 -25 3 -49 4 -55 1 -5 3
-14 4 -20 0 -5 26 -10 56 -10 42 0 55 3 55 15 0 8 -7 15 -15 15 -8 0 -15 4
-15 8 0 4 26 8 58 9 58 1 59 0 7 -12 l-30 -7 27 -14 c28 -15 228 -16 205 -2
-8 5 -4 8 8 8 12 0 25 -4 31 -10 5 -5 19 -7 30 -4 20 5 20 7 -8 34 -15 16 -28
36 -28 44 0 20 2 20 -45 -4 -22 -11 -35 -20 -30 -20 6 0 3 -5 -5 -10 -12 -8
-11 -10 7 -10 12 0 23 5 25 12 3 7 12 9 23 4 13 -5 15 -10 7 -18 -7 -7 -30 -8
-69 -3 -32 5 -61 8 -65 7 -5 -1 -8 3 -8 8 0 6 17 10 38 11 28 0 32 2 17 8 -16
7 -14 9 17 15 28 5 36 10 31 23 -5 12 -1 14 15 8 13 -3 22 -2 22 4 0 5 -10 12
-22 14 -17 3 -15 5 8 6 17 0 37 8 44 16 10 12 7 15 -14 21 -14 3 -24 10 -21
15 3 4 -5 13 -17 20 -13 6 -31 20 -40 29 -17 18 -103 27 -93 9 4 -5 -6 -9 -22
-9 -26 -1 -27 -1 -8 -12 11 -6 23 -16 28 -22 5 -7 11 -5 18 7 6 11 22 17 42
17 29 -1 30 -2 15 -14 -10 -7 -18 -23 -18 -35 0 -17 6 -21 32 -21 17 0 28 -3
24 -7 -10 -11 -144 -3 -175 10 -14 6 -34 11 -43 12 -52 6 -126 55 -113 75 3 6
19 10 35 10 23 0 27 3 23 20 -6 24 -16 25 -37 5 -15 -15 -36 -20 -36 -9 0 4 8
13 18 21 16 13 15 14 -5 8 -14 -4 -23 -2 -23 5 0 6 16 9 40 8 22 -2 40 -7 40
-12 0 -5 14 -6 30 -2 33 6 42 -9 10 -19 -39 -12 -22 -28 23 -22 27 4 48 2 55
-5 7 -7 15 -8 19 -4 4 4 2 11 -5 15 -7 4 -12 14 -10 21 2 7 -4 15 -12 17 -13
4 -13 3 0 -6 12 -9 11 -11 -7 -11 -26 0 -35 20 -16 38 11 12 16 12 31 0 9 -7
20 -17 24 -23 4 -5 21 -8 38 -7 22 3 30 -1 30 -13 0 -9 5 -13 10 -10 20 13
-10 45 -43 46 -18 1 -24 3 -14 6 9 2 17 8 17 13 0 12 -28 20 -45 14 -14 -6
-45 17 -45 32 0 5 5 3 12 -4 7 -7 23 -12 37 -12 l24 0 -22 24 c-21 22 -61 26
-61 6 0 -4 -14 -10 -30 -12 -24 -4 -30 -1 -25 10 4 11 2 12 -8 4 -7 -6 -23 -9
-35 -5 -12 3 -22 1 -22 -5 0 -6 18 -13 40 -17 22 -4 43 -12 47 -19 5 -7 15
-16 23 -19 8 -4 2 -6 -15 -5 -16 1 -42 11 -57 21 -32 21 -62 12 -33 -10 18
-12 17 -13 -6 -13 -23 0 -24 3 -25 70 0 39 3 70 8 70 4 0 8 -6 8 -12 0 -9 20
-13 65 -13 76 0 82 17 8 22 -27 1 -61 7 -74 12 -21 9 -19 10 19 10 24 1 52 -4
62 -9 11 -6 21 -6 24 -1 7 11 -79 54 -96 48 -8 -3 -3 -9 12 -15 l25 -11 -23 0
c-13 -1 -35 8 -49 19 -25 20 -25 20 -4 20 12 0 20 4 17 9 -3 5 16 7 42 5 l47
-4 -60 16 c-33 9 -63 22 -67 28 -4 6 -8 7 -8 2 0 -5 8 -18 18 -29 16 -19 16
-19 -4 -13 -16 5 -23 2 -26 -11 -6 -22 9 -181 22 -245 11 -52 4 -82 -15 -74
-10 3 -11 -2 -5 -24 4 -16 6 -31 2 -34 -3 -3 3 -6 12 -6 14 0 17 6 14 25 -3
14 -1 28 3 31 5 3 9 -8 9 -23 0 -16 5 -34 12 -41 17 -17 -22 -16 -87 2 -43 12
-46 14 -20 16 28 1 29 2 7 10 -30 13 -28 24 4 16 23 -6 24 -5 14 14 -6 11 -15
21 -20 21 -6 1 -15 2 -22 3 -13 1 -20 36 -7 36 5 0 12 -7 15 -15 4 -8 10 -12
16 -9 5 3 7 12 4 19 -3 8 0 16 7 19 7 4 -1 4 -18 1 -23 -4 -26 -3 -15 5 13 9
13 11 0 19 -8 6 -11 13 -7 18 5 4 12 1 17 -6 4 -8 15 -11 24 -8 9 4 16 2 16
-4 0 -6 5 -7 10 -4 15 9 2 25 -21 25 -10 0 -19 4 -19 9 0 5 -8 12 -17 14 -14
4 -12 5 5 6 39 2 24 21 -17 21 -52 0 -62 18 -14 23 22 2 11 4 -27 4 -46 1 -58
-1 -40 -7 21 -7 19 -8 -15 -8 -22 0 -34 2 -27 5 10 4 9 9 -5 19 -16 12 -5 13
85 10 76 -3 102 -1 99 7 -2 7 -17 11 -35 9 -18 -2 -32 1 -32 7 0 6 -5 11 -11
11 -5 0 -7 -5 -4 -10 4 -6 -8 -9 -29 -8 -40 3 -50 18 -12 18 23 0 24 2 13 29
-9 24 -19 31 -49 36 -21 4 -40 11 -44 16 -3 5 -16 9 -30 9 -15 0 -24 6 -24 15
0 8 5 15 11 15 5 0 7 -4 4 -10 -3 -6 5 -10 18 -10 14 0 38 -7 53 -15 16 -8 35
-15 42 -15 21 0 -13 30 -35 31 -10 0 -13 3 -5 6 6 2 9 9 6 15 -4 6 1 8 15 3
12 -4 21 -2 21 4 0 6 -13 11 -30 11 -22 0 -28 -4 -24 -15 5 -11 -1 -15 -22
-15 -23 0 -26 2 -14 10 10 8 -4 9 -47 4 -44 -5 -63 -3 -63 5 0 6 5 11 11 11 5
0 7 5 4 10 -9 14 -42 12 -48 -2 -2 -7 0 -23 4 -36 7 -17 14 -22 28 -17 11 3
22 1 26 -5 3 -5 25 -10 48 -11 l42 0 -44 -14 c-24 -7 -50 -11 -59 -8 -10 4
-13 2 -8 -5 9 -15 62 -16 71 -2 3 6 23 9 43 9 l37 -2 -35 -7 c-22 -5 -27 -8
-13 -9 12 0 24 -5 27 -10 4 -5 -21 -7 -56 -5 -45 3 -57 2 -43 -5 11 -5 34 -10
50 -11 17 0 41 -7 55 -15 23 -13 24 -14 4 -15 -12 0 -35 5 -53 11 -17 6 -39 8
-48 5 -14 -6 -14 -8 3 -22 18 -14 15 -14 -26 -9 -35 5 -42 4 -30 -5 12 -9 6
-10 -27 -6 -49 7 -59 -8 -11 -18 51 -10 27 -15 -32 -6 -30 4 -47 8 -37 9 27 2
20 21 -8 21 -18 0 -23 -4 -19 -15 4 -10 0 -15 -11 -15 -9 0 -13 5 -10 10 4 6
-6 10 -23 10 -16 0 -32 3 -36 8 -4 4 -20 8 -34 8 -15 1 -38 5 -51 9 -18 6 -22
5 -17 -4 6 -8 1 -10 -16 -6 -12 3 -72 7 -133 9 -60 3 -134 8 -162 12 -36 5
-53 3 -53 -4 0 -6 -7 -9 -15 -5 -9 3 -13 8 -10 11 11 11 41 15 100 11 135 -8
321 0 303 13 -8 6 11 8 50 5 51 -4 62 -3 58 8 -3 9 0 12 9 9 39 -15 18 -48
-24 -37 -12 3 -21 1 -21 -6 0 -6 6 -11 13 -12 6 0 30 -2 52 -5 29 -3 36 -2 25
6 -11 7 -7 10 20 10 19 0 42 5 50 10 11 8 6 10 -20 8 -43 -2 -69 10 -49 23 11
7 10 9 -3 9 -10 0 -18 5 -18 10 0 6 11 10 24 10 14 0 28 5 31 10 3 6 21 10 38
10 26 0 33 4 34 20 1 11 -4 20 -10 20 -7 0 -19 9 -27 20 -8 11 -20 20 -27 20
-6 0 -14 4 -17 9 -4 5 4 7 16 4 22 -6 21 -5 -4 16 -31 25 -38 26 -38 6 0 -10
-11 -15 -35 -15 -43 0 -46 -15 -4 -24 17 -3 28 -10 24 -15 -3 -5 15 -13 40
-17 44 -6 64 -19 51 -31 -3 -4 -22 1 -41 10 -40 19 -80 23 -70 7 7 -11 -105
-7 -124 4 -5 4 -12 2 -15 -3 -9 -14 20 -21 86 -21 79 0 70 -10 -11 -12 -56 -1
-60 -3 -39 -14 13 -8 18 -13 11 -14 -18 0 -113 19 -155 32 -28 8 -41 8 -52 -1
-12 -10 -17 -9 -24 6 -13 23 -9 82 4 91 6 4 13 15 17 25 8 21 43 23 51 2 3 -8
12 -15 21 -15 13 0 14 4 5 20 -9 17 -21 20 -70 20 -55 0 -83 11 -61 24 5 4 12
2 16 -4 8 -13 45 -13 45 0 0 6 -10 11 -22 11 -16 1 -18 3 -6 6 9 2 30 -3 47
-11 41 -22 51 -20 21 4 -14 11 -38 20 -55 20 -29 1 -29 1 -11 15 19 14 19 15
-6 15 -15 0 -29 -4 -33 -9z"/>
<path d="M3102 762 c-12 -2 -20 -8 -17 -13 4 -5 -12 -9 -34 -9 -22 0 -42 5
-44 13 -4 10 -6 10 -6 0 -1 -7 -11 -13 -23 -13 -21 -1 -22 -2 -5 -14 9 -7 17
-21 17 -31 0 -11 5 -15 14 -12 10 4 13 1 10 -8 -3 -8 3 -16 15 -20 12 -3 19
-11 16 -16 -4 -5 3 -9 14 -9 12 0 21 5 21 10 0 6 16 10 36 10 28 0 35 -3 30
-15 -3 -8 -1 -15 5 -15 5 0 19 -9 31 -20 12 -11 24 -17 27 -14 3 3 -1 9 -9 15
-13 8 -13 10 -1 18 10 7 5 13 -22 26 -25 12 -34 21 -30 32 5 12 2 15 -14 11
-15 -4 -19 -1 -18 16 2 15 8 20 24 19 13 -2 20 1 16 7 -3 6 -1 10 4 10 6 0 11
4 11 9 0 11 -37 18 -68 13z"/>
<path d="M2036 681 c-17 -6 -17 -9 -3 -23 9 -9 13 -19 9 -22 -3 -4 1 -4 11 0
12 4 17 1 17 -9 0 -9 7 -20 16 -25 14 -8 14 -11 2 -22 -12 -11 -11 -17 7 -35
24 -27 61 -40 70 -25 3 6 10 8 15 5 18 -11 152 -32 175 -27 23 4 30 -4 26 -30
0 -5 5 -8 13 -8 8 0 16 -6 19 -12 6 -18 109 -22 154 -7 30 10 33 13 19 21 -12
7 -22 5 -33 -4 -14 -11 -16 -11 -10 4 5 13 0 16 -23 16 -16 -1 -36 6 -45 15
-8 9 -31 19 -50 23 -19 3 -35 10 -35 14 0 5 -16 14 -35 21 -19 7 -35 16 -35
20 0 4 -14 10 -31 14 -17 4 -28 10 -25 13 7 7 -81 42 -106 42 -9 0 -23 6 -30
13 -11 11 -65 38 -71 36 -1 0 -10 -4 -21 -8z"/>
<path d="M3364 646 c-23 -13 -20 -33 9 -59 24 -21 14 -36 -13 -20 -14 10 -19
9 -24 -2 -3 -9 0 -12 10 -8 7 3 14 1 14 -5 0 -6 -6 -13 -12 -15 -8 -3 -7 -6 4
-6 9 -1 20 4 23 9 11 17 32 11 38 -11 4 -16 1 -20 -16 -19 -48 4 -87 -1 -87
-10 0 -5 8 -10 18 -11 10 0 12 -3 4 -6 -25 -10 1 -23 46 -22 l47 1 -39 12
c-29 9 -35 14 -23 19 9 3 29 0 43 -8 24 -12 29 -12 39 2 7 9 17 13 24 9 9 -6
7 -11 -6 -21 -16 -12 -14 -13 12 -8 23 3 27 2 15 -6 -24 -17 12 -14 46 4 33
17 58 20 49 5 -3 -5 15 -15 40 -21 53 -14 59 -25 11 -25 -19 0 -33 3 -30 7 12
20 -53 18 -67 -3 -3 -4 -20 -3 -39 2 -21 6 -36 6 -40 0 -3 -5 -18 -13 -33 -19
-15 -6 -27 -17 -27 -25 0 -8 -6 -16 -12 -18 -7 -3 2 -5 20 -5 22 0 29 4 22 11
-16 16 -12 21 15 22 13 1 23 -3 22 -10 -2 -13 61 -17 69 -4 3 4 -9 11 -26 14
-17 4 -29 9 -26 11 2 2 31 -1 65 -8 56 -12 66 -11 134 11 l74 24 -25 23 c-19
17 -29 20 -43 13 -23 -13 -50 -14 -31 -2 8 5 -27 17 -90 29 -91 19 -106 20
-125 7 -27 -17 -30 -12 -7 10 14 14 13 18 -10 40 -30 27 -32 36 -11 36 8 0 15
5 15 10 0 6 -5 9 -12 8 -6 -2 -14 6 -16 17 -6 29 -14 33 -38 21z"/>
<path d="M3540 649 c0 -7 -11 -8 -29 -4 -17 3 -32 2 -36 -4 -3 -6 1 -11 11
-11 13 0 14 -3 4 -14 -6 -8 -19 -12 -27 -9 -11 4 -14 2 -9 -5 10 -17 19 -15
45 9 21 20 24 20 39 5 15 -15 15 -16 -5 -16 -11 0 -26 -7 -33 -15 -7 -8 -24
-15 -38 -15 -19 0 -23 -3 -15 -11 8 -8 20 -7 44 5 38 19 39 19 39 6 0 -5 -12
-13 -27 -17 l-28 -6 30 -8 c19 -6 32 -4 36 3 4 6 12 7 18 4 6 -4 9 -12 6 -17
-4 -5 -2 -9 4 -9 5 0 13 5 17 11 4 7 20 8 41 4 21 -4 33 -3 29 3 -11 18 25 22
54 7 38 -20 39 -19 36 12 -2 21 -10 29 -33 35 -21 5 -30 14 -29 25 1 14 -5 17
-26 15 -16 -2 -28 2 -28 9 0 6 -7 9 -15 6 -8 -4 -17 -2 -20 3 -8 14 -55 13
-55 -1z"/>
<path d="M1425 522 c11 -18 50 -64 87 -102 37 -39 65 -70 62 -70 -4 0 8 -14
25 -32 17 -17 28 -34 25 -37 -3 -3 -41 33 -84 79 -44 47 -79 81 -80 77 0 -11
53 -77 115 -142 28 -29 55 -60 62 -68 7 -8 20 -21 30 -29 33 -24 103 -116 103
-135 0 -10 3 -28 6 -40 6 -22 10 -23 129 -23 68 0 130 3 139 6 25 10 19 24
-10 24 -19 0 -25 4 -20 15 3 9 0 15 -9 15 -8 0 -15 6 -15 13 0 9 -13 14 -37
15 -38 1 -38 1 -13 -13 36 -20 5 -18 -33 2 l-32 17 33 6 c33 5 33 5 12 23 -12
10 -25 15 -30 12 -5 -3 -12 0 -16 6 -5 9 6 11 44 6 28 -3 65 -2 82 3 38 11 75
-1 107 -36 20 -21 26 -24 39 -13 13 10 12 15 -8 36 -24 26 -91 48 -117 38 -9
-4 -43 -9 -76 -12 -33 -3 -79 -8 -102 -13 -23 -4 -47 -3 -55 1 -9 6 -7 9 8 9
12 0 24 7 28 15 3 8 1 15 -5 15 -6 0 -18 8 -27 17 -16 16 -15 16 8 9 47 -15
90 -18 90 -7 0 6 7 8 15 5 11 -5 13 -2 9 10 -3 9 -17 16 -31 16 -14 0 -21 4
-18 10 3 6 18 7 32 4 l25 -7 -23 27 c-12 14 -29 26 -36 26 -7 0 -13 7 -13 15
0 24 -21 27 -65 11 -25 -9 -32 -15 -20 -15 17 -1 17 -3 5 -11 -18 -11 -38 6
-43 37 -2 12 -7 26 -11 30 -10 11 -26 -19 -20 -38 3 -11 -3 -18 -18 -22 -22
-6 -22 -5 -4 8 11 8 15 15 8 15 -6 0 -9 7 -5 16 5 13 2 15 -13 10 -10 -3 -25
-2 -32 2 -9 6 -5 12 13 20 15 7 24 8 20 2 -3 -5 1 -10 9 -10 9 0 13 6 10 14
-4 11 3 13 38 9 24 -3 45 -9 48 -14 3 -4 19 -1 35 7 l30 14 -28 -5 c-16 -3
-35 0 -44 7 -21 17 -113 18 -113 1 0 -7 -4 -13 -10 -13 -5 0 -10 5 -10 11 0 7
-7 8 -17 4 -32 -13 -55 -7 -86 24 l-29 31 36 0 c20 0 36 4 36 10 0 5 -7 7 -15
3 -17 -6 -105 24 -105 36 0 4 6 13 13 20 10 10 9 11 -6 5 -9 -3 -25 0 -34 7
-14 12 -14 9 2 -19z"/>
<path d="M2825 329 c-31 -10 -89 -17 -184 -23 -31 -2 -57 -10 -62 -17 -5 -8
-9 -9 -9 -4 0 6 -27 11 -61 12 -48 2 -60 -1 -56 -12 5 -10 -2 -12 -31 -8 -25
3 -33 2 -23 -5 11 -8 11 -10 0 -15 -8 -3 0 -6 18 -6 17 -1 35 4 38 9 9 14 78
12 94 -2 11 -11 13 -10 8 5 -5 14 -2 16 20 11 18 -5 24 -4 19 5 -4 6 -3 11 3
11 5 0 13 -5 16 -11 5 -6 22 -8 47 -4 31 5 39 4 33 -5 -6 -9 -2 -9 15 0 12 7
35 9 51 6 16 -3 29 -2 29 3 0 13 56 19 74 9 10 -6 16 -5 16 1 0 5 12 14 28 20
24 10 22 11 -17 6 -39 -5 -43 -4 -31 10 14 17 8 18 -35 4z"/>
<path d="M2200 303 c0 -6 50 -51 61 -55 6 -2 11 -18 11 -36 1 -26 4 -31 19
-27 27 9 68 -22 62 -46 -4 -14 -1 -20 8 -18 40 8 129 -63 129 -102 0 -18 10
-19 148 -18 98 0 160 5 187 14 l40 14 -40 -3 c-23 -2 -50 3 -63 12 -17 11 -25
12 -36 3 -10 -8 -28 -9 -63 -3 -31 7 -39 11 -23 12 14 1 29 2 33 1 13 -2 57
47 57 64 0 19 -11 19 -48 -2 -27 -15 -35 -16 -66 -5 -20 7 -41 10 -47 6 -8 -4
-9 0 -4 15 5 16 2 21 -10 21 -11 0 -15 5 -12 14 4 10 1 13 -9 9 -8 -3 -20 -1
-27 5 -6 5 -21 12 -32 16 -11 3 1 4 27 2 26 -2 45 0 42 5 -3 5 -23 9 -44 9
-21 0 -41 4 -45 9 -3 5 -21 7 -40 4 -24 -4 -35 -2 -35 6 0 8 -8 10 -19 6 -11
-3 -22 -1 -26 5 -3 5 -18 10 -33 11 l-27 0 24 12 c19 9 25 9 29 -1 5 -15 52
-16 52 -1 0 5 -4 8 -8 5 -5 -3 -28 2 -53 11 -48 17 -119 33 -119 26z"/>
</g>
</svg>
