<?xml version="1.0" standalone="no"?>
<!DOCTYPE svg PUBLIC "-//W3C//DTD SVG 20010904//EN"
 "http://www.w3.org/TR/2001/REC-SVG-20010904/DTD/svg10.dtd">
<svg version="1.0" xmlns="http://www.w3.org/2000/svg"
 width="1182.000000pt" height="664.000000pt" viewBox="0 0 1182.000000 664.000000"
 preserveAspectRatio="xMidYMid meet">
<metadata>
Created by potrace 1.13, written by Peter Selinger 2001-2015
</metadata>
<g transform="translate(0.000000,664.000000) scale(0.100000,-0.100000)"
fill="#000000" stroke="none">
<path d="M0 4415 l0 -2226 63 2 c34 1 69 5 78 10 8 4 21 4 29 -1 9 -5 19 -5
27 1 7 6 16 8 21 5 5 -3 25 3 44 14 35 19 37 19 57 0 12 -10 30 -17 39 -15 9
2 20 4 24 4 5 1 7 7 5 13 -1 10 18 12 79 9 63 -2 84 0 90 11 5 8 27 23 50 34
22 11 39 25 36 32 -2 7 1 12 7 12 5 0 11 19 13 43 2 27 7 41 16 40 6 -2 12 2
12 8 0 5 4 8 9 4 5 -3 12 -1 16 4 3 6 12 8 20 4 9 -3 15 1 15 10 0 23 30 37
52 26 14 -8 18 -22 18 -64 l0 -55 34 0 c19 0 38 5 41 10 4 6 16 8 27 4 18 -5
20 -3 13 12 -19 46 -18 64 4 64 11 0 21 5 21 11 0 5 4 8 9 5 5 -3 12 1 15 10
8 22 8 26 -4 19 -6 -3 -10 4 -10 17 0 15 3 19 8 11 6 -10 17 -8 47 7 22 11 47
20 57 20 10 0 18 7 18 15 0 8 4 15 10 15 5 0 15 18 21 40 7 22 18 40 26 40 18
0 16 20 -3 35 -13 9 -14 16 -6 31 6 10 12 13 12 7 0 -7 10 -13 23 -13 12 0 40
-11 62 -23 33 -19 46 -22 75 -14 l35 9 -37 19 c-24 12 -38 27 -38 39 0 10 -13
27 -30 36 -32 20 -45 40 -30 49 6 4 10 2 10 -2 0 -5 16 -15 35 -22 41 -15 95
-6 95 15 0 11 -4 12 -19 4 -11 -5 -26 -7 -34 -4 -19 7 -30 86 -14 96 21 14 90
9 108 -8 14 -13 20 -13 38 -2 26 16 27 38 4 38 -10 1 -36 8 -58 16 -22 8 -44
16 -50 18 -41 10 -55 20 -55 37 0 10 5 19 11 19 5 0 8 4 5 9 -7 10 16 21 44
21 14 0 20 9 22 33 2 23 8 33 24 35 17 2 22 -5 30 -44 5 -26 15 -49 22 -52 10
-3 12 9 6 56 -6 57 -5 60 17 68 13 4 27 8 31 9 19 1 15 13 -7 19 -21 5 -25 12
-25 46 0 35 3 40 24 40 13 0 36 -10 51 -22 l27 -21 18 23 c12 16 30 24 61 27
56 6 64 14 50 54 -13 37 -3 50 31 41 18 -4 19 -3 9 17 -10 17 -9 22 3 27 8 3
19 3 24 0 20 -12 20 36 1 55 -23 23 -25 49 -3 49 14 0 14 2 1 15 -11 11 -13
24 -6 52 5 23 4 39 -1 41 -19 7 16 42 41 42 26 0 57 25 46 37 -4 3 -17 7 -29
8 -36 4 -38 4 -38 15 0 6 8 10 18 11 10 0 12 3 5 6 -15 6 -17 33 -3 33 6 0 10
7 10 15 0 8 -4 15 -8 15 -5 0 -17 18 -28 40 -11 23 -30 44 -47 51 -32 14 -45
6 -27 -16 11 -13 5 -15 -44 -15 -60 0 -78 -17 -23 -22 25 -2 32 -8 33 -25 1
-19 -4 -23 -27 -23 -15 0 -31 -5 -34 -10 -4 -6 -12 -10 -18 -9 -7 1 -20 -1
-30 -6 -11 -4 -23 -3 -30 4 -16 16 -32 14 -17 -3 9 -12 7 -17 -9 -28 -12 -7
-21 -16 -21 -20 0 -4 -11 -19 -24 -33 l-24 -25 -4 25 c-4 19 -1 25 13 25 24 0
24 16 2 29 -17 10 -17 10 1 11 15 0 16 3 7 14 -10 11 -8 16 8 21 27 8 27 22 0
30 -14 5 -19 13 -16 26 3 10 1 17 -3 14 -5 -3 -10 5 -12 17 -2 14 -9 22 -18
20 -8 -2 -11 0 -7 4 4 5 24 7 43 5 36 -3 44 8 19 29 -28 23 -16 30 45 26 64
-4 76 0 59 20 -7 9 -5 14 10 19 10 3 22 12 25 20 3 8 15 15 26 15 12 0 31 5
43 12 12 6 45 10 74 9 41 -2 53 1 53 13 0 8 -6 17 -12 20 -7 3 6 2 28 -1 36
-4 44 -2 58 18 l16 24 6 -22 c11 -42 34 -19 34 33 0 17 6 24 20 24 13 0 20 -7
20 -20 0 -11 5 -20 10 -20 6 0 10 7 10 16 0 10 6 14 14 11 8 -3 20 2 28 11 9
11 10 14 1 8 -18 -10 -16 4 4 26 15 17 15 20 -6 42 -17 18 -22 33 -19 62 3 38
4 39 46 42 26 2 42 -1 42 -8 0 -6 5 -8 11 -4 12 7 79 -25 79 -38 0 -5 14 -8
30 -8 17 0 30 4 30 8 0 4 9 8 20 8 11 0 20 -3 20 -7 0 -3 37 -5 83 -4 45 1 86
0 90 -3 5 -2 59 -5 121 -7 87 -2 119 -6 139 -20 15 -9 27 -22 27 -27 0 -5 7
-8 16 -6 8 2 15 8 14 13 0 6 14 12 32 15 19 3 32 11 31 18 -4 17 15 15 33 -3
9 -8 23 -14 32 -14 15 1 14 2 -1 6 -33 9 -11 28 34 30 74 4 123 13 137 27 13
13 72 10 72 -4 0 -5 14 -8 30 -8 19 1 30 6 30 16 0 11 3 12 13 3 8 -6 17 -8
21 -4 4 4 33 8 64 9 110 4 317 27 337 38 11 5 26 9 33 8 6 -2 12 4 12 13 0 16
15 20 25 6 3 -5 19 -12 35 -16 17 -4 30 -10 30 -15 0 -7 24 -18 60 -26 60 -14
173 -37 215 -43 28 -5 67 -16 88 -25 22 -9 36 -12 32 -7 -8 15 5 13 34 -3 13
-7 32 -11 42 -9 10 3 28 -4 40 -16 23 -22 45 -29 34 -11 -3 6 1 7 9 4 9 -3 16
-10 16 -15 0 -5 7 -9 16 -9 10 0 14 6 10 15 -6 16 11 20 31 7 8 -5 9 -19 4
-44 -5 -20 -6 -40 -3 -43 4 -3 0 -11 -8 -16 -11 -8 -8 -9 13 -4 19 4 26 2 22
-5 -3 -5 -13 -10 -21 -10 -8 0 -28 -13 -45 -30 -33 -31 -36 -48 -23 -124 5
-31 4 -37 -7 -31 -8 4 0 -6 16 -23 17 -16 33 -28 37 -26 7 4 13 -22 24 -99 5
-39 13 -53 47 -82 40 -35 67 -44 67 -25 0 6 5 10 10 10 6 0 10 -13 10 -29 0
-16 3 -38 7 -48 6 -16 8 -15 13 7 l6 25 27 -27 c18 -18 27 -38 27 -58 0 -16 4
-30 9 -30 5 0 8 -24 6 -52 -3 -62 17 -97 43 -75 13 10 14 9 8 -2 -7 -11 1 -12
50 -6 45 5 69 15 104 41 43 34 78 41 72 15 -4 -18 37 -101 51 -101 5 0 7 -3 3
-7 -3 -4 -56 -6 -116 -5 -61 0 -108 -2 -106 -7 3 -4 56 -8 118 -9 62 -1 117
-2 122 -2 29 -1 -15 -17 -72 -26 l-67 -11 65 -2 c86 -1 67 -20 -31 -31 -65 -6
-69 -8 -29 -10 25 -2 59 -3 75 -2 29 3 29 2 9 -12 -11 -8 -43 -16 -70 -18
l-49 -3 55 -12 c45 -9 51 -12 32 -18 -16 -5 -21 -13 -17 -26 5 -14 1 -19 -14
-19 -12 0 -21 -4 -21 -10 0 -5 5 -10 11 -10 8 0 7 -6 -2 -17 -12 -15 -12 -16
4 -10 9 4 17 2 17 -4 0 -8 18 -9 56 -4 62 7 62 8 18 -52 -13 -17 -24 -37 -24
-43 0 -7 -7 -10 -15 -6 -8 3 -19 -3 -25 -14 -16 -31 -11 -41 10 -20 11 11 26
17 35 14 11 -5 13 -2 9 10 -3 9 -1 16 5 16 16 0 61 49 61 66 0 8 5 14 11 14 6
0 8 -7 5 -15 -7 -19 14 -55 31 -55 7 0 13 -4 13 -10 0 -5 10 -10 21 -10 17 0
20 -5 16 -21 -4 -15 -2 -18 7 -10 8 7 17 6 26 0 11 -8 12 -12 3 -16 -21 -8
-15 -22 19 -39 64 -33 65 -42 9 -67 -64 -28 -67 -43 -3 -18 26 10 64 21 85 25
41 8 42 3 8 -38 -15 -18 -15 -18 4 -9 11 5 31 7 44 4 20 -5 16 -8 -23 -19 -26
-7 -45 -16 -42 -21 3 -4 -19 -14 -50 -21 -30 -7 -57 -17 -60 -22 -7 -12 9 -10
58 6 24 8 55 16 69 20 25 5 26 4 20 -32 -6 -35 -9 -37 -46 -40 -28 -3 -35 -6
-24 -13 11 -7 9 -9 -8 -9 -12 0 -23 -3 -25 -7 -1 -5 -38 -24 -81 -44 -42 -20
-87 -44 -100 -53 -12 -9 -17 -15 -12 -13 94 42 258 107 261 104 3 -2 -48 -28
-113 -57 -64 -28 -126 -58 -137 -66 -23 -16 -15 -19 12 -4 31 17 294 121 298
118 2 -2 -57 -30 -131 -62 -74 -32 -142 -64 -152 -72 -20 -16 81 20 172 61 76
34 188 75 193 71 1 -2 -39 -20 -90 -41 -112 -44 -270 -117 -265 -121 4 -4 63
18 180 65 44 18 81 30 83 28 3 -2 -41 -24 -96 -48 -56 -23 -104 -47 -107 -53
-4 -6 1 -6 13 -2 34 14 168 64 189 70 11 3 -18 -12 -64 -34 -46 -23 -81 -43
-79 -46 3 -2 35 7 71 21 37 14 67 23 67 20 0 -3 -38 -23 -85 -45 -47 -22 -85
-42 -85 -45 0 -2 31 9 69 25 75 32 104 39 58 14 -37 -20 -28 -30 10 -11 34 18
144 50 149 44 2 -2 -34 -17 -81 -32 -102 -34 -139 -63 -43 -34 79 24 82 24 75
-2 -5 -18 -1 -20 26 -19 50 3 57 1 57 -15 0 -10 10 -15 33 -15 62 0 62 -16 0
-41 -70 -28 -49 -36 37 -14 70 18 83 16 44 -9 -16 -11 -35 -15 -50 -12 -18 5
-26 2 -31 -11 -4 -10 -14 -24 -22 -31 -14 -12 -13 -13 9 -7 88 22 143 13 90
-15 -11 -6 -20 -17 -20 -24 0 -9 -7 -12 -17 -10 -10 3 -27 -2 -38 -10 -20 -15
-19 -15 6 -16 14 0 34 7 45 15 10 8 35 14 54 14 33 0 34 -1 16 -14 -11 -8 -30
-15 -42 -15 -12 0 -24 -4 -26 -9 -1 -4 -23 -18 -48 -29 -25 -12 -52 -26 -60
-30 -8 -5 -36 -19 -62 -31 -27 -11 -48 -25 -48 -31 0 -13 17 -13 22 -1 4 12
58 2 58 -11 0 -5 -16 -16 -35 -24 -40 -16 -45 -30 -14 -39 19 -6 19 -8 4 -25
-15 -16 -14 -18 7 -24 l23 -6 -26 -24 c-14 -13 -36 -27 -49 -31 -19 -6 -21 -9
-8 -16 8 -5 29 -10 46 -11 44 -3 29 -21 -36 -41 -31 -11 -75 -30 -97 -43 -22
-13 -55 -30 -74 -39 -19 -8 -31 -18 -28 -21 3 -4 14 -3 24 1 10 5 20 9 23 10
3 1 34 16 70 33 36 16 81 33 100 36 l35 7 -30 -17 c-16 -10 -31 -17 -32 -16
-2 1 -33 -14 -70 -32 -106 -53 -161 -76 -193 -83 -17 -3 -30 -9 -30 -13 0 -11
60 6 135 37 82 35 144 53 150 43 2 -4 -24 -19 -58 -33 -108 -45 -193 -77 -203
-77 -12 0 -92 -39 -82 -40 4 0 75 22 160 50 84 27 154 48 155 46 7 -6 -149
-76 -217 -96 -41 -13 -79 -27 -84 -32 -16 -13 3 -10 87 16 72 22 103 22 74 -2
-6 -5 -63 -27 -124 -48 -62 -20 -111 -40 -108 -42 3 -3 22 0 42 6 21 7 72 22
113 33 41 12 83 31 94 41 11 10 29 18 40 17 18 -1 17 -2 -6 -13 -15 -6 -37
-21 -50 -33 -13 -12 -45 -27 -73 -34 -27 -6 -59 -17 -70 -24 -11 -6 -38 -18
-60 -25 -22 -7 -34 -15 -28 -17 15 -5 113 25 128 38 5 5 19 9 31 9 11 0 42 11
68 25 54 29 75 32 56 10 -7 -8 -21 -15 -31 -15 -9 0 -25 -7 -33 -16 -9 -8 -33
-18 -53 -21 -21 -4 -44 -12 -51 -20 -7 -7 -20 -13 -28 -13 -8 0 -14 -4 -14
-10 0 -5 -16 -12 -35 -16 -19 -3 -35 -11 -35 -16 0 -13 49 -2 99 23 22 10 54
19 70 19 17 0 38 8 48 19 20 21 63 37 63 24 0 -9 -110 -63 -129 -63 -7 0 -31
-9 -53 -20 -23 -11 -50 -20 -60 -20 -10 0 -18 -7 -18 -15 0 -19 -4 -19 74 10
37 14 81 25 99 24 17 0 25 -3 17 -6 -8 -2 -24 -9 -35 -14 -11 -5 -47 -20 -80
-33 -32 -13 -61 -30 -64 -37 -2 -8 2 -10 15 -4 11 4 71 25 134 47 63 21 121
46 127 55 7 9 16 14 19 10 11 -10 -36 -43 -91 -65 -27 -11 -83 -32 -122 -47
-40 -16 -73 -32 -73 -37 0 -12 1 -11 117 27 115 38 139 42 108 19 -11 -8 -25
-12 -33 -9 -9 3 -12 -1 -7 -14 5 -16 -4 -23 -51 -40 -31 -12 -61 -21 -67 -20
-7 1 -21 1 -32 0 -19 -2 -19 -2 -2 -15 23 -17 22 -21 -11 -55 -25 -26 -33 -29
-70 -24 -28 4 -42 2 -42 -6 0 -6 7 -11 15 -11 8 0 15 -9 15 -20 0 -11 -7 -20
-15 -20 -8 0 -15 -5 -15 -11 0 -5 -4 -8 -9 -5 -5 3 -23 3 -40 0 -25 -5 -31
-12 -32 -33 0 -22 -3 -20 -14 14 -7 22 -19 62 -26 90 -14 55 -12 57 -33 -38
-5 -20 -11 -27 -21 -23 -20 7 -19 -4 3 -20 10 -8 12 -13 5 -14 -7 0 -13 -6
-13 -13 0 -7 -22 -34 -50 -60 -34 -33 -58 -47 -77 -47 -19 0 -24 -3 -15 -9 18
-11 -9 -33 -43 -35 -26 -1 -32 -10 -15 -21 5 -3 -2 -19 -17 -35 -14 -16 -29
-27 -33 -25 -10 6 -50 -33 -50 -49 0 -8 -9 -16 -20 -19 -11 -3 -20 0 -20 6 0
8 -3 9 -8 1 -11 -16 -41 -24 -47 -14 -4 6 -13 10 -22 10 -13 0 -13 -3 -2 -16
8 -10 21 -13 36 -9 14 3 23 1 23 -6 0 -6 7 -9 15 -5 8 3 15 1 15 -3 0 -5 7
-12 16 -15 14 -5 15 -4 4 9 -10 12 -10 15 4 15 9 0 16 -4 16 -10 0 -5 5 -10
11 -10 6 0 9 7 5 15 -7 20 14 19 42 -1 12 -8 22 -10 22 -5 0 6 7 11 15 11 10
0 15 10 15 28 l1 27 14 -33 c8 -18 21 -35 29 -38 20 -8 28 -44 10 -51 -8 -3
-14 -9 -14 -15 0 -5 5 -6 11 -3 5 4 21 -5 34 -19 18 -20 34 -26 64 -26 21 0
41 -5 43 -10 6 -18 120 -47 155 -39 19 4 33 2 33 -3 0 -14 -26 -38 -41 -38
-10 0 -10 -3 -2 -11 9 -9 16 -8 28 5 19 18 39 11 31 -11 -3 -8 -1 -11 4 -8 6
4 9 14 8 23 -2 9 7 18 22 23 18 5 20 7 6 8 -10 1 -33 10 -50 20 -17 10 -45 22
-63 26 -40 8 -34 35 7 35 16 0 32 5 35 10 9 14 26 12 24 -2 -5 -37 2 -48 29
-47 27 0 27 0 3 10 -14 5 -21 15 -18 23 3 8 -1 20 -9 26 -21 18 -17 30 11 30
14 0 28 7 31 15 4 8 12 15 20 15 20 0 17 -27 -3 -35 -17 -7 -16 -8 2 -15 11
-5 31 -6 45 -3 24 4 24 4 6 -11 -20 -16 -20 -16 0 -17 10 -1 28 -1 39 0 18 1
18 0 -2 -9 -27 -11 -31 -40 -5 -40 9 0 35 -9 57 -20 38 -19 35 -19 -28 -4 -36
8 -54 -8 -62 -57 -4 -22 -13 -43 -21 -46 -8 -3 -14 -9 -14 -15 0 -5 4 -6 10
-3 15 9 12 -31 -5 -72 -8 -19 -15 -57 -15 -84 0 -38 -4 -49 -16 -49 -8 0 -12
4 -9 10 4 6 -1 7 -11 3 -16 -6 -15 -7 2 -20 10 -7 23 -13 30 -13 7 0 14 -10
16 -22 l3 -23 439 -3 c379 -2 437 0 433 12 -23 60 -26 95 -12 128 8 20 21 38
30 42 17 6 16 8 60 -119 l21 -60 557 -2 c306 -1 557 0 557 2 0 2 -7 11 -16 19
-22 22 -2 20 22 -2 16 -15 38 -18 139 -19 81 -1 122 3 127 10 5 9 10 9 20 -1
6 -6 25 -12 42 -12 28 0 29 0 11 20 -10 11 -24 20 -30 20 -7 0 -18 6 -25 14
-6 8 -19 13 -28 10 -9 -2 -7 1 6 7 30 16 28 31 -2 19 -23 -8 -36 -5 -36 11 0
4 10 5 22 1 14 -3 19 -2 14 6 -10 16 -46 15 -46 0 0 -8 -5 -7 -15 3 -12 12
-14 21 -6 42 6 15 16 27 23 27 11 0 11 -2 0 -8 -9 -7 -7 -13 9 -28 13 -10 19
-14 16 -7 -11 18 11 26 51 18 35 -8 36 -8 12 -15 -14 -5 -20 -9 -15 -10 50 -8
60 -12 63 -20 2 -6 12 -10 22 -10 12 0 21 -12 28 -38 7 -26 10 -30 11 -14 1
13 5 20 11 17 6 -4 8 -11 5 -16 -4 -5 -3 -9 2 -9 4 0 13 11 19 23 10 22 8 23
-15 20 -19 -3 -22 -2 -11 5 32 21 60 24 60 8 0 -9 6 -16 13 -16 6 0 1 -6 -13
-13 -17 -8 -25 -21 -25 -37 0 -19 6 -26 25 -27 14 -1 20 0 13 3 -15 7 -5 34
12 34 7 0 16 -6 19 -12 5 -11 7 -11 12 0 3 6 11 12 17 12 8 0 7 -4 -1 -12 -23
-23 -12 -27 73 -27 53 0 83 3 80 9 -3 6 -1 10 4 10 6 0 11 -4 11 -10 0 -12
106 -14 114 -2 2 4 -14 6 -37 4 -41 -3 -41 -2 -17 12 27 15 80 11 92 -8 5 -8
8 -7 8 2 0 6 8 12 18 12 10 0 23 5 30 12 9 9 12 8 12 -5 0 -9 -7 -17 -16 -17
-8 0 -13 -4 -10 -8 7 -12 76 -2 73 11 -1 8 19 12 56 13 52 1 57 -1 52 -17 -6
-17 0 -19 55 -19 38 0 59 4 55 10 -4 6 16 10 52 9 44 -1 52 -3 33 -9 -14 -5
153 -8 369 -9 277 0 399 3 408 11 10 8 17 8 25 0 8 -8 51 -12 117 -12 98 0
123 5 71 15 -30 6 -38 15 -14 15 16 0 16 2 -5 13 -25 13 -30 29 -12 35 6 2 11
-3 11 -12 0 -13 9 -15 48 -10 27 3 42 2 35 -3 -13 -9 -7 -53 7 -53 4 0 10 8
13 18 5 22 39 34 58 21 12 -8 12 -10 0 -18 -8 -5 -20 -7 -28 -4 -7 3 -13 0
-13 -5 0 -12 106 -9 148 4 13 4 22 2 22 -4 0 -7 60 -11 175 -11 109 -1 175 3
175 9 0 6 7 10 15 10 8 0 15 5 15 10 0 6 -9 10 -20 10 -11 0 -20 -7 -20 -15 0
-15 -17 -19 -43 -9 -9 3 -13 13 -10 25 4 14 14 19 37 19 18 0 37 5 43 11 8 8
14 6 22 -10 8 -13 17 -18 28 -14 13 5 15 2 10 -11 -6 -14 -3 -17 8 -12 9 3 18
-1 21 -9 9 -22 705 -22 748 0 35 19 40 19 32 0 -5 -13 42 -15 384 -15 270 0
390 3 390 11 0 6 9 8 20 4 13 -4 22 -1 26 9 7 18 49 22 59 6 3 -6 -4 -14 -17
-19 -18 -8 -19 -10 -5 -10 10 -1 28 4 39 10 14 8 23 8 31 0 6 -6 21 -11 34
-11 l23 0 0 180 0 179 -35 7 c-44 8 -44 19 0 34 l35 12 0 379 c0 354 -1 379
-17 379 -17 1 -17 1 0 11 16 9 17 102 17 1714 0 1354 -3 1704 -12 1708 -10 3
-10 9 0 26 16 28 16 29 -15 34 l-28 4 28 2 c23 1 27 5 27 31 0 17 -4 30 -9 30
-5 0 -12 7 -15 16 -4 12 -2 15 9 10 9 -3 15 0 15 9 0 7 -9 15 -20 17 -27 4
-28 21 -1 33 l21 10 0 907 0 908 -5910 0 -5910 0 0 -2225z m7220 -3035 c0 -5
15 -11 33 -11 l32 -1 -30 -7 -30 -7 40 -7 c22 -3 47 -6 55 -5 8 0 26 0 40 -1
14 0 63 1 110 2 64 2 88 -1 96 -11 8 -11 15 -12 31 -3 12 6 40 9 62 7 23 -2
39 -1 37 3 -3 4 6 7 19 7 23 0 23 -1 7 -28 -14 -25 -20 -27 -52 -22 -19 4 -39
7 -44 8 -5 0 -11 -5 -13 -11 -3 -9 7 -13 29 -14 97 -4 112 -6 116 -17 2 -7 8
-12 13 -12 4 0 5 8 2 18 -6 14 -4 15 8 5 10 -8 41 -11 90 -9 41 2 66 1 57 -1
-10 -3 -18 -7 -18 -10 0 -13 45 -43 64 -44 128 -4 256 3 263 14 4 6 -3 8 -15
5 -20 -6 -51 16 -40 27 7 8 68 -25 68 -37 0 -5 7 -7 16 -4 9 4 22 2 29 -4 8
-7 16 -7 19 -2 7 11 56 3 56 -9 0 -5 -5 -9 -11 -9 -5 0 -7 -5 -4 -10 4 -6 -7
-13 -24 -16 -17 -4 -28 -10 -25 -15 3 -5 0 -9 -5 -9 -6 0 -11 6 -11 13 0 9 -2
9 -8 0 -11 -17 -139 -5 -146 13 -3 8 2 12 15 11 10 -1 19 -5 19 -9 0 -4 12 -8
26 -8 15 0 23 4 19 11 -5 7 5 8 32 3 21 -3 40 -6 43 -6 33 0 50 3 50 10 0 10
-22 12 -158 15 -89 2 -115 -1 -122 -12 -4 -8 -17 -16 -27 -17 -70 -11 -59 -21
20 -18 49 3 87 0 87 -5 0 -5 24 -11 53 -14 28 -2 70 -10 92 -16 46 -14 72 -18
138 -24 26 -2 50 -7 53 -10 3 -3 12 -3 20 0 8 3 14 1 14 -4 0 -5 8 -11 18 -12
31 -4 173 -6 163 -3 -6 2 -8 8 -5 14 3 5 -2 9 -12 8 -33 -4 -54 0 -54 9 0 10
10 9 95 -7 28 -5 42 -10 31 -11 -12 -1 -16 -6 -12 -16 4 -12 -5 -15 -47 -16
-29 0 -71 -1 -95 -2 -23 -1 -42 2 -42 6 0 5 -38 7 -84 6 -46 -1 -88 1 -94 5
-6 3 -13 0 -15 -6 -4 -10 -7 -10 -15 0 -7 11 -10 11 -15 -2 -5 -14 3 -16 56
-17 34 -1 72 0 85 1 12 1 22 -4 22 -10 0 -8 -20 -10 -62 -6 -35 2 -72 5 -83 6
-29 1 -56 25 -50 42 4 10 16 14 33 11 23 -3 24 -2 7 6 -11 5 -32 10 -47 10
-15 1 -30 6 -33 11 -3 6 -24 10 -47 10 -33 0 -38 -2 -29 -14 6 -7 25 -12 41
-11 19 2 30 -2 30 -10 0 -9 -11 -10 -47 -3 -27 5 -95 11 -153 13 -58 2 -117 8
-132 14 -20 7 -28 7 -28 0 0 -6 -6 -9 -12 -6 -7 2 -13 9 -13 14 0 6 -3 15 -7
19 -5 4 -8 -1 -8 -10 0 -10 -5 -16 -12 -13 -49 18 -58 18 -58 2 0 -12 -5 -15
-17 -10 -10 3 -60 6 -111 6 -73 -1 -94 3 -98 14 -4 8 -10 15 -15 15 -4 0 -5
-7 -2 -17 4 -9 2 -14 -3 -11 -36 20 -148 33 -138 16 7 -11 -50 -10 -61 1 -6 5
-27 12 -49 15 -21 4 -42 9 -47 12 -5 3 -9 -2 -9 -12 0 -13 -6 -15 -32 -10 -18
3 -53 9 -78 12 -24 3 -56 12 -70 19 -15 8 -46 16 -71 19 l-44 5 -1 -54 c0 -57
5 -65 26 -40 10 12 9 16 -4 21 -24 9 -19 24 7 21 12 -1 28 -10 35 -19 7 -10
18 -18 24 -18 6 0 3 9 -7 20 -10 11 -15 23 -11 27 4 4 10 2 14 -4 6 -10 138
-26 202 -26 8 0 21 -4 28 -10 8 -6 12 -6 12 2 0 7 5 9 12 5 7 -4 30 -7 53 -5
43 2 40 -13 -5 -22 -22 -5 -21 -5 5 -5 51 0 61 -4 35 -13 -23 -8 -22 -8 8 -5
21 2 32 -2 32 -11 0 -7 10 -13 23 -13 18 -1 14 -5 -18 -22 -33 -18 -37 -22
-21 -28 18 -6 18 -7 1 -24 -10 -9 -24 -15 -32 -12 -8 3 -19 6 -24 6 -6 0 -7 5
-4 10 5 7 11 8 19 1 6 -5 18 -6 25 -2 9 6 10 11 2 15 -6 4 -7 15 -2 29 8 22 5
24 -70 40 -82 19 -102 17 -92 -9 3 -8 -9 -1 -27 17 -26 26 -34 30 -41 18 -8
-12 -12 -11 -24 5 -12 16 -15 16 -15 4 0 -12 -8 -14 -45 -8 -25 4 -48 10 -52
13 -8 8 -33 -12 -33 -26 0 -7 4 -7 12 1 15 15 31 16 22 0 -5 -8 -2 -9 10 -5
14 5 17 3 12 -8 -4 -11 1 -15 17 -15 18 0 19 2 7 10 -12 8 -9 10 11 7 15 -1
34 -8 42 -15 9 -8 18 -9 21 -3 3 5 0 11 -6 14 -7 3 2 5 20 4 18 0 30 -2 28 -5
-9 -9 23 -32 44 -32 16 0 20 4 16 15 -3 8 -1 15 5 15 5 0 12 -7 15 -15 5 -12
10 -13 20 -4 9 7 14 8 14 1 0 -5 10 -8 22 -4 33 8 13 -16 -27 -32 -19 -8 -42
-13 -52 -11 -10 2 -35 4 -56 4 -21 1 -36 5 -33 10 9 15 -38 27 -79 20 -41 -6
-23 -12 30 -10 23 2 27 0 15 -8 -13 -9 -13 -11 3 -11 9 0 17 -4 17 -9 0 -5 11
-11 25 -13 13 -3 22 -1 19 3 -8 13 10 11 24 -3 11 -11 54 -20 107 -22 29 -1
48 -13 40 -26 -2 -4 -25 -8 -51 -9 -33 -1 -53 4 -67 16 -12 11 -17 12 -12 4 6
-11 3 -13 -12 -9 -12 3 -27 2 -34 -3 -7 -4 -18 -4 -24 0 -22 19 -75 23 -90 7
-21 -21 -19 -22 20 -18 19 2 43 1 52 -3 10 -4 61 -9 113 -12 52 -2 102 -6 110
-9 28 -10 145 -10 159 1 11 7 13 7 7 -2 -4 -8 -2 -13 7 -13 8 0 17 7 21 15 3
8 11 15 18 15 8 0 20 8 27 19 10 14 21 17 45 12 36 -8 66 -4 66 10 0 5 -11 9
-24 9 -14 0 -28 5 -32 12 -5 8 0 9 17 5 13 -4 32 -7 42 -7 25 0 21 -29 -5 -39
-13 -5 -38 -6 -56 -3 -27 4 -34 1 -39 -16 -3 -14 -10 -19 -21 -15 -10 4 -13 2
-8 -5 9 -15 105 -16 140 -2 14 5 33 7 43 3 15 -6 15 -7 -3 -14 -10 -4 -40 -8
-66 -8 -79 -1 -54 -19 28 -20 80 0 136 -7 169 -21 11 -4 40 -14 65 -21 l45
-14 -44 -6 c-25 -3 -47 -11 -49 -17 -2 -7 -8 -12 -13 -12 -6 0 -7 4 -4 10 4 6
-6 7 -25 4 -18 -4 -30 -2 -30 4 0 6 21 14 48 17 65 9 74 13 30 14 -21 1 -38 6
-38 12 0 6 -5 7 -12 2 -7 -4 -22 -9 -33 -10 -16 -2 -17 -1 -5 6 12 9 12 11 -3
17 -10 4 -23 2 -30 -5 -14 -14 -41 -15 -32 -1 3 6 1 10 -5 10 -6 0 -14 -9 -18
-19 -6 -17 -9 -18 -26 -5 -18 13 -18 14 -2 14 9 0 14 5 11 10 -5 8 -11 7 -21
-1 -11 -9 -11 -15 -3 -25 9 -11 8 -18 -1 -29 -17 -20 -8 -19 35 6 28 17 38 19
50 9 23 -19 18 -27 -15 -22 -17 2 -37 -1 -45 -8 -13 -11 -20 -10 -40 0 -29 16
-43 7 -25 -15 10 -12 10 -15 -4 -15 -9 0 -19 7 -22 15 -4 8 -10 15 -15 15 -6
0 -5 -9 1 -20 8 -16 8 -20 -4 -20 -10 0 -13 -6 -9 -17 5 -13 3 -13 -13 3 -18
18 -18 20 -1 37 9 9 17 22 17 28 0 7 -8 18 -17 26 -16 13 -16 14 9 9 15 -4 30
-2 33 4 10 16 -19 22 -48 11 -21 -8 -27 -8 -27 4 0 7 -8 16 -17 19 -10 3 3 4
29 3 25 -1 44 1 41 6 -2 4 -34 7 -70 7 -60 0 -64 -1 -52 -17 13 -15 12 -15 -9
-4 -24 13 -66 6 -57 -10 6 -8 -31 -12 -125 -14 -19 0 -40 -3 -46 -7 -14 -9
-114 -6 -114 4 0 4 12 9 28 9 15 1 3 5 -26 9 -29 4 -69 11 -90 14 -26 4 -31 3
-17 -4 15 -6 16 -9 4 -9 -9 -1 -24 8 -34 19 -18 19 -17 20 2 20 11 0 68 -5
127 -11 72 -7 112 -7 118 -1 11 11 -62 21 -197 26 -44 2 -88 7 -97 11 -33 13
-19 25 30 25 68 0 85 16 26 24 -33 4 -50 2 -57 -6 -6 -9 -7 -8 -3 4 4 13 0 17
-14 15 -11 -2 -22 -6 -26 -9 -8 -8 -54 12 -54 24 0 4 4 8 8 8 17 0 56 41 60
63 2 12 4 53 3 91 l-1 69 56 -6 c38 -4 54 -3 47 4 -6 6 -33 11 -62 12 -53 2
-72 16 -23 18 26 1 25 1 -6 9 -18 4 -52 26 -75 49 -41 41 -41 42 -10 26 18 -9
37 -14 43 -10 5 3 10 1 10 -4 0 -6 12 -11 28 -10 24 0 25 1 7 9 -17 6 -14 8
15 12 l35 4 -28 14 c-21 10 -33 11 -45 3 -10 -5 -26 -7 -37 -2 -11 4 -32 8
-46 8 -15 1 -29 8 -32 15 -5 12 1 14 29 10 19 -2 47 2 62 10 16 8 35 11 47 6
11 -4 82 -10 157 -13 113 -4 136 -3 132 8 -3 8 -18 16 -32 18 -24 4 -23 4 6 6
17 0 32 -3 32 -9z m1666 -175 c24 -18 61 -19 67 -2 3 7 6 5 6 -5 1 -10 -4 -18
-10 -18 -5 0 -8 -4 -5 -8 3 -5 -9 -9 -26 -10 -17 0 -36 -6 -42 -12 -8 -8 11
-11 74 -9 47 1 92 -1 100 -4 66 -26 160 -29 201 -7 29 16 43 12 28 -7 -12 -14
-12 -16 1 -11 8 3 23 1 33 -4 26 -13 34 -1 11 17 -18 13 -17 14 11 9 16 -3 32
-9 35 -13 3 -4 13 -8 23 -8 12 0 16 6 11 19 -3 12 1 20 13 25 10 4 26 15 36
26 17 20 17 20 17 -4 0 -20 2 -21 11 -9 8 11 10 11 7 1 -2 -7 -19 -15 -36 -16
-18 -2 -36 -6 -39 -9 -11 -11 34 -49 48 -41 7 5 90 9 185 9 95 1 168 -2 162
-5 -5 -3 -20 -4 -34 -1 -24 4 -34 -13 -11 -21 6 -2 1 -2 -13 1 -32 7 -198 4
-211 -4 -5 -3 -7 -10 -3 -15 3 -5 10 -7 15 -3 16 9 88 13 94 4 7 -12 -23 -21
-51 -14 -14 4 -24 2 -24 -5 0 -6 9 -11 20 -11 11 0 20 -4 20 -10 0 -5 -9 -10
-20 -10 -11 0 -20 -5 -20 -11 0 -6 6 -9 13 -6 24 9 152 20 145 12 -8 -8 -25
-11 -130 -20 -49 -5 -68 -3 -68 6 0 8 -4 8 -16 -2 -8 -7 -33 -12 -55 -12 -22
0 -37 -2 -34 -5 3 -3 56 -4 118 -2 151 5 178 4 207 -5 14 -4 22 -5 19 -1 -7 7
36 56 48 56 3 0 -2 -11 -11 -25 -20 -30 -20 -35 0 -35 8 0 12 5 9 10 -10 15
23 24 40 10 11 -9 14 -8 12 9 -1 15 -6 19 -19 15 -10 -3 -18 -1 -18 5 0 6 20
11 46 11 54 0 124 19 124 33 0 6 20 7 49 3 28 -4 52 -2 55 3 4 5 1 11 -6 13
-7 3 -2 7 10 10 12 4 20 2 16 -3 -3 -5 11 -9 31 -9 20 0 34 -4 30 -10 -3 -5
-13 -6 -23 -3 -15 6 -15 4 -4 -9 12 -15 8 -16 -32 -13 -37 2 -46 -1 -46 -14 0
-13 -2 -14 -9 -2 -8 12 -12 12 -25 2 -10 -9 -29 -11 -57 -6 -29 5 -40 4 -35
-4 5 -7 -6 -11 -33 -11 -23 0 -41 -5 -41 -11 0 -7 24 -8 70 -4 40 3 70 2 70
-3 0 -5 -10 -9 -22 -8 -16 1 -23 -5 -23 -18 0 -14 12 -23 40 -32 l40 -14 -40
5 c-22 3 -53 5 -69 5 l-28 0 21 18 c22 17 21 17 -44 20 -44 2 -64 -1 -60 -8 9
-15 -43 -13 -98 4 l-47 14 21 -26 21 -27 -24 -6 c-45 -13 -53 -11 -34 10 17
19 16 19 -48 23 -50 2 -65 0 -61 -9 3 -9 -7 -13 -30 -13 -19 0 -35 -4 -35 -10
0 -5 10 -10 22 -10 12 0 18 -3 14 -7 -13 -13 -39 -12 -62 4 -13 8 -33 13 -44
10 -14 -3 -20 0 -20 10 0 13 -9 15 -47 9 -29 -3 -43 -2 -34 3 7 5 10 14 7 20
-5 7 2 11 18 11 27 0 35 15 14 23 -10 4 -10 6 0 6 7 1 15 -6 18 -14 4 -8 11
-15 16 -15 6 0 8 6 5 13 -3 7 1 21 8 30 12 17 13 17 19 0 6 -15 8 -15 16 -3 7
12 12 12 22 2 6 -6 19 -12 27 -12 14 0 14 2 1 11 -11 8 -7 9 18 5 24 -4 34 -2
39 10 3 9 0 20 -8 25 -15 9 -314 5 -340 -6 -12 -4 -16 -1 -15 16 0 12 7 24 15
27 8 3 11 0 8 -5 -4 -6 22 -13 66 -17 39 -4 73 -3 74 1 2 4 39 7 83 7 44 -1
80 2 80 7 0 5 -33 10 -72 10 -269 4 -338 7 -373 12 -29 5 -33 4 -15 -2 24 -9
24 -9 -7 -10 -18 -1 -33 4 -33 9 0 6 -5 10 -12 10 -6 0 -8 -3 -5 -7 8 -7 -38
-33 -59 -33 -8 0 -14 5 -14 10 0 6 -10 10 -21 10 -18 0 -19 2 -9 15 8 9 9 15
2 15 -6 0 -14 -5 -17 -11 -12 -19 -58 -31 -66 -18 -6 10 -11 9 -25 -2 -16 -13
-17 -12 -11 11 3 14 2 32 -3 40 -11 18 5 30 42 30 20 0 26 -4 22 -15 -4 -8 -2
-15 4 -15 18 0 22 29 6 45 -9 8 -12 15 -7 15 5 0 14 -5 20 -11 6 -6 17 -9 25
-6 8 3 -1 11 -22 20 -19 9 -28 16 -19 17 8 0 24 -7 35 -15z m-1079 -118 c-3
-9 10 -13 52 -12 38 0 60 -5 68 -15 11 -13 12 -12 13 5 1 18 2 18 11 3 5 -10
16 -15 24 -12 8 4 15 1 15 -5 0 -6 -12 -16 -26 -22 -15 -5 -24 -12 -21 -16 4
-3 18 2 31 11 24 15 27 15 59 -14 19 -16 40 -30 47 -30 6 0 17 -6 25 -13 11
-11 2 -14 -49 -14 -33 -1 -54 1 -46 4 8 2 21 7 29 9 22 7 5 17 -39 21 -38 4
-54 -9 -27 -21 6 -3 2 -3 -10 -1 -12 3 -24 1 -28 -5 -3 -5 1 -11 9 -11 29 -3
34 -4 42 -11 4 -5 0 -8 -9 -8 -15 0 -15 -3 -5 -20 7 -11 18 -20 25 -20 7 0 16
-8 22 -17 7 -14 12 -15 25 -4 13 11 18 10 31 -2 21 -21 19 -25 -9 -20 -18 4
-33 -3 -54 -25 -29 -30 -31 -30 -68 -17 -29 11 -33 14 -16 15 29 0 82 27 82
41 0 6 -8 13 -18 16 -10 2 -25 15 -33 28 -11 19 -18 22 -29 14 -11 -8 -12 -12
-2 -16 14 -5 7 -23 -10 -23 -6 0 -8 12 -5 30 5 23 3 28 -8 23 -8 -3 -15 0 -15
7 0 6 4 9 9 5 5 -3 12 -1 16 5 5 9 -22 15 -47 11 -12 -2 -9 17 3 25 6 3 14 2
18 -3 3 -5 14 -12 23 -16 19 -7 45 17 28 28 -5 3 -10 0 -10 -7 0 -8 -3 -9 -8
-3 -14 20 -48 31 -72 24 -14 -4 -19 -7 -12 -8 21 -2 13 -31 -8 -31 -21 0 -67
-39 -62 -53 4 -14 -30 -20 -39 -6 -12 19 -11 39 2 39 5 0 8 -4 4 -9 -10 -18
10 -18 28 -1 16 16 16 18 2 24 -29 11 -5 27 31 20 28 -5 33 -3 29 9 -4 9 -20
15 -45 15 -21 0 -48 6 -59 11 -40 22 -57 11 -18 -11 20 -12 37 -26 37 -30 0
-14 -15 -9 -38 12 -12 11 -27 20 -33 20 -7 0 -20 7 -29 15 -10 9 -30 17 -46
18 -16 1 -36 9 -46 17 -16 12 -16 15 -3 23 9 4 25 5 38 1 39 -12 210 -9 215 4
2 7 6 12 9 12 3 0 3 -6 0 -13z m1096 -20 c-13 -6 -23 -14 -23 -19 0 -4 -15 -8
-32 -7 -31 1 -32 1 -8 9 l25 8 -27 1 c-16 1 -28 -3 -28 -9 0 -5 -3 -9 -7 -9
-26 4 -34 -2 -28 -22 7 -20 4 -21 -34 -16 -23 2 -44 1 -47 -4 -3 -5 4 -9 16
-9 13 0 19 -4 14 -12 -7 -11 10 -9 50 8 14 5 17 4 12 -5 -7 -10 9 -12 71 -7
83 5 114 -2 91 -22 -10 -8 -27 -8 -57 -1 -30 7 -48 6 -55 -1 -7 -7 -1 -10 19
-10 15 0 25 -3 21 -7 -11 -11 -60 -10 -68 1 -3 5 -35 10 -71 10 -36 1 -63 5
-59 10 3 5 0 6 -7 2 -6 -4 -18 -2 -26 4 -12 10 -13 8 -10 -9 3 -15 -1 -21 -15
-21 -10 0 -22 5 -25 10 -3 6 -24 10 -45 10 -21 0 -41 4 -45 10 -3 5 -12 7 -20
4 -17 -7 -164 11 -287 34 -26 5 -50 7 -53 4 -3 -3 -5 0 -5 6 0 10 27 9 105 -2
6 0 9 7 9 16 -1 10 4 14 12 11 8 -3 14 -14 14 -24 0 -13 7 -19 21 -19 11 0 17
5 14 10 -3 6 1 10 9 10 9 0 16 -4 16 -9 0 -5 22 -7 50 -4 36 3 54 1 64 -10 11
-10 25 -13 47 -8 39 8 51 31 17 31 -21 1 -21 2 -5 11 13 8 22 7 33 -2 11 -9
21 -9 39 -1 28 13 56 6 49 -12 -3 -7 -18 -10 -38 -8 -25 3 -35 -1 -40 -14 -3
-9 -4 -19 -1 -22 3 -3 5 0 5 6 0 8 20 12 54 12 38 0 56 4 59 14 4 9 -1 17 -11
20 -9 2 8 4 38 3 51 0 55 1 53 21 -2 15 2 20 12 16 8 -4 15 -1 15 4 0 13 19
17 90 18 45 1 51 -1 33 -9z m-47 -537 c16 0 17 -2 4 -10 -12 -8 -11 -10 8 -10
12 0 22 -4 22 -10 0 -5 -10 -10 -22 -10 -17 0 -19 -3 -10 -12 8 -8 21 -5 52
16 43 28 158 48 144 24 -4 -7 2 -8 17 -3 l24 7 -22 -17 c-26 -18 -31 -40 -8
-31 21 8 45 -3 45 -20 0 -8 -9 -14 -21 -14 -11 0 -18 4 -15 9 8 12 -43 24 -57
13 -14 -10 -61 -9 -94 2 -13 4 -28 4 -35 -1 -20 -12 -81 -33 -98 -32 -9 0 -7
4 6 9 12 5 24 20 26 34 3 14 1 23 -3 20 -5 -3 -9 -1 -9 5 0 6 -6 9 -12 7 -7
-1 -10 -1 -5 1 4 3 5 9 2 14 -4 5 1 6 9 3 9 -3 16 -1 16 5 0 6 -7 11 -15 11
-16 0 -20 12 -9 23 4 4 15 -2 24 -13 10 -11 26 -20 36 -20z m-281 -40 c-16 -6
-38 -7 -47 -4 -10 3 -18 0 -18 -6 0 -7 -7 -10 -15 -6 -8 3 -15 2 -15 -3 0 -5
-11 -11 -25 -13 -17 -4 -25 -1 -25 9 0 8 -4 11 -10 8 -5 -3 -10 -13 -10 -22 0
-13 13 -15 85 -11 61 3 86 1 89 -8 3 -7 -8 -17 -26 -23 -42 -15 -51 -14 -44 4
8 21 -11 19 -23 -2 -8 -14 -13 -15 -19 -6 -6 10 -17 10 -42 3 -45 -13 -43 -13
-37 10 4 17 0 20 -31 19 -21 -1 -29 -3 -19 -6 23 -6 22 -23 -3 -23 -11 0 -20
5 -20 10 0 6 -11 10 -24 10 -14 0 -28 5 -31 10 -10 16 -38 12 -32 -4 4 -10 1
-13 -8 -9 -8 3 -12 9 -9 14 3 5 -5 14 -18 19 -20 9 -19 10 9 6 25 -4 31 -2 26
9 -4 11 -1 13 11 9 9 -3 16 -12 16 -19 0 -34 94 -24 149 15 19 13 46 18 110
18 67 1 79 -1 56 -8z m-1215 -85 c-6 -8 -9 -19 -5 -25 3 -5 -1 -10 -9 -10 -9
0 -21 -9 -28 -20 -13 -20 -58 -28 -58 -10 0 5 6 7 14 4 15 -6 56 29 56 47 0 9
-4 8 -14 0 -7 -6 -26 -8 -44 -5 -21 4 -38 1 -56 -12 -28 -21 -34 -37 -11 -28
26 10 16 -10 -15 -31 -30 -20 -29 -30 5 -38 18 -4 18 -5 -2 -6 -12 0 -25 -6
-29 -13 -5 -7 -2 -9 9 -5 9 3 17 1 19 -5 3 -7 13 -2 25 11 12 13 26 19 36 15
12 -4 17 -1 17 10 0 18 8 20 30 6 13 -8 12 -10 -3 -10 -10 0 -16 -3 -14 -7 2
-5 -4 -16 -15 -25 -15 -15 -18 -15 -18 -3 0 8 -4 15 -10 15 -5 0 -10 -12 -10
-27 0 -16 -4 -23 -8 -17 -9 15 -79 37 -95 30 -7 -3 -3 -7 11 -12 18 -5 20 -9
11 -20 -6 -8 -18 -14 -25 -14 -8 0 -14 -4 -14 -10 0 -5 11 -10 24 -10 13 0 32
-3 41 -6 10 -4 15 -2 13 7 -2 8 11 15 35 19 20 4 37 3 37 -2 0 -4 -8 -8 -18
-8 -10 0 -18 -8 -20 -20 -4 -49 -5 -50 -36 -49 -24 1 -26 3 -8 6 27 5 28 14 3
30 -15 10 -21 10 -25 0 -5 -9 -7 -9 -12 1 -3 6 -10 12 -15 12 -6 0 -7 -4 -4
-10 3 -6 -1 -7 -9 -4 -9 3 -16 13 -16 21 0 10 -7 13 -22 8 -20 -5 -21 -4 -5 5
25 16 21 33 -5 25 -22 -6 -22 -6 -4 9 19 15 19 16 -9 16 -16 0 -39 -10 -52
-22 -13 -12 -25 -19 -28 -16 -6 6 5 19 45 51 12 10 19 21 16 24 -3 3 -12 1
-20 -6 -11 -9 -13 -7 -13 13 0 24 2 25 49 19 44 -5 50 -4 55 16 3 11 9 21 14
21 5 0 6 7 3 15 -10 24 12 17 23 -7 8 -19 10 -20 16 -5 3 9 2 17 -3 17 -20 0
-9 16 12 17 13 1 32 7 43 12 16 8 66 18 149 30 5 0 3 -6 -4 -14z m-1549 -113
c20 -52 31 -68 48 -70 20 -3 17 -6 -18 -24 -37 -18 -50 -35 -75 -98 -3 -8 -4
1 -2 21 2 19 -4 60 -15 90 -10 30 -18 66 -19 82 0 25 30 67 48 67 4 0 19 -31
33 -68z m2055 43 c-4 -10 1 -15 14 -15 22 0 27 -15 9 -26 -8 -4 -6 -10 6 -17
17 -9 20 -7 44 32 6 10 17 12 37 6 25 -6 27 -8 10 -14 -11 -4 -15 -10 -10 -14
6 -3 16 -2 24 4 24 15 53 11 46 -6 -3 -8 0 -15 7 -15 9 0 9 -2 0 -8 -20 -13 3
-35 36 -34 17 0 33 -3 36 -8 3 -5 -14 -7 -37 -5 -24 2 -43 4 -43 5 0 4 -45 10
-100 14 -33 3 -50 3 -37 0 12 -3 22 -10 22 -15 0 -11 -59 -6 -117 10 -38 10
-43 15 -43 40 0 16 7 31 15 35 25 9 18 28 -7 21 -16 -5 -20 -4 -13 3 6 6 28
12 50 15 22 2 44 4 49 5 4 1 6 -5 2 -13z"/>
<path d="M7200 1305 c10 -13 9 -15 -9 -15 -12 0 -20 -4 -16 -10 3 -5 13 -6 23
-3 15 6 15 5 3 -10 -12 -15 -11 -17 3 -17 9 0 16 5 16 10 0 6 7 10 15 10 9 0
12 -6 9 -15 -7 -18 13 -20 52 -5 22 9 25 8 16 -3 -10 -11 -4 -14 35 -15 31 0
42 3 32 9 -11 7 -8 9 9 9 13 0 21 -4 18 -9 -8 -12 29 -21 99 -22 33 0 80 -4
105 -9 30 -6 -1 -7 -95 -4 -219 8 -295 13 -305 19 -6 4 -10 -1 -10 -9 0 -8 8
-15 18 -15 9 0 71 -1 137 -2 99 -1 112 -3 75 -10 -81 -16 -110 -18 -115 -8
-10 14 -25 10 -19 -5 7 -19 48 -25 96 -14 33 7 43 6 53 -8 11 -15 19 -16 78
-4 47 8 67 17 67 27 0 12 13 13 78 7 42 -4 122 -8 177 -9 55 -2 102 -4 105 -5
8 -3 63 1 83 6 20 6 13 24 -9 24 -8 0 -12 -4 -9 -10 3 -5 -3 -10 -14 -10 -12
0 -21 5 -21 10 0 6 -8 10 -18 10 -10 0 -22 4 -28 9 -15 14 -71 23 -78 12 -4
-6 -16 -6 -36 1 -16 5 -35 8 -42 6 -7 -3 -20 5 -30 16 -10 12 -17 16 -18 9 0
-7 -7 -10 -15 -7 -8 4 -15 1 -15 -6 0 -7 8 -10 20 -7 11 3 20 1 20 -4 0 -23
-60 -4 -60 20 -1 14 -2 14 -11 -1 -12 -22 -31 -24 -23 -3 7 18 6 18 -44 1 -22
-8 -42 -12 -45 -10 -3 3 -24 5 -48 5 -53 1 -119 16 -119 29 0 9 71 1 80 -9 9
-11 92 -12 85 -1 -3 5 -24 10 -46 10 -22 0 -38 4 -35 9 3 5 -1 12 -10 15 -8 3
-13 2 -10 -2 3 -5 -40 -9 -94 -9 -55 0 -100 4 -100 9 0 4 -9 8 -19 8 -11 0
-23 5 -26 10 -3 6 -11 10 -17 10 -7 0 -6 -6 2 -15z"/>
<path d="M570 1253 c-25 -5 -80 -53 -60 -53 6 0 8 -4 5 -10 -3 -5 -17 -10 -31
-10 -40 0 -17 -20 24 -21 l37 -1 -45 -12 c-25 -7 -46 -9 -48 -5 -2 5 -17 5
-34 2 -22 -4 -29 -3 -24 5 8 13 -85 18 -98 5 -4 -4 -57 -8 -118 -9 -76 -1
-113 -6 -118 -14 -5 -7 -19 -11 -34 -8 -18 4 -26 1 -26 -8 0 -8 10 -14 23 -15
21 0 21 -1 2 -8 -19 -8 -19 -8 2 -19 12 -7 38 -12 57 -12 20 0 36 -4 36 -9 0
-5 6 -11 12 -14 7 -2 4 -3 -7 -1 -112 17 -125 17 -125 0 0 -11 9 -16 28 -17
23 0 24 -2 8 -8 -18 -7 -18 -8 -2 -14 10 -4 36 -7 59 -7 22 0 68 -6 101 -14
75 -18 155 -30 178 -27 10 1 26 -2 35 -8 14 -8 3 -10 -44 -11 -34 0 -65 -5
-68 -10 -3 -6 -29 -8 -58 -6 -40 3 -51 8 -49 20 2 11 -10 17 -43 21 -25 4 -45
10 -45 14 0 3 -23 7 -50 8 l-50 1 0 -63 c0 -68 5 -75 61 -75 18 0 28 4 24 10
-3 6 3 10 13 10 11 0 23 -7 26 -16 4 -10 0 -15 -12 -13 -9 1 -35 0 -57 -1 -36
-1 -37 -3 -14 -9 14 -5 36 -14 50 -21 13 -8 58 -15 101 -16 42 -1 90 -5 107
-9 18 -4 31 -3 31 3 0 5 -21 13 -47 18 l-48 8 45 7 c28 4 35 7 18 7 -15 1 -30
7 -33 12 -3 6 -17 10 -31 10 -30 0 -32 20 -1 21 15 1 17 3 6 6 -10 2 -19 13
-22 24 -5 17 -1 18 31 14 21 -3 63 -7 94 -8 32 -2 61 -6 64 -10 4 -4 36 -7 70
-7 65 0 118 -16 107 -33 -3 -5 -9 -3 -14 4 -6 10 -37 14 -112 15 -57 1 -119 5
-138 8 l-34 7 35 -16 c19 -9 53 -15 75 -14 71 4 145 -1 145 -9 0 -5 -35 -7
-77 -5 -50 3 -73 1 -63 -5 25 -15 73 -24 65 -12 -7 11 44 7 120 -10 22 -5 60
-9 85 -8 49 0 117 -21 130 -42 6 -9 22 -10 66 -4 33 5 69 8 82 7 15 -1 22 4
22 16 0 25 -19 39 -59 43 -19 2 -36 9 -39 16 -3 9 2 10 21 3 14 -5 34 -7 45
-4 11 2 34 -3 51 -11 35 -19 41 -31 11 -21 -11 4 -20 2 -20 -4 0 -6 7 -11 15
-11 8 0 15 -4 15 -10 0 -5 7 -10 16 -10 8 0 12 5 9 10 -4 6 6 10 22 11 27 0
27 1 6 11 -27 13 -30 27 -5 30 9 0 -5 5 -33 9 -34 5 -14 6 60 3 100 -3 107 -2
80 10 -36 17 -15 20 38 5 22 -6 46 -7 55 -3 20 8 27 11 45 13 6 1 2 6 -11 11
-25 10 -55 3 -46 -11 3 -6 -6 -7 -23 -3 -37 9 -53 24 -26 24 12 0 24 4 27 9 6
10 -82 7 -91 -3 -13 -13 -25 -5 -20 14 3 11 -1 23 -9 28 -16 9 -215 -6 -226
-17 -4 -3 41 -7 100 -8 136 -2 130 -1 108 -18 -17 -13 -18 -15 -3 -15 9 0 17
-4 17 -9 0 -6 -12 -6 -31 -1 -17 5 -44 7 -60 3 -17 -3 -35 0 -45 8 -10 8 -18
9 -22 3 -10 -15 -42 -25 -42 -13 0 9 -28 7 -65 -6 l-20 -8 20 16 c18 15 18 16
3 17 -10 0 -18 5 -18 11 0 5 6 7 13 3 6 -4 8 -3 4 1 -8 9 -82 8 -131 -1 -23
-5 -28 -3 -23 9 4 11 -6 18 -40 26 -25 7 -43 14 -40 18 8 7 111 -18 118 -30 4
-5 20 -6 40 -1 l34 8 -30 7 c-28 6 -28 7 -5 8 14 1 35 4 48 7 17 5 22 2 22
-12 1 -18 1 -18 11 -1 9 16 19 17 65 11 65 -8 124 2 124 20 0 8 -10 17 -22 21
l-23 7 25 8 c18 5 29 3 40 -9 19 -21 85 -51 110 -51 22 0 27 -16 8 -23 -10 -4
-10 -6 0 -6 7 -1 22 3 32 9 13 7 33 3 74 -15 65 -29 66 -29 66 -13 0 6 -3 8
-6 5 -9 -9 -44 11 -44 24 0 6 7 8 16 5 8 -3 12 -2 9 4 -3 6 -24 10 -45 10 -29
0 -42 5 -50 19 -14 28 -13 31 13 32 14 0 17 3 7 6 -22 9 -40 30 -32 38 4 4
-20 4 -53 1 -36 -4 -52 -3 -40 2 18 8 17 9 -7 14 -30 6 -42 -10 -31 -39 6 -15
4 -16 -9 -5 -24 20 -107 13 -119 -10 -5 -10 -14 -18 -20 -18 -6 0 -8 4 -5 8 2
4 1 14 -3 21 -7 10 -13 10 -29 2 -17 -9 -23 -8 -30 5 -8 14 -12 14 -30 3 -18
-11 -24 -11 -40 4 -24 22 -32 21 -32 -3 0 -13 -7 -20 -20 -20 -11 0 -20 4 -20
9 0 5 -14 11 -31 15 -17 3 -28 10 -24 16 4 7 13 6 27 -1 14 -7 27 -8 42 -1 58
27 74 30 84 20 17 -17 59 -18 73 -2 9 11 7 14 -12 16 -33 2 -41 3 -65 11 -12
4 -33 3 -47 -2 -19 -7 -33 -6 -52 3 -24 13 -23 13 30 19 31 3 68 2 83 -3 45
-14 124 -21 117 -10 -3 6 0 10 7 10 9 0 9 3 -2 10 -12 8 -10 10 10 10 33 0 70
-10 70 -19 0 -4 -15 -5 -32 -3 -18 3 -29 1 -25 -4 4 -5 47 -9 95 -9 78 -1 83
0 57 11 -17 7 -37 13 -46 14 -9 0 -19 3 -23 8 -9 9 -28 10 -178 12 -65 1 -118
6 -118 11 0 5 -15 9 -32 10 -18 0 -55 6 -83 13 l-50 12 40 7 c22 4 55 3 73 -2
19 -6 32 -6 32 0 0 5 7 9 16 9 9 0 14 -6 12 -12 -9 -25 38 -36 121 -31 78 6
95 13 69 29 -9 6 -5 11 12 16 20 6 18 7 -12 5 -20 -2 -34 1 -32 5 3 4 -8 8
-25 8 -16 0 -38 3 -48 6 -15 5 -15 4 -3 -5 20 -14 -151 -7 -178 8 -15 8 -21 7
-25 -2 -6 -16 -79 -16 -84 1 -3 6 2 12 11 12 8 0 18 5 21 10 3 6 5 9 3 9 -2
-1 -14 -4 -28 -6z"/>
<path d="M510 799 c0 -5 -8 -9 -17 -8 -31 3 -39 -1 -23 -11 10 -7 -6 -10 -56
-10 -39 0 -74 -3 -77 -7 -9 -9 22 -43 40 -43 7 0 13 -4 13 -10 0 -5 -4 -10 -9
-10 -4 0 -8 -10 -7 -22 1 -17 8 -23 24 -24 12 -1 26 -4 30 -8 4 -4 -13 -6 -38
-4 -40 3 -45 6 -48 29 -2 17 -11 29 -25 34 -21 6 -21 6 -2 14 18 7 16 9 -12
15 -18 4 -31 13 -30 19 1 8 -24 13 -82 14 -52 1 -87 6 -91 13 -4 7 -28 15 -54
17 l-46 6 0 -192 c0 -146 3 -191 13 -191 8 0 7 -4 -3 -11 -12 -8 -10 -9 9 -7
30 4 39 25 14 31 -10 3 -3 5 15 6 17 0 32 -3 32 -9 0 -5 -4 -10 -9 -10 -5 0
-11 -9 -14 -20 -3 -11 -13 -20 -22 -20 -15 0 -15 -1 -1 -16 9 -8 21 -12 27 -8
13 8 60 -16 53 -27 -3 -5 5 -13 18 -18 69 -27 75 -30 38 -24 -19 4 -57 17 -85
30 -27 12 -58 23 -67 23 -20 0 -24 -26 -5 -33 9 -4 9 -7 -1 -15 -9 -6 -2 -14
28 -27 22 -10 40 -21 40 -25 0 -4 12 -5 26 -2 17 3 31 -2 46 -18 15 -16 29
-21 54 -18 19 2 34 0 34 -5 0 -4 4 -6 9 -3 5 3 37 -4 72 -15 35 -12 78 -25 94
-30 17 -4 46 -12 65 -18 l35 -11 -25 20 -25 20 35 -5 c19 -3 29 -3 22 1 -6 3
-10 10 -6 15 3 5 -5 10 -18 10 -17 1 -18 3 -5 6 23 6 22 23 -3 23 -11 0 -20
-7 -20 -15 0 -16 -41 -30 -62 -22 -7 3 1 6 17 7 29 1 29 2 -15 21 -34 16 -41
22 -30 29 12 8 10 10 -8 10 -14 0 -21 4 -17 11 5 7 15 5 32 -6 18 -12 47 -16
111 -16 138 1 152 0 152 -10 0 -5 -15 -9 -34 -9 -18 0 -39 -7 -46 -15 -10 -12
-9 -15 4 -15 10 0 26 5 36 10 11 6 44 12 75 14 55 4 55 4 50 -23 -3 -14 -2
-20 1 -13 6 14 40 16 48 3 3 -4 18 -6 33 -3 16 2 25 1 21 -3 -9 -10 25 -54 60
-77 26 -17 26 -18 5 -18 -12 0 -24 4 -27 9 -4 5 -26 19 -51 31 -34 16 -48 19
-64 11 -13 -7 -22 -8 -26 -1 -4 7 -12 7 -25 0 -10 -5 -29 -10 -42 -11 -27 -1
-17 -5 35 -14 21 -3 35 -10 32 -16 -4 -5 0 -9 7 -9 7 0 24 -3 37 -7 18 -5 22
-3 16 7 -6 10 0 11 30 6 21 -4 46 -13 56 -19 15 -9 23 -9 38 0 15 9 23 8 40
-3 16 -12 21 -12 19 -2 -2 7 8 14 22 16 20 2 22 1 10 -8 -11 -7 1 -8 43 -4 41
5 57 3 57 -5 0 -8 -8 -10 -20 -6 -11 4 -20 2 -20 -4 0 -6 -15 -11 -32 -11 -42
0 -78 -10 -78 -21 0 -5 30 -6 68 -2 37 3 78 5 92 4 64 -5 413 -9 398 -4 -21 5
-24 23 -5 23 6 0 28 -5 47 -11 19 -6 75 -13 125 -16 l90 -5 -27 21 c-14 12
-39 22 -55 23 -15 1 -32 5 -38 8 -18 13 -108 40 -131 40 -13 0 -26 4 -29 10
-4 6 7 7 27 4 53 -9 148 -38 148 -44 0 -4 14 -5 30 -2 17 2 30 8 30 13 0 5
-11 7 -25 3 -19 -5 -25 -2 -25 10 0 9 -12 18 -27 22 -16 4 -36 11 -47 16 -15
8 -16 12 -5 19 9 6 -1 9 -31 9 -33 0 -41 -3 -30 -10 12 -8 9 -10 -12 -10 -14
0 -28 5 -30 10 -2 6 -21 13 -42 15 -22 3 -48 13 -58 21 -10 9 -26 14 -38 11
-28 -7 -25 2 5 13 28 11 85 3 85 -12 0 -5 -5 -6 -12 -2 -7 4 -8 3 -4 -5 4 -6
11 -9 16 -6 4 2 22 0 40 -6 24 -9 34 -9 43 1 9 10 8 12 -5 7 -10 -3 -20 -2
-23 3 -4 6 5 10 19 10 14 0 28 -5 31 -10 3 -5 16 -10 28 -10 18 0 19 2 7 10
-12 8 -13 12 -2 19 11 6 10 10 -3 15 -26 9 -57 7 -50 -4 8 -13 -4 -12 -110 9
-54 11 -82 20 -70 23 11 3 1 7 -25 8 -45 2 -45 2 -13 11 32 9 140 -11 152 -29
7 -10 51 -10 67 0 14 9 79 -9 98 -27 22 -22 29 7 9 35 -16 22 -15 23 5 18 12
-4 24 -2 27 2 3 5 -7 11 -22 14 -50 10 -235 25 -248 20 -10 -4 -12 1 -8 15 4
16 11 20 32 16 21 -5 22 -4 6 3 -11 5 -44 10 -74 11 -29 1 -58 4 -64 8 -6 4
-8 0 -5 -8 4 -11 -4 -14 -38 -14 -51 0 -64 17 -26 35 27 12 26 12 -28 27 -30
8 -63 12 -72 9 -10 -2 -18 0 -18 5 0 5 19 9 43 10 116 3 215 2 242 -3 17 -3
22 -3 13 -1 -10 2 -18 8 -18 13 0 5 -22 16 -50 25 -27 9 -52 20 -55 25 -3 4
-14 6 -24 3 -10 -3 -22 0 -25 6 -4 6 -16 11 -27 11 -10 0 -19 5 -19 11 0 7 11
9 33 5 17 -4 48 -10 68 -12 l36 -6 -1 44 c-1 48 -16 70 -49 72 -12 1 -21 7
-20 12 1 6 -3 11 -10 12 -63 7 -113 16 -117 22 -10 13 -73 40 -81 34 -5 -3 -8
0 -7 8 2 9 -7 12 -32 10 -26 -2 -31 0 -20 7 12 9 11 11 -6 11 -31 0 -98 -30
-88 -39 17 -16 99 -58 114 -58 22 -1 107 -39 114 -52 9 -15 0 -14 -32 3 -36
18 -94 36 -118 36 -11 0 -29 9 -41 19 -29 27 -84 54 -113 56 -97 5 -93 4 -79
21 12 15 11 16 -11 9 -14 -4 -31 -10 -37 -12 -7 -3 -13 0 -13 7 0 12 -21 11
-122 -6 -31 -5 -45 11 -28 31 7 8 9 15 4 15 -5 0 -2 5 6 10 12 8 12 10 -5 10
-19 1 -19 2 -3 14 18 14 14 26 -9 26 -7 0 -13 -5 -13 -11z m-56 -84 c8 -8 35
-18 60 -21 25 -4 46 -10 46 -14 0 -5 -10 -6 -22 -3 -19 4 -20 3 -8 -6 8 -6 25
-11 38 -11 13 0 21 -4 17 -10 -4 -6 -15 -6 -30 0 -14 5 -25 7 -25 4 0 -4 -7 0
-17 7 -14 12 -16 12 -11 -1 2 -8 18 -18 34 -21 16 -4 25 -7 20 -8 -5 0 -3 -8
4 -16 8 -9 9 -15 2 -15 -6 0 -14 5 -17 10 -3 6 -16 10 -28 9 -14 0 5 -13 51
-36 39 -20 72 -42 72 -49 0 -6 15 -14 34 -16 19 -2 32 0 30 4 -3 4 21 7 53 6
57 -2 57 -2 11 -5 -27 -2 -48 -9 -48 -15 0 -6 -13 -8 -37 -3 -21 4 -72 11
-113 15 l-75 7 58 2 c31 0 57 5 57 10 0 10 -27 17 -112 26 -32 4 -61 11 -64
17 -4 7 5 8 27 3 31 -7 33 -6 19 10 -8 9 -23 21 -35 25 -17 7 -17 9 -2 9 9 1
17 5 17 9 0 12 -50 33 -61 27 -5 -4 -9 3 -9 14 0 14 6 21 20 21 25 0 26 17 3
23 -14 4 -13 5 4 6 12 0 28 -6 37 -14z m581 -422 c28 -3 55 -13 61 -22 8 -10
32 -16 70 -18 33 -2 64 -4 71 -5 6 -1 17 -11 23 -24 7 -12 22 -25 34 -29 34
-12 -117 -32 -193 -26 -8 1 -11 7 -7 17 5 13 1 15 -17 10 -14 -3 -52 6 -96 23
-62 24 -69 29 -47 33 14 3 26 2 26 -2 0 -17 109 -43 138 -33 20 8 13 25 -8 18
-11 -3 -28 -2 -37 4 -17 10 -17 10 2 12 11 1 23 1 28 0 4 0 7 3 7 9 0 5 -17
12 -37 15 -21 3 -69 13 -108 20 -68 14 -68 15 -15 10 30 -3 78 -8 105 -12z"/>
<path d="M1190 731 c0 -5 -23 -12 -50 -16 -64 -9 -54 -27 14 -24 46 2 103 -14
116 -33 13 -17 100 -56 105 -48 4 6 19 10 36 10 34 0 39 17 7 29 -18 6 -19 9
-5 14 25 9 21 22 -10 37 -34 16 -114 30 -107 18 3 -4 17 -8 32 -8 15 0 34 -5
42 -10 24 -15 -57 -12 -110 4 -25 8 -38 15 -30 15 13 1 13 2 0 11 -19 12 -40
13 -40 1z"/>
<path d="M3143 519 c-9 -9 -6 -17 13 -32 32 -25 239 -131 288 -147 20 -6 36
-16 36 -21 0 -5 10 -9 23 -9 38 0 67 -12 67 -26 0 -8 6 -15 13 -15 6 -1 19 -3
27 -4 8 0 28 -7 44 -13 30 -13 39 -11 42 13 1 10 -6 15 -22 15 -13 0 -24 5
-24 10 0 6 -5 10 -12 10 -27 0 -106 43 -101 56 7 18 -40 39 -122 55 -38 7 -77
20 -85 27 -12 13 -11 14 8 8 13 -5 22 -3 22 3 0 6 -8 11 -19 11 -10 0 -24 7
-31 15 -7 8 -17 15 -22 15 -5 0 -2 -7 6 -16 25 -24 19 -25 -19 -4 -20 11 -42
20 -50 20 -8 0 -15 4 -15 10 0 5 -7 7 -15 4 -8 -4 -23 -3 -32 1 -17 7 -16 8 2
15 14 6 15 9 5 9 -9 1 -21 -4 -27 -10z"/>
<path d="M4328 475 c-27 -15 -101 -28 -147 -26 -13 1 -31 -5 -39 -11 -8 -7
-25 -13 -36 -13 -12 -1 -27 -4 -35 -9 -11 -7 -11 -10 0 -17 7 -4 10 -11 6 -15
-4 -4 -15 0 -25 9 -21 19 -38 22 -47 7 -10 -17 57 -41 74 -27 12 10 13 9 8 -7
-7 -16 -5 -17 9 -6 13 12 17 11 25 -1 7 -10 8 -7 4 12 -6 23 -3 25 30 26 21 1
42 6 47 11 6 6 25 8 44 5 26 -4 35 -2 40 11 5 13 14 15 38 10 17 -3 34 -12 38
-18 4 -6 8 8 8 32 0 46 -3 48 -42 27z"/>
<path d="M3094 388 c-7 -11 40 -14 58 -4 12 7 21 7 30 -2 9 -9 8 -12 -7 -12
-28 0 -5 -20 31 -26 16 -3 37 -12 46 -21 10 -8 24 -13 33 -10 9 4 31 -10 61
-41 43 -43 46 -43 28 3 -3 8 -1 15 5 15 6 0 10 -5 9 -12 -4 -17 72 -31 101
-18 37 17 24 23 -66 32 -7 1 -13 5 -13 10 0 4 -7 8 -16 8 -9 0 -53 20 -98 45
-74 40 -89 45 -140 42 -32 -1 -60 -5 -62 -9z"/>
<path d="M1933 303 c9 -2 15 -9 12 -14 -4 -5 5 -9 19 -9 14 0 26 -5 26 -11 0
-6 -7 -8 -16 -5 -11 4 -14 1 -10 -12 2 -9 7 -32 11 -50 5 -23 12 -32 23 -30
14 2 17 -6 17 -42 0 -33 6 -50 24 -69 14 -13 27 -19 28 -14 2 6 14 8 26 5 l22
-6 -22 -5 c-17 -5 -20 -10 -13 -21 7 -11 33 -16 112 -18 114 -2 114 -1 10 53
-49 25 -51 29 -34 41 11 7 18 22 16 36 -1 13 -3 27 -3 32 -1 4 -18 5 -38 1
l-38 -7 20 22 c26 30 56 40 80 28 20 -9 20 -9 1 6 -21 17 -61 21 -69 9 -2 -5
-2 -2 -1 5 2 6 -1 12 -5 12 -5 0 -17 3 -25 6 -12 5 -15 2 -10 -10 6 -16 -7
-22 -20 -8 -4 4 -22 13 -39 20 -18 7 -22 10 -10 8 33 -6 36 8 5 20 -47 18 -98
34 -108 33 -5 -1 -1 -3 9 -6z"/>
<path d="M2934 303 c4 -4 -8 -13 -26 -19 l-33 -12 39 -1 40 -1 -22 -20 c-24
-22 -39 -25 -44 -9 -2 7 -17 8 -43 3 l-40 -8 70 -12 c39 -7 98 -13 132 -12 40
1 70 -5 85 -14 24 -16 75 -7 64 11 -8 12 -77 36 -95 32 -9 -2 -12 3 -8 13 4
10 1 16 -8 16 -8 0 -29 9 -47 20 -31 19 -80 29 -64 13z"/>
<path d="M3510 230 c17 -10 -17 -33 -37 -26 -11 5 -24 -2 -40 -20 -27 -32 -27
-33 -8 -58 8 -11 15 -28 15 -39 0 -10 3 -16 8 -13 4 2 16 -2 27 -10 17 -13 17
-14 1 -14 -11 0 -16 -6 -14 -17 4 -22 67 -39 90 -24 22 14 41 14 33 1 -4 -6
32 -10 102 -10 73 0 103 3 93 10 -12 8 -9 10 13 10 15 0 27 -4 27 -10 0 -5 7
-10 15 -10 8 0 15 4 15 8 0 5 16 8 35 8 19 -1 35 -4 35 -8 0 -13 58 -9 63 5 4
9 8 8 16 -3 5 -8 13 -11 17 -7 4 4 2 13 -4 19 -10 10 -17 10 -33 -1 -14 -8
-25 -9 -31 -3 -13 13 9 26 47 29 85 7 89 9 54 32 -19 11 -21 11 -16 -3 9 -23
-7 -20 -53 9 -22 14 -45 25 -52 25 -9 0 -8 3 2 10 12 8 11 10 -5 8 -29 -3
-105 13 -105 22 0 4 -15 10 -34 12 -19 2 -32 0 -30 -4 3 -4 13 -8 23 -8 10 0
30 -9 45 -21 16 -13 33 -18 45 -14 12 3 31 -1 45 -11 27 -17 26 -34 0 -34 -8
0 -12 5 -9 10 3 5 3 11 -2 11 -4 1 -21 3 -36 5 -16 1 -35 8 -42 14 -8 7 -15 7
-19 1 -4 -5 3 -12 14 -16 11 -3 20 -11 20 -16 0 -5 -14 -2 -30 6 -17 9 -37 14
-45 13 -7 -2 -14 2 -15 7 -2 16 -33 30 -38 17 -2 -7 -17 -12 -34 -12 -24 0
-28 3 -20 13 8 10 6 16 -11 26 -15 10 -22 10 -25 2 -2 -6 -11 -11 -19 -11 -9
0 -13 6 -10 15 5 11 1 12 -19 5 -19 -8 -26 -6 -30 5 -4 8 -15 15 -25 15 -30 0
-22 17 12 24 19 3 42 0 61 -10 37 -19 44 -14 19 17 -14 18 -29 24 -65 24 -26
1 -42 -2 -36 -5z"/>
<path d="M50 181 c8 -6 11 -13 7 -17 -4 -4 -13 -2 -19 4 -25 25 -38 13 -38
-33 l0 -45 74 0 c40 0 102 -3 137 -6 73 -8 75 3 2 16 -38 6 -41 8 -16 9 18 0
52 -5 75 -13 59 -20 223 -32 213 -16 -4 7 -19 10 -34 7 -14 -2 -37 -1 -51 3
-23 7 -22 8 10 11 19 1 49 2 65 1 30 -1 29 -1 -5 9 -19 6 -78 24 -130 39 -52
16 -120 32 -150 34 l-55 5 60 -12 60 -13 -37 -6 c-20 -4 -55 -1 -80 6 -72 22
-105 28 -88 17z"/>
<path d="M3045 160 c-3 -5 -21 -10 -38 -11 l-32 -1 28 -8 c16 -5 35 -6 43 -3
8 3 14 0 14 -7 0 -9 -14 -11 -47 -6 -27 3 -42 3 -35 0 6 -3 12 -12 12 -20 0
-8 6 -15 13 -15 6 -1 21 -3 32 -4 73 -7 71 -6 52 -14 -18 -6 -18 -8 -2 -21 9
-8 38 -15 64 -16 64 -3 69 -4 46 -14 -13 -6 -15 -9 -5 -9 8 0 21 3 29 8 9 6
29 4 52 -4 37 -13 38 -13 26 6 -6 10 -19 19 -27 19 -8 1 -1 7 15 15 l30 13
-35 2 -35 2 30 7 30 6 -41 13 c-23 6 -53 12 -68 12 -14 0 -26 5 -26 10 0 6 -9
10 -19 10 -11 0 -21 6 -24 13 -4 10 -7 10 -18 0 -16 -16 -33 -17 -23 -2 3 6 0
15 -7 20 -18 11 -26 11 -34 -1z"/>
<path d="M2744 95 c-4 -9 -14 -13 -23 -11 -9 3 -38 2 -66 -3 -30 -5 -39 -9
-22 -10 15 0 27 -6 27 -12 0 -6 6 -9 13 -6 6 2 27 -2 46 -9 18 -8 47 -14 63
-14 16 0 36 -7 44 -14 11 -12 43 -15 137 -15 67 0 128 3 135 8 8 5 -5 8 -33 7
-34 -1 -50 4 -59 17 -14 19 -41 23 -51 7 -3 -5 -14 -10 -23 -10 -15 1 -15 2 2
15 11 8 28 15 38 15 10 0 18 5 18 10 0 13 -27 13 -35 0 -8 -13 -35 -13 -35 1
0 5 5 7 10 4 6 -3 10 -1 10 5 0 6 -10 8 -26 4 -14 -4 -29 -2 -33 3 -11 19 -69
3 -76 -21 -6 -19 -7 -19 -21 12 -15 34 -31 41 -40 17z"/>
<path d="M0 42 l0 -40 241 -1 c214 -1 240 1 229 14 -10 13 -9 15 11 15 19 1
21 2 9 10 -23 13 -150 21 -150 10 0 -6 8 -10 18 -10 10 0 27 -6 37 -14 17 -12
5 -14 -98 -15 -104 -1 -116 0 -110 15 5 14 3 14 -14 3 -17 -10 -30 -10 -67 1
-48 13 -79 38 -35 27 13 -3 40 -8 59 -11 l35 -6 -34 16 c-19 8 -56 18 -83 21
l-48 6 0 -41z"/>
</g>
</svg>
