<?xml version="1.0" standalone="no"?>
<!DOCTYPE svg PUBLIC "-//W3C//DTD SVG 20010904//EN"
 "http://www.w3.org/TR/2001/REC-SVG-20010904/DTD/svg10.dtd">
<svg version="1.0" xmlns="http://www.w3.org/2000/svg"
 width="1182.000000pt" height="664.000000pt" viewBox="0 0 1182.000000 664.000000"
 preserveAspectRatio="xMidYMid meet">
<metadata>
Created by potrace 1.13, written by Peter Selinger 2001-2015
</metadata>
<g transform="translate(0.000000,664.000000) scale(0.100000,-0.100000)"
fill="#000000" stroke="none">
<path d="M0 4725 c0 -1900 0 -1915 20 -1903 14 9 16 14 7 20 -7 4 2 8 22 8 19
0 32 -3 28 -6 -3 -4 1 -13 9 -21 11 -12 21 -13 44 -4 21 7 29 7 27 -1 -1 -6 4
-13 12 -16 8 -3 11 0 7 7 -9 14 43 14 99 0 22 -5 65 -12 95 -15 30 -3 57 -7
62 -10 8 -5 202 -17 233 -15 11 1 49 2 85 2 78 -1 55 14 -36 23 -157 16 -214
18 -214 7 0 -6 -7 -11 -15 -11 -18 0 -20 20 -2 21 6 0 3 4 -8 9 -16 7 -13 9
16 9 45 1 65 31 22 31 -17 0 -23 4 -17 9 12 12 192 -12 224 -29 l25 -14 -30
-7 c-27 -6 -25 -7 14 -8 24 0 41 2 38 6 -4 3 -2 12 5 20 14 17 6 25 -29 27
-15 1 -38 7 -50 14 -14 8 -24 9 -28 2 -3 -5 -11 -10 -16 -10 -6 0 -8 3 -6 8 3
4 -33 7 -79 7 -53 0 -84 4 -84 10 0 7 16 10 38 8 25 -3 32 -1 22 5 -8 5 -67
15 -130 22 -63 6 -131 15 -150 20 l-35 8 45 2 45 2 -40 13 c-22 8 -32 14 -23
14 10 1 38 -6 64 -15 25 -8 52 -13 60 -10 8 3 40 -1 71 -9 71 -19 78 -19 63
-1 -10 13 -7 13 21 3 20 -7 36 -23 43 -39 6 -16 14 -28 19 -28 4 0 5 5 2 10
-4 6 13 11 42 11 26 1 38 4 26 6 -13 2 -23 9 -23 14 0 10 117 6 127 -5 4 -4
-10 -5 -30 -2 -40 5 -42 4 -27 -25 8 -14 21 -19 48 -18 l37 1 -35 11 -35 10
46 8 c26 4 62 3 80 -1 21 -5 26 -9 14 -10 l-20 -1 20 -9 c11 -5 43 -8 70 -8
41 0 45 2 25 9 -15 5 10 6 65 2 50 -3 103 -12 119 -20 15 -8 25 -10 22 -4 -9
14 5 14 84 -3 65 -14 87 -13 61 3 -9 6 1 9 25 8 77 -1 82 1 77 27 -5 23 -2 24
64 31 37 4 78 13 90 21 12 8 29 11 37 8 8 -3 21 -2 28 2 9 6 5 10 -12 14 -14
3 -20 9 -14 12 6 4 21 1 35 -6 13 -6 43 -13 67 -14 l42 -3 1 38 c3 69 6 87 19
91 22 8 90 84 90 101 0 12 2 13 9 3 6 -11 10 -11 18 0 19 24 31 74 22 91 -7
11 -4 19 10 29 18 13 25 29 22 56 0 7 -15 12 -32 12 l-31 0 7 48 c8 59 21 73
30 33 7 -33 25 -43 25 -13 0 9 16 32 35 49 33 31 35 36 35 97 0 50 4 65 16 70
15 6 15 8 -1 26 -9 10 -31 22 -49 26 -17 3 -37 11 -43 16 -15 12 -17 78 -3 78
6 0 10 8 11 18 0 11 4 7 11 -11 6 -17 19 -29 36 -33 15 -3 39 -10 53 -15 18
-7 33 -6 55 6 16 8 43 15 59 16 25 0 27 2 10 8 -11 5 -27 6 -35 3 -13 -5 -13
-4 0 10 8 9 25 15 38 13 28 -3 29 13 0 17 -12 2 -24 9 -26 17 -3 10 0 12 12 8
10 -4 15 -3 11 3 -3 6 2 10 12 10 17 1 17 1 -1 15 -25 19 -14 45 15 38 20 -6
21 -4 14 23 -4 16 -8 35 -8 42 0 15 -14 16 -19 1 -6 -19 -43 -1 -61 31 -18 30
-12 41 11 18 25 -25 12 31 -13 58 -28 30 -30 40 -14 49 7 5 2 16 -12 31 -20
22 -21 26 -9 50 12 21 12 27 1 34 -15 9 -6 30 12 30 23 0 36 35 23 61 -10 20
-9 29 4 51 16 29 33 39 24 13 -4 -8 -1 -15 5 -15 6 0 16 12 21 26 14 35 13 36
-10 29 -11 -4 -20 -2 -20 4 0 6 7 11 15 11 14 0 20 17 16 48 -1 7 10 12 26 12
45 0 72 11 78 31 4 10 13 19 21 19 8 0 14 10 14 25 0 18 5 25 19 25 11 0 22 8
24 18 3 11 5 9 6 -8 l1 -24 18 24 c9 13 24 45 32 70 l15 45 63 3 c34 2 62 6
62 10 0 4 33 7 73 7 61 0 77 -4 107 -25 19 -14 39 -31 45 -38 16 -20 105 -19
148 1 20 10 37 22 37 26 0 5 68 10 152 13 109 2 153 7 156 16 2 7 22 12 48 12
34 0 44 -4 44 -16 0 -14 8 -16 63 -9 34 4 106 6 160 6 64 -1 97 2 97 9 0 8 29
9 93 5 73 -5 107 -2 167 14 70 18 77 18 105 3 16 -9 32 -17 35 -17 53 -9 80
-18 80 -25 0 -4 41 -14 90 -21 50 -6 90 -15 90 -19 0 -6 12 -11 47 -20 2 0 24
-10 50 -22 31 -14 81 -25 138 -29 114 -10 165 -19 165 -30 0 -5 12 -9 28 -9
16 0 32 -8 40 -20 11 -18 10 -20 -8 -20 -11 0 -20 -4 -20 -10 0 -5 -10 -10
-22 -10 -21 0 -88 -44 -88 -59 0 -4 21 -5 48 -1 26 4 79 6 117 5 46 -1 78 3
92 13 13 8 28 10 35 6 7 -5 38 -11 68 -15 30 -3 64 -9 75 -13 16 -6 17 -6 5 3
-13 9 -12 11 5 11 11 0 29 3 41 6 16 4 25 -4 48 -50 16 -31 32 -56 37 -56 5 0
9 -6 9 -14 0 -15 -20 -26 -53 -27 -15 0 -8 -5 18 -14 l40 -13 -45 6 c-63 10
-356 9 -410 -1 -178 -32 -264 -59 -266 -82 -2 -29 -18 -65 -28 -65 -8 0 -8 -2
0 -8 6 -4 14 -17 18 -29 4 -13 10 -22 14 -21 4 1 22 -6 40 -15 32 -17 32 -17
41 5 17 45 91 63 91 23 0 -8 5 -15 11 -15 5 0 7 -5 3 -12 -4 -6 -3 -8 3 -5 6
4 19 -5 29 -19 30 -41 44 -54 61 -54 12 0 14 -13 10 -80 -3 -44 -2 -80 2 -80
5 0 20 11 35 25 58 54 77 50 105 -20 12 -30 56 -59 74 -48 5 3 12 0 16 -6 4
-6 21 -13 38 -14 22 -1 29 -6 25 -17 -3 -8 -2 -12 3 -8 4 4 13 3 20 -2 7 -6
20 -4 36 8 13 9 28 18 34 19 5 1 20 5 33 9 34 10 29 -32 -10 -85 -25 -35 -28
-45 -17 -52 23 -15 34 -10 13 6 -14 11 -15 14 -4 15 8 0 46 16 83 35 38 19 77
35 89 35 16 0 18 3 9 14 -9 10 -8 16 4 26 8 7 15 27 15 44 -1 29 -1 30 -15 12
-19 -25 -20 -12 -1 17 8 12 17 54 21 92 4 39 12 76 17 83 14 16 4 155 -11 160
-16 5 -13 22 4 22 8 0 15 -6 15 -14 0 -9 7 -12 20 -9 14 4 20 0 20 -11 0 -9 7
-16 15 -16 8 0 15 -7 15 -15 0 -8 9 -15 20 -15 11 0 20 -4 20 -10 0 -5 18 -10
39 -10 51 0 71 -8 71 -29 1 -22 24 -51 42 -51 21 0 42 -44 34 -74 -4 -15 -2
-26 4 -26 5 0 10 -7 10 -15 0 -7 6 -18 13 -22 8 -4 18 -28 23 -53 9 -43 11
-45 42 -42 23 2 32 -1 32 -12 0 -8 9 -18 20 -21 22 -7 27 -31 8 -38 -10 -3
-10 -7 1 -20 17 -21 20 -21 -63 3 -38 11 -110 22 -160 26 -50 3 -95 11 -101
18 -5 6 -22 17 -37 25 -37 19 -117 -2 -115 -30 1 -10 2 -19 3 -19 0 0 14 6 30
14 32 16 47 19 81 17 16 -1 20 -6 16 -21 -6 -23 -26 -40 -21 -18 3 14 -2 18
-24 18 -6 0 -8 -3 -5 -6 8 -8 -102 -93 -120 -94 -6 0 -13 -5 -15 -12 -2 -6
-18 -11 -35 -11 -24 0 -30 -4 -25 -15 4 -12 1 -14 -13 -9 -15 6 -16 5 -5 -8
15 -18 7 -19 -22 -4 -16 9 -19 8 -12 -3 12 -19 14 -38 3 -38 -6 0 -7 -4 -4
-10 9 -15 25 -12 25 5 0 8 7 15 16 15 14 0 15 -3 3 -17 -23 -31 -43 -49 -63
-56 -10 -4 -16 -10 -13 -14 4 -3 1 -13 -6 -21 -10 -13 -9 -15 7 -9 14 6 17 4
12 -8 -3 -8 0 -15 7 -15 10 0 12 -17 9 -64 -4 -60 -3 -65 22 -81 14 -10 23
-22 19 -28 -13 -21 -6 -73 17 -116 22 -44 22 -46 5 -78 -17 -31 -17 -34 -1
-52 13 -15 14 -20 4 -24 -12 -4 138 -167 155 -167 16 0 2 45 -34 112 -13 25
-15 23 52 70 99 70 123 88 149 112 35 31 107 63 160 70 28 4 40 3 31 -3 -8 -5
-15 -23 -16 -40 -2 -27 0 -31 16 -26 11 4 19 4 19 2 0 -3 -40 -17 -90 -33 -49
-15 -90 -31 -90 -37 0 -5 10 -6 23 -3 77 22 137 33 137 25 0 -5 -9 -9 -19 -9
-11 0 -23 -4 -26 -10 -3 -5 2 -10 11 -10 14 0 15 -3 6 -12 -17 -17 -15 -26 6
-31 15 -3 15 -5 -3 -12 -11 -4 -39 -16 -62 -26 -24 -10 -54 -19 -68 -19 -14 0
-25 -6 -25 -13 0 -7 -13 -18 -30 -24 -36 -14 -39 -33 -5 -33 14 0 25 5 25 10
0 13 43 31 85 36 17 2 41 6 55 10 19 5 22 4 14 -5 -6 -7 -22 -13 -35 -15 -34
-4 -112 -40 -128 -59 -15 -19 -9 -22 17 -7 19 11 164 41 170 35 2 -1 -21 -12
-50 -23 -29 -11 -51 -24 -48 -28 6 -10 19 -10 75 -1 l40 6 -35 -22 c-19 -12
-37 -25 -38 -29 -2 -5 -8 -6 -13 -2 -5 3 -9 0 -9 -5 0 -6 13 -11 29 -11 23 0
28 -4 24 -18 -4 -15 3 -18 51 -19 41 -1 63 -7 83 -23 25 -20 36 -21 108 -16
l80 5 -48 -17 c-26 -10 -51 -22 -55 -28 -4 -6 -14 -14 -22 -17 -8 -3 14 -4 50
0 36 3 62 3 59 -1 -12 -13 -192 -47 -201 -38 -6 6 5 12 26 16 43 8 48 26 7 26
-18 0 -41 -10 -59 -27 -16 -16 -41 -38 -56 -50 -28 -23 -28 -23 -4 -23 21 -1
21 -2 5 -11 -10 -6 -25 -8 -33 -5 -16 6 -44 -2 -44 -14 0 -5 8 -11 18 -13 13
-4 12 -5 -5 -6 -14 -1 -28 -12 -38 -30 -8 -16 -24 -32 -35 -36 -11 -3 -20 -12
-20 -18 0 -7 -5 -4 -11 6 -6 10 -8 21 -5 24 3 3 1 14 -5 24 -10 20 -79 28 -79
9 0 -5 5 -10 11 -10 8 0 8 -4 0 -14 -8 -9 -8 -16 -2 -20 14 -9 -7 -66 -25 -66
-8 0 -14 -4 -14 -10 0 -5 5 -10 10 -10 6 0 10 -6 10 -14 0 -15 -33 -30 -95
-43 -37 -7 -35 -8 32 -11 51 -2 73 -7 77 -17 3 -8 0 -15 -7 -16 -70 -4 -100
-22 -47 -28 25 -3 44 -10 43 -16 -1 -5 -35 -19 -76 -30 -42 -11 -79 -24 -83
-28 -5 -4 -1 -5 9 -1 9 3 24 0 33 -7 14 -11 13 -14 -8 -25 -23 -13 -23 -13 9
-20 48 -10 30 -32 -33 -40 -30 -3 -54 -9 -54 -12 0 -2 11 -15 26 -28 25 -24
25 -24 3 -24 -38 0 -98 -22 -116 -43 -18 -20 -18 -20 7 -6 25 13 170 21 170 9
0 -4 -26 -7 -58 -7 -42 -1 -73 -8 -110 -27 -62 -32 -79 -53 -20 -26 44 20 99
26 112 13 4 -4 -23 -13 -60 -20 -37 -7 -75 -20 -83 -28 -15 -15 -14 -15 12 -6
37 14 108 15 87 1 -14 -9 -34 -16 -134 -41 -58 -16 -36 -22 32 -9 34 6 73 7
89 3 l28 -7 -35 -7 c-19 -4 -86 -17 -148 -29 -62 -13 -111 -24 -110 -26 4 -4
190 14 235 22 21 4 33 2 33 -5 0 -6 -10 -12 -22 -12 -13 -1 -30 -2 -40 -3 -9
-1 -20 -4 -24 -8 -4 -5 -26 -8 -48 -9 -23 0 -50 -4 -61 -9 -15 -7 -9 -9 25
-10 l45 0 -58 -24 c-62 -26 -89 -44 -47 -32 39 11 126 17 115 8 -6 -5 -37 -16
-70 -26 -70 -20 -83 -25 -152 -58 -29 -14 -50 -28 -46 -31 3 -4 24 4 47 17 40
23 293 92 303 83 8 -9 -29 -24 -142 -58 -125 -36 -180 -58 -172 -66 3 -3 27 2
54 10 26 8 59 17 73 20 14 3 39 10 56 15 17 5 37 6 44 2 9 -6 -2 -12 -31 -20
-24 -7 -53 -16 -64 -20 -11 -5 -43 -16 -71 -25 -28 -8 -66 -27 -84 -40 -19
-14 -41 -25 -49 -25 -26 -1 -218 -59 -196 -59 44 -2 225 50 259 73 39 26 115
47 169 45 18 0 26 -3 20 -6 -7 -2 -13 -20 -13 -38 0 -30 -6 -38 -45 -61 -25
-14 -49 -33 -55 -42 -5 -10 -10 -12 -10 -4 0 17 -30 15 -30 -2 0 -8 -6 -17
-12 -19 -7 -3 4 -6 25 -6 30 -1 37 -5 37 -21 0 -13 -7 -20 -20 -20 -10 0 -32
-5 -47 -11 -15 -6 -37 -15 -48 -19 -11 -5 -32 -11 -46 -14 -14 -3 -38 -17 -53
-31 -20 -18 -37 -25 -58 -23 -32 3 -48 -14 -40 -44 3 -12 -3 -25 -17 -34 -20
-14 -20 -41 0 -29 5 3 6 -1 3 -10 -6 -15 -8 -15 -22 -2 -12 12 -19 13 -34 4
-15 -9 -20 -9 -27 2 -6 9 -16 11 -32 6 -13 -5 -37 -8 -54 -7 -36 1 -63 -17
-43 -29 7 -4 9 -11 5 -15 -4 -4 -15 0 -26 10 -14 13 -29 16 -67 11 -39 -5 -63
-1 -119 21 -38 14 -84 32 -101 38 -17 6 -29 16 -27 23 2 6 -1 14 -6 18 -6 3
-11 -1 -11 -9 0 -11 -10 -14 -40 -11 -22 2 -40 -1 -40 -6 0 -6 -4 -8 -9 -4 -5
3 -12 1 -15 -3 -9 -15 -56 -1 -56 17 0 14 2 14 10 1 5 -8 10 -10 10 -5 -1 18
-38 60 -47 51 -4 -5 -2 -11 5 -13 6 -3 12 -9 12 -15 0 -6 -6 -8 -14 -5 -8 3
-17 -1 -20 -9 -4 -10 -2 -12 6 -8 7 4 8 3 4 -4 -9 -15 11 -52 27 -52 7 0 6 4
-3 10 -9 6 -10 10 -3 10 6 0 14 -4 18 -10 3 -5 13 -6 23 -3 15 6 15 5 -1 -11
-10 -10 -21 -16 -24 -12 -11 10 -43 -26 -43 -48 0 -28 -15 -50 -29 -42 -6 4
-19 3 -28 -3 -14 -8 -11 -10 19 -16 20 -4 39 -13 42 -20 3 -9 -4 -11 -27 -5
-18 4 -35 7 -39 8 -5 1 -13 2 -19 2 -6 0 -9 10 -7 22 2 16 14 26 38 34 27 9
36 18 38 38 2 14 8 24 13 21 5 -4 9 1 9 9 0 9 -8 16 -17 16 -14 0 -15 2 -4 9
19 12 4 32 -22 30 -44 -4 -59 1 -53 16 4 10 -1 15 -16 15 -12 0 -34 11 -48 25
l-26 25 -22 -30 c-13 -16 -19 -30 -15 -30 5 0 16 12 26 28 l18 27 -6 -30 c-10
-45 -39 -60 -50 -26 -4 12 -12 18 -21 14 -23 -9 -16 13 9 24 l22 10 -22 7
c-13 4 -23 14 -23 22 0 17 -46 19 -56 2 -5 -8 -2 -9 10 -5 9 4 15 3 12 -2 -10
-16 -55 -19 -68 -4 -6 8 -18 11 -26 8 -13 -5 -13 -3 -1 12 12 15 12 16 -4 10
-10 -4 -22 -7 -27 -7 -4 0 -10 -9 -13 -21 -4 -14 -10 -18 -18 -13 -9 5 -10 2
-6 -10 4 -10 7 -20 7 -22 0 -2 4 -4 10 -4 5 0 7 6 4 14 -3 8 4 16 18 20 33 8
48 7 48 -3 0 -5 -8 -7 -19 -4 -13 3 -20 -2 -25 -20 -7 -29 -34 -27 -62 4 -27
30 -37 22 -13 -11 12 -16 26 -27 31 -24 24 15 78 -41 63 -66 -3 -5 -1 -11 5
-15 16 -10 12 -25 -5 -19 -8 4 -15 4 -15 1 0 -12 52 -57 65 -57 8 0 26 -18 40
-40 14 -22 29 -40 33 -40 4 0 15 -17 25 -37 21 -47 2 -67 -26 -28 -10 14 -25
25 -33 25 -8 0 -14 7 -14 16 0 12 -7 15 -25 11 -18 -3 -29 1 -36 14 -12 24
-85 28 -76 5 3 -8 0 -17 -7 -19 -17 -7 -40 8 -32 21 3 6 2 13 -3 16 -12 8 -44
-42 -35 -55 4 -7 -5 -9 -25 -6 -17 3 -29 1 -25 -4 3 -5 0 -9 -6 -9 -6 0 -19
-7 -27 -16 -9 -8 -24 -13 -34 -11 -11 3 -19 2 -19 -3 0 -15 -52 -18 -78 -5
-32 16 -82 9 -82 -11 0 -8 5 -14 11 -14 5 0 8 -4 5 -9 -4 -5 -19 -3 -36 6 -17
8 -28 19 -25 24 4 5 0 9 -8 9 -8 0 -17 -7 -21 -15 -6 -17 -46 -21 -46 -5 0 16
-27 12 -34 -5 -4 -12 -19 -14 -80 -9 -41 3 -81 2 -88 -2 -7 -5 -24 -7 -38 -5
-21 3 -22 1 -11 -13 16 -19 12 -20 -25 -6 -21 8 -30 8 -36 -2 -6 -8 -11 -9
-14 -2 -6 14 -53 9 -89 -10 -33 -18 -65 -21 -65 -7 0 5 8 11 17 14 17 4 16 5
-1 12 -13 5 -23 3 -30 -6 -15 -19 -52 -39 -71 -39 -9 0 -14 -4 -11 -9 4 -5 -3
-7 -14 -4 -35 9 -32 22 7 28 39 6 43 8 85 38 21 15 30 16 51 6 16 -7 37 -8 54
-4 15 5 32 7 37 6 5 -1 50 5 100 13 50 9 109 18 131 20 22 3 69 10 105 16 36
6 97 15 135 21 92 14 206 39 227 50 10 5 28 9 41 9 16 0 28 9 35 25 10 22 18
25 59 25 33 1 43 3 33 9 -8 5 -34 6 -58 1 -33 -6 -42 -4 -42 6 0 10 16 14 58
14 32 0 61 3 64 6 4 3 -2 14 -13 25 -18 18 -18 21 -4 43 14 22 14 24 -1 30
-21 8 -40 -17 -35 -46 2 -12 -14 -9 -45 7 -16 8 -29 20 -29 27 0 19 -71 14
-105 -7 -8 -5 -28 -8 -44 -6 -16 1 -26 -1 -22 -7 6 -10 -129 -6 -145 4 -4 2
-10 0 -14 -6 -4 -6 7 -11 27 -11 18 -1 42 -2 53 -3 11 -1 19 -7 18 -13 -2 -7
2 -13 7 -13 6 0 10 -7 10 -15 0 -19 -10 -19 -37 0 -17 12 -27 12 -52 4 -18 -6
-35 -9 -38 -5 -4 3 1 6 9 6 9 0 22 8 29 18 13 15 12 16 -3 3 -19 -14 -198 -24
-198 -10 0 4 10 10 23 12 12 3 2 3 -22 1 -25 -2 -47 -8 -50 -12 -4 -5 -15 -14
-26 -20 -20 -11 -20 -11 0 -12 25 0 29 -40 5 -41 -10 0 -9 -3 5 -8 19 -8 19
-8 -2 -15 -13 -4 -23 -12 -23 -17 0 -5 -14 -2 -31 6 -28 15 -34 15 -64 1 -18
-9 -48 -15 -67 -15 -18 1 -52 -1 -76 -4 -28 -5 -41 -3 -37 3 3 6 20 10 36 10
18 0 28 4 24 10 -6 9 58 16 108 12 10 -1 20 4 23 11 2 8 17 13 32 12 15 -2 19
0 10 2 -10 2 -18 10 -18 18 0 7 -6 16 -12 18 -7 3 -3 6 8 6 12 1 27 -6 34 -14
7 -8 22 -15 33 -15 20 0 20 0 1 14 -18 14 -18 15 -2 21 31 12 9 23 -37 19 -25
-3 -45 -1 -45 4 0 5 -17 10 -37 11 -21 1 -45 2 -53 3 -8 1 -26 0 -40 -1 -19
-1 -22 -3 -11 -10 10 -7 2 -8 -25 -5 -27 4 -51 -1 -78 -15 -34 -18 -40 -18
-53 -6 -8 8 -28 15 -44 15 -18 0 -28 4 -24 10 8 13 62 13 70 0 10 -15 35 -12
35 5 0 8 5 15 11 15 5 0 7 -4 4 -10 -3 -5 -1 -10 4 -10 6 0 11 6 11 13 0 8 16
12 48 12 57 1 105 12 97 24 -8 14 54 24 69 12 14 -12 46 -5 46 10 0 5 -12 9
-26 9 -15 0 -23 4 -19 11 8 11 84 3 99 -12 5 -4 18 -4 28 2 10 6 42 11 71 11
40 1 46 3 27 9 -21 6 -18 7 17 8 23 1 53 6 67 12 20 9 29 9 40 0 8 -7 20 -10
27 -6 6 4 33 7 60 6 37 0 49 3 49 14 0 18 5 18 30 5 12 -7 30 -6 55 3 33 12
24 13 -86 10 -68 -2 -166 -6 -216 -9 -80 -5 -93 -3 -93 10 0 10 -9 16 -22 16
-16 0 -19 3 -11 11 13 13 59 7 56 -7 -2 -13 134 -17 142 -4 3 4 -19 10 -49 12
-30 1 -52 0 -49 -4 6 -11 -5 -10 -28 2 -24 13 -25 33 -1 26 24 -7 133 -9 160
-3 12 3 22 2 22 -4 0 -5 -10 -9 -22 -9 -34 0 -13 -11 27 -15 36 -4 36 -3 20
15 -17 19 -17 20 7 29 14 5 28 17 32 26 9 23 8 25 -10 25 -8 0 -13 -4 -9 -9 3
-5 -5 -17 -17 -26 -21 -14 -24 -14 -32 4 -5 11 -14 22 -20 24 -19 7 -146 -15
-146 -25 0 -6 -7 -5 -16 3 -13 10 -17 10 -24 -1 -7 -11 -14 -12 -34 -2 -16 7
-27 8 -31 1 -4 -5 -11 -6 -17 -3 -7 4 -8 2 -4 -4 5 -8 -1 -12 -14 -12 -12 0
-18 5 -15 10 3 6 2 10 -3 10 -17 0 -21 -13 -11 -31 10 -20 -4 -28 -16 -9 -10
16 -25 11 -18 -6 5 -14 3 -15 -17 -4 -14 7 -26 8 -32 2 -6 -6 2 -11 21 -15 20
-4 31 -13 31 -23 0 -12 -3 -14 -12 -6 -22 17 -78 18 -89 2 -9 -13 -10 -12 -5
3 3 11 0 17 -9 17 -8 0 -15 5 -15 10 0 6 9 10 21 10 12 0 19 5 16 13 -2 7 -16
11 -35 9 -39 -4 -81 16 -61 29 14 9 3 11 -76 14 -20 1 -29 6 -28 16 2 9 -7 15
-24 17 -14 1 -28 4 -31 6 -8 9 70 36 82 29 6 -4 6 -1 -2 9 -10 13 -10 17 4 22
25 10 34 7 34 -10 0 -11 5 -14 16 -10 9 3 20 6 25 6 4 0 6 7 2 16 -3 8 -12 13
-21 9 -8 -3 -21 0 -28 6 -11 9 -19 8 -32 -5 -10 -9 -24 -16 -31 -16 -7 0 -10
-4 -7 -8 3 -5 -10 -16 -28 -25 l-34 -16 8 35 c4 19 4 36 0 39 -9 5 -20 -18
-20 -42 0 -23 -69 -130 -95 -147 -13 -9 -36 -29 -52 -46 -22 -23 -34 -29 -48
-23 -18 6 -16 8 9 13 34 6 48 30 18 30 -11 0 -25 7 -32 15 -7 8 -19 15 -26 15
-8 0 -14 4 -14 9 0 5 -15 5 -35 1 -49 -11 -44 5 6 18 41 10 79 0 79 -20 0 -5
12 -7 28 -7 16 1 20 3 10 6 -10 2 -18 9 -18 14 0 5 -7 9 -15 9 -18 0 -20 16
-3 24 7 3 0 4 -16 1 -23 -5 -27 -3 -23 9 4 9 1 16 -6 16 -8 0 -6 4 3 10 26 17
-42 11 -70 -6 l-25 -15 35 5 35 5 -28 -15 c-16 -9 -39 -13 -51 -10 -21 5 -55
-2 -99 -19 -14 -6 -16 -4 -10 11 6 17 5 17 -10 5 -25 -20 -9 -34 31 -27 19 3
31 2 26 -3 -16 -14 -104 -40 -104 -30 0 5 10 9 23 10 21 1 21 1 -3 9 -14 4
-18 9 -10 9 13 1 13 3 0 11 -23 13 -183 22 -175 10 4 -7 -7 -9 -32 -6 -21 3
-39 10 -41 15 -2 5 -10 7 -19 4 -8 -3 -18 -1 -22 4 -3 5 -15 15 -26 21 -18 10
-15 12 20 13 31 2 34 3 13 6 -32 5 -34 11 -14 38 8 11 12 26 9 35 -3 8 7 3 21
-13 26 -28 36 -31 99 -29 35 2 55 22 21 22 -8 0 -12 5 -9 10 3 6 -4 10 -17 10
-21 0 -64 20 -44 20 5 0 -1 9 -13 19 -12 11 -18 22 -12 25 5 3 12 0 15 -6 5
-10 7 -10 12 0 3 6 15 12 25 12 11 0 17 5 14 10 -3 6 1 10 10 10 9 0 29 7 45
15 28 14 60 12 60 -5 0 -5 -8 -11 -17 -13 -10 -3 -4 -5 13 -6 33 -1 132 25
151 41 6 5 20 8 30 7 33 -5 104 13 100 24 -4 13 -23 13 -72 1 -28 -7 -29 -6
-13 9 9 10 23 17 30 18 7 0 4 4 -7 9 -17 7 -16 9 10 10 25 0 27 2 13 11 -12 7
-24 6 -39 -2 -17 -9 -25 -8 -38 5 -14 15 -14 18 -1 26 20 13 33 13 25 0 -4 -6
12 -9 42 -9 26 1 37 4 23 6 -14 2 -34 8 -45 14 -14 7 -30 7 -49 0 -33 -13 -59
-14 -52 -2 6 9 -16 21 -40 21 -8 0 -11 -6 -8 -15 4 -8 1 -15 -5 -15 -6 0 -11
4 -11 9 0 11 -39 3 -57 -12 -9 -6 -13 -6 -13 2 0 6 4 11 10 11 5 0 14 9 20 20
17 32 -3 23 -25 -11 -24 -37 -107 -89 -113 -71 -2 7 -10 12 -18 12 -8 0 -14 4
-14 8 0 5 -12 14 -26 20 -14 7 -22 17 -19 22 3 6 -5 10 -19 10 -14 0 -26 -5
-26 -11 0 -15 -165 -2 -240 18 -57 15 -172 18 -225 6 -26 -7 -23 -8 25 -13 30
-3 58 -1 62 4 4 6 17 5 33 -2 14 -7 37 -9 51 -6 30 8 94 -4 94 -17 0 -5 -17
-8 -37 -5 -42 4 -66 -2 -57 -15 3 -5 -2 -9 -10 -9 -10 0 -13 -7 -10 -25 4 -22
1 -25 -25 -25 -34 0 -51 18 -30 31 9 6 15 4 17 -6 2 -8 7 -15 12 -15 6 0 6 9
1 23 -5 12 -13 21 -19 20 -28 -6 -90 -5 -112 1 -18 5 -21 5 -10 -3 8 -5 11
-13 7 -17 -3 -4 -13 -1 -21 6 -24 19 -89 31 -97 18 -5 -8 -14 -7 -31 4 -19 13
-46 15 -143 10 -66 -3 -111 -8 -101 -12 14 -5 4 -10 -37 -18 -31 -6 -64 -9
-72 -6 -11 5 -13 2 -9 -10 5 -12 2 -15 -12 -9 -12 4 -15 3 -10 -5 10 -17 -19
-15 -36 1 -7 7 -16 14 -21 14 -34 3 -83 16 -87 24 -3 4 -33 11 -65 13 -37 3
-48 2 -30 -2 17 -4 -48 -7 -142 -7 l-173 0 0 -44 0 -44 88 7 c51 3 93 2 102
-4 15 -10 -37 -15 -120 -12 -34 1 -34 0 10 -13 l45 -13 -40 -1 c-30 -1 -36 -4
-25 -11 11 -8 6 -9 -20 -8 -34 3 -35 2 -38 -35 l-3 -37 45 0 c39 0 44 -3 39
-17 -4 -11 -8 -12 -11 -5 -2 7 -19 12 -38 12 l-34 0 0 -49 0 -49 113 4 c105 3
107 2 42 -6 -159 -21 -155 -20 -155 -40 0 -16 9 -20 52 -23 l53 -3 -52 -2 -53
-2 0 -86 0 -85 38 2 c69 5 122 -1 122 -12 0 -8 -17 -10 -50 -7 -27 3 -53 1
-58 -4 -6 -6 -12 -6 -16 1 -4 6 -14 11 -22 11 -12 0 -14 -27 -14 -155 0 -141
2 -155 18 -155 16 -1 16 -1 0 -14 -23 -17 -23 -33 0 -39 16 -4 16 -5 -1 -6
-16 -1 -18 -10 -16 -88 1 -70 5 -89 18 -95 14 -6 14 -7 -1 -7 -17 -1 -18 -19
-18 -231 l0 -231 238 4 c130 3 254 8 275 12 21 4 43 3 50 -3 17 -13 243 -16
252 -3 3 6 11 11 16 11 6 0 7 -5 4 -10 -4 -7 49 -10 151 -10 138 0 155 2 144
15 -10 12 -10 15 3 15 9 0 22 -6 30 -14 11 -12 90 -14 444 -15 237 -1 443 1
457 5 35 8 33 30 -4 43 -16 5 -30 15 -30 22 0 7 -10 9 -28 5 -22 -5 -24 -4 -9
5 10 6 35 10 55 8 60 -3 66 -1 52 16 -7 8 -18 15 -25 15 -7 0 -18 7 -25 15
-14 17 -35 21 -25 5 3 -5 1 -10 -4 -10 -6 0 -11 3 -11 8 0 4 -16 7 -35 6 -19
-1 -35 2 -35 6 0 12 30 21 43 13 7 -4 6 1 -2 10 -8 11 -18 14 -25 9 -19 -15
-129 -33 -139 -23 -6 6 -1 8 14 4 17 -4 21 -3 14 5 -5 6 -26 13 -45 15 -19 3
2 3 48 1 45 -2 82 1 82 6 0 5 -10 11 -22 13 -21 4 -21 4 2 5 14 1 42 -5 62
-12 21 -7 50 -12 65 -10 15 2 20 1 11 -2 -10 -3 -18 -9 -18 -12 1 -10 87 -52
107 -52 16 1 16 2 -1 15 -17 13 -17 15 -4 15 9 0 19 -4 22 -8 3 -5 30 -14 61
-21 30 -7 53 -17 50 -22 -4 -5 3 -9 14 -9 12 0 21 -5 21 -11 0 -6 -8 -8 -18
-5 -18 6 -19 -2 -13 -61 1 -17 576 -19 586 -3 4 6 10 8 15 5 5 -3 31 0 60 6
37 8 54 8 64 0 10 -8 16 -8 25 3 17 20 66 17 91 -7 12 -10 24 -16 28 -12 3 3
0 10 -8 16 -13 8 -13 10 0 19 23 15 39 12 68 -11 l27 -22 -27 7 c-15 3 -30 2
-33 -4 -4 -6 34 -10 109 -10 107 0 116 1 127 21 9 17 17 20 43 16 36 -6 62 5
52 21 -7 11 139 102 165 102 9 0 22 7 29 15 7 9 19 14 25 11 7 -2 22 6 34 20
11 13 27 24 35 24 7 0 16 9 19 20 3 11 17 22 33 26 16 4 31 10 34 15 3 4 25 4
50 -1 50 -9 70 0 70 32 0 10 5 16 10 13 20 -13 9 -42 -22 -58 l-33 -17 35 6
c19 4 41 11 48 17 7 5 15 7 19 3 3 -3 1 -6 -5 -6 -7 0 -11 -6 -10 -12 2 -9
-13 -14 -42 -16 -61 -4 -67 -14 -30 -46 17 -14 26 -26 19 -26 -7 0 -26 12 -41
27 -15 15 -28 21 -28 15 0 -7 5 -12 10 -12 6 0 10 -4 10 -9 0 -6 -18 -9 -41
-8 -24 1 -43 -4 -48 -12 -6 -8 -16 -11 -31 -6 -17 5 -21 4 -15 -5 6 -10 0 -12
-26 -7 -20 4 -29 4 -21 -2 10 -6 7 -10 -12 -15 -37 -9 -32 -27 6 -19 23 5 29
3 24 -6 -13 -21 24 -39 73 -35 26 1 40 0 34 -2 -15 -7 -17 -44 -3 -44 6 0 10
6 10 13 0 9 2 9 9 -1 4 -7 23 -12 42 -11 19 0 49 -4 67 -9 18 -6 41 -9 50 -6
16 5 16 5 0 -6 -10 -6 -33 -8 -55 -4 -21 3 -57 6 -81 7 -33 2 -48 8 -63 27
l-20 25 -16 -23 c-15 -21 -41 -33 -28 -13 3 5 1 12 -5 16 -6 4 -7 11 -4 17 5
7 -6 8 -32 4 -22 -3 -47 -6 -57 -7 -12 0 -17 -5 -13 -15 4 -11 2 -12 -14 -4
-24 13 -53 13 -45 0 3 -6 0 -10 -7 -10 -8 0 -6 -5 5 -11 10 -6 24 -8 32 -6 7
3 21 -1 32 -8 24 -19 529 -22 517 -3 -5 8 0 9 17 3 22 -7 49 -8 134 -5 26 1
27 2 10 10 -16 7 -12 9 19 9 33 1 37 -1 26 -14 -11 -13 71 -15 729 -15 l742 0
-6 23 c-4 12 -15 50 -26 84 -10 34 -19 64 -19 66 0 6 60 30 64 26 1 -2 18 -48
37 -102 l33 -97 491 2 c428 3 490 5 490 18 0 8 -6 16 -12 16 -23 2 -23 4 -6
24 21 24 35 26 31 3 -2 -10 7 -22 22 -30 25 -12 25 -13 3 -13 -13 0 -23 -4
-23 -9 0 -5 124 -9 285 -10 271 0 285 1 285 18 0 12 10 21 25 25 14 4 23 11
20 16 -3 5 -1 11 4 15 5 3 14 -3 20 -12 5 -10 13 -15 16 -11 4 4 -8 20 -27 37
-41 38 -22 41 24 4 18 -15 35 -29 38 -31 3 -2 -3 -9 -12 -16 -10 -7 -15 -16
-12 -19 4 -3 -7 -1 -24 5 -25 10 -33 9 -47 -6 -21 -20 -12 -34 10 -16 10 8 15
9 15 1 0 -6 5 -11 11 -11 5 0 7 5 4 10 -3 6 -1 10 4 10 6 0 11 -4 11 -10 0
-17 47 -11 54 6 6 16 8 16 24 0 26 -23 212 -24 212 -1 0 8 -4 15 -10 15 -5 0
-10 5 -10 11 0 6 12 10 28 9 83 -6 152 1 152 14 0 8 7 17 16 20 14 5 15 4 4
-9 -11 -13 -7 -15 26 -16 34 -2 35 -3 9 -6 -16 -2 -35 -11 -42 -19 -7 -10 -13
-12 -18 -5 -4 7 -12 8 -24 1 -10 -5 -34 -7 -54 -3 -25 4 -41 1 -51 -10 -14
-13 13 -15 250 -16 146 0 263 3 260 8 -3 4 1 8 9 8 8 0 15 -3 15 -7 0 -11 69
-10 75 0 3 6 11 10 16 10 6 0 7 -4 4 -10 -4 -6 10 -10 34 -10 23 0 41 5 41 10
0 6 5 10 11 10 5 0 7 -5 4 -11 -8 -12 109 -2 137 12 24 13 28 11 22 -6 -5 -13
18 -15 172 -15 99 0 196 4 217 9 21 5 39 5 43 0 9 -15 191 -11 197 4 4 9 6 9
6 0 1 -8 13 -13 29 -12 l27 1 -25 8 c-22 7 -20 8 15 9 29 0 36 -2 25 -9 -10
-6 59 -10 201 -9 195 0 220 2 255 19 44 23 44 23 44 11 0 -5 -10 -12 -22 -16
-20 -6 -21 -8 -5 -12 10 -3 24 1 32 7 9 7 15 8 15 2 0 -6 158 -10 459 -11 433
-2 460 -1 470 16 10 17 10 17 11 0 0 -16 25 -17 408 -16 224 0 417 3 428 6 19
4 22 12 23 63 0 53 -2 59 -22 63 l-22 4 23 2 c22 1 22 1 22 182 0 122 -3 178
-10 174 -17 -11 -90 6 -90 20 0 22 29 26 40 5 6 -11 15 -20 21 -20 6 0 7 5 4
11 -4 6 2 13 13 16 19 5 20 14 21 161 1 114 -3 158 -12 164 -9 6 -9 8 1 8 9 0
12 302 12 1475 0 1462 0 1475 -20 1495 -24 24 -26 40 -5 40 8 0 15 -5 15 -12
0 -6 3 -8 7 -4 5 4 -1 14 -11 22 -17 12 -18 14 -3 14 20 0 23 26 5 34 -10 5
-10 7 0 12 9 4 12 285 12 1355 l0 1349 -5910 0 -5910 0 0 -1915z m5514 -1006
c-7 -11 52 -9 106 5 14 3 18 3 10 0 -8 -4 -23 -14 -33 -23 -11 -9 -31 -21 -45
-28 l-27 -11 28 -1 c28 -1 40 -31 12 -31 -8 0 -15 -4 -15 -10 0 -5 10 -10 22
-10 21 0 21 0 2 -16 -13 -11 -15 -17 -6 -20 17 -8 15 -34 -3 -34 -8 0 -15 -6
-15 -14 0 -8 -7 -17 -16 -20 -9 -4 -14 -9 -11 -12 8 -8 48 15 74 43 24 25 52
31 49 9 -1 -7 -15 -25 -31 -40 -26 -23 -27 -26 -8 -21 12 3 24 1 28 -5 3 -6
11 -7 17 -4 7 4 6 9 -2 14 -9 6 -7 11 9 19 15 8 21 9 21 1 0 -6 6 -8 13 -4 6
4 3 -3 -8 -15 -11 -13 -58 -48 -105 -79 -111 -73 -203 -143 -196 -150 4 -3 16
4 29 15 12 12 74 53 137 93 63 40 127 82 141 93 14 12 8 5 -14 -15 -21 -21
-78 -63 -125 -94 -102 -67 -165 -115 -158 -121 2 -2 30 14 63 37 95 67 225
149 213 135 -6 -7 -66 -51 -135 -99 -68 -47 -127 -90 -130 -96 -10 -17 -25
-11 -18 7 4 9 2 14 -3 11 -5 -4 -9 4 -10 15 0 12 -4 84 -7 161 -8 154 -3 206
22 233 9 10 20 26 24 37 5 12 14 17 27 13 13 -3 20 0 20 9 0 8 5 14 10 14 6 0
10 -5 10 -11 0 -14 25 -6 26 9 2 19 4 22 10 22 3 0 2 -5 -2 -11z m196 -314 c0
-7 -132 -109 -210 -162 -77 -51 -112 -83 -92 -83 6 0 14 5 18 11 3 6 38 32 78
57 39 25 87 59 108 76 20 17 51 39 70 49 24 14 28 14 13 2 -52 -41 -166 -129
-223 -170 -35 -26 -62 -48 -60 -51 6 -5 124 73 183 120 55 44 105 78 105 72 0
-6 -51 -46 -193 -153 -48 -36 -86 -67 -84 -70 6 -5 88 49 147 97 25 20 61 47
80 59 l35 23 -26 -24 c-79 -69 -233 -188 -245 -188 -3 0 -3 4 0 9 3 5 -1 28
-9 52 -20 54 -18 57 146 166 70 46 132 90 139 98 13 15 20 19 20 10z m903
-1832 c-5 -13 -2 -15 11 -10 9 4 15 3 12 -2 -11 -17 154 -51 292 -60 13 0 21
-5 18 -9 -7 -11 51 -30 94 -30 l35 -1 -25 14 c-14 8 -33 14 -42 15 -10 0 -18
5 -18 11 0 7 8 9 23 4 12 -4 51 -13 87 -21 36 -8 97 -22 135 -30 91 -21 185
-32 179 -22 -8 13 9 9 30 -7 11 -8 29 -15 39 -15 17 0 15 -3 -9 -22 -16 -13
-31 -22 -34 -21 -3 0 -35 4 -73 7 -37 3 -72 8 -77 11 -6 3 -10 4 -10 2 0 -9
83 -46 92 -41 4 3 8 0 8 -7 0 -10 3 -10 12 -1 7 7 17 12 22 12 6 0 5 -4 -2 -8
-7 -5 17 -7 54 -5 55 2 65 0 60 -12 -4 -12 -2 -13 13 -6 20 11 41 -3 41 -26 0
-7 5 -13 11 -13 7 0 4 11 -6 27 l-17 26 36 -6 c20 -3 36 -2 36 4 0 5 -6 9 -12
10 -7 0 -31 3 -53 6 -22 2 -51 6 -65 7 -14 2 -32 4 -40 5 -9 1 -2 10 18 22 25
17 35 19 46 9 9 -6 51 -12 100 -12 76 -1 86 -3 87 -20 1 -10 2 -24 3 -30 0 -7
12 -15 26 -16 14 -2 29 -8 35 -13 5 -5 17 -9 27 -9 9 0 28 -11 42 -25 31 -31
10 -34 -28 -4 -20 16 -40 21 -77 20 -31 0 -48 3 -44 9 7 12 -5 12 -57 4 -21
-4 -35 -10 -32 -15 3 -5 -8 -9 -25 -9 -16 0 -33 -4 -36 -10 -4 -6 5 -10 19
-10 14 0 26 -4 26 -10 0 -6 -24 -8 -62 -4 -68 6 -90 14 -40 14 44 0 48 16 6
23 -20 4 -45 14 -55 23 -11 10 -19 12 -19 6 0 -7 -11 -12 -25 -12 -27 0 -36
-19 -10 -21 8 -1 20 -3 25 -4 6 -1 15 -3 20 -4 6 0 10 -7 10 -15 0 -17 31 -26
88 -26 23 0 42 -4 42 -10 0 -10 -70 -7 -109 5 -22 7 -23 6 -19 -18 4 -21 1
-27 -13 -27 -39 0 -25 -16 17 -19 48 -2 51 0 29 22 -13 13 -8 14 37 11 28 -2
63 -6 79 -9 15 -3 30 -1 34 4 3 6 -1 11 -9 11 -8 0 -18 5 -22 11 -8 14 115 6
144 -10 11 -6 22 -7 26 -4 4 4 13 -2 21 -14 16 -23 59 -39 52 -20 -2 6 -14 14
-28 17 l-24 6 27 6 c15 3 25 1 22 -3 -8 -14 32 -29 44 -17 8 8 16 6 29 -9 11
-12 36 -24 63 -27 54 -8 45 5 -20 28 l-45 16 45 -2 c42 -3 59 -11 96 -46 10
-10 19 -10 33 -2 14 7 22 7 26 -1 4 -6 18 -8 31 -5 13 4 24 3 24 -1 0 -5 31
-8 69 -8 56 0 68 -3 63 -15 -4 -12 -2 -13 9 -2 18 17 36 15 43 -4 6 -15 0 -16
-46 -11 l-53 6 32 -15 c30 -15 35 -15 70 2 39 20 100 22 72 3 -11 -8 -8 -10
11 -8 14 1 34 1 45 0 20 -2 20 -2 0 -13 -19 -11 -19 -11 0 -20 20 -8 20 -8 0
-5 -11 2 -19 9 -17 15 1 7 -10 12 -28 12 -34 0 -37 -5 -16 -26 16 -16 96 -19
96 -4 0 6 5 10 11 10 6 0 9 -6 6 -13 -4 -10 2 -13 20 -9 46 9 16 -15 -41 -33
-51 -16 -57 -16 -112 0 -33 9 -63 23 -67 31 -4 8 -13 14 -18 14 -6 0 -7 -4 -4
-10 3 -5 -1 -10 -9 -10 -9 0 -16 5 -16 11 0 7 -14 8 -41 4 -24 -4 -44 -3 -48
2 -10 16 -73 25 -68 10 2 -6 12 -12 23 -13 10 -1 32 -6 47 -13 16 -6 37 -11
47 -11 11 0 35 -9 55 -20 20 -11 42 -20 50 -20 20 0 30 -21 14 -31 -7 -4 -16
-5 -19 -1 -15 22 -149 60 -210 60 -54 0 -62 -2 -47 -13 9 -7 17 -17 17 -24 0
-6 12 -12 28 -12 16 -1 20 -3 10 -6 -10 -2 -18 -9 -18 -15 0 -7 -11 -1 -25 12
-20 19 -32 22 -65 17 -22 -3 -38 -2 -35 3 2 4 -13 7 -33 6 -39 -1 -92 25 -92
46 0 6 8 4 18 -5 15 -13 21 -14 32 -4 12 10 12 9 1 -5 -12 -17 -10 -18 32 -18
24 0 59 -3 76 -6 20 -4 31 -3 31 5 0 6 -14 11 -30 11 -17 0 -45 7 -62 16 -17
9 -39 14 -49 11 -11 -3 -17 -1 -13 4 3 5 -1 9 -8 9 -10 0 -9 3 2 11 12 8 8 10
-16 7 -23 -3 -31 -1 -27 9 3 7 0 13 -6 13 -6 0 -11 -6 -11 -14 0 -33 -60 -47
-140 -32 -28 6 -37 3 -47 -13 -11 -18 -9 -20 27 -26 25 -4 40 -12 40 -21 0 -8
9 -14 23 -13 21 0 21 1 2 9 -32 14 -5 11 68 -6 70 -17 85 -28 42 -30 -14 -1
-25 2 -25 6 0 13 -41 19 -67 9 -20 -7 -30 -6 -44 7 -11 10 -19 13 -19 8 0 -5
-5 -1 -11 9 -6 10 -22 17 -42 17 -21 0 -28 -3 -19 -9 8 -4 13 -12 12 -17 -1
-5 13 -12 29 -17 48 -12 37 -18 -24 -14 -55 4 -90 17 -46 17 19 0 21 4 16 23
-4 12 -12 27 -18 32 -7 7 -8 6 -4 -1 14 -24 -84 -62 -112 -44 -10 6 -9 9 8 15
11 3 25 3 31 0 15 -9 50 4 50 20 0 7 -10 13 -22 13 -23 1 -136 18 -173 27 -11
3 -14 2 -7 -1 18 -8 15 -27 -4 -20 -8 3 -12 2 -9 -3 3 -5 1 -12 -5 -16 -6 -4
-10 6 -10 24 0 21 -5 31 -15 31 -16 0 -20 -12 -8 -24 4 -3 8 -13 9 -21 2 -12
-2 -13 -18 -4 -11 6 -17 17 -14 25 5 14 -31 40 -41 30 -4 -3 -13 0 -21 6 -12
10 -13 8 -10 -14 4 -33 -1 -33 -85 -3 l-39 14 15 -22 c10 -15 25 -22 48 -23
19 -1 44 -5 55 -9 17 -5 23 -2 28 19 7 27 20 34 31 16 3 -5 2 -10 -3 -10 -6 0
-12 -6 -15 -14 -3 -8 1 -13 11 -12 9 0 16 -5 15 -11 -2 -8 7 -13 20 -13 12 0
29 -5 37 -10 12 -8 12 -10 -5 -10 -19 -1 -19 -1 -2 -11 10 -6 23 -7 30 -2 14
10 35 9 60 -2 23 -10 36 3 17 15 -9 6 -10 10 -3 10 7 0 16 -7 21 -16 10 -18
69 -33 128 -34 22 0 44 -3 47 -7 4 -3 32 -6 62 -6 31 0 58 -3 60 -8 3 -4 31
-5 62 -2 39 4 54 3 49 -5 -3 -5 0 -13 6 -16 7 -3 1 -4 -14 -2 -40 5 -35 -11 5
-17 43 -6 70 8 62 34 -7 22 7 25 25 5 6 -8 18 -12 26 -9 10 3 12 0 8 -10 -3
-8 -14 -17 -25 -20 -27 -7 -24 -27 4 -27 30 0 98 -33 77 -37 -8 -2 -37 3 -65
11 -50 16 -62 15 -51 -2 3 -6 39 -13 78 -17 40 -4 104 -13 142 -21 51 -11 72
-11 82 -3 8 6 11 15 8 20 -3 5 2 6 10 3 8 -3 13 -11 10 -18 -3 -9 21 -18 80
-29 103 -21 114 -21 132 -2 8 8 22 11 31 8 11 -4 13 -8 5 -11 -19 -6 -14 -22
8 -22 11 0 20 -5 20 -11 0 -7 -22 -9 -62 -6 -35 2 -51 2 -35 0 15 -2 27 -8 27
-13 0 -4 35 -11 78 -15 42 -3 85 -10 95 -16 10 -5 22 -7 26 -4 5 3 12 -3 16
-13 6 -16 7 -16 16 1 6 10 22 17 39 17 33 0 41 16 13 23 -10 2 -6 3 9 1 20 -2
26 0 22 11 -5 11 4 14 35 12 41 -1 60 -17 21 -17 -11 0 -20 -5 -20 -11 0 -5
-4 -7 -10 -4 -5 3 -10 2 -10 -3 0 -5 24 -8 53 -7 28 1 58 -2 65 -7 8 -8 12 -6
12 6 0 9 7 16 15 16 8 0 15 5 15 11 0 5 5 7 11 4 6 -5 4 -12 -8 -22 -13 -10
-15 -16 -5 -19 6 -3 12 -10 12 -16 0 -6 -7 -7 -17 -3 -27 12 -174 15 -168 4 4
-5 17 -9 30 -9 13 0 27 -5 30 -10 5 -8 12 -7 22 1 12 10 16 10 24 -2 8 -12 10
-12 18 1 6 8 13 12 16 8 7 -7 -16 -48 -27 -48 -5 0 -8 4 -8 10 0 5 -15 8 -32
6 -46 -6 -47 -7 -13 -15 27 -6 28 -7 9 -13 -12 -3 -37 1 -55 9 -89 40 -139 55
-139 42 0 -5 -4 -9 -10 -9 -5 0 -10 7 -10 15 0 22 -12 18 -37 -12 -12 -16 -22
-22 -23 -15 0 6 5 12 11 12 31 0 -20 32 -79 49 -63 19 -88 19 -77 0 4 -5 -3
-5 -17 0 -13 4 -23 14 -23 20 0 19 -27 31 -47 20 -10 -6 -16 -14 -13 -20 4 -5
1 -9 -4 -9 -6 0 -11 4 -11 9 0 5 -12 12 -27 17 -21 5 -24 8 -10 11 39 10 13
23 -35 19 -60 -5 -101 2 -92 15 2 5 14 3 24 -3 16 -10 22 -10 32 1 11 11 9 12
-9 6 -14 -4 -23 -2 -23 4 0 16 -30 13 -36 -3 -8 -21 17 -44 40 -38 13 3 17 1
12 -6 -12 -20 -72 -13 -181 22 -5 1 -28 6 -50 11 -22 4 -44 10 -50 13 -11 7
-29 10 -93 16 -62 6 -112 32 -113 59 -1 17 -2 18 -6 5 -5 -20 -45 -25 -40 -6
1 7 -26 16 -73 24 -41 6 -93 19 -115 27 -22 9 -49 18 -60 20 -11 3 0 5 25 6
l45 2 -70 20 c-38 11 -80 22 -93 26 -12 3 -30 15 -40 27 -16 20 -52 32 -52 17
0 -11 42 -45 73 -59 15 -6 25 -17 22 -22 -3 -5 10 -17 29 -27 58 -27 53 -41
-12 -37 -84 6 -82 5 -71 26 9 16 5 22 -12 20 -10 -2 -79 68 -79 78 0 6 -7 10
-16 10 -8 0 -13 4 -10 9 3 5 -7 14 -22 20 -16 7 -36 25 -45 41 l-17 29 42 3
c23 2 43 9 45 15 4 10 -3 10 -26 2 -17 -6 -38 -9 -46 -5 -8 3 -17 1 -20 -4 -4
-6 -13 -10 -22 -10 -13 0 -13 3 -3 15 13 16 -2 25 -70 40 -29 6 -33 5 -23 -6
10 -12 5 -15 -30 -15 -41 -2 -41 -2 -12 10 34 14 27 21 -32 31 -26 4 -43 3
-43 -3 0 -5 6 -9 13 -8 6 0 13 -3 14 -9 1 -5 -7 -10 -17 -9 -11 0 -20 -6 -20
-14 0 -10 7 -12 25 -8 14 4 25 2 25 -4 0 -5 -16 -10 -36 -10 -20 0 -33 4 -29
10 3 5 1 19 -5 30 -6 11 -7 19 -3 18 4 -2 9 1 10 7 2 5 -3 10 -10 10 -28 1
-97 26 -97 35 0 13 -27 13 -32 1 -1 -6 -19 3 -38 19 -19 16 -33 30 -30 33 3 2
33 0 67 -6 55 -9 66 -8 97 8 28 15 38 17 48 7 7 -7 29 -12 50 -12 21 0 38 -4
38 -9 0 -4 24 -11 53 -14 82 -9 132 -26 118 -40 -8 -8 -14 -9 -19 -1 -5 7 -15
6 -31 -2 -24 -12 -22 -13 27 -20 29 -3 52 -10 52 -15 0 -4 18 -7 39 -6 22 1
38 0 35 -4 -2 -4 24 -14 59 -23 34 -10 70 -20 80 -22 9 -3 17 -1 17 5 0 6 -7
11 -15 11 -9 0 -12 6 -9 15 6 15 49 13 99 -3 11 -3 23 -6 27 -7 3 0 10 -3 14
-8 4 -4 24 -7 44 -7 20 0 40 -3 43 -7 4 -3 17 -7 30 -8 12 -1 55 -8 95 -15 70
-11 75 -11 96 9 12 12 25 19 28 15 3 -3 9 -1 12 5 4 6 -8 13 -26 16 -51 10
-72 29 -58 54 8 16 8 21 -1 21 -7 0 -21 8 -31 17 -13 11 -22 14 -26 7 -4 -6
-14 -14 -22 -17 -8 -3 2 -6 22 -6 20 -1 40 -6 43 -12 10 -16 -4 -24 -17 -11
-7 7 -17 12 -23 12 -5 0 -3 -4 5 -10 8 -5 12 -11 9 -15 -3 -3 -19 6 -34 19
-16 14 -33 22 -37 20 -5 -3 -17 0 -26 8 -15 12 -16 11 -3 -5 13 -16 13 -18 0
-16 -21 4 -70 -12 -64 -21 3 -4 -2 -10 -10 -14 -9 -3 -15 0 -15 9 0 8 -7 15
-16 15 -8 0 -13 -4 -9 -9 3 -5 1 -12 -5 -16 -5 -3 -10 -1 -10 5 0 6 -5 8 -12
4 -13 -8 -82 -7 -112 2 -11 4 -16 2 -12 -4 10 -16 -51 -33 -79 -22 -14 5 -25
14 -25 18 0 5 -19 12 -41 15 -23 3 -47 11 -53 18 -8 9 -7 10 9 4 29 -12 153
-22 203 -17 30 3 42 9 38 18 -3 8 0 11 10 7 7 -3 14 -11 14 -18 0 -7 7 -16 15
-19 14 -5 15 2 11 40 -3 25 -9 51 -13 57 -5 9 -3 9 8 0 9 -7 20 -8 28 -3 22
13 -38 39 -76 33 -25 -4 -33 -2 -33 10 0 9 -8 18 -17 21 -10 3 -1 4 20 3 40
-3 51 10 15 18 -26 5 -85 14 -143 20 l-40 5 38 -11 c20 -6 37 -15 37 -20 0 -5
5 -9 11 -9 5 0 7 5 4 10 -8 12 5 13 24 1 7 -5 11 -13 7 -19 -3 -6 -2 -13 4
-17 6 -4 8 -11 5 -16 -4 -5 -13 -3 -21 6 -9 8 -22 15 -30 15 -8 0 -14 7 -14
15 0 8 -14 17 -35 21 -20 3 -35 12 -35 20 0 8 -7 14 -16 14 -8 0 -13 4 -9 9 3
6 -2 14 -12 20 -16 8 -112 30 -153 34 -8 1 -17 13 -20 27 -4 21 -11 25 -43 26
-43 2 -36 -17 7 -19 14 -1 26 -7 26 -14 0 -6 -8 -9 -19 -6 -31 8 -35 -26 -4
-38 15 -6 23 -13 18 -17 -14 -10 -17 -32 -6 -32 6 0 13 5 16 10 10 16 28 12
21 -5 -3 -8 -1 -15 5 -15 6 0 7 -5 3 -11 -5 -8 -9 -8 -14 1 -6 9 -13 9 -26 2
-17 -10 -16 -11 8 -17 17 -5 25 -12 21 -21 -3 -8 -1 -14 5 -14 5 0 12 7 16 15
3 8 11 15 17 15 8 0 8 -4 -1 -15 -10 -12 -10 -15 4 -15 9 0 16 -4 16 -10 0 -5
7 -10 15 -10 7 0 18 -8 24 -17 5 -10 12 -15 15 -12 11 10 -4 36 -27 47 -22 11
-22 11 3 11 19 1 28 -6 36 -27 10 -25 20 -31 73 -42 33 -8 61 -17 61 -21 0 -4
23 -5 50 -2 59 6 93 -3 70 -17 -9 -5 -19 -5 -27 2 -9 7 -21 7 -40 0 -16 -6
-39 -9 -53 -8 -14 2 -34 4 -45 5 l-20 2 20 8 c16 7 10 10 -29 19 -27 5 -55 8
-61 5 -7 -2 -16 1 -20 6 -3 6 -11 9 -16 6 -5 -4 -9 1 -9 9 0 9 -4 16 -10 16
-5 0 -10 -4 -10 -9 0 -6 -22 -9 -50 -9 -27 1 -47 4 -45 8 6 9 -40 31 -90 42
-69 15 -70 15 -67 -11 2 -20 -1 -23 -23 -19 -14 3 -25 1 -25 -3 0 -5 -4 -9
-10 -9 -5 0 -10 7 -10 16 0 8 4 13 8 10 4 -2 14 -1 22 5 11 6 12 9 2 9 -7 0
-11 4 -8 9 8 13 -18 21 -77 23 -41 1 -45 2 -17 5 l35 5 -30 13 -30 13 42 -1
c23 -1 39 -5 37 -9 -3 -4 -3 -8 0 -8 2 0 12 -3 22 -7 12 -4 15 -3 10 5 -4 7
-1 12 8 12 9 0 16 -4 16 -8 0 -4 17 -6 38 -4 23 2 32 0 24 -6 -9 -6 -6 -12 12
-22 21 -11 28 -11 41 0 12 10 15 10 15 -2 0 -10 12 -15 35 -16 19 -1 35 3 35
8 0 5 -7 7 -16 3 -22 -8 -31 10 -29 63 2 33 -2 47 -15 54 -9 5 -22 26 -29 48
-13 38 -16 40 -64 46 -49 5 -101 34 -67 37 14 1 -21 10 -97 25 -22 4 -33 3
-33 -5 0 -6 13 -11 29 -11 17 0 33 -5 37 -11 3 -6 14 -9 24 -6 11 3 21 -2 24
-10 5 -11 2 -13 -11 -8 -10 4 -38 9 -63 11 -44 4 -44 3 10 -9 36 -8 55 -17 56
-27 2 -35 5 -40 24 -40 11 0 20 -5 20 -10 0 -6 12 -8 28 -5 23 5 24 4 9 -5
-17 -11 -15 -30 4 -30 6 0 8 4 5 9 -8 13 67 10 76 -3 11 -16 10 -26 -3 -26 -5
0 -8 4 -5 8 3 5 -9 9 -26 10 -33 1 -73 -20 -61 -31 3 -4 -1 -7 -10 -7 -22 0
-33 20 -16 30 10 7 10 11 0 24 -7 9 -17 13 -22 10 -5 -3 -9 0 -9 5 0 6 -12 11
-27 12 -24 0 -25 2 -9 8 13 5 16 10 8 15 -6 3 -9 13 -6 20 3 9 -5 13 -26 14
-58 1 -70 10 -70 50 0 48 6 56 47 71 1 1 -1 -7 -4 -16z m-5607 -18 c11 -17 25
-25 45 -25 15 0 32 -6 36 -13 4 -7 19 -18 33 -25 23 -12 23 -12 3 -8 -13 2
-26 -1 -29 -6 -5 -7 8 -9 40 -6 25 3 48 2 51 -2 7 -11 119 -10 136 1 10 6 1 9
-26 10 -39 1 -39 2 -10 9 l30 8 -27 1 c-36 1 -47 21 -12 21 15 0 36 -8 46 -17
16 -15 62 -26 149 -36 14 -2 31 -7 38 -11 7 -4 24 -5 39 -1 25 6 26 8 9 20
-20 14 -9 29 12 15 15 -9 53 18 45 32 -7 11 -71 10 -93 -2 -10 -5 -35 -10 -55
-12 -20 -1 -36 -6 -36 -10 0 -11 -38 -10 -44 1 -4 5 0 12 6 15 7 2 4 4 -7 3
-38 -3 -125 15 -119 25 3 5 12 7 19 4 7 -2 59 -10 115 -17 73 -8 104 -8 109
-1 4 6 35 12 69 13 58 2 79 11 50 22 -7 2 -10 7 -7 11 7 8 59 -14 59 -25 0 -4
-7 -9 -15 -13 -8 -3 -15 -12 -15 -21 0 -8 -5 -15 -11 -15 -5 0 -7 -5 -4 -11 4
-6 -1 -16 -11 -24 -12 -8 -21 -10 -25 -3 -3 5 -9 0 -12 -11 -3 -14 0 -21 9
-21 19 0 18 -14 -2 -31 -9 -7 -33 -39 -55 -70 -21 -31 -51 -67 -67 -81 -15
-13 -27 -29 -25 -34 2 -6 -8 -19 -22 -28 -14 -9 -23 -21 -21 -25 3 -5 -3 -16
-14 -26 -11 -10 -20 -24 -20 -32 0 -7 -6 -16 -12 -18 -7 -3 -13 -21 -14 -41 0
-26 -8 -42 -29 -60 -15 -13 -32 -24 -37 -24 -5 0 -7 -4 -4 -9 11 -16 -5 -40
-40 -60 -19 -11 -34 -26 -34 -32 0 -7 -8 -17 -17 -24 -14 -11 -15 -16 -5 -28
7 -8 11 -28 9 -43 -4 -29 -54 -87 -69 -78 -5 3 -7 0 -6 -7 2 -6 -3 -14 -11
-17 -9 -3 -11 0 -6 7 9 15 -37 58 -56 53 -11 -3 -12 -2 -1 6 12 8 12 13 1 31
-8 11 -17 21 -21 21 -13 0 -9 28 5 34 6 4 2 4 -10 2 -13 -2 -25 0 -28 4 -8 13
62 30 99 24 l31 -4 -34 13 c-28 11 -32 15 -17 20 10 4 23 4 28 0 7 -3 8 -1 4
6 -4 6 -13 11 -19 10 -7 -1 -29 5 -49 14 -21 10 -45 17 -55 17 -13 0 -14 3 -6
11 9 9 20 9 44 0 19 -6 53 -9 81 -5 33 5 48 3 48 -5 0 -6 5 -11 11 -11 6 0 9
7 5 15 -4 10 1 15 15 15 11 0 17 5 14 10 -3 6 -1 10 6 10 9 0 10 3 3 10 -12
12 -116 23 -224 23 -79 0 -82 1 -35 9 28 5 73 6 100 3 29 -3 56 -1 65 6 11 8
6 9 -22 4 -24 -4 -38 -2 -38 5 0 5 12 10 28 10 15 0 38 3 52 7 14 3 22 3 18
-2 -12 -13 19 -35 49 -34 25 0 26 1 8 9 -11 5 -15 9 -9 9 6 1 11 8 11 16 0 8
-5 15 -11 15 -6 0 -4 5 4 10 12 8 10 10 -10 10 -14 0 -31 4 -39 9 -7 5 -31 4
-53 -1 -49 -11 -64 -3 -17 9 19 5 33 16 35 26 1 9 -2 14 -8 11 -5 -3 -12 3
-15 14 -3 14 -16 21 -49 26 -24 3 -50 3 -59 0 -8 -4 -15 -1 -15 5 0 7 17 12
43 11 23 0 65 4 92 9 37 6 57 5 75 -4 14 -7 23 -16 20 -21 -7 -9 38 -41 70
-49 l25 -6 -25 16 -25 15 25 -2 c18 -2 25 -9 24 -24 -1 -33 20 -45 39 -23 16
18 16 19 -1 20 -9 1 -3 5 13 9 l30 7 -37 17 c-21 9 -38 22 -38 29 0 8 -4 7
-11 -3 -8 -11 -12 -12 -16 -2 -2 6 -12 12 -21 13 -14 0 -13 2 3 9 18 7 18 8
-7 15 -42 11 -305 -11 -314 -26 -7 -12 -44 -11 -44 0 0 6 4 12 8 15 21 13 142
27 250 30 65 1 76 8 42 26 -15 8 -37 7 -85 -5 -35 -9 -73 -14 -82 -12 -14 4
-13 5 4 6 12 0 24 5 28 11 3 5 -13 7 -42 5 -113 -10 -189 -12 -207 -6 -10 4
25 8 80 9 54 1 114 7 134 13 28 9 43 8 61 -1 23 -12 23 -12 9 5 -14 16 -13 17
5 12 22 -6 84 -17 127 -22 15 -2 30 0 33 6 4 5 18 9 33 9 20 0 23 3 14 12 -7
7 -28 11 -46 10 -19 -2 -37 1 -41 7 -3 6 -16 10 -28 10 -17 -1 -18 -2 -4 -6 9
-2 17 -9 17 -14 0 -5 -12 -6 -27 -3 -15 4 -33 7 -40 7 -7 0 -13 4 -13 7 0 4
-11 8 -25 8 -14 0 -25 -3 -25 -7 0 -3 -20 -6 -45 -6 -25 0 -45 3 -45 6 0 4
-32 4 -71 2 -53 -4 -74 -2 -81 8 -7 10 -8 6 -5 -13 3 -19 0 -28 -9 -28 -8 0
-14 5 -14 11 0 6 -7 9 -15 5 -8 -3 -15 -1 -15 5 0 6 -11 8 -29 4 -17 -3 -32
-2 -36 4 -3 6 1 11 11 11 10 0 15 3 11 6 -3 4 -20 1 -37 -5 -25 -8 -35 -8 -46
3 -8 8 -14 17 -14 19 0 3 27 5 60 5 33 -1 60 -4 60 -8 0 -4 11 -12 25 -18 20
-9 25 -9 25 3 0 21 -27 32 -103 39 -64 6 -69 5 -74 -14 -3 -11 -11 -20 -17
-20 -19 0 -34 20 -29 39 3 14 15 16 65 15 56 -2 59 -2 39 12 -12 9 -34 14 -49
13 -15 -2 -38 4 -52 14 -13 9 -30 17 -37 17 -7 0 -13 7 -13 15 0 8 -4 15 -10
15 -5 0 -10 -4 -10 -10 0 -5 -5 -10 -12 -10 -9 0 -9 3 0 12 17 17 15 26 -5 31
-12 3 -8 5 9 6 15 0 30 -4 34 -10 3 -6 19 -9 35 -7 25 4 28 2 23 -15 -5 -16
-3 -19 10 -14 9 4 16 3 16 -1 0 -15 56 -28 95 -23 l40 5 -40 12 -40 12 55 2
c30 1 70 1 88 0 26 -1 35 3 39 19 6 23 33 27 63 11 16 -8 18 -8 14 5 -7 17 4
19 25 6 11 -7 10 -13 -8 -32 -19 -21 -32 -24 -99 -25 -42 -1 -76 -5 -75 -10 1
-5 11 -10 23 -12 11 -2 20 -8 20 -14 0 -14 69 0 87 17 7 8 29 17 47 21 23 4
36 13 39 26 3 11 10 17 15 14 14 -8 43 4 37 15 -3 4 -12 6 -21 2 -8 -3 -14 -2
-12 3 5 19 -24 54 -45 54 -18 0 -19 2 -7 10 24 16 38 12 56 -15z m734 -376 c0
-6 7 -8 16 -5 8 3 40 3 70 0 42 -5 54 -11 52 -22 -2 -8 -9 -17 -17 -20 -9 -3
-11 0 -6 8 6 9 -3 11 -36 5 -24 -4 -47 -9 -52 -12 -17 -10 7 -23 53 -29 29 -4
47 -11 44 -16 -4 -6 6 -8 27 -4 l34 7 -27 -16 c-16 -9 -28 -20 -28 -26 0 -19
-125 11 -140 32 -8 11 -128 -7 -145 -21 -8 -7 -20 -8 -27 -4 -7 5 -35 10 -61
11 -41 1 -46 -1 -36 -13 6 -8 29 -14 49 -14 42 0 70 -8 70 -20 0 -4 -21 -4
-46 1 -25 5 -50 6 -55 3 -5 -3 -16 2 -25 10 -8 9 -25 16 -37 16 -43 1 43 30
89 30 23 0 45 3 47 8 3 4 -18 5 -45 3 -33 -2 -48 0 -44 7 3 6 2 13 -4 17 -33
20 34 34 71 14 23 -12 62 -2 53 13 -5 8 4 9 29 5 27 -4 37 -2 37 8 0 7 17 17
38 23 51 14 52 14 52 1z m4895 -79 c-4 -12 -2 -20 5 -20 7 0 10 -7 6 -15 -3
-10 3 -17 20 -21 16 -4 21 -9 15 -14 -7 -4 8 -7 33 -7 25 0 43 4 40 9 -3 4
-11 8 -17 8 -7 1 -25 7 -42 15 l-30 13 40 -5 c22 -4 42 -10 45 -14 3 -4 26
-11 50 -15 59 -9 87 -24 40 -22 -65 4 -110 -2 -110 -13 0 -7 9 -9 21 -6 12 3
31 2 44 -3 13 -5 26 -6 29 -2 4 3 28 12 54 18 36 9 49 9 54 1 12 -18 9 -37 -4
-38 -7 -1 -2 -5 12 -9 24 -8 24 -8 3 -9 -27 -1 -31 -21 -5 -22 9 -1 35 -2 57
-4 36 -3 38 -2 15 7 -22 10 -23 12 -6 16 11 2 25 -3 32 -13 11 -15 15 -15 34
-2 l21 15 -24 6 c-13 3 -42 8 -63 12 -51 8 -57 12 -40 30 17 17 27 18 24 3 -2
-6 3 -14 10 -16 8 -3 10 1 5 13 -5 14 -3 16 11 11 10 -4 22 -7 27 -7 5 0 9 -6
9 -13 0 -8 11 -19 25 -25 14 -7 28 -18 31 -26 3 -8 11 -13 18 -10 7 3 19 -2
26 -11 8 -10 9 -15 1 -15 -6 0 -11 -7 -11 -15 0 -13 -2 -14 -14 -3 -12 11 -12
13 0 16 8 2 12 7 9 11 -8 13 -55 0 -55 -15 0 -8 -5 -14 -11 -14 -5 0 -7 -6 -3
-12 6 -9 3 -9 -9 0 -10 9 -27 11 -45 7 -24 -5 -34 -1 -48 17 -11 13 -32 29
-49 36 -25 12 -31 11 -41 -2 -15 -21 -30 -20 -55 3 -14 13 -17 21 -9 26 19 12
64 13 78 3 15 -13 24 -6 17 14 -7 18 -60 17 -92 0 -13 -7 -23 -9 -23 -3 0 14
-23 19 -45 11 -18 -7 -17 -9 13 -20 36 -13 43 -30 11 -30 -11 0 -17 -5 -14
-10 4 -6 11 -8 16 -4 5 3 17 0 26 -7 9 -8 21 -14 27 -15 6 0 20 -2 31 -3 15
-1 17 -3 6 -10 -7 -5 -10 -14 -7 -20 11 -16 26 -13 26 5 0 13 6 15 28 10 15
-4 50 -11 79 -17 88 -16 107 -29 33 -23 -36 3 -75 12 -87 20 -12 8 -26 14 -32
14 -15 0 -22 -32 -10 -46 7 -9 8 -14 1 -14 -5 0 -12 -6 -15 -14 -4 -10 3 -13
25 -12 25 1 31 -3 34 -24 3 -14 12 -31 22 -38 16 -12 16 -14 -1 -23 -16 -9
-16 -11 -1 -26 15 -15 17 -15 33 4 9 11 23 23 32 26 9 3 19 15 22 27 5 19 2
22 -21 18 -15 -3 -34 -7 -42 -9 -8 -2 -15 1 -16 6 -6 34 -18 55 -33 56 -11 0
-9 3 7 9 23 10 52 4 52 -11 0 -5 -3 -8 -7 -7 -5 2 -9 -1 -11 -7 -3 -9 42 -22
158 -44 29 -6 36 -9 19 -10 -15 0 -32 -8 -39 -16 -10 -13 -9 -19 5 -35 10 -11
15 -23 12 -27 -4 -3 -7 -1 -7 6 0 7 -9 9 -25 5 -15 -4 -25 -2 -25 5 0 6 -7 11
-15 11 -8 0 -15 -4 -15 -10 0 -5 -11 -10 -25 -10 -39 0 -29 -15 12 -18 20 -1
40 -7 44 -13 5 -8 8 -8 13 0 4 6 12 11 17 11 5 0 2 -11 -6 -24 -15 -23 -15
-26 23 -65 21 -22 37 -43 35 -45 -13 -12 73 -27 120 -20 68 9 89 12 105 13 7
1 27 15 44 33 l31 32 -5 -30 c-6 -29 -6 -29 9 -7 15 22 51 34 38 13 -6 -10 14
-15 54 -11 15 1 21 -2 18 -11 -2 -7 -13 -12 -23 -11 -18 1 -18 1 0 -13 19 -14
19 -14 -2 -14 -13 0 -22 -6 -22 -15 0 -8 -4 -15 -10 -15 -5 0 -10 5 -10 10 0
6 -4 10 -9 10 -5 0 -8 -11 -7 -24 0 -13 6 -24 11 -23 6 1 10 -8 9 -20 0 -15 7
-24 23 -28 17 -4 23 -11 19 -23 -5 -13 0 -18 17 -19 12 -1 32 -5 44 -8 13 -3
28 2 38 12 14 13 18 14 25 2 15 -23 -7 -38 -44 -29 -19 4 -57 6 -84 4 -28 -2
-53 0 -56 5 -3 5 -16 7 -29 4 -22 -5 -22 -5 -2 10 15 13 16 16 5 17 -10 0 -7
7 10 20 l25 20 -25 0 c-35 0 -52 13 -44 34 5 12 2 17 -7 16 -44 -7 -53 17 -16
43 21 16 21 16 -10 6 -18 -6 -31 -15 -28 -19 6 -9 -21 -40 -34 -40 -5 0 -15 7
-22 17 -13 15 -11 16 14 11 18 -4 27 -1 27 8 0 10 -20 12 -80 11 -48 -1 -78
-6 -76 -12 2 -5 9 -9 15 -8 6 2 11 -4 11 -13 0 -12 8 -14 45 -8 38 5 45 4 45
-10 0 -16 33 -22 85 -17 19 2 19 1 1 -12 -16 -12 -25 -12 -59 0 -22 8 -48 18
-57 23 -12 6 -23 5 -36 -5 -11 -8 -27 -15 -36 -15 -19 0 -25 -25 -8 -35 6 -3
9 -14 9 -23 -1 -15 -2 -15 -6 0 -6 24 -20 23 -28 -1 -4 -12 -12 -18 -21 -14
-16 6 -19 24 -3 20 6 -1 14 4 16 11 3 6 -3 12 -12 12 -9 0 -14 4 -11 9 3 4 0
22 -7 40 -10 26 -17 31 -45 31 -20 0 -31 4 -27 10 3 6 16 10 29 10 43 0 46 19
10 56 -29 30 -36 33 -54 24 -11 -6 -29 -8 -40 -5 -10 3 -21 2 -24 -4 -7 -11
37 -23 61 -15 17 5 17 5 0 -6 -11 -7 -30 -10 -43 -7 -30 5 -31 -8 -3 -24 17
-8 20 -8 14 1 -5 8 -3 11 6 8 8 -3 22 -1 31 3 25 13 30 -5 7 -24 -13 -12 -19
-13 -20 -4 0 9 -2 9 -6 0 -2 -7 -14 -13 -24 -13 -11 0 -18 4 -15 9 8 13 -42
43 -57 34 -8 -4 -7 -1 2 10 11 15 11 17 -2 17 -8 0 -17 -11 -19 -25 -3 -14 -1
-25 4 -25 5 0 16 -7 24 -15 9 -8 11 -15 5 -15 -5 0 -13 5 -16 11 -4 6 -13 8
-21 5 -7 -3 -16 -1 -19 3 -7 13 -73 23 -88 14 -8 -5 -2 -10 18 -15 l30 -7 -30
2 c-16 1 -29 6 -27 11 2 4 -9 15 -24 22 -31 17 -37 17 -29 4 10 -17 -19 -11
-42 9 -25 21 -22 64 4 54 11 -4 12 -8 3 -13 -7 -4 -9 -13 -6 -19 4 -6 11 -9
16 -6 5 3 20 1 34 -5 14 -5 55 -11 91 -14 58 -3 65 -2 65 14 0 23 -69 36 -133
26 -23 -4 -38 -4 -34 0 4 4 3 12 -2 18 -6 8 2 11 27 13 32 1 33 0 12 -7 -19
-6 -14 -8 25 -8 33 1 54 6 61 16 9 13 12 13 17 -2 4 -9 1 -16 -5 -16 -6 0 -9
-3 -6 -6 4 -3 20 2 37 10 17 9 34 16 38 15 32 -5 51 3 55 26 3 13 2 22 -2 20
-13 -8 -140 102 -140 121 0 8 -4 14 -10 14 -5 0 -10 7 -10 16 0 9 -6 14 -13
11 -8 -3 -14 3 -14 15 -3 34 -42 68 -74 64 -16 -2 -26 1 -23 6 3 5 -7 6 -23 2
-27 -6 -27 -6 -8 9 26 20 14 32 -17 17 l-23 -11 24 20 c26 23 21 28 -9 9 -15
-10 -22 -10 -31 -1 -9 9 -4 14 22 20 l33 9 -43 17 c-39 16 -43 20 -37 45 4 15
9 46 13 70 3 23 10 42 15 42 5 0 6 -9 3 -20z m1579 -177 c9 4 16 2 16 -4 0 -6
5 -7 10 -4 6 4 9 1 8 -6 -4 -16 58 -48 94 -49 53 0 37 19 -24 32 -37 7 -54 14
-40 16 13 2 20 8 16 15 -3 7 2 3 10 -7 9 -11 16 -17 16 -13 0 4 9 3 21 -3 13
-8 24 -8 32 -2 14 12 70 7 110 -10 23 -9 31 -8 37 1 10 17 24 -4 16 -24 -4
-12 4 -15 39 -15 45 0 61 14 28 23 -10 3 1 5 25 6 36 1 42 -2 40 -16 -2 -10
-10 -21 -18 -24 -11 -5 -8 -10 13 -19 15 -7 30 -10 35 -5 4 4 1 10 -5 12 -7 3
-13 13 -13 24 0 13 7 19 23 18 16 -1 18 -2 5 -6 -25 -6 -22 -23 3 -23 17 0 19
-3 10 -14 -9 -11 -6 -12 15 -8 22 4 24 6 10 14 -27 15 -18 28 17 26 25 -2 32
1 31 15 -2 19 40 25 51 7 3 -6 -4 -10 -17 -10 -23 -1 -23 -1 -3 -17 19 -15 19
-15 -7 -9 -15 3 -30 2 -33 -4 -4 -6 11 -10 37 -11 24 0 37 -3 30 -6 -6 -2 -9
-9 -6 -15 4 -6 0 -14 -7 -19 -23 -14 -31 -10 -24 11 5 14 2 20 -10 20 -9 0
-14 -3 -12 -8 3 -4 -9 -7 -26 -7 -20 0 -31 -5 -29 -12 1 -7 -2 -13 -8 -13 -18
0 -10 -18 10 -25 11 -4 18 -11 15 -16 -4 -5 -1 -9 6 -9 7 0 9 -3 5 -7 -4 -5
-14 0 -21 10 -12 17 -14 17 -29 1 -16 -15 -18 -15 -35 0 -13 12 -20 13 -29 4
-9 -9 -12 -9 -12 -1 0 19 20 26 36 12 13 -10 17 -10 24 1 11 17 -6 40 -29 40
-9 0 -23 6 -29 12 -7 7 -50 22 -95 34 -45 12 -96 28 -114 35 -26 10 -34 10
-47 0 -12 -11 -14 -17 -5 -27 14 -17 -9 -19 -60 -4 -18 5 -53 10 -78 11 -48 3
-56 8 -44 28 6 10 11 9 24 -3 8 -9 28 -15 44 -15 27 2 27 2 3 6 -14 3 -28 11
-33 18 -4 7 -21 16 -37 20 -30 6 -37 15 -23 28 4 4 10 2 14 -4 4 -7 14 -9 23
-6z m-3751 -12 c-2 -6 2 -11 7 -11 6 0 10 -5 10 -11 0 -6 11 -33 25 -60 27
-54 28 -52 -40 -50 -16 0 -24 -2 -17 -5 6 -3 10 -10 7 -14 -3 -5 17 -8 45 -8
39 1 54 -3 64 -18 14 -18 12 -20 -20 -27 -19 -5 -34 -13 -34 -18 0 -8 29 -5
67 6 7 3 17 -4 23 -14 9 -17 5 -18 -55 -16 -48 3 -65 0 -65 -10 0 -7 -6 -13
-12 -12 -36 1 -57 -5 -75 -21 -18 -15 -19 -19 -6 -31 8 -7 23 -11 34 -8 11 3
19 0 19 -8 0 -14 -52 -28 -60 -16 -12 17 -50 7 -76 -20 -18 -18 -38 -29 -56
-29 -20 0 -26 -4 -22 -15 4 -9 1 -15 -8 -15 -7 0 -18 -8 -24 -18 -10 -16 -8
-18 18 -20 27 -2 84 -41 62 -43 -5 0 0 -4 11 -9 14 -7 8 -8 -20 -3 -22 3 -47
12 -56 19 -17 16 -49 19 -49 5 0 -11 27 -33 59 -48 22 -9 23 -11 6 -12 -18 0
-100 38 -83 39 4 0 3 12 -3 27 -17 46 -3 92 34 108 22 9 33 21 34 35 1 12 9
30 17 39 9 10 16 22 16 27 0 6 18 23 40 40 22 16 40 32 40 37 0 4 7 7 16 7 8
0 12 5 9 10 -4 6 19 35 49 66 31 30 56 56 56 58 0 2 -11 6 -25 8 -21 5 -25 2
-20 -13 8 -24 4 -24 -24 0 l-21 19 25 16 c13 9 28 16 32 16 4 0 1 -5 -7 -10
-11 -7 -4 -10 25 -9 22 0 34 3 26 6 -15 6 -51 40 -51 48 0 3 12 4 28 2 15 -3
26 -10 25 -16z m-2530 -46 c22 -4 27 -10 22 -24 -3 -11 -2 -22 4 -25 5 -3 7
-15 4 -27 -4 -12 0 -25 8 -30 11 -6 8 -9 -8 -9 -36 0 -27 -18 12 -26 19 -3 38
-11 42 -17 4 -7 -2 -8 -18 -3 -13 4 -50 10 -82 13 -70 7 -82 20 -27 29 22 4
43 11 47 17 4 6 0 8 -10 4 -27 -10 -50 2 -36 19 15 18 4 44 -18 44 -10 -1 -35
-7 -56 -14 -32 -12 -36 -12 -26 0 14 17 3 34 -22 34 -10 0 -19 4 -19 10 0 6 9
6 24 0 14 -5 27 -5 33 1 6 6 14 4 23 -6 7 -8 22 -15 34 -15 19 1 19 2 4 11
-10 5 -18 16 -18 24 0 10 7 11 28 4 15 -4 40 -11 55 -14z m7102 -44 c28 1 55
0 60 -2 19 -4 40 -6 95 -8 37 -2 49 -5 36 -10 -19 -7 -19 -8 2 -13 13 -4 36
-3 52 2 18 5 32 5 35 -1 4 -5 -3 -9 -14 -9 -11 0 -23 -5 -27 -12 -4 -7 -3 -8
5 -4 6 4 49 9 94 11 45 2 74 1 65 -2 -10 -2 -18 -8 -18 -13 0 -5 -16 -4 -36 2
-20 5 -38 7 -42 4 -3 -3 -1 -6 5 -6 6 0 9 -9 6 -20 -3 -12 -13 -20 -27 -19
-19 0 -19 1 -3 8 16 6 17 9 5 18 -13 12 -22 13 -123 17 -102 4 -207 18 -194
26 7 5 18 6 26 3 7 -3 13 0 13 6 0 15 -63 14 -78 -1 -18 -18 -25 -3 -12 22 8
14 15 19 19 12 4 -6 29 -11 56 -11z m1230 -79 c-16 -11 -16 -32 -1 -32 8 0 23
-3 33 -6 15 -5 15 -4 3 5 -12 8 -6 11 25 10 22 0 34 -3 28 -6 -21 -8 -15 -18
11 -19 16 -1 23 3 20 10 -3 9 4 11 26 8 20 -3 34 -12 39 -25 7 -18 8 -18 14
-4 8 20 82 24 93 5 5 -8 -2 -9 -24 -5 -19 4 -32 2 -32 -3 0 -6 12 -11 28 -11
90 -5 111 -11 68 -19 -21 -4 -54 -4 -72 0 -19 4 -32 5 -29 1 2 -4 -37 -8 -88
-8 -69 -1 -96 3 -110 15 -16 14 -77 24 -77 12 0 -3 -9 -6 -19 -7 -24 -2 -18
23 7 31 13 4 12 5 -3 4 -52 -1 -73 3 -78 15 -4 10 3 12 25 9 21 -3 29 -1 24 7
-9 15 9 14 35 -1 17 -11 22 -10 30 5 6 9 15 17 22 17 8 0 8 -3 2 -8z m-8182
-59 c-18 -7 -16 -43 2 -43 8 0 15 -4 15 -10 0 -5 -12 -10 -27 -10 l-28 0 25
-20 c14 -11 31 -20 38 -20 6 0 12 -7 12 -16 0 -10 6 -14 15 -11 8 4 17 2 20
-3 4 -6 16 -10 28 -10 16 0 18 -3 9 -12 -8 -8 -21 -9 -46 -1 -28 9 -34 8 -29
-3 3 -8 16 -17 29 -20 14 -4 24 -14 24 -24 0 -15 5 -17 35 -10 20 4 35 4 35
-1 0 -5 -12 -9 -27 -10 l-28 -1 25 -8 c27 -9 27 -9 -9 -16 -28 -5 -62 21 -54
42 11 29 -26 13 -57 -26 -18 -22 -37 -40 -42 -40 -5 0 -7 4 -3 9 7 13 -10 22
-28 15 -25 -9 -8 -33 26 -36 23 -2 32 -8 31 -20 -1 -12 5 -18 18 -18 19 0 19
1 4 25 l-16 25 46 -7 c37 -5 45 -3 39 7 -5 8 -3 11 6 8 8 -2 15 -20 17 -39 1
-19 6 -41 9 -49 7 -17 12 -33 16 -56 2 -8 10 -20 18 -25 11 -7 9 -9 -9 -9 -15
0 -26 8 -31 24 -7 17 -20 25 -53 31 -24 4 -35 10 -25 12 23 6 22 23 -3 23 -23
0 -70 20 -70 31 0 4 6 10 13 12 6 3 -2 6 -20 6 -17 1 -33 -4 -35 -11 -3 -9
-13 -9 -39 -1 l-34 11 32 7 c34 8 36 25 3 25 -11 0 -29 10 -40 22 -17 19 -24
21 -40 10 -24 -15 -30 -15 -30 -2 0 6 8 10 18 10 15 1 15 2 -2 15 -17 13 -17
15 -4 15 9 0 29 -5 43 -10 17 -6 33 -7 43 -1 16 9 16 10 0 16 -10 4 -18 11
-18 16 0 14 28 11 37 -4 12 -18 60 -37 91 -36 24 2 24 2 5 6 -27 5 -31 23 -5
23 23 1 -25 29 -50 30 -10 0 -18 4 -18 9 0 16 -38 23 -62 11 -22 -11 -23 -11
-3 5 15 12 31 15 60 10 30 -5 37 -3 28 6 -6 6 -36 12 -67 13 -33 0 -55 5 -52
11 1 6 14 9 27 8 13 0 42 5 63 12 35 11 37 13 18 19 -12 4 -26 4 -32 1 -5 -3
-10 -1 -10 5 0 6 -4 8 -10 5 -5 -3 -10 -1 -10 5 0 8 -7 9 -17 5 -25 -11 -212
-16 -193 -6 8 5 58 12 110 16 52 3 122 13 155 20 59 13 112 18 88 8z m5661
-103 c4 0 4 5 1 10 -10 16 31 11 45 -5 7 -8 9 -15 5 -15 -5 0 0 -9 9 -19 10
-11 15 -24 12 -30 -7 -10 18 -58 39 -74 5 -5 -1 -6 -15 -3 -94 20 -130 31
-130 38 0 5 12 5 26 2 20 -5 25 -3 22 7 -5 15 -93 40 -114 32 -8 -3 -14 -1
-14 5 0 6 5 12 11 14 8 3 7 8 -2 19 -27 28 -22 41 13 35 18 -3 40 -1 48 4 10
7 18 5 26 -5 6 -8 14 -15 18 -15z m-6743 -30 c21 0 -3 -19 -32 -25 -28 -6 -29
-8 -12 -22 17 -14 17 -14 -1 -9 -11 4 -23 0 -31 -11 -10 -13 -16 -14 -26 -7
-21 16 -72 27 -64 14 5 -7 -8 -11 -37 -10 -23 1 -83 -1 -133 -4 -234 -15 -241
-16 -210 -6 16 5 86 14 155 20 69 7 152 18 185 27 33 8 78 16 100 18 22 1 48
3 58 4 11 1 15 6 11 13 -5 8 -2 9 10 5 10 -4 22 -7 27 -7z m7820 -101 c14 -7
29 -7 49 0 16 5 32 6 35 1 3 -5 -3 -10 -12 -13 -15 -3 -15 -5 -3 -10 32 -13
75 -28 75 -26 0 1 9 -3 21 -9 16 -8 24 -8 33 1 10 9 15 8 25 -5 8 -11 29 -19
59 -20 26 -2 47 -6 47 -9 0 -4 21 -9 48 -12 26 -2 56 -8 67 -12 16 -5 17 -5 5
4 -20 14 -12 18 35 23 38 3 40 2 38 -24 -2 -23 5 -30 54 -53 39 -18 53 -29 45
-37 -5 -5 -20 -7 -32 -3 -12 4 -19 9 -16 13 9 8 -76 43 -91 38 -7 -3 -13 1
-13 10 0 11 -4 12 -18 5 -18 -10 -85 0 -127 18 -11 5 -48 17 -82 26 -56 16
-77 16 -130 -1 -17 -5 -17 -5 0 9 9 8 17 17 17 20 0 3 -24 11 -52 17 -29 7
-70 19 -91 28 -48 18 -61 8 -14 -11 19 -8 38 -20 42 -27 4 -7 -7 -4 -25 5 -18
9 -47 18 -64 18 -17 1 -30 5 -28 10 1 4 2 11 2 16 0 9 25 17 63 20 10 0 27 -4
38 -10z m-6176 -47 c16 -8 43 -28 59 -45 l30 -30 104 6 c98 6 133 14 105 24
-7 3 -13 9 -13 14 0 5 11 4 25 -3 13 -6 22 -15 19 -19 -3 -5 5 -10 18 -10 20
-1 20 -2 3 -6 -11 -2 -30 -6 -43 -9 -13 -2 -20 -9 -17 -14 3 -6 -6 -10 -20
-10 -22 0 -25 -3 -20 -20 6 -18 2 -20 -34 -20 -23 0 -41 5 -41 10 0 6 11 8 25
4 15 -4 25 -2 25 5 0 6 -10 11 -22 12 -23 0 -23 0 1 10 36 14 18 22 -25 10
-20 -6 -41 -8 -46 -5 -11 7 -10 -3 2 -27 16 -29 67 -51 129 -55 51 -3 54 -2
32 10 l-24 13 29 6 c16 3 35 1 41 -5 7 -6 28 -7 49 -3 26 4 35 3 32 -5 -5 -15
-118 -62 -118 -50 0 5 -7 7 -15 4 -8 -4 -15 -1 -15 5 0 9 -6 9 -22 0 l-22 -12
24 -10 c21 -8 22 -11 7 -14 -12 -3 -16 -10 -12 -24 4 -10 2 -19 -3 -19 -6 0
-12 5 -14 11 -2 7 -12 7 -31 0 -16 -6 -62 -10 -102 -9 l-74 3 46 20 c26 12 65
20 93 19 43 -1 45 1 31 15 -13 13 -35 16 -106 14 -55 -2 -82 0 -70 6 19 8 19
8 -2 19 -27 15 -53 15 -53 2 0 -5 -9 -10 -20 -10 -11 0 -20 6 -20 14 0 9 7 12
20 9 11 -3 20 0 20 6 0 6 5 11 12 11 6 0 20 7 30 17 15 14 26 15 62 6 36 -8
43 -7 39 4 -3 7 -14 13 -25 13 -10 0 -17 4 -14 9 3 4 -7 6 -22 4 l-27 -4 23
14 c23 13 23 13 -15 26 -37 12 -77 17 -156 20 -21 0 -36 5 -32 10 8 14 64 24
78 14 7 -5 22 -10 34 -11 20 -1 21 2 10 19 -6 10 -17 19 -24 19 -7 0 -13 5
-13 11 0 12 29 5 75 -19z m-1098 -8 c12 -8 33 -14 46 -14 23 0 92 -44 92 -59
0 -15 38 -45 84 -67 25 -12 40 -23 33 -23 -7 -1 -11 -5 -7 -10 3 -5 1 -12 -5
-16 -5 -3 -24 8 -41 25 -18 16 -37 30 -43 30 -75 3 -119 9 -125 18 -3 5 -24
13 -45 16 -71 11 -53 18 38 15 58 -3 90 0 93 7 4 11 -69 46 -102 49 -12 1 -39
6 -60 10 -22 5 -46 7 -52 6 -7 -1 -13 3 -13 9 0 5 -12 10 -27 10 -22 0 -25 2
-13 10 19 14 118 3 147 -16z m4258 -31 c3 -15 13 -43 22 -62 9 -20 16 -43 17
-51 1 -10 12 -15 33 -15 37 0 35 -10 -4 -20 -36 -8 -95 -53 -88 -66 4 -5 1 -9
-5 -9 -7 0 -9 7 -5 18 3 9 -4 56 -16 104 -22 85 -22 88 -4 108 25 27 42 25 50
-7z m-4957 -20 c12 -17 14 -17 23 -1 5 10 16 15 24 12 8 -4 13 -10 10 -14 -7
-12 20 -20 44 -13 30 8 26 -11 -11 -48 -18 -18 -32 -36 -31 -40 5 -16 -26 3
-32 19 -5 14 -7 14 -15 2 -8 -12 -10 -13 -10 -1 0 11 -5 10 -21 -5 -19 -17
-19 -19 -2 -25 14 -6 12 -8 -9 -8 -32 -1 -45 14 -21 24 16 6 15 8 -7 26 l-25
21 28 -6 c15 -4 27 -2 27 3 0 18 -47 57 -81 67 -30 9 -26 10 31 8 48 -3 68 -8
78 -21z m8806 5 c-5 -8 2 -9 27 -2 58 14 131 7 203 -20 37 -14 78 -26 90 -26
12 0 26 -4 32 -9 12 -11 124 -20 124 -10 0 4 -10 10 -22 12 -13 2 -5 3 16 0
22 -2 46 -8 55 -14 13 -8 12 -10 -7 -6 -12 3 -20 1 -16 -4 3 -5 22 -9 42 -9
20 0 52 -4 69 -9 20 -6 35 -6 38 0 4 5 -4 9 -15 9 -16 0 -20 5 -16 15 4 10 -1
15 -17 16 -12 0 3 7 33 15 36 10 56 11 58 4 2 -5 7 -10 12 -10 5 0 21 -5 37
-11 l28 -12 -25 -7 c-23 -7 -23 -8 -3 -9 12 -1 24 -5 28 -10 3 -5 -10 -9 -29
-8 -19 1 -32 5 -30 8 2 4 -5 14 -15 23 -17 16 -19 15 -25 -6 -9 -36 -7 -48 9
-48 19 0 95 -38 95 -47 0 -10 -116 6 -162 23 -23 8 -51 16 -60 16 -10 -1 -20
3 -23 9 -4 5 -21 9 -40 9 -19 0 -36 4 -39 9 -3 4 -25 11 -48 14 -76 11 -142
27 -152 37 -6 6 -24 10 -40 10 -17 0 -26 -4 -20 -8 11 -10 143 -55 162 -55 6
0 12 -4 12 -8 0 -4 9 -11 21 -14 11 -4 19 -9 16 -11 -4 -4 -110 27 -197 58
-30 10 -77 26 -103 34 -66 21 -53 29 17 11 31 -9 56 -12 56 -7 0 9 -128 35
-136 27 -8 -8 -64 13 -64 24 0 5 7 9 16 9 9 0 12 -5 8 -12z"/>
<path d="M0 2782 c0 -10 7 -13 21 -9 32 8 79 -3 79 -19 0 -8 -9 -14 -21 -14
-11 0 -18 4 -14 9 3 5 -10 9 -30 8 -33 -2 -44 -10 -27 -20 4 -3 59 -13 122
-22 63 -9 120 -20 125 -25 6 -4 48 -10 95 -14 47 -3 105 -10 130 -16 25 -5 83
-14 130 -20 47 -7 101 -14 120 -16 19 -3 72 -12 117 -20 45 -9 90 -14 100 -11
10 3 5 5 -14 6 -39 1 -64 11 -58 21 3 5 -14 8 -37 8 -68 -1 -153 13 -137 23
20 12 -37 31 -71 24 -18 -4 -43 2 -76 19 -53 27 -249 62 -284 51 -25 -8 -17
-25 11 -25 11 0 17 5 14 10 -8 12 9 13 55 1 19 -5 52 -12 73 -16 21 -3 35 -10
32 -16 -4 -5 2 -9 12 -9 10 0 25 -5 33 -11 11 -8 3 -9 -30 -4 -24 3 -50 11
-57 16 -7 7 -32 8 -62 4 -37 -5 -59 -3 -82 9 -18 9 -42 16 -55 16 -34 0 -40
20 -7 21 20 1 16 4 -17 10 -25 5 -53 6 -62 3 -10 -3 -18 -3 -18 0 0 3 15 10
32 15 22 6 26 10 13 11 -11 0 -50 4 -87 9 -56 6 -68 4 -68 -7z"/>
<path d="M0 2561 c0 -13 7 -21 18 -22 9 0 28 -2 42 -4 29 -4 155 -14 258 -20
40 -2 80 -9 90 -15 13 -8 7 -9 -25 -5 -28 5 -43 3 -43 -4 0 -15 -36 -14 -63 1
-41 22 -115 19 -101 -4 4 -5 22 -7 43 -4 26 5 32 4 21 -3 -8 -6 -10 -11 -5
-11 6 -1 37 -3 70 -5 33 -2 84 -7 114 -10 l53 -7 -27 -14 c-21 -11 -31 -11
-42 -3 -15 13 -32 4 -17 -10 5 -5 35 -16 66 -25 43 -12 56 -20 52 -31 -4 -10
0 -15 15 -15 13 0 21 -6 21 -16 0 -11 -5 -14 -16 -10 -9 3 -19 6 -23 6 -4 0
-13 11 -19 24 -9 21 -15 23 -46 16 -19 -4 -38 -4 -43 1 -10 10 -73 -8 -73 -21
0 -4 -9 -6 -20 -3 -27 7 -25 23 3 23 l22 1 -21 17 c-16 13 -43 19 -100 21 -44
2 -88 3 -99 4 -11 0 -39 0 -62 -1 l-43 -2 0 -59 c0 -38 4 -61 13 -64 10 -4 10
-6 0 -6 -7 -1 -13 -10 -13 -21 0 -23 28 -27 49 -7 11 9 14 9 18 0 3 -9 10 -10
23 -3 13 7 28 7 46 0 20 -8 29 -8 34 1 4 6 16 9 26 7 18 -5 18 -5 -1 -13 -11
-5 -23 -13 -27 -19 -5 -8 -11 -7 -20 2 -6 6 -23 12 -37 11 -15 0 -20 -3 -13
-6 18 -7 15 -20 -8 -26 -11 -3 -20 -1 -20 4 0 5 -7 9 -15 9 -8 0 -14 -6 -12
-12 1 -8 -7 -12 -21 -10 -22 3 -23 2 -21 -87 1 -60 5 -91 13 -91 7 0 7 -3 -2
-8 -14 -10 -13 -64 3 -74 6 -5 6 -8 -2 -8 -22 0 -14 -28 10 -33 l22 -4 -22 -2
c-31 -2 -31 -39 -1 -45 30 -6 119 -2 138 6 8 4 24 9 35 11 11 3 0 6 -25 7 -25
1 -58 6 -75 10 -20 6 -9 7 35 4 117 -8 149 -15 143 -30 -3 -8 1 -14 11 -14 9
0 16 -4 16 -10 0 -12 -42 -13 -55 -1 -16 14 -85 23 -85 11 0 -5 -13 -10 -29
-10 -18 0 -31 -6 -35 -17 -6 -15 -8 -15 -16 -3 -5 8 -12 11 -16 7 -4 -4 1 -14
12 -21 10 -8 16 -17 13 -20 -10 -10 -64 18 -64 33 0 8 -6 16 -12 18 -10 4 -13
-15 -13 -70 0 -63 3 -75 18 -79 9 -3 67 -4 129 -3 87 2 113 -1 117 -11 3 -8
16 -14 28 -14 l23 0 -25 20 c-18 14 -20 20 -9 20 8 0 20 -5 27 -12 7 -7 12 -8
12 -2 0 5 11 11 25 12 14 1 25 -3 25 -8 0 -6 15 -10 33 -9 27 0 29 2 12 9 -25
11 111 2 174 -11 41 -9 71 -5 40 5 -8 2 -21 7 -29 9 -8 3 0 6 18 6 17 1 32 -2
32 -6 0 -12 54 -13 61 -2 6 11 72 13 146 4 31 -3 54 -2 58 5 4 6 -4 10 -19 10
-14 0 -26 4 -26 9 0 8 119 3 129 -5 1 -1 0 -8 -4 -14 -5 -7 -11 -8 -19 -1 -6
5 -18 6 -25 2 -17 -11 21 -21 69 -20 23 1 27 3 13 6 -36 7 -27 23 12 23 19 0
35 -4 35 -10 0 -5 6 -10 13 -10 8 0 14 7 14 15 0 10 -10 15 -29 15 -15 0 -28
5 -28 11 0 6 7 8 16 5 8 -3 40 -3 70 0 41 5 52 10 44 19 -7 8 -29 11 -66 8
-30 -2 -61 0 -67 5 -18 14 -137 25 -137 12 0 -9 28 -15 58 -11 6 1 20 -2 29
-7 10 -6 -24 -9 -101 -9 -90 0 -119 3 -123 13 -3 8 -9 14 -15 14 -5 0 -6 -4
-3 -10 8 -14 -28 -13 -42 1 -8 8 -17 8 -33 -1 -13 -7 -45 -9 -83 -6 -34 3 -84
5 -111 6 -35 0 -47 4 -43 13 3 9 -6 11 -34 9 -24 -3 -39 0 -39 7 0 6 -6 11
-12 11 -7 0 -21 12 -32 26 l-19 26 24 -8 c13 -4 33 -8 44 -8 11 -1 25 -4 31
-9 7 -4 14 0 18 8 4 11 13 14 32 9 23 -6 25 -4 19 15 -7 23 4 28 22 10 7 -7
34 -9 74 -5 35 4 80 6 99 6 19 -1 62 -1 95 -2 69 -1 46 -11 -50 -21 -39 -5
-55 -4 -45 2 22 15 5 24 -20 11 -11 -6 -44 -12 -73 -12 -29 0 -56 -4 -62 -7
-12 -7 -18 -8 -45 -10 -11 0 -20 -5 -20 -10 0 -5 27 -7 60 -5 34 3 60 0 60 -5
0 -5 -8 -12 -17 -14 -10 -3 1 -5 25 -6 23 0 42 4 42 9 0 6 -7 10 -16 10 -14 0
-14 2 0 15 17 17 42 20 51 5 3 -5 15 -10 26 -10 10 0 19 -5 19 -11 0 -6 7 -9
15 -6 8 4 17 2 20 -3 3 -5 -3 -11 -12 -13 -13 -3 -12 -5 5 -6 13 0 30 6 38 14
14 13 13 16 -8 24 -23 10 -23 10 -1 10 12 1 28 -5 35 -12 7 -7 22 -17 33 -21
19 -8 19 -9 -5 -15 l-25 -7 25 -7 c44 -12 68 -8 75 13 5 16 15 20 48 20 31 0
38 3 27 10 -11 7 1 10 40 10 31 0 60 -4 65 -9 6 -5 19 -11 30 -14 14 -3 11 -5
-10 -6 -20 -1 -26 -4 -18 -12 12 -12 65 -1 57 12 -3 5 5 10 18 10 13 1 -15 10
-62 20 l-85 18 73 -3 c39 -2 72 1 72 6 0 5 6 6 13 2 6 -4 9 -3 5 1 -5 5 -47 9
-95 10 -123 3 -131 4 -115 14 13 8 4 11 -76 27 -19 4 -28 14 -12 14 10 0 10 3
0 15 -9 11 -22 14 -47 9 -28 -5 -32 -4 -27 10 4 11 1 16 -10 16 -9 0 -16 -7
-16 -15 0 -9 -9 -15 -22 -15 -30 0 -52 15 -44 29 9 14 -40 33 -68 26 -11 -2
-15 -2 -9 1 21 9 15 22 -9 21 -58 -1 -188 17 -188 26 0 6 15 7 38 3 20 -3 72
-9 115 -13 43 -3 80 -10 83 -15 3 -4 20 -8 39 -8 19 0 36 -4 40 -9 3 -5 22 -7
43 -5 28 4 33 3 22 -5 -12 -9 -10 -11 13 -11 15 0 27 -4 27 -9 0 -16 54 -31
132 -37 66 -5 76 -3 74 10 -4 26 -25 43 -35 28 -4 -7 -14 -10 -22 -7 -9 3 -49
12 -90 20 l-74 15 153 -5 c152 -4 207 -14 147 -25 -16 -4 -37 -2 -45 4 -8 6
-6 1 4 -12 18 -21 18 -22 1 -22 -10 0 -16 -2 -14 -4 3 -3 27 -1 54 3 38 7 43
9 20 11 l-30 2 30 9 c18 5 31 5 35 -2 4 -5 24 -7 45 -5 25 3 42 1 47 -7 5 -8
10 -5 14 11 l7 23 171 -5 c94 -3 187 -8 206 -11 31 -5 32 -4 11 5 -14 6 -61
13 -105 15 -44 3 -82 8 -85 13 -10 15 -78 21 -90 9 -8 -8 -11 -7 -11 6 0 9 -6
14 -13 11 -23 -8 -135 -11 -174 -4 l-38 7 45 6 c25 4 95 10 155 14 62 4 92 9
68 11 -24 2 -43 7 -43 13 0 5 19 10 43 10 l42 1 -54 12 c-73 15 -78 34 -9 30
l53 -4 -50 15 c-27 8 -60 15 -73 15 -13 0 -34 12 -47 26 -14 15 -25 23 -25 18
1 -13 22 -39 45 -53 18 -10 16 -11 -12 -6 -20 4 -33 3 -33 -4 0 -6 6 -8 14 -5
8 3 17 1 20 -4 3 -6 15 -8 26 -5 11 3 20 1 20 -4 0 -18 -12 -22 -36 -13 -17 7
-22 6 -18 -3 10 -26 -102 -47 -163 -31 -19 5 -20 8 -8 20 7 8 21 14 29 14 9 0
16 7 16 15 0 8 -4 15 -10 15 -5 0 -10 -4 -10 -10 0 -5 -15 -10 -32 -10 -23 0
-29 3 -19 9 11 7 11 9 0 14 -8 3 4 6 26 7 l40 2 -35 13 c-30 12 -34 21 -7 16
5 -1 6 3 2 9 -3 5 0 10 7 10 9 0 9 3 -2 10 -21 14 -30 12 -24 -4 3 -7 -1 -16
-9 -19 -11 -4 -13 0 -10 14 4 15 0 19 -18 19 -18 0 -20 -3 -11 -12 17 -17 15
-28 -4 -28 -8 0 -13 -4 -9 -10 3 -5 12 -7 20 -3 17 6 21 -12 5 -22 -6 -4 -5
-13 2 -25 10 -15 10 -22 0 -32 -18 -18 -15 -26 15 -54 l28 -26 -26 7 c-32 8
-61 13 -77 14 -7 1 -10 6 -6 13 5 8 2 9 -12 3 -20 -9 -32 -9 -101 -4 -23 2
-40 6 -37 10 2 4 -14 9 -36 13 -76 12 -41 25 61 23 55 -2 103 1 105 5 5 8 -25
13 -61 9 -26 -2 -105 21 -105 31 0 4 7 8 16 8 28 0 9 23 -22 27 -34 4 -82 52
-63 63 6 4 8 13 5 19 -5 7 3 11 23 11 16 0 32 -6 34 -12 4 -9 8 -10 14 -2 4 5
24 15 43 21 30 8 21 10 -66 11 -106 1 -195 20 -101 21 41 1 48 4 45 19 -2 9
-19 22 -37 28 -19 6 -40 18 -46 28 -9 11 -27 16 -64 16 -28 0 -51 4 -51 10 0
5 18 8 40 6 39 -3 63 8 38 17 -7 2 -10 7 -7 11 4 4 31 0 60 -8 l54 -14 -40 -1
c-33 -1 -37 -3 -22 -12 10 -6 23 -8 30 -6 7 2 25 -2 40 -10 16 -8 65 -20 109
-27 69 -11 78 -11 63 0 -10 8 -29 14 -42 14 -13 0 -23 4 -23 9 0 4 -21 11 -47
14 -25 3 -50 11 -54 20 -8 13 -77 31 -154 40 -18 3 -10 5 20 6 34 1 45 4 35
10 -21 13 -71 16 -97 7 -15 -5 -31 -2 -45 8 -12 9 -35 16 -50 16 -15 0 -30 4
-33 10 -4 6 37 8 117 5 100 -4 115 -3 80 6 -54 13 -48 24 7 14 27 -4 42 -13
46 -26 4 -10 14 -19 23 -19 15 0 15 -2 2 -10 -24 -16 2 -26 94 -40 45 -6 104
-15 131 -20 28 -5 82 -12 120 -16 45 -4 63 -9 51 -14 -18 -6 -18 -7 5 -13 28
-8 101 -8 79 0 -8 2 -29 11 -47 19 -17 8 -39 14 -48 14 -10 0 -24 8 -32 18 -8
9 -11 11 -7 3 6 -11 -1 -13 -37 -8 -24 4 -87 12 -139 18 -107 12 -139 25 -42
16 39 -3 62 -1 62 5 0 6 -7 8 -15 5 -8 -4 -17 -2 -20 3 -4 6 12 10 37 11 42 1
42 1 13 10 -16 6 -69 10 -118 11 -82 1 -115 11 -88 27 7 4 -37 13 -96 20 -59
6 -121 14 -138 17 -27 4 -28 3 -7 -5 34 -15 27 -20 -28 -19 -27 1 -50 5 -50 8
0 4 -33 7 -73 7 -41 1 -82 5 -93 11 -10 5 -57 13 -104 17 -47 3 -93 9 -102 11
-13 4 -18 0 -18 -15z m344 -622 c38 -12 69 -12 61 1 -12 20 120 16 140 -3 10
-10 -2 -13 -57 -15 -77 -2 -100 -10 -74 -24 17 -10 21 -33 7 -42 -5 -3 -22 1
-37 9 -17 9 -30 11 -32 5 -2 -6 -17 -10 -34 -10 -25 0 -29 3 -25 20 4 14 0 20
-11 21 -11 0 -12 2 -4 6 23 9 12 22 -25 29 -21 4 -45 10 -53 15 -19 11 105 1
144 -12z"/>
<path d="M1200 1890 l-25 -7 30 -7 c48 -12 52 -14 24 -15 -27 -1 -43 -20 -31
-37 13 -17 80 -35 118 -31 22 3 29 2 16 0 -16 -3 -22 -9 -18 -19 4 -11 0 -13
-18 -8 -13 3 -27 1 -30 -5 -10 -16 -26 -13 -26 3 0 8 -4 18 -10 21 -18 11 -50
14 -50 4 0 -5 8 -9 18 -9 28 0 34 -11 14 -26 -15 -12 -15 -13 8 -14 65 0 256
23 261 32 4 6 15 8 24 4 20 -7 67 3 60 14 -2 4 -16 5 -30 2 -14 -2 -25 0 -25
5 0 5 -16 7 -36 5 -24 -3 -32 -7 -23 -13 23 -14 4 -20 -36 -11 -21 4 -41 14
-43 21 -3 10 1 12 12 8 10 -4 15 -3 11 3 -4 6 11 10 37 11 24 1 57 4 73 8 17
4 42 3 56 -1 17 -6 34 -4 51 5 23 12 13 13 -98 14 -68 1 -126 -3 -130 -8 -7
-12 -51 -12 -59 1 -4 6 7 8 27 4 25 -4 29 -3 18 5 -8 6 -15 16 -15 22 0 7 -6
14 -12 17 -7 2 -13 -1 -13 -7 0 -12 -39 -15 -67 -4 -16 6 -15 8 7 14 22 6 20
7 -10 7 -19 0 -46 -3 -60 -8z"/>
<path d="M1650 1744 c0 -8 -5 -14 -11 -14 -5 0 -7 5 -4 10 3 6 1 10 -4 10 -6
0 -11 -4 -11 -9 0 -8 -49 -12 -176 -14 -29 -1 -30 -2 -16 -16 14 -15 13 -16
-10 -19 -15 -2 -47 4 -73 12 -50 18 -112 21 -134 7 -24 -16 -1 -31 44 -29 44
2 58 11 33 21 -21 9 14 6 42 -3 21 -7 22 -8 5 -9 -16 -1 -17 -3 -6 -10 13 -9
171 -4 180 4 2 3 19 -2 39 -11 19 -8 37 -12 40 -9 3 3 2 5 -2 5 -4 0 0 7 9 16
12 12 19 13 29 5 9 -8 17 -8 20 -2 3 5 40 8 81 6 71 -3 95 5 58 20 -10 3 -19
1 -21 -4 -2 -6 -13 -11 -25 -11 -20 1 -20 2 -4 11 9 5 17 17 17 24 0 8 -8 15
-17 15 -15 0 -16 -2 -3 -10 25 -16 -20 -12 -52 4 -24 13 -28 13 -28 0z"/>
<path d="M2116 1455 c-8 -8 -21 -12 -30 -9 -8 3 -38 -6 -66 -20 -52 -26 -76
-26 -66 0 6 17 -21 19 -59 4 -23 -9 -26 -8 -21 6 5 13 2 14 -11 8 -10 -4 -28
-8 -39 -8 -14 -1 -20 -6 -16 -15 3 -8 1 -12 -5 -8 -6 4 -13 -2 -16 -12 -3 -14
-1 -18 9 -14 20 8 17 -14 -3 -26 -15 -9 -12 -10 17 -10 19 0 44 6 54 14 19 15
19 15 1 15 -15 0 -16 3 -7 12 10 10 17 10 32 0 11 -6 28 -12 37 -12 16 0 16 2
3 11 -12 9 -12 10 3 5 10 -3 20 -6 23 -6 2 0 1 -8 -3 -17 -7 -20 -43 -53 -58
-52 -5 0 1 9 14 19 20 18 21 20 5 20 -11 -1 -30 -7 -44 -15 -14 -8 -36 -14
-49 -15 -17 0 -22 -4 -17 -16 4 -11 1 -14 -12 -12 -9 2 -16 9 -15 14 1 8 -125
10 -133 1 -2 -1 1 -9 6 -17 6 -10 30 -14 85 -14 65 -1 79 2 91 19 10 13 17 16
22 9 4 -6 26 -9 51 -6 29 3 39 7 30 13 -9 6 6 8 41 8 40 0 49 -3 35 -9 -23
-10 -21 -11 22 -13 17 -1 29 2 26 7 -3 4 1 12 8 17 11 6 8 9 -8 9 -12 0 -24 4
-28 9 -3 5 8 9 25 9 17 -1 33 -5 36 -10 3 -5 11 -5 17 0 17 12 59 13 74 0 7
-6 24 -7 40 -3 l28 8 -32 9 c-18 5 -33 13 -33 18 0 6 -9 6 -22 1 -55 -20 -78
-22 -78 -6 0 14 20 19 65 16 16 -2 17 0 5 8 -30 21 1 23 35 2 34 -20 77 -31
47 -12 -10 6 -7 10 12 15 14 3 26 10 26 15 0 9 -57 27 -73 23 -4 -1 -10 5 -13
13 -8 19 -48 19 -68 0z"/>
<path d="M2635 1390 c2 -4 18 -13 35 -20 21 -9 28 -16 21 -23 -7 -7 -14 -7
-23 0 -21 18 -84 21 -73 4 9 -16 -15 -24 -31 -10 -8 6 -17 9 -21 6 -3 -4 5
-16 18 -27 l24 -20 -44 7 c-32 4 -42 3 -37 -5 4 -7 25 -12 47 -12 22 0 56 -7
77 -16 55 -24 119 -28 137 -10 14 13 11 14 -20 9 l-36 -6 18 32 c10 17 26 31
35 31 9 0 20 5 23 11 4 6 13 8 21 5 8 -3 14 1 14 9 0 11 -14 15 -57 15 -32 1
-75 7 -95 14 -21 8 -36 10 -33 6z"/>
</g>
</svg>
