<?xml version="1.0" standalone="no"?>
<!DOCTYPE svg PUBLIC "-//W3C//DTD SVG 20010904//EN"
 "http://www.w3.org/TR/2001/REC-SVG-20010904/DTD/svg10.dtd">
<svg version="1.0" xmlns="http://www.w3.org/2000/svg"
 width="1182.000000pt" height="664.000000pt" viewBox="0 0 1182.000000 664.000000"
 preserveAspectRatio="xMidYMid meet">
<metadata>
Created by potrace 1.13, written by Peter Selinger 2001-2015
</metadata>
<g transform="translate(0.000000,664.000000) scale(0.100000,-0.100000)"
fill="#000000" stroke="none">
<path d="M0 4790 c0 -1755 1 -1850 18 -1850 15 0 15 2 2 11 -11 8 -7 9 19 5
18 -3 44 -6 56 -6 13 0 33 -9 46 -20 21 -17 22 -19 6 -20 -10 0 -16 4 -13 9 7
11 -17 21 -52 21 -22 0 -24 -2 -12 -11 11 -7 3 -8 -27 -4 -38 6 -43 5 -43 -13
0 -23 19 -33 49 -25 12 3 27 0 35 -6 7 -6 35 -14 62 -17 52 -7 113 -33 132
-57 10 -12 8 -16 -13 -21 -14 -4 -30 -4 -35 -1 -5 3 -51 10 -102 14 -51 5
-101 12 -110 16 -13 5 -18 3 -18 -8 0 -8 6 -18 13 -20 10 -4 10 -6 0 -6 -7 -1
-13 -7 -13 -14 0 -19 53 -38 102 -37 68 2 214 -15 318 -37 38 -8 150 -9 150
-1 0 7 -28 13 -105 23 -27 4 -73 13 -100 21 -28 8 -75 13 -105 13 -32 -1 -70
5 -90 15 l-35 16 35 -6 c19 -4 56 -6 82 -5 26 0 85 -8 130 -19 46 -10 106 -22
133 -25 28 -3 61 -8 74 -11 22 -5 22 -6 6 -24 -16 -18 -16 -19 6 -24 13 -3 38
-5 54 -4 17 0 59 -2 95 -5 50 -5 58 -4 35 3 -16 6 -62 11 -101 12 -59 3 -71 6
-64 17 10 18 -12 41 -38 41 -35 0 -54 11 -42 24 7 10 1 12 -28 10 -20 -1 -48
-5 -61 -9 -18 -6 -22 -5 -17 4 6 8 1 11 -16 9 -12 -1 -40 2 -61 6 -31 7 -38
12 -34 27 4 14 0 19 -14 19 -10 0 -33 9 -51 21 -18 12 -24 18 -13 14 37 -12
125 -17 125 -5 0 5 -9 10 -20 10 -11 0 -20 5 -20 11 0 16 57 4 76 -16 12 -11
20 -12 35 -5 13 7 25 7 38 0 11 -5 27 -7 37 -3 10 3 22 0 28 -8 6 -8 22 -14
36 -15 14 -1 37 -4 51 -7 38 -8 148 -17 126 -11 -11 4 -16 12 -13 21 5 11 -1
14 -27 12 -17 -1 -44 3 -58 9 -14 6 -47 13 -72 17 -26 4 -47 11 -47 16 0 5 10
7 22 4 13 -2 52 -7 88 -9 63 -5 64 -4 30 9 -33 13 -30 13 50 10 112 -6 220
-21 233 -34 16 -16 37 -13 37 5 0 14 -3 14 -15 4 -12 -10 -15 -10 -15 2 0 15
-12 19 -70 20 -19 1 -27 3 -17 5 9 3 17 9 17 13 0 6 -12 5 -27 -1 -20 -7 -71
-4 -192 11 -91 12 -170 23 -176 25 -19 7 70 4 120 -4 27 -5 59 -5 69 -1 13 4
-22 12 -93 20 -61 8 -115 18 -118 22 -3 5 11 6 31 3 22 -5 36 -3 36 3 0 5 -21
13 -47 18 -38 6 -42 9 -21 12 15 2 48 -6 74 -18 36 -15 49 -17 55 -8 6 9 13 9
31 1 13 -6 41 -14 62 -18 37 -6 39 -5 25 11 -8 10 -9 15 -4 12 6 -3 27 -13 47
-23 21 -9 36 -21 33 -25 -7 -12 66 -20 84 -10 12 7 6 9 -23 10 -47 0 -45 6 7
14 26 4 37 2 37 -7 0 -8 2 -9 8 -1 4 7 15 8 27 3 14 -5 15 -8 5 -8 -9 -1 -16
-10 -17 -21 -1 -16 4 -20 30 -19 29 1 30 2 8 8 -23 6 -23 7 10 17 20 6 54 8
79 4 36 -6 39 -8 15 -9 -25 -1 -27 -3 -13 -11 27 -16 113 -25 104 -12 -4 7
-17 12 -29 13 -12 0 -16 3 -9 6 22 8 172 -16 195 -32 12 -8 26 -15 32 -15 5 0
3 4 -5 10 -24 15 -3 23 31 11 41 -14 89 -14 89 0 0 18 43 48 70 49 14 0 61 11
105 25 46 14 104 25 138 25 47 0 57 3 58 18 1 9 2 35 3 57 2 22 1 34 -1 27 -3
-6 -10 -9 -15 -6 -7 4 -8 2 -4 -4 10 -17 -9 -15 -23 2 -16 19 3 29 78 45 31 7
62 20 72 32 14 16 21 18 38 10 28 -15 35 -14 17 4 -8 8 -21 15 -28 15 -8 0 -9
3 -3 8 6 4 10 13 11 20 2 26 5 30 24 35 14 3 20 14 20 32 0 15 11 41 25 57 31
37 28 52 -11 55 -67 5 -69 6 -72 64 -8 158 -6 214 9 214 7 0 15 -9 17 -20 3
-11 10 -24 18 -28 16 -9 44 -67 47 -96 2 -30 35 -27 49 5 9 19 9 33 0 56 -11
30 -8 52 6 45 4 -2 18 7 32 20 19 19 20 22 5 17 -15 -6 -17 -4 -12 9 4 11 1
17 -8 17 -8 0 -15 4 -15 8 0 5 -18 14 -40 21 -35 10 -40 16 -40 41 0 19 9 35
25 48 14 11 25 25 25 30 0 6 5 14 12 18 6 4 8 3 4 -4 -3 -6 -2 -22 4 -37 9
-23 15 -26 48 -24 20 1 45 -2 54 -6 26 -10 51 -2 54 18 1 11 6 22 10 25 4 4 4
-1 1 -10 -4 -10 -2 -18 3 -18 5 0 6 -8 3 -17 -6 -15 -5 -16 9 -3 9 8 12 17 7
18 -16 6 -9 32 9 33 11 0 7 4 -10 11 -16 5 -28 13 -28 18 0 10 31 24 50 21 9
-1 6 5 -8 17 -24 19 -20 32 10 32 34 0 13 54 -26 64 -13 3 -26 14 -30 23 -3
10 -9 25 -12 33 -5 12 -4 13 7 3 35 -34 39 -2 3 35 -18 20 -24 34 -20 54 3 16
0 31 -9 38 -9 8 -13 28 -11 63 3 48 5 52 27 50 13 -1 19 1 12 3 -9 4 -9 10 -1
23 7 12 8 23 1 36 -8 13 -6 26 6 46 17 30 35 40 25 14 -4 -8 -1 -15 5 -15 13
0 31 40 25 52 -3 4 -11 5 -19 1 -8 -3 -15 0 -15 6 0 6 6 11 14 11 17 0 28 24
31 65 3 50 4 55 20 55 9 0 15 9 15 25 0 16 6 25 15 25 8 0 15 7 15 16 0 8 7
22 15 30 13 14 15 14 15 -1 0 -14 4 -13 20 6 18 21 19 22 14 4 -5 -16 -4 -17
5 -5 6 8 11 22 11 31 0 22 75 54 116 50 23 -2 34 2 34 11 0 9 15 13 50 13 27
0 50 -3 50 -7 0 -5 6 -8 14 -8 8 0 16 -4 18 -9 3 -9 37 -18 76 -20 6 -1 12 -8
12 -16 0 -20 83 -21 103 -1 22 22 165 36 205 20 17 -7 32 -9 32 -4 0 6 10 6
26 0 35 -14 44 -13 44 5 0 10 11 15 35 15 24 0 35 5 35 15 0 8 7 15 15 15 8 0
15 -3 15 -7 0 -5 72 -9 160 -10 108 -1 160 1 160 9 0 7 24 8 78 3 42 -4 82 -7
87 -7 6 1 61 8 123 17 l114 16 45 -27 c51 -30 163 -64 210 -64 17 0 35 -5 38
-10 4 -6 10 -8 15 -5 5 3 14 0 22 -7 7 -7 27 -14 43 -16 17 -2 45 -12 63 -23
35 -20 107 -26 117 -9 3 6 15 10 25 10 10 0 20 8 22 17 3 15 4 15 19 1 12 -13
45 -24 86 -31 9 -1 23 -12 54 -39 10 -10 23 -18 28 -18 5 0 12 -6 14 -12 4
-10 8 -10 14 -1 6 8 16 8 38 -2 l30 -13 -42 -7 c-24 -4 -43 -12 -43 -17 0 -6
-9 -8 -20 -5 -10 3 -24 -1 -31 -9 -6 -8 -17 -14 -24 -14 -6 0 -20 -10 -31 -22
-10 -13 -15 -20 -11 -16 5 3 22 2 38 -2 17 -5 31 -5 34 1 4 5 20 9 36 9 17 0
28 -4 25 -8 -8 -13 57 -1 79 14 21 15 39 19 31 6 -2 -4 24 -8 60 -9 38 0 71
-6 81 -14 9 -8 14 -9 10 -2 -5 8 6 11 37 11 46 0 59 -12 65 -59 0 -5 6 -7 11
-4 6 3 10 1 10 -5 0 -6 4 -9 8 -6 5 3 14 -11 20 -30 9 -30 8 -35 -3 -30 -8 3
-17 1 -20 -4 -4 -6 -16 -10 -28 -10 -13 -1 -1 -8 28 -19 45 -16 51 -16 57 -2
6 14 7 14 7 -1 1 -10 4 -18 9 -18 4 0 21 -12 37 -26 28 -24 17 -24 -14 0 -68
53 -376 73 -578 38 -125 -22 -186 -47 -191 -77 -2 -11 -6 -27 -9 -35 -12 -29
-13 -49 -3 -55 6 -3 10 0 10 7 0 7 9 0 19 -16 27 -41 49 -52 58 -29 8 23 43
52 63 53 16 0 70 -52 70 -68 0 -15 39 -56 47 -49 10 10 43 -24 43 -44 0 -10
-4 -21 -10 -24 -13 -8 -13 -95 -1 -95 5 0 18 11 29 25 22 28 58 32 88 10 10
-8 16 -15 11 -15 -4 0 0 -14 8 -30 16 -31 58 -55 81 -46 8 3 26 -1 41 -9 30
-16 73 -20 73 -7 0 4 21 14 46 21 60 18 70 4 38 -53 -21 -37 -31 -76 -19 -76
2 0 24 11 49 25 25 14 62 29 83 33 21 4 38 12 39 17 0 6 6 23 12 38 7 16 10
32 7 37 -7 12 16 163 26 174 5 6 9 44 9 85 0 42 4 83 10 91 6 9 5 17 -3 22 -6
4 -8 11 -3 15 10 10 36 -25 36 -49 0 -27 47 -35 66 -12 11 14 17 15 20 7 3 -7
9 -13 14 -13 17 0 68 -58 72 -81 2 -16 10 -25 25 -27 12 -2 25 -12 28 -23 4
-10 14 -23 24 -29 10 -5 24 -23 31 -40 7 -16 16 -30 21 -30 5 0 9 -6 9 -14 0
-8 7 -16 15 -20 8 -3 15 -15 15 -26 0 -11 5 -20 10 -20 6 0 10 -8 10 -18 0
-10 9 -28 20 -39 14 -16 16 -23 7 -27 -9 -5 -9 -7 1 -12 20 -9 14 -27 -8 -21
-13 3 -20 0 -20 -8 0 -12 -8 -12 -47 0 -37 11 -235 34 -295 35 -13 0 -9 -28 5
-34 6 -3 3 -4 -9 -1 -12 3 -33 -1 -48 -9 -27 -14 -66 -50 -66 -61 0 -11 29 -5
33 8 3 9 7 9 17 0 8 -7 19 -8 29 -3 26 13 122 33 128 26 4 -3 -1 -6 -10 -6
-10 0 -25 -9 -34 -20 -10 -11 -24 -20 -33 -20 -13 0 -13 -2 0 -10 9 -6 20 -5
29 3 12 10 13 9 7 -8 -20 -50 -26 -80 -16 -83 17 -6 11 -22 -17 -48 -14 -13
-23 -27 -20 -30 3 -3 20 7 38 24 18 17 46 33 62 36 38 8 48 0 16 -13 -13 -5
-20 -10 -15 -10 5 -1 -5 -13 -23 -28 l-31 -28 29 0 c19 0 27 4 24 13 -3 6 1
12 8 13 8 0 22 2 32 4 43 8 20 -13 -181 -161 -57 -42 -101 -78 -99 -81 3 -2
31 15 64 39 73 55 198 133 188 119 -3 -6 -40 -34 -82 -62 -41 -28 -83 -57 -92
-64 -68 -55 -81 -68 -77 -73 3 -2 27 13 53 35 26 21 73 54 103 73 30 19 73 48
95 64 22 17 33 22 25 12 -8 -10 -57 -49 -110 -86 -90 -65 -190 -147 -143 -119
30 19 126 85 192 133 99 72 42 18 -74 -69 -115 -87 -135 -105 -116 -105 5 0
13 5 16 10 4 6 41 33 83 61 62 41 70 44 41 17 -20 -18 -62 -52 -93 -76 -32
-24 -56 -46 -53 -49 5 -5 31 13 188 135 44 34 84 62 87 61 4 0 -6 -10 -23 -22
-16 -12 -50 -40 -75 -63 -43 -39 -177 -144 -182 -144 -3 0 -7 29 -11 73 -1 9
-5 17 -10 17 -5 0 -7 6 -4 13 3 7 -1 37 -9 67 -7 29 -15 114 -16 189 -3 135
-3 136 24 172 16 20 28 41 28 47 0 16 -27 15 -32 0 -2 -6 -18 -11 -35 -11 -24
0 -30 -4 -25 -15 4 -12 1 -14 -13 -9 -16 7 -16 5 -4 -10 12 -15 12 -16 -2 -11
-12 5 -18 0 -22 -18 -5 -27 8 -42 17 -19 3 8 10 15 15 15 7 0 6 -9 -1 -25 -6
-14 -17 -25 -24 -25 -6 0 -14 -7 -18 -15 -3 -8 -13 -15 -22 -15 -10 0 -14 -3
-11 -7 4 -3 2 -12 -5 -20 -8 -10 -8 -12 3 -8 17 6 43 -31 32 -48 -16 -25 12
-119 29 -101 4 3 9 -4 13 -15 3 -12 10 -21 15 -21 5 0 4 -15 -1 -32 -12 -45
-12 -54 7 -72 24 -24 27 -82 7 -117 -16 -28 -16 -29 2 -44 14 -10 17 -17 8
-22 -8 -6 5 -28 40 -70 46 -53 93 -91 103 -80 2 2 -8 30 -21 63 l-25 59 24 20
c13 11 50 40 81 65 32 25 76 61 99 81 23 20 69 46 104 58 66 22 109 29 83 12
-19 -12 -23 -41 -6 -41 26 0 25 -30 -1 -40 -14 -6 -28 -10 -32 -10 -22 0 -142
-44 -142 -52 0 -6 8 -7 18 -3 38 15 175 46 185 42 7 -3 -4 -9 -23 -15 -19 -6
-27 -11 -17 -11 19 -1 23 -16 6 -27 -8 -4 -6 -10 7 -17 15 -9 11 -13 -32 -33
-27 -13 -68 -29 -91 -36 -24 -7 -43 -18 -43 -25 0 -15 10 -16 42 -4 13 4 46
11 73 14 43 6 46 5 20 -4 -60 -21 -137 -60 -132 -66 4 -3 26 -1 49 5 58 15
118 24 118 18 0 -2 -22 -12 -50 -21 -72 -24 -75 -39 -7 -33 43 3 54 2 50 -9
-3 -7 -13 -13 -22 -13 -21 0 -24 -27 -4 -34 7 -3 13 -12 13 -19 0 -10 8 -13
25 -9 14 2 31 -1 39 -7 7 -6 20 -9 28 -6 7 3 24 -4 36 -15 21 -19 31 -21 120
-15 l97 5 -68 -21 c-64 -21 -84 -42 -41 -45 52 -2 59 -6 29 -15 -92 -25 -165
-41 -200 -42 -27 -2 -39 -6 -37 -15 1 -8 -2 -10 -8 -7 -6 4 -20 -1 -31 -11
-19 -17 -19 -19 -2 -26 12 -6 7 -7 -14 -4 -36 6 -51 -8 -33 -29 10 -12 9 -15
-4 -15 -20 0 -46 -23 -46 -40 0 -6 -11 -15 -25 -22 -13 -6 -22 -15 -18 -21 4
-6 1 -7 -6 -2 -8 4 -11 21 -9 40 4 32 2 33 -32 37 l-36 3 4 -61 c4 -60 4 -61
-24 -68 -25 -7 -26 -9 -11 -17 26 -15 21 -38 -10 -44 -84 -18 -89 -23 -23 -24
54 -1 67 -5 78 -21 11 -19 10 -20 -25 -20 -21 0 -45 -5 -53 -10 -11 -7 -8 -10
16 -10 17 0 37 -6 43 -14 10 -11 -1 -17 -61 -30 -40 -9 -84 -23 -98 -31 -24
-14 -24 -14 13 -8 35 5 51 -7 27 -22 -5 -3 -10 -13 -10 -22 0 -11 7 -14 25
-11 19 4 23 2 15 -7 -6 -7 -27 -16 -48 -19 -72 -13 -74 -15 -52 -38 14 -15 28
-19 54 -16 20 2 36 1 36 -3 0 -4 -31 -10 -69 -14 -45 -4 -82 -15 -107 -31 -39
-23 -32 -34 9 -13 24 14 113 19 141 9 12 -4 -8 -9 -52 -13 -41 -3 -85 -13
-102 -24 -27 -16 -32 -16 -41 -3 -9 13 -10 13 -6 -1 3 -9 0 -22 -6 -28 -16
-16 -5 -14 48 9 28 12 56 18 71 14 31 -8 21 -24 -15 -24 -35 0 -91 -18 -110
-36 -10 -9 -3 -9 29 2 42 15 76 12 66 -4 -3 -5 -31 -15 -63 -22 -58 -13 -98
-29 -91 -35 2 -2 32 2 68 9 36 6 79 9 95 5 17 -4 23 -8 15 -9 -43 -7 -63 -11
-155 -29 -55 -10 -111 -24 -125 -30 -24 -11 -24 -11 5 -4 17 3 50 7 75 8 25 1
77 5 115 9 99 10 61 -9 -50 -24 -106 -15 -132 -30 -54 -31 l54 -1 -42 -8 c-23
-5 -54 -16 -70 -25 l-28 -16 35 7 c19 3 48 8 63 9 15 2 40 6 55 9 51 12 0 -11
-113 -49 -60 -21 -116 -44 -123 -52 -22 -21 -80 -44 -157 -60 -38 -8 -74 -19
-80 -25 -7 -8 -4 -9 10 -4 11 5 43 11 70 15 28 4 64 15 82 24 18 9 38 17 44
17 7 0 22 9 33 19 27 24 290 100 303 88 9 -10 -30 -27 -127 -55 -115 -33 -175
-56 -185 -72 -9 -14 11 -13 43 3 15 8 59 21 97 31 39 9 87 22 108 27 22 6 42
8 45 5 3 -3 -1 -6 -9 -6 -8 0 -27 -7 -42 -15 -15 -8 -45 -17 -65 -21 -20 -4
-41 -10 -47 -14 -5 -3 -32 -15 -60 -24 -27 -10 -66 -29 -85 -42 -19 -12 -79
-34 -132 -49 -53 -14 -107 -29 -120 -34 -22 -9 -22 -10 -2 -10 37 -1 217 49
250 70 42 26 140 59 175 59 26 0 27 -1 18 -37 -4 -21 -8 -39 -8 -41 0 -7 -50
-42 -59 -42 -6 0 -20 -12 -31 -26 -12 -15 -21 -22 -21 -15 0 16 -19 14 -36 -4
-17 -16 -14 -18 36 -19 18 -1 25 -7 25 -21 0 -15 -9 -21 -38 -26 -40 -6 -140
-49 -145 -62 -2 -4 -8 -5 -13 -1 -5 3 -9 -2 -9 -11 0 -13 -9 -16 -42 -14 l-43
3 1 -36 c1 -30 -3 -38 -22 -42 -13 -4 -24 -13 -24 -22 0 -8 4 -13 8 -10 5 3 9
-1 9 -9 0 -20 -14 -19 -27 3 -8 12 -13 13 -16 5 -9 -20 -24 -15 -24 7 0 11 -4
20 -10 20 -5 0 -10 -4 -10 -9 0 -5 -10 -9 -22 -10 -61 -1 -98 -14 -98 -31 0
-12 -9 -20 -22 -22 -20 -3 -22 -8 -20 -38 2 -19 8 -38 14 -41 5 -3 9 -9 9 -13
-2 -17 0 -17 16 -5 15 13 15 12 4 -6 -10 -17 -9 -28 7 -66 l20 -46 -35 -12
c-26 -10 -32 -15 -22 -22 8 -5 24 -9 37 -9 12 0 22 -6 22 -13 0 -13 -38 -16
-58 -3 -19 12 -45 -1 -67 -34 -18 -27 -46 -45 -30 -20 11 18 -17 11 -31 -8
-18 -23 -17 -32 4 -32 9 0 30 -11 46 -25 25 -21 26 -25 10 -25 -11 0 -36 9
-57 20 -47 25 -55 25 -32 0 10 -11 24 -20 32 -20 7 0 16 -6 19 -14 3 -8 28
-16 65 -20 33 -3 71 -11 84 -18 22 -12 19 -13 -35 -15 -44 -1 -58 2 -54 11 3
9 -6 12 -31 11 -19 0 -35 4 -35 10 0 13 -55 38 -93 41 -21 1 -31 -3 -34 -17
-3 -10 -14 -21 -24 -24 -10 -4 -19 -11 -19 -16 0 -5 -10 -14 -23 -19 -21 -8
-21 -9 6 -9 15 -1 27 4 27 9 0 6 7 10 15 10 9 0 12 -6 9 -15 -4 -8 -12 -15
-19 -15 -7 0 -16 -6 -18 -12 -4 -10 -6 -10 -6 0 -1 13 -41 17 -41 3 0 -4 14
-20 32 -35 21 -17 27 -26 16 -26 -9 0 -18 5 -20 11 -4 13 -88 22 -88 9 0 -7
-41 -19 -82 -24 -10 -2 -21 -6 -25 -11 -5 -4 2 -5 15 -2 14 3 22 1 22 -8 0 -7
7 -16 16 -19 23 -9 26 -8 18 7 -6 9 -4 9 7 -1 7 -6 21 -12 30 -12 9 0 19 -6
22 -14 3 -7 23 -16 44 -19 21 -4 50 -9 65 -13 20 -5 27 -2 30 13 2 11 6 14 11
7 3 -6 -2 -21 -12 -33 -18 -21 -37 -30 -26 -12 3 5 -24 13 -61 16 -47 5 -64
11 -60 20 2 7 -4 15 -14 18 -11 3 -21 -1 -24 -9 -8 -21 -27 -17 -33 6 -6 24
-45 27 -66 5 -11 -10 -17 -11 -19 -3 -3 8 -9 8 -24 0 -19 -11 -19 -11 1 -17
50 -16 66 -26 59 -36 -4 -7 -11 -6 -22 4 -13 14 -18 14 -40 -1 -26 -17 -29
-18 -69 -20 -13 -1 -32 -11 -43 -22 -10 -10 -34 -24 -52 -29 -27 -9 -21 -10
37 -6 47 3 63 2 50 -4 -18 -9 -18 -10 7 -10 34 -1 58 -11 58 -23 0 -6 -11 -8
-25 -4 -14 3 -37 9 -51 12 -18 5 -25 3 -21 -4 11 -16 -42 -29 -111 -28 -34 1
-68 -2 -75 -6 -7 -5 0 -6 18 -3 17 3 24 2 17 -1 -10 -5 -9 -9 5 -20 16 -13 14
-14 -24 -10 -40 5 -58 -6 -31 -17 7 -3 2 -6 -12 -7 -14 0 -36 -7 -50 -16 -21
-12 -21 -14 -5 -11 11 1 25 -4 32 -13 8 -10 12 -11 13 -2 0 7 13 12 33 11 29
-1 30 -2 7 -8 -14 -4 -25 -13 -25 -21 0 -15 58 -31 84 -23 13 4 13 3 2 -5 -18
-13 -4 -20 60 -27 55 -5 46 7 -13 19 -31 7 -38 26 -10 26 21 0 79 -27 87 -40
3 -5 448 -9 996 -10 l991 -1 -7 23 c-4 13 -15 52 -26 87 -11 35 -19 64 -17 66
9 7 48 25 56 25 4 0 16 -25 26 -55 9 -30 26 -75 37 -100 l20 -45 339 0 c215 0
341 4 345 10 3 6 14 10 23 10 15 0 15 -2 2 -10 -10 -7 25 -10 108 -10 83 0
122 4 122 11 0 8 4 8 14 0 9 -8 103 -11 315 -11 290 1 301 2 301 20 0 12 -5
17 -13 14 -8 -3 -13 4 -14 18 -2 20 2 19 30 -14 l32 -38 215 1 c118 1 223 5
232 10 11 6 18 5 21 -4 3 -9 9 -9 26 1 25 14 34 15 26 3 -3 -6 107 -10 292
-10 l298 1 0 23 c0 14 -5 21 -12 18 -7 -3 -10 -9 -7 -14 3 -5 -2 -9 -10 -9
-13 0 -14 4 -4 25 7 16 18 24 32 22 12 -1 20 3 18 11 -1 6 2 12 8 12 13 0 13
-37 0 -45 -5 -3 -10 -14 -10 -24 0 -17 10 -19 85 -20 47 0 85 2 85 4 0 2 -7
11 -15 19 -14 14 -13 16 10 22 14 3 29 12 33 20 4 8 12 10 21 5 18 -12 5 -31
-22 -31 -21 -1 -21 -1 -3 -11 14 -9 21 -8 27 2 8 12 10 12 18 0 5 -8 14 -10
22 -6 24 15 69 14 69 -2 0 -11 -7 -14 -24 -11 -14 3 -42 2 -63 -3 -27 -5 -11
-7 55 -6 56 1 91 6 90 12 -2 6 -9 9 -16 8 -7 0 -11 5 -8 12 3 8 0 16 -7 19 -7
2 -2 5 11 5 13 1 22 -5 22 -14 0 -8 5 -15 10 -15 6 0 10 -6 10 -14 0 -10 14
-14 50 -13 28 0 50 4 50 9 0 4 7 8 15 8 14 0 19 12 16 32 0 5 6 8 15 8 12 0
14 -7 9 -30 l-7 -30 87 0 c48 0 84 4 81 9 -3 5 1 12 10 15 12 5 15 2 10 -9 -5
-14 6 -15 77 -13 45 2 84 6 87 9 10 13 55 14 52 2 -1 -8 8 -13 23 -13 14 0 25
4 25 9 0 16 38 23 57 11 15 -10 14 -11 -9 -7 -16 2 -28 1 -28 -4 0 -5 174 -8
386 -9 357 0 388 1 400 17 13 17 13 17 14 1 0 -13 8 -18 29 -18 17 0 33 5 36
10 4 7 11 8 18 2 17 -14 394 -16 402 -2 3 5 0 10 -7 10 -8 0 -7 5 4 17 14 13
20 14 32 3 9 -7 16 -19 16 -26 0 -12 65 -14 385 -14 l385 0 0 89 c0 62 -4 91
-12 95 -10 5 -10 7 0 12 8 4 12 35 12 105 0 83 -2 97 -15 93 -8 -4 -15 -1 -15
5 0 6 7 11 15 11 12 0 15 15 15 74 0 50 -4 76 -12 80 -10 5 -10 7 0 12 8 4 12
33 12 95 0 58 -4 88 -10 84 -6 -3 -10 -1 -10 4 0 6 4 11 10 11 7 0 10 988 10
2935 l0 2935 -5910 0 -5910 0 0 -1850z m6631 -3244 c-7 -8 -8 -16 -4 -19 23
-14 159 -48 214 -53 35 -4 71 -11 79 -16 10 -6 3 -8 -22 -5 -45 4 -51 -8 -8
-16 42 -9 37 -26 -6 -22 -47 5 -32 -11 20 -21 28 -5 37 -4 32 5 -13 20 8 11
49 -20 43 -34 44 -34 -55 -9 -37 9 -46 9 -56 -4 -6 -9 -17 -16 -23 -16 -7 0
-10 -4 -6 -9 3 -5 0 -13 -6 -17 -7 -4 -9 -3 -6 3 4 7 -7 12 -28 15 -26 3 -41
-2 -57 -16 -17 -16 -24 -17 -41 -7 -16 10 -21 10 -28 -1 -7 -10 -9 -10 -9 3 0
12 -7 15 -27 11 -27 -4 -27 -4 -8 12 26 20 40 20 60 0 12 -13 19 -14 28 -5 8
8 6 15 -9 26 -10 8 -25 15 -31 15 -12 0 -17 16 -16 48 1 9 -6 12 -18 9 -10 -3
-19 -1 -19 3 0 5 -8 11 -17 14 -10 3 2 3 27 1 33 -4 40 -2 25 4 -11 5 -33 10
-48 10 -15 1 -30 8 -33 16 -8 21 4 67 16 60 6 -3 10 -1 10 4 0 6 7 11 16 11
13 0 14 -3 5 -14z m407 -85 c9 -6 60 -19 112 -31 132 -30 219 -50 257 -59 25
-7 30 -6 26 6 -6 15 -4 14 102 -33 49 -22 116 -28 126 -12 6 9 11 9 21 0 8 -6
35 -12 61 -14 36 -2 47 -7 48 -20 3 -38 5 -43 19 -40 10 1 9 -2 -3 -12 -18
-14 -17 -16 15 -32 20 -11 56 -17 92 -17 37 0 52 -3 40 -8 -17 -7 -16 -8 6
-10 34 -3 40 -2 75 5 26 6 27 6 11 -5 -16 -10 -38 -14 -89 -18 -5 -1 -6 -5 -3
-10 3 -4 -6 -6 -20 -3 -18 3 -22 7 -13 13 15 9 17 9 -76 34 -33 9 -63 22 -67
28 -5 8 -8 6 -8 -5 0 -9 6 -18 13 -21 6 -2 0 -6 -15 -9 -28 -5 -33 9 -15 38
10 18 -16 24 -73 17 -33 -4 -47 -9 -38 -14 7 -5 8 -9 2 -9 -6 0 -21 9 -34 20
-13 11 -31 20 -42 20 -10 0 -18 7 -18 17 0 13 3 14 12 5 7 -7 18 -12 26 -12
12 0 12 3 2 15 -14 17 -66 20 -75 5 -3 -5 0 -10 8 -10 8 0 17 -7 21 -15 3 -8
12 -15 20 -15 8 0 17 -4 21 -9 3 -6 -8 -8 -29 -4 -19 3 -36 1 -40 -6 -5 -7 2
-11 18 -11 14 0 26 -5 26 -10 0 -12 -119 -3 -132 9 -4 4 10 5 32 3 25 -3 40 0
40 7 0 6 -12 11 -28 11 -15 0 -36 6 -47 14 -12 8 -34 11 -52 9 -33 -5 -46 -22
-18 -24 8 -1 20 -2 26 -3 6 0 17 -10 24 -20 10 -13 31 -20 65 -24 54 -5 71
-19 18 -15 -49 3 -106 19 -132 36 -15 10 -27 12 -33 6 -12 -12 -45 -1 -37 12
3 5 -6 9 -19 9 -18 0 -27 -7 -31 -26 -6 -21 -12 -25 -31 -22 -13 3 -22 1 -19
-3 7 -13 2 -11 -36 7 -24 12 -29 19 -19 25 9 5 17 3 22 -6 4 -8 13 -15 19 -15
7 0 6 5 -2 15 -9 10 -9 15 -1 15 6 0 11 -4 11 -10 0 -5 9 -10 20 -10 12 0 20
7 20 16 0 10 -6 14 -15 10 -9 -3 -19 3 -25 14 -6 12 -21 20 -35 20 -13 0 -26
4 -30 9 -9 15 69 0 81 -15 6 -8 18 -12 26 -9 8 3 33 2 56 -4 23 -5 42 -5 42
-1 0 9 -10 12 -137 35 -69 13 -90 21 -86 31 3 10 -5 16 -26 20 -17 4 -31 10
-31 15 0 10 76 1 102 -12 9 -5 27 -9 40 -9 32 1 -38 26 -97 34 -24 4 -48 12
-51 18 -5 8 -1 9 12 4 30 -13 110 -20 99 -9 -13 12 -133 36 -144 29 -5 -3 -14
1 -21 9 -11 13 -6 14 36 9 27 -3 56 -8 64 -11 8 -3 33 -6 55 -8 32 -3 26 1
-35 21 -41 13 -84 24 -95 24 -17 0 -17 2 -5 10 19 12 17 12 38 1z m-240 -256
c2 -2 1 -9 -3 -15 -5 -8 -10 -8 -14 -2 -3 5 -14 -1 -24 -14 l-18 -24 26 12
c19 9 28 9 37 0 14 -14 28 -16 28 -3 0 5 -8 12 -17 14 -13 3 -11 5 7 7 23 1
23 2 5 10 -18 8 -17 9 7 9 15 1 30 -3 33 -9 3 -5 18 -10 33 -10 41 -1 139 -35
120 -43 -9 -3 -25 -3 -36 0 -11 2 -22 1 -25 -4 -4 -6 -1 -10 6 -11 31 -3 66
-11 107 -25 77 -25 140 -40 147 -34 3 3 -15 11 -41 18 -25 6 -46 15 -46 20 0
5 -10 9 -22 9 -13 1 -34 8 -48 16 -17 10 -18 13 -5 9 11 -4 47 -10 80 -14 33
-4 66 -10 73 -14 6 -5 12 -4 12 0 0 5 10 9 23 10 47 1 58 3 53 12 -4 5 3 7 13
4 33 -8 13 -33 -28 -33 -58 0 -66 -15 -9 -18 28 -1 56 -7 63 -12 7 -6 34 -13
61 -16 27 -4 54 -11 60 -15 6 -5 13 -7 15 -4 3 2 29 -2 59 -10 64 -17 120 -19
120 -5 0 6 -10 10 -22 10 -13 0 -36 7 -52 15 -16 8 -54 15 -87 15 -33 0 -59 4
-59 8 0 22 196 5 210 -18 6 -9 25 -13 53 -11 26 2 10 21 -17 21 -12 0 -33 11
-46 25 -16 17 -27 22 -35 15 -7 -6 -16 -5 -23 2 -9 9 -12 9 -12 0 0 -7 -4 -12
-10 -12 -5 0 -7 7 -3 16 6 16 -12 34 -34 34 -19 0 -16 -27 3 -38 11 -6 13 -11
5 -16 -6 -4 -11 -2 -11 4 0 6 -11 8 -27 4 -27 -6 -27 -6 -8 9 25 20 9 22 -27
3 -16 -8 -28 -11 -28 -5 0 5 -7 9 -15 9 -8 0 -15 -3 -15 -7 0 -5 -14 -8 -30
-9 -26 -1 -28 0 -13 12 10 7 22 10 27 7 5 -4 6 0 1 7 -6 10 0 12 28 7 39 -6
49 7 25 32 -9 9 -9 12 -1 7 6 -3 35 -8 63 -10 36 -3 61 -12 78 -28 15 -13 20
-15 13 -5 -8 9 -11 21 -7 24 4 4 -4 13 -16 21 -20 12 -15 13 50 8 41 -3 80
-10 87 -16 8 -7 19 -9 24 -6 5 4 16 -3 24 -14 11 -17 22 -20 53 -16 22 2 45
-1 53 -7 19 -16 101 -36 101 -25 0 5 -12 13 -27 18 -63 23 -68 28 -23 22 29
-3 53 -13 67 -29 18 -19 27 -22 42 -13 12 6 22 6 25 1 4 -5 26 -9 50 -9 24 0
52 -5 63 -10 10 -5 24 -7 31 -5 7 3 19 -1 27 -7 9 -7 15 -8 15 -2 0 15 32 9
52 -10 10 -10 24 -18 31 -18 8 0 7 4 -3 10 -13 8 -12 10 3 10 9 0 17 -4 17
-10 0 -5 9 -10 21 -10 11 0 18 4 15 9 -4 5 5 4 18 -2 35 -17 22 -28 -23 -21
-29 5 -39 2 -44 -9 -4 -11 -1 -14 9 -10 7 3 14 0 14 -6 0 -14 40 -14 74 -1 14
5 26 6 26 1 0 -5 17 -13 38 -19 20 -5 29 -10 19 -11 -10 -1 -15 -6 -12 -12 5
-7 15 -5 31 5 30 20 35 20 27 -1 -5 -13 -2 -15 12 -10 10 5 28 1 41 -8 13 -8
46 -16 74 -16 28 -1 53 -5 55 -10 3 -4 20 -3 37 2 17 5 34 6 37 4 2 -3 -1 -5
-8 -5 -7 0 -9 -5 -6 -10 3 -5 20 -10 36 -10 20 0 28 4 23 12 -4 7 -3 8 4 4 7
-4 24 -13 38 -21 22 -11 15 -12 -63 -8 -48 3 -90 9 -93 12 -3 4 -39 8 -80 10
-41 1 -80 7 -86 12 -7 5 -28 10 -48 11 -20 1 -36 5 -36 9 0 4 -7 10 -16 13
-14 5 -15 4 -4 -9 8 -9 9 -15 2 -15 -6 0 -15 7 -20 16 -7 13 -17 14 -59 6 -38
-7 -55 -5 -69 5 -10 7 -28 13 -40 13 -13 0 -28 8 -33 18 -9 15 -12 15 -20 2
-8 -12 -13 -12 -23 -2 -6 6 -29 12 -51 12 -26 0 -36 4 -31 12 4 7 3 8 -5 4 -7
-5 -23 -5 -37 -2 -21 6 -23 9 -14 26 13 24 5 40 -18 39 -15 -1 -15 -2 1 -6 25
-6 21 -21 -5 -20 -13 0 -30 -3 -40 -7 -11 -5 -18 -1 -23 13 -3 12 -14 21 -22
21 -13 0 -12 -5 7 -25 17 -18 30 -23 44 -19 35 11 40 10 41 -9 0 -19 59 -47
97 -47 33 0 103 -47 101 -68 -2 -15 3 -18 29 -14 19 3 28 1 25 -5 -4 -6 12 -9
41 -8 26 1 63 -4 82 -12 l35 -13 -32 6 c-17 3 -34 0 -38 -5 -3 -6 2 -11 12
-12 10 0 30 -2 46 -3 19 -1 26 2 23 11 -4 9 4 13 27 12 37 -1 92 -16 65 -18
-10 -1 -18 -5 -18 -11 0 -5 6 -7 13 -5 8 4 12 -5 12 -25 0 -18 -5 -30 -13 -30
-7 0 -10 -4 -7 -10 3 -5 15 -10 25 -10 10 0 22 -5 26 -11 4 -8 -3 -9 -25 -4
-20 4 -31 3 -31 -4 0 -6 -5 -11 -11 -11 -7 0 -9 9 -5 24 5 21 0 27 -37 45 -24
12 -50 21 -59 21 -9 0 -28 6 -43 14 -15 8 -34 12 -41 9 -8 -3 -14 0 -14 7 0 7
-8 10 -19 7 -12 -3 -22 1 -25 9 -6 16 -36 19 -36 4 0 -5 8 -10 18 -11 9 -1 1
-5 -18 -10 -47 -11 -100 -1 -128 24 -13 12 -35 26 -49 32 -23 9 -24 12 -9 24
14 12 16 11 16 -4 0 -15 2 -16 17 -4 14 12 16 12 8 0 -6 -11 -4 -13 8 -8 11 4
14 2 11 -8 -8 -19 63 -48 96 -39 l25 6 -25 11 c-27 11 -35 13 -65 16 -18 2
-18 3 3 12 17 6 30 4 48 -7 21 -14 24 -14 24 -1 0 8 -8 17 -17 20 -10 3 -35
12 -56 21 -22 10 -36 13 -33 7 4 -5 -3 -7 -15 -4 -14 4 -17 8 -9 13 7 4 1 9
-17 13 -15 3 -31 1 -34 -4 -3 -6 -16 -6 -33 1 -39 15 -54 12 -31 -6 11 -8 19
-20 18 -25 -2 -5 7 -10 20 -10 16 -1 18 -2 5 -6 -10 -2 -18 -13 -18 -24 0 -10
-4 -19 -10 -19 -5 0 -7 6 -4 14 3 7 -6 23 -20 33 -14 11 -23 23 -19 26 3 4 0
8 -8 10 -66 18 -129 42 -129 48 0 4 -13 7 -28 7 -15 -1 -37 4 -48 10 -24 13
-50 10 -66 -6 -9 -9 -4 -12 25 -12 21 0 46 -4 57 -10 11 -5 29 -15 40 -20 12
-6 26 -8 32 -4 7 4 8 3 4 -4 -5 -8 4 -12 26 -13 18 0 42 -4 53 -8 17 -7 17 -8
-7 -13 -16 -3 -25 -1 -21 5 3 5 -3 6 -16 2 -14 -4 -34 0 -55 13 -25 15 -37 17
-51 9 -14 -7 -20 -7 -23 2 -3 9 -7 9 -18 0 -10 -8 -21 -8 -41 0 l-28 11 33 -5
c24 -3 32 -1 32 10 0 11 -7 14 -25 9 -14 -3 -31 -2 -38 3 -19 15 -73 14 -86
-1 -10 -12 -6 -15 20 -21 23 -5 28 -10 18 -16 -19 -12 -42 -11 -34 1 3 6 -5
10 -18 10 -20 0 -24 -4 -20 -19 4 -15 17 -21 56 -26 29 -4 59 -11 67 -17 10
-6 2 -7 -25 -3 -22 4 -64 10 -92 14 -29 4 -56 11 -60 15 -5 4 4 5 18 1 24 -6
26 -4 22 19 -5 27 -23 47 -23 26 0 -6 -5 -8 -12 -4 -7 5 -19 9 -28 10 -50 7
-132 24 -140 29 -6 3 -10 2 -10 -2 0 -15 -55 -30 -78 -22 -20 8 -23 5 -21 -18
0 -5 7 -7 15 -5 8 2 22 -2 32 -8 16 -11 16 -11 0 -6 -10 3 -18 1 -18 -4 0 -5
15 -8 33 -7 17 1 45 -2 61 -6 23 -7 27 -5 23 7 -4 9 -2 16 3 16 6 0 10 -7 10
-15 0 -8 5 -16 10 -16 6 -1 15 -3 20 -4 6 -1 17 -3 25 -4 8 0 15 -8 15 -16 0
-11 11 -15 43 -13 36 1 38 2 10 5 -18 2 -33 9 -33 15 0 5 7 7 16 4 9 -3 24 -6
35 -6 14 0 18 -6 17 -24 -2 -20 -5 -23 -25 -15 -16 6 -21 5 -17 -5 3 -7 10
-13 17 -13 7 0 61 -10 120 -22 120 -23 137 -25 137 -13 0 5 -15 10 -32 11 -54
3 -58 4 -58 11 0 3 -16 4 -35 2 -27 -3 -35 0 -35 11 0 9 -13 18 -30 22 -34 7
-41 25 -9 25 28 0 113 -22 119 -31 3 -4 21 -11 41 -17 43 -12 101 11 79 31
-10 9 -14 9 -17 0 -3 -7 -9 -13 -14 -13 -4 0 -6 7 -3 15 4 10 0 15 -12 15 -14
0 -16 2 -6 9 11 7 11 9 -2 14 -9 4 -16 1 -16 -6 0 -8 -3 -9 -8 -1 -4 6 -14 14
-22 18 -8 3 3 4 24 1 22 -2 44 -11 48 -20 5 -8 17 -15 27 -15 11 0 21 -7 24
-14 4 -11 17 -14 44 -11 21 3 29 2 18 -1 -11 -3 -24 -10 -30 -15 -5 -5 -17 -9
-27 -9 -10 0 -18 -4 -18 -10 0 -5 6 -10 14 -10 8 0 21 -6 28 -13 7 -8 20 -17
28 -20 16 -7 -53 1 -82 9 -10 3 -18 1 -18 -5 0 -5 26 -12 58 -16 31 -3 87 -13
124 -21 79 -17 88 -17 88 -4 0 6 -10 10 -22 10 -44 0 -68 12 -68 32 0 11 -5
18 -12 16 -16 -6 -43 20 -33 30 4 4 10 1 12 -5 7 -18 20 -16 44 8 13 13 27 18
37 14 12 -5 13 -9 4 -12 -7 -3 -19 -18 -27 -33 l-15 -28 43 -8 c23 -4 49 -8
57 -8 9 -1 14 -9 12 -18 -2 -14 4 -18 32 -18 19 0 57 -5 85 -12 35 -8 58 -8
73 -1 14 6 31 7 43 1 18 -8 18 -8 -2 -4 -35 6 -37 -12 -2 -19 38 -9 30 -18
-18 -20 -21 -1 -51 -7 -67 -14 -16 -6 -31 -9 -34 -6 -3 3 1 5 9 5 20 1 -15 20
-46 26 -17 3 -25 0 -25 -10 0 -12 -4 -12 -30 0 -16 9 -30 20 -30 25 0 14 -63
7 -67 -7 -2 -7 5 -10 20 -7 27 5 52 -19 43 -42 -3 -8 -13 -15 -23 -15 -15 0
-16 2 -3 10 13 8 12 12 -4 27 -10 10 -15 12 -11 4 5 -9 4 -12 -3 -7 -10 6 -56
17 -137 32 -16 3 -55 15 -86 25 -66 23 -89 29 -144 35 -43 4 -138 48 -128 58
4 3 -6 6 -21 6 -16 0 -25 -4 -21 -10 8 -13 -5 -13 -25 0 -13 9 -13 10 0 10 13
0 13 2 0 9 -16 11 -33 4 -25 -10 4 -5 1 -9 -4 -9 -6 0 -11 6 -11 14 0 13 -71
46 -100 46 -13 0 -13 1 0 10 16 10 21 8 -65 36 -55 18 -77 32 -70 44 3 4 -7 8
-20 8 -14 0 -25 -1 -25 -3 0 -10 39 -44 58 -49 12 -4 22 -13 22 -19 0 -7 15
-21 33 -32 l32 -19 -29 -4 c-17 -2 -50 -1 -75 3 -37 6 -42 9 -27 17 10 5 27 7
38 5 12 -4 17 -2 12 3 -5 5 -21 10 -36 12 -29 4 -103 72 -94 87 3 5 -4 11 -17
15 -12 3 -30 19 -40 36 -18 30 -18 30 5 31 16 1 18 3 6 6 -10 2 -25 0 -35 -5
-11 -7 -23 -6 -35 2 -15 8 -21 8 -27 -3 -5 -7 -14 -10 -21 -6 -9 6 -9 9 1 16
10 6 4 10 -19 15 -23 5 -29 9 -21 15 16 9 7 13 -59 28 -35 7 -41 7 -32 -4 6
-7 20 -10 32 -7 14 3 19 1 15 -6 -4 -5 -1 -13 5 -16 10 -4 -23 1 -52 8 -3 0
-5 -3 -6 -9 0 -5 7 -9 18 -7 10 2 18 -2 18 -7 0 -13 -30 -14 -49 -2 -8 5 -12
18 -8 30 3 12 1 21 -5 21 -5 0 -6 5 -3 10 4 6 3 9 -2 8 -18 -5 -49 13 -58 34
-9 21 -7 24 30 34 35 10 83 10 93 -1z m-4 -176 c-2 -4 9 -4 25 1 23 6 31 5 36
-8 3 -8 0 -19 -7 -23 -9 -6 -5 -11 12 -17 22 -8 20 -9 -20 -16 -24 -4 -49 -11
-55 -15 -15 -13 -55 6 -55 25 0 14 8 16 50 11 29 -4 50 -2 50 3 0 16 -45 22
-83 12 -24 -7 -39 -6 -46 1 -6 6 -14 7 -18 3 -4 -4 0 -12 10 -17 26 -15 21
-29 -10 -30 -16 0 10 -10 55 -22 46 -12 78 -23 70 -26 -7 -2 -16 -9 -20 -15
-5 -7 -8 -4 -8 7 0 9 -8 17 -17 17 -14 0 -13 -4 6 -23 13 -15 19 -30 15 -41
-4 -9 -3 -16 2 -15 24 4 44 -2 39 -11 -4 -6 0 -22 9 -35 20 -30 20 -33 -1 -38
-15 -4 -14 -5 3 -6 37 -2 84 20 84 39 0 18 -17 20 -59 9 -8 -2 -15 5 -17 19
-3 20 -1 21 15 12 11 -5 29 -10 40 -10 12 0 29 -4 39 -9 9 -5 37 -14 62 -19
41 -9 42 -10 13 -11 -26 -1 -34 -6 -39 -26 -7 -27 -32 -33 -52 -13 -9 9 -12 9
-12 0 0 -7 -9 -12 -19 -12 -11 0 -22 -4 -25 -8 -5 -8 0 -9 66 -13 34 -3 36 -5
23 -19 -13 -15 -13 -19 4 -37 11 -12 17 -24 13 -28 -4 -4 3 -4 16 -1 12 4 22
3 22 -2 0 -6 10 -8 23 -6 16 3 15 2 -5 -7 -24 -9 -26 -13 -15 -30 6 -10 19
-19 27 -19 13 0 13 1 0 10 -11 7 -6 10 20 11 19 0 53 2 75 4 22 1 50 3 62 4
12 0 28 8 37 16 19 20 26 19 27 -2 0 -14 2 -13 9 4 5 13 17 23 25 23 9 0 13
-4 10 -10 -3 -5 7 -12 22 -16 44 -9 50 -12 24 -13 -20 -1 -21 -3 -11 -16 10
-13 9 -15 -9 -15 -11 0 -21 -6 -22 -12 0 -10 -2 -10 -6 0 -8 19 -22 14 -20 -8
1 -11 5 -20 10 -20 5 0 6 -9 2 -20 -6 -19 -5 -19 30 -4 20 8 34 10 30 5 -3 -6
-12 -11 -19 -11 -18 0 -15 -33 4 -42 23 -10 70 -9 70 2 0 6 5 10 10 10 6 0 10
-9 10 -20 0 -19 -5 -20 -57 -15 -96 9 -149 17 -135 22 6 3 9 9 6 15 -3 5 5 12
17 16 23 6 23 6 -6 12 -22 4 -29 11 -28 26 2 22 -18 26 -77 17 l-35 -6 33 -9
c32 -9 44 -28 17 -28 -8 0 -15 -4 -15 -9 0 -5 9 -7 20 -4 11 3 20 12 20 19 0
16 16 19 25 5 3 -5 0 -13 -6 -17 -8 -4 -7 -9 2 -15 11 -7 9 -9 -5 -9 -16 0
-15 -4 9 -24 16 -14 32 -23 37 -20 4 3 5 -2 2 -10 -4 -10 -1 -16 9 -16 8 0 18
-6 21 -12 5 -10 7 -10 12 0 3 6 10 12 16 12 6 0 16 7 22 15 8 10 15 12 26 5
13 -8 12 -10 -4 -10 -11 0 -17 -3 -13 -6 8 -8 -18 -34 -33 -34 -7 0 -9 -7 -6
-16 9 -23 -13 -47 -29 -34 -9 8 -12 4 -10 -14 2 -14 6 -29 9 -35 4 -5 2 -12
-3 -16 -6 -3 -8 -12 -5 -19 3 -7 -3 -19 -12 -27 -16 -13 -17 -12 -12 9 4 12 2
20 -3 16 -5 -3 -9 -1 -9 5 0 5 5 11 10 13 6 2 4 11 -5 23 -14 17 -16 17 -11 3
3 -10 1 -18 -3 -18 -5 0 -7 -10 -4 -22 5 -23 5 -23 -13 1 -17 23 -18 23 -25 5
-5 -14 -7 -11 -6 14 0 30 11 44 19 22 2 -5 13 1 25 14 l23 24 -26 5 c-18 3
-24 1 -20 -8 6 -16 -30 -12 -86 8 -28 10 -35 16 -27 27 5 10 9 11 9 3 0 -7 7
-10 15 -7 8 4 15 1 15 -6 0 -7 6 -10 14 -7 7 3 18 1 24 -5 8 -8 14 -4 22 16
11 29 13 46 6 46 -2 0 -12 3 -22 7 -11 4 -15 3 -11 -4 4 -6 -2 -13 -13 -16
-11 -3 -20 -1 -20 5 0 6 -13 7 -31 3 -22 -5 -29 -4 -25 4 4 6 0 11 -8 11 -18
0 -21 -16 -5 -26 11 -6 -9 -21 -58 -43 -19 -9 -28 -6 -49 14 -19 18 -22 25
-11 25 8 0 18 -6 20 -12 4 -10 8 -9 16 2 6 8 11 10 11 4 0 -7 7 -15 16 -18 12
-4 15 -2 10 9 -3 8 -1 15 4 15 14 0 0 32 -27 62 -28 29 -30 37 -13 48 7 4 9
13 5 19 -5 9 -10 9 -21 0 -11 -9 -15 -8 -20 6 -4 9 -1 20 6 25 9 6 9 9 0 15
-15 9 -25 -2 -25 -28 0 -16 -8 -23 -30 -27 -16 -4 -29 -11 -28 -17 2 -7 -6
-15 -17 -18 -11 -4 -18 -10 -15 -15 3 -5 12 -7 20 -3 10 3 15 -1 15 -15 0 -16
8 -22 33 -25 21 -2 15 -4 -21 -5 -54 -2 -66 -21 -14 -23 26 -1 26 -1 -5 -10
-42 -12 -53 -30 -16 -28 15 1 44 -2 63 -7 19 -4 52 -8 73 -8 23 0 36 -4 33
-11 -5 -14 66 -14 76 0 4 6 8 2 8 -8 0 -14 -7 -17 -37 -16 -21 1 -42 1 -48 -1
-20 -5 -36 0 -30 10 9 15 -2 12 -19 -6 -14 -13 -16 -13 -16 0 0 19 -18 25
-124 41 l-49 7 28 18 27 18 -63 -5 c-75 -5 -97 5 -83 38 9 18 12 20 24 8 8 -8
29 -13 45 -11 17 1 48 2 70 2 l40 0 -30 30 c-56 55 -59 60 -30 60 14 0 25 4
25 8 0 5 -10 8 -22 8 -17 -1 -22 4 -21 19 1 11 0 14 -3 8 -3 -7 -15 -13 -25
-13 -11 0 -18 4 -14 9 3 5 1 12 -5 16 -18 11 -11 -26 11 -57 12 -16 18 -32 14
-36 -4 -4 -13 1 -20 12 -8 10 -18 15 -24 11 -14 -8 -14 -25 0 -25 6 0 17 -7
25 -15 14 -13 13 -15 -5 -15 -12 0 -21 5 -21 11 0 5 -5 7 -11 3 -9 -5 -10 2
-5 22 3 16 9 59 12 97 6 61 9 67 30 67 12 0 26 5 29 10 3 6 0 10 -7 10 -20 1
-64 38 -55 47 5 4 12 1 17 -7 8 -13 10 -12 10 3 0 9 -4 17 -10 17 -9 0 -60
101 -60 118 0 12 49 -52 50 -65 0 -7 6 -10 13 -7 8 3 13 -4 14 -17 1 -12 4
-24 7 -27 9 -8 36 20 29 31 -3 6 -1 7 5 3 12 -7 5 -36 -9 -36 -4 0 -13 -9 -20
-21 -9 -19 -8 -20 10 -15 12 3 30 9 41 12 12 3 20 1 20 -6 0 -6 -4 -8 -10 -5
-5 3 -10 1 -10 -4 0 -6 9 -11 19 -11 11 0 23 -5 27 -11 3 -6 19 -9 35 -7 29 5
40 -6 17 -15 -7 -3 -4 -6 7 -6 15 -1 16 -4 7 -13 -19 -19 -14 -25 17 -20 16 2
32 10 35 17 6 17 -73 88 -91 81 -8 -3 -13 2 -13 12 0 10 -25 41 -55 70 -30 29
-55 55 -55 59 0 3 -12 25 -27 49 -19 30 -37 46 -56 50 -15 4 -30 11 -33 15 -3
5 -9 7 -14 4 -4 -3 -6 4 -3 14 3 11 11 22 19 25 8 3 19 17 24 32 9 24 14 26
48 21 20 -3 46 -2 56 2 19 7 19 8 -1 13 -12 3 -36 4 -54 2 -29 -4 -31 -3 -15
9 13 10 28 11 61 3 24 -6 42 -13 39 -17z m3098 -339 c9 0 18 4 20 9 2 5 14 4
28 -2 14 -5 33 -9 44 -8 10 2 16 -1 13 -6 -4 -6 17 -6 51 -2 42 6 64 4 86 -7
16 -7 54 -15 85 -16 43 -1 47 -2 18 -5 -59 -7 -32 -23 38 -23 47 0 64 -4 69
-15 8 -21 28 -19 24 2 -2 14 5 17 35 18 22 0 41 -3 44 -7 2 -5 25 -8 51 -8
l47 -1 -37 -18 c-43 -22 -138 -22 -164 0 -18 15 -85 19 -95 6 -4 -5 -15 -5
-25 0 -11 5 -65 9 -121 8 -84 -1 -103 1 -103 13 0 12 -9 13 -44 9 -37 -5 -43
-4 -42 10 0 10 -8 19 -19 21 -11 3 -25 12 -31 21 -7 9 -16 13 -20 8 -4 -4 1
-14 12 -21 10 -8 16 -18 11 -22 -4 -4 -18 3 -32 16 -16 15 -25 19 -25 10 0 -7
-3 -10 -7 -7 -3 4 -12 2 -20 -5 -11 -8 -12 -7 -7 6 3 9 10 16 16 16 5 0 7 4 3
9 -9 15 48 18 66 4 8 -7 23 -13 31 -13z m-1266 -23 c4 -4 -5 -7 -19 -7 -36 0
-35 -20 1 -21 l27 -1 -25 -7 c-14 -5 -41 -6 -60 -4 l-35 4 39 -15 c22 -8 43
-13 48 -10 4 3 8 0 8 -7 0 -8 4 -8 15 1 8 7 15 18 15 26 0 17 52 12 58 -6 3
-9 -2 -11 -18 -7 -16 4 -28 0 -36 -11 -17 -21 -18 -35 -2 -26 7 4 8 3 4 -4
-16 -26 -146 -8 -168 22 -4 6 -24 10 -45 11 -21 0 -44 4 -51 8 -6 5 -17 5 -23
1 -6 -3 -15 -1 -19 6 -4 7 -23 13 -41 14 -19 0 -40 7 -47 14 -11 10 -6 12 25
12 58 0 157 -20 165 -33 6 -9 8 -9 8 1 0 7 15 12 38 13 20 0 31 3 25 6 -7 2
-13 9 -13 14 0 4 6 6 14 3 8 -3 22 -1 32 4 19 11 69 10 80 -1z m2144 -122 c-5
-14 -6 -25 -2 -25 13 0 28 15 35 33 6 16 8 16 31 2 16 -11 35 -14 63 -9 48 7
63 -7 27 -27 -22 -11 -32 -11 -70 3 -24 8 -44 12 -44 7 0 -5 8 -9 17 -9 14 0
14 -3 -5 -15 -18 -14 -20 -19 -9 -36 9 -16 19 -19 42 -15 19 4 25 3 16 -3 -11
-7 -10 -11 5 -20 28 -15 9 -13 -33 4 -43 18 -46 18 -37 3 5 -8 2 -9 -10 -5
-10 4 -33 7 -51 7 -22 0 -43 9 -59 24 -32 29 -32 34 0 34 18 0 22 -3 13 -9
-10 -6 -8 -9 9 -9 14 0 21 4 16 11 -4 8 4 9 27 4 l34 -7 -23 21 c-12 13 -27
19 -34 15 -21 -13 -107 -10 -113 4 -3 9 3 10 20 6 14 -3 32 -1 40 6 8 7 28 9
47 6 18 -3 27 -3 21 0 -22 10 -14 24 12 24 22 0 24 -3 15 -25z m-2210 -58 c0
-12 70 -41 102 -42 14 -1 32 -6 40 -12 7 -7 33 -14 58 -18 79 -10 85 -11 109
-24 15 -8 21 -9 17 -2 -4 6 0 11 11 12 10 0 30 3 46 5 29 5 35 -4 15 -24 -13
-13 -15 -12 35 -40 21 -12 49 -22 63 -22 14 0 24 -6 24 -14 0 -8 6 -17 13 -19
6 -3 0 -6 -16 -6 -15 -1 -26 4 -25 11 2 7 -13 12 -36 14 -26 2 -43 10 -53 24
-11 16 -23 21 -44 18 -16 -3 -29 -1 -29 4 0 4 -15 8 -33 8 -19 0 -37 3 -41 8
-4 4 -11 7 -14 8 -4 0 -14 4 -22 7 -53 22 -111 37 -147 37 -28 0 -43 4 -43 13
0 7 -21 19 -47 26 -27 8 -53 18 -60 23 -7 6 -18 8 -25 6 -7 -3 4 -13 25 -22
42 -21 48 -29 13 -20 -13 3 -27 1 -30 -5 -4 -6 -17 -11 -29 -10 -20 1 -19 2 6
13 28 13 27 26 -4 26 -9 0 -29 6 -44 14 -25 13 -20 14 69 13 53 -1 96 -5 96
-10z m-2740 -159 c13 -35 24 -70 25 -78 0 -8 11 -17 25 -20 l25 -6 -25 -8
c-35 -12 -91 -56 -85 -67 4 -5 2 -9 -2 -9 -5 0 -9 17 -9 38 0 20 -8 67 -19
104 -18 65 -18 68 0 88 10 11 23 20 29 20 6 0 22 -28 36 -62z m3435 52 c4 -6
13 -7 23 -2 34 17 102 13 150 -8 61 -28 132 -50 157 -49 11 0 -1 7 -28 16 -92
31 -40 26 101 -9 42 -11 53 -22 30 -32 -7 -3 -2 -3 12 0 14 3 39 0 54 -6 16
-6 31 -8 34 -5 4 3 -4 8 -16 12 -24 6 -30 22 -9 24 6 0 21 3 32 5 59 14 85 14
105 -3 26 -23 25 -32 -2 -27 -13 2 -9 -1 9 -8 34 -14 61 -36 30 -25 -10 4 -40
8 -65 8 -26 1 -40 3 -31 6 11 2 15 11 12 23 -5 18 -5 18 -24 -1 -26 -26 -24
-33 16 -52 53 -25 42 -35 -27 -24 -35 5 -73 10 -85 9 -13 0 -23 4 -23 8 0 5
-15 6 -34 3 -36 -6 -155 11 -184 26 -32 17 -157 69 -207 87 -56 19 -78 34 -53
34 9 0 20 -5 23 -10z m-4945 -90 c0 -16 41 -18 55 -3 14 13 23 11 81 -17 51
-24 68 -29 79 -20 12 10 13 8 10 -9 -6 -30 -14 -41 -31 -41 -8 0 -14 -4 -14
-9 0 -4 -12 -7 -26 -5 -19 2 -24 -1 -20 -12 4 -11 0 -14 -17 -12 -17 2 -22 -2
-21 -19 1 -24 -10 -30 -21 -13 -4 6 1 22 9 35 15 22 15 25 1 25 -32 0 -8 35
29 41 11 2 21 10 24 18 4 11 -2 12 -23 7 -16 -4 -24 -3 -21 3 3 5 -1 11 -9 15
-8 3 -17 1 -20 -4 -4 -6 0 -10 7 -10 9 0 8 -4 -3 -16 -14 -13 -27 -14 -103 -4
-48 7 -90 9 -93 6 -3 -3 -12 -1 -20 5 -7 6 -30 13 -50 14 -44 3 -124 36 -105
43 8 2 18 0 24 -6 7 -7 18 -7 34 1 18 8 28 7 36 -1 13 -13 60 -16 72 -5 4 4
22 6 41 5 18 -2 36 1 39 7 7 11 56 -6 56 -19z"/>
<path d="M45 2610 c-17 -4 -23 -8 -15 -9 13 -1 13 -3 1 -10 -11 -7 -7 -10 15
-14 25 -3 24 -4 -8 -6 l-38 -1 0 -54 c0 -44 4 -55 18 -59 16 -4 16 -5 0 -6
-14 -1 -18 -10 -18 -41 0 -34 3 -40 21 -40 11 0 18 -4 14 -10 -3 -5 -12 -7
-20 -3 -10 3 -15 -1 -15 -15 0 -13 8 -22 23 -25 l22 -4 -23 -2 c-34 -2 -27
-45 8 -49 49 -5 71 -13 65 -22 -6 -10 7 -13 55 -12 16 1 19 -1 8 -4 -10 -3
-18 -9 -18 -13 0 -11 53 -11 60 -1 8 12 70 -1 70 -15 0 -8 16 -11 53 -9 67 3
69 5 27 15 -23 5 2 7 75 5 93 -1 104 0 72 9 -21 6 -35 14 -31 18 9 9 75 -2 92
-16 7 -5 15 -7 19 -3 3 3 2 6 -4 6 -6 0 -13 9 -16 21 -4 15 -2 19 9 15 7 -3
18 3 24 14 10 18 7 20 -20 20 -16 0 -30 4 -30 10 0 5 14 7 33 3 36 -7 42 -10
42 -25 0 -14 68 -19 76 -6 7 11 49 1 49 -12 0 -12 -37 -19 -78 -14 -31 3 -33
2 -12 -5 17 -6 20 -9 8 -10 -10 -1 -18 -5 -18 -11 0 -5 -4 -10 -10 -10 -5 0
-10 7 -10 15 0 8 -4 15 -10 15 -5 0 -7 -6 -4 -13 8 -21 -94 -51 -128 -38 -15
6 -30 6 -33 2 -3 -5 -15 -7 -28 -4 -21 4 -21 4 3 -11 14 -8 36 -21 50 -27 21
-10 22 -13 7 -16 -9 -3 -33 5 -52 17 -19 12 -43 19 -52 17 -17 -4 -17 -5 0 -6
10 0 15 -5 12 -11 -3 -5 1 -10 10 -10 14 0 45 -22 45 -32 0 -12 -152 -15 -214
-5 -32 6 -46 5 -42 -2 4 -5 33 -13 66 -17 51 -6 60 -10 60 -26 0 -14 -5 -18
-16 -14 -8 3 -12 2 -9 -4 3 -6 -4 -10 -17 -10 -18 0 -20 -2 -8 -10 12 -8 11
-10 -5 -10 -12 0 -26 -5 -31 -10 -8 -8 -19 -7 -39 0 -20 7 -31 8 -39 0 -12
-12 -76 -13 -95 -1 -12 8 -10 12 12 22 24 11 29 10 41 -7 12 -15 17 -17 27 -6
11 10 10 12 -4 12 -9 0 -17 5 -17 10 0 6 -11 10 -24 10 -14 0 -28 -4 -31 -10
-10 -16 -38 -12 -31 5 3 9 0 15 -9 15 -10 0 -15 -11 -15 -34 0 -33 1 -34 50
-40 51 -7 66 -24 30 -33 -11 -3 -20 -12 -20 -19 0 -17 -1 -17 -34 -4 l-26 10
0 -96 0 -96 78 6 c42 4 98 3 124 -2 26 -5 49 -5 50 -1 3 8 39 3 142 -18 18 -4
31 -1 37 8 7 11 9 11 9 -2 0 -14 10 -16 58 -13 253 16 577 23 642 14 91 -11
128 -11 85 1 -27 7 -26 8 10 4 22 -2 51 -7 65 -10 19 -5 22 -4 10 4 -14 10 -5
12 50 13 3 1 32 -2 65 -5 39 -4 53 -3 39 3 -32 13 -43 34 -13 24 13 -4 40 -9
59 -9 19 -1 54 -7 78 -12 23 -6 42 -7 42 -2 0 5 -10 9 -22 9 -13 0 -30 5 -38
11 -11 7 -7 9 20 8 19 0 51 0 70 0 32 2 33 3 17 15 -13 10 -27 12 -46 6 -15
-4 -34 -4 -42 0 -8 4 -25 11 -39 14 -24 7 -24 6 -6 -8 19 -15 17 -16 -25 -15
-24 0 -77 4 -116 7 -48 5 -74 4 -76 -3 -3 -7 -14 -6 -35 2 -36 13 -41 7 -14
-14 16 -14 16 -14 -1 -9 -10 3 -40 6 -65 7 -36 1 -41 3 -22 8 36 10 14 18 -55
20 -33 1 -61 6 -63 11 -2 6 -16 10 -32 10 -15 0 -33 7 -40 16 -10 11 -23 14
-53 9 -32 -6 -41 -4 -53 14 -24 33 -81 25 -124 -17 -13 -14 -12 -15 14 -8 27
7 27 6 11 -10 -14 -14 -21 -15 -36 -5 -11 6 -25 9 -31 5 -7 -5 -9 0 -6 14 4
15 2 22 -8 22 -8 0 -14 -3 -14 -7 0 -5 -17 -8 -38 -8 -20 1 -54 -6 -75 -14
-30 -11 -40 -12 -50 -2 -9 10 -8 11 6 6 10 -4 17 -2 17 4 0 6 -10 11 -22 12
-22 1 -22 1 2 9 14 4 20 8 13 9 -7 1 -23 13 -36 27 -18 19 -34 26 -61 26 -20
0 -36 4 -36 9 0 4 -18 13 -40 19 -21 6 -42 16 -46 22 -5 8 1 8 22 3 16 -5 52
-9 79 -10 28 0 55 -3 62 -8 6 -4 42 -9 80 -12 37 -3 84 -8 103 -11 19 -3 67
-8 105 -10 39 -3 74 -10 80 -15 14 -13 35 -11 35 4 0 8 -10 19 -22 26 l-23 11
23 -6 c12 -3 22 -1 22 5 0 5 -21 13 -46 17 -61 9 -108 54 -56 54 7 0 12 -6 9
-12 -4 -12 52 -28 153 -43 28 -4 31 -3 15 5 -17 9 -16 10 8 5 16 -3 27 -1 27
6 0 13 57 2 83 -16 16 -11 11 -13 -39 -14 -31 0 -59 -2 -61 -5 -10 -10 34 -41
62 -43 75 -7 103 -6 143 1 24 4 48 4 55 -1 7 -5 26 -6 42 -2 28 6 28 7 5 9
-25 2 -25 2 4 12 20 8 39 7 66 -2 21 -7 44 -10 51 -7 8 3 3 6 -11 6 -27 1 -66
21 -42 21 7 0 10 5 6 11 -3 6 -18 9 -32 6 -32 -6 -59 2 -42 13 8 5 7 9 -4 13
-10 4 -16 1 -16 -8 0 -8 -6 -15 -12 -14 -26 1 -53 17 -53 30 0 10 -11 13 -38
11 -35 -3 -51 11 -25 21 7 3 -3 6 -22 6 -19 1 -45 4 -58 7 -13 4 -22 3 -21 -2
4 -21 -2 -24 -23 -13 -22 12 -22 12 -3 19 11 4 -11 7 -50 6 -38 0 -88 2 -110
5 -24 4 5 7 75 8 73 0 141 -5 185 -15 39 -8 92 -18 118 -21 35 -4 45 -8 35
-15 -9 -7 -7 -8 10 -5 12 3 22 2 22 -3 0 -8 55 -24 77 -23 7 0 11 -3 8 -7 -8
-13 57 -21 71 -9 10 8 14 9 14 0 0 -6 11 -11 25 -11 18 0 23 4 19 15 -4 8 -16
15 -28 15 -42 0 -176 24 -176 31 0 8 118 4 228 -7 50 -5 75 -24 31 -24 -11 0
-17 -4 -14 -10 3 -5 -1 -10 -9 -10 -9 0 -16 -5 -16 -11 0 -16 43 1 58 22 14
20 42 26 42 10 0 -5 9 -7 20 -4 11 3 17 10 13 17 -3 6 3 3 14 -6 11 -10 23
-18 26 -18 4 0 7 8 7 18 0 12 9 18 33 19 23 2 28 0 17 -7 -11 -7 -4 -9 25 -9
22 1 31 4 20 6 -11 3 -22 9 -25 14 -5 7 -72 14 -190 18 -21 1 -22 3 -10 12 12
9 12 10 -3 5 -10 -3 -26 -6 -35 -7 -14 0 -13 -2 3 -10 13 -6 -6 -7 -55 -2 -41
3 -84 7 -95 7 -11 1 -26 5 -34 10 -8 5 -16 4 -22 -5 -6 -11 -9 -10 -15 4 -3 9
-13 17 -21 17 -8 0 -11 -4 -8 -10 3 -5 1 -10 -4 -10 -6 0 -11 7 -11 15 0 8 -7
15 -15 15 -8 0 -15 5 -15 10 0 6 25 10 56 10 41 0 53 -3 48 -12 -6 -10 -5 -10
7 -1 8 6 25 13 39 16 18 3 15 5 -13 6 -51 1 -117 23 -117 38 0 7 7 10 17 6 10
-4 14 -2 10 4 -4 6 -22 14 -42 17 -19 4 -41 17 -50 29 -14 21 -14 22 7 27 20
5 19 7 -12 19 -93 35 -124 62 -60 53 23 -3 30 0 30 12 0 10 -5 14 -10 11 -6
-3 -10 1 -10 9 0 23 14 20 41 -9 24 -25 46 -34 33 -14 -5 8 -1 8 14 0 11 -6
33 -10 49 -10 21 1 23 3 8 6 -11 3 -24 11 -28 19 -5 8 -24 14 -45 14 -21 0
-42 4 -48 10 -14 14 -54 1 -47 -16 6 -15 -22 -20 -31 -6 -3 5 -19 7 -37 4 -23
-3 -30 -1 -25 7 5 7 17 9 29 5 l22 -7 -20 23 -20 23 24 -6 c14 -3 20 -2 15 3
-5 5 -31 11 -59 13 l-50 3 58 2 c34 1 81 -6 115 -17 66 -22 145 -33 136 -20
-3 5 -16 9 -29 9 -13 0 -27 5 -30 10 -3 6 -17 10 -30 10 -13 0 -34 10 -46 23
-12 12 -19 17 -16 11 4 -7 1 -14 -6 -16 -16 -6 -157 14 -157 22 0 3 28 5 63 4
l62 -3 -60 10 c-33 5 -68 8 -78 5 -9 -2 -15 0 -11 5 3 5 26 10 52 10 l47 1
-50 13 c-33 8 -54 9 -62 2 -9 -6 -18 -6 -27 2 -21 18 -149 42 -160 31 -13 -13
-63 -13 -71 0 -9 15 -22 12 -22 -5 0 -8 5 -15 11 -16 127 -8 207 -19 186 -27
-8 -3 -20 -11 -27 -18 -10 -9 -7 -13 15 -17 43 -8 128 -35 115 -36 -21 -2 -14
-21 7 -21 11 0 20 -7 20 -15 0 -22 -18 -18 -47 11 -19 19 -33 25 -55 22 -16
-3 -31 -1 -34 3 -3 5 -16 3 -29 -3 -13 -6 -22 -15 -19 -19 9 -15 -23 -10 -35
5 -10 12 -8 15 7 18 19 3 18 5 -6 22 -14 11 -22 14 -18 8 4 -7 2 -10 -6 -7
-11 3 -95 13 -158 17 -8 1 -60 -1 -115 -4 -55 -3 -83 -3 -62 -1 62 7 41 19
-32 19 -38 -1 -64 -4 -58 -8 17 -11 4 -18 -21 -11 -17 4 -20 9 -12 18 8 9 3
14 -21 19 -43 8 -51 8 -44 -4 3 -5 17 -10 31 -10 14 0 23 -4 19 -9 -3 -6 4
-15 15 -21 11 -6 18 -15 15 -21 -11 -16 -25 -10 -37 16 -6 14 -19 25 -29 25
-9 0 -19 4 -21 8 -1 5 -30 16 -63 25 l-60 17 49 -6 c27 -3 55 -8 62 -11 8 -3
14 0 14 6 0 6 -8 11 -18 11 -9 0 -23 9 -30 20 -9 16 -24 20 -65 21 -102 2 -96
14 7 14 58 0 106 -3 106 -6 0 -4 10 -7 23 -8 12 0 42 -3 66 -7 27 -4 46 -2 50
4 4 7 19 8 44 2 21 -4 46 -6 57 -3 11 3 32 1 47 -4 15 -6 37 -7 48 -2 21 8 21
8 -45 14 -33 4 -110 31 -110 39 0 2 19 0 41 -5 23 -6 44 -7 47 -4 3 2 10 0 17
-5 14 -12 225 -20 225 -8 0 4 -10 8 -22 8 -33 0 -71 6 -88 13 -45 18 -457 40
-466 25 -3 -4 -10 -6 -15 -2 -5 3 -7 10 -4 15 4 5 0 9 -7 9 -7 0 -22 2 -33 4
-11 2 -33 1 -50 -4z"/>
<path d="M113 2182 c15 -9 27 -20 27 -24 0 -9 -28 1 -55 19 -11 7 -34 13 -52
13 -28 0 -33 -4 -33 -23 0 -21 6 -24 98 -35 121 -16 141 -18 222 -26 55 -5 60
-4 31 5 -25 8 -31 13 -21 19 7 4 20 6 28 2 10 -3 13 -1 8 6 -4 7 -16 12 -27
12 -20 0 -51 15 -80 37 -12 10 -19 10 -35 -2 -18 -14 -17 -14 13 -15 18 0 36
-6 40 -14 4 -7 15 -16 23 -19 9 -3 3 -6 -12 -6 -19 -1 -28 4 -28 14 0 8 -4 15
-10 15 -5 0 -10 -4 -10 -10 0 -18 -39 -11 -60 10 -21 21 -61 40 -83 40 -7 0 0
-8 16 -18z"/>
<path d="M60 1711 c29 -24 7 -29 -24 -6 -11 8 -23 15 -28 15 -4 0 -8 -92 -8
-204 l0 -203 33 -9 32 -8 -33 -3 -32 -4 0 -119 c0 -85 3 -120 13 -123 9 -4 9
-6 0 -6 -7 -1 -13 -10 -13 -22 0 -11 3 -18 8 -15 4 2 23 1 42 -4 l35 -8 -42
-1 -43 -1 0 -99 0 -100 56 0 c31 0 58 -1 60 -4 9 -9 -9 -37 -23 -37 -9 0 -13
6 -9 15 4 12 -3 15 -32 14 -34 -1 -35 -2 -12 -10 22 -8 21 -8 -7 -4 -32 4 -33
4 -33 -34 l0 -38 73 -6 c39 -3 137 -1 217 3 80 5 201 8 270 8 l125 -1 -95 -9
c-52 -5 -134 -10 -182 -11 -47 -1 -84 -6 -81 -11 3 -4 -14 -5 -38 -2 -37 6
-41 5 -28 -6 13 -11 -8 -12 -122 -10 l-139 4 0 -50 c0 -31 5 -53 13 -56 9 -5
9 -7 -1 -12 -7 -3 -12 -25 -12 -53 l0 -48 52 -2 c71 -2 75 -11 5 -11 l-57 0 0
-114 c0 -82 4 -116 13 -119 9 -4 9 -6 0 -6 -20 -1 -17 -91 2 -91 8 0 15 -4 15
-10 0 -5 -7 -7 -15 -4 -12 5 -15 -3 -15 -35 l0 -41 603 0 c427 0 598 4 587 11
-12 8 -9 9 10 4 45 -11 357 -16 333 -6 -13 6 -23 13 -23 16 0 8 114 -6 125
-16 11 -11 146 -12 172 -2 16 6 15 8 -7 14 l-25 7 28 1 c15 1 28 4 28 9 8 45
3 63 -18 68 -13 4 -23 10 -23 16 0 5 8 7 18 4 15 -5 19 -1 19 23 0 24 -5 30
-31 35 -18 4 -26 10 -20 15 5 6 30 5 61 -1 39 -8 53 -15 57 -32 11 -41 6 -86
-14 -121 -11 -20 -20 -38 -20 -40 0 -3 166 -5 368 -5 308 0 371 2 388 15 10 8
26 14 34 14 12 0 11 -2 -3 -13 -15 -11 23 -14 242 -15 171 -1 261 2 266 9 3 5
11 10 16 10 6 0 8 -4 4 -9 -3 -6 22 -9 60 -9 36 0 63 4 60 8 -3 5 -1 11 5 15
6 3 13 -1 16 -9 10 -25 44 -19 132 24 44 22 88 40 97 40 8 0 15 5 15 10 0 6
-9 10 -19 10 -11 0 -25 2 -33 5 -7 3 -22 -2 -33 -11 -11 -8 -15 -13 -8 -10 6
4 14 2 17 -3 9 -14 -43 -20 -54 -6 -12 14 13 41 28 31 5 -3 24 9 43 27 51 48
89 69 111 63 25 -6 48 15 48 43 0 15 6 21 23 21 35 0 107 38 107 56 0 12 7 15
25 11 18 -3 30 2 39 15 11 15 23 19 62 16 43 -3 49 -1 49 17 0 15 6 19 24 17
29 -4 41 12 41 55 0 22 4 31 13 27 7 -2 26 9 42 25 17 16 39 30 50 32 12 3 24
16 30 37 5 17 15 32 22 32 7 0 13 6 13 14 0 12 13 14 58 11 31 -2 51 -1 44 2
-10 4 -10 8 -1 19 6 8 8 14 3 14 -5 0 0 6 11 14 11 7 23 13 26 12 3 0 13 7 23
17 10 9 24 17 32 17 8 0 15 5 15 10 1 6 2 13 4 18 13 50 20 61 40 72 13 7 38
30 55 51 l31 38 -25 7 c-13 3 -32 5 -42 4 -39 -4 -50 0 -31 11 10 6 25 8 33 5
23 -9 53 11 47 32 -3 14 -12 17 -39 14 -37 -5 -49 14 -11 20 20 3 19 5 -10 20
-23 11 -33 13 -33 5 0 -8 -3 -8 -8 -2 -4 6 -18 11 -32 13 -14 2 -61 19 -105
39 -44 19 -95 40 -112 47 -24 8 -31 15 -27 28 2 9 0 19 -6 23 -5 3 -10 -2 -10
-12 0 -13 -8 -18 -27 -18 -16 -1 -31 3 -34 8 -8 11 -39 -3 -39 -18 0 -10 -10
-8 -39 6 -36 17 -42 17 -68 4 -27 -14 -21 -19 22 -16 19 2 19 1 2 -12 -19 -16
-24 -32 -5 -21 7 4 23 9 36 10 19 2 21 0 12 -11 -7 -8 -17 -12 -22 -9 -5 3
-18 -2 -29 -12 -17 -16 -19 -16 -19 -1 0 10 -4 17 -9 17 -5 0 -12 13 -16 30
-4 16 -11 33 -17 37 -7 4 -9 0 -5 -10 3 -9 2 -19 -3 -22 -16 -10 -11 -23 10
-30 26 -8 44 -42 34 -63 -4 -9 -6 -21 -5 -26 1 -5 -5 -6 -14 -2 -9 3 -19 6
-21 6 -2 0 -4 6 -4 14 0 8 -5 18 -11 22 -8 4 -9 -1 -4 -17 l7 -24 -21 23 c-25
25 -33 28 -25 8 7 -18 -23 -28 -46 -16 -21 11 -36 -2 -24 -21 4 -7 0 -9 -13
-5 -12 4 -29 -1 -44 -12 -29 -21 -85 -28 -104 -12 -7 6 -25 8 -39 4 -28 -7
-34 -19 -13 -27 23 -8 0 -18 -27 -11 -18 4 -25 11 -22 20 3 8 -1 14 -9 14 -8
0 -15 -5 -15 -11 0 -7 -12 -10 -30 -7 -16 3 -30 1 -30 -2 0 -13 -63 -21 -74
-10 -13 13 -53 13 -61 0 -3 -5 -13 -6 -23 -3 -15 6 -15 5 1 -14 12 -14 15 -23
8 -28 -6 -3 -11 -1 -11 5 0 6 -11 15 -25 22 -19 8 -28 8 -40 -2 -10 -8 -15 -9
-15 -1 0 14 -37 15 -45 1 -3 -6 -21 -10 -38 -10 -24 0 -28 3 -17 10 12 8 11
10 -7 10 -13 0 -23 -4 -23 -9 0 -5 -10 -13 -22 -17 -13 -4 -26 -11 -29 -16 -8
-13 -51 0 -44 13 4 5 19 9 34 9 16 0 36 9 47 21 13 14 26 19 44 15 27 -6 248
18 318 34 23 6 57 10 76 10 55 0 309 57 264 59 -21 1 -22 10 -4 33 8 11 31 19
62 22 63 5 63 5 34 18 -28 12 -46 17 -75 21 -11 1 -23 7 -27 12 -4 6 -18 10
-30 10 -13 1 -27 3 -33 7 -14 8 -76 -3 -70 -13 7 -10 -36 -8 -50 2 -6 4 -17 4
-25 -1 -12 -8 -12 -10 3 -10 10 0 25 -7 34 -15 8 -8 19 -13 24 -10 5 4 9 0 9
-8 0 -16 -35 -16 -52 1 -15 15 -38 16 -38 2 0 -5 -12 -10 -26 -10 -14 0 -23 4
-19 10 4 6 -8 10 -30 10 -22 0 -34 -4 -30 -10 4 -6 -8 -10 -29 -10 -30 0 -36
4 -36 21 0 17 -4 19 -22 13 -30 -9 -41 -27 -23 -36 15 -9 9 -42 -11 -59 -11
-9 -18 -9 -29 1 -10 9 -23 9 -47 2 -44 -14 -148 -21 -148 -10 0 4 9 8 21 8 12
0 18 4 13 11 -5 9 3 10 30 5 24 -5 36 -3 36 4 0 7 8 9 19 5 17 -5 19 -2 17 21
-3 26 -6 27 -62 28 -35 1 -63 6 -69 14 -8 10 -17 10 -43 1 -18 -6 -31 -13 -29
-15 2 -3 16 0 30 5 15 6 29 6 32 1 15 -24 -79 -28 -106 -4 -8 8 -25 14 -37 14
-12 0 -22 4 -22 8 0 12 58 14 65 2 3 -5 11 -10 16 -10 6 0 8 4 4 9 -7 13 28
23 51 14 17 -6 18 -5 4 13 -11 15 -11 16 0 6 21 -18 53 -15 79 9 19 18 27 20
47 10 30 -14 34 -14 34 -1 0 6 -7 10 -16 10 -8 0 -12 5 -9 11 4 6 20 7 38 3
l32 -6 -24 21 c-19 16 -26 18 -33 9 -6 -10 -8 -10 -8 -1 0 8 -15 12 -45 11
-36 -2 -45 -6 -45 -20 0 -13 -8 -18 -29 -18 -42 0 -47 16 -8 25 22 5 26 9 15
12 -26 6 -22 42 5 53 22 9 22 9 -3 8 -14 0 -38 4 -53 11 -35 14 -117 15 -117
1 0 -5 18 -13 40 -16 31 -5 40 -11 40 -26 0 -13 -4 -17 -12 -11 -7 4 -26 7
-43 6 -28 -2 -29 -2 -5 6 24 7 24 8 -10 15 -19 4 -48 9 -63 13 -19 4 -26 10
-23 22 12 45 15 88 6 101 -7 11 -10 8 -10 -16 0 -17 -6 -52 -14 -77 -7 -25
-11 -49 -8 -52 4 -3 -1 -3 -10 0 -11 5 -19 -2 -26 -24 -8 -21 -18 -31 -32 -31
-12 0 -19 -4 -16 -9 16 -25 -27 -58 -54 -41 -7 4 2 10 22 14 22 4 29 9 20 15
-18 11 -4 39 21 44 20 3 19 5 -8 17 -16 7 -36 12 -42 11 -7 -1 -13 5 -13 14 0
17 -25 21 -35 5 -3 -5 -1 -10 6 -10 7 0 10 -2 7 -5 -8 -8 -38 6 -38 17 0 5 13
13 28 19 29 10 40 39 15 39 -8 0 -12 -4 -9 -8 2 -4 -24 -8 -60 -9 -57 -1 -103
-17 -89 -31 2 -3 11 1 19 7 10 8 16 9 21 1 3 -5 -2 -13 -12 -17 -57 -20 -105
-43 -88 -41 23 3 45 -9 45 -23 0 -5 -7 -9 -15 -9 -8 0 -15 5 -15 10 0 6 -11 8
-27 4 -50 -12 -46 -22 11 -29 31 -4 54 -11 51 -15 -3 -5 5 -6 17 -2 21 5 21 5
2 -20 -22 -30 -51 -30 -105 -2 -39 20 -103 19 -137 -2 -12 -8 -28 -11 -35 -7
-17 10 -77 12 -77 1 0 -4 -12 -8 -27 -8 l-28 0 28 19 c24 16 26 19 12 31 -29
24 -17 33 35 26 58 -8 67 6 13 20 -44 11 -53 29 -18 38 31 8 48 -1 41 -19 -3
-8 3 -16 15 -19 10 -4 29 -9 40 -12 14 -4 19 -2 15 4 -9 15 29 25 96 26 41 1
62 6 73 18 8 10 12 16 9 13 -4 -3 -14 0 -21 7 -15 12 -22 14 -90 22 -25 3 -43
1 -43 -4 0 -6 -11 -10 -24 -10 -14 0 -28 -4 -31 -10 -8 -13 -45 -13 -45 0 0 6
-13 10 -30 10 -16 0 -30 5 -30 10 0 13 57 13 65 0 4 -6 11 -7 17 -4 6 4 -9 16
-32 26 -24 11 -39 23 -34 26 5 4 9 15 10 25 3 64 3 64 25 34 18 -24 27 -27 70
-26 55 2 56 12 1 30 -20 6 -42 15 -48 20 -6 5 -15 5 -19 1 -5 -4 -5 -2 -1 5 3
6 2 14 -4 18 -22 13 -8 24 25 20 25 -4 33 -1 29 8 -6 16 57 38 87 30 21 -6 21
-6 -2 -19 -33 -18 -7 -17 63 2 44 13 58 21 56 33 -2 10 -14 16 -33 17 -66 2
-76 4 -69 16 5 8 -5 9 -36 5 l-42 -5 5 34 6 35 -35 -30 c-34 -31 -35 -31 -62
-14 -15 10 -33 23 -40 30 -16 15 -26 17 -17 4 3 -5 1 -12 -5 -16 -6 -3 -13 1
-16 9 -3 9 -14 16 -23 16 -14 0 -14 -2 -1 -10 21 -13 7 -22 -25 -14 -20 5 -23
9 -13 15 10 7 10 9 -2 9 -8 0 -22 -5 -30 -10 -10 -6 -22 -5 -35 4 -11 7 -33
16 -50 20 -21 5 -26 4 -15 -3 17 -12 14 -16 -23 -25 -19 -4 -26 -3 -22 4 3 5
2 10 -2 10 -14 0 -32 -36 -24 -48 10 -17 180 -42 209 -31 13 5 34 9 48 9 14 0
27 7 30 15 7 18 27 19 55 4 16 -8 18 -13 8 -25 -6 -7 -9 -23 -6 -33 3 -12 -3
-27 -14 -37 -15 -13 -16 -19 -7 -25 10 -7 10 -15 -4 -41 -18 -36 -31 -73 -26
-73 2 0 -7 -14 -19 -31 -12 -17 -20 -34 -16 -38 3 -3 -1 -14 -10 -24 -10 -10
-14 -22 -11 -25 4 -4 1 -14 -6 -22 -8 -9 -13 -38 -12 -68 1 -34 -4 -57 -14
-69 -9 -9 -13 -21 -10 -27 3 -5 -4 -22 -17 -38 -31 -37 -40 -63 -24 -69 21 -8
19 -74 -5 -123 -35 -71 -40 -74 -99 -62 -27 6 -67 12 -87 13 l-37 1 33 4 c29
4 31 6 17 20 -21 21 -10 30 12 10 23 -20 73 -39 73 -28 0 5 -10 12 -22 15 -22
7 -22 7 -3 16 19 8 19 9 1 9 -10 1 -24 8 -30 16 -9 11 -23 13 -68 6 -32 -4
-58 -4 -58 -1 0 11 57 20 77 13 16 -6 16 -5 4 10 -16 20 -8 35 11 20 7 -6 29
-14 48 -18 19 -4 47 -19 62 -33 15 -14 31 -23 34 -19 4 4 -8 21 -27 39 -18 18
-34 39 -35 46 -2 7 -14 23 -28 35 -33 29 -33 34 5 42 23 5 28 9 18 16 -11 7
-9 9 6 9 12 1 4 7 -20 16 -63 25 -90 27 -123 10 -17 -9 -50 -15 -74 -15 l-43
2 50 7 c28 4 68 14 89 23 27 10 48 12 65 6 15 -5 48 -5 76 0 28 5 42 9 33 10
-9 0 -20 6 -23 11 -4 7 3 9 22 5 22 -4 24 -4 8 3 -35 16 -221 20 -254 6 -9 -4
-59 -7 -111 -7 -52 0 -85 -2 -72 -4 l23 -4 -25 -20 c-13 -10 -36 -19 -51 -19
-15 0 -24 -4 -20 -10 3 -5 -1 -10 -11 -10 -14 0 -14 -3 -4 -15 18 -22 5 -30
-20 -12 -18 13 -19 16 -5 27 13 11 13 15 3 21 -18 12 -40 11 -33 -1 4 -6 -7
-10 -24 -10 -40 0 -39 7 1 23 20 8 48 11 75 7 23 -4 46 -4 50 -1 10 7 10 37 0
47 -4 4 -7 -2 -7 -14 0 -23 -14 -29 -25 -12 -3 6 -15 10 -26 10 -11 0 -22 7
-25 15 -4 8 -18 15 -34 15 -15 0 -33 7 -40 15 -19 22 16 20 68 -5 22 -11 44
-20 47 -20 3 0 5 9 5 20 0 11 -5 20 -11 20 -5 0 -8 4 -5 9 4 5 0 12 -6 14 -12
5 13 10 52 10 32 1 69 -26 75 -55 7 -29 8 -30 58 -24 29 4 82 8 119 11 36 2
90 12 118 21 50 16 51 16 66 -5 8 -11 23 -21 32 -21 10 0 13 3 7 8 -5 4 -10
13 -11 20 -2 28 -4 33 -13 27 -5 -3 -16 4 -24 16 -8 11 -16 16 -18 11 -2 -6
-22 -14 -43 -18 -28 -5 -37 -4 -32 5 4 6 16 11 27 11 23 0 26 18 4 26 -8 4
-15 12 -15 20 0 16 -55 20 -65 4 -3 -5 -14 -10 -23 -9 -12 0 -11 3 6 9 31 13
28 15 -20 14 -58 -2 -75 5 -82 29 -7 28 -5 29 33 16 25 -9 35 -9 40 0 6 8 15
9 34 2 17 -7 27 -7 27 -1 0 6 -10 10 -22 10 -17 0 -19 3 -9 9 8 5 -12 7 -50 5
-35 -1 -86 -3 -113 -3 -42 -1 -47 -3 -36 -16 7 -8 19 -15 26 -15 8 0 14 -5 14
-11 0 -6 9 -1 20 12 l19 24 1 -26 c0 -18 8 -29 26 -37 14 -7 22 -17 19 -23 -4
-6 -11 -7 -18 -1 -13 10 -121 14 -149 6 -9 -3 -15 -11 -12 -18 4 -10 -8 -14
-45 -14 -27 -1 -53 -2 -58 -3 -4 -1 -10 0 -13 1 -3 1 -21 3 -40 5 -19 2 -36 8
-38 14 -2 6 -13 11 -25 11 -21 -1 -21 -1 -4 -14 15 -12 16 -14 2 -20 -33 -12
-12 -22 48 -20 47 2 55 1 32 -5 -16 -5 -45 -9 -62 -10 -18 0 -33 -5 -33 -9 0
-5 -35 -7 -77 -5 -66 3 -74 2 -53 -9 24 -11 23 -12 -20 -18 -25 -3 -53 -2 -62
2 -10 5 -99 7 -198 6 -137 -2 -177 0 -165 8 14 10 11 16 -17 45 -18 19 -42 39
-53 46 -18 11 -16 12 15 10 23 -2 35 -8 35 -17 0 -8 8 -14 18 -14 9 1 15 -2
12 -6 -2 -4 4 -17 15 -30 17 -19 31 -23 102 -25 55 -2 71 0 48 5 -46 10 -82
24 -81 33 3 21 0 27 -14 27 -8 0 -15 4 -15 10 0 5 -14 7 -32 4 -26 -4 -30 -3
-18 5 17 13 120 4 135 -11 7 -7 1 -8 -17 -4 -16 3 -28 4 -28 1 0 -12 56 -54
73 -55 24 0 21 16 -5 25 -21 7 -22 7 -4 12 11 3 25 -2 31 -11 13 -16 57 -36
82 -36 24 0 7 13 -35 27 l-37 13 50 -5 c34 -2 44 -1 30 5 -11 5 -32 9 -47 9
-16 1 -28 6 -28 11 0 6 -7 10 -16 10 -9 0 -27 9 -41 20 l-26 20 23 0 c13 0 28
-7 34 -15 12 -16 46 -18 169 -13 55 2 82 0 89 -9 7 -9 7 -13 -1 -13 -7 0 -10
-4 -6 -9 3 -5 21 -7 40 -4 27 4 35 2 35 -10 0 -8 9 -17 21 -20 16 -4 18 -3 8
9 -9 11 -8 14 7 15 13 0 9 4 -11 11 -16 6 -41 19 -54 29 -13 11 -31 19 -40 19
-9 0 -27 7 -40 16 -18 13 -49 16 -139 17 l-117 0 95 7 c52 4 107 11 123 15 17
5 33 3 42 -5 12 -10 16 -9 21 4 6 17 44 23 44 7 0 -5 17 -15 37 -22 21 -6 44
-18 51 -26 7 -7 19 -13 25 -13 7 0 6 4 -3 10 -12 8 -10 10 8 10 14 0 21 4 16
11 -7 12 15 7 66 -14 14 -6 32 -11 40 -11 8 -1 14 -6 13 -12 -1 -7 6 -10 17
-7 11 3 20 8 20 12 0 3 23 4 51 2 61 -4 81 10 42 28 -16 7 -36 17 -45 22 -10
5 -25 9 -33 9 -8 0 -15 5 -15 10 0 9 14 14 33 11 14 -2 51 -2 147 3 148 6 190
33 59 38 -39 1 -77 -4 -97 -12 -29 -13 -34 -13 -42 0 -6 9 -10 10 -10 3 0 -19
-35 -25 -65 -11 -24 11 -25 13 -8 19 16 7 16 8 -4 8 -12 1 -34 -4 -50 -10
l-28 -12 24 -6 c14 -4 27 -13 29 -21 5 -13 3 -13 -12 -1 -9 8 -37 15 -61 15
-25 1 -45 6 -45 12 0 7 -19 8 -57 3 -32 -4 -68 -8 -81 -8 -13 -1 -20 -5 -17
-11 4 -6 -10 -8 -37 -4 -24 3 -115 1 -203 -4 -88 -5 -161 -8 -163 -7 -2 2 -4
12 -5 24 -1 16 -10 22 -44 27 -24 3 -46 10 -49 15 -3 5 -14 9 -25 9 -34 0 -20
18 19 24 20 3 110 8 200 12 89 3 162 10 162 15 0 5 -8 9 -17 9 -15 0 -16 2 -3
10 8 5 25 10 38 10 19 0 22 -4 17 -20 -6 -19 9 -27 40 -20 41 9 158 10 193 2
23 -5 42 -6 42 -2 0 5 18 8 40 8 23 0 44 2 47 6 4 3 -12 6 -35 6 -22 0 -42 3
-44 8 -5 12 -68 53 -68 45 0 -4 -4 -14 -9 -21 -6 -10 -16 -6 -42 17 -35 32
-102 45 -96 19 4 -23 40 -37 61 -26 16 9 23 6 36 -10 9 -11 28 -22 41 -25 13
-2 0 -5 -29 -6 -31 0 -65 5 -80 13 -15 8 -44 18 -64 21 -46 7 -50 25 -7 25 17
0 28 4 24 10 -3 6 -15 10 -26 10 -12 0 -19 5 -16 13 2 6 20 12 41 12 26 0 40
6 48 19 9 16 7 17 -11 11 -12 -4 -21 -2 -21 4 0 6 11 11 25 11 17 0 29 -8 36
-24 13 -27 73 -52 66 -27 -1 5 1 9 6 10 4 1 8 -2 9 -6 4 -23 37 -31 105 -26
55 5 73 3 73 -7 0 -7 -8 -10 -20 -7 -11 3 -22 1 -25 -4 -3 -4 -17 -4 -30 1
-19 7 -25 6 -25 -5 0 -11 14 -13 68 -9 116 8 127 10 130 28 5 25 92 23 92 -2
0 -10 -5 -23 -11 -29 -7 -7 -3 -9 15 -6 21 4 24 8 15 19 -9 11 -6 14 17 14 27
0 27 0 8 18 -11 11 -27 17 -39 14 -17 -5 -18 -3 -7 10 16 19 2 31 -25 21 -16
-6 -16 -5 -4 10 19 24 36 21 59 -8 11 -14 28 -25 38 -25 9 0 26 -8 36 -17 18
-16 18 -16 12 0 -4 12 -1 17 10 17 9 0 19 -6 22 -14 4 -9 17 -13 40 -12 19 2
34 -1 34 -5 0 -5 -10 -9 -22 -9 -12 0 -18 -3 -14 -7 4 -4 33 -8 64 -9 31 0 45
1 30 3 -31 5 -38 22 -10 24 9 1 4 5 -13 9 l-30 8 30 2 30 2 -35 9 c-19 5 -54
9 -78 10 -23 1 -45 6 -49 12 -4 6 2 8 15 5 12 -4 22 -2 22 3 0 5 7 9 15 9 8 0
15 5 15 10 0 13 -23 12 -79 -1 -35 -8 -48 -7 -68 6 -16 11 -34 14 -54 10 -16
-4 -35 -2 -42 3 -7 6 -45 8 -95 5 -51 -4 -78 -9 -70 -14 13 -9 10 -9 -42 -13
-8 -1 -20 -4 -27 -9 -6 -4 -19 -4 -30 -1 -13 4 -15 3 -4 -4 11 -8 11 -10 0
-14 -26 -9 -3 -18 55 -20 83 -3 80 -18 -4 -17 -58 1 -72 5 -80 20 -6 10 -36
26 -70 37 -33 10 -57 22 -53 26 5 5 -2 4 -14 -3 -23 -12 -86 -15 -96 -5 -3 3
-29 7 -59 10 -34 2 -48 0 -38 -6 13 -8 -43 -5 -92 5 -10 2 -18 -1 -18 -5 0 -5
8 -10 18 -12 9 -2 -32 -3 -93 -2 -82 1 -104 -1 -87 -9 12 -5 22 -14 22 -20 0
-5 -10 -6 -22 -2 -13 4 -46 10 -75 14 -29 4 -56 11 -60 15 -4 4 15 5 42 1 39
-6 47 -5 39 5 -7 6 -40 15 -75 20 -35 4 -72 11 -83 15 -10 5 -21 3 -25 -4 -5
-8 -12 -8 -25 2 -16 11 -13 13 25 16 59 3 63 11 7 11 -26 0 -48 4 -50 9 -1 5
-70 12 -153 16 l-150 7 25 -21z m774 -663 c12 -7 22 -6 29 1 6 6 22 10 36 10
18 -1 20 -3 8 -6 -9 -2 -15 -9 -12 -14 4 -5 -1 -9 -9 -9 -9 0 -16 -5 -16 -11
0 -6 7 -8 16 -5 8 3 24 1 34 -4 13 -7 21 -7 25 0 3 6 -4 10 -16 10 -18 0 -19
2 -9 15 7 8 20 15 29 14 12 0 11 -2 -4 -9 -22 -9 62 -16 143 -11 24 1 42 -2
42 -8 0 -6 8 -11 17 -11 13 0 14 3 6 11 -9 9 -8 15 2 25 17 18 31 18 16 1 -7
-10 -7 -17 0 -24 12 -12 -25 -43 -51 -43 -13 0 -13 1 0 10 28 18 -26 11 -59
-7 -25 -15 -34 -16 -51 -5 -11 6 -28 12 -37 11 -16 0 -15 -2 2 -10 19 -9 1 -8
-80 6 -11 2 -33 4 -50 5 -16 1 -24 4 -17 7 21 8 14 21 -20 37 -56 25 -74 27
-88 11 -10 -13 -9 -15 8 -15 11 0 35 -7 53 -15 l34 -16 -40 6 c-85 11 -95 12
-95 3 0 -4 -30 -7 -67 -7 -38 1 -55 4 -39 6 22 4 26 7 15 13 -27 17 3 30 46
20 54 -13 77 -11 40 3 l-30 12 40 6 c47 8 122 1 149 -13z m1896 -179 c0 -6 -9
-13 -20 -16 -19 -5 -20 -6 -3 -19 17 -12 16 -13 -7 -15 -17 -1 -20 -3 -7 -6 9
-2 17 -9 17 -14 0 -5 9 -9 21 -9 11 0 18 -4 15 -9 -3 -5 10 -12 29 -15 21 -4
33 -11 29 -17 -3 -6 -15 -9 -25 -6 -29 8 -23 1 21 -22 22 -11 40 -16 40 -11 0
6 -5 10 -12 10 -7 0 -5 5 5 13 9 6 22 26 28 42 10 24 13 26 16 12 3 -10 0 -24
-7 -32 -7 -9 -8 -15 0 -20 7 -4 6 -13 -2 -28 -7 -12 -13 -26 -13 -32 0 -5 -9
-9 -18 -7 -15 3 -17 0 -8 -17 6 -11 11 -27 11 -36 0 -9 6 -22 13 -30 22 -23
47 -55 47 -60 0 -16 -32 -1 -40 19 -6 17 -18 26 -37 28 -16 2 -27 8 -25 16 1
6 -7 12 -17 12 -11 0 -22 4 -26 10 -3 5 -13 6 -23 3 -15 -6 -15 -5 -3 10 12
15 11 17 -3 17 -9 0 -16 -4 -16 -10 0 -13 -57 -13 -65 -1 -3 5 5 11 17 13 23
4 22 5 -4 16 -14 6 -29 16 -33 21 -3 6 -18 8 -33 5 -21 -4 -24 -3 -12 5 13 9
12 11 -4 11 -14 0 -17 3 -10 10 8 8 19 7 39 0 15 -6 30 -8 33 -5 10 10 -5 15
-46 18 -55 3 -54 17 1 17 25 0 54 -8 72 -20 36 -24 42 -25 42 -5 0 8 -6 15
-14 15 -7 0 -13 4 -13 9 0 5 -10 12 -22 16 -27 8 -27 8 -53 0 -18 -6 -17 -4 4
14 l23 21 -26 0 c-16 0 -26 -6 -26 -15 0 -8 -6 -12 -15 -9 -21 8 4 44 30 42
37 -2 56 2 50 12 -3 6 -17 10 -31 10 -13 0 -24 5 -24 10 0 7 -6 7 -19 0 -11
-5 -48 -10 -82 -10 -47 0 -65 -4 -75 -17 -13 -17 -13 -17 -14 2 0 12 -3 16 -8
9 -4 -6 -15 -12 -24 -13 -10 -1 -30 -3 -45 -5 -16 -1 -41 -8 -57 -15 -16 -6
-31 -9 -34 -7 -3 3 4 8 14 12 10 3 28 10 39 14 22 9 91 22 117 22 10 -1 20 3
23 9 4 5 27 9 53 10 26 0 81 6 122 13 97 17 130 19 130 5z m-852 -110 c10 0 5
-6 -12 -14 -28 -12 -29 -13 -9 -23 11 -6 24 -8 28 -4 5 4 5 2 1 -5 -3 -7 2
-14 14 -18 23 -7 25 -18 7 -34 -20 -16 -78 -26 -86 -14 -3 5 -15 15 -26 21
-19 10 -19 11 5 20 38 15 3 25 -48 14 -28 -7 -40 -6 -36 0 4 6 -1 8 -12 5 -11
-3 -71 -8 -134 -10 l-115 -5 65 13 c36 7 92 16 125 18 33 3 73 10 88 16 16 6
46 11 68 11 28 0 38 4 33 12 -5 8 -2 9 10 5 10 -4 25 -7 34 -8z m467 -110 c5
-5 17 -9 27 -9 27 0 78 -28 111 -61 16 -16 36 -29 45 -29 24 -1 53 -25 50 -41
-2 -8 12 -15 37 -20 47 -8 79 0 49 13 -11 4 -3 5 21 1 22 -3 45 -8 50 -12 6
-3 21 -4 34 -2 13 1 21 -1 18 -6 -3 -5 4 -15 15 -22 18 -11 20 -11 15 1 -4 12
3 11 31 -4 20 -10 46 -18 58 -18 12 0 27 -7 34 -15 7 -8 19 -15 26 -15 17 0
18 -36 2 -44 -10 -3 -8 -9 5 -19 10 -9 19 -19 20 -24 1 -4 21 -8 44 -8 23 0
45 -4 49 -8 4 -4 22 -5 40 -1 20 4 34 1 39 -7 6 -9 1 -10 -19 -5 -14 3 -26 3
-26 -2 0 -4 -9 -8 -20 -8 -11 0 -20 3 -20 6 0 3 -22 5 -49 5 -27 0 -47 -3 -44
-8 2 -4 11 -7 19 -7 19 0 18 -16 -1 -24 -8 -3 -15 -10 -15 -15 0 -6 7 -8 15
-5 8 4 17 -1 21 -10 8 -20 28 -20 48 0 14 13 16 13 16 1 0 -22 30 -30 31 -9 1
16 2 16 6 -1 3 -10 14 -17 29 -17 14 0 27 -7 31 -16 6 -15 7 -15 19 0 8 11 14
13 19 7 9 -16 18 -14 44 10 12 11 29 18 37 15 7 -3 14 -1 14 4 0 6 6 10 14 10
8 0 17 4 21 9 3 6 -10 8 -32 5 l-38 -5 40 15 c24 9 41 11 43 6 2 -6 17 -10 33
-10 19 0 28 4 24 11 -4 6 -12 8 -19 6 -6 -3 -17 6 -23 20 -11 22 -10 23 10 17
12 -4 29 -7 37 -6 8 1 40 4 71 8 64 7 91 -10 32 -21 -26 -5 -33 -9 -23 -15 10
-6 2 -11 -28 -16 -23 -3 -39 -11 -36 -15 3 -5 2 -9 -3 -8 -4 1 -15 0 -23 -4
-57 -21 -113 -35 -125 -30 -8 3 -15 0 -15 -6 0 -18 -79 -32 -153 -27 -40 3
-63 3 -52 0 11 -3 25 -11 30 -16 7 -8 5 -9 -7 -5 -9 3 -18 2 -20 -2 -2 -5 -23
-5 -48 -1 -25 4 -40 8 -35 9 6 1 3 5 -5 11 -8 5 -12 12 -8 15 3 3 12 -1 20 -9
10 -9 20 -11 29 -5 11 7 9 10 -8 15 -23 6 -32 24 -12 24 5 0 8 4 5 8 -3 5 -20
7 -38 5 -110 -13 -137 -11 -76 5 l32 8 -47 29 c-47 30 -58 45 -34 45 8 0 7 4
-3 10 -17 11 -10 13 14 4 9 -3 13 -10 10 -15 -6 -10 35 -49 51 -48 6 0 5 3 -2
5 -7 3 -10 11 -7 19 4 9 13 11 34 5 24 -7 27 -5 23 11 -3 11 -14 19 -27 19
-17 0 -18 2 -6 10 13 9 12 12 -4 21 -15 9 -16 13 -5 20 10 7 5 9 -16 7 -41 -4
-57 -19 -36 -35 22 -17 10 -16 -35 3 -34 14 -36 18 -19 24 18 6 17 9 -12 23
-18 10 -47 17 -65 18 l-33 1 30 9 c17 5 42 7 58 5 15 -3 27 -2 27 3 0 12 -27
22 -70 27 -48 6 -62 12 -55 24 4 6 11 7 17 4 7 -4 8 -2 4 4 -4 8 -13 8 -24 3
-49 -27 -92 -33 -99 -14 -3 7 -14 13 -24 13 -10 0 -19 5 -19 10 0 25 -40 47
-96 53 -32 3 -60 11 -62 17 -2 5 -22 10 -45 11 -37 0 -39 2 -20 11 12 6 38 7
60 3 47 -9 47 -9 51 3 3 9 -8 14 -78 33 -87 23 -132 29 -152 18 -15 -8 -19 -8
-13 1 4 6 16 15 26 18 24 9 101 3 114 -9z m846 1 c22 -12 45 -18 51 -14 7 5 9
2 5 -9 -8 -22 12 -27 106 -26 45 0 76 3 70 6 -7 2 -13 9 -13 14 0 16 26 10 45
-11 17 -18 17 -20 1 -20 -9 0 -19 -6 -22 -14 -3 -9 -12 -12 -22 -9 -11 5 -14
2 -9 -10 5 -14 0 -17 -31 -17 l-37 -1 25 -14 c29 -16 74 -20 65 -5 -3 6 0 10
7 10 9 0 9 3 -2 10 -13 8 -12 10 3 10 11 0 15 4 11 12 -5 8 -2 9 12 4 41 -17
55 -18 79 -2 27 18 30 12 15 -28 -5 -14 -20 -28 -35 -32 -14 -3 -22 -11 -18
-17 3 -6 1 -7 -5 -3 -14 8 -75 -22 -68 -33 3 -5 -4 -9 -17 -10 -12 0 -33 -2
-47 -3 -58 -4 -163 3 -156 10 4 4 22 8 39 8 52 3 117 16 123 25 3 5 -30 9 -73
9 -46 0 -73 4 -65 9 11 6 10 10 -3 15 -10 3 -24 1 -31 -5 -14 -11 -34 -4 -34
12 0 6 4 7 10 4 5 -3 20 3 32 15 18 16 32 20 58 16 l35 -5 -40 14 c-22 7 -31
14 -20 14 29 1 5 21 -38 31 -23 5 -39 4 -46 -3 -8 -8 -11 -8 -11 1 0 7 -16 12
-42 12 -36 1 -40 2 -24 11 10 7 35 8 59 5 l40 -7 -24 20 c-31 26 -9 27 42 1z
m-1445 -34 c15 4 34 0 49 -10 14 -9 25 -13 25 -8 0 4 20 7 44 7 48 0 46 6 30
-86 -4 -25 -1 -39 10 -48 20 -17 21 -60 1 -67 -8 -3 -31 0 -52 7 -31 10 -34
13 -19 19 19 6 19 7 0 15 -10 5 -42 9 -69 10 -28 1 -59 7 -70 14 -17 10 -8 11
50 5 l70 -6 -20 22 c-14 17 -16 24 -7 27 18 7 4 23 -21 23 -17 0 -19 2 -8 9 8
5 20 7 28 4 7 -3 13 0 13 5 0 7 -18 9 -52 5 -37 -5 -49 -3 -44 5 4 7 1 12 -7
12 -8 0 -21 8 -28 17 -12 15 -12 16 6 9 11 -5 31 -10 45 -13 24 -4 24 -4 4 9
-12 8 -19 19 -16 28 5 12 7 12 10 -3 3 -13 10 -15 28 -11z m476 -286 c7 -11
19 -20 27 -20 17 0 99 -38 121 -55 8 -7 59 -23 112 -36 95 -22 118 -39 55 -39
-29 0 -30 -1 -11 -15 10 -8 44 -22 74 -31 30 -9 60 -20 66 -25 21 -17 130 -14
148 4 15 14 15 16 -2 20 -9 3 4 5 29 6 47 1 77 -17 64 -39 -9 -15 -25 -12 -25
5 0 19 -21 19 -46 0 -10 -8 -27 -15 -36 -15 -10 0 -18 -5 -18 -11 0 -6 -9 -8
-22 -4 -23 7 -23 7 -3 -8 26 -20 16 -28 -37 -34 -32 -4 -47 -1 -57 11 -12 14
-9 16 25 17 31 0 35 2 19 9 -11 5 -33 9 -49 9 -21 1 -27 -3 -22 -14 3 -8 1
-15 -4 -15 -6 0 -10 5 -10 10 0 7 -6 6 -18 -1 -11 -7 -29 -8 -52 -2 l-35 10
47 7 c44 7 90 36 56 36 -8 0 -19 -5 -26 -12 -9 -9 -17 -9 -34 0 -13 6 -34 14
-48 18 -23 6 -23 8 -5 14 16 6 10 11 -34 33 -29 15 -61 27 -71 27 -10 0 -20 7
-24 15 -3 8 -13 15 -22 15 -13 0 -14 3 -5 14 16 19 -11 25 -127 31 -52 3 -98
7 -103 11 -23 14 -4 24 46 24 30 0 55 5 55 10 0 6 -4 10 -8 10 -5 0 -17 7 -28
15 -19 14 -18 14 3 15 13 0 28 -9 35 -20z"/>
</g>
</svg>
