<?xml version="1.0" standalone="no"?>
<!DOCTYPE svg PUBLIC "-//W3C//DTD SVG 20010904//EN"
 "http://www.w3.org/TR/2001/REC-SVG-20010904/DTD/svg10.dtd">
<svg version="1.0" xmlns="http://www.w3.org/2000/svg"
 width="1182.000000pt" height="664.000000pt" viewBox="0 0 1182.000000 664.000000"
 preserveAspectRatio="xMidYMid meet">
<metadata>
Created by potrace 1.13, written by Peter Selinger 2001-2015
</metadata>
<g transform="translate(0.000000,664.000000) scale(0.100000,-0.100000)"
fill="#000000" stroke="none">
<path d="M0 4736 l0 -1904 48 -7 c37 -6 43 -9 27 -16 -19 -7 -19 -8 2 -8 12
-1 23 4 25 10 2 7 12 7 31 0 16 -6 41 -11 55 -11 15 0 39 -8 52 -17 14 -10 68
-26 120 -35 86 -16 89 -17 30 -13 -36 3 -74 7 -85 9 -11 2 -37 6 -57 10 -21 4
-39 2 -43 -4 -4 -6 7 -10 27 -11 31 -1 40 -2 63 -9 18 -5 30 -7 43 -8 6 -1 12
-8 12 -16 0 -14 83 -33 260 -59 111 -16 290 -11 290 8 0 7 -6 16 -12 18 -10 4
-10 6 0 6 17 1 15 21 -3 21 -34 0 -12 20 23 21 l37 1 -45 8 c-95 16 -95 16
-92 -4 3 -17 2 -18 -12 -3 -9 9 -25 19 -36 22 -36 11 -21 23 26 20 25 -2 76
-9 113 -15 37 -6 72 -10 77 -9 5 1 22 -3 37 -9 40 -17 54 -15 31 4 -18 15 -18
15 6 9 14 -4 39 -9 55 -12 17 -3 33 -11 37 -17 6 -8 8 -8 8 0 0 7 12 14 28 17
52 10 60 13 75 25 19 16 48 23 112 29 39 4 57 12 82 37 35 33 41 51 21 59 -7
3 26 6 74 6 99 1 121 13 116 64 -2 25 1 32 22 38 l25 7 -28 1 c-31 1 -28 21 4
21 10 0 19 7 19 15 0 8 9 15 20 15 11 0 23 7 26 15 4 8 18 15 31 15 33 0 55
28 41 50 -8 13 -2 27 26 64 24 32 36 58 36 80 0 17 5 37 12 44 9 9 9 15 0 24
-16 16 -15 69 2 93 18 27 29 102 16 110 -19 11 -10 25 16 25 14 0 23 4 19 10
-4 6 -10 8 -15 5 -28 -17 -58 41 -40 76 6 10 4 26 -5 42 -15 30 -13 32 17 16
15 -8 19 -8 14 0 -4 6 -2 11 3 11 6 0 11 -4 11 -9 0 -4 19 -11 41 -14 33 -4
46 -1 63 14 11 11 22 15 24 9 2 -5 8 -10 14 -10 5 0 23 -9 39 -21 l29 -21 13
31 c13 30 14 30 37 14 13 -9 20 -11 16 -5 -4 7 -2 12 5 12 8 0 8 4 1 13 -12
15 -24 67 -15 67 4 0 15 -8 25 -17 17 -15 21 -15 51 0 20 10 26 16 15 16 -10
1 -18 8 -18 17 0 8 -7 22 -15 31 -8 8 -12 19 -9 24 3 6 12 2 20 -8 7 -10 14
-13 14 -6 0 6 -7 19 -16 27 -8 9 -12 16 -8 16 4 0 -1 9 -11 20 -10 11 -15 28
-12 39 3 11 -1 28 -9 38 -7 10 -14 34 -14 55 0 29 -6 40 -30 55 -22 14 -27 22
-19 33 8 13 11 13 22 -1 18 -22 44 -30 56 -15 14 16 2 59 -14 52 -7 -2 -20 3
-29 13 -14 16 -13 17 18 13 33 -4 34 -3 41 37 5 32 3 45 -10 58 -17 16 -17 16
-11 -5 6 -19 4 -22 -15 -20 -27 4 -37 -18 -12 -25 12 -4 10 -5 -7 -5 -14 1
-34 0 -45 -1 -17 -1 -18 -3 -5 -11 13 -8 13 -10 -2 -10 -16 0 -46 38 -33 41 3
1 8 2 13 3 4 1 13 5 20 9 7 5 12 4 12 -2 0 -6 5 -11 10 -11 6 0 10 9 10 20 0
11 7 20 15 20 18 0 20 27 3 33 -10 3 -10 7 1 20 12 15 11 17 -3 17 -22 0 -20
26 3 42 10 7 25 32 31 56 7 23 19 42 27 42 7 0 18 11 24 24 13 28 49 41 61 23
6 -9 8 -8 8 3 0 9 9 23 20 33 11 9 17 23 14 31 -3 8 -1 17 5 21 7 4 11 -4 11
-19 0 -26 14 -35 25 -16 3 6 2 10 -4 10 -6 0 -6 11 1 33 5 17 10 40 10 50 -1
9 3 15 8 12 4 -3 10 1 12 7 3 9 22 12 54 11 28 -1 52 3 57 10 7 9 10 9 13 0 3
-7 12 -9 20 -6 8 3 14 0 14 -6 0 -6 13 -11 28 -11 16 0 39 -10 52 -22 14 -13
25 -18 27 -11 6 18 63 -8 63 -29 0 -10 5 -18 10 -18 6 0 10 9 10 19 0 15 9 20
40 23 28 2 40 0 40 -9 0 -7 5 -13 10 -13 6 0 10 7 10 15 0 8 6 12 14 9 8 -3
25 0 38 7 13 7 26 12 31 11 4 -1 7 3 7 8 0 6 11 10 25 10 19 0 25 -5 25 -21 0
-20 5 -21 83 -18 60 2 85 7 94 19 9 12 42 15 193 16 131 0 184 4 189 13 9 14
84 19 129 8 26 -7 32 -6 32 7 0 21 12 20 37 -4 18 -16 23 -17 32 -6 30 36 241
40 241 5 0 -4 7 -6 15 -3 8 4 15 1 15 -5 0 -6 11 -11 24 -11 14 0 27 -4 30 -9
4 -5 47 -15 96 -22 50 -6 90 -15 90 -19 0 -4 10 -11 23 -15 12 -4 28 -9 35
-11 6 -2 18 -5 25 -7 6 -2 22 -8 33 -15 39 -21 161 -36 190 -24 28 13 68 -4
59 -25 -3 -9 7 -13 33 -13 24 0 32 -3 24 -9 -10 -6 -7 -10 12 -15 14 -3 26
-13 26 -22 0 -8 10 -18 22 -23 30 -11 61 -2 54 16 -4 10 2 9 22 -5 15 -10 40
-22 56 -26 15 -4 35 -13 42 -21 12 -11 9 -14 -16 -20 -16 -4 -33 -4 -37 -2 -5
3 -31 -5 -58 -18 -27 -13 -52 -22 -57 -19 -4 3 -8 0 -8 -5 0 -6 -7 -11 -15
-11 -8 0 -15 -5 -15 -10 0 -7 30 -8 88 -4 74 6 91 4 104 -10 21 -20 38 -21 38
-1 0 18 17 20 23 3 3 -10 9 -10 28 -1 67 34 75 34 95 -3 10 -19 27 -37 36 -40
10 -3 18 -15 18 -27 0 -16 3 -18 12 -9 17 17 28 15 28 -7 0 -12 -8 -21 -22
-24 -13 -2 -6 -3 14 -1 20 2 39 0 43 -6 3 -5 13 -7 23 -4 14 5 14 4 2 -4 -8
-6 -17 -9 -21 -6 -4 2 -9 0 -11 -5 -2 -6 -26 -3 -58 5 -91 24 -289 13 -431
-24 -149 -39 -189 -56 -189 -80 0 -10 -3 -22 -7 -26 -14 -14 -13 -46 2 -46 8
0 15 -6 15 -14 0 -8 3 -22 6 -31 5 -12 2 -16 -11 -13 -10 2 -19 -3 -21 -10 -1
-7 0 -8 3 -2 2 5 10 7 15 4 6 -4 17 1 23 10 11 15 14 15 28 2 13 -14 16 -14
21 0 3 8 10 13 15 10 5 -4 11 -1 13 5 2 6 14 8 31 4 15 -4 25 -11 22 -15 -3
-5 13 -27 36 -50 40 -40 42 -44 40 -96 -2 -43 1 -54 13 -54 9 0 16 4 16 9 0 9
28 22 58 27 7 1 18 -8 24 -22 6 -13 15 -24 20 -24 4 0 8 -6 8 -14 0 -7 12 -21
26 -30 20 -14 41 -16 111 -12 47 3 89 9 92 13 5 7 23 17 74 41 11 6 5 -40 -8
-55 -5 -7 -15 -18 -21 -26 -11 -13 -28 -68 -29 -92 0 -5 -4 -13 -10 -17 -5 -4
0 -8 13 -8 12 0 22 6 23 13 0 14 140 83 184 91 17 3 45 10 64 16 19 5 38 7 44
3 6 -3 7 -1 3 5 -4 7 -2 12 3 12 6 0 11 -8 11 -19 0 -21 -52 -35 -69 -18 -6 6
-8 2 -4 -12 4 -16 1 -21 -15 -21 -11 0 -25 -7 -32 -15 -10 -13 -9 -15 9 -15
11 0 21 -5 21 -12 0 -13 14 -2 16 13 3 22 5 23 13 10 8 -13 12 -13 27 0 11 9
15 9 10 2 -5 -9 0 -13 16 -14 l23 0 -23 -16 c-21 -14 -21 -16 -5 -28 15 -11
15 -15 3 -30 -12 -14 -12 -18 1 -26 12 -8 12 -10 -1 -19 -10 -6 -11 -10 -2
-10 6 0 12 -8 12 -18 0 -10 -6 -24 -12 -31 -7 -7 15 6 49 28 34 23 65 41 68
41 13 0 -26 -59 -52 -79 -29 -21 -16 -29 18 -11 13 8 19 7 19 0 0 -6 5 -8 11
-5 6 4 8 14 4 23 -3 9 -3 13 1 9 4 -4 14 -1 23 6 9 6 4 -4 -11 -23 -15 -19
-32 -34 -38 -32 -6 1 -9 -1 -6 -6 6 -10 -32 -47 -84 -82 -19 -13 -63 -51 -98
-84 -34 -32 -65 -56 -68 -53 -4 3 -11 81 -17 171 l-11 166 24 25 c25 26 21 47
-5 25 -12 -10 -24 -9 -61 4 -26 9 -49 14 -52 12 -2 -3 14 -10 37 -17 23 -7 41
-16 41 -21 0 -5 -10 -6 -22 -2 -45 14 -53 14 -30 3 25 -13 31 -32 7 -22 -10 3
-15 0 -13 -8 3 -14 -3 -15 -37 -4 -14 4 -12 2 5 -9 14 -8 36 -16 50 -17 l25
-1 -25 -8 c-14 -4 -19 -8 -12 -9 16 -1 -12 -61 -29 -61 -6 0 -8 -4 -4 -9 3 -5
1 -13 -5 -16 -8 -5 -8 -11 0 -20 8 -10 7 -16 -6 -23 -22 -12 -10 -65 22 -96
23 -21 25 -56 4 -56 -5 0 -3 -16 3 -35 6 -21 17 -35 26 -35 14 0 14 -2 1 -10
-8 -5 -10 -10 -5 -10 6 0 15 -11 22 -25 9 -20 8 -25 -3 -25 -18 0 -18 -39 0
-65 7 -11 16 -31 19 -45 6 -26 53 -72 137 -135 51 -39 62 -30 32 24 -11 20
-28 61 -37 91 l-18 55 43 35 c23 19 70 61 103 92 100 94 76 58 -35 -52 -102
-101 -105 -117 -5 -24 29 26 65 59 82 73 l30 26 -25 -29 c-14 -15 -58 -60 -97
-99 -40 -39 -71 -72 -69 -74 5 -5 33 16 105 82 31 28 65 57 75 65 18 14 19 14
8 -7 -7 -12 -12 -25 -12 -30 1 -11 40 40 40 52 0 23 53 65 93 75 23 6 49 13
57 15 8 3 5 -3 -7 -11 -25 -18 -31 -44 -10 -44 9 0 8 -3 -2 -9 -11 -7 -11 -9
0 -13 20 -7 1 -26 -34 -33 -28 -6 -125 -43 -136 -52 -12 -9 10 -13 26 -5 25
13 149 52 164 52 8 0 8 -5 -3 -17 -20 -24 -30 -53 -18 -53 25 0 5 -22 -37 -41
-158 -71 -153 -67 -153 -107 l0 -37 16 30 c21 41 24 44 64 49 19 2 43 7 53 11
10 4 17 3 17 -4 0 -6 -9 -11 -19 -11 -11 0 -21 -3 -23 -7 -1 -5 -20 -16 -42
-26 -48 -22 -40 -35 12 -18 21 7 47 11 58 9 14 -4 9 -9 -23 -22 -59 -25 -55
-40 9 -34 l52 5 -29 -23 -29 -23 40 -3 c35 -3 37 -5 17 -13 -36 -16 -13 -33
51 -38 36 -3 64 -10 70 -19 17 -23 56 -28 88 -12 17 9 33 13 36 9 3 -3 -4 -8
-16 -12 -30 -7 -25 -38 6 -37 67 2 -27 -37 -121 -50 -47 -7 -80 -29 -96 -62
-12 -27 -12 -27 26 -21 21 4 56 9 78 11 l40 5 -40 -14 c-22 -7 -58 -14 -81
-14 -41 -1 -47 -5 -103 -71 -31 -37 -29 -38 -46 16 -4 12 -8 14 -19 5 -7 -6
-15 -8 -19 -5 -3 3 -18 -1 -34 -9 l-28 -15 28 -13 c30 -14 20 -29 -20 -29 -30
0 -30 -18 0 -30 18 -7 19 -9 4 -9 -10 -1 -25 -7 -33 -15 -7 -8 -19 -17 -26
-20 -10 -5 -10 -7 0 -12 21 -10 13 -34 -15 -45 -19 -8 -23 -13 -13 -16 50 -15
79 -43 45 -43 -8 0 -15 -4 -15 -10 0 -5 -9 -10 -20 -10 -11 0 -20 -4 -20 -8 0
-4 16 -6 35 -4 26 3 35 0 35 -10 0 -18 -47 -42 -75 -39 -13 1 -9 -4 13 -15 38
-20 41 -34 7 -34 -32 0 -76 -21 -72 -34 2 -6 14 -11 27 -11 46 -1 31 -22 -19
-29 -66 -9 -76 -26 -16 -26 28 0 44 -4 40 -10 -3 -5 2 -10 12 -11 10 -1 -16
-9 -57 -18 -76 -17 -150 -48 -150 -63 0 -11 18 -10 22 2 2 5 23 12 48 15 l45
6 -65 -32 c-36 -17 -60 -33 -53 -36 7 -2 21 0 32 6 24 13 91 15 91 2 0 -7 -49
-17 -135 -26 -78 -8 -208 -44 -160 -44 22 0 119 22 149 35 13 5 17 4 12 -4 -6
-10 71 -8 127 3 9 2 17 -1 17 -6 0 -5 -10 -9 -22 -9 -12 0 -44 -7 -72 -15 -28
-8 -64 -17 -79 -20 -52 -11 -18 -22 40 -13 31 5 75 8 98 6 35 -3 28 -5 -50
-22 -49 -10 -112 -19 -140 -21 -27 -1 -66 -10 -85 -18 -27 -12 -29 -15 -10
-12 14 2 77 6 140 9 132 5 101 -9 -40 -19 -46 -3 -89 -10 -95 -14 -5 -5 -19
-11 -30 -14 -11 -3 4 -3 33 0 35 4 52 2 52 -6 0 -6 -12 -11 -27 -11 -16 0 -46
-9 -68 -20 l-40 -19 41 6 c23 3 50 1 59 -5 11 -5 31 -6 49 -2 17 5 47 11 66
14 50 9 24 -9 -33 -23 -27 -6 -90 -31 -140 -55 -51 -24 -127 -51 -170 -61 -43
-10 -80 -22 -83 -26 -5 -9 42 -3 93 12 17 6 44 12 60 15 15 3 55 18 88 34 54
26 231 80 263 80 6 0 12 -5 12 -11 0 -5 -5 -7 -10 -4 -6 4 -16 2 -23 -4 -7 -5
-49 -20 -92 -32 -44 -12 -109 -36 -145 -54 -64 -33 -153 -62 -217 -72 -18 -3
-33 -9 -33 -14 0 -12 -3 -13 113 17 56 14 113 28 127 31 l25 6 -20 -20 c-21
-20 -53 -32 -115 -40 -19 -3 -43 -9 -52 -14 -9 -5 -28 -9 -42 -9 -14 0 -26 -4
-26 -10 0 -13 25 -13 70 0 49 13 102 23 123 22 9 0 17 4 17 9 0 6 4 8 9 5 4
-3 16 3 25 13 9 10 29 21 44 24 15 3 34 8 43 12 12 5 19 -2 27 -24 11 -30 7
-36 -20 -32 -4 0 -17 -12 -31 -28 -13 -16 -33 -32 -44 -35 -31 -10 -38 -36
-10 -37 21 0 21 -1 2 -9 -17 -7 -14 -9 15 -10 32 -2 33 -3 10 -9 -14 -4 -24
-13 -22 -19 1 -7 -7 -12 -18 -12 -12 0 -34 -7 -51 -15 -26 -14 -30 -14 -35 0
-3 8 -11 12 -16 9 -6 -4 -6 2 1 14 9 17 8 20 -7 17 -9 -2 -22 -4 -27 -4 -6 -1
-22 -12 -37 -26 -21 -19 -34 -23 -56 -19 -29 6 -29 5 -28 -32 1 -30 -4 -40
-21 -49 -34 -17 -63 -46 -63 -63 0 -11 -8 -13 -37 -7 -21 4 -41 12 -45 18 -12
18 -9 -38 2 -69 9 -21 8 -25 -2 -17 -7 5 -21 13 -32 17 -14 5 -17 2 -12 -9 3
-9 2 -14 -2 -12 -4 3 -16 1 -27 -4 -17 -6 -17 -8 -2 -8 23 -1 129 -113 118
-124 -5 -5 -21 -7 -37 -5 l-29 4 24 10 c20 9 21 12 8 17 -9 3 -19 2 -22 -3 -8
-13 -25 -13 -25 0 0 6 7 10 15 10 22 0 18 21 -5 27 -11 3 -20 9 -20 13 0 5
-11 3 -25 -3 -21 -10 -23 -14 -10 -23 14 -10 13 -13 0 -24 -13 -11 -16 -11
-13 1 2 8 -7 15 -21 17 -15 2 -21 0 -16 -7 3 -6 11 -9 16 -6 5 3 6 -1 3 -9 -7
-18 -24 -22 -24 -6 0 6 -12 3 -27 -7 -15 -10 -31 -18 -37 -18 -29 -2 -65 -18
-70 -31 -3 -8 -20 -14 -38 -15 l-33 -1 33 -11 c22 -7 31 -15 27 -24 -3 -8 -5
-19 -5 -24 0 -5 -12 -6 -26 -3 -17 4 -29 2 -35 -7 -7 -11 -9 -11 -9 3 0 11 -6
15 -20 11 -11 -3 -20 -10 -20 -15 0 -5 4 -6 10 -3 6 3 10 1 10 -4 0 -6 -5 -11
-11 -11 -6 0 -8 -7 -5 -16 5 -12 1 -14 -16 -9 -18 6 -20 4 -15 -14 3 -11 1
-21 -4 -21 -5 0 -9 5 -9 10 0 6 -5 10 -12 10 -6 0 -9 -3 -5 -6 9 -9 -21 -36
-32 -30 -5 3 -29 -5 -53 -19 -23 -14 -51 -25 -60 -25 -10 0 -18 -4 -18 -10 0
-20 49 -10 80 16 17 15 33 24 37 21 10 -11 -7 -39 -26 -44 -22 -6 -25 -43 -3
-43 7 0 10 -5 7 -10 -3 -6 3 -10 14 -10 11 0 23 -5 26 -10 10 -16 -24 -23 -42
-9 -14 12 -16 12 -9 0 7 -10 4 -12 -13 -6 -16 5 -20 3 -15 -9 7 -18 -11 -22
-21 -5 -4 6 -13 8 -21 5 -8 -3 -24 -1 -36 4 -21 8 -20 9 10 9 20 1 31 5 27 11
-7 12 -63 8 -84 -4 -17 -11 4 -26 35 -26 12 0 27 -7 34 -15 14 -17 10 -18 -22
-6 -17 6 -29 5 -43 -5 -17 -13 -14 -14 29 -14 26 0 55 -4 65 -10 12 -6 29 -5
50 3 38 14 42 32 5 23 -25 -7 -25 -6 -10 9 9 10 23 14 31 11 8 -3 17 -1 21 5
4 6 15 4 30 -5 13 -9 33 -16 44 -16 13 0 19 -4 14 -11 -4 -7 -21 -9 -41 -6
-28 5 -39 1 -58 -18 -12 -14 -28 -25 -34 -25 -7 0 -9 -5 -5 -12 5 -8 0 -9 -14
-6 -12 4 -20 2 -16 -3 3 -5 1 -9 -5 -9 -5 0 -12 4 -16 9 -3 5 -19 12 -35 16
-17 4 -30 11 -30 16 0 6 -4 8 -10 4 -5 -3 -6 -13 -3 -23 6 -15 5 -16 -12 -2
-15 12 -19 12 -23 2 -2 -7 -15 -17 -28 -22 -24 -10 -33 -30 -13 -30 5 0 7 -5
4 -10 -3 -6 -2 -10 2 -10 5 0 18 -7 29 -16 18 -15 18 -15 -8 -9 -16 3 -28 1
-28 -4 0 -12 27 -22 43 -15 8 3 13 -3 13 -14 0 -17 -4 -18 -31 -10 -33 11 -33
11 -87 2 -21 -3 -38 -10 -38 -16 0 -5 16 -6 38 -2 34 7 36 6 23 -9 -7 -10 -19
-17 -26 -17 -15 0 -28 -27 -19 -41 3 -5 0 -9 -5 -9 -6 0 -11 4 -11 10 0 5 -7
7 -15 4 -8 -4 -12 -10 -9 -15 3 -5 -2 -6 -10 -3 -9 4 -18 -1 -22 -10 -7 -19
-36 -22 -32 -3 2 6 -2 13 -7 14 -6 1 -9 -5 -9 -13 2 -11 -1 -12 -12 -4 -7 7
-23 9 -36 4 -20 -6 -21 -5 -9 9 12 15 7 16 -56 10 -37 -3 -76 -10 -85 -14 -9
-5 -34 -9 -55 -8 -21 0 -32 3 -25 6 6 2 12 9 12 14 0 16 -25 10 -42 -10 -9
-10 -49 -29 -89 -41 -41 -12 -78 -24 -84 -26 -5 -2 85 -2 202 1 165 3 219 8
242 20 32 16 83 20 95 8 4 -4 -14 -13 -41 -19 -43 -11 -34 -12 100 -13 140 -1
148 0 170 21 12 13 21 26 20 29 -1 4 19 6 44 5 43 -1 47 1 54 26 6 22 4 28 -8
28 -9 0 -13 6 -9 15 3 8 1 15 -4 15 -6 0 -10 -5 -10 -11 0 -5 -5 -7 -11 -3
-16 10 6 28 26 20 9 -3 13 -10 10 -16 -7 -12 7 -13 20 -2 6 5 37 20 70 33 43
18 69 23 90 18 l30 -7 -35 -1 -35 -2 34 -14 c18 -8 37 -12 42 -10 5 3 22 -1
39 -10 17 -9 36 -15 43 -14 6 1 19 1 27 0 13 -1 13 -2 0 -11 -8 -5 -48 -10
-88 -10 -65 0 -73 2 -81 22 -6 18 -9 19 -14 5 -4 -10 -2 -17 4 -17 6 0 9 -8 7
-17 -2 -10 -10 -18 -18 -18 -8 0 -14 6 -12 13 3 17 -13 15 -29 -5 -10 -12 -11
-15 -1 -9 7 4 19 2 27 -4 11 -9 19 -9 28 -2 7 6 22 9 34 6 11 -3 24 -1 27 5
12 18 49 14 42 -5 -5 -12 -1 -14 17 -8 12 4 32 7 45 6 12 -1 22 2 22 6 0 5 7
9 15 9 26 0 16 -13 -23 -27 -20 -8 -40 -14 -44 -15 -3 0 -9 -3 -13 -6 -10 -11
99 -8 119 3 15 8 16 12 5 20 -11 7 -9 9 6 5 11 -2 27 2 34 10 17 19 6 30 -14
13 -12 -10 -15 -10 -15 4 0 9 5 16 11 16 5 0 7 5 4 11 -4 6 -1 10 6 8 30 -4
43 3 19 11 -14 4 -54 6 -90 3 -43 -3 -79 1 -105 10 l-40 15 60 0 c72 0 98 3
105 12 3 4 21 10 40 14 l35 6 -30 -20 -30 -21 40 3 c22 1 43 6 46 11 11 16
109 15 109 0 0 -20 -40 -61 -67 -68 l-24 -6 23 -19 c13 -11 18 -19 13 -20 -6
0 -15 4 -20 9 -14 13 -78 -11 -81 -30 -2 -14 5 -16 37 -12 24 4 39 2 39 -5 0
-6 -15 -12 -32 -15 -18 -2 263 -4 625 -5 524 -2 657 0 657 10 0 9 3 9 10 -2
19 -30 17 -2 -7 79 -23 80 -23 84 -6 97 34 26 49 17 67 -43 10 -32 25 -77 33
-101 l16 -43 281 3 c218 2 280 6 278 16 -1 6 5 12 14 12 10 0 14 -5 10 -15 -5
-14 18 -16 195 -13 157 1 202 5 208 16 6 11 10 11 20 -2 10 -11 31 -16 71 -16
53 0 58 2 53 20 -3 11 0 20 6 20 6 0 10 -3 10 -7 -4 -27 4 -33 45 -33 26 0 48
6 56 15 7 8 17 15 22 15 6 0 5 -7 -2 -15 -11 -13 -1 -15 84 -15 79 0 96 3 96
15 0 8 -6 15 -12 16 -7 1 -2 5 12 9 l25 8 -27 1 c-26 1 -45 29 -40 59 2 6 -9
17 -23 22 -14 5 -25 12 -25 14 0 3 7 3 15 0 8 -4 15 -2 15 4 0 17 -42 22 -57
6 -9 -8 -18 -12 -21 -9 -4 3 0 11 8 16 11 7 5 8 -19 3 -30 -6 -33 -5 -20 8 8
8 22 17 32 21 9 3 17 13 17 21 0 18 65 26 104 13 l30 -10 -25 -9 c-13 -5 -42
-14 -64 -19 l-40 -8 45 5 c25 3 60 8 78 11 20 3 32 1 32 -6 0 -15 27 -14 33 2
9 21 28 -15 22 -43 -5 -20 -3 -22 5 -10 8 11 13 12 16 3 3 -7 13 -10 22 -7 9
3 5 -4 -10 -16 -16 -12 -28 -29 -28 -37 0 -11 -4 -13 -12 -5 -17 13 -43 1 -44
-21 -1 -10 7 -19 22 -23 13 -3 22 -10 19 -14 -7 -12 88 -20 230 -20 102 1 134
4 150 16 19 15 18 15 -14 12 -22 -2 -36 2 -39 11 -3 9 1 11 17 6 11 -3 21 -2
21 3 0 5 11 7 25 4 27 -5 32 -21 13 -40 -9 -9 11 -12 91 -12 84 0 102 3 98 14
-3 7 0 19 6 25 18 18 29 13 17 -8 -5 -11 -6 -22 -1 -25 4 -3 727 -5 1606 -5
1387 0 1599 2 1612 14 19 19 34 19 27 0 -5 -13 25 -15 235 -15 l241 0 0 344
c0 320 -1 345 -17 349 -17 4 -17 5 0 6 15 1 17 15 17 145 0 142 0 145 -22 149
l-23 4 23 2 22 1 0 1447 c0 795 -3 1443 -6 1440 -9 -9 -49 21 -49 36 0 6 -8
13 -19 15 -11 3 -16 0 -12 -7 4 -7 -1 -11 -13 -11 -12 0 -21 -7 -21 -15 0 -8
-5 -15 -11 -15 -8 0 -8 -4 0 -14 9 -11 7 -15 -10 -19 -14 -4 -18 -10 -14 -19
6 -10 5 -11 -6 0 -10 9 -10 15 -1 24 7 7 12 25 12 40 0 21 6 31 26 38 14 6 23
14 19 19 -3 6 3 15 14 20 26 14 28 14 34 -8 3 -12 13 -18 31 -18 21 0 24 2 15
13 -6 8 -8 14 -3 14 5 0 2 5 -6 10 -13 8 -12 10 3 10 16 0 17 70 17 1320 l0
1320 -5910 0 -5910 0 0 -1904z m2012 -287 c2 -6 20 -12 40 -14 21 -2 42 -6 48
-10 18 -11 1 -23 -28 -19 -16 3 -39 0 -53 -5 l-24 -9 30 -7 c41 -10 45 -14 39
-29 -3 -8 -29 -16 -64 -20 -65 -8 -83 -19 -47 -31 20 -7 19 -8 -11 -12 -19 -3
-41 -1 -50 2 -14 6 -13 8 6 16 30 11 23 33 -11 37 -15 2 -27 9 -27 17 0 8 7
11 20 8 14 -4 20 0 20 11 0 9 -8 16 -17 17 -11 0 -13 3 -5 6 6 2 12 9 12 15 0
31 113 55 122 27z m3474 -223 c8 -8 14 -30 14 -48 0 -22 7 -39 20 -48 11 -8
20 -20 20 -27 0 -17 15 -16 34 2 9 9 29 15 50 13 20 -1 33 -4 31 -7 -3 -2 4
-10 15 -18 15 -10 20 -26 20 -56 0 -55 28 -111 58 -115 12 -2 22 -10 22 -18 0
-8 5 -14 11 -14 15 0 39 -26 32 -34 -4 -3 -1 -6 5 -6 7 0 12 -5 12 -11 0 -6 7
-17 15 -25 18 -19 19 -34 3 -34 -9 0 -8 -4 2 -10 8 -5 22 -7 31 -5 12 4 16 -1
15 -22 -1 -25 -5 -28 -31 -26 -16 1 -77 5 -135 8 -60 4 -119 13 -138 22 -33
14 -46 14 -84 -2 -17 -7 -18 2 -18 98 0 66 4 108 11 113 14 8 3 108 -17 148
-8 16 -11 38 -8 49 4 13 2 17 -5 13 -6 -4 -11 -2 -11 3 0 6 5 11 10 11 6 0 10
5 10 10 0 6 -7 10 -15 10 -17 0 -18 2 -9 24 8 20 12 20 30 2z m1219 -2702 c62
-31 75 -39 80 -52 4 -11 -4 -12 -37 -6 -64 11 -81 10 -85 -3 -3 -7 4 -13 14
-14 10 0 13 -3 6 -6 -7 -2 -13 -9 -13 -14 0 -4 7 -5 17 -2 11 4 14 3 9 -5 -4
-7 -17 -12 -29 -13 -15 0 -17 -2 -7 -6 8 -3 24 -13 35 -23 21 -18 55 -33 55
-24 0 3 -9 15 -20 27 -14 14 -17 23 -9 26 6 2 16 -4 21 -13 7 -13 18 -16 41
-12 l32 6 -27 -11 c-26 -10 -38 -28 -20 -30 4 0 14 -2 22 -5 8 -2 30 -7 48
-10 51 -10 52 -27 1 -20 l-44 6 40 -13 c22 -8 44 -12 49 -9 4 2 12 -2 17 -9 7
-12 9 -11 9 2 0 8 -5 20 -11 26 -7 7 -1 10 20 9 17 -1 31 -4 31 -8 0 -4 24 -7
54 -7 30 1 59 -2 64 -5 6 -3 12 1 16 9 3 10 15 13 33 10 95 -15 105 -14 99 2
-5 12 0 14 26 10 18 -3 59 -9 91 -13 31 -3 60 -10 63 -15 3 -5 16 -9 29 -9 13
0 25 -4 27 -8 5 -13 68 -23 68 -12 0 6 -8 10 -17 10 -10 0 -25 5 -33 11 -11 7
-4 8 25 3 22 -4 43 -12 47 -19 5 -7 32 -13 69 -14 34 -1 65 -4 70 -7 5 -3 27
-6 49 -6 22 0 40 -3 40 -7 0 -4 19 -7 41 -8 42 -2 64 -12 42 -20 -23 -8 -14
-18 17 -18 20 0 29 4 25 13 -2 7 3 12 14 12 14 0 18 -5 14 -20 -4 -14 0 -20
11 -20 9 0 16 -4 16 -8 0 -4 16 -6 35 -4 20 2 50 -3 68 -11 18 -9 55 -17 82
-18 28 -1 54 -4 59 -7 5 -3 21 -6 35 -8 111 -9 145 -15 153 -26 6 -11 10 -10
17 1 6 10 10 10 16 1 12 -19 -4 -25 -35 -13 -23 8 -30 8 -30 0 0 -8 -3 -9 -8
-1 -9 14 -45 27 -37 14 3 -6 -3 -10 -14 -10 -12 0 -21 4 -21 8 0 5 -17 8 -37
7 -21 -1 -43 2 -48 6 -6 4 -39 10 -75 13 -85 7 -196 22 -207 29 -5 3 -51 7
-101 9 -51 2 -92 6 -92 10 0 7 -48 23 -97 32 -42 7 -42 2 2 -18 19 -9 35 -23
35 -30 0 -17 22 -23 118 -32 39 -3 72 -10 72 -14 0 -5 18 -6 40 -3 36 5 40 3
40 -16 0 -16 -6 -21 -24 -21 -14 0 -28 5 -31 10 -9 15 -44 12 -61 -5 -13 -12
-7 -16 45 -26 33 -7 58 -16 55 -21 -3 -4 0 -8 5 -8 6 0 11 5 11 10 0 6 17 9
38 8 37 -1 37 -1 4 -5 -24 -3 -32 -9 -30 -21 2 -13 -3 -16 -27 -14 -16 2 -31
8 -33 13 -5 14 -42 11 -42 -3 0 -9 -3 -8 -10 2 -6 9 -5 17 1 21 6 3 -3 6 -20
5 -17 -1 -31 -4 -31 -8 0 -5 -5 -8 -11 -8 -5 0 -8 4 -5 9 3 5 -3 11 -14 14
-11 3 -20 1 -20 -4 0 -5 5 -9 11 -9 7 0 0 -11 -14 -24 -25 -24 -117 -41 -117
-23 0 5 -12 6 -27 3 -16 -4 -39 0 -53 8 -55 32 -90 44 -111 39 -15 -4 -20 -3
-15 5 7 12 -10 16 -46 13 -9 -1 -19 3 -23 9 -9 15 -25 12 -25 -5 0 -15 46 -32
57 -22 3 4 15 0 26 -8 16 -11 24 -12 35 -2 13 10 14 9 3 -11 -20 -38 5 -52
104 -56 47 -1 88 -6 93 -11 4 -4 -4 -5 -17 -2 -13 3 -20 2 -15 -2 17 -15 165
-43 198 -38 25 4 33 2 33 -10 0 -10 -7 -13 -25 -8 -35 9 -18 -12 21 -24 17 -6
41 -9 52 -6 11 2 28 4 38 4 29 1 9 21 -21 21 -15 0 -34 5 -42 11 -11 8 -1 9
38 5 36 -3 69 -15 100 -36 44 -29 42 -36 -5 -24 -13 4 -20 11 -16 20 3 8 2 14
-2 14 -13 0 -45 -42 -39 -51 2 -5 -27 -6 -65 -3 -58 4 -70 2 -65 -9 4 -10 -7
-16 -40 -20 -43 -6 -105 7 -93 19 3 3 14 1 24 -4 10 -6 34 -7 52 -3 32 6 33 8
18 23 -14 14 -14 17 -2 22 8 3 15 1 15 -4 0 -12 47 -13 54 -1 5 7 -34 22 -69
25 -5 1 -15 5 -22 9 -19 12 -154 33 -211 32 -28 0 -52 3 -52 8 0 7 14 10 40 8
11 -1 10 1 -3 9 -9 6 -27 8 -38 5 -14 -5 -19 -3 -15 3 6 10 -30 28 -46 24 -4
-1 -5 4 -3 11 8 21 -9 32 -70 45 -32 6 -63 19 -68 27 -4 9 -13 13 -19 9 -5 -3
-20 -2 -31 4 -29 15 -168 52 -193 52 -10 0 -31 7 -46 14 -16 8 -36 15 -45 15
-39 1 -53 5 -53 13 0 4 -7 8 -15 8 -8 0 -15 5 -15 10 0 6 -7 10 -17 10 -9 0
-36 11 -60 25 -47 28 -57 20 -19 -16 23 -22 23 -23 5 -43 -10 -11 -20 -18 -22
-15 -81 107 -98 141 -102 203 -4 52 -1 66 14 80 16 14 17 21 7 41 -6 14 -14
25 -18 25 -5 0 -8 5 -8 11 0 5 5 7 10 4 6 -3 10 -3 10 2 0 13 -14 30 -30 37
-8 3 3 3 25 0 22 -3 54 -12 70 -20z m245 -61 c30 -5 32 -7 15 -13 -11 -5 -14
-9 -7 -9 7 -1 21 4 31 10 14 9 25 9 50 -2 37 -17 41 -33 6 -27 -14 3 -25 1
-25 -3 0 -5 9 -9 21 -9 15 0 19 -5 15 -15 -4 -10 1 -15 15 -15 11 0 22 -7 25
-15 4 -8 17 -15 29 -15 13 0 27 -4 30 -10 8 -12 -6 -13 -37 -1 -17 6 -29 5
-43 -5 -24 -18 -56 -18 -49 0 3 8 15 11 32 9 l27 -4 -24 14 c-13 8 -34 13 -47
11 -13 -1 -24 2 -24 7 0 5 -9 9 -21 9 -15 0 -19 -5 -15 -15 5 -13 -2 -16 -42
-14 -26 1 -57 -1 -69 -5 -18 -6 -22 -4 -17 8 3 9 10 14 14 11 5 -3 11 -1 15 5
8 13 45 13 45 0 0 -5 10 -10 23 -9 l22 0 -22 9 c-25 10 -30 25 -10 34 6 3 2 3
-10 1 -12 -3 -24 -1 -28 5 -11 17 -25 11 -25 -11 0 -11 -5 -17 -10 -14 -6 4
-8 11 -5 16 4 5 -1 9 -9 9 -9 0 -16 5 -16 11 0 6 8 8 19 4 28 -9 36 14 9 24
-21 9 -21 10 -3 11 l20 1 -20 10 c-20 9 38 5 115 -8z m587 -55 c84 -9 118 -9
137 0 21 9 24 9 19 -5 -5 -13 -3 -14 15 -4 12 7 22 8 22 3 0 -5 30 -12 66 -15
68 -5 88 -18 78 -48 -3 -12 3 -18 23 -22 35 -7 51 7 33 28 -11 13 -9 15 9 15
17 0 21 -5 17 -17 -6 -21 18 -58 32 -49 5 3 15 -1 22 -10 7 -8 20 -12 28 -9 7
3 35 -2 60 -10 26 -8 66 -20 90 -26 23 -5 42 -14 42 -20 0 -6 -7 -6 -20 1 -11
6 -25 8 -31 5 -5 -4 -15 -2 -22 3 -20 16 -73 22 -85 10 -9 -9 -30 -6 -84 11
-113 36 -120 40 -70 40 23 1 42 5 42 10 0 13 -70 1 -97 -16 -12 -8 -27 -12
-32 -9 -5 4 -12 2 -16 -4 -4 -6 -11 -7 -17 -4 -7 5 -3 10 10 15 12 5 22 14 22
20 0 9 -3 9 -14 0 -8 -7 -25 -9 -40 -5 -16 4 -26 2 -26 -5 0 -15 -27 -14 -33
2 -4 9 -7 9 -15 -1 -10 -15 -142 -13 -142 1 0 5 27 7 60 4 33 -2 63 0 66 4 3
5 -4 9 -15 9 -11 0 -22 4 -25 9 -3 5 -15 7 -26 4 -11 -3 -20 0 -20 6 0 8 -5 9
-19 1 -24 -12 -64 -13 -57 -1 9 15 -76 24 -87 9 -6 -9 -7 -8 -3 5 6 20 5 20
-28 8 -16 -7 -26 -7 -28 0 -2 5 -20 10 -41 11 -20 1 -42 7 -48 15 -9 10 -8 13
0 13 7 0 9 5 6 10 -4 6 -12 4 -21 -5 -9 -8 -29 -15 -45 -15 -16 0 -29 -5 -29
-11 0 -5 4 -8 9 -4 5 3 12 1 16 -5 8 -13 -35 -13 -55 0 -13 9 -13 10 0 10 8 1
-3 7 -25 15 -22 8 -47 12 -56 10 -9 -3 -16 1 -16 10 0 8 7 15 16 15 13 0 14 2
2 9 -17 11 108 8 158 -4 24 -6 32 -5 27 3 -10 16 42 19 99 5 28 -7 100 -18
162 -25z m1078 -218 c-8 -13 11 -13 35 0 11 6 21 6 24 1 3 -5 14 -7 24 -5 9 3
35 -4 56 -15 21 -11 44 -17 50 -13 6 4 -1 8 -16 10 -16 2 -28 7 -28 11 0 4 20
5 45 1 25 -4 58 -6 74 -5 26 1 29 -1 20 -17 -8 -15 -6 -18 10 -18 12 0 18 5
16 13 -6 14 22 19 123 19 47 0 72 4 72 11 0 7 4 6 9 -2 12 -18 101 -25 101 -8
0 6 6 4 13 -5 6 -9 23 -19 37 -22 26 -5 -104 1 -175 8 -96 10 -136 9 -148 -3
-10 -11 -7 -13 15 -9 15 3 33 1 40 -3 10 -7 9 -9 -4 -9 -11 0 -15 -5 -12 -15
7 -17 -11 -21 -22 -4 -4 7 -24 9 -50 6 -24 -2 -44 -1 -44 3 0 3 -16 11 -35 17
-22 7 -35 8 -35 1 0 -5 -8 -7 -19 -3 -11 3 -21 0 -24 -8 -4 -10 1 -13 19 -9
27 5 74 -5 74 -16 0 -4 -38 -7 -85 -8 -46 0 -82 2 -80 6 2 4 -13 15 -33 24
l-37 18 25 -27 c17 -18 20 -24 7 -19 -9 3 -17 11 -17 16 0 6 -13 8 -30 6 -16
-3 -30 -1 -30 4 0 4 7 8 16 8 15 0 44 23 44 34 0 3 -9 6 -21 6 -15 0 -19 -5
-15 -15 3 -9 0 -15 -10 -15 -9 0 -13 5 -10 13 3 6 9 20 12 30 4 9 11 17 16 17
5 0 6 -4 3 -10z m-1715 -115 c-7 -18 -5 -36 10 -69 10 -25 16 -47 12 -49 -4
-2 0 -2 8 1 8 2 31 5 50 7 34 3 34 2 5 -5 -27 -7 -27 -8 -6 -9 13 0 21 -4 17
-8 -8 -9 -13 -10 -48 -12 -19 -1 -20 -3 -8 -11 12 -8 13 -12 2 -19 -11 -7 -11
-11 0 -22 8 -8 17 -22 21 -31 3 -10 12 -18 19 -18 10 0 9 3 -1 9 -11 7 -9 10
10 13 l24 4 -27 12 c-32 13 -38 27 -8 17 11 -4 20 -2 20 4 0 6 -4 11 -10 11
-5 0 -10 4 -10 9 0 5 9 7 19 4 12 -3 17 -11 14 -19 -4 -10 3 -14 22 -14 14 0
24 3 22 8 -3 4 26 8 63 9 51 2 73 -1 84 -13 9 -8 20 -13 25 -10 5 4 12 0 14
-6 4 -10 7 -10 14 -1 9 13 53 7 53 -8 0 -12 -18 -21 -22 -10 -1 4 -11 5 -22 2
-17 -7 -17 -8 -2 -23 19 -19 20 -28 5 -28 -16 0 -39 26 -39 45 0 9 -4 14 -9
11 -5 -3 -14 1 -21 9 -15 18 -46 20 -56 4 -4 -8 -9 -7 -15 2 -6 11 -11 11 -20
2 -9 -9 -16 -9 -25 -2 -9 7 -20 5 -39 -7 -19 -13 -23 -19 -13 -25 7 -4 15 -4
18 1 5 9 44 7 110 -5 13 -2 28 1 33 8 5 7 6 0 2 -18 -6 -26 -5 -28 7 -12 12
16 14 16 26 -4 8 -12 9 -18 2 -14 -6 4 -17 2 -24 -4 -11 -9 -18 -8 -29 4 -17
17 -32 20 -22 6 3 -6 -4 -9 -15 -8 -22 1 -25 7 -10 25 7 9 7 9 -2 2 -7 -5 -23
-10 -36 -10 l-24 0 26 -35 c28 -37 27 -42 -5 -25 -15 8 -22 6 -36 -10 -18 -21
-63 -28 -63 -10 0 16 -14 12 -42 -15 -16 -15 -29 -21 -33 -14 -9 14 14 39 37
39 15 0 18 5 14 23 -3 12 -3 16 0 9 5 -10 11 -10 29 2 15 10 26 12 30 6 4 -6
11 -7 17 -4 7 4 8 2 4 -4 -4 -7 -16 -12 -27 -12 -25 0 -20 -24 6 -28 9 -2 15
0 11 6 -3 5 1 15 9 22 19 16 19 34 0 50 -12 10 -19 10 -27 2 -8 -8 -16 -7 -29
1 -10 6 -22 8 -26 4 -4 -5 -1 -12 7 -17 8 -6 10 -10 4 -10 -12 0 -42 30 -43
43 -1 4 -1 15 -1 25 0 14 -10 17 -60 17 -33 0 -60 3 -60 8 0 4 10 8 23 8 13 1
16 3 6 6 -8 2 -28 -3 -45 -12 -23 -12 -25 -15 -9 -15 11 0 29 -13 40 -30 14
-21 28 -30 48 -30 15 0 30 -7 33 -15 4 -8 15 -15 25 -15 10 0 19 -7 19 -15 0
-8 -9 -15 -20 -15 -11 0 -20 5 -20 12 0 6 -7 4 -18 -5 -10 -10 -23 -17 -28
-17 -5 0 -10 -9 -10 -20 0 -11 5 -20 11 -20 5 0 16 -9 23 -20 8 -14 9 -20 1
-20 -6 0 -9 -7 -5 -15 4 -11 -2 -15 -24 -15 -33 0 -43 10 -30 30 12 19 1 40
-20 40 -12 0 -18 -6 -16 -17 2 -10 0 -43 -4 -73 l-7 -55 -2 73 c-1 76 -21 121
-78 180 -13 13 -24 26 -24 30 -9 53 -6 63 17 78 14 10 24 26 24 40 0 12 4 25
10 29 5 3 6 13 3 23 -6 15 -5 15 10 3 9 -7 15 -16 13 -20 -3 -4 11 -7 31 -6
27 0 37 -4 39 -17 2 -20 -32 -26 -38 -7 -2 6 -14 8 -31 4 -33 -9 -36 -22 -4
-21 17 1 22 -4 21 -21 0 -13 5 -23 13 -23 7 0 12 5 11 11 -2 6 3 14 11 17 9 3
11 0 6 -9 -6 -11 -5 -11 4 -3 8 8 25 9 49 3 23 -5 41 -4 47 2 7 7 4 8 -7 4
-12 -5 -18 -2 -18 7 0 8 -9 24 -20 36 -11 12 -20 24 -20 27 0 3 9 5 20 5 27 0
25 18 -2 22 -13 2 -22 9 -20 16 1 7 -9 12 -23 12 -41 0 -29 18 23 34 63 20 63
20 52 -9z m2000 5 c0 -5 18 -10 40 -10 22 0 40 -4 40 -9 0 -4 22 -6 49 -3 26
2 58 -1 70 -7 11 -7 21 -8 21 -3 0 4 8 8 18 8 10 0 18 -8 18 -17 0 -14 -6 -16
-27 -12 -15 3 -30 0 -34 -7 -10 -17 15 -30 44 -23 19 5 22 3 17 -13 -4 -15 -1
-20 13 -20 15 0 17 3 9 13 -8 11 -7 12 8 7 10 -4 24 -11 31 -16 7 -6 17 -7 23
-3 5 3 10 2 10 -2 0 -5 -20 -14 -45 -21 -50 -13 -119 -16 -112 -4 3 4 -20 8
-50 9 -31 2 -62 8 -69 14 -7 6 -19 9 -26 6 -8 -4 -7 -6 5 -6 9 -1 17 -5 17
-10 0 -5 -17 -5 -41 0 -40 9 -105 3 -113 -10 -3 -4 3 -7 12 -8 9 -1 28 -4 41
-9 17 -5 22 -4 17 5 -4 6 -12 9 -17 6 -5 -4 -9 -1 -9 4 0 17 30 13 36 -4 5
-12 10 -13 20 -4 16 13 48 4 39 -11 -3 -5 -2 -10 4 -10 5 0 13 5 16 10 3 6 18
10 33 9 16 0 21 -3 12 -6 -8 -3 -26 -10 -40 -16 -41 -17 -70 -19 -70 -5 0 9
-3 9 -10 -2 -11 -18 25 -30 108 -36 44 -3 50 -1 40 11 -8 8 -17 10 -22 4 -13
-12 -56 -12 -56 1 0 14 40 32 61 27 10 -3 20 0 21 5 4 12 48 -7 60 -26 5 -8 8
-7 8 2 0 6 9 12 20 12 11 0 20 4 20 9 0 13 113 19 123 6 4 -7 10 -6 15 2 4 7
16 10 27 8 11 -2 41 -7 68 -11 26 -3 47 -11 47 -16 0 -5 5 -6 10 -3 6 3 15 3
21 -1 8 -4 7 -9 -2 -15 -10 -6 -9 -9 6 -14 11 -4 29 -11 40 -17 11 -7 38 -17
60 -24 l40 -13 -40 -1 -40 -2 29 -12 c29 -13 29 -13 -24 -18 -29 -3 -69 -1
-89 4 -20 5 -60 11 -88 12 -29 1 -56 6 -60 9 -3 4 -23 5 -42 3 -20 -3 -28 -3
-18 0 32 10 -1 34 -47 35 -36 0 -38 2 -19 11 26 13 38 38 18 38 -8 0 -15 -5
-15 -11 0 -6 -7 -9 -15 -5 -13 5 -20 -5 -16 -26 0 -5 -6 -8 -15 -8 -8 0 -13 4
-10 9 3 5 -6 16 -20 26 -30 20 -55 16 -32 -6 14 -12 13 -15 -16 -26 l-31 -11
28 -2 c15 -2 32 -4 37 -5 6 -1 22 -3 36 -4 14 0 23 -5 19 -10 -3 -5 -18 -7
-33 -3 -15 3 -46 6 -69 7 -31 0 -43 4 -44 15 0 10 -2 11 -6 3 -7 -18 -23 -16
-23 2 0 10 -10 15 -29 15 -17 0 -33 5 -37 11 -3 6 -17 8 -30 5 -22 -6 -24 -3
-24 25 0 37 -7 36 -14 -3 -4 -23 0 -28 26 -37 17 -6 44 -11 61 -11 25 0 28 -2
17 -15 -15 -18 -35 -20 -24 -3 4 7 3 8 -4 4 -7 -4 -18 -4 -24 1 -7 4 -20 9
-29 10 -8 1 -29 9 -45 18 -33 17 -64 20 -64 5 0 -5 -4 -10 -10 -10 -12 0 -9
22 5 32 6 4 26 5 45 2 34 -6 35 -6 13 10 -18 13 -27 15 -44 6 -11 -7 -32 -9
-45 -6 -26 7 -33 -11 -13 -31 7 -7 -2 -7 -32 1 -27 7 -36 12 -23 15 20 4 35
21 28 32 -2 4 -13 5 -24 2 -11 -3 -17 -10 -13 -16 4 -7 0 -8 -11 -4 -10 4 -31
7 -47 7 -27 0 -29 2 -19 20 8 16 8 20 -3 20 -8 0 -17 -9 -20 -20 -3 -11 -10
-20 -17 -20 -6 0 -8 6 -4 13 4 6 4 9 -1 5 -4 -4 -14 -3 -22 3 -10 9 -17 8 -28
-1 -10 -9 -15 -9 -15 -1 0 6 5 11 10 11 6 0 10 4 10 10 0 6 -9 6 -25 0 -14 -5
-25 -7 -25 -4 0 4 -7 1 -15 -6 -8 -6 -20 -8 -27 -4 -7 5 -37 9 -66 10 -29 1
-58 7 -65 12 -7 6 -30 13 -52 16 -22 2 -48 8 -57 11 -14 6 -18 2 -18 -15 0
-20 4 -22 50 -18 28 1 50 0 50 -4 0 -4 9 -10 20 -13 11 -3 20 -11 20 -16 0
-14 -33 -11 -76 7 -24 10 -40 12 -42 6 -2 -7 -16 -5 -39 5 -20 8 -55 18 -77
22 -31 6 -37 10 -23 16 10 4 31 1 51 -9 19 -9 40 -16 48 -15 17 1 -43 27 -102
45 -42 12 -43 12 -25 -3 18 -14 18 -15 2 -9 -10 3 -22 6 -27 6 -4 0 -7 8 -5
18 2 9 4 20 4 23 1 9 28 8 116 -2 56 -6 84 -14 93 -26 11 -16 12 -16 12 0 0
13 8 16 41 13 22 -2 49 -12 60 -22 18 -16 19 -16 13 -1 -4 12 -1 17 11 17 9 0
13 -4 10 -10 -3 -5 8 -9 28 -8 39 1 60 -9 51 -24 -4 -7 -2 -8 5 -4 6 4 9 11 6
16 -3 4 14 4 37 -2 31 -7 43 -6 49 4 7 10 9 10 9 1 0 -7 6 -13 14 -13 8 0 17
6 20 13 5 9 7 9 12 -1 5 -10 9 -9 18 4 7 9 18 14 24 10 17 -10 15 -26 -3 -20
-8 4 -15 1 -15 -5 0 -6 20 -12 48 -13 73 -2 98 -10 87 -29 -4 -5 -1 -9 4 -9 6
0 11 7 11 15 0 15 57 35 104 35 16 0 26 3 22 7 -4 4 -24 6 -45 4 -26 -1 -40 2
-44 12 -4 10 -19 13 -56 11 -28 -1 -49 1 -46 6 7 11 -19 20 -44 13 -12 -3 -21
-1 -21 6 0 6 -16 11 -35 11 -19 0 -35 5 -35 10 0 6 18 10 40 10 24 0 40 -5 40
-12 0 -9 3 -9 11 -1 7 7 21 8 42 2 18 -5 45 -9 60 -9 16 0 26 -4 22 -10 -3 -5
-1 -10 4 -10 6 0 11 5 11 11 0 6 7 8 17 5 9 -4 20 -1 25 6 6 10 8 10 8 1 0 -8
13 -13 30 -13 17 0 30 -3 30 -7 0 -5 41 -9 91 -11 50 -1 98 -6 108 -11 9 -5
22 -6 29 -2 18 11 -14 51 -41 51 -18 0 -19 -2 -7 -10 12 -8 9 -10 -11 -10 -15
0 -32 7 -39 15 -7 8 -22 15 -34 15 -11 0 -34 9 -51 20 -21 14 -25 20 -12 20 9
0 17 -4 17 -10z m1501 -190 c33 0 70 -5 81 -11 15 -8 19 -8 14 0 -4 6 -1 11 8
11 8 0 17 -4 20 -9 6 -10 86 -23 132 -22 39 1 65 -24 35 -32 -11 -3 -22 0 -25
7 -3 8 -7 7 -14 -3 -7 -9 -12 -10 -16 -2 -4 6 -31 11 -61 11 -30 0 -77 5 -105
11 -38 8 -55 8 -63 0 -15 -15 -28 -14 -24 2 1 7 -11 13 -30 15 -24 2 -31 7
-27 20 2 9 -1 7 -7 -5 -9 -18 -17 -21 -37 -16 -16 4 -23 2 -19 -4 4 -6 -4 -8
-21 -5 l-27 6 25 6 c21 6 23 8 7 15 -9 4 -28 5 -40 1 -14 -3 -32 1 -43 9 -21
16 -8 20 16 5 9 -6 17 -5 21 2 5 8 16 7 39 -1 36 -12 80 -5 80 13 0 6 5 3 11
-6 8 -14 23 -18 70 -18z m-2289 -16 c23 -12 33 -13 44 -3 11 9 17 9 29 -1 8
-6 23 -9 35 -5 13 4 20 2 18 -5 -2 -7 3 -15 11 -18 8 -2 11 0 7 6 -7 12 29 27
43 18 8 -5 88 -14 176 -20 17 -1 36 -5 43 -10 7 -4 25 -6 41 -4 16 1 36 -3 44
-11 9 -7 22 -9 28 -5 8 4 9 3 5 -4 -4 -7 -1 -12 8 -12 9 0 16 -5 16 -11 0 -7
-12 -9 -30 -7 -21 3 -29 1 -26 -7 5 -14 -89 -10 -137 5 -42 14 -81 -9 -41 -24
23 -9 24 -8 17 10 -5 14 -2 14 22 -2 15 -10 34 -19 40 -20 7 -1 22 -5 34 -9
11 -3 21 -2 21 2 0 5 39 8 88 7 112 -2 114 -2 107 -14 -4 -6 -11 -8 -16 -5
-14 9 -99 15 -99 7 1 -17 18 -30 50 -38 40 -9 53 -7 95 11 53 23 65 25 65 11
0 -7 7 -19 15 -26 12 -10 15 -10 15 1 0 8 10 14 25 14 14 0 25 -5 25 -12 0 -7
-7 -10 -17 -6 -15 5 -16 4 -5 -8 10 -11 16 -11 32 -1 30 18 43 15 31 -7 -11
-19 -53 -21 -89 -3 -9 5 -28 12 -42 15 -21 5 -25 2 -26 -18 -1 -18 6 -27 30
-35 17 -7 25 -14 18 -17 -7 -3 -24 2 -37 11 -13 9 -32 16 -42 16 -10 0 -14 4
-8 8 6 4 11 13 13 20 3 17 -45 15 -52 -3 -4 -10 -19 -15 -48 -14 -24 1 -35 3
-26 6 10 2 15 10 11 19 -3 9 -10 11 -20 5 -17 -9 -53 -3 -53 9 0 4 -15 10 -32
13 -62 9 -180 48 -196 64 -15 14 -14 15 6 9 13 -4 22 -3 22 3 0 16 -20 24 -61
24 -23 0 -40 5 -43 13 -3 8 -13 14 -23 14 -17 -1 -17 -1 0 -14 9 -7 17 -18 17
-25 0 -6 11 -11 25 -11 22 0 24 -2 13 -14 -8 -9 -17 -11 -22 -5 -15 14 -36 11
-53 -7 -13 -12 -28 -15 -63 -10 -37 5 -50 3 -60 -10 -12 -13 -11 -17 1 -25 12
-7 12 -9 -1 -9 -8 0 -22 5 -30 10 -10 6 -11 10 -2 10 6 0 12 6 12 14 0 16 34
29 70 27 23 -2 24 -1 8 12 -25 20 -22 28 7 22 14 -3 37 -8 53 -11 18 -4 24 -2
17 5 -6 6 -37 13 -70 16 -44 5 -56 4 -45 -4 13 -10 13 -12 0 -21 -8 -5 -27
-10 -42 -10 -14 0 -33 -3 -42 -6 -11 -4 -16 -1 -16 11 0 13 6 15 31 10 24 -5
30 -4 24 5 -5 8 -22 10 -51 6 -32 -4 -43 -2 -41 7 1 8 -9 11 -31 9 -21 -1 -31
2 -27 8 4 7 29 8 68 4 l62 -7 -25 20 c-14 11 -38 27 -53 35 l-29 15 53 1 c29
0 65 -6 81 -14z m-562 -74 l35 -8 -34 -1 c-42 -1 -38 -7 12 -15 26 -4 37 -2
37 7 0 7 9 13 20 14 11 1 20 -2 20 -8 0 -5 -7 -9 -15 -9 -8 0 -15 -6 -15 -14
0 -16 -49 -25 -79 -15 -11 5 -23 4 -26 0 -6 -10 47 -31 76 -31 17 0 24 -16 20
-42 -2 -12 17 -10 24 2 3 6 1 10 -4 10 -6 0 -11 5 -11 10 0 16 47 11 54 -6 3
-8 10 -12 16 -9 6 4 8 11 5 16 -4 5 -1 9 5 9 6 0 8 5 5 10 -3 6 -2 10 4 10 6
0 8 7 5 15 -5 12 3 15 36 15 33 0 48 -6 66 -26 13 -14 24 -30 24 -37 0 -9 -2
-9 -8 -1 -4 6 -17 14 -29 18 -18 6 -22 3 -25 -21 -3 -26 -6 -28 -47 -29 -49
-1 -71 -23 -24 -25 l28 -1 -31 -7 c-17 -4 -37 -11 -44 -16 -8 -5 -11 -4 -7 2
8 13 -29 31 -76 36 -21 3 -46 11 -55 19 -9 8 -25 18 -34 21 -10 4 -18 13 -18
21 0 17 -27 29 -32 14 -2 -6 -19 -1 -41 12 -35 21 -36 23 -20 36 10 7 32 13
48 13 28 0 28 -1 8 -9 -13 -5 -23 -11 -23 -13 0 -2 10 -4 23 -4 12 0 30 -3 40
-8 21 -9 32 -1 22 15 -6 9 -9 9 -15 1 -3 -7 -7 2 -7 19 0 29 2 31 26 24 14 -4
42 -10 61 -14z m390 -5 c0 -8 -4 -15 -10 -15 -21 0 -9 -20 15 -26 14 -3 22
-10 19 -15 -3 -5 -1 -9 5 -9 5 0 14 8 20 17 7 13 12 14 23 6 7 -6 29 -10 48
-9 19 2 27 1 17 -1 -9 -3 -15 -8 -13 -12 3 -4 -5 -8 -16 -8 -11 -1 -26 -10
-33 -20 -7 -10 -17 -15 -20 -11 -4 4 1 15 10 25 28 28 0 27 -30 -2 -16 -14
-24 -25 -19 -25 5 0 2 -5 -7 -10 -10 -6 -28 -6 -47 0 -19 5 -34 5 -37 -1 -11
-17 -27 -9 -22 10 3 12 -4 29 -16 41 -20 22 -20 22 0 16 12 -4 25 -1 33 9 7 8
19 15 26 15 8 0 14 5 14 11 0 6 -9 8 -22 4 -19 -5 -20 -4 -8 5 12 10 11 11 -6
7 -12 -2 -27 -1 -34 3 -6 4 16 8 49 9 49 1 61 -1 61 -14z m-800 -25 c0 -5 10
-10 23 -9 21 0 21 1 2 9 -29 13 -7 11 48 -3 26 -7 45 -16 41 -19 -3 -4 7 -5
22 -3 42 5 42 5 9 20 -21 10 -24 14 -12 15 11 0 62 -26 114 -57 52 -32 107
-65 122 -73 24 -14 26 -18 13 -30 -13 -12 -12 -14 6 -21 16 -6 20 -13 15 -26
-7 -17 -8 -17 -11 0 -2 9 -8 17 -14 17 -5 0 -23 9 -39 21 -16 11 -33 17 -39
14 -5 -3 -10 0 -10 8 0 13 -62 70 -100 92 -13 8 -13 7 -1 -8 17 -21 -2 -23
-23 -2 -8 8 -24 15 -35 15 -11 0 -22 4 -25 8 -2 4 -28 7 -57 5 -52 -2 -84 10
-73 28 7 12 24 11 24 -1z m1072 -70 c23 0 29 -3 19 -9 -8 -5 -29 -9 -47 -9
-35 0 -94 -22 -94 -35 0 -4 13 -6 29 -5 16 1 28 5 25 9 -7 13 30 19 60 11 32
-9 48 -32 19 -27 -25 4 -38 -6 -22 -17 9 -6 5 -7 -12 -3 -23 6 -26 3 -27 -23
-1 -28 1 -30 39 -28 27 1 38 5 34 14 -6 15 26 16 59 0 22 -9 29 -8 46 7 11 10
23 16 26 13 3 -3 -5 -15 -17 -27 l-23 -21 22 0 c11 0 24 5 27 10 8 13 82 13
87 1 2 -5 25 -7 51 -4 58 7 54 14 -9 19 -26 2 -52 8 -58 14 -7 7 -6 10 2 10 7
0 12 4 12 9 0 6 -16 7 -35 4 -39 -6 -49 11 -12 21 36 10 59 7 51 -6 -5 -8 -2
-9 11 -4 15 5 16 4 5 -9 -16 -20 -14 -22 40 -29 25 -4 54 -8 65 -9 11 -2 27 2
35 8 25 20 58 24 71 9 8 -10 8 -14 0 -14 -6 0 -11 6 -11 13 0 8 -2 9 -8 1 -4
-7 -16 -14 -27 -17 -13 -3 -8 -5 15 -7 l35 -2 -27 -10 c-28 -10 -37 -31 -18
-43 6 -3 10 -1 10 4 0 18 28 13 39 -6 8 -16 4 -18 -27 -18 -38 0 -78 27 -67
45 9 15 -2 12 -19 -6 -15 -14 -17 -14 -22 0 -7 18 -49 22 -59 6 -4 -6 -15 -8
-24 -5 -10 3 -24 -1 -31 -10 -13 -15 -35 -11 -25 6 4 5 2 9 -4 9 -5 0 -16 3
-25 6 -9 3 -16 1 -16 -5 0 -6 7 -11 15 -11 8 0 15 -4 15 -10 0 -5 -5 -10 -11
-10 -5 0 -7 -6 -3 -12 6 -10 4 -10 -7 0 -18 17 -30 15 -23 -3 5 -11 2 -13 -10
-9 -9 3 -16 11 -16 18 0 6 -9 19 -20 29 -18 15 -24 14 -21 -5 0 -5 -16 -8 -36
-7 -32 0 -34 2 -17 9 28 11 40 30 20 30 -9 0 -16 -4 -16 -9 0 -13 -81 -2 -99
12 -11 9 -15 9 -18 0 -3 -8 -10 -9 -21 -4 -9 5 -28 14 -42 19 -21 9 -19 10 14
5 30 -5 38 -3 34 8 -3 8 -14 13 -24 11 -18 -2 -18 -2 -1 12 16 12 16 14 1 20
-9 3 -20 4 -25 1 -5 -4 -6 1 -3 10 5 11 1 14 -12 10 -11 -3 -8 0 6 7 14 7 28
16 31 21 3 5 9 8 13 8 3 -1 20 -1 38 -1 24 0 29 3 21 11 -6 6 -9 18 -6 27 5
12 8 11 14 -6 6 -16 17 -22 41 -22z m-3828 -36 c9 -24 -2 -34 -40 -34 -22 0
-33 -4 -29 -10 4 -6 1 -17 -5 -25 -7 -8 -9 -23 -6 -32 5 -12 9 -14 14 -6 4 7
26 14 49 15 23 2 39 7 36 11 -3 5 -16 6 -29 3 -30 -8 -30 -6 1 30 25 28 26 28
40 10 8 -10 16 -24 18 -30 2 -6 18 -9 35 -8 19 1 32 -2 32 -9 0 -6 -7 -8 -16
-5 -11 4 -15 2 -11 -7 5 -13 -7 -16 -70 -17 -75 -2 -121 -12 -116 -26 3 -8 0
-14 -6 -14 -19 0 -12 -30 7 -30 15 -1 15 -3 -3 -18 -12 -9 -24 -25 -28 -34 -3
-10 -18 -20 -33 -24 -21 -5 -31 -1 -50 22 -24 30 -31 54 -15 54 21 0 40 -13
34 -23 -3 -6 -1 -7 5 -3 7 4 12 14 12 22 0 8 9 14 19 14 15 0 25 16 42 68 24
69 26 75 28 92 0 6 12 8 26 4 18 -4 27 -1 31 10 8 20 20 20 28 0z m209 -154
c5 0 21 -13 37 -28 16 -16 43 -35 60 -42 23 -9 29 -17 24 -29 -3 -9 -14 -37
-23 -63 l-16 -48 -50 5 -50 4 43 -9 c49 -10 62 -17 62 -31 0 -6 -9 -7 -22 -3
-20 6 -21 5 -9 -10 12 -14 11 -16 -7 -16 -11 0 -22 -6 -25 -14 -6 -16 -76 -15
-134 3 -36 11 -54 -2 -26 -18 17 -9 17 -10 0 -16 -9 -4 -26 -5 -37 -2 -10 3
-21 0 -23 -6 -5 -15 -54 -11 -94 8 -17 8 -39 12 -48 9 -14 -6 -16 -4 -8 12 6
10 8 24 6 31 -2 6 8 20 24 30 36 23 45 36 30 45 -9 6 -9 8 0 8 6 0 18 3 27 6
9 3 16 2 16 -3 0 -14 -42 -58 -63 -66 -19 -7 -23 -27 -6 -27 5 0 8 4 5 9 -10
15 69 23 110 12 44 -12 58 -6 23 9 -23 10 -23 10 4 6 19 -2 31 2 34 11 5 12 7
12 14 1 6 -10 11 -10 20 -1 6 6 19 9 28 5 12 -5 12 -2 -3 14 -14 13 -33 19
-67 19 l-48 0 27 22 c29 24 67 30 78 12 5 -9 -1 -10 -20 -5 -14 3 -26 2 -26
-3 0 -14 34 -23 56 -15 14 4 15 3 6 -4 -11 -7 -8 -11 9 -15 13 -4 25 -4 28 -2
2 3 -1 5 -7 5 -41 0 23 38 70 42 15 1 24 6 21 11 -3 4 3 15 13 23 17 13 15 14
-26 12 -28 -1 -52 -9 -63 -20 -19 -19 -79 -17 -114 5 -7 5 -21 -1 -33 -13 -11
-11 -17 -20 -12 -20 4 0 -1 -5 -11 -11 -13 -8 -21 -6 -34 6 -11 11 -18 13 -23
5 -4 -6 -14 -8 -23 -4 -9 3 -14 10 -11 15 3 5 10 7 15 4 5 -4 9 4 9 17 0 17 3
19 9 9 6 -10 10 -10 16 -1 4 6 13 9 21 6 8 -3 13 0 11 7 -1 7 8 11 25 9 17 -2
36 4 50 17 21 20 21 21 2 21 -16 0 -17 2 -4 10 13 9 13 10 0 10 -13 0 -13 2 0
9 8 6 17 8 22 5 4 -2 12 5 18 16 6 11 8 20 5 20 -4 0 -3 4 0 10 3 6 21 2 43
-10 20 -11 40 -20 45 -20z m1222 -175 c9 -30 21 -57 25 -60 5 -3 7 -12 4 -20
-4 -9 3 -16 20 -21 25 -6 24 -7 -17 -28 -23 -12 -46 -32 -52 -44 -13 -29 -27
-28 -20 1 3 12 -3 51 -14 87 -12 36 -21 75 -21 87 0 19 32 53 51 53 3 0 14
-25 24 -55z"/>
<path d="M7150 1290 c8 -5 11 -10 5 -10 -5 -1 15 -9 45 -20 33 -11 46 -18 33
-19 -13 -1 -23 -5 -23 -11 0 -5 15 -9 33 -8 35 1 97 -21 97 -34 0 -5 -4 -8
-10 -8 -5 0 -10 -7 -10 -16 0 -8 -4 -13 -10 -9 -5 3 -7 12 -3 20 3 9 -1 15
-11 15 -9 0 -16 5 -16 10 0 6 -7 10 -15 10 -8 0 -15 -4 -15 -10 0 -5 6 -10 14
-10 8 0 17 -7 20 -16 9 -22 8 -24 -11 -25 -20 -1 -12 -4 30 -13 15 -4 25 -11
22 -16 -3 -6 0 -10 7 -11 7 -1 29 -2 48 -4 19 -2 36 -8 38 -14 5 -15 62 -14
62 2 0 8 3 7 10 -3 5 -8 18 -16 30 -16 32 -2 33 -3 22 -17 -9 -10 -3 -15 27
-23 30 -8 38 -8 38 3 0 7 -10 13 -21 14 -19 0 -19 1 3 10 19 8 21 12 11 24
-14 17 -35 21 -25 5 7 -11 -18 -14 -29 -3 -7 7 -36 13 -71 14 -11 1 -36 6 -55
12 -19 6 -44 11 -55 11 -29 2 -45 15 -38 32 4 10 9 12 18 4 7 -6 26 -10 41 -9
16 1 38 -2 48 -6 14 -6 17 -5 12 4 -6 9 0 10 21 6 21 -5 24 -4 13 4 -12 9 -11
11 7 11 12 0 25 -5 28 -11 10 -15 55 -30 68 -22 8 4 3 10 -13 15 -16 5 -6 6
25 3 l50 -5 -28 16 c-16 8 -35 13 -43 10 -10 -4 -12 -2 -8 6 5 8 2 9 -9 5 -10
-4 -17 -2 -17 4 0 7 -11 9 -27 6 -15 -3 -37 -1 -50 4 -24 9 -34 -5 -10 -14 9
-4 8 -8 -3 -16 -20 -14 -36 -8 -32 13 3 19 2 19 -32 6 -19 -7 -24 -6 -20 4 6
15 -38 40 -71 41 -13 0 -34 9 -47 20 -35 30 -65 45 -90 45 -19 0 -20 -2 -8
-10z"/>
<path d="M0 2445 c0 -20 6 -23 63 -30 90 -10 87 -10 145 -29 28 -10 50 -21 47
-26 -5 -8 -65 9 -75 21 -3 3 -30 9 -60 13 -30 4 -70 9 -87 12 -30 6 -33 4 -33
-17 0 -13 4 -19 8 -14 5 8 21 8 53 0 38 -8 44 -12 33 -22 -7 -7 -15 -9 -19 -4
-5 9 -65 4 -74 -5 -2 -2 13 -4 35 -5 68 -1 87 -5 99 -22 7 -11 26 -17 46 -16
33 0 33 1 9 11 -16 6 -20 12 -12 15 7 3 22 -3 33 -13 15 -13 22 -15 31 -6 9 9
9 12 0 12 -14 0 18 34 39 43 11 4 11 6 1 6 -7 1 -11 5 -7 10 3 5 0 15 -7 23
-7 7 -13 19 -13 27 0 9 -19 19 -52 26 -29 7 -53 9 -53 5 0 -4 16 -11 36 -15
20 -3 33 -9 30 -12 -6 -6 -123 11 -183 27 -30 7 -33 6 -33 -15z"/>
<path d="M804 2297 c-34 -37 -36 -46 -15 -73 12 -15 21 -32 21 -40 0 -7 4 -14
9 -16 5 -1 12 -15 16 -29 6 -23 3 -27 -24 -32 -22 -5 -31 -12 -31 -27 0 -13
-7 -20 -20 -20 -11 0 -20 4 -20 10 0 5 -12 9 -27 9 -16 -1 -35 1 -43 3 -8 1
-17 -1 -20 -7 -3 -6 15 -13 40 -16 25 -3 38 -7 30 -8 -8 -1 3 -10 25 -19 l40
-18 -34 -7 c-19 -4 -39 -3 -46 3 -9 8 -14 6 -19 -5 -3 -9 -2 -13 4 -10 17 10
34 -6 19 -17 -15 -10 113 -1 140 10 9 4 16 16 16 27 0 15 7 20 28 20 28 -1 36
10 15 18 -8 3 -7 6 4 6 9 1 20 -3 23 -9 9 -15 42 -12 48 4 5 11 -7 16 -49 22
-52 6 -76 24 -33 24 12 0 17 4 14 11 -4 6 -13 8 -21 5 -8 -3 -11 0 -7 10 3 8
0 21 -7 29 -6 8 -9 19 -6 24 4 5 -2 14 -11 20 -15 8 -16 13 -5 31 10 17 10 21
-3 26 -8 4 -15 14 -15 23 0 33 -14 41 -36 18z"/>
<path d="M329 2290 c-9 -5 -35 -11 -57 -12 -56 -4 -54 -18 3 -18 44 0 44 0 28
-20 -10 -11 -24 -20 -33 -20 -13 0 -13 -1 0 -10 13 -8 11 -11 -7 -16 -18 -5
-23 -14 -24 -38 0 -38 -48 -81 -79 -71 -27 9 -26 35 2 35 17 0 19 3 10 12 -17
17 -15 31 3 24 8 -3 15 -1 15 4 0 5 -8 11 -17 13 -11 3 -7 5 10 6 18 1 26 5
21 12 -6 11 -71 8 -129 -5 -11 -2 -32 -5 -47 -5 -26 -1 -28 -4 -28 -48 0 -41
2 -45 13 -29 12 17 17 17 50 5 20 -7 34 -16 31 -20 -2 -5 12 -11 33 -14 21 -3
46 -10 55 -16 10 -5 46 -9 80 -9 54 1 61 3 46 14 -15 11 -15 15 -3 27 8 8 16
30 18 49 2 20 6 41 10 47 4 6 3 14 -2 18 -6 3 -4 21 5 47 16 46 15 50 -7 38z"/>
<path d="M368 2148 c5 -7 8 -24 7 -38 -1 -14 3 -29 9 -33 6 -5 1 -5 -11 -2
-13 3 -23 2 -23 -3 0 -12 35 -22 77 -22 17 0 35 -5 39 -11 5 -8 -3 -10 -24 -7
-17 2 -29 1 -26 -4 3 -4 15 -8 27 -9 20 -1 20 -2 -3 -9 -14 -4 -20 -8 -14 -9
6 -1 27 -12 47 -26 25 -16 46 -23 67 -20 16 2 30 -1 30 -6 0 -5 -15 -9 -32 -9
-28 -1 -30 -2 -15 -11 27 -16 63 -7 59 14 -2 10 2 17 10 16 7 -1 24 -1 37 0
20 1 21 3 11 16 -7 8 -22 15 -33 15 -11 0 -17 3 -14 7 13 12 -15 34 -28 23
-15 -12 -60 4 -88 32 -15 16 -16 19 -3 24 8 3 23 1 33 -5 17 -10 17 -10 -2
-11 l-20 -1 20 -9 c30 -13 38 -12 31 5 -3 8 -1 15 5 15 6 0 17 -7 25 -15 22
-22 39 -18 52 10 l12 25 -68 0 c-73 -1 -119 4 -129 14 -3 3 4 6 17 6 13 0 21
3 17 6 -3 3 -22 6 -41 6 -20 0 -33 4 -30 9 3 5 12 9 20 9 8 0 14 5 14 10 0 6
-16 10 -36 10 -28 0 -34 -3 -26 -12z"/>
<path d="M1058 2073 c-16 -2 -28 -8 -28 -13 0 -5 -8 -6 -17 -3 -16 6 -16 5 -3
-8 8 -8 31 -20 50 -26 l35 -11 -45 -2 c-25 -1 -61 -8 -80 -16 -34 -14 -32 -14
42 -9 42 2 88 10 101 16 20 9 37 9 73 0 38 -10 49 -9 55 1 5 7 26 12 51 11 24
-1 33 1 21 4 -13 2 -23 8 -23 13 0 4 -15 4 -34 0 -18 -4 -62 -4 -97 -1 -63 7
-63 7 -24 14 22 4 54 5 70 2 38 -8 22 8 -24 24 -33 11 -69 12 -123 4z"/>
<path d="M160 2024 c-30 -8 -77 -17 -105 -18 -45 -4 -50 -6 -53 -29 -3 -23 1
-26 35 -30 l38 -4 -38 -1 -37 -2 0 -225 c1 -208 2 -225 19 -225 9 0 26 -7 37
-15 10 -8 27 -15 36 -15 17 0 34 -17 25 -26 -2 -2 -25 5 -51 16 -26 11 -52 20
-57 20 -5 0 -9 -87 -9 -205 l0 -205 31 0 c16 0 28 -4 25 -9 -3 -4 -16 -6 -30
-4 l-24 5 -1 -96 c-1 -86 7 -114 23 -87 3 4 16 6 29 4 34 -7 31 25 -2 34 l-26
7 25 6 c24 6 31 2 65 -28 7 -6 34 -12 59 -12 25 0 48 -4 51 -10 6 -10 -50 -14
-142 -10 -61 2 -83 -7 -83 -36 0 -20 5 -24 33 -24 24 0 28 -3 17 -10 -11 -7
-6 -10 21 -10 20 0 51 -7 69 -16 26 -13 37 -14 51 -5 26 16 48 14 26 -3 -21
-16 -13 -44 17 -56 18 -8 17 -9 -11 -9 -36 -1 -65 8 -59 18 11 18 -18 35 -85
51 l-74 17 -3 -31 c-2 -17 1 -32 7 -34 6 -2 11 -8 11 -13 0 -6 -4 -7 -10 -4
-6 4 -10 -18 -10 -59 0 -45 4 -66 12 -66 9 0 9 -3 0 -12 -18 -18 -14 -35 10
-43 13 -5 32 -11 43 -15 19 -8 19 -8 -2 -9 -12 -1 -25 -6 -29 -12 -4 -8 -11
-3 -20 12 -11 20 -13 -16 -13 -234 l0 -257 453 0 c391 0 455 3 460 15 3 8 10
15 15 15 6 0 8 -7 5 -15 -4 -9 0 -15 9 -15 8 0 18 6 20 13 4 9 6 9 6 0 1 -10
45 -13 187 -13 121 0 183 3 179 10 -3 6 -2 10 4 10 5 0 13 -4 16 -10 8 -13
142 -13 150 -1 3 6 18 6 38 0 17 -5 146 -9 285 -9 236 1 299 8 201 24 -60 10
-41 19 43 21 40 1 58 0 41 -2 -31 -4 -32 -5 -15 -22 13 -15 32 -18 87 -18 39
0 73 4 76 9 3 4 20 3 38 -3 34 -12 48 -8 36 11 -4 7 -16 10 -26 7 -10 -3 -23
1 -30 9 -6 8 -18 14 -26 14 -8 0 -11 5 -8 10 5 8 11 7 21 -1 9 -7 35 -9 76 -4
45 4 59 3 48 -4 -12 -9 -10 -11 12 -11 15 0 30 -4 33 -10 4 -6 -7 -10 -24 -10
-17 0 -31 -4 -31 -10 0 -6 30 -10 71 -10 44 0 68 4 64 10 -3 6 0 10 7 10 23 0
-15 20 -39 20 -13 0 -23 5 -23 11 0 17 56 3 86 -20 22 -17 23 -20 7 -24 -27
-7 567 -7 606 0 20 3 49 21 72 44 22 22 40 33 42 26 3 -7 8 -5 12 7 5 11 3 21
-6 27 -12 7 -12 9 1 9 8 0 35 18 59 40 47 42 66 43 58 4 -3 -20 0 -24 20 -24
23 0 23 1 9 22 -9 12 -16 28 -16 36 0 15 48 62 63 62 5 0 7 7 4 14 -4 10 -1
13 7 10 7 -3 20 1 27 8 8 7 37 31 64 53 28 22 53 45 58 52 13 21 73 52 93 49
10 -2 13 -1 7 1 -7 3 -13 8 -13 13 0 4 -17 -1 -37 -11 -40 -20 -93 -25 -93 -9
0 6 17 10 38 10 34 0 77 20 93 43 4 5 20 10 37 11 17 1 45 12 62 24 24 18 38
22 63 17 48 -11 61 -25 40 -41 -16 -12 -16 -13 -2 -14 19 0 32 25 23 43 -3 7
4 1 15 -12 12 -13 21 -18 21 -12 0 5 18 15 40 21 21 6 45 19 52 28 7 10 21 21
31 25 9 3 17 13 17 21 0 9 12 23 28 31 15 9 19 14 10 11 -12 -3 -18 0 -18 9 0
9 10 15 23 15 20 1 77 41 77 55 0 11 -20 4 -37 -14 -10 -10 -28 -22 -40 -25
-33 -11 -29 14 7 49 29 28 30 30 10 37 -25 9 -27 32 -1 25 12 -3 18 1 17 12 0
9 9 20 22 26 12 5 22 15 22 21 0 7 9 14 20 17 17 4 20 1 18 -23 -1 -18 -7 -26
-15 -23 -7 3 -13 1 -13 -5 0 -6 -10 -7 -22 -4 -22 5 -22 5 -7 -19 17 -25 58
-39 60 -20 1 6 3 16 4 21 1 6 3 15 4 21 1 7 10 5 26 -5 45 -30 67 -18 44 25
-11 22 -3 62 12 53 5 -3 6 -10 3 -16 -4 -7 -2 -8 5 -4 6 4 9 12 6 17 -4 5 1 9
10 9 9 0 29 14 45 30 19 20 24 30 15 30 -23 0 -18 18 11 36 14 9 23 23 20 30
-3 9 2 14 12 14 9 1 28 8 42 16 24 14 24 15 3 11 -13 -3 -23 0 -23 6 0 8 -4 7
-12 -1 -18 -18 -30 -14 -23 8 8 24 -22 29 -31 5 -9 -23 -33 -18 -46 10 -6 14
-15 25 -20 25 -5 0 -6 -5 -3 -10 13 -21 -10 -9 -44 23 l-34 32 23 -33 c12 -19
28 -36 35 -39 8 -2 16 -12 20 -21 5 -14 3 -14 -13 1 -11 10 -26 15 -34 12 -9
-4 -35 16 -70 55 -41 44 -63 60 -82 60 -14 0 -26 5 -26 12 0 7 -13 -3 -30 -22
-16 -20 -29 -47 -30 -62 0 -30 -9 -35 -27 -17 -13 13 -53 3 -53 -13 0 -6 6 -6
15 2 9 7 18 10 21 7 7 -7 -64 -77 -78 -77 -5 0 -21 -9 -35 -20 -30 -24 -45
-26 -37 -6 4 10 -8 22 -34 35 -22 11 -42 27 -45 36 -4 8 -14 15 -22 15 -9 0
-13 5 -10 10 3 6 -3 10 -14 10 -13 0 -21 7 -21 17 0 12 -3 14 -11 6 -14 -14
-5 -29 29 -47 15 -8 47 -33 72 -56 41 -38 43 -42 26 -52 -10 -6 -27 -19 -38
-30 -13 -13 -26 -17 -40 -12 -16 5 -18 8 -7 15 10 6 6 9 -13 9 -14 0 -35 3
-45 6 -12 5 -15 4 -8 -4 6 -5 19 -12 29 -14 28 -5 45 -36 26 -48 -8 -5 -17 -7
-21 -4 -4 2 -10 0 -14 -6 -3 -5 -1 -10 4 -10 18 0 12 -17 -14 -46 -13 -14 -30
-42 -37 -60 -7 -19 -15 -34 -18 -34 -13 0 -8 -119 5 -130 8 -6 11 -18 9 -25
-4 -9 5 -15 28 -18 21 -3 15 -4 -17 -4 -56 1 -75 11 -75 38 0 11 -5 19 -11 19
-15 0 -39 -26 -31 -35 4 -4 7 -12 7 -18 0 -15 45 -23 130 -22 61 0 70 2 67 18
-2 12 4 17 23 17 14 0 25 -4 25 -10 0 -5 -7 -10 -15 -10 -9 0 -18 -7 -21 -15
-4 -8 -14 -15 -23 -15 -9 0 -40 -11 -69 -25 -60 -28 -62 -28 -62 -16 0 4 17
15 38 24 l37 15 -35 1 c-19 0 -49 3 -66 6 -21 5 -34 2 -43 -9 -11 -13 -10 -17
11 -25 13 -5 30 -16 37 -24 11 -14 7 -15 -31 -12 -24 2 -59 7 -79 10 -28 5
-38 3 -42 -9 -8 -19 13 -21 32 -3 11 10 12 9 6 -2 -6 -11 -3 -13 13 -9 12 4
20 2 16 -3 -8 -13 -68 -11 -82 3 -8 8 -15 8 -25 0 -8 -7 -17 -9 -20 -6 -4 4
-19 -1 -34 -10 l-28 -17 24 20 c13 12 29 21 37 21 8 0 14 9 14 19 0 16 6 19
35 15 29 -3 33 -1 28 13 -5 13 -2 15 15 11 29 -8 28 0 0 12 l-23 9 23 0 c12 1
22 6 22 11 0 6 8 10 17 10 28 0 5 13 -27 15 -18 1 -36 -5 -46 -17 -10 -10 -27
-18 -38 -17 -20 0 -20 1 2 10 13 5 20 14 17 19 -4 6 -1 17 5 25 10 13 8 15
-18 15 -17 0 -34 -5 -37 -10 -5 -8 -11 -7 -21 1 -12 10 -12 14 -2 20 10 7 9 9
-4 9 -10 0 -18 -5 -18 -11 0 -6 -9 -8 -22 -4 -23 7 -23 7 -3 -10 19 -16 18
-16 -30 -12 l-50 5 28 -24 c16 -13 25 -24 21 -24 -3 0 0 -7 7 -17 13 -15 12
-15 -8 -4 -19 10 -22 9 -17 -4 5 -11 2 -14 -12 -9 -14 4 -15 3 -6 -4 16 -11
98 -5 129 10 12 6 30 7 40 3 16 -6 15 -9 -9 -17 -15 -5 -25 -15 -22 -21 5 -13
-21 -17 -99 -16 -31 0 -47 -4 -43 -10 4 -6 14 -7 23 -4 11 4 14 3 9 -5 -9 -16
7 -15 22 0 9 9 12 9 12 0 0 -7 -7 -15 -15 -18 -46 -18 20 -37 92 -27 36 5 43
8 28 14 -18 7 -17 8 5 8 14 0 32 -3 40 -9 9 -5 19 -5 26 1 7 6 16 4 24 -6 11
-13 8 -15 -14 -15 -14 0 -26 -4 -26 -10 0 -5 -5 -10 -11 -10 -5 0 -8 4 -5 8 6
10 -50 8 -79 -3 -11 -5 -28 -17 -37 -29 -12 -15 -29 -21 -57 -22 -23 0 -41 3
-41 8 0 4 5 8 11 8 6 0 17 6 25 14 12 13 10 15 -14 21 -52 11 -88 3 -88 -19 1
-12 -7 -22 -18 -24 -11 -3 -16 0 -12 7 5 7 -6 11 -31 11 -22 0 -44 5 -51 12
-8 8 -15 8 -26 -2 -9 -7 -27 -10 -43 -6 l-28 6 28 -15 c29 -17 36 -35 12 -35
-8 0 -15 4 -15 10 0 5 -11 12 -25 16 -14 3 -25 10 -25 15 0 5 -19 9 -42 9 -33
0 -40 3 -28 11 11 8 8 9 -15 4 -81 -17 -88 -18 -81 -6 4 6 17 11 29 11 12 1
33 7 46 14 l25 14 -35 7 c-19 4 -38 13 -42 19 -6 8 -10 8 -13 -1 -3 -7 -12 -9
-20 -6 -7 3 -12 8 -10 12 3 4 -4 12 -15 19 -10 7 -19 8 -19 3 0 -5 6 -11 13
-14 6 -2 9 -7 6 -11 -3 -3 -17 -2 -30 3 -13 5 -19 10 -12 10 20 1 3 31 -18 31
-13 0 -17 5 -12 17 5 13 2 15 -11 10 -10 -4 -49 -7 -87 -7 -50 0 -67 -3 -64
-13 4 -8 -7 -12 -32 -13 l-38 -2 29 13 c20 9 25 14 15 18 -11 5 -11 6 1 6 64
-4 63 12 0 17 -23 2 -49 11 -57 20 -14 14 -13 15 20 9 40 -8 87 0 87 15 0 5
-15 10 -32 12 -21 2 -33 8 -33 18 0 20 -32 25 -58 7 -13 -8 -30 -11 -42 -7
-11 4 -26 5 -34 2 -8 -3 0 -9 19 -16 19 -6 35 -16 37 -23 5 -13 -97 15 -108
30 -4 5 -16 4 -27 -2 -28 -15 -32 -14 -32 7 0 11 3 13 8 5 5 -8 13 -8 32 2
l25 13 -38 7 c-21 4 -54 5 -73 2 -29 -5 -34 -4 -25 7 9 10 8 15 -5 20 -22 9
-24 8 -24 -9 0 -8 -7 -15 -15 -15 -19 0 -19 16 0 24 24 9 6 34 -30 40 -18 4
-35 11 -37 16 -2 6 -15 6 -33 2 -19 -5 -39 -4 -55 4 -14 7 -36 17 -50 22 -22
8 -20 9 18 10 23 0 40 -3 37 -8 -8 -13 27 -17 58 -7 21 7 32 5 46 -7 10 -9 23
-16 29 -16 7 0 20 -8 30 -18 24 -24 74 -45 81 -34 3 5 13 12 21 15 8 3 -6 6
-32 6 -33 1 -48 5 -48 14 0 7 -15 21 -32 30 l-33 17 33 -3 c17 -2 32 0 32 5 0
4 -15 8 -32 8 -46 0 -110 19 -103 30 3 6 0 7 -8 4 -8 -3 -21 1 -29 9 -11 12
-29 13 -82 8 -53 -6 -66 -4 -62 6 4 10 1 11 -13 3 -14 -7 -20 -6 -24 4 -4 9 4
13 21 14 15 0 38 5 52 11 23 10 22 11 -9 5 -32 -6 -77 9 -93 31 -5 6 -8 5 -8
-3 0 -10 -4 -10 -20 0 -11 7 -20 18 -20 24 0 6 -15 11 -32 11 -18 0 -48 3 -67
8 -30 7 -33 6 -28 -8 7 -18 -17 -25 -27 -8 -3 5 -16 7 -29 5 -16 -4 -14 -1 8
10 l30 14 -50 3 c-45 2 -46 3 -12 6 20 2 37 8 37 13 0 5 3 15 6 23 4 11 -2 17
-18 20 -13 3 3 3 34 1 31 -2 60 1 63 6 3 5 21 8 40 6 19 -1 36 2 38 8 3 7 15
5 34 -6 17 -10 33 -15 36 -11 4 3 13 1 20 -5 7 -6 47 -15 88 -18 68 -7 73 -6
60 9 -7 9 -23 17 -35 17 -11 1 -33 1 -48 1 -33 1 -38 19 -5 19 17 0 19 2 7 10
-17 11 -61 2 -72 -14 -6 -8 -11 -7 -17 3 -5 7 -14 10 -20 7 -6 -4 -17 -4 -23
0 -22 14 -109 11 -103 -3 6 -18 -20 -16 -36 3 -8 10 -22 14 -38 10 -41 -8
-169 15 -191 34 -27 24 -25 30 9 30 40 0 47 14 14 29 -21 10 -29 9 -43 -4 -27
-25 -43 -19 -24 10 14 22 15 25 1 31 -9 3 -14 11 -11 19 4 9 -3 11 -23 8 -27
-4 -27 -4 -9 11 17 14 17 16 3 16 -9 0 -28 11 -43 25 -24 23 -25 25 -7 25 11
0 28 -9 38 -20 10 -11 23 -20 28 -20 5 0 20 -11 33 -25 24 -26 40 -34 28 -12
-5 8 -3 8 9 -2 10 -7 30 -11 48 -9 19 3 33 0 36 -7 3 -9 15 -10 39 -5 52 12
55 22 4 14 -37 -6 -42 -5 -37 8 4 11 -3 17 -24 22 -35 7 -39 29 -4 24 13 -2
25 2 27 7 2 6 -14 10 -34 11 -36 1 -43 -5 -39 -35 2 -7 -4 -11 -11 -8 -7 2
-12 14 -11 26 2 11 -2 21 -7 21 -6 0 -10 5 -10 10 0 7 6 7 20 0 11 -6 20 -7
20 -3 0 4 18 9 40 11 22 1 40 -2 40 -8 0 -5 8 -10 18 -10 14 0 15 2 2 10 -13
8 -12 10 3 10 10 0 27 -9 39 -19 16 -15 23 -17 33 -8 7 7 10 18 8 24 -6 16 -2
16 32 3 19 -7 24 -7 19 2 -5 8 0 9 16 5 14 -4 19 -2 13 4 -11 11 -86 18 -203
20 -47 0 -89 5 -95 9 -12 10 -85 15 -105 7 -8 -4 -31 -2 -50 2 -19 5 -27 9
-17 10 9 1 17 5 17 11 0 5 -3 9 -7 9 -23 -4 -25 3 -6 16 21 15 53 11 53 -6 0
-5 14 -6 30 -3 20 5 30 3 30 -6 0 -9 16 -11 63 -6 34 4 72 7 84 7 13 1 20 5
17 10 -3 5 2 9 10 9 9 0 16 -4 16 -10 0 -5 13 -10 29 -10 24 0 29 4 28 20 -1
13 -5 16 -11 10 -14 -14 -36 -12 -33 2 1 9 -8 12 -27 10 -18 -3 -26 0 -22 7 4
6 30 11 57 11 l51 0 -30 30 c-31 30 -54 42 -33 16 15 -18 -5 -34 -22 -17 -6 6
-24 11 -39 11 -15 0 -28 5 -28 11 0 7 -10 5 -25 -5 -13 -9 -35 -16 -47 -16
-19 0 -23 6 -24 30 -1 25 2 30 17 25 11 -3 29 -8 42 -11 21 -6 21 -6 5 13 -10
11 -18 24 -18 30 0 6 -8 14 -17 17 -35 13 -88 46 -74 46 27 0 -19 38 -55 44
-19 4 -34 11 -34 17 0 5 12 7 28 3 48 -10 82 -26 82 -38 0 -8 11 -11 31 -8 24
4 30 1 27 -9 -3 -8 -15 -13 -29 -11 -18 2 -15 -2 15 -18 47 -24 84 -27 46 -4
-24 15 -24 15 20 10 l45 -5 -34 13 c-39 14 -53 36 -24 36 12 0 19 7 19 20 0
23 -4 24 -41 10 -22 -8 -26 -8 -22 4 4 9 -2 14 -16 14 -56 -1 -255 12 -284 18
-18 3 -33 13 -33 20 0 16 37 18 74 4 14 -5 26 -6 26 -1 0 4 12 6 28 4 15 -2
48 -4 75 -4 26 -1 47 -6 47 -12 0 -7 4 -7 12 1 7 7 21 12 33 11 17 -1 16 -2
-5 -8 -19 -6 -8 -10 45 -15 39 -3 99 -10 135 -14 74 -8 246 0 274 13 12 5 17
5 14 -1 -4 -5 5 -10 18 -10 35 -3 29 13 -7 21 -24 5 -28 9 -18 16 9 6 -10 8
-53 7 -37 -1 -64 -6 -62 -10 3 -4 -2 -8 -11 -8 -8 0 -18 7 -21 15 -4 8 -14 15
-23 15 -9 0 -21 4 -26 9 -16 14 -107 23 -99 9 5 -8 -10 -10 -54 -5 -49 4 -62
2 -62 -9 0 -17 -10 -17 -47 -3 -15 6 -62 11 -103 11 -80 1 -105 7 -74 19 17 6
16 8 -11 19 -16 6 -37 11 -45 11 -62 -4 -186 1 -193 8 -4 4 20 7 53 7 40 -1
64 4 69 12 7 11 20 11 69 2 33 -7 77 -10 96 -8 20 2 36 0 36 -4 0 -4 29 -8 65
-8 47 0 63 -3 60 -12 -4 -10 20 -13 97 -14 88 -1 99 1 83 12 -10 8 -31 14 -47
14 -33 0 -37 17 -5 23 17 3 15 5 -8 6 -42 1 -76 -9 -68 -22 4 -6 -4 -8 -23 -3
-88 21 -124 26 -217 31 -114 6 -237 21 -246 31 -3 3 37 4 90 1 91 -5 97 -5 92
13 -4 15 -11 18 -33 14 -56 -12 -105 -9 -117 6 -9 10 -12 11 -13 3 0 -8 -14
-13 -35 -13 -20 0 -52 -7 -73 -15 -34 -15 -38 -15 -49 1 -11 15 -9 20 7 31 17
12 22 12 36 -1 8 -9 21 -16 27 -16 6 0 1 7 -11 16 -13 9 -21 22 -18 30 4 11
-3 13 -37 8 -23 -4 -48 -11 -54 -17 -7 -5 -24 -7 -38 -5 -18 4 -26 0 -30 -13
-4 -11 -20 -21 -41 -25 -35 -6 -44 -18 -21 -27 10 -4 10 -6 0 -6 -15 -1 -18
-31 -3 -31 6 0 10 5 10 10 0 6 7 10 16 10 8 0 12 -4 9 -10 -4 -6 6 -10 22 -10
15 0 48 -8 73 -17 25 -9 55 -15 68 -15 26 2 28 -6 8 -33 -13 -18 -16 -19 -33
-4 -12 11 -24 14 -38 9 -11 -5 -15 -9 -9 -9 6 -1 21 -9 33 -20 18 -15 19 -20
6 -25 -8 -3 -25 -1 -37 4 -19 7 -19 9 -5 9 10 1 15 6 11 12 -3 6 -16 8 -28 6
-11 -3 -37 1 -56 9 -30 12 -31 14 -7 10 15 -2 27 -2 27 0 0 11 -42 44 -55 44
-8 0 -24 6 -35 12 -16 10 -25 9 -49 -5 -16 -9 -36 -17 -45 -17 -9 0 -16 -4
-16 -9 0 -15 -80 -25 -93 -12 -11 11 1 16 33 11 31 -4 -1 13 -37 20 l-38 8 33
1 c21 1 32 6 32 16 0 11 10 13 50 8 34 -4 50 -2 50 6 0 6 -9 11 -19 11 -11 0
-23 5 -26 10 -3 6 -31 10 -61 10 -45 0 -54 3 -52 16 2 10 -2 19 -9 21 -7 2
-13 -8 -15 -24 -3 -29 -8 -30 -58 -18 -22 5 -21 4 5 -10 l30 -15 -30 6 c-16 3
-38 6 -47 7 -22 2 -24 17 -3 17 8 0 15 5 15 11 0 6 -17 10 -42 9 -60 -4 -78
-1 -78 9 0 5 35 7 78 5 42 -2 71 -1 65 2 -7 3 -13 12 -13 21 0 12 -10 14 -44
12 -24 -2 -42 -1 -39 4 7 11 -12 8 -25 -5 -9 -9 -13 -7 -18 6 -4 11 -13 15
-28 11 -18 -5 -17 -4 4 9 15 9 32 11 45 6 32 -12 108 -6 113 9 3 9 -2 11 -15
7 -11 -4 -29 -3 -39 1 -14 5 -5 10 36 19 30 6 44 12 30 12 -14 0 -50 -6 -80
-14z m524 -568 c34 -7 62 -19 64 -27 7 -19 23 -29 48 -29 12 0 29 -11 39 -24
10 -14 34 -27 52 -31 33 -6 47 -25 18 -25 -8 0 -15 5 -15 10 0 6 -5 10 -11 10
-5 0 -7 -4 -4 -10 4 -6 -9 -10 -32 -11 l-38 -1 39 -12 39 -12 -32 -10 c-30 -8
-31 -10 -17 -29 15 -20 15 -20 16 3 0 20 4 22 48 20 43 -1 44 -2 10 -5 -21 -2
-38 -8 -38 -13 0 -5 -3 -15 -6 -24 -4 -12 0 -16 15 -16 14 0 21 6 21 20 0 11
6 20 14 20 12 0 13 -7 6 -31 -5 -18 -12 -34 -15 -37 -9 -10 -55 -11 -55 -1 0
5 8 10 18 10 16 1 16 2 0 6 -10 2 -18 9 -18 14 0 5 -7 9 -15 9 -9 0 -18 6 -21
14 -3 8 -32 35 -65 60 -32 25 -59 53 -59 63 0 15 2 14 20 -2 11 -10 17 -22 14
-26 -3 -5 -3 -9 0 -9 2 0 12 -3 21 -6 14 -6 13 -1 -4 30 -12 20 -21 43 -21 51
0 8 -2 15 -4 15 -2 0 -13 3 -23 6 -17 5 -17 5 0 -9 12 -10 15 -17 7 -22 -6 -4
-17 -1 -25 5 -8 6 -18 9 -23 6 -5 -3 -17 4 -26 16 -18 20 -18 21 3 15 11 -3
19 -1 15 4 -3 5 -14 9 -25 9 -10 0 -19 5 -19 10 0 12 10 12 84 -4z m-51 -101
c-2 -18 0 -25 4 -18 6 9 12 6 22 -9 12 -19 11 -20 -8 -15 -28 7 -27 -1 2 -13
22 -9 22 -9 -3 -10 l-25 0 25 -19 c13 -11 28 -17 33 -14 4 2 14 -1 22 -7 8 -7
26 -10 40 -8 31 6 32 0 3 -12 -23 -9 -23 -9 2 -9 15 -1 30 3 35 8 6 5 21 2 37
-8 43 -27 21 -44 -60 -45 -39 -1 -74 -4 -78 -9 -4 -4 2 -7 14 -7 12 0 22 -4
22 -10 0 -13 -12 -13 -44 0 -14 5 -26 6 -26 1 0 -15 24 -28 62 -35 36 -7 56
-21 44 -33 -3 -4 -27 -5 -53 -4 -26 1 -44 -2 -40 -6 10 -9 266 -10 261 -1 -3
5 1 8 8 8 7 0 14 -11 14 -25 2 -23 34 -68 34 -46 0 16 26 13 40 -4 7 -8 28
-15 48 -15 42 0 37 11 -5 12 -20 1 -29 6 -29 18 0 11 6 15 18 12 10 -2 16 -8
13 -12 -3 -4 11 -10 30 -12 40 -5 43 1 15 25 -11 9 -17 23 -14 32 4 10 0 15
-10 15 -9 0 -16 6 -16 14 0 17 -30 30 -30 13 0 -7 -5 -4 -11 6 -5 9 -16 17
-24 17 -20 0 -30 21 -15 30 7 4 9 13 5 19 -5 9 -10 9 -20 1 -10 -8 -19 -8 -34
2 -12 7 -21 16 -21 20 0 15 50 20 66 7 12 -10 18 -9 32 6 16 17 16 17 0 12
-11 -4 -17 -2 -15 5 1 7 -8 17 -19 22 -12 5 -27 18 -33 28 -10 16 -7 18 31 19
37 1 39 2 18 9 -24 8 -23 8 8 9 30 1 32 -1 27 -26 -6 -36 3 -63 21 -63 13 0
16 -5 18 -40 1 -8 11 -19 24 -25 12 -5 22 -13 22 -16 0 -19 83 -128 103 -133
17 -6 19 -9 7 -14 -8 -4 -15 -14 -15 -24 0 -34 66 -81 81 -57 3 5 17 9 32 8
23 0 24 -2 8 -8 -24 -9 -13 -17 34 -25 19 -3 29 -3 23 0 -20 9 -15 23 6 21 10
0 17 -6 14 -13 -5 -14 41 -27 67 -19 11 4 22 0 28 -10 8 -15 12 -15 47 -1 28
12 40 13 46 5 5 -8 16 -8 43 2 29 11 38 11 48 0 11 -10 8 -11 -13 -6 -16 4
-30 2 -33 -4 -4 -6 -16 -11 -27 -11 -26 0 -24 -18 4 -23 12 -2 -6 -5 -40 -6
-51 -1 -61 -4 -57 -16 5 -11 -1 -15 -23 -15 -16 0 -34 -5 -41 -12 -9 -9 -15
-9 -24 0 -7 7 -8 12 -3 12 5 0 -1 7 -13 16 -12 8 -20 20 -17 25 4 5 -6 8 -22
8 -15 -1 -21 -3 -13 -6 8 -2 27 -21 42 -42 22 -30 32 -37 52 -34 13 3 27 0 30
-6 4 -6 14 -11 23 -11 14 0 14 3 -2 20 -17 19 -17 20 1 19 10 0 28 -4 39 -9
17 -7 17 -9 3 -9 -10 -1 -18 -5 -18 -11 0 -5 24 -11 53 -11 95 -2 121 -17 31
-18 -122 -2 -193 15 -226 53 -34 40 -45 30 -13 -14 27 -36 24 -54 -6 -45 -14
5 -17 3 -13 -9 7 -19 -9 -21 -39 -4 -34 18 -67 19 -67 2 0 -9 -4 -12 -10 -9
-5 3 -10 13 -10 21 0 18 80 20 98 2 9 -9 12 -9 12 0 0 7 -4 12 -10 12 -5 0
-10 5 -10 10 0 6 9 10 20 10 11 0 20 -4 20 -10 0 -5 5 -10 11 -10 8 0 7 5 -2
16 -9 12 -24 15 -51 11 -51 -7 -82 1 -68 18 6 7 8 20 4 29 -8 20 -34 21 -34 1
0 -10 -10 -15 -34 -15 -19 0 -40 -2 -48 -3 -7 -2 -10 -2 -5 0 16 10 -6 23 -28
17 -12 -3 -26 -1 -29 5 -4 6 -19 11 -33 11 -18 0 -24 -4 -19 -15 3 -9 1 -15
-7 -14 -29 4 -77 -2 -77 -9 0 -14 54 -28 80 -21 21 6 19 7 -15 9 l-40 3 35 6
c19 4 43 3 53 -2 10 -5 25 -6 33 -3 9 4 12 2 8 -5 -4 -8 13 -9 59 -4 43 5 67
3 71 -4 5 -8 -14 -12 -61 -13 -37 -1 -79 -3 -93 -4 -14 -1 -38 -2 -54 -3 -72
-3 16 -21 121 -24 51 -2 88 -17 42 -17 -24 -1 -24 -1 4 -16 15 -8 33 -14 40
-13 6 1 36 1 65 0 39 -1 51 -4 47 -13 -4 -7 -1 -6 7 2 7 9 23 15 36 14 14 -1
21 3 18 11 -2 6 10 20 26 30 l31 18 21 -29 c12 -16 29 -36 38 -46 9 -9 14 -19
10 -22 -3 -4 -22 10 -43 30 -45 44 -63 42 -44 -3 9 -22 21 -33 35 -33 11 0 30
-10 42 -22 14 -14 23 -18 26 -10 2 7 10 12 17 12 7 0 15 6 18 13 3 9 9 9 26
-1 12 -7 26 -10 32 -6 5 3 16 0 24 -6 11 -9 15 -9 15 -1 0 6 17 11 40 11 22 0
40 -4 40 -10 0 -5 13 -7 32 -3 21 4 29 3 24 -5 -8 -13 29 -26 45 -16 8 4 7 9
-2 15 -11 7 -11 9 -1 9 7 0 20 -7 28 -15 12 -12 19 -12 35 -2 16 10 21 9 28
-2 5 -8 18 -12 30 -8 11 3 25 -1 31 -8 9 -11 0 -15 -50 -21 -38 -4 -59 -11
-57 -18 3 -6 -2 -19 -11 -28 -14 -16 -13 -18 2 -18 9 0 15 -4 12 -9 -7 -11 40
-32 59 -25 11 5 13 2 9 -10 -5 -12 0 -16 20 -16 14 0 26 -4 26 -9 0 -6 -15 -8
-32 -6 -108 13 -120 13 -114 -1 4 -10 -2 -12 -24 -7 -19 3 -30 1 -30 -5 0 -7
24 -12 63 -12 115 -1 152 -5 160 -18 4 -6 15 -12 23 -12 8 0 12 5 9 10 -3 6 1
10 10 10 9 0 13 5 10 10 -9 14 28 13 43 -2 13 -13 27 -5 17 11 -3 6 -22 11
-41 11 -43 0 -45 15 -2 24 17 3 29 9 26 11 -3 3 -25 0 -50 -6 -46 -13 -84 -7
-73 11 4 6 -8 13 -26 17 -28 5 -30 7 -14 14 11 4 35 8 53 8 20 1 31 5 27 11
-4 6 -14 9 -23 6 -10 -2 -35 -7 -57 -11 l-40 -6 30 16 c16 9 37 14 47 12 23
-6 23 9 1 18 -17 6 -17 7 1 17 15 8 22 7 31 -6 8 -10 19 -14 30 -10 13 5 14 9
4 15 -23 14 0 22 33 12 31 -10 32 -11 11 -19 -26 -11 -20 -23 25 -46 26 -14
32 -14 32 -3 0 7 -8 16 -17 18 -14 4 -12 5 5 6 12 0 22 -3 22 -9 0 -5 7 -10
15 -10 8 0 16 -4 16 -10 5 -38 17 -50 48 -50 15 0 31 -4 37 -10 9 -9 61 -14
127 -11 19 1 26 5 21 13 -4 7 -3 8 5 4 6 -4 23 0 37 9 27 17 60 13 49 -6 -4
-6 -13 -8 -21 -5 -8 3 -17 -1 -20 -8 -3 -8 -15 -17 -27 -21 -22 -8 -22 -8 2
-12 13 -3 28 0 34 6 6 6 21 11 33 11 16 0 21 6 20 22 -2 27 12 50 26 42 6 -4
6 -9 -2 -14 -7 -4 -9 -16 -5 -29 5 -17 11 -20 33 -14 15 3 37 17 49 30 12 12
27 23 33 23 7 0 5 -7 -4 -16 -9 -8 -13 -20 -10 -26 5 -7 2 -8 -6 -3 -7 4 -16
2 -20 -5 -5 -7 -25 -15 -46 -17 -21 -2 -45 -10 -54 -18 -11 -10 -41 -12 -119
-10 -57 2 -106 7 -110 10 -3 4 14 6 39 5 64 -3 80 -1 80 8 0 4 -36 8 -81 9
-74 2 -79 0 -67 -15 19 -25 30 -31 45 -25 7 3 13 0 13 -6 0 -6 9 -11 19 -11
11 0 23 -5 26 -10 3 -6 17 -7 31 -4 19 5 23 3 18 -10 -8 -22 -84 -23 -84 -1 0
8 -4 15 -9 15 -5 0 -16 3 -24 6 -8 3 -17 -2 -21 -11 -3 -9 -2 -14 2 -11 5 3
21 -6 36 -19 19 -17 24 -25 15 -31 -7 -4 -15 -2 -17 4 -2 7 -10 12 -17 12 -7
0 -15 6 -18 13 -3 6 -4 2 -4 -11 1 -12 5 -22 9 -22 4 0 8 -6 8 -14 0 -20 19
-25 86 -20 34 2 53 0 46 -5 -7 -4 -25 -6 -40 -4 -26 3 -26 3 -4 -8 22 -12 31
-39 12 -39 -6 0 -9 5 -8 12 3 14 -82 30 -96 17 -11 -10 17 -39 39 -39 9 0 14
4 11 9 -4 5 16 2 44 -7 55 -17 70 -36 18 -21 -18 4 -73 11 -122 13 -49 3 -92
9 -95 14 -3 5 -19 13 -36 18 -29 8 -29 8 14 12 24 2 47 -1 50 -6 6 -10 26 -15
47 -13 7 0 15 8 18 17 4 12 2 15 -9 11 -8 -4 -17 -2 -20 2 -2 5 -26 7 -52 4
-32 -3 -43 -1 -35 5 11 7 8 11 -12 14 -14 3 -27 2 -28 -3 -5 -14 -78 -22 -78
-9 0 7 6 10 13 7 6 -2 21 -1 32 3 13 4 -5 9 -53 14 -40 4 -85 11 -100 16 -47
15 -134 22 -127 10 3 -5 1 -10 -4 -10 -6 0 -11 8 -11 18 0 12 9 17 35 19 19 1
35 -2 35 -6 0 -10 65 -23 130 -26 25 -2 52 -5 60 -8 32 -11 139 -16 145 -7 6
10 44 -6 56 -24 8 -10 29 1 29 15 0 5 -6 9 -14 9 -8 0 -13 8 -12 18 1 12 -8
18 -31 20 -28 3 -33 0 -33 -17 0 -15 -4 -19 -17 -14 -14 5 -12 10 13 31 l29
25 -28 -5 c-15 -3 -30 -1 -33 3 -3 5 3 9 13 9 14 1 13 3 -6 14 -22 12 -28 12
-50 -3 -15 -9 -22 -11 -18 -3 5 6 4 12 -1 12 -18 0 -21 -29 -4 -34 9 -3 -2 -3
-25 -1 -30 4 -44 1 -50 -9 -7 -13 -19 -12 -88 3 l-80 17 34 12 c19 7 47 12 62
12 46 0 33 20 -13 21 -129 5 -168 13 -168 34 0 9 10 15 28 16 26 1 25 1 -6 9
-18 4 -36 11 -40 15 -4 4 4 4 18 1 24 -7 23 -6 -7 22 -18 16 -33 35 -33 41 0
13 -17 15 -24 2 -4 -5 0 -12 6 -14 8 -4 9 -6 2 -6 -6 -1 -17 6 -24 14 -14 17
-40 20 -40 5 0 -5 4 -10 8 -10 5 0 9 -7 9 -15 0 -8 -9 -15 -20 -15 -16 0 -17
3 -7 15 11 13 8 15 -21 16 -19 0 -55 1 -81 2 -44 3 -48 1 -48 -20 0 -28 -16
-38 -36 -22 -8 6 -18 9 -21 5 -11 -10 16 -24 62 -32 22 -3 43 -11 47 -17 4 -6
11 -8 15 -3 4 4 0 13 -9 20 -20 14 -14 28 8 19 8 -3 14 0 14 6 0 6 -6 11 -14
11 -8 0 -18 4 -21 10 -4 6 10 9 34 8 23 -1 41 -5 41 -10 0 -4 -7 -8 -15 -8
-16 0 -30 -58 -22 -90 6 -22 -3 -26 -19 -10 -5 5 -40 11 -76 12 -45 2 -61 6
-51 12 13 7 10 11 -16 22 -18 8 -30 18 -27 23 6 9 -72 44 -90 40 -5 -2 -27 5
-48 14 -38 17 -64 15 -36 -3 8 -5 12 -12 8 -15 -8 -9 -36 7 -37 20 -1 6 -12
10 -26 10 -28 1 -47 15 -19 15 16 0 16 2 -4 16 -13 9 -35 20 -50 24 -25 8 -25
8 -4 9 13 1 43 -10 68 -24 38 -22 53 -24 95 -19 33 4 49 3 49 -5 0 -6 13 -9
33 -8 17 2 42 0 55 -5 27 -9 28 -5 1 26 -12 14 -28 22 -35 19 -8 -3 -14 -2
-14 2 0 14 30 35 52 36 19 1 18 3 -7 8 -16 4 -46 6 -65 3 -32 -4 -33 -3 -16
10 17 13 17 15 1 31 -9 9 -26 17 -38 17 l-21 0 22 -16 c28 -19 28 -34 1 -34
-11 0 -18 4 -15 9 9 14 -21 21 -46 12 -21 -8 -20 -9 17 -20 22 -6 46 -11 53
-11 6 0 12 -4 12 -10 0 -5 7 -7 15 -4 8 4 15 1 15 -5 0 -10 -14 -15 -32 -12
-16 2 -7 -18 10 -22 11 -3 9 -5 -8 -6 -14 0 -32 4 -40 9 -13 8 -12 10 3 10 22
0 17 25 -5 25 -8 0 -22 5 -29 11 -37 27 -70 38 -78 26 -5 -9 -14 -10 -32 -3
l-24 10 23 0 c13 1 30 7 38 15 18 18 18 27 0 20 -8 -3 -17 -1 -20 5 -5 7 -15
7 -31 1 -29 -11 -32 -3 -7 17 16 13 15 14 -8 9 -14 -3 -32 -1 -40 4 -9 6 -17
5 -22 -3 -5 -8 -12 -6 -26 6 -10 9 -26 17 -35 17 -9 0 -17 5 -17 10 0 6 -7 10
-16 10 -8 0 -12 -4 -9 -10 7 -12 -8 -14 -19 -3 -4 5 -11 8 -14 8 -4 1 -18 7
-32 15 l-25 14 25 7 c21 6 22 7 5 8 -12 1 -25 -3 -30 -8 -6 -5 -27 -1 -50 10
-27 12 -33 19 -20 19 19 1 19 1 2 11 -9 6 -15 14 -12 20 4 5 -1 12 -9 15 -9 3
-16 12 -16 20 0 8 -10 14 -24 14 -13 0 -26 3 -28 8 -6 15 -77 62 -93 62 -9 0
-14 4 -11 9 5 7 -18 16 -92 37 -22 6 -3 24 23 22 14 -1 25 -5 25 -9 0 -7 40
-22 54 -20 18 4 78 -22 67 -28 -7 -4 5 -16 30 -29 48 -26 56 -27 39 -7 -11 13
-3 14 61 10 41 -3 85 -7 99 -9 14 -2 36 0 50 4 24 8 24 8 3 9 -13 1 -23 6 -23
11 0 6 10 11 23 11 14 1 9 4 -13 8 -20 4 -34 12 -32 19 2 14 -5 14 -33 2 -11
-5 -14 -9 -7 -9 14 -1 17 -31 3 -31 -5 0 -13 9 -16 20 -3 11 -13 20 -21 20 -8
0 -13 -4 -9 -9 3 -6 -10 -8 -32 -4 -46 7 -68 23 -31 23 51 0 37 17 -25 29 -78
15 -146 34 -169 48 -12 7 3 33 21 34 14 1 14 2 -1 6 -29 7 -21 26 9 20 24 -4
26 -4 10 8 -24 18 -21 26 8 19 31 -8 33 4 3 15 -15 5 -26 4 -30 -2 -4 -8 -14
-5 -27 7 -12 11 -21 16 -21 11 0 -4 8 -14 17 -21 25 -17 11 -27 -26 -19 -30 6
-30 7 -17 39 13 32 13 32 -18 32 -17 0 -48 4 -68 8 -26 6 -38 5 -38 -3 0 -6
10 -11 23 -11 21 -1 71 -30 51 -30 -5 0 0 -7 10 -15 21 -16 15 -18 -22 -9 -13
4 -21 13 -20 22 2 11 -7 18 -26 22 -16 3 -31 11 -34 17 -6 20 26 27 77 15 27
-6 47 -7 49 -1 2 5 15 6 29 3 26 -7 26 -7 6 13 -11 11 -27 22 -36 26 -17 6
-24 27 -9 27 26 -1 51 -15 55 -31 3 -10 13 -19 23 -19 16 0 16 2 -2 21 l-19
22 45 -6 c25 -3 37 -3 28 0 -10 2 -18 9 -18 14 0 5 -7 9 -16 9 -14 0 -14 3 -4
15 8 9 21 13 33 9 13 -4 18 -2 15 7 -2 7 -15 16 -29 20 -13 4 -19 8 -14 9 6 1
0 5 -12 10 -13 5 -23 14 -23 19 0 5 22 0 49 -12 44 -20 48 -24 44 -52z m-486
-143 c-16 -7 -16 -9 4 -25 11 -10 18 -25 15 -33 -4 -10 2 -14 17 -14 25 0 72
-29 49 -30 -10 0 -10 -3 2 -15 8 -8 19 -15 25 -15 6 0 11 -6 11 -14 0 -9 12
-16 28 -18 19 -2 28 -9 30 -25 2 -15 10 -23 23 -23 21 0 27 -20 7 -20 -8 0 -5
-7 6 -15 19 -15 19 -15 -2 -15 -12 0 -21 -6 -19 -12 1 -9 -15 -14 -53 -15 -49
-1 -51 -1 -17 6 57 12 52 17 -16 16 -34 0 -77 3 -96 8 -34 7 -34 7 -16 -13 18
-20 18 -20 -15 -20 -27 0 -31 3 -22 12 10 10 8 16 -10 31 -23 18 -23 18 27 13
28 -3 65 -10 83 -17 34 -12 67 -6 57 11 -4 7 3 7 20 0 32 -12 35 -12 35 -2 0
5 -10 14 -22 20 l-23 11 25 1 25 2 -26 7 c-14 5 -56 11 -95 14 l-69 5 58 -11
c71 -13 74 -27 6 -27 -31 0 -48 4 -44 10 3 6 -3 10 -15 10 -12 0 -19 4 -16 9
4 5 0 12 -6 14 -7 3 20 6 60 6 45 1 71 5 67 11 -3 5 -25 7 -48 4 -23 -3 -53
-1 -67 4 l-25 9 23 7 c30 10 28 22 -8 38 -18 8 -25 15 -17 18 10 4 11 14 5 38
-7 26 -14 32 -36 33 l-27 1 30 8 c39 10 97 11 72 2z m2393 -1072 c0 -5 20 -10
45 -10 25 0 54 -6 65 -12 16 -10 24 -10 40 0 23 14 60 16 60 2 0 -5 7 -7 15
-4 11 5 13 2 9 -10 -4 -10 -1 -16 9 -16 9 0 17 -10 19 -22 2 -16 12 -24 33
-28 l30 -6 -26 -5 c-27 -6 -64 12 -51 25 6 7 -24 30 -41 31 -4 0 -12 6 -16 14
-14 22 -30 9 -20 -18 7 -18 15 -22 34 -19 14 3 25 1 25 -3 0 -5 -3 -9 -7 -10
-5 0 -21 -2 -38 -4 -16 -2 -35 1 -42 7 -8 6 -17 8 -20 4 -4 -4 -1 -11 7 -16
26 -16 5 -19 -35 -5 -33 12 -36 14 -15 15 l25 1 -28 15 c-20 11 -32 12 -47 4
-14 -8 -26 -8 -40 0 -33 18 -23 21 49 19 38 -2 68 -7 65 -10 -2 -4 0 -10 6
-14 5 -3 10 -2 10 3 0 6 9 8 20 5 11 -3 20 -1 20 4 0 13 -104 38 -124 30 -9
-4 -16 -2 -16 3 0 6 -11 5 -25 -2 -20 -9 -34 -9 -59 0 -38 14 -46 15 -46 4 0
-4 15 -14 33 -21 27 -12 29 -14 12 -18 -11 -3 -24 -9 -29 -14 -6 -5 -15 -9
-20 -9 -6 0 -3 7 7 14 17 13 17 15 -2 28 -12 8 -18 18 -13 23 4 4 -2 5 -13 1
-11 -3 -26 -2 -33 3 -8 5 13 10 54 14 44 4 72 3 81 -5 7 -6 17 -8 20 -4 4 4 1
11 -7 16 -13 8 -12 10 3 10 9 0 17 -4 17 -10z"/>
<path d="M970 980 c0 -5 8 -10 18 -10 14 0 15 -2 2 -10 -12 -7 -10 -11 10 -20
l25 -10 -27 3 c-16 3 -28 1 -28 -3 0 -4 -11 -5 -25 -2 -25 4 -35 -12 -12 -21
6 -3 0 -6 -15 -6 -16 -1 -28 -6 -28 -12 0 -8 -4 -8 -12 -1 -20 16 -93 27 -84
13 4 -6 16 -11 26 -11 10 0 22 -4 25 -10 3 -6 38 -8 83 -5 42 3 71 3 65 -1 -7
-3 -13 -12 -13 -20 0 -8 -7 -14 -15 -14 -8 0 -15 -8 -15 -17 0 -14 2 -15 9 -4
5 8 11 9 15 3 4 -7 14 -6 31 1 21 10 22 13 7 19 -9 5 -1 5 18 1 19 -3 62 -7
94 -8 35 -1 62 -7 64 -13 2 -7 8 -12 14 -12 7 0 7 5 -1 13 -6 8 -8 17 -4 20 3
4 0 7 -8 7 -11 0 -11 2 1 10 22 14 30 12 24 -5 -5 -11 1 -15 21 -15 15 0 24 4
20 10 -3 6 0 10 7 10 9 0 9 3 -2 10 -8 5 -42 10 -75 10 -47 1 -56 3 -42 11 10
6 27 9 37 6 22 -6 32 13 19 34 -5 8 -9 9 -9 3 0 -7 -16 -14 -35 -16 -45 -5
-45 4 0 21 52 18 33 31 -43 31 -37 -1 -83 4 -102 9 -42 13 -40 13 -40 1z"/>
<path d="M1526 1654 c18 -14 17 -15 -16 -11 -19 2 -44 7 -55 11 -16 6 -17 6
-5 -3 13 -9 13 -11 -3 -11 -15 0 -16 -2 -5 -14 7 -7 19 -11 25 -9 7 3 13 0 13
-6 0 -6 -5 -11 -11 -11 -5 0 -7 -4 -4 -10 3 -5 1 -10 -5 -10 -6 0 -10 -7 -8
-16 2 -10 -3 -19 -9 -21 -7 -3 -13 0 -13 6 0 6 -7 11 -17 11 -15 0 -15 -2 1
-19 10 -11 15 -24 12 -29 -3 -6 1 -12 9 -16 8 -3 15 0 15 6 0 15 75 4 94 -14
7 -7 23 -20 34 -29 11 -10 24 -24 28 -32 5 -8 20 -17 34 -21 25 -6 25 -6 3 5
-34 18 -28 27 16 27 51 1 123 20 116 32 -3 4 6 3 20 -3 27 -13 35 -33 9 -23
-9 3 -12 2 -9 -5 4 -5 15 -7 25 -4 9 3 34 6 53 7 20 1 34 5 30 10 -3 6 -14 7
-25 4 -12 -2 -27 2 -35 10 -11 11 -12 14 -1 14 10 0 9 3 -2 10 -11 7 -6 8 18
4 27 -6 31 -4 26 10 -3 9 -12 16 -19 16 -22 0 -26 28 -4 35 10 4 19 10 19 15
0 13 -61 41 -73 33 -6 -3 -7 -1 -3 5 4 8 0 12 -11 12 -15 0 -16 2 -3 10 12 7
8 11 -17 16 -18 4 -33 10 -33 14 0 12 -138 12 -162 -1 -16 -9 -23 -9 -26 0 -2
6 -13 11 -25 11 -20 0 -20 0 -1 -16z"/>
<path d="M1936 1625 c7 -18 0 -19 -27 -4 -18 9 -19 8 -10 -8 22 -38 39 -53 60
-53 11 0 21 -4 21 -9 0 -13 -74 -20 -82 -7 -4 6 -9 8 -12 6 -2 -3 1 -12 7 -21
14 -19 93 -34 102 -19 3 5 17 10 31 10 33 0 22 -17 -16 -25 -17 -4 -28 -10
-25 -15 3 -5 19 -5 35 0 17 5 30 6 30 2 0 -3 5 -1 12 6 7 7 20 12 30 12 10 0
18 5 18 11 0 7 13 9 38 6 20 -3 29 -3 19 -1 -30 9 -8 24 34 24 30 0 38 -3 33
-12 -5 -9 -3 -9 9 1 22 18 12 33 -17 25 -17 -4 -31 2 -49 20 -14 14 -36 26
-47 26 -12 0 -18 5 -15 10 3 6 2 10 -4 10 -5 0 -12 -4 -15 -8 -8 -13 -101 2
-98 16 1 8 -11 12 -33 12 -26 0 -33 -3 -29 -15z"/>
<path d="M2306 1468 c7 -20 -3 -21 -136 -19 -49 1 -70 -1 -61 -8 11 -7 9 -10
-10 -16 -14 -5 -25 -3 -27 3 -4 14 -64 4 -74 -12 -4 -6 -38 -11 -75 -12 -129
-1 -208 -6 -195 -11 6 -2 10 -9 6 -14 -3 -5 4 -9 16 -9 12 0 19 -4 16 -8 -3
-5 5 -15 18 -22 20 -10 28 -9 50 5 15 10 26 13 26 6 0 -6 9 -11 20 -11 11 0
20 5 20 11 0 5 -4 7 -10 4 -5 -3 -10 -2 -10 3 0 13 79 21 107 11 15 -6 22 -5
20 3 -3 14 42 27 111 31 32 3 60 11 72 22 11 10 20 13 20 7 0 -7 -5 -12 -11
-12 -5 0 -7 -5 -3 -11 4 -8 9 -7 15 2 4 7 11 10 15 7 4 -4 16 -1 28 7 11 8 27
15 36 14 8 0 4 -5 -9 -10 -46 -18 -14 -19 39 -1 38 13 50 21 40 27 -9 5 -15 4
-18 -3 -2 -8 -11 -4 -23 10 -14 17 -17 18 -13 6z"/>
<path d="M2470 1049 c14 -7 36 -11 49 -10 18 2 22 -1 18 -13 -8 -19 11 -32 26
-17 15 15 39 14 73 -4 25 -13 30 -13 44 0 22 20 27 19 33 -5 3 -10 17 -22 33
-26 16 -4 35 -13 42 -21 7 -7 27 -13 43 -13 19 0 29 -5 29 -15 0 -8 9 -15 20
-15 11 0 26 -12 34 -28 18 -36 57 -56 93 -49 15 3 37 0 48 -6 11 -6 36 -14 55
-18 l35 -7 -36 -1 c-26 -1 -36 -5 -36 -17 0 -9 9 -19 19 -22 10 -2 18 -8 18
-13 0 -5 7 -9 15 -9 8 0 20 -10 26 -22 16 -30 41 -49 58 -43 8 3 11 0 8 -7 -3
-9 6 -14 25 -15 17 -1 36 -7 42 -12 15 -12 68 0 74 17 2 7 -2 12 -8 12 -7 0
-10 7 -7 15 8 20 -9 28 -31 16 -26 -14 -36 -2 -14 15 16 12 15 14 -8 16 -14 1
-34 3 -45 4 -11 1 -27 3 -35 3 -13 1 -13 2 0 11 13 8 13 10 -2 10 -9 0 -18 6
-21 13 -3 9 -7 9 -18 0 -11 -9 -18 -8 -32 2 -16 12 -16 13 5 19 13 3 33 6 45
6 12 0 23 4 25 10 2 6 13 5 28 -3 42 -22 60 -27 60 -17 0 6 -9 10 -21 10 -11
0 -17 5 -14 10 3 6 1 10 -4 10 -6 0 -11 5 -11 12 0 9 3 9 12 0 7 -7 21 -12 32
-12 27 0 9 17 -26 25 -19 5 -28 3 -28 -5 0 -8 -6 -9 -17 -5 -10 4 -26 7 -36 7
-15 -1 -16 2 -7 14 10 12 7 14 -18 14 -18 0 -32 -6 -36 -16 -4 -10 -14 -14
-26 -11 -11 3 -20 1 -20 -4 0 -5 -12 -2 -26 8 -24 15 -25 17 -8 24 18 7 18 8
-1 10 -11 1 -32 1 -47 0 -16 -1 -28 3 -28 8 0 6 5 11 12 11 6 0 8 3 5 7 -4 3
-2 12 4 20 6 7 8 14 3 14 -5 1 -13 2 -19 4 -5 1 -24 3 -42 3 -21 1 -31 6 -28
15 4 9 -12 12 -61 12 -52 -1 -69 3 -77 16 -6 9 -17 15 -25 12 -18 -8 -35 19
-19 29 8 5 7 8 -5 8 -9 0 -24 -7 -33 -16 -15 -15 -17 -15 -30 2 -7 10 -11 23
-8 27 3 5 -9 1 -27 -8 -18 -9 -29 -12 -25 -6 4 7 -6 11 -27 11 -18 0 -53 2
-78 5 -40 4 -42 4 -20 -6z"/>
<path d="M1804 976 c25 -20 12 -25 -76 -29 -93 -5 -98 -17 -8 -17 63 0 71 -2
60 -15 -10 -13 -9 -15 8 -15 12 0 24 -4 27 -10 3 -5 16 -10 28 -9 21 0 21 1 2
9 -16 7 -17 9 -3 9 9 1 20 -4 23 -10 4 -6 13 -8 21 -5 8 3 14 1 14 -5 0 -6 6
-9 14 -6 8 3 16 1 18 -5 3 -8 15 -5 36 7 34 21 41 35 17 35 -8 0 -15 5 -15 10
0 17 29 11 51 -11 14 -14 26 -18 37 -13 14 6 14 8 -5 11 -20 4 -21 7 -12 25
13 25 12 26 -39 34 -38 6 -42 5 -35 -11 5 -14 3 -16 -7 -10 -7 4 -27 8 -44 7
-22 -1 -26 2 -16 8 12 8 11 10 -5 11 -59 5 -72 7 -90 14 -20 6 -20 6 -1 -9z"/>
<path d="M3657 371 c5 -20 -18 -42 -25 -23 -2 8 -7 8 -17 -1 -9 -8 -10 -16 -3
-24 6 -8 6 -13 1 -13 -5 0 -16 -6 -24 -12 -8 -7 -13 -12 -11 -11 2 0 17 -3 33
-7 17 -5 31 -5 34 1 4 5 -1 9 -10 9 -9 0 -14 4 -11 9 9 13 42 20 57 10 10 -6
7 -12 -12 -28 -13 -11 -31 -21 -39 -21 -13 0 -13 -1 0 -10 8 -5 11 -13 6 -17
-4 -4 -17 3 -28 17 -14 16 -22 21 -25 13 -3 -8 -14 -11 -29 -7 -15 4 -24 2
-24 -5 0 -6 7 -11 16 -11 8 0 12 -5 9 -10 -10 -15 14 -40 37 -40 17 0 18 -3 8
-15 -10 -12 -10 -15 4 -15 9 0 16 5 16 10 0 6 5 10 11 10 5 0 7 -5 3 -12 -5
-8 -2 -9 9 -5 10 3 17 2 17 -3 0 -6 7 -10 15 -10 8 0 15 7 15 16 0 21 60 74
84 74 12 0 16 5 12 16 -3 9 -6 18 -6 20 0 2 -7 4 -16 4 -8 0 -13 4 -10 9 3 4
-7 6 -22 4 l-27 -4 23 17 c23 17 31 67 12 79 -5 3 -10 1 -10 -4 0 -14 -35 -14
-60 -1 -15 8 -17 6 -13 -9z"/>
</g>
</svg>
