<?xml version="1.0" standalone="no"?>
<!DOCTYPE svg PUBLIC "-//W3C//DTD SVG 20010904//EN"
 "http://www.w3.org/TR/2001/REC-SVG-20010904/DTD/svg10.dtd">
<svg version="1.0" xmlns="http://www.w3.org/2000/svg"
 width="1182.000000pt" height="664.000000pt" viewBox="0 0 1182.000000 664.000000"
 preserveAspectRatio="xMidYMid meet">
<metadata>
Created by potrace 1.14, written by Peter Selinger 2001-2017
</metadata>
<g transform="translate(0.000000,664.000000) scale(0.100000,-0.100000)"
fill="#000000" stroke="none">
<path d="M0 4806 l0 -1834 23 -6 c12 -3 34 -6 48 -6 15 0 37 -8 50 -19 13 -10
39 -22 56 -25 18 -4 36 -12 39 -18 4 -6 -1 -8 -12 -5 -59 16 -143 28 -165 25
-16 -3 -8 -7 28 -13 51 -7 73 -24 36 -26 -29 -2 65 -28 156 -44 47 -8 86 -17
88 -19 2 -2 1 -11 -3 -20 -5 -13 -13 -16 -32 -11 -19 5 -23 3 -19 -9 7 -18 -1
-20 -23 -6 -13 9 -13 11 0 20 8 6 22 9 31 6 9 -2 23 1 30 6 9 6 -13 8 -63 5
-43 -2 -75 -1 -73 3 2 3 -9 4 -26 2 -16 -2 -37 2 -46 9 -9 8 -14 9 -10 3 4 -7
-2 -14 -16 -18 -18 -5 -19 -8 -7 -16 8 -5 32 -12 52 -15 21 -4 40 -10 43 -14
5 -10 -76 2 -95 14 -13 8 -13 6 -1 -8 8 -10 11 -21 7 -24 -4 -4 -11 -2 -15 5
-4 7 -24 15 -44 19 -30 4 -37 2 -37 -10 0 -11 14 -18 48 -23 53 -7 95 -40 71
-55 -9 -6 -10 -9 -2 -9 6 0 19 -7 27 -16 15 -14 16 -14 16 0 0 9 -4 16 -10 16
-5 0 -10 5 -10 10 0 7 8 6 22 -1 32 -17 217 -17 228 0 6 10 22 12 56 8 27 -3
58 -2 69 2 15 7 6 10 -37 16 -32 4 -65 5 -74 1 -8 -3 -22 1 -31 9 -8 9 -23 13
-33 10 -9 -3 -28 -1 -41 5 -18 8 -3 9 61 6 54 -3 78 -2 65 4 -11 5 -31 9 -44
9 -13 1 -22 3 -19 6 3 3 81 -4 173 -15 92 -11 169 -19 172 -16 5 5 -28 12 -97
21 -91 12 -175 29 -184 37 -6 4 -20 8 -32 8 -13 0 -26 5 -29 10 -8 13 7 12 90
-6 39 -8 121 -16 183 -19 63 -2 117 -6 120 -9 14 -14 -12 -18 -60 -8 -60 12
-74 8 -32 -9 42 -16 294 -25 294 -10 0 6 -13 11 -29 11 -17 0 -32 4 -35 8 -7
12 96 14 114 2 13 -8 12 -10 -4 -10 -30 0 -11 -12 26 -16 17 -2 37 -9 42 -14
6 -6 19 -10 30 -9 21 1 21 1 1 9 -11 4 -30 10 -42 15 -35 12 -28 28 10 21 19
-3 26 -2 17 3 -8 4 -68 16 -133 26 -76 11 -116 21 -114 29 2 6 -8 17 -22 24
-25 11 -24 12 17 8 23 -2 42 -1 42 3 0 10 -143 33 -162 26 -9 -4 -19 -2 -23 4
-12 21 175 2 202 -20 7 -6 17 -8 22 -4 6 3 34 -1 62 -9 44 -13 49 -13 39 -1
-10 12 -5 12 34 -1 31 -11 51 -13 59 -6 12 9 54 6 219 -18 88 -13 118 -13 98
0 -13 8 -12 10 3 10 10 0 32 13 48 29 26 26 38 30 106 35 43 2 95 5 116 5 27
0 37 5 37 16 0 8 -9 15 -19 15 -12 0 -21 10 -25 27 -6 22 0 33 40 74 25 26 59
49 74 52 18 4 35 19 48 42 12 19 33 40 47 45 27 10 33 41 12 59 -18 14 -10 68
12 84 9 7 17 29 18 51 2 21 8 45 15 53 9 11 7 15 -10 20 -30 7 -31 62 -2 70
17 5 20 14 20 69 0 34 -4 66 -10 69 -17 11 -11 23 10 18 10 -3 19 -8 19 -12
-1 -3 2 -17 7 -31 l8 -25 12 30 c10 25 14 27 19 13 7 -19 65 -26 65 -9 0 12
-87 71 -104 71 -6 0 -17 -5 -24 -12 -8 -8 -14 -4 -22 17 -18 46 7 74 38 43 7
-7 27 -13 45 -14 17 -1 46 -8 64 -15 30 -12 34 -11 58 11 23 22 28 23 48 11
18 -12 23 -12 31 2 8 13 14 13 48 1 40 -14 44 -10 39 33 -1 6 11 15 26 21 27
9 28 9 5 16 -29 10 -28 24 2 36 13 5 27 13 31 19 3 7 0 8 -9 5 -12 -5 -16 0
-16 20 0 16 -6 26 -14 26 -8 0 -17 7 -20 16 -5 13 -2 15 14 11 13 -3 20 0 20
9 0 8 -3 14 -8 14 -12 0 -45 67 -38 79 4 6 -1 22 -10 36 -9 14 -14 36 -11 51
6 32 -26 68 -53 61 -16 -4 -17 -2 -8 19 8 18 14 21 20 12 4 -7 8 -8 8 -3 0 6
5 2 11 -7 12 -22 42 -23 59 -3 10 12 9 15 -6 16 -11 0 -14 3 -7 6 22 8 15 32
-7 26 -14 -4 -20 0 -20 12 0 12 5 15 19 10 32 -10 69 77 39 88 -8 2 -9 8 -4
13 5 5 11 4 13 -3 7 -20 23 -15 23 7 0 23 0 23 -35 10 -21 -8 -25 -14 -20 -31
6 -18 4 -20 -11 -11 -14 8 -21 6 -31 -6 -10 -15 -12 -15 -10 6 1 14 8 22 19
22 12 0 16 5 11 18 -4 9 -11 20 -17 24 -6 4 -4 9 6 13 9 4 14 13 11 21 -3 9 2
14 16 14 12 0 21 5 21 10 0 13 -37 13 -45 0 -3 -5 -12 -10 -18 -10 -7 1 -1 10
12 21 18 14 33 18 55 14 28 -5 29 -5 14 8 -22 17 -23 27 -3 27 8 0 18 12 21
28 4 15 16 35 28 45 13 12 17 20 9 25 -7 5 -7 11 3 20 8 7 14 10 14 6 0 -3 7
-1 15 6 12 10 15 9 16 -6 1 -23 21 33 21 58 -1 10 5 15 13 12 7 -3 16 -1 20 5
14 24 194 8 223 -19 10 -10 36 -20 57 -23 21 -3 42 -12 47 -21 10 -18 38 -22
38 -5 0 7 16 9 46 6 44 -4 94 9 94 26 0 4 21 8 48 9 43 1 44 2 10 5 -21 2 -38
9 -38 14 0 13 90 7 91 -6 0 -11 38 -34 57 -35 6 0 12 7 12 15 0 10 11 15 35
15 24 0 35 5 35 15 0 11 12 15 45 15 25 0 45 -3 45 -7 0 -5 72 -9 160 -10 135
-2 160 0 160 12 0 11 11 15 40 15 22 0 40 -4 40 -10 0 -5 18 -10 40 -10 22 0
40 4 40 9 0 11 76 23 170 26 53 2 84 -2 105 -13 17 -9 33 -15 38 -14 4 1 7 -2
7 -7 0 -5 24 -12 53 -16 71 -9 127 -24 127 -34 0 -5 10 -12 23 -16 12 -4 28
-9 35 -11 6 -2 18 -5 25 -7 8 -1 26 -10 40 -20 36 -23 177 -25 177 -2 0 8 9
15 20 15 11 0 20 -6 20 -13 0 -14 54 -37 88 -37 12 0 22 -4 22 -10 0 -5 13
-10 28 -10 16 0 37 -9 47 -20 10 -11 26 -20 35 -20 10 0 20 -9 23 -19 4 -18
-3 -24 -43 -35 -14 -4 -101 -58 -98 -61 2 -2 37 1 78 6 84 11 120 6 120 -16 0
-18 39 -20 45 -2 4 8 30 12 81 12 42 0 78 3 80 7 9 15 43 -6 60 -38 10 -19 22
-34 26 -34 5 0 8 -9 8 -19 0 -11 3 -21 8 -24 4 -2 1 -2 -5 -1 -7 2 -13 -1 -13
-6 0 -6 0 -13 0 -17 0 -12 54 -11 62 1 4 6 11 -1 17 -16 5 -15 19 -32 31 -38
11 -6 20 -15 20 -21 0 -6 -13 -1 -29 11 -59 41 -110 52 -265 58 -155 5 -224
-3 -366 -40 -83 -21 -149 -56 -130 -68 9 -6 7 -15 -6 -36 -18 -26 -18 -28 -1
-21 9 3 17 3 18 -1 0 -4 2 -19 3 -34 2 -32 33 -69 44 -53 4 6 21 12 37 14 41
4 47 9 40 32 -5 14 -2 19 10 19 11 0 15 -5 12 -14 -3 -8 -3 -17 1 -21 4 -4 8
-15 8 -26 1 -10 2 -23 3 -29 0 -5 12 -10 26 -10 31 0 77 -28 69 -42 -5 -8 -8
-68 -5 -105 1 -16 31 -5 31 11 0 17 61 35 86 25 12 -4 25 -23 33 -48 6 -23 16
-39 21 -36 4 3 15 -1 23 -9 11 -11 17 -12 26 -3 10 9 14 8 22 -5 6 -10 21 -18
34 -18 14 0 25 -5 25 -11 0 -12 43 -1 48 12 2 5 12 9 22 9 10 0 22 5 25 10 8
13 65 13 65 0 0 -9 -14 -47 -33 -87 -6 -13 -8 -25 -6 -27 3 -3 36 10 74 29 39
19 79 35 90 35 23 0 58 20 37 20 -9 0 -10 5 -4 18 5 9 9 51 10 93 1 42 6 89
12 103 15 41 12 134 -6 173 -22 45 -7 60 29 29 15 -13 27 -28 27 -34 0 -5 11
-9 25 -8 14 0 25 4 25 9 0 4 8 7 18 6 10 0 12 -3 5 -6 -7 -2 -13 -10 -13 -18
0 -15 52 -17 62 -2 4 7 16 1 32 -16 21 -22 26 -38 26 -78 0 -27 5 -49 10 -49
6 0 10 -13 10 -30 0 -25 4 -30 23 -30 26 0 43 -18 82 -83 21 -37 24 -50 15
-66 -9 -17 -8 -20 5 -15 10 4 15 0 15 -11 0 -13 -5 -16 -22 -11 -34 10 -64 14
-170 22 -54 4 -98 11 -98 15 0 5 -3 8 -7 7 -5 -1 -20 2 -36 6 -17 5 -33 4 -42
-4 -26 -22 1 -36 32 -17 13 8 20 0 18 -23 0 -11 -9 -14 -33 -12 -24 3 -31 0
-26 -11 3 -10 -4 -16 -25 -20 -17 -4 -31 -11 -31 -16 0 -15 44 -22 55 -8 6 7
26 11 48 9 21 -2 37 1 37 7 0 6 -8 7 -17 4 -16 -6 -16 -5 -4 11 13 15 16 16
26 3 6 -8 19 -17 30 -20 19 -4 19 -5 -1 -6 -12 0 -24 -8 -28 -16 -3 -8 -12
-15 -21 -15 -8 0 -15 -4 -15 -10 0 -5 7 -10 15 -10 8 0 15 -7 15 -15 0 -8 -7
-15 -15 -15 -20 0 -19 -17 2 -28 12 -7 24 -5 40 6 16 10 27 12 34 5 7 -7 -1
-15 -23 -26 -18 -9 -34 -12 -36 -7 -2 6 -8 10 -13 10 -5 0 -4 -8 2 -18 8 -13
20 -17 45 -14 42 5 45 -12 8 -41 l-27 -21 23 -8 c13 -5 25 -6 28 -3 3 3 0 5
-6 5 -7 0 -12 5 -12 11 0 6 9 9 19 6 12 -3 18 0 17 7 -2 6 -1 8 1 3 3 -4 9 -4
15 -1 6 4 6 -1 -1 -14 -6 -11 -61 -58 -123 -106 -132 -100 -158 -122 -158
-131 0 -3 28 15 62 42 35 26 92 68 128 92 36 24 80 60 99 80 l34 36 -23 -33
c-12 -18 -52 -55 -88 -82 -37 -27 -71 -53 -77 -58 -5 -4 -35 -27 -65 -51 -30
-24 -59 -49 -63 -57 -4 -8 -13 -14 -18 -14 -6 0 -7 5 -4 10 4 6 2 25 -4 43 -5
17 -13 97 -16 177 l-6 145 25 29 c28 32 27 49 -2 23 -12 -11 -22 -13 -32 -7
-27 17 -33 10 -9 -10 l24 -19 -23 -1 c-13 0 -20 -4 -17 -10 4 -7 -3 -7 -20 0
-20 8 -24 7 -18 -3 11 -17 10 -31 -2 -39 -6 -5 -3 -8 8 -8 9 0 17 7 17 15 0 8
5 15 10 15 21 0 9 -32 -22 -61 -18 -16 -36 -29 -41 -29 -4 0 -5 -4 -2 -10 3
-5 1 -10 -4 -10 -6 0 -11 -4 -11 -10 0 -5 6 -10 13 -10 7 0 13 -17 13 -45 2
-36 8 -51 28 -68 14 -13 26 -28 26 -35 0 -30 19 -8 23 26 3 34 4 33 5 -10 2
-36 -1 -46 -12 -42 -24 9 -28 -62 -6 -110 18 -39 23 -96 8 -96 -3 0 -4 -9 -1
-20 3 -11 10 -20 15 -20 5 0 7 -8 4 -18 -4 -11 7 -31 33 -57 60 -63 112 -107
118 -101 3 3 -3 25 -14 48 -42 89 -50 73 111 209 46 38 56 50 56 61 0 13 -23
-6 -98 -77 -42 -40 -54 -47 -62 -35 -7 12 -12 11 -29 -5 -24 -21 -20 -35 4
-15 9 7 18 10 22 7 6 -7 -36 -46 -49 -47 -4 0 -4 7 -1 17 5 12 3 14 -7 8 -8
-5 -11 -4 -6 3 4 6 -3 41 -15 78 l-22 67 34 31 c19 17 45 39 59 48 70 48 113
81 146 110 20 18 43 37 52 41 10 5 4 -4 -13 -18 -16 -15 -46 -41 -65 -59 -19
-17 -65 -53 -101 -81 -36 -27 -74 -61 -85 -75 -13 -17 -3 -13 31 15 28 23 75
59 105 82 30 23 73 56 95 74 22 17 14 6 -20 -26 -33 -31 -95 -84 -137 -117
-43 -34 -78 -65 -78 -70 0 -6 18 5 41 24 22 18 50 40 62 48 12 8 49 39 82 68
33 30 69 58 80 64 11 5 4 -5 -15 -22 -19 -17 -62 -56 -95 -85 -33 -30 -77 -67
-97 -82 -46 -35 -60 -63 -15 -31 45 32 60 44 140 116 39 34 75 62 80 62 5 0
-6 -12 -25 -27 -18 -15 -56 -49 -84 -76 -28 -26 -70 -62 -92 -79 -23 -18 -42
-36 -42 -41 0 -11 76 42 121 84 19 19 58 52 85 74 27 22 55 48 62 57 7 10 17
16 22 13 4 -3 7 3 6 12 -1 13 16 23 64 40 41 14 58 17 46 8 -11 -8 -23 -15
-28 -15 -4 0 -8 -4 -8 -10 0 -5 3 -9 8 -9 19 3 22 -3 11 -22 -8 -16 -8 -23 1
-29 7 -4 -10 -13 -41 -20 -30 -7 -62 -17 -71 -22 -14 -7 -16 -5 -11 8 12 32
-26 9 -116 -71 -49 -44 -90 -83 -90 -87 -2 -18 17 -5 72 47 31 30 69 57 85 61
15 3 47 14 72 24 25 10 60 21 78 25 32 7 33 6 20 -15 -10 -18 -10 -24 0 -27 6
-3 12 -11 12 -19 0 -9 5 -12 12 -8 9 5 10 4 3 -3 -5 -6 -49 -23 -97 -37 -49
-15 -88 -31 -88 -37 0 -12 -8 -13 100 21 111 35 118 36 98 13 -23 -27 -26 -47
-10 -59 14 -10 12 -13 -9 -19 -30 -8 -169 -76 -169 -82 0 -3 28 -2 63 1 l62 6
-64 -30 c-35 -17 -62 -33 -59 -35 3 -3 31 -2 62 3 31 5 56 8 56 6 0 -2 -22
-13 -50 -25 -60 -26 -58 -39 5 -29 51 8 70 -5 31 -20 -34 -13 -33 -32 2 -30
41 3 49 0 29 -11 -23 -13 -23 -43 1 -36 32 9 37 9 65 8 20 -1 30 -8 37 -27 9
-23 15 -26 48 -22 20 3 45 8 55 12 10 5 17 4 17 -3 0 -6 -9 -11 -20 -11 -13 0
-20 -7 -20 -20 0 -17 5 -19 48 -15 l47 5 -40 -19 c-22 -11 -69 -25 -105 -32
-36 -7 -67 -16 -70 -20 -3 -3 -15 -11 -27 -18 -31 -16 -19 -41 21 -42 26 0 28
-2 11 -9 -11 -5 -33 -9 -48 -9 -18 -1 -40 -13 -62 -36 -40 -40 -41 -42 -17
-48 14 -3 13 -6 -8 -15 -14 -6 -21 -11 -16 -11 10 -1 -38 -41 -49 -41 -3 0 -4
8 0 19 7 24 -18 45 -45 36 -24 -8 -26 -30 -4 -43 13 -7 10 -11 -18 -16 -31 -6
-35 -9 -30 -31 3 -17 -1 -27 -12 -31 -20 -8 -21 -24 -1 -24 8 0 19 -9 25 -20
9 -17 6 -20 -30 -30 -43 -12 -56 -30 -15 -22 13 2 33 1 42 -3 16 -6 16 -8 -6
-26 -13 -10 -35 -20 -50 -20 -20 -1 -21 -3 -7 -6 11 -3 26 -11 33 -18 14 -15
11 -17 -54 -30 -40 -8 -45 -35 -7 -35 43 0 22 -25 -26 -30 -58 -7 -68 -31 -10
-27 30 3 39 0 36 -9 -3 -7 0 -15 7 -17 7 -2 -19 -7 -58 -12 -67 -7 -155 -38
-155 -56 0 -4 12 -1 28 7 31 16 61 18 82 4 11 -7 8 -10 -16 -10 -30 0 -117
-41 -129 -60 -3 -5 14 -1 37 10 46 21 118 27 118 10 0 -5 -12 -10 -26 -10 -40
0 -112 -21 -125 -36 -10 -12 -8 -13 15 -4 15 5 53 9 84 9 51 -1 54 -2 22 -9
-84 -18 -166 -43 -175 -52 -7 -7 -2 -9 15 -4 14 3 63 8 110 11 l85 5 -75 -20
c-41 -10 -106 -23 -143 -29 -38 -5 -72 -13 -75 -17 -7 -6 71 -2 198 11 72 7
38 -8 -55 -25 -104 -18 -124 -31 -41 -26 42 2 63 0 55 -5 -8 -5 -25 -9 -39 -9
-33 0 -120 -31 -120 -43 0 -5 8 -6 18 -2 23 10 112 19 112 12 0 -3 -33 -16
-72 -28 -64 -21 -152 -58 -138 -59 3 0 37 9 75 21 39 11 103 28 143 38 107 27
73 1 -51 -39 -122 -38 -177 -61 -177 -72 0 -11 7 -10 32 3 17 9 208 59 226 59
21 0 -71 -39 -118 -50 -30 -7 -71 -21 -90 -31 -19 -11 -41 -19 -48 -19 -7 0
-15 -7 -18 -15 -4 -8 -44 -26 -93 -41 -135 -41 -167 -52 -147 -53 34 -2 211
51 235 70 46 36 226 80 193 47 -7 -7 -12 -27 -12 -45 0 -29 -3 -33 -25 -33
-16 0 -25 -6 -25 -16 0 -8 -4 -12 -10 -9 -5 3 -10 0 -10 -8 0 -8 -13 -17 -30
-21 -18 -3 -30 -12 -30 -21 0 -14 16 -19 53 -16 11 2 17 -5 17 -18 0 -14 -6
-21 -20 -21 -11 0 -28 -4 -38 -9 -25 -12 -85 -33 -99 -34 -7 0 -10 -4 -7 -8 2
-4 -10 -10 -27 -14 -17 -4 -33 -14 -36 -22 -4 -10 -19 -14 -55 -12 -53 3 -69
-9 -60 -43 3 -13 -1 -24 -12 -30 -9 -5 -16 -18 -16 -28 0 -16 -5 -19 -27 -15
-50 7 -58 8 -80 7 -16 -1 -23 -8 -23 -22 0 -22 -16 -27 -22 -8 -3 9 -10 8 -22
-5 -10 -9 -21 -15 -26 -12 -5 3 -10 -9 -12 -27 -2 -18 -7 -31 -12 -30 -5 2
-12 -2 -17 -9 -6 -10 -11 -10 -21 -1 -10 8 -18 8 -25 1 -7 -7 -12 -6 -16 5 -4
9 1 21 12 28 9 7 21 20 26 28 6 12 5 12 -5 3 -7 -6 -19 -9 -28 -6 -9 4 -13 2
-9 -3 4 -6 -6 -9 -24 -6 -23 3 -31 11 -35 32 -4 19 -15 30 -41 39 -19 7 -32
15 -30 18 3 2 14 0 24 -5 12 -7 25 -7 34 -1 15 9 6 13 -26 9 -11 -1 -17 1 -13
6 9 9 -10 34 -26 34 -6 0 -2 -7 8 -15 31 -23 7 -17 -43 11 -42 23 -33 10 15
-24 20 -14 21 -14 -33 4 -10 3 2 -6 27 -21 25 -14 34 -23 21 -19 -16 4 -21 3
-17 -5 4 -6 3 -11 -3 -11 -15 0 -24 20 -9 20 7 1 -4 10 -24 21 -38 19 -52 34
-23 23 24 -10 17 2 -12 22 -27 17 -28 17 -13 -1 14 -17 13 -18 -4 -11 -19 7
-19 6 -1 -14 32 -35 4 -22 -54 27 -49 40 -51 42 -22 10 19 -20 30 -37 25 -37
-6 0 -21 11 -34 25 -13 14 -29 25 -37 25 -9 0 -13 14 -14 43 0 32 -2 37 -9 22
-5 -11 -9 -15 -9 -9 -1 13 -51 37 -51 25 0 -5 10 -12 23 -15 l22 -6 -25 -15
c-14 -8 -32 -12 -41 -9 -10 3 -26 -9 -43 -31 -22 -28 -26 -42 -21 -65 7 -31
-2 -39 -22 -19 -8 8 -24 -2 -56 -34 -43 -41 -48 -44 -84 -37 -36 7 -22 15 22
12 17 -2 18 0 4 8 -10 6 -28 6 -48 0 -29 -8 -32 -7 -26 8 3 9 3 13 -1 9 -8 -8
-84 33 -84 45 0 4 5 8 10 8 6 0 10 3 10 8 0 4 -21 8 -48 10 -26 2 -60 4 -76 6
-35 4 -96 -11 -96 -24 0 -5 -9 -14 -21 -20 -17 -10 -20 -9 -19 7 4 32 0 36
-18 20 -18 -16 -62 -13 -62 4 0 5 -8 9 -19 9 -24 0 -36 -41 -16 -53 26 -14 0
-47 -37 -47 -58 0 -23 -9 42 -11 36 -1 59 -4 52 -6 -21 -8 -13 -32 23 -65 26
-23 32 -34 23 -40 -10 -5 -8 -8 5 -8 15 0 22 -11 18 -32 0 -5 6 -8 14 -8 8 0
15 -5 15 -11 0 -5 16 -25 36 -43 20 -18 32 -36 28 -39 -12 -7 -116 13 -128 24
-6 6 -3 9 7 9 9 0 17 7 17 15 0 8 -5 15 -11 15 -5 0 -7 -4 -4 -10 4 -6 -5 -10
-20 -10 -14 0 -28 7 -31 15 -4 8 -14 16 -23 16 -9 1 2 5 24 9 37 7 38 7 8 9
-43 2 -63 -8 -56 -26 5 -12 1 -14 -18 -8 -18 5 -20 4 -9 -4 8 -6 22 -8 31 -6
9 3 29 -2 45 -10 28 -15 27 -15 -36 -10 -36 2 -80 7 -97 10 -18 2 -33 0 -33
-5 0 -6 -5 -10 -11 -10 -5 0 -7 5 -4 10 3 6 -2 10 -12 10 -12 0 -19 -7 -19
-19 0 -15 7 -19 28 -19 16 1 31 5 34 10 3 4 15 8 27 8 15 0 18 -3 10 -8 -8 -5
2 -8 23 -9 35 -1 74 -22 44 -24 -8 0 -4 -5 9 -10 29 -11 38 -5 22 15 -17 21 0
27 42 14 41 -12 40 -27 -1 -29 -24 -1 -23 -2 8 -10 19 -4 43 -6 54 -2 12 3 16
1 12 -6 -4 -6 -2 -11 3 -11 6 0 16 9 23 20 16 26 28 26 21 0 -6 -23 -65 -60
-96 -60 -21 -1 -21 -1 3 -15 l25 -14 -32 -1 c-17 0 -35 5 -38 10 -3 6 -18 10
-33 10 l-27 -1 29 -12 30 -13 -37 -1 c-24 -1 -37 4 -37 12 0 7 -9 15 -20 18
-24 6 -27 -8 -4 -17 8 -3 12 -10 9 -16 -3 -5 3 -10 15 -10 11 0 23 -7 26 -15
4 -8 12 -15 20 -15 8 0 14 -4 14 -10 0 -11 -15 -12 -48 -3 -18 4 -20 8 -10 14
10 7 8 9 -6 9 -11 0 -29 8 -40 17 -20 18 -20 18 -3 -10 17 -26 17 -27 -3 -27
-13 0 -18 -4 -15 -11 4 -6 21 -9 38 -7 19 2 32 -2 35 -11 3 -10 0 -12 -12 -8
-9 4 -16 2 -16 -2 0 -19 30 -19 40 -1 11 20 11 20 41 -2 l31 -23 18 23 c21 25
38 28 65 8 17 -12 17 -13 -8 -20 -15 -3 -27 -11 -27 -17 0 -7 7 -8 18 -3 31
13 95 17 88 5 -4 -6 -21 -11 -38 -11 -26 0 -29 -2 -18 -15 10 -13 9 -15 -8
-15 -12 0 -28 -10 -36 -22 -13 -18 -27 -22 -76 -24 -33 -1 -60 2 -60 7 0 5 10
9 23 10 l22 0 -23 10 c-15 5 -30 5 -41 -1 -21 -11 -91 5 -91 22 0 6 -9 8 -20
5 -13 -3 -31 6 -57 30 -20 20 -39 30 -41 24 -2 -6 -10 -11 -18 -11 -9 0 -12
-4 -9 -10 3 -5 2 -10 -4 -10 -5 0 -16 -3 -25 -6 -12 -5 -11 1 4 32 22 42 19
54 -13 54 -23 0 -53 -45 -37 -55 5 -3 7 -16 6 -28 -3 -22 1 -24 40 -25 25 0
50 -7 59 -16 9 -8 22 -13 30 -10 10 4 15 0 15 -15 0 -14 8 -23 25 -27 14 -3
23 -10 20 -14 -3 -5 1 -10 7 -13 7 -2 10 -7 7 -11 -4 -4 -13 -1 -20 6 -18 18
-139 20 -133 3 3 -7 -7 -15 -25 -18 -18 -4 -31 -13 -31 -22 0 -22 44 -47 77
-43 15 2 28 -1 28 -7 0 -5 -16 -9 -35 -7 -36 3 -95 -20 -83 -32 4 -4 0 -4 -10
0 -23 8 -22 24 2 24 11 0 23 5 27 12 5 8 2 9 -11 5 -11 -5 -22 -1 -29 8 -12
17 -51 11 -40 -6 3 -5 -7 -10 -23 -10 -17 -1 -21 -3 -10 -6 14 -4 16 -11 11
-40 -7 -35 -6 -36 19 -29 14 3 29 1 32 -4 4 -6 21 -10 38 -10 31 0 147 -16
137 -19 -3 0 -20 -5 -38 -10 -18 -6 -30 -6 -27 -1 9 14 -67 23 -76 8 -8 -11
-10 -11 -18 0 -4 8 -27 16 -50 19 -24 3 -41 11 -41 19 0 7 -15 14 -37 17 -38
4 -38 4 7 6 44 3 44 3 15 12 -43 14 -115 19 -115 8 0 -5 -5 -9 -11 -9 -6 0
-17 -7 -25 -15 -9 -8 -23 -15 -32 -14 -12 0 -11 3 6 9 15 7 22 18 23 37 0 15
3 22 6 16 2 -7 9 -13 14 -13 6 0 8 4 4 9 -3 5 5 17 17 25 22 15 20 16 -33 16
-30 0 -61 -6 -67 -12 -10 -10 -15 -10 -22 2 -7 10 -5 18 5 26 24 18 4 26 -22
9 -13 -9 -23 -11 -23 -5 0 5 -9 10 -20 10 -11 0 -20 -4 -20 -10 0 -6 -9 -6
-26 1 -29 11 -40 7 -29 -11 4 -6 21 -10 38 -8 19 2 32 -2 35 -11 4 -11 -3 -13
-33 -8 -46 8 -69 25 -55 42 5 6 7 14 5 17 -3 3 5 3 19 1 13 -3 48 0 77 6 47
10 54 10 74 -9 25 -24 106 -30 86 -7 -6 8 -8 17 -4 20 3 4 -5 7 -18 8 -13 0
-18 3 -11 6 6 2 12 9 12 14 0 6 -5 7 -11 3 -18 -11 -71 -15 -64 -4 3 5 -3 13
-12 19 -17 10 -17 10 0 11 9 0 17 -5 17 -11 0 -8 12 -9 38 -4 20 4 51 7 67 7
28 -1 29 -1 7 8 -13 6 -20 14 -17 20 3 5 -1 10 -10 10 -11 0 -15 -5 -11 -15 7
-19 1 -19 -31 2 -19 13 -28 14 -31 5 -2 -6 -9 -12 -14 -12 -6 0 -9 3 -5 6 10
11 -22 36 -38 30 -8 -3 -15 -1 -15 4 0 6 5 10 10 10 6 0 10 7 10 16 0 13 -3
14 -14 5 -11 -9 -20 -9 -35 -2 -11 6 -33 11 -50 11 -16 0 -32 4 -35 9 -3 4 7
6 22 5 25 -4 24 -3 -8 13 -27 13 -31 17 -17 21 10 2 30 -4 45 -14 15 -10 45
-21 67 -26 88 -20 109 -26 91 -27 -16 -1 -16 -3 -5 -17 9 -11 22 -14 46 -9 24
4 38 1 49 -10 8 -8 27 -15 42 -14 l27 1 -29 10 c-21 8 -25 13 -15 19 10 6 3 9
-21 10 l-35 1 34 9 c30 9 32 11 16 23 -10 7 -15 18 -11 24 5 8 -1 12 -14 12
-13 0 -19 4 -14 12 5 8 0 9 -14 6 -12 -4 -25 -2 -28 3 -10 16 -46 10 -65 -12
-11 -13 -23 -18 -31 -13 -15 10 -82 16 -155 16 -35 0 -53 4 -57 14 -6 16 5 19
20 4 6 -6 19 -7 29 -4 18 7 18 8 -1 15 -13 5 -5 8 26 8 25 1 55 4 68 7 13 4
22 2 22 -5 0 -6 -17 -11 -37 -12 -36 0 -36 -1 -15 -12 18 -8 29 -8 44 2 13 8
23 9 27 3 12 -18 48 -23 61 -7 7 8 11 15 9 16 -2 0 -15 3 -28 5 -42 8 -34 11
40 18 75 8 84 17 22 23 -21 2 -45 11 -54 19 -18 17 -59 19 -59 3 0 -7 -7 -8
-17 -4 -10 4 -26 7 -36 7 -9 0 -15 4 -11 10 3 5 18 8 32 5 35 -7 59 2 40 15
-8 7 -5 7 12 2 14 -5 57 -7 97 -7 60 2 71 0 66 -13 -4 -10 0 -12 11 -8 9 3 16
10 16 14 0 5 9 6 20 3 11 -3 20 -10 20 -15 0 -6 -6 -8 -14 -5 -8 3 -22 -1 -33
-9 -17 -13 -16 -14 12 -8 39 8 36 8 67 0 34 -10 68 1 68 20 0 12 8 14 33 10
21 -4 26 -3 13 2 -18 8 -18 9 -2 15 10 4 27 7 39 8 18 1 16 3 -7 10 -19 5 -34
4 -42 -2 -7 -6 -17 -8 -23 -5 -5 3 -11 1 -13 -6 -2 -6 -10 -8 -16 -4 -19 11
-14 26 8 26 12 0 34 7 51 15 29 16 55 12 44 -6 -12 -18 26 -9 48 12 22 20 22
21 3 35 -13 9 -23 10 -31 4 -7 -6 -24 -6 -45 0 -36 10 -55 6 -21 -5 12 -3 21
-11 21 -17 0 -5 -7 -7 -15 -4 -9 3 -33 0 -54 -7 -21 -8 -46 -10 -57 -6 -18 7
-17 8 3 8 27 1 41 21 14 21 -11 0 -27 -7 -36 -17 -10 -10 -19 -12 -23 -6 -4 5
-14 10 -22 10 -8 0 -26 3 -40 7 -16 5 -20 4 -12 -2 11 -7 10 -10 -3 -16 -23
-8 -27 -8 -20 4 3 6 -4 11 -17 11 -66 5 -96 3 -91 -4 3 -5 15 -7 26 -6 35 2
43 -1 28 -10 -21 -14 31 -26 56 -13 20 11 43 5 43 -10 0 -6 -7 -7 -16 -4 -9 4
-27 0 -40 -9 -20 -13 -25 -13 -37 0 -8 7 -23 12 -33 9 -11 -3 -30 -1 -44 5
-22 8 -22 10 -5 11 19 1 19 1 2 11 -10 6 -26 7 -35 4 -9 -4 -38 -7 -64 -6 -27
2 -48 -1 -48 -6 0 -4 -11 -8 -24 -8 -33 0 -23 12 17 20 69 14 75 17 42 27 -16
4 -42 5 -57 2 -18 -3 -28 -1 -28 6 0 7 -13 10 -34 9 -19 -2 -40 2 -48 8 -8 7
-23 11 -33 11 -11 -1 -33 2 -48 6 -24 6 -27 9 -17 21 11 13 6 15 -29 15 -22 0
-42 5 -42 10 -1 6 -2 16 -3 23 -1 6 -8 11 -15 9 -20 -4 -141 19 -141 28 0 4
10 11 23 15 21 7 20 8 -8 14 -16 4 -33 3 -36 -2 -4 -5 -11 -7 -17 -3 -6 3 -12
1 -14 -6 -3 -9 -9 -8 -22 5 -17 16 -16 17 5 17 16 0 20 3 13 10 -7 7 -20 7
-35 2 -26 -10 -98 -10 -114 0 -13 8 -97 22 -112 19 -8 -1 -10 4 -7 14 4 10 13
14 23 9 34 -14 51 -16 51 -6 0 6 -6 13 -12 15 -8 4 -7 6 4 6 9 1 23 -5 30 -13
10 -10 19 -11 32 -4 10 5 20 7 23 4 4 -3 0 -6 -8 -6 -25 0 13 -20 39 -20 24 0
30 15 10 23 -7 3 -4 6 7 6 12 1 38 -8 60 -19 47 -24 65 -25 65 -5 0 8 -3 14
-7 14 -26 -4 -53 2 -48 11 4 6 14 8 23 6 10 -3 24 -1 31 4 26 16 -30 22 -153
18 -63 -3 -113 -1 -110 4 3 4 -10 8 -28 7 -27 0 -30 -2 -13 -9 16 -7 17 -9 3
-9 -9 -1 -23 6 -32 14 -8 8 -21 15 -28 15 -10 0 -9 -3 2 -10 12 -7 8 -10 -14
-10 -24 0 -27 -2 -16 -15 7 -8 18 -15 25 -15 7 0 12 -8 11 -17 -2 -10 4 -23
13 -30 15 -11 14 -12 -1 -13 -9 0 -23 6 -30 13 -15 14 -58 18 -58 5 0 -5 -12
-6 -27 -3 -24 5 -25 5 -10 -5 10 -7 25 -9 32 -6 8 3 17 1 20 -4 4 -6 48 -10
98 -10 79 -1 89 -3 75 -14 -28 -21 -23 -39 9 -31 68 16 89 17 102 1 15 -18 66
-22 76 -6 13 20 32 10 28 -14 -4 -22 -1 -26 30 -31 21 -4 39 -15 47 -29 6 -13
21 -23 33 -23 56 -1 61 -3 49 -15 -18 -18 -14 -28 12 -28 20 0 24 -4 22 -30
-1 -17 2 -30 6 -30 5 0 4 -9 -2 -19 -9 -18 -5 -20 45 -26 30 -4 65 -5 79 -1
16 4 26 1 29 -8 7 -17 72 -37 92 -30 7 3 16 0 21 -7 5 -9 -4 -11 -36 -6 -46 6
-73 0 -64 -14 7 -12 -7 -11 -26 1 -12 7 -10 11 10 19 14 5 23 10 20 11 -3 0
-32 3 -64 7 -42 4 -57 2 -52 -6 10 -16 -11 -14 -37 4 -18 11 -33 13 -67 6 -25
-5 -35 -9 -22 -10 24 -1 27 -12 12 -42 -8 -14 -15 -16 -28 -10 -9 5 -25 12
-36 15 -12 4 -17 13 -13 26 4 17 0 20 -26 20 l-32 0 25 20 c30 24 44 25 60 5
7 -8 17 -15 23 -15 6 0 0 12 -14 26 -22 24 -22 26 -4 21 55 -16 75 -18 75 -9
0 6 -15 14 -32 17 -18 4 -37 11 -43 15 -17 14 -48 14 -107 0 -46 -10 -63 -11
-87 0 -17 7 -28 16 -25 21 3 5 0 9 -5 9 -6 0 -11 -5 -11 -11 0 -5 -5 -7 -10
-4 -17 10 -100 14 -94 4 3 -5 15 -10 27 -10 17 -1 18 -2 5 -6 -10 -2 -18 -9
-18 -15 0 -5 7 -8 15 -5 8 4 17 2 20 -3 4 -6 18 -10 33 -11 27 -1 27 -1 3 -8
-23 -6 -22 -7 12 -18 34 -10 53 -2 25 11 -7 3 1 3 17 -1 48 -9 65 -22 30 -23
-25 -1 -27 -2 -12 -11 9 -5 22 -7 27 -4 6 3 10 2 10 -4 0 -5 -18 -9 -39 -8
-22 0 -37 5 -35 9 3 4 1 8 -5 8 -5 0 -17 3 -27 7 -12 4 -15 3 -10 -5 9 -15 -2
-15 -43 -1 -27 10 -36 9 -49 -4 -9 -9 -12 -20 -8 -24 4 -4 10 -3 14 2 9 14
106 12 123 -1 22 -17 49 -24 49 -14 0 6 11 10 25 10 29 0 34 -16 8 -23 -12 -3
-9 -5 7 -5 14 0 36 -3 50 -7 21 -5 20 -3 -5 9 -26 13 -27 14 -8 15 32 1 75
-17 68 -29 -5 -9 16 -14 52 -13 7 1 13 -3 13 -7 0 -4 8 -10 19 -13 12 -3 18 1
17 11 -1 11 9 16 31 18 23 1 30 -2 26 -12 -3 -8 1 -14 10 -14 9 0 18 -4 21 -9
4 -5 -30 -8 -79 -6 -73 3 -117 12 -212 41 -10 3 -7 -1 7 -10 24 -14 24 -15
-27 -14 -29 0 -53 4 -53 9 0 5 -8 9 -18 9 -10 0 -28 9 -41 21 -12 11 -29 18
-37 15 -7 -3 -14 -1 -14 4 0 5 -16 6 -35 3 -23 -4 -35 -2 -35 6 0 14 -87 15
-96 0 -4 -7 5 -10 28 -8 18 2 38 1 43 -3 6 -3 22 -8 38 -12 15 -3 27 -11 27
-16 0 -12 -98 -12 -125 0 -14 7 -8 8 19 3 28 -4 37 -3 32 6 -4 6 -19 11 -34
11 -28 1 -86 28 -64 31 6 1 17 3 22 4 6 1 27 4 48 5 23 1 29 4 17 7 -11 3 -26
10 -32 15 -9 7 -13 7 -13 -1 0 -14 -52 -13 -115 4 -47 13 -48 14 -10 10 22 -2
57 -7 78 -11 22 -4 37 -2 37 4 0 5 -21 13 -47 17 -27 4 -62 13 -80 20 -27 12
-31 11 -26 -1 8 -22 -11 -16 -37 11 -23 24 -23 25 -3 25 11 0 37 -7 58 -16 20
-8 44 -13 53 -11 15 4 15 5 0 6 -10 0 -18 6 -18 11 0 6 -8 10 -18 10 -12 0
-18 8 -20 25 -1 16 3 25 13 25 8 0 15 -4 15 -9 0 -8 31 -22 54 -25 5 -1 11 11
13 26 4 29 -7 34 -59 29 -10 -1 -18 3 -18 9 0 7 7 10 15 6 8 -3 15 0 15 6 0 6
-12 9 -33 5 -23 -3 -48 2 -80 18 -26 12 -47 20 -47 17 0 -9 51 -52 63 -53 7 0
3 -4 -8 -9 -16 -7 -17 -9 -3 -9 19 -1 48 -27 48 -44 0 -7 -16 -13 -37 -13 -21
-1 -56 -4 -77 -7 -30 -4 -47 -1 -67 14 -15 10 -33 19 -41 19 -11 0 -11 -2 0
-9 8 -4 12 -12 10 -16 -4 -10 61 -45 84 -45 9 0 20 -5 23 -10 4 -6 16 -8 27
-4 14 4 18 2 14 -5 -4 -7 1 -11 13 -11 11 0 23 -4 26 -10 8 -13 11 -13 -64 10
-36 11 -67 17 -70 15 -6 -7 31 -34 47 -35 16 0 15 -12 -3 -36 -11 -14 -15 -15
-14 -4 3 34 -2 40 -37 40 -32 0 -36 3 -31 20 5 19 2 21 -38 15 -27 -5 -45 -3
-49 4 -4 6 -17 11 -29 11 -18 0 -19 2 -7 10 8 5 24 7 35 4 l20 -5 -20 12 c-11
7 -33 23 -49 36 -20 16 -37 23 -51 19 -17 -4 -27 1 -40 21 -13 19 -14 25 -4
21 53 -22 55 -22 32 -1 -13 11 -19 24 -15 28 4 4 -4 4 -17 0 -16 -5 -21 -4
-17 4 8 13 45 14 65 2 7 -5 11 -13 7 -19 -6 -10 25 -22 62 -22 13 0 22 -6 22
-16 0 -8 5 -12 10 -9 6 4 8 11 5 16 -4 5 3 9 15 9 12 0 18 4 15 10 -4 6 -14
10 -23 9 -37 -3 -61 2 -76 16 -8 8 -19 15 -24 15 -5 0 -21 9 -35 20 -28 22
-119 43 -127 30 -5 -8 -32 -13 -65 -11 -17 1 -18 3 -5 11 12 8 9 10 -13 10
-16 0 -35 7 -43 15 -13 12 -13 15 -2 15 8 0 20 -6 26 -12 13 -13 164 -15 202
-3 11 4 20 2 20 -4 0 -5 11 -22 25 -37 14 -15 25 -23 25 -17 0 5 -5 14 -12 21
-10 10 -5 11 22 6 19 -4 41 -11 48 -17 7 -5 15 -7 18 -4 5 5 -48 38 -61 37
-35 -1 -45 2 -40 11 4 6 20 8 38 4 l32 -6 -28 25 c-29 27 -96 38 -81 14 5 -8
2 -9 -9 -5 -10 4 -16 2 -14 -6 1 -7 -11 -13 -28 -15 -21 -2 -26 0 -16 7 14 9
8 11 -89 27 -43 7 -43 8 -15 14 17 3 32 3 35 -1 7 -9 60 1 60 11 0 4 -7 11
-16 14 -8 3 -12 2 -9 -4 7 -12 -18 -14 -29 -2 -4 4 -12 8 -17 8 -5 1 -12 3
-16 4 -5 1 -34 1 -65 0 -36 -1 -58 2 -58 9 0 15 246 9 261 -6 6 -6 18 -9 27
-5 13 5 12 7 -4 13 -16 6 -15 8 9 8 18 1 27 -4 27 -14 0 -8 6 -15 13 -15 59
-3 121 -12 155 -24 23 -8 44 -11 47 -6 3 5 -21 14 -52 21 -67 14 -80 20 -149
66 -30 19 -54 44 -58 57 -4 18 -12 24 -31 22 l-26 -1 23 -19 23 -19 -25 6 -25
6 23 -19 c12 -10 28 -20 35 -23 28 -10 -5 -17 -108 -22 -61 -3 -123 -1 -140 4
-21 7 -24 10 -10 10 17 1 17 3 5 11 -8 5 -11 10 -7 10 13 0 -20 30 -33 30 -6
0 -8 -5 -5 -10 3 -6 -4 -14 -17 -19 -22 -9 -22 -10 7 -12 l30 -1 -30 -7 c-28
-7 -28 -8 -8 -14 25 -9 35 -29 22 -48 -8 -12 -11 -11 -20 3 -5 10 -20 18 -32
19 -20 1 -20 2 3 8 l25 7 -25 8 c-14 5 -29 8 -33 7 -5 -1 -6 3 -2 9 3 5 -1 10
-9 10 -9 0 -16 -7 -16 -15 0 -16 -12 -20 -24 -7 -4 4 -19 7 -33 7 -15 0 -28 5
-30 12 -3 8 8 10 37 6 34 -5 39 -3 34 11 -4 11 -19 16 -48 17 -35 1 -37 2 -16
9 25 8 25 8 -5 10 -25 2 -26 3 -7 7 13 3 28 0 35 -5 7 -4 27 -7 45 -5 20 2 31
-1 27 -7 -10 -17 7 -11 20 6 10 14 19 15 58 6 27 -5 50 -6 53 -1 3 5 25 9 50
9 25 0 43 4 39 9 -3 5 -1 12 4 15 5 4 12 2 16 -4 9 -15 25 -12 25 5 0 8 -5 15
-12 15 -6 0 -8 3 -5 7 4 3 16 -2 27 -12 18 -16 56 -17 95 -1 6 2 20 7 32 11
28 9 20 25 -11 25 -12 0 -40 16 -62 35 -27 24 -34 35 -22 35 9 0 20 -5 24 -11
4 -7 9 -7 13 -2 3 5 15 15 26 22 17 10 16 11 -14 5 -23 -4 -31 -3 -27 5 8 13
45 14 65 2 11 -7 10 -11 -5 -20 -11 -6 -14 -11 -8 -11 6 0 17 7 24 15 16 20
35 19 67 -2 19 -12 28 -14 30 -6 3 7 20 17 39 23 34 12 38 30 6 30 -15 0 -15
-2 -2 -10 11 -7 4 -9 -25 -6 -22 3 -71 8 -110 11 -114 9 -148 17 -133 27 8 6
-4 8 -36 4 -31 -4 -54 -2 -63 6 -8 6 -32 11 -54 10 -23 -1 -46 1 -52 5 -6 3
-64 7 -129 9 -66 1 -122 5 -125 8 -4 3 9 6 27 6 18 0 30 3 26 8 -4 4 -49 8
-100 8 -63 1 -102 7 -122 17 l-29 16 45 -5 c80 -10 204 -13 250 -5 25 4 77 5
115 1 l70 -7 -80 -3 c-44 -2 -93 -2 -110 -1 l-30 1 32 -14 c24 -11 41 -12 65
-5 40 11 40 11 34 1 -6 -10 208 -34 253 -27 18 2 42 0 52 -6 15 -7 19 -7 17 3
-3 14 33 12 42 -2 3 -4 16 -10 30 -14 19 -6 21 -5 10 3 -25 17 15 14 50 -4 17
-9 30 -11 30 -5 0 5 -6 10 -12 10 -9 0 -8 4 2 10 20 13 73 13 65 0 -3 -5 1
-10 9 -10 9 0 16 5 16 11 0 6 7 3 16 -5 8 -9 26 -16 39 -16 19 0 22 -4 18 -22
-3 -13 -1 -19 4 -13 11 14 62 16 93 5 42 -14 107 -22 90 -11 -8 6 -26 12 -40
13 -14 1 11 5 55 8 l80 6 -78 2 c-61 2 -85 7 -107 22 -17 12 -49 22 -82 24
-61 4 -121 15 -128 23 -7 8 81 -3 105 -13 18 -7 18 -6 6 9 -16 21 -5 21 29 2
36 -21 56 -19 34 2 -16 17 -15 18 22 24 75 12 144 16 144 8 0 -5 12 -4 26 1
33 13 77 13 69 0 -3 -5 -1 -10 4 -10 6 0 11 4 11 9 0 5 16 11 35 13 19 2 35 0
35 -5 0 -5 8 -6 18 -2 9 4 46 11 81 16 52 8 68 6 87 -6 13 -8 31 -15 41 -15
17 1 17 2 -1 15 -10 8 -22 12 -27 10 -4 -3 -10 -2 -13 3 -5 8 58 20 219 41
102 14 135 14 135 -1 0 -6 7 -4 18 5 12 11 36 17 70 17 30 0 52 4 52 11 0 6
-9 8 -20 4 -12 -4 -26 0 -36 10 -15 15 -14 15 11 9 20 -5 26 -4 21 5 -10 16
-60 14 -101 -6 -19 -9 -35 -19 -35 -22 0 -3 -12 -7 -26 -7 -16 -1 -24 2 -21
10 4 9 -17 12 -74 13 -61 0 -76 -2 -63 -11 12 -9 -5 -11 -73 -11 -89 0 -199
-14 -175 -22 29 -11 -1 -18 -55 -13 -53 5 -248 -3 -213 -9 8 -1 2 -7 -13 -13
-20 -7 -32 -7 -39 0 -6 6 -26 8 -45 5 -33 -6 -35 -4 -28 16 4 12 2 21 -4 21
-6 0 -11 -9 -11 -20 0 -13 -7 -20 -19 -20 -11 0 -21 -5 -23 -12 -4 -12 -66
-15 -108 -5 -14 3 -25 6 -25 8 0 6 -52 5 -60 -1 -10 -8 -47 -13 -72 -11 -7 1
-10 8 -6 17 5 13 0 15 -23 13 -16 -2 -35 0 -41 4 -8 5 -21 0 -33 -11 -20 -18
-19 -18 30 -12 28 4 50 3 50 -2 0 -4 -16 -8 -36 -8 -23 0 -33 -4 -28 -11 3 -6
0 -15 -7 -20 -10 -6 -8 -9 9 -9 12 0 22 -4 22 -8 0 -4 -16 -6 -35 -4 -19 2
-35 0 -35 -6 0 -17 -35 -20 -49 -4 -12 12 -11 13 9 7 15 -5 20 -4 16 4 -4 6
-25 9 -47 7 -22 -2 -42 1 -45 6 -4 5 -10 5 -17 -1 -8 -6 -16 -4 -24 4 -17 18
-6 25 39 25 22 0 37 4 34 9 -3 5 -15 7 -25 4 -10 -3 -31 3 -45 13 -26 16 -28
16 -42 -5 -19 -27 -34 -27 -27 -1 5 17 0 20 -28 21 -31 1 -32 1 -9 8 33 10
146 -1 143 -14 -1 -5 9 -9 22 -7 12 2 26 -2 30 -7 3 -6 15 -11 26 -11 18 0 18
1 -3 22 -16 16 -18 23 -8 26 7 3 19 -3 25 -12 15 -20 25 -21 25 -2 0 10 16 14
58 15 31 0 72 5 91 11 21 6 40 6 50 0 12 -7 6 -10 -24 -11 -33 -1 -36 -2 -15
-8 14 -3 80 -5 148 -3 97 3 122 7 122 18 0 8 -5 14 -11 14 -5 0 -8 4 -4 10 3
5 -13 14 -35 20 -48 13 -54 32 -7 23 59 -11 77 -21 70 -39 -6 -15 0 -16 53 -9
32 4 69 8 81 7 13 0 21 4 18 8 -5 8 56 18 137 23 38 2 39 11 3 20 -11 3 -1 4
22 4 24 -1 43 -5 43 -9 0 -3 15 -6 34 -5 19 0 33 5 30 9 -3 4 4 8 15 8 10 0
21 -5 23 -10 3 -10 50 1 90 21 26 13 48 11 48 -5 0 -8 7 -17 16 -20 25 -9 126
-7 120 3 -3 5 4 12 17 16 13 4 17 8 9 12 -6 2 -10 9 -6 14 3 5 -9 9 -26 9 -21
0 -29 -4 -24 -12 5 -8 0 -9 -17 -5 -13 4 -30 7 -36 7 -7 0 -12 5 -10 11 1 6
-4 14 -12 17 -9 3 -11 0 -6 -8 6 -10 2 -11 -16 -6 -59 18 -68 18 -85 -3 -19
-21 -40 -30 -29 -11 4 6 1 18 -7 27 -12 15 -10 16 15 9 20 -5 27 -3 27 9 0 18
5 18 31 5 13 -7 19 -7 19 0 0 5 -5 10 -11 10 -5 0 -7 5 -3 12 5 8 2 9 -12 3
-24 -11 -64 -11 -89 0 -17 7 -18 7 -8 -7 20 -24 3 -29 -25 -8 -23 19 -48 18
-37 -1 4 -5 -3 -9 -13 -9 -11 0 -22 9 -25 20 -6 21 -29 23 -71 5 -13 -6 -23
-3 -31 8 -7 9 -14 15 -16 12 -3 -2 -53 -1 -111 3 -87 6 -105 5 -96 -6 17 -19
5 -23 -25 -7 -27 14 -27 13 -21 -13 4 -15 7 -37 8 -49 1 -15 7 -23 19 -23 9 0
17 -4 17 -8 0 -4 -15 -6 -33 -4 -22 2 -39 -2 -50 -13 -13 -12 -21 -14 -37 -5
-27 14 -25 24 3 16 21 -5 24 -2 25 29 1 31 -2 35 -23 35 -34 0 -40 17 -7 23
20 4 28 12 28 27 0 18 -5 21 -28 16 -17 -3 -33 0 -43 10 -8 9 -22 14 -29 11
-8 -3 -17 -3 -20 0 -3 4 -50 8 -103 10 -54 2 -121 7 -149 12 -36 5 -53 4 -62
-5 -16 -18 -15 -27 3 -20 8 3 15 1 15 -4 0 -6 -7 -10 -15 -10 -24 0 -95 31
-95 42 0 7 -16 9 -40 5 -22 -3 -40 -2 -40 3 0 10 -158 31 -270 35 -96 3 -139
13 -135 33 1 10 9 15 16 13 8 -3 28 -4 44 -3 27 0 28 0 8 -8 -13 -5 -23 -11
-23 -14 0 -2 30 -4 68 -4 37 0 58 2 47 5 -34 7 -48 13 -43 18 3 3 36 -1 75 -9
38 -8 79 -12 91 -9 13 3 22 1 22 -6 0 -6 15 -11 33 -11 18 0 58 -4 88 -9 30
-5 86 -12 124 -15 39 -3 86 -10 105 -16 53 -15 330 -13 331 3 0 6 4 3 9 -9 10
-24 68 -40 84 -24 8 8 6 9 -5 5 -8 -3 -26 -1 -40 4 -23 9 -23 10 9 10 17 1 32
6 32 12 0 7 -10 9 -27 5 -21 -5 -24 -4 -13 4 12 8 10 10 -12 10 -15 0 -30 5
-33 10 -8 13 28 13 57 -1 16 -7 31 -7 48 1 24 10 24 10 -5 6 -29 -4 -77 14
-102 39 -13 13 -53 9 -53 -5 0 -18 -88 -15 -150 3 -36 11 -92 25 -124 31 -81
15 -87 35 -6 22 84 -14 97 13 15 31 l-30 7 33 7 c19 4 64 3 100 -2 37 -4 78
-8 92 -8 23 0 23 1 5 8 -11 5 -23 7 -27 4 -7 -4 -70 11 -108 25 -8 3 -18 6
-22 6 -3 1 -10 4 -14 8 -12 12 -24 9 -19 -4 4 -9 -7 -14 -30 -15 -28 -1 -35 2
-35 16 0 14 -6 17 -25 13 -33 -6 -43 -22 -14 -22 28 0 15 -14 -27 -28 -19 -6
-37 -6 -47 0 -27 14 -169 34 -312 42 -39 2 -71 9 -73 15 -2 6 -13 11 -25 12
-21 0 -21 1 2 10 13 5 28 6 35 1 15 -12 116 -31 190 -36 50 -4 56 -3 40 8 -27
18 -104 37 -134 34 -20 -2 -25 1 -24 18 0 21 -10 25 -31 13 -5 -3 -35 -7 -65
-8 -30 -1 -64 -4 -75 -7 l-20 -6 20 17 c19 15 17 16 -40 11 -63 -5 -88 1 -92
22 -4 15 39 16 53 2 7 -7 19 -7 35 -1 24 9 24 10 -9 16 -53 12 -36 25 33 25
65 0 75 6 53 28 -9 9 -8 12 6 12 9 0 14 5 11 10 -7 11 18 13 53 4 30 -9 28
-27 -3 -22 -14 3 -28 1 -31 -3 -6 -10 30 -12 64 -3 l22 6 -25 24 c-14 13 -21
24 -15 24 6 0 18 -6 26 -14 11 -11 22 -12 49 -5 36 10 60 5 50 -12 -4 -5 6 -9
20 -9 15 0 24 -4 20 -10 -9 -14 -78 -13 -93 2 -9 9 -12 8 -12 -5 0 -13 -9 -17
-34 -17 -19 0 -38 -5 -41 -11 -5 -7 29 -9 111 -6 66 3 106 2 89 -3 -16 -4 -87
-8 -157 -9 -70 0 -129 -5 -132 -9 -3 -5 8 -16 25 -26 16 -9 29 -13 29 -7 0 5
-8 11 -17 14 -10 2 14 3 52 2 39 -1 78 -6 88 -10 10 -4 17 -3 17 4 0 6 -5 11
-12 11 -6 0 -8 3 -5 6 4 4 13 2 21 -5 22 -19 253 -20 241 -1 -3 5 -23 10 -43
10 -26 0 -41 6 -50 20 -7 11 -11 20 -9 20 2 0 28 -5 58 -10 71 -13 397 -30
435 -22 l29 6 -30 6 c-25 6 -27 8 -12 15 10 4 28 3 40 -3 26 -13 107 -21 101
-10 -3 5 -14 8 -25 8 -11 0 -18 4 -14 9 3 5 1 12 -5 16 -6 4 -8 10 -5 15 8 12
-58 21 -104 14 -35 -6 -38 -8 -26 -21 20 -20 19 -47 -1 -39 -9 3 -20 6 -26 6
-6 0 -6 6 2 15 11 13 7 15 -24 15 -20 0 -36 5 -36 11 0 12 -42 1 -51 -14 -4
-5 -12 -7 -18 -3 -7 5 -9 1 -5 -8 9 -24 -28 -20 -54 5 -18 16 -35 20 -85 19
-102 -2 -106 -1 -77 15 14 7 27 9 28 4 2 -5 25 -9 50 -8 26 0 40 3 32 6 -21 7
-62 24 -83 35 -10 5 -32 6 -48 3 -17 -4 -36 -2 -43 4 -10 9 -15 8 -19 -2 -3
-9 -16 -12 -37 -9 -25 3 -31 1 -25 -8 8 -13 9 -13 -90 20 l-60 20 49 -5 48 -5
-23 20 -24 19 25 1 c16 1 19 4 10 7 -16 6 -30 23 -30 37 0 4 7 6 15 2 20 -7
19 13 -2 36 -11 12 -12 18 -4 18 13 0 41 24 41 34 0 3 -10 6 -22 6 -16 0 -19
3 -10 8 17 11 24 52 9 52 -17 -1 -107 -68 -107 -80 0 -6 4 -10 9 -10 5 0 9
-11 9 -25 0 -26 -13 -34 -21 -12 -4 8 -6 9 -6 0 -1 -6 5 -18 13 -26 9 -8 12
-24 9 -36 -4 -16 -13 -21 -40 -21 -37 0 -73 -15 -86 -36 -4 -8 -24 -14 -45
-14 -28 0 -33 3 -22 10 12 8 11 10 -7 10 -33 0 -36 15 -5 31 27 13 26 13 -28
19 -30 3 -53 9 -50 14 7 12 -34 26 -50 16 -9 -6 -7 -10 9 -15 11 -3 21 -13 21
-21 0 -9 11 -14 30 -14 17 0 30 -5 30 -11 0 -7 -11 -8 -30 -4 -29 6 -36 0 -31
-28 0 -4 -6 -7 -14 -7 -17 0 -20 16 -5 25 16 10 12 25 -5 19 -10 -4 -15 -20
-15 -48 0 -36 4 -45 26 -55 21 -9 24 -14 14 -25 -9 -11 -7 -15 7 -19 13 -3 9
-7 -14 -12 l-33 -7 0 -564 0 -563 23 -4 22 -4 -23 -2 -23 -1 1 -180 c1 -161 3
-180 18 -181 9 -1 42 -1 72 0 30 1 69 -3 85 -8 23 -7 5 -9 -73 -8 l-102 2 0
-288 0 -287 850 0 c605 0 857 4 875 12 17 8 28 8 37 0 20 -15 171 -15 162 0
-6 10 -4 11 7 1 16 -15 33 -17 24 -3 -3 5 1 10 10 10 9 0 13 -4 10 -10 -4 -6
12 -10 42 -9 39 0 44 2 23 9 -14 4 -38 11 -54 15 -23 5 -27 8 -15 16 12 7 12
9 0 9 -8 0 -11 3 -8 7 4 3 17 2 30 -4 59 -28 75 -31 86 -20 8 8 11 7 11 -5 0
-9 10 -18 23 -22 31 -8 112 -7 103 1 -4 4 10 13 31 20 l38 12 -40 -5 c-30 -3
-36 -2 -25 6 18 12 191 9 183 -3 -3 -5 -29 -7 -59 -4 -30 3 -54 1 -54 -4 0 -5
13 -9 29 -9 17 0 33 -4 36 -10 8 -12 755 -12 755 0 0 5 -13 7 -29 4 -16 -4
-32 -1 -35 5 -4 6 -3 11 2 11 6 0 9 7 8 16 0 9 8 21 19 28 10 6 25 17 33 24 7
6 17 12 22 12 5 0 16 7 25 16 9 9 19 13 23 9 4 -4 1 -10 -5 -12 -7 -3 -13 -11
-13 -19 0 -8 -5 -14 -11 -14 -5 0 -7 -4 -4 -10 3 -5 17 -10 29 -10 13 0 35 -9
50 -21 24 -19 106 -39 106 -26 0 3 -7 13 -16 21 -14 15 -14 16 5 16 21 0 21 0
-1 22 -13 13 -27 22 -33 20 -5 -2 -5 2 2 9 9 9 17 7 38 -9 35 -28 82 -37 101
-21 14 11 16 10 14 -6 -4 -37 0 -41 43 -37 40 4 41 3 22 -12 -29 -22 -76 -21
-82 3 -5 21 -46 33 -75 22 -16 -6 -14 -9 14 -25 26 -16 56 -20 175 -22 107 -3
142 0 140 9 -1 6 13 18 31 26 17 8 32 21 32 28 0 7 5 13 10 13 6 0 10 7 10 15
0 8 13 29 29 47 24 27 32 31 42 21 11 -11 10 -13 -1 -13 -11 0 -11 -3 -2 -12
9 -9 16 -8 29 3 12 10 36 15 73 13 30 -1 62 2 70 8 13 8 12 9 -2 4 -22 -6 -30
4 -17 21 9 10 5 13 -20 13 -17 0 -31 -4 -31 -10 0 -5 -7 -10 -16 -10 -14 0
-14 2 0 15 8 8 24 15 36 15 16 0 20 4 16 16 -3 9 -6 18 -6 20 0 2 -16 4 -35 4
-19 0 -35 5 -35 10 0 6 -5 10 -11 10 -5 0 -7 -5 -4 -10 3 -6 1 -10 -4 -10 -6
0 -10 -3 -10 -7 4 -25 -4 -41 -22 -46 -11 -3 -19 -2 -17 1 2 4 12 26 22 50 14
32 23 42 35 37 23 -9 23 -9 53 -1 16 5 26 12 23 16 -3 5 0 12 6 16 8 4 9 3 5
-4 -4 -8 0 -12 11 -12 15 0 14 -4 -7 -20 -27 -20 -28 -18 26 -35 8 -3 12 -10
8 -16 -3 -6 0 -15 7 -20 10 -6 11 -9 2 -9 -7 0 -13 -4 -13 -9 0 -5 10 -7 23
-3 19 5 20 3 9 -10 -11 -14 -10 -17 10 -21 20 -4 19 -4 -5 -6 -16 0 -26 -5
-22 -10 3 -5 1 -12 -5 -16 -5 -3 -10 0 -10 7 0 9 -3 9 -10 -2 -7 -12 -13 -13
-28 -3 -11 6 -24 8 -33 3 -7 -5 -18 -5 -24 0 -7 6 -23 6 -41 0 -16 -5 -41 -12
-56 -15 -19 -4 -26 -10 -22 -20 4 -8 1 -15 -5 -15 -10 0 -41 -50 -41 -66 0 -3
7 -4 15 0 8 3 15 1 15 -4 0 -13 251 -12 270 0 12 8 11 10 -5 11 -14 1 -11 3 9
8 20 4 35 18 50 48 20 37 24 39 34 23 6 -10 28 -22 49 -27 25 -6 42 -17 50
-33 7 -14 13 -20 13 -15 0 6 5 2 10 -7 9 -15 73 -17 815 -18 443 0 805 2 805
4 0 5 -18 62 -41 134 -12 37 -6 48 31 57 24 5 27 1 61 -92 l35 -98 316 -3 316
-2 -4 22 c-2 13 -1 16 2 8 12 -26 26 -29 124 -29 63 0 90 3 80 9 -9 6 -10 10
-3 10 6 0 15 -4 18 -10 4 -6 138 -10 365 -10 313 0 358 2 354 15 -4 8 -10 15
-15 15 -5 0 -1 8 9 18 9 10 23 17 30 14 9 -3 8 -7 -4 -16 -15 -11 -15 -14 1
-29 22 -22 140 -24 148 -3 8 20 -22 44 -33 27 -5 -9 -10 -10 -14 -2 -4 6 -2
11 4 11 6 0 10 7 8 16 -2 10 4 19 12 21 13 4 13 3 0 -6 -13 -9 -11 -11 6 -11
22 0 41 -40 29 -60 -3 -5 40 -9 97 -9 91 -1 99 1 82 14 -19 14 -19 14 2 15 11
0 29 -7 40 -15 15 -11 53 -14 167 -15 145 0 148 0 171 25 26 28 41 33 32 10
-3 -9 0 -15 10 -15 8 0 12 -4 9 -10 -3 -5 0 -10 8 -10 10 0 14 7 10 22 -3 16
-2 19 5 10 5 -8 18 -11 34 -7 19 5 29 2 36 -11 9 -17 33 -17 76 1 11 5 17 5
14 -1 -9 -14 64 -10 91 5 13 7 37 17 54 22 43 12 21 -7 -28 -25 l-40 -15 48 0
c31 -1 47 3 47 12 0 9 2 9 9 -1 8 -14 106 -13 128 1 6 4 23 3 38 -3 38 -15
235 -11 235 3 0 8 3 7 9 -1 5 -9 23 -12 52 -10 36 3 44 7 49 27 6 25 30 42 30
22 0 -6 -4 -11 -9 -11 -5 0 -7 -9 -4 -20 5 -19 14 -20 124 -20 101 0 118 2
113 15 -5 11 1 15 26 15 19 0 29 -4 25 -11 -4 -6 -14 -8 -22 -5 -8 3 -11 1 -8
-4 4 -7 61 -10 146 -9 109 1 139 4 139 15 0 8 6 11 15 8 8 -4 12 -10 9 -16 -4
-5 26 -8 75 -7 76 2 104 12 64 22 -14 4 -13 5 3 6 12 0 25 -6 28 -15 5 -13 23
-15 108 -13 57 2 111 7 121 11 10 5 17 5 17 -2 0 -5 12 -10 26 -10 14 0 23 4
20 9 -3 5 5 8 19 7 14 0 25 -4 25 -8 0 -4 160 -8 355 -8 230 0 355 3 355 10 0
5 -5 10 -12 10 -6 0 -9 3 -5 6 8 9 48 -6 42 -16 -3 -5 177 -9 400 -10 l405 -1
0 90 c0 62 -4 91 -12 94 -10 4 -10 6 0 6 18 1 18 727 0 734 -10 4 -10 6 0 6 9
1 12 579 12 2856 l0 2855 -5910 0 -5910 0 0 -1834z m328 -2846 c9 -5 46 -14
82 -20 36 -6 74 -12 85 -14 11 -3 61 -5 110 -5 75 -1 87 -4 73 -14 -12 -10
-14 -17 -6 -31 5 -9 7 -20 4 -23 -11 -11 -126 -4 -126 7 0 4 -24 5 -54 2 -32
-2 -62 1 -76 8 -23 12 -23 13 -5 26 20 15 25 13 -72 41 -35 9 -63 21 -63 25 0
11 27 10 48 -2z m6362 -504 c41 -14 69 -25 63 -25 -7 -1 -13 -5 -13 -9 0 -5
14 -7 30 -4 19 3 30 0 30 -8 0 -8 -8 -10 -23 -7 -12 4 -28 2 -36 -2 -9 -6 -2
-10 23 -13 20 -2 36 0 36 4 0 14 14 8 45 -18 l30 -26 -45 7 c-25 4 -53 12 -64
17 -24 13 -49 -8 -26 -22 8 -5 19 -6 25 -4 5 3 2 -1 -7 -9 -24 -19 -22 -26 5
-19 19 5 20 3 9 -11 -8 -9 -19 -14 -27 -11 -14 6 -32 -32 -21 -43 3 -4 6 1 6
10 0 9 4 17 10 17 5 0 7 -7 4 -15 -4 -10 0 -15 11 -15 9 0 13 5 10 10 -10 16
0 12 25 -10 25 -22 40 -26 40 -10 0 6 -4 10 -10 10 -5 0 -10 6 -10 14 0 8 -6
16 -12 19 -7 2 -10 7 -7 11 4 4 14 0 23 -9 9 -9 21 -13 27 -9 8 4 9 3 5 -4 -5
-8 3 -10 26 -7 l33 5 -33 -12 c-18 -6 -31 -15 -30 -20 6 -17 104 -44 157 -43
37 0 50 -3 46 -12 -7 -21 43 -15 65 7 11 11 30 20 41 20 18 0 19 3 10 14 -7 8
-26 14 -42 14 -17 -1 -35 4 -41 10 -7 7 -18 12 -25 12 -17 0 -17 -30 0 -31 6
-1 -1 -4 -18 -8 -35 -8 -52 -5 -59 14 -4 10 2 11 25 5 18 -5 27 -5 24 1 -4 5
-13 9 -21 9 -8 0 -14 7 -14 15 0 8 -5 15 -10 15 -14 0 -57 40 -44 41 5 0 -4 7
-21 14 -24 11 -26 14 -10 15 l20 1 -20 16 c-18 14 -18 15 -2 9 10 -3 28 -6 39
-6 17 0 18 -3 8 -14 -9 -12 -8 -15 7 -16 10 0 63 -2 118 -4 55 -2 138 -9 184
-15 100 -12 130 -3 41 12 -14 3 11 3 55 0 44 -3 85 -10 92 -15 7 -5 38 -14 70
-19 32 -5 74 -11 93 -14 19 -3 42 -8 51 -10 8 -3 24 1 34 9 17 12 21 12 31 -3
9 -12 28 -16 73 -16 34 0 61 -3 61 -7 0 -3 3 -14 7 -24 4 -12 3 -15 -5 -10 -7
4 -10 2 -7 -6 3 -8 20 -18 37 -24 20 -6 32 -16 34 -30 3 -18 -1 -20 -23 -16
-18 3 -24 1 -19 -7 4 -6 1 -11 -8 -11 -9 0 -16 7 -16 15 0 8 -10 16 -22 17
-13 1 2 4 32 7 l55 6 -42 11 c-23 6 -40 8 -38 4 5 -9 -56 -23 -63 -15 -3 3 2
5 11 5 22 0 33 20 16 31 -20 12 -59 11 -59 -2 0 -6 9 -9 20 -6 24 6 27 -8 4
-17 -29 -11 -42 -7 -37 13 4 16 -3 20 -38 26 -24 4 -49 14 -55 22 -9 13 -12
13 -27 -1 -9 -10 -18 -12 -22 -6 -3 5 -14 10 -23 10 -15 0 -15 -1 1 -17 9 -9
33 -17 54 -18 21 0 43 -4 50 -8 6 -4 18 -5 25 -2 9 4 15 0 15 -9 0 -8 -4 -13
-9 -10 -5 3 -15 0 -23 -6 -15 -13 -39 -4 -30 11 4 5 -2 9 -12 10 -116 6 -149
11 -151 19 -2 6 -21 10 -41 10 -38 0 -92 33 -71 43 6 3 5 4 -2 3 -7 -2 -12
-11 -12 -20 2 -13 -3 -15 -20 -10 -32 10 -45 10 -45 -1 0 -5 7 -9 15 -7 8 2
14 -2 14 -8 0 -7 -20 -8 -57 -4 -70 8 -80 14 -27 15 l39 1 -30 10 c-16 6 -35
15 -41 19 -14 11 -76 0 -68 -12 3 -5 16 -9 30 -9 14 0 24 -6 24 -14 0 -7 14
-16 32 -20 17 -3 29 -9 26 -12 -4 -3 -22 -1 -41 4 -28 8 -37 7 -41 -4 -3 -8
-15 -14 -26 -14 -29 0 -25 -17 6 -23 19 -3 28 0 31 12 4 15 12 16 76 8 40 -5
74 -13 77 -17 3 -4 16 -11 30 -15 22 -7 23 -6 8 8 -8 9 -27 19 -42 23 -14 3
-24 10 -21 14 7 11 119 0 123 -12 2 -4 10 -8 19 -8 8 0 21 -7 30 -15 8 -9 18
-13 21 -10 4 3 0 10 -8 15 -9 6 -10 10 -3 10 6 0 14 -4 17 -9 3 -5 35 -9 71
-10 83 -2 94 -3 93 -10 -2 -22 9 -26 68 -29 37 -1 74 -6 83 -10 9 -5 33 -8 53
-8 21 1 38 -2 38 -6 0 -5 11 -8 24 -8 39 0 86 -12 86 -22 0 -5 -15 -9 -32 -8
-48 3 -55 1 -38 -10 8 -5 29 -10 46 -10 61 0 93 -11 86 -29 -5 -14 -4 -14 11
-2 13 10 17 11 17 1 0 -9 12 -11 44 -7 32 5 47 2 56 -8 7 -8 17 -15 22 -15 6
0 5 7 -2 15 -7 9 -11 18 -8 21 3 2 12 -6 21 -19 13 -19 22 -23 56 -20 24 2 41
-1 41 -8 0 -6 8 -8 19 -4 11 3 22 2 25 -3 3 -5 17 -7 31 -4 20 3 24 1 19 -12
-7 -19 -13 -20 -50 -6 -15 6 -51 11 -81 12 -30 1 -56 5 -59 10 -3 4 -27 8 -53
8 -27 0 -66 6 -87 13 -22 8 -63 13 -91 12 -29 -1 -53 2 -53 7 0 5 -14 7 -32 6
-17 -1 -33 3 -35 9 -4 12 -43 5 -43 -8 0 -5 -8 -9 -17 -9 -17 1 -17 1 0 14 9
7 17 19 17 27 0 10 -3 10 -12 1 -14 -14 -42 -16 -34 -3 3 5 -18 11 -47 13 -52
4 -72 2 -46 -6 81 -23 99 -31 99 -43 0 -10 -6 -12 -22 -7 -13 4 -32 8 -43 9
-31 2 -65 15 -65 25 0 4 -9 6 -20 3 -11 -3 -33 0 -50 5 -16 6 -30 9 -30 6 0
-14 36 -39 57 -40 13 0 29 -8 36 -18 8 -10 31 -19 57 -22 33 -3 40 -2 25 5
-11 5 -33 12 -49 16 -45 10 -26 14 24 5 68 -12 141 -23 176 -25 37 -2 54 -12
54 -30 0 -15 85 -16 107 -2 7 5 20 4 29 -1 9 -5 25 -7 35 -5 11 3 29 -1 41 -9
13 -7 34 -13 48 -11 41 4 249 -30 243 -40 -3 -5 3 -7 13 -3 11 3 33 2 49 -3
27 -9 19 -16 -13 -12 -10 2 -12 -5 -7 -21 5 -19 4 -20 -5 -6 -6 10 -17 15 -27
11 -10 -4 -14 -2 -10 4 9 15 -48 26 -115 23 -32 -1 -79 13 -67 20 7 5 -7 8
-32 8 -27 -1 -56 6 -72 17 -21 13 -27 14 -28 4 0 -10 -2 -11 -6 -1 -2 6 -9 12
-15 12 -6 0 -8 -6 -5 -13 3 -9 -6 -14 -27 -15 -21 -1 -27 1 -17 7 9 6 3 10
-22 13 -25 3 -40 -1 -50 -13 -13 -14 -10 -17 22 -30 20 -7 42 -12 50 -10 11 2
10 -1 -2 -13 -18 -19 -44 -21 -49 -5 -3 9 -10 9 -27 -1 -14 -7 -26 -8 -30 -3
-9 14 -41 24 -41 13 0 -6 7 -10 15 -10 8 0 15 -4 15 -10 0 -5 -9 -10 -20 -10
-11 0 -20 4 -20 9 0 5 -13 14 -30 20 -40 13 -38 22 3 16 29 -4 29 -4 -8 9 -22
8 -52 15 -67 15 -15 1 -30 6 -33 11 -11 18 -35 11 -45 -12 l-9 -23 -6 22 c-4
12 -13 19 -20 17 -7 -3 -16 -1 -20 5 -3 6 -29 11 -56 11 -35 0 -48 3 -43 12 5
8 -2 9 -27 4 -31 -6 -32 -5 -14 8 26 20 0 21 -35 1 -29 -16 -22 -20 53 -30 26
-3 45 -10 42 -15 -7 -11 20 -20 65 -20 21 0 42 -5 46 -11 6 -10 23 -9 102 7
33 6 34 6 17 -13 -14 -17 -27 -19 -98 -17 -80 3 -80 3 -27 -6 69 -12 97 -14
136 -7 21 4 38 0 50 -9 18 -15 18 -15 -1 -9 -15 4 -17 3 -9 -5 8 -8 31 -9 78
-2 64 8 99 0 56 -13 -24 -8 -25 -18 -5 -35 13 -11 18 -10 28 2 19 23 42 28 70
13 14 -7 40 -16 58 -20 19 -4 27 -10 20 -14 -12 -8 -86 8 -109 23 -26 16 -25
-5 1 -30 41 -38 35 -48 -25 -40 -61 8 -75 15 -57 27 11 7 9 9 -6 7 -35 -2 -55
2 -55 12 0 6 10 8 24 4 37 -9 41 14 4 25 -25 7 -28 9 -10 10 28 1 30 21 2 21
-11 0 -23 -7 -26 -15 -4 -9 -11 -15 -18 -14 -35 4 -76 -2 -71 -11 8 -12 -27
-13 -40 -1 -6 5 -27 14 -49 21 -23 7 -34 15 -27 20 7 4 -11 14 -43 24 -30 10
-61 14 -67 10 -7 -4 -9 -3 -6 3 9 14 -16 23 -63 23 -21 0 -40 5 -42 11 -2 7
-18 12 -36 13 -18 0 -32 4 -32 9 0 4 -8 7 -17 7 -16 -1 -16 -2 1 -15 11 -8 28
-13 37 -10 19 6 31 -15 19 -35 -6 -9 -12 -10 -26 -1 -11 6 -14 11 -9 11 17 1
-19 20 -38 20 -11 0 -16 -5 -12 -12 4 -7 1 -6 -7 2 -19 22 -203 78 -274 83
-14 1 -20 7 -16 16 4 10 -2 13 -27 9 -17 -3 -34 -1 -37 3 -2 5 -12 5 -21 2
-12 -5 -14 -3 -8 7 6 10 4 12 -11 6 -10 -4 -15 -4 -12 0 9 9 -30 39 -62 49
-14 4 -39 16 -56 26 -35 21 -44 23 -44 10 0 -5 9 -13 20 -16 11 -3 20 -12 20
-20 0 -7 8 -16 17 -19 15 -6 15 -8 3 -16 -12 -8 -11 -10 5 -10 11 0 27 -5 35
-10 11 -8 8 -10 -15 -8 -17 1 -36 -1 -42 -5 -6 -4 -13 0 -16 7 -3 8 -1 17 6
20 7 2 1 5 -13 5 -25 1 -66 21 -43 21 7 0 2 11 -10 24 -36 39 -47 55 -47 65 0
5 -3 11 -7 13 -5 2 -16 20 -25 40 -13 27 -14 38 -5 42 7 2 5 5 -5 5 -9 1 -19
10 -23 20 -3 11 -17 26 -30 35 -30 20 -33 36 -5 29 11 -3 20 -11 20 -17 0 -6
9 -12 19 -12 15 0 17 4 10 13 -8 9 -5 18 10 34 25 27 26 35 6 43 -8 3 -15 12
-15 20 0 9 -16 20 -41 26 -51 14 -47 22 4 10 21 -4 39 -4 43 1 3 5 -5 9 -18 9
-16 0 -19 3 -10 9 11 7 11 9 -2 14 -9 4 -16 2 -16 -3 0 -6 -8 -10 -17 -10 -15
0 -16 2 -3 10 15 9 13 11 -12 14 -10 1 -26 26 -16 26 2 0 37 -11 78 -24z
m-6169 -186 c24 -30 64 -39 103 -24 14 5 14 8 1 21 -9 8 -12 19 -9 25 5 7 12
4 21 -7 7 -11 13 -13 13 -6 0 7 5 9 10 6 6 -4 8 -10 5 -15 -3 -4 2 -13 10 -20
8 -7 15 -19 15 -27 0 -8 5 -11 10 -8 6 4 18 1 26 -6 13 -10 17 -10 26 2 7 11
11 11 15 1 3 -9 16 -11 39 -6 24 4 34 2 34 -6 0 -7 -7 -10 -15 -7 -8 4 -17 2
-20 -3 -4 -6 -1 -10 4 -10 6 0 11 -3 11 -7 0 -5 -23 -9 -52 -10 -31 -1 -55 -7
-59 -15 -6 -10 -30 -13 -94 -12 -48 1 -91 6 -96 11 -9 9 144 8 160 -2 6 -3 11
-1 11 4 0 6 -9 11 -19 11 -11 0 -32 5 -48 12 -31 13 -39 15 -66 17 -27 2 -10
21 19 21 13 0 24 5 24 11 0 8 -13 9 -39 5 -29 -4 -44 -2 -56 10 -20 20 -33 11
-15 -11 10 -12 10 -15 -4 -15 -10 0 -15 -4 -12 -9 3 -5 15 -7 26 -4 11 3 20 0
20 -6 0 -6 -7 -11 -16 -11 -9 0 -14 -6 -12 -12 9 -25 -16 -33 -93 -31 -43 1
-81 -2 -84 -8 -4 -5 -13 -9 -22 -9 -12 0 -13 3 -4 14 7 8 44 15 97 19 48 3 89
9 92 12 11 11 -8 17 -48 17 -23 -1 -38 3 -35 9 4 5 19 9 35 9 23 0 28 4 27 20
-1 11 -7 20 -14 20 -7 0 -13 5 -13 10 0 6 13 10 28 10 35 0 45 9 31 27 -7 8
-8 13 -1 13 5 0 20 -13 33 -30z m8423 -266 c3 -9 4 -20 1 -24 -3 -5 -1 -11 5
-15 5 -3 10 1 10 9 0 9 5 16 11 16 16 0 73 -33 82 -47 4 -7 19 -13 33 -13 13
0 27 -7 30 -15 3 -8 15 -17 26 -21 11 -3 18 -7 16 -9 -2 -2 -24 3 -48 11 -31
11 -64 14 -107 10 -35 -3 -63 -3 -63 1 0 12 -58 42 -65 35 -3 -4 -20 -7 -36
-8 l-29 -2 24 19 c17 13 33 17 58 13 26 -5 37 -2 41 9 4 12 -1 14 -33 10 -21
-3 -46 0 -56 7 -12 7 -13 10 -3 7 8 -3 26 1 40 9 32 18 56 17 63 -2z m-4524
-55 c0 -6 -7 -9 -14 -6 -10 4 -13 1 -9 -9 5 -15 25 -14 65 1 7 3 19 -4 26 -15
10 -17 10 -20 -4 -20 -8 0 -12 5 -9 10 3 6 -4 10 -17 10 -20 -1 -21 -2 -5 -11
25 -15 21 -30 -7 -23 -15 3 -29 0 -39 -11 -9 -9 -22 -13 -27 -10 -6 4 -20 -5
-31 -19 -11 -14 -23 -25 -27 -25 -27 4 -44 -2 -35 -13 6 -9 0 -22 -19 -42 -20
-20 -28 -24 -28 -13 0 9 9 22 21 30 13 9 16 17 10 22 -6 3 -11 2 -11 -3 0 -5
-12 -10 -27 -11 -72 -3 -93 -7 -93 -15 0 -4 -9 -6 -20 -3 -11 3 -18 1 -14 -4
3 -5 -6 -9 -19 -9 -20 0 -24 4 -20 20 3 11 9 23 14 26 5 3 9 17 10 32 0 15 3
21 6 15 2 -7 11 -13 19 -13 11 0 12 -4 4 -19 -15 -29 -12 -33 10 -19 15 10 23
10 28 2 5 -8 15 -8 30 -3 13 5 20 14 17 20 -4 6 2 13 14 16 12 3 21 9 21 13 0
4 12 6 28 4 15 -2 19 -1 10 2 -32 10 -18 31 16 25 5 -1 16 5 26 14 10 9 21 15
26 14 23 -4 35 3 33 19 -1 9 -1 20 0 25 2 12 41 8 41 -4z m184 -41 c3 -13 6
-33 6 -45 0 -13 5 -23 11 -23 6 0 9 -6 6 -14 -3 -8 0 -20 8 -26 7 -6 12 -18
11 -28 -2 -9 6 -24 18 -33 18 -15 19 -19 6 -35 -8 -10 -10 -15 -5 -12 6 4 17
3 25 -3 22 -13 -36 -12 -61 2 -16 8 -18 13 -9 24 6 8 19 11 28 8 9 -3 -1 6
-23 20 -22 14 -43 23 -47 21 -5 -3 -8 -1 -8 4 0 8 -41 9 -110 3 -24 -2 -24 -2
-6 -16 11 -8 16 -15 10 -15 -5 0 -1 -5 9 -11 22 -13 38 -2 17 11 -11 7 -3 10
28 10 23 0 42 -4 42 -9 0 -4 -12 -7 -27 -4 -24 3 -25 2 -8 -6 11 -5 31 -12 45
-15 14 -3 30 -15 35 -27 6 -13 16 -25 24 -27 9 -3 11 0 6 8 -5 8 -4 11 3 6 11
-7 6 -36 -6 -34 -24 3 -41 -4 -38 -14 1 -7 1 -10 -1 -5 -7 10 -33 9 -33 -3 0
-5 -7 -7 -15 -4 -9 4 -18 -1 -21 -10 -9 -23 2 -31 21 -16 8 7 15 8 15 2 0 -5
-6 -15 -14 -21 -11 -10 -18 -7 -30 11 -14 20 -19 21 -36 10 -13 -8 -20 -9 -20
-1 0 6 -8 8 -19 4 -11 -3 -22 -1 -26 4 -3 6 6 13 21 17 l27 7 -23 12 c-14 7
-18 15 -12 19 6 3 13 2 17 -4 3 -5 15 -10 26 -10 10 0 19 -4 19 -10 0 -5 4
-10 9 -10 5 0 7 9 4 20 -5 17 0 20 28 20 19 0 41 5 49 10 11 8 -3 10 -46 7
-37 -2 -68 1 -78 8 -24 18 -19 26 10 15 56 -22 55 -8 -1 15 -61 25 -94 33 -62
14 21 -12 22 -29 2 -29 -8 0 -15 -4 -15 -10 0 -6 -10 -5 -25 2 -20 9 -28 8
-44 -6 -13 -12 -27 -16 -43 -11 -13 3 -6 -4 16 -17 42 -25 61 -52 29 -42 -14
4 -13 1 5 -12 12 -9 22 -22 23 -28 1 -17 88 -86 110 -86 10 0 19 -4 19 -9 0
-6 -16 -7 -35 -4 -19 3 -35 2 -35 -3 0 -5 -16 -10 -34 -11 -26 -1 -33 2 -29
13 3 8 14 14 24 14 25 0 24 16 -1 23 -11 3 -27 -1 -35 -10 -13 -13 -15 -13
-15 2 0 9 12 18 31 22 l31 6 -39 18 c-21 9 -37 20 -35 23 11 19 -6 26 -23 10
-10 -11 -22 -20 -27 -20 -4 -1 -12 -2 -18 -3 -5 0 -7 -7 -4 -15 4 -10 -3 -13
-25 -10 -31 4 -50 -9 -31 -21 17 -10 11 -28 -6 -21 -23 9 -54 -2 -54 -20 0
-10 -8 -13 -25 -10 -27 5 -115 -29 -115 -44 0 -16 -41 -22 -57 -8 -12 9 -15 9
-9 1 5 -9 -1 -13 -21 -14 -25 -1 -23 -3 20 -21 53 -23 61 -38 20 -38 -25 -1
-26 -2 -10 -14 22 -17 22 -22 -2 -29 -13 -3 -18 0 -15 8 4 9 -5 11 -31 9 -30
-2 -34 0 -25 11 9 11 7 12 -17 5 -15 -5 -48 -14 -73 -19 -45 -10 -45 -10 -5
-6 37 4 38 3 21 -10 -11 -8 -29 -15 -40 -16 -12 0 -15 -3 -8 -6 6 -2 9 -10 6
-15 -4 -7 -2 -8 4 -4 7 4 20 2 29 -4 14 -9 8 -10 -30 -7 -26 3 -50 0 -53 -5
-3 -5 2 -8 11 -6 10 2 20 -3 22 -9 6 -17 -39 -17 -55 -1 -6 6 -14 9 -18 6 -3
-4 7 -14 23 -23 l28 -16 -26 5 c-17 4 -31 0 -39 -9 -7 -8 -39 -24 -71 -36 -33
-12 -62 -26 -65 -30 -8 -13 -74 -11 -74 2 0 5 5 7 10 4 16 -10 70 5 70 20 0 7
18 15 45 19 24 4 47 11 50 16 3 5 -9 5 -27 -1 -42 -12 -43 -12 -28 5 6 8 17
13 24 10 7 -3 18 2 25 10 7 8 20 12 29 9 12 -3 14 -2 4 4 -7 5 -10 16 -7 24 6
16 51 39 77 39 10 0 18 5 18 11 0 8 -11 9 -31 5 -26 -5 -29 -4 -20 8 6 7 23
14 37 14 14 0 37 11 52 25 15 13 41 32 57 40 21 12 25 16 12 17 -10 0 -15 5
-12 10 10 16 -12 12 -29 -5 -8 -8 -19 -15 -25 -15 -5 0 -16 -9 -24 -20 -11
-15 -20 -18 -36 -12 l-21 7 23 23 c12 12 39 35 60 51 23 18 33 31 25 34 -7 2
-10 8 -6 11 3 4 22 0 42 -9 33 -16 38 -16 61 -1 31 21 51 21 31 0 -22 -21 -20
-25 8 -14 13 5 27 6 32 2 4 -4 3 0 -2 8 -13 22 -15 50 -4 50 6 0 10 -7 10 -17
0 -14 2 -14 21 3 16 14 23 16 26 6 11 -29 19 1 13 48 -6 46 -5 50 14 51 19 2
19 2 -2 6 -12 2 -20 8 -17 13 3 5 16 5 31 0 36 -14 42 -12 19 6 -19 15 -19 16
13 12 23 -3 36 0 39 9 3 7 11 13 19 13 8 0 14 4 14 10 0 5 11 17 25 26 24 16
27 16 40 -2 10 -14 10 -21 2 -26 -18 -12 2 -9 24 2 10 6 19 20 19 30 0 11 7
20 15 20 8 0 15 -5 15 -11 0 -5 5 -7 10 -4 6 3 10 15 10 26 0 10 6 19 13 19 7
0 20 9 30 20 9 11 26 20 37 20 11 0 20 6 20 14 0 8 11 17 25 20 14 4 25 13 25
22 0 9 -5 12 -12 8 -6 -4 -8 -3 -5 3 4 6 18 8 32 5 14 -2 25 0 25 6 0 6 10 14
21 17 17 6 19 9 8 16 -10 7 -5 8 12 3 15 -3 30 -1 33 5 12 19 33 12 40 -11z
m2163 -38 c-3 -13 0 -20 10 -20 8 0 11 5 7 11 -4 7 -1 10 7 7 8 -3 26 -1 42 3
15 4 27 4 27 -2 0 -5 9 -9 20 -9 28 0 25 -20 -2 -21 -13 0 -32 -5 -43 -10 -17
-8 -15 -8 8 -4 15 3 27 1 27 -5 0 -5 -9 -10 -19 -10 -11 0 -22 -4 -25 -9 -3
-4 12 -7 34 -6 22 1 37 -2 34 -7 -4 -5 -16 -7 -29 -4 -19 5 -22 2 -22 -20 0
-14 -11 -39 -23 -56 -13 -17 -18 -28 -12 -24 15 9 23 -7 12 -24 -8 -13 -12
-12 -25 5 -9 11 -14 15 -11 8 4 -6 2 -14 -3 -17 -5 -3 -11 14 -13 39 -2 26 1
44 7 44 31 -4 55 2 50 12 -4 6 -13 8 -20 5 -8 -3 -19 2 -25 10 -10 11 -9 14 6
14 18 1 18 1 1 11 -9 6 -15 14 -13 18 3 4 -1 8 -9 8 -9 0 -11 -5 -7 -11 7 -10
7 -19 3 -50 0 -5 -15 11 -33 35 -17 24 -38 50 -45 58 -8 7 -11 16 -7 20 4 3 9
0 11 -6 8 -21 54 -16 60 7 3 11 10 20 15 20 6 0 8 -9 5 -20z m1525 -54 c12 3
18 2 15 -3 -3 -5 2 -9 11 -9 133 0 174 -5 168 -19 -3 -9 0 -15 9 -15 8 0 15 4
15 9 0 5 8 7 18 5 25 -6 77 11 74 25 -1 8 2 9 10 5 7 -4 30 -7 53 -6 47 1 41
-1 -38 -18 -31 -6 -55 -16 -52 -21 4 -5 13 -9 21 -9 9 0 22 -7 30 -15 9 -8 21
-15 27 -14 8 0 8 2 -1 6 -16 6 -6 23 15 23 9 0 13 -6 9 -15 -3 -8 -1 -15 3
-15 5 0 11 4 13 9 5 13 48 24 48 12 0 -6 7 -11 15 -11 8 0 15 8 15 18 1 16 1
16 11 -1 10 -18 12 -18 30 -1 14 13 19 14 19 4 0 -11 3 -11 12 -2 17 17 45 15
52 -3 4 -13 2 -14 -14 -5 -11 6 -20 9 -20 6 0 -2 -2 -11 -5 -18 -5 -12 6 -14
50 -14 30 1 55 -2 55 -5 0 -3 12 -4 27 -1 22 4 25 2 20 -12 -6 -15 -3 -15 21
3 16 11 52 22 82 26 49 5 52 5 39 -11 -13 -16 -10 -17 41 -11 45 5 49 4 23 -4
-31 -9 -46 -29 -23 -29 6 0 10 -7 10 -15 0 -8 -4 -15 -10 -15 -5 0 -10 4 -10
9 0 16 -59 19 -65 3 -4 -11 -15 -12 -43 -7 l-37 6 27 -25 c15 -14 33 -26 39
-26 7 0 10 -2 7 -5 -10 -11 -58 7 -58 21 0 8 -6 14 -14 14 -8 0 -13 8 -12 17
0 12 -7 19 -21 21 -13 2 -23 8 -23 13 0 5 -12 9 -26 9 -14 0 -23 -4 -19 -9 8
-14 -15 -25 -55 -27 -35 -1 -35 -1 -8 9 34 13 43 33 17 40 -12 3 -23 -2 -29
-14 -13 -23 -26 -24 -48 -2 -16 15 -15 16 13 10 21 -5 25 -4 14 2 -24 15 -82
24 -74 11 3 -5 -2 -13 -12 -16 -10 -3 -26 -10 -35 -15 -11 -6 -18 -6 -18 0 0
5 6 12 13 14 6 3 -4 6 -23 7 -19 1 -53 3 -75 4 -57 3 -115 17 -115 27 0 5 -7
6 -15 3 -8 -3 -29 -1 -46 5 -29 10 -31 9 -26 -9 7 -27 -4 -26 -97 10 -43 17
-81 28 -84 26 -3 -3 6 -10 19 -16 20 -8 17 -9 -16 -4 -22 4 -44 11 -50 17 -7
7 -5 8 6 4 12 -4 16 1 15 16 -2 26 22 38 47 25 10 -5 27 -6 39 -2z m804 -11
c4 -8 10 -15 16 -15 5 0 6 5 3 10 -3 6 3 10 15 10 12 0 18 -4 15 -10 -3 -6 4
-10 17 -10 19 0 20 2 8 11 -11 8 -9 9 10 3 14 -4 37 -7 53 -6 16 0 25 -3 21
-10 -4 -6 1 -6 14 1 28 15 32 14 25 -6 -5 -12 -3 -14 8 -7 21 14 58 12 52 -3
-3 -9 5 -10 31 -6 39 6 52 -13 14 -20 -13 -2 -4 -5 20 -6 23 0 42 -5 42 -11 0
-6 8 -2 18 8 11 9 17 20 15 25 -6 10 29 9 46 -2 8 -5 10 -14 6 -21 -6 -10 -1
-11 19 -6 38 9 32 -8 -7 -22 -45 -16 -82 -15 -100 2 -9 9 -29 13 -53 11 -21
-1 -49 1 -61 6 -12 4 -23 4 -25 0 -2 -5 -12 -5 -23 0 -19 7 -19 8 2 8 12 1 25
6 29 13 5 8 0 9 -17 5 -13 -4 -32 -7 -42 -7 -10 0 -15 -4 -12 -10 4 -6 -11
-10 -38 -10 -31 0 -47 5 -51 15 -4 11 -13 14 -32 9 -21 -5 -25 -4 -19 6 6 10
4 12 -8 7 -10 -3 -17 -3 -17 2 0 4 -14 8 -31 9 -37 1 -43 6 -36 27 8 20 66 20
73 0z m-1236 -76 c12 -8 9 -9 -10 -4 -24 6 -24 5 -6 -9 11 -9 29 -16 41 -16
12 0 25 -4 31 -9 5 -6 25 -12 44 -14 19 -2 43 -8 52 -12 10 -4 32 -2 49 4 42
15 49 14 43 -4 -4 -8 -12 -15 -20 -15 -39 0 9 -39 51 -41 l30 -1 -37 -12 c-43
-13 -59 -26 -32 -26 31 0 98 27 83 33 -8 2 3 4 24 2 20 -1 37 1 37 5 0 18 -33
32 -66 28 -32 -4 -34 -3 -18 9 10 7 14 13 9 13 -4 0 -6 2 -3 5 3 3 21 -2 41
-10 20 -8 40 -16 44 -18 13 -4 13 -31 0 -39 -7 -4 -22 -8 -34 -8 -14 0 -23 -6
-23 -15 0 -8 7 -15 16 -15 8 0 12 4 9 10 -4 6 5 9 20 8 15 -2 24 -7 21 -15 -3
-6 0 -14 7 -16 10 -4 -27 -3 -96 2 -10 0 -16 5 -13 10 3 4 -6 6 -19 3 -18 -3
-24 -10 -22 -25 2 -18 -3 -21 -30 -21 -18 0 -33 -3 -33 -6 0 -4 -27 0 -61 9
-47 13 -55 17 -37 22 13 3 33 -1 46 -9 20 -13 29 -13 65 -2 27 9 36 15 25 18
-10 2 -18 8 -18 13 0 5 -7 9 -16 9 -8 0 -12 5 -9 10 4 6 14 9 22 8 9 -2 18 3
20 10 3 7 -5 12 -20 12 -13 0 -38 7 -56 16 -29 14 -58 20 -132 28 -35 4 -51
15 -45 33 3 8 1 11 -4 8 -6 -3 -10 -1 -10 4 0 6 -8 11 -18 11 -10 0 -24 6 -31
13 -10 10 -11 9 -6 -5 8 -19 -4 -24 -20 -9 -20 17 -62 21 -81 6 -10 -8 -23
-14 -29 -15 -5 0 4 9 20 20 24 16 47 20 110 20 44 0 87 -5 95 -11z m1584 -44
c3 -8 15 -15 26 -15 11 0 20 -7 20 -15 0 -8 5 -15 11 -15 6 0 9 7 5 15 -4 12
4 15 37 16 35 1 38 2 17 8 -19 6 -9 9 40 12 36 3 69 1 75 -3 5 -4 -6 -8 -25
-8 -26 0 -31 -3 -22 -12 9 -9 18 -9 37 0 13 6 33 9 42 6 15 -5 16 -4 3 5 -12
9 -4 11 32 9 27 -2 48 -6 48 -10 0 -5 18 -8 40 -8 22 0 40 -4 40 -9 0 -5 10
-7 22 -3 16 4 20 2 15 -10 -7 -20 11 -38 40 -38 12 0 38 -9 56 -19 19 -10 43
-21 53 -24 12 -3 6 -5 -14 -6 -24 -1 -35 -7 -41 -23 -7 -19 -8 -19 -14 -4 -5
13 -13 16 -25 11 -27 -12 -102 -15 -102 -4 0 5 -9 9 -20 9 -12 0 -20 -7 -20
-16 0 -9 -6 -14 -12 -11 -7 2 -12 13 -11 23 1 10 0 13 -3 7 -3 -7 -10 -13 -15
-13 -6 0 -7 5 -4 10 4 6 -4 6 -19 -1 -27 -13 -61 -5 -51 11 3 5 -1 10 -9 10
-19 0 -21 17 -3 23 6 2 -6 3 -28 2 -50 -1 -76 10 -68 31 4 11 13 14 32 9 23
-6 24 -5 11 9 -17 17 -64 11 -53 -7 4 -6 -2 -8 -15 -5 -13 4 -23 0 -26 -8 -4
-11 -15 -9 -52 12 -25 14 -49 23 -52 19 -4 -3 0 -10 8 -15 8 -5 11 -13 6 -17
-4 -4 -13 0 -20 10 -15 19 -31 24 -20 5 5 -7 3 -8 -6 -3 -7 4 -15 3 -19 -3 -4
-7 -16 -5 -36 4 l-30 14 30 -5 c23 -4 26 -3 15 5 -13 9 -13 11 0 20 19 12 27
12 35 0 3 -5 14 -10 23 -10 14 1 13 4 -7 20 -22 19 -22 20 -3 20 11 0 22 -7
26 -15z m-2456 -7 c-2 -6 6 -13 17 -15 15 -3 17 -2 6 5 -8 6 -9 12 -3 16 6 3
13 2 17 -4 4 -6 12 -7 18 -3 7 4 6 0 -2 -10 -7 -9 -22 -17 -32 -17 -10 0 -21
-4 -24 -10 -3 -6 5 -10 19 -10 14 0 29 7 34 17 5 9 18 17 28 18 11 1 27 6 37
10 21 9 47 0 47 -16 0 -6 -7 -9 -15 -6 -8 4 -17 2 -20 -3 -4 -6 -1 -10 4 -10
17 0 13 -17 -6 -24 -17 -7 -36 12 -27 26 7 11 -8 10 -26 -2 -13 -8 -12 -10 3
-10 9 0 17 -5 17 -11 0 -6 -21 -8 -60 -5 -60 5 -80 -5 -37 -19 21 -7 21 -8 -6
-12 -16 -3 -36 -1 -45 3 -10 4 -24 6 -32 5 -9 -2 -6 5 9 18 19 17 21 21 7 21
-9 0 -19 -7 -22 -15 -9 -21 -27 -19 -52 8 -15 15 -18 27 -12 37 8 13 13 13 37
-2 23 -13 30 -14 40 -3 6 7 9 16 5 20 -4 4 8 5 26 2 18 -4 32 -2 32 3 0 6 5
10 10 10 6 0 9 -5 8 -12z m1342 -36 c0 -4 16 -6 35 -4 24 3 55 -4 94 -22 32
-14 65 -26 72 -25 8 0 2 5 -14 11 -15 5 -25 14 -22 18 3 5 18 2 33 -6 38 -19
59 -19 42 1 -11 13 -10 14 4 9 9 -3 16 -12 16 -20 0 -18 15 -18 33 1 8 8 17
11 21 8 3 -3 36 -7 74 -9 37 -2 83 -10 102 -19 19 -9 25 -14 13 -11 -13 2 -23
0 -23 -5 0 -5 12 -9 28 -9 30 0 60 -15 50 -25 -3 -4 -15 -2 -26 4 -25 13 -62
14 -62 2 0 -9 48 -21 88 -21 14 0 23 -3 20 -6 -10 -9 -82 -13 -93 -5 -5 5 -26
13 -45 20 -29 10 -35 9 -43 -4 -7 -13 -12 -14 -23 -4 -7 6 -11 15 -8 20 3 5 1
9 -5 9 -5 0 -17 3 -26 6 -12 5 -11 -1 7 -28 19 -28 28 -33 53 -30 l30 3 -25
-14 c-16 -9 -31 -11 -42 -5 -23 11 -23 -1 -1 -17 16 -12 13 -14 -21 -20 -21
-4 -53 -3 -71 2 -43 14 -68 -7 -54 -43 5 -15 5 -24 -1 -24 -6 0 -10 5 -10 11
0 6 -9 8 -22 3 -22 -6 -22 -6 -5 13 9 11 17 27 17 37 0 10 5 14 11 10 6 -3 15
-1 19 6 5 9 17 9 46 1 39 -11 81 -14 57 -5 -7 3 -10 13 -7 22 5 15 4 15 -9 -1
-13 -15 -16 -16 -27 -2 -10 12 -23 14 -59 9 -25 -4 -54 -8 -63 -9 -10 -1 -21
-4 -24 -8 -4 -4 -13 -2 -20 4 -9 7 -19 7 -35 -1 -17 -10 -19 -14 -8 -21 11 -7
11 -9 -2 -9 -9 0 -19 7 -23 15 -3 9 0 15 10 15 8 0 12 5 9 10 -4 6 5 10 20 10
17 0 24 4 19 12 -5 8 -2 9 12 3 25 -11 84 -14 84 -4 0 4 -13 7 -29 7 -15 -1
-33 2 -40 6 -6 4 -36 2 -67 -4 -41 -9 -59 -9 -67 -1 -8 8 1 11 34 11 36 1 41
3 26 11 -11 6 -29 9 -42 6 -13 -2 -26 1 -28 8 -4 8 14 9 67 2 39 -4 78 -11 86
-14 8 -3 24 -5 36 -4 11 1 27 -5 34 -13 14 -18 35 -22 24 -4 -4 6 -3 8 3 5 19
-12 109 -19 98 -8 -6 6 -57 17 -113 26 -86 13 -115 22 -175 56 -87 49 -99 59
-69 59 12 0 22 -4 22 -8z m-1493 -43 c7 -7 29 -13 50 -15 21 -2 39 -7 40 -11
2 -5 22 -7 46 -5 32 3 47 -1 58 -14 13 -16 12 -17 -16 -11 -28 7 -29 6 -11 -8
10 -8 23 -12 28 -9 5 3 20 -1 33 -10 16 -11 25 -12 27 -4 5 13 39 -2 41 -18 1
-5 5 -8 10 -7 4 2 7 -4 7 -12 0 -8 9 -15 20 -15 11 0 20 5 20 11 0 5 5 7 12 3
8 -5 0 -13 -22 -22 -24 -10 -36 -10 -38 -3 -2 6 -8 9 -13 5 -5 -3 -9 2 -9 10
0 16 -15 21 -62 17 -14 -1 -29 3 -33 8 -3 6 -1 11 4 11 6 0 11 4 11 8 0 5 -13
7 -30 4 -22 -3 -30 0 -30 11 0 9 -5 19 -10 22 -6 4 -10 3 -9 -2 6 -37 -3 -64
-26 -73 -24 -9 -35 -30 -15 -30 6 0 10 4 10 9 0 5 9 7 20 4 11 -3 31 2 45 11
30 20 35 20 35 2 0 -8 -8 -15 -17 -15 -10 0 -37 -5 -60 -12 -33 -10 -46 -10
-65 -1 -13 7 -15 10 -5 8 10 -4 17 0 17 9 0 8 0 18 1 22 0 4 -4 9 -10 11 -6 2
-11 -5 -12 -15 0 -11 -3 -13 -6 -5 -3 7 1 19 8 28 10 13 8 13 -16 4 -23 -9
-26 -8 -22 4 7 18 -8 30 -24 20 -8 -4 -7 -9 2 -15 12 -7 12 -9 0 -9 -8 0 -20
8 -27 18 -11 16 -13 15 -23 -10 -6 -16 -13 -28 -16 -28 -4 0 -4 4 -1 9 3 5 8
26 12 47 7 45 14 57 14 25 0 -19 3 -20 21 -11 16 9 18 14 9 25 -21 25 5 46 27
24z m406 -37 c20 1 34 5 32 9 -3 4 14 6 37 4 24 -2 51 -4 61 -4 9 -1 17 -8 17
-17 0 -14 3 -14 15 -4 12 10 15 10 15 -4 0 -9 -5 -16 -11 -16 -6 0 -9 -7 -5
-15 6 -17 4 -18 -18 -9 -11 4 -14 13 -10 30 5 20 3 23 -11 18 -13 -5 -14 -9
-4 -15 8 -5 -2 -9 -26 -11 -35 -3 -37 -4 -23 -18 8 -9 18 -26 22 -38 6 -18 10
-20 27 -9 19 12 19 12 -3 19 l-23 6 22 1 c13 1 27 -7 33 -18 12 -24 13 -44 1
-37 -5 4 -12 0 -15 -6 -3 -7 -3 -3 0 10 5 21 -10 33 -18 13 -1 -5 -23 -11 -48
-15 -28 -4 -38 -3 -25 3 17 7 16 9 -13 13 -28 4 -31 2 -26 -14 6 -19 -3 -23
-24 -10 -16 11 -5 42 15 42 8 0 11 5 8 10 -3 6 3 10 14 10 11 0 23 -5 27 -12
4 -7 3 -8 -4 -4 -7 4 -12 2 -12 -3 0 -6 9 -11 20 -11 27 0 25 25 -5 58 -22 23
-27 25 -36 12 -7 -10 -12 -11 -15 -4 -5 13 -54 6 -54 -7 0 -5 8 -9 18 -10 11
0 12 -2 4 -6 -7 -3 -23 6 -36 20 -18 20 -21 27 -10 31 8 3 21 3 29 0 11 -5 14
-1 9 12 -4 13 -3 15 3 7 5 -7 25 -12 46 -11z m-5517 -54 c3 -5 -5 -6 -21 -2
-18 4 -25 3 -23 -6 2 -7 -4 -15 -12 -17 -13 -4 -13 -3 0 6 13 9 13 11 -2 11
-9 0 -19 -4 -22 -9 -9 -13 23 -22 42 -12 27 14 218 5 255 -12 18 -8 52 -18 77
-22 25 -4 57 -14 72 -21 32 -17 41 -18 33 -4 -3 6 0 10 9 10 8 0 16 -6 19 -12
2 -9 24 -13 60 -13 63 0 64 13 2 16 -22 1 -48 9 -57 17 -10 8 -36 15 -58 15
-44 0 -43 10 3 21 15 3 27 2 27 -3 0 -5 24 -15 53 -22 79 -19 123 -39 107 -49
-21 -13 32 -24 81 -17 36 5 39 3 27 -11 -11 -13 -10 -15 17 -8 22 5 26 4 15
-4 -13 -8 -12 -10 5 -11 17 -1 17 -2 2 -6 -9 -2 -15 -8 -12 -13 8 -13 -13 -23
-32 -16 -14 6 -14 8 3 21 17 13 17 14 2 15 -9 0 -20 -5 -24 -12 -5 -7 -10 -4
-15 10 -5 12 -16 22 -26 22 -17 -1 -16 -2 1 -15 18 -14 18 -15 2 -15 -9 0 -24
6 -31 13 -38 33 -47 37 -87 37 -92 0 -211 19 -220 36 -5 6 -30 15 -58 19 -28
4 -48 10 -45 15 2 4 -14 8 -38 9 -23 1 -68 3 -99 4 -32 1 -58 -1 -58 -5 0 -5
9 -8 21 -8 12 0 23 -8 26 -20 3 -13 14 -20 29 -20 13 0 24 -4 24 -10 0 -5 8
-9 18 -8 39 3 69 -3 88 -17 18 -14 17 -14 -9 -5 -37 13 -60 13 -51 -1 4 -8 1
-8 -12 -1 -11 5 -42 13 -71 17 -31 4 -54 12 -57 21 -4 12 -1 14 14 9 11 -4 20
-2 20 4 0 15 -60 29 -113 26 -42 -2 -46 -1 -30 11 16 12 15 13 -11 14 -28 0
-29 1 -10 14 14 11 21 11 27 3 6 -9 10 -9 14 1 2 6 18 12 34 12 16 0 29 4 29
9 0 11 38 2 46 -11z m6572 -2 c3 -11 0 -16 -7 -12 -6 4 -11 1 -11 -8 0 -8 10
-16 23 -18 17 -3 14 -6 -15 -12 -21 -5 -38 -12 -38 -18 0 -5 -4 -6 -10 -3 -5
3 -10 2 -10 -2 0 -5 9 -14 20 -21 16 -10 20 -10 18 0 -2 8 6 13 20 12 12 0 22
5 22 13 0 8 11 13 28 13 21 0 24 -2 12 -10 -12 -8 -11 -10 8 -10 12 0 22 -3
22 -7 -1 -19 -29 -43 -51 -43 -22 0 -22 1 -4 13 12 10 14 16 7 21 -7 4 -12 3
-12 -3 0 -6 -8 -8 -17 -4 -10 3 -15 3 -11 -2 4 -4 0 -14 -10 -21 -15 -12 -14
-14 13 -15 17 -1 40 -1 52 0 12 1 29 -9 41 -23 12 -16 22 -22 29 -15 5 5 18 7
27 3 15 -6 12 -9 -15 -21 -29 -12 -35 -12 -45 2 -16 22 -23 19 -19 -10 3 -30
0 -27 43 -53 23 -13 30 -22 22 -27 -8 -5 -16 -1 -22 9 -5 9 -15 16 -22 16 -7
0 -20 8 -29 18 -13 15 -15 25 -7 53 6 18 10 35 10 37 0 1 -9 -2 -20 -8 -14 -7
-20 -7 -20 0 0 5 -13 10 -28 10 -15 0 -34 6 -41 13 -11 9 -10 7 0 -10 8 -13
21 -23 29 -23 12 0 13 -2 1 -9 -15 -9 -62 27 -54 42 2 4 -2 7 -9 8 -10 0 -10
2 0 6 6 2 12 8 12 12 0 11 -92 7 -113 -5 -17 -10 -17 -12 3 -36 l20 -26 -35 0
c-37 0 -42 6 -22 27 10 11 7 12 -17 7 -24 -6 -27 -5 -19 6 16 21 23 58 10 58
-7 0 -6 5 3 10 10 8 -4 9 -47 4 -53 -6 -63 -4 -63 9 0 9 14 20 33 26 39 13
114 17 123 8 4 -4 -18 -7 -49 -7 -31 0 -59 -5 -62 -11 -12 -18 3 -22 34 -9 17
6 36 8 43 4 7 -5 24 -7 38 -6 l25 2 -23 -12 c-13 -6 -21 -17 -18 -24 3 -7 1
-15 -5 -18 -5 -2 -4 -3 3 -2 7 2 14 8 14 14 1 7 2 14 3 17 0 2 20 -2 42 -10
23 -8 45 -15 50 -15 11 0 7 23 -6 32 -6 4 -2 8 8 8 9 0 27 10 38 21 20 20 20
23 5 31 -27 15 -18 29 16 26 23 -2 34 -9 36 -22z m510 -18 c7 -7 12 -8 12 -2
0 5 4 4 8 -3 4 -6 21 -14 37 -18 22 -5 26 -4 15 4 -8 5 -11 13 -7 17 3 4 13 1
22 -6 8 -7 15 -9 15 -4 0 4 6 1 13 -8 14 -19 87 -34 87 -18 0 5 9 10 20 10 11
0 20 -5 20 -11 0 -7 7 -8 18 -4 27 12 73 14 96 5 17 -7 14 -9 -19 -11 -37 -2
-59 -4 -78 -8 -4 0 -2 -7 5 -15 11 -12 16 -12 31 2 15 13 20 14 26 3 5 -8 14
-10 20 -7 7 5 10 2 9 -6 -2 -7 4 -12 14 -10 9 1 19 -2 23 -8 3 -5 16 -10 28
-10 22 -1 22 -1 2 -16 -18 -13 -21 -13 -31 1 -14 18 -31 20 -37 3 -4 -9 -8
-10 -14 -2 -10 13 -61 28 -88 25 -17 -2 -17 0 -5 8 16 11 17 11 -55 16 -19 2
-54 11 -150 38 -37 11 -65 28 -65 41 0 10 15 7 28 -6z m-1133 -67 c100 -55
155 -95 155 -112 0 -5 -7 -6 -15 -3 -8 4 -15 1 -15 -4 0 -6 9 -14 20 -17 11
-3 20 -11 20 -17 0 -6 6 -6 15 2 14 11 19 7 16 -12 0 -5 4 -8 9 -8 6 0 10 -7
10 -15 0 -8 -7 -15 -16 -15 -8 0 -12 4 -9 10 3 5 -5 15 -19 22 -14 6 -26 15
-26 19 0 4 -8 10 -18 13 -10 4 -27 14 -38 24 -25 22 -125 97 -144 107 -8 5 -4
-4 9 -18 14 -15 30 -27 38 -27 7 0 13 -4 13 -10 0 -14 -97 -13 -106 1 -5 8 6
9 37 5 37 -5 41 -4 26 6 -10 7 -28 21 -39 30 -11 9 -25 15 -32 12 -8 -3 -16 3
-18 13 -4 17 1 19 41 17 26 0 63 -11 86 -23z m-1855 -93 c13 -35 23 -68 22
-75 -2 -7 9 -15 23 -19 26 -6 26 -7 -12 -24 -41 -19 -75 -54 -65 -66 4 -4 2
-4 -5 -1 -6 4 -9 16 -6 26 3 11 -4 49 -16 85 -25 79 -26 94 -4 118 26 29 37
22 63 -44z m-4275 -118 c4 -6 16 -10 28 -11 12 0 16 -3 10 -6 -24 -9 -13 -22
30 -34 33 -9 38 -13 23 -19 -18 -6 -18 -7 -2 -13 10 -4 30 -5 44 -2 23 4 24 4
7 -4 -11 -5 -14 -10 -7 -10 6 -1 12 -7 12 -15 0 -8 14 -15 34 -18 23 -2 32 0
29 8 -8 21 59 23 89 3 14 -11 38 -19 52 -19 24 0 33 -10 21 -22 -3 -3 -36 0
-73 7 -37 7 -68 12 -70 10 -2 -2 1 -13 8 -24 6 -12 7 -21 1 -21 -5 0 -12 7
-15 16 -4 10 -14 14 -25 11 -12 -3 -22 1 -25 10 -4 9 -14 13 -25 10 -12 -3
-22 1 -25 9 -3 8 -18 15 -33 15 -17 1 -21 3 -11 6 15 4 13 8 -11 29 -33 28
-41 30 -41 9 0 -9 -6 -12 -15 -9 -11 5 -12 10 -4 27 10 17 9 19 -5 14 -12 -5
-16 0 -16 19 0 24 -3 26 -27 19 -16 -4 -39 -7 -53 -6 -82 1 -94 2 -83 9 18 11
171 13 178 2z"/>
<path d="M7347 1082 c-4 -5 13 -12 39 -16 25 -3 58 -16 72 -27 l27 -22 -27 7
c-16 3 -28 2 -28 -3 0 -5 12 -12 28 -14 l27 -4 -28 -2 c-19 0 -26 -5 -21 -13
5 -8 2 -9 -10 -5 -10 4 -15 3 -11 -3 3 -6 -5 -10 -19 -10 -14 0 -26 -4 -26
-10 0 -5 7 -10 15 -10 9 0 18 -7 21 -15 4 -9 13 -13 24 -10 9 3 30 -1 46 -10
16 -8 38 -14 49 -14 12 1 4 6 -18 13 -21 6 -35 15 -30 19 4 5 1 13 -7 18 -11
8 -8 9 12 5 15 -3 30 -2 33 4 3 5 -1 10 -9 10 -8 0 -18 5 -22 11 -4 8 1 9 17
4 30 -10 69 -15 69 -9 0 3 -10 9 -22 15 -22 9 -21 9 3 4 18 -3 29 0 32 9 8 22
-3 26 -45 20 -25 -4 -38 -3 -38 4 0 7 7 9 17 5 11 -4 14 -3 9 5 -4 7 -12 12
-18 12 -5 0 -24 10 -41 22 -17 12 -27 16 -22 8 6 -10 4 -12 -11 -6 -35 14 -81
18 -87 8z"/>
<path d="M692 2350 c9 -5 27 -10 40 -10 12 0 68 -4 123 -9 l100 -8 -120 -1
c-103 0 -120 -2 -123 -16 -3 -13 5 -16 37 -16 23 0 41 -4 41 -8 0 -4 16 -6 35
-4 27 3 35 0 35 -11 0 -9 -8 -18 -17 -20 -11 -3 -7 -5 10 -6 15 0 27 -5 27
-11 0 -5 -4 -10 -8 -10 -5 0 -9 -7 -9 -15 0 -15 39 -17 53 -2 12 12 70 8 100
-7 15 -8 31 -13 36 -10 14 9 -12 46 -28 40 -18 -7 -45 4 -38 15 3 5 33 9 67
10 63 1 64 2 14 13 -15 4 -25 10 -23 15 3 5 -4 12 -17 16 -20 7 -20 8 8 12 61
9 43 20 -52 31 -153 18 -311 24 -291 12z"/>
<path d="M1420 2247 c-41 -7 -50 -11 -35 -17 11 -4 22 -4 25 1 7 10 50 0 50
-11 0 -4 -7 -13 -16 -21 -12 -10 -17 -10 -23 -1 -4 7 -15 10 -24 6 -10 -4 -17
-1 -17 6 0 9 -12 11 -44 7 -24 -4 -46 -3 -50 0 -4 4 -52 8 -108 10 -56 2 -99
1 -95 -3 3 -4 39 -8 79 -10 134 -6 190 -15 184 -30 -3 -8 0 -14 7 -14 12 -1
71 -5 169 -14 26 -2 53 -8 60 -12 10 -5 10 -4 2 5 -9 10 -33 16 -76 20 -5 1
-8 10 -8 22 0 16 4 19 23 14 12 -3 18 -3 12 2 -5 4 -10 15 -10 23 0 9 -7 14
-19 12 -10 -2 -22 0 -25 5 -3 5 -30 5 -61 0z"/>
<path d="M760 2066 c5 -5 35 -10 66 -12 32 -1 94 -5 138 -9 45 -3 97 -8 116
-9 19 -2 43 -6 53 -11 10 -4 38 -5 63 -2 27 3 56 -1 72 -8 29 -14 220 -40 229
-32 3 3 -17 8 -44 12 -26 4 -61 10 -76 15 -15 5 -34 7 -42 4 -10 -4 -15 0 -15
12 0 14 -3 15 -12 6 -15 -15 -38 -16 -38 -1 0 5 5 7 12 3 7 -5 8 -3 4 5 -5 8
-28 12 -60 11 -28 -1 -53 -1 -56 0 -3 1 -43 2 -90 4 -47 1 -92 6 -100 11 -19
12 -232 13 -220 1z"/>
<path d="M1552 1842 c-18 -3 -21 -7 -12 -17 7 -8 7 -15 1 -19 -5 -4 -12 -2
-16 4 -8 13 -62 13 -70 0 -4 -6 6 -10 22 -10 l28 -1 -25 -14 c-14 -8 -39 -14
-55 -15 -17 0 -36 -5 -41 -10 -8 -8 -19 -7 -39 0 -15 6 -30 9 -32 6 -3 -2 5
-7 16 -11 30 -9 26 -25 -6 -25 -24 -1 -26 -2 -10 -11 9 -6 30 -9 45 -7 15 1
50 -1 79 -6 32 -5 59 -4 71 3 11 6 23 6 28 1 5 -4 34 -9 64 -10 73 -3 82 -2
75 10 -3 6 -1 10 4 10 6 0 11 -6 11 -14 0 -12 20 -15 96 -15 53 0 111 -3 128
-6 17 -3 81 -1 141 4 l110 8 -83 2 c-46 0 -81 5 -78 10 3 5 -6 9 -19 9 -14 0
-25 -5 -25 -10 0 -6 -7 -5 -15 2 -9 7 -22 9 -32 5 -24 -11 -138 -14 -122 -5 8
6 3 10 -17 13 -23 4 -22 5 8 4 20 -1 40 2 43 5 4 4 13 4 21 1 10 -4 12 0 8 11
-4 11 0 16 12 17 14 0 15 2 4 6 -8 4 -21 12 -28 20 -7 7 -19 13 -25 13 -7 0
-4 -7 7 -15 34 -26 8 -36 -80 -34 -79 3 -106 12 -66 22 9 3 3 5 -15 6 -47 2
-52 21 -6 22 36 0 37 1 13 11 l-25 11 33 9 c17 5 32 10 32 12 0 4 -130 3 -158
-2z"/>
<path d="M2138 1385 c-2 -3 -18 -5 -36 -7 -18 -1 -32 -6 -32 -10 0 -10 -37
-10 -42 0 -1 4 -23 2 -48 -5 -25 -6 -39 -12 -31 -12 19 -1 5 -14 -17 -16 -9
-1 -27 -5 -39 -9 -14 -5 -23 -3 -23 3 0 6 9 11 20 11 11 0 20 4 20 10 0 5 -22
7 -52 4 -67 -7 -81 -11 -73 -23 3 -5 -9 -10 -27 -9 -18 0 -48 -3 -65 -7 -22
-5 -33 -3 -33 4 0 6 -9 11 -20 11 -11 0 -20 -4 -20 -10 0 -5 -9 -10 -20 -10
-11 0 -20 5 -20 10 0 6 -25 10 -57 10 -31 0 -53 3 -49 7 3 4 62 6 129 6 99 -1
114 0 82 9 -49 12 -255 23 -255 13 0 -11 44 -44 58 -45 7 0 26 -7 42 -15 17
-9 30 -11 30 -5 0 5 5 10 11 10 7 0 9 -10 7 -25 -5 -24 -3 -25 48 -25 30 0 54
3 54 8 0 4 35 7 79 7 50 0 84 5 94 14 9 7 20 10 26 7 5 -3 11 1 15 9 3 9 18
15 39 15 19 0 37 3 41 7 11 12 110 10 119 -2 6 -7 10 -6 14 3 2 6 8 10 11 8 4
-2 25 0 47 4 l40 8 -34 1 c-32 1 -33 2 -17 14 16 12 17 15 3 20 -8 3 -17 4
-19 2z"/>
<path d="M2855 1243 c-4 -10 -8 -28 -9 -41 -1 -18 2 -22 17 -18 17 4 18 3 3
-13 -9 -10 -16 -22 -16 -27 0 -5 5 -1 11 9 13 23 25 22 32 -3 3 -11 1 -20 -5
-20 -5 0 -7 -4 -3 -10 3 -5 12 -7 20 -4 8 4 12 10 9 15 -3 5 4 9 16 9 19 0 20
-1 5 -36 -8 -20 -15 -38 -15 -40 0 -6 75 31 78 39 2 4 8 7 14 7 24 0 76 33 81
51 5 18 -11 25 -50 20 -7 -1 -13 3 -13 9 0 5 4 10 9 10 5 0 11 11 13 24 4 19
1 22 -14 18 -10 -2 -18 -8 -18 -12 0 -13 -35 -21 -54 -14 -9 3 -16 15 -16 25
0 10 -4 19 -10 19 -5 0 -10 -7 -10 -15 0 -8 -4 -15 -9 -15 -5 0 -11 7 -15 15
-8 21 -42 19 -51 -2z"/>
<path d="M2307 1187 c4 -6 -4 -7 -22 -3 -34 9 -137 -3 -129 -15 2 -5 18 -6 34
-4 17 3 44 7 60 10 21 3 30 0 30 -9 0 -10 -20 -13 -75 -14 -42 0 -89 -4 -106
-7 -28 -6 -29 -8 -12 -21 23 -17 91 -18 145 0 73 24 117 28 132 14 20 -21 -7
-43 -35 -28 -11 6 -25 9 -32 6 -7 -2 -4 -5 7 -5 15 -1 16 -4 7 -15 -10 -11 -8
-16 6 -20 10 -3 23 -14 29 -23 10 -17 4 -18 -85 -19 -53 0 -90 1 -83 4 28 9 9
22 -33 22 -48 0 -59 -15 -22 -30 22 -9 22 -9 -3 -9 -14 -1 -43 -3 -65 -6 l-40
-5 35 13 c35 14 34 14 -55 21 -49 3 -109 9 -132 12 -29 4 -43 2 -43 -5 0 -7
20 -11 49 -11 38 0 56 -6 79 -25 17 -14 36 -25 43 -25 10 0 11 2 2 8 -6 4 64
7 155 7 92 0 230 4 307 10 137 9 139 9 75 17 -36 5 -76 9 -89 9 -18 1 -21 3
-10 10 10 6 6 9 -16 10 -26 0 -27 2 -10 9 17 7 14 9 -15 10 -32 2 -33 3 -10 9
14 5 33 4 43 -1 10 -5 21 -7 25 -4 3 3 0 6 -7 6 -7 0 -10 4 -6 9 3 5 -3 12
-12 15 -10 3 -6 4 10 2 22 -3 25 -1 16 10 -6 8 -24 14 -40 14 -15 0 -31 5 -34
10 -3 6 0 10 8 10 8 0 17 8 19 18 4 15 -2 18 -48 18 -34 1 -51 -3 -47 -9z"/>
<path d="M3135 1079 c16 -7 12 -8 -15 -4 -48 8 -210 -24 -210 -41 0 -8 7 -11
18 -8 16 5 16 5 0 -6 -9 -6 -15 -17 -11 -25 4 -11 0 -14 -13 -9 -11 3 -5 -3
11 -12 17 -10 45 -19 63 -20 37 -3 67 -28 58 -49 -3 -8 -1 -15 3 -15 5 0 11 5
13 11 2 5 22 13 46 16 43 6 55 18 25 26 -10 2 -2 3 17 1 19 -2 29 -1 23 2 -26
12 -13 26 18 20 25 -5 29 -3 20 7 -8 10 -7 17 1 25 9 9 3 12 -27 12 -30 0 -36
3 -25 10 11 7 1 10 -35 10 -28 0 -56 -5 -63 -12 -9 -9 -12 -9 -12 0 0 15 42
32 80 32 30 0 80 18 80 30 0 3 -19 7 -42 8 -35 1 -39 -1 -23 -9z"/>
<path d="M2009 966 c14 -8 32 -11 40 -8 9 3 12 1 7 -6 -4 -7 -4 -12 1 -13 4 0
18 -2 31 -5 12 -2 22 0 22 5 0 5 -10 11 -22 14 -13 2 13 4 57 4 44 0 73 -2 65
-4 -8 -3 -22 -7 -30 -10 -8 -4 -21 -5 -27 -4 -7 1 -13 -3 -13 -9 0 -12 30 -13
49 -1 9 6 24 6 38 0 16 -6 22 -5 18 1 -8 13 2 12 50 -5 l40 -14 -37 -1 c-21 0
-38 -5 -38 -11 0 -7 9 -9 21 -6 15 4 22 -1 29 -19 5 -13 14 -24 19 -24 6 0 8
7 4 17 -6 14 1 15 57 10 40 -3 58 -2 49 4 -8 5 -23 9 -33 9 -20 0 -20 0 0 15
10 8 15 14 9 13 -20 -4 -74 14 -86 28 -15 18 -2 18 35 -1 16 -8 34 -15 40 -14
24 3 37 -2 31 -11 -8 -13 15 -13 35 0 12 8 10 10 -8 10 -15 0 -26 7 -29 19 -3
12 -11 17 -19 14 -8 -3 -14 0 -14 6 0 8 -62 11 -207 11 -181 -1 -205 -2 -184
-14z"/>
<path d="M1740 871 c0 -5 5 -22 10 -37 10 -25 9 -26 -14 -22 -14 3 -31 1 -38
-3 -9 -6 -5 -9 12 -9 24 -1 24 -1 6 -15 -17 -13 -18 -15 -3 -15 9 0 17 -6 17
-14 0 -15 29 -30 39 -21 3 3 -1 10 -9 15 -20 13 -10 12 29 -1 24 -9 31 -17 31
-37 0 -21 2 -24 10 -12 6 10 10 11 10 3 0 -14 38 -17 58 -5 9 6 5 12 -15 21
-22 10 -24 14 -12 23 11 7 9 9 -8 5 -13 -3 -23 -1 -23 3 0 4 -10 6 -22 3 -13
-3 -20 -2 -16 2 4 4 21 8 38 7 16 0 30 3 30 7 0 13 -33 38 -65 49 -26 9 -27
11 -7 11 12 1 22 6 22 12 0 8 -11 9 -31 5 -26 -5 -29 -3 -20 7 6 8 8 17 4 20
-10 10 -33 8 -33 -2z"/>
<path d="M2217 873 c-14 -14 -6 -23 20 -23 14 0 48 -14 75 -31 40 -26 54 -30
86 -25 27 5 33 4 22 -3 -11 -8 6 -11 59 -11 41 0 71 3 67 7 -3 4 -24 6 -46 5
-22 -2 -40 1 -40 6 0 5 19 9 43 10 33 0 47 -6 67 -27 18 -19 36 -28 58 -28 18
0 32 4 32 9 0 4 10 8 23 7 21 0 21 -1 2 -9 -17 -8 -17 -9 7 -7 15 1 24 5 22 9
-3 4 0 8 6 8 23 0 -1 18 -29 22 -18 3 -28 0 -24 -6 4 -6 -1 -6 -13 -1 -10 4
-30 8 -43 8 -13 -1 -34 10 -46 23 -24 26 -51 31 -57 12 -3 -8 -12 -4 -26 10
-12 12 -30 22 -39 21 -12 -1 -9 -5 10 -12 15 -6 27 -14 27 -19 0 -4 -12 -8
-27 -9 -16 0 -49 -2 -75 -3 -25 -1 -44 2 -42 6 3 5 28 8 56 8 60 0 59 8 -1 16
-26 4 -47 1 -56 -6 -11 -9 -15 -9 -15 -1 0 6 -6 11 -14 11 -8 0 -16 7 -20 15
-5 15 -57 21 -69 8z"/>
<path d="M2824 383 c9 -16 -4 -40 -13 -25 -6 10 -38 15 -73 13 -13 -1 -16 -8
-13 -33 2 -17 10 -35 17 -39 7 -5 9 -9 3 -9 -5 0 -1 -6 10 -13 27 -19 78 -28
95 -16 12 7 10 9 -7 9 -13 0 -23 5 -23 11 0 6 -9 9 -20 6 -11 -3 -23 0 -26 5
-5 8 9 9 42 4 91 -12 132 -12 127 0 -2 7 5 19 17 27 16 11 18 16 8 25 -9 7
-19 6 -32 -4 -26 -18 -56 -18 -56 1 0 8 -5 15 -12 15 -6 0 -20 8 -31 18 -11 9
-17 11 -13 5z"/>
</g>
</svg>
