<?xml version="1.0" standalone="no"?>
<!DOCTYPE svg PUBLIC "-//W3C//DTD SVG 20010904//EN"
 "http://www.w3.org/TR/2001/REC-SVG-20010904/DTD/svg10.dtd">
<svg version="1.0" xmlns="http://www.w3.org/2000/svg"
 width="1182.000000pt" height="664.000000pt" viewBox="0 0 1182.000000 664.000000"
 preserveAspectRatio="xMidYMid meet">
<metadata>
Created by potrace 1.13, written by Peter Selinger 2001-2015
</metadata>
<g transform="translate(0.000000,664.000000) scale(0.100000,-0.100000)"
fill="#000000" stroke="none">
<path d="M0 4805 c0 -1140 4 -1835 9 -1835 6 0 12 4 15 9 3 5 15 7 26 4 13 -4
20 0 20 10 0 8 16 41 35 73 30 49 40 58 60 56 18 -2 25 2 28 20 l4 23 8 -23
c6 -17 13 -22 27 -18 14 3 22 -1 25 -15 4 -13 11 -18 20 -15 8 3 18 6 22 6 4
0 7 15 7 33 -1 31 0 32 39 31 22 -1 49 -4 61 -8 17 -6 23 -1 38 32 17 37 22
41 78 52 47 9 58 15 56 28 -3 9 -10 16 -16 15 -7 -2 -12 6 -12 17 0 11 6 20
13 20 21 0 39 39 32 71 -5 22 -3 29 6 27 8 -2 15 7 17 20 2 12 8 22 14 22 5 0
8 6 5 14 -4 9 3 16 16 19 12 2 30 8 40 12 14 6 17 2 17 -24 0 -26 4 -31 25
-31 14 0 25 -6 25 -12 1 -27 60 57 60 84 0 18 6 31 18 35 33 12 43 24 31 40
-16 18 15 42 53 43 23 0 32 -8 52 -47 l25 -48 1 37 c0 44 9 70 21 62 10 -6 12
17 3 40 -8 21 -22 20 -26 -1 -2 -11 -6 -14 -10 -8 -4 6 2 31 14 55 16 37 18
50 9 76 -16 44 -14 51 9 26 12 -12 29 -22 40 -22 25 0 40 -28 33 -63 -3 -16
-1 -27 6 -27 6 0 11 8 11 18 0 14 2 15 10 2 8 -13 10 -12 10 3 0 9 -5 17 -11
17 -6 0 -3 7 5 16 9 8 14 20 11 25 -9 14 18 10 38 -5 17 -13 79 -8 94 8 8 8
-28 47 -37 41 -4 -3 -14 2 -21 11 -11 14 -10 16 11 14 41 -4 50 -1 50 15 0 17
26 20 35 4 5 -6 13 -3 22 10 8 12 25 21 39 21 19 0 24 5 24 25 0 24 1 25 23
10 22 -14 26 -14 43 2 11 10 18 26 16 36 -4 19 14 24 21 5 3 -7 6 -3 6 9 1 12
-3 25 -9 28 -5 3 -10 12 -9 18 0 9 2 9 6 0 2 -7 9 -13 14 -13 4 0 6 7 3 15 -4
10 0 15 14 15 50 0 30 71 -24 84 -24 6 -34 36 -12 36 6 0 3 6 -8 14 -17 13
-16 14 19 6 35 -8 37 -7 38 19 1 14 1 30 0 34 -1 5 9 5 21 1 20 -6 21 -5 10 8
-18 22 9 42 44 34 l26 -7 -19 25 c-10 14 -23 24 -30 21 -17 -6 -26 11 -17 37
6 19 7 19 16 5 13 -24 37 -22 31 2 -6 22 27 44 51 35 21 -8 22 29 2 46 -8 6
-12 18 -9 26 4 10 0 12 -11 8 -11 -4 -19 1 -25 17 -11 31 -6 39 29 39 19 0 30
-6 33 -17 4 -17 5 -17 6 0 0 9 7 18 14 19 12 1 26 4 40 8 17 5 54 3 75 -4 14
-5 29 -3 37 4 12 10 16 9 21 -3 3 -9 13 -13 25 -10 10 3 19 1 19 -3 0 -5 34
-9 75 -9 41 -1 75 3 75 7 0 4 13 8 28 8 16 0 32 3 36 7 21 21 312 21 333 -1 4
-4 15 3 25 16 l17 23 21 -22 c17 -19 24 -21 40 -11 10 7 16 16 14 20 -10 16
12 7 36 -15 14 -13 35 -21 48 -19 13 2 22 -2 22 -10 0 -10 2 -10 9 1 6 10 28
12 84 10 41 -3 73 -1 71 3 -3 5 -24 8 -47 9 -38 0 -40 1 -17 10 14 6 39 8 57
5 26 -4 33 -1 38 15 5 14 16 19 43 19 21 0 52 4 71 10 29 8 34 7 38 -11 5 -17
11 -20 35 -15 20 4 34 0 47 -13 12 -12 23 -16 32 -10 8 5 22 6 32 3 9 -3 17 0
17 7 0 16 77 3 97 -16 13 -13 10 -15 -19 -16 -20 -1 -25 -3 -13 -6 11 -3 26
-12 32 -20 11 -15 13 -14 19 0 8 21 24 22 24 3 0 -8 15 -17 35 -20 19 -4 35
-10 35 -15 0 -4 26 -7 58 -6 74 3 74 3 67 15 -9 15 11 12 24 -4 8 -9 36 -13
97 -13 80 1 86 0 108 -26 17 -20 33 -27 60 -27 23 0 43 -7 56 -20 11 -11 24
-20 29 -20 5 0 16 -6 23 -13 17 -17 118 -67 135 -67 19 0 16 -13 -8 -44 -19
-25 -20 -35 -15 -144 3 -66 10 -118 16 -120 5 -2 10 -10 10 -19 0 -12 2 -12
16 2 24 23 27 13 12 -37 -19 -58 -15 -144 7 -168 11 -12 15 -28 11 -43 -7 -29
2 -41 20 -26 10 8 15 5 20 -15 3 -14 10 -23 15 -20 5 3 9 -7 9 -23 1 -25 20
-63 32 -63 3 0 -2 21 -11 46 -15 44 -15 46 4 60 17 13 21 13 31 -1 6 -8 20
-15 32 -15 15 0 24 -10 33 -37 6 -21 17 -41 23 -45 8 -5 7 -8 -2 -8 -7 0 -10
-4 -7 -10 3 -5 1 -11 -4 -11 -21 -3 -26 -4 -40 -13 -22 -14 14 -29 39 -16 17
9 20 8 19 -12 0 -13 -3 -17 -6 -10 -10 24 -22 12 -13 -13 9 -23 8 -24 -8 -16
-23 12 -52 -3 -36 -19 7 -7 20 -7 43 1 21 8 66 10 123 6 86 -6 138 4 138 25 0
4 12 8 26 8 22 0 24 -2 14 -15 -10 -12 -9 -16 6 -21 11 -4 23 -9 28 -12 5 -3
6 0 2 6 -4 7 -1 12 8 12 9 0 16 -7 16 -16 0 -8 5 -12 10 -9 15 9 30 -37 17
-53 -8 -10 -7 -12 3 -10 7 2 14 -2 17 -8 4 -13 -89 -2 -177 21 -32 8 -68 15
-81 15 -41 -1 -1 -16 106 -40 148 -33 175 -40 175 -45 0 -3 -16 -5 -36 -5 -25
0 -33 3 -28 13 6 9 4 9 -7 1 -10 -8 -30 -8 -74 2 -101 22 -141 27 -132 18 5
-5 12 -9 15 -9 4 0 51 -11 105 -25 126 -31 100 -47 -31 -19 -68 15 -99 17
-124 10 l-33 -9 35 1 c19 1 77 -9 129 -22 75 -19 90 -26 73 -32 -13 -5 -53 -2
-101 8 -66 14 -86 15 -121 4 -55 -16 -48 -22 12 -9 38 9 55 8 90 -4 24 -9 56
-19 73 -23 27 -6 28 -8 11 -17 -14 -8 -34 -6 -75 7 -43 12 -62 14 -81 6 -23
-10 -23 -11 7 -5 17 3 40 0 50 -5 10 -6 31 -16 47 -21 22 -8 26 -14 18 -22 -8
-8 -22 -8 -52 1 -41 12 -95 7 -105 -9 -3 -5 11 -4 31 1 28 8 43 7 72 -7 32
-15 34 -18 19 -29 -23 -17 -21 -28 3 -20 34 11 22 -5 -16 -21 -20 -8 -34 -17
-31 -20 7 -7 73 21 81 35 9 14 113 15 121 1 3 -5 -1 -10 -10 -10 -9 0 -13 -4
-10 -10 3 -5 0 -10 -7 -10 -8 -1 -6 -6 6 -15 11 -8 18 -15 15 -16 -45 -8 -66
-19 -36 -19 10 0 17 -4 17 -9 0 -5 -15 -8 -32 -7 -30 1 -33 -2 -36 -29 -4 -28
-3 -29 15 -14 25 22 49 29 59 19 5 -5 15 -5 24 0 11 7 11 10 2 10 -7 0 -10 4
-7 10 10 17 25 11 25 -10 0 -11 7 -20 15 -20 8 0 15 -4 15 -10 0 -5 -7 -10
-15 -10 -8 0 -15 -4 -15 -10 0 -5 26 -8 61 -5 54 3 59 2 42 -10 -10 -8 -25
-15 -32 -15 -11 0 -12 -3 -4 -11 7 -7 21 -6 48 5 44 19 45 19 45 6 0 -5 -8
-10 -17 -10 -23 0 -83 -36 -83 -50 0 -5 5 -10 10 -10 6 0 23 -8 37 -17 14 -10
38 -19 52 -21 42 -5 37 -10 -40 -33 -70 -21 -128 -49 -102 -49 7 0 32 6 55 14
24 8 59 17 78 21 l35 6 -27 -18 c-15 -10 -27 -24 -25 -32 1 -8 -9 -21 -23 -28
-22 -11 -23 -13 -5 -14 11 0 2 -7 -23 -16 -88 -31 -6 -24 102 8 39 12 43 11
43 -6 0 -8 -7 -15 -15 -15 -9 0 -12 -3 -9 -7 4 -3 2 -12 -4 -20 -9 -10 -7 -13
12 -13 32 0 14 -14 -46 -35 -68 -24 -125 -48 -122 -51 1 -2 41 8 87 21 133 38
139 30 10 -15 -19 -6 -41 -14 -49 -16 -8 -3 -12 -7 -9 -9 2 -3 69 13 147 36
79 22 145 38 147 36 2 -2 -57 -24 -133 -48 -167 -53 -155 -64 16 -14 68 20
127 35 132 33 5 -2 -53 -23 -128 -47 -76 -25 -133 -46 -127 -48 11 -4 49 6
193 47 137 39 93 15 -64 -34 -85 -27 -154 -51 -152 -53 2 -2 75 15 162 38 86
22 159 38 161 36 3 -3 -8 -8 -23 -11 -108 -26 -417 -134 -387 -136 6 0 56 16
111 35 103 35 248 76 267 74 17 -1 -33 -19 -109 -40 -38 -11 -92 -28 -120 -39
-27 -11 -63 -24 -79 -30 -16 -6 -27 -13 -24 -15 2 -3 51 11 108 30 58 18 106
32 108 31 2 -2 -32 -18 -75 -35 -43 -18 -87 -36 -98 -41 -11 -5 -38 -14 -60
-21 -22 -7 -35 -14 -30 -16 14 -4 203 61 255 87 22 11 45 20 52 20 20 -1 -55
-38 -170 -85 -155 -64 -147 -67 23 -9 28 9 77 29 109 45 33 16 71 29 85 29
l26 0 -32 -23 c-36 -24 -47 -43 -33 -52 6 -4 10 1 10 11 0 13 3 14 14 5 7 -6
20 -9 27 -7 37 11 79 15 79 6 0 -6 -8 -10 -18 -10 -10 0 -27 -8 -38 -18 -11
-10 -32 -22 -46 -25 -15 -4 -33 -14 -42 -22 -8 -8 -24 -15 -35 -15 -11 0 -26
-7 -35 -15 -8 -8 -19 -15 -25 -15 -6 0 -11 -4 -11 -10 0 -14 74 -2 86 15 13
18 81 34 70 17 -3 -5 -1 -12 5 -14 7 -2 -10 -11 -37 -20 -69 -24 -274 -114
-287 -127 -15 -15 0 -14 31 3 47 24 247 94 256 88 7 -4 -55 -31 -74 -32 -3 0
2 -5 10 -11 12 -9 11 -10 -8 -6 -12 3 -22 2 -22 -2 0 -4 -20 -20 -45 -35 -25
-16 -45 -30 -45 -32 0 -1 28 7 62 18 87 27 108 32 108 22 0 -11 -31 -32 -91
-60 -61 -29 -68 -42 -22 -40 46 1 51 -15 11 -34 -35 -16 -49 -40 -24 -40 9 0
16 -7 16 -15 0 -14 -12 -19 -32 -16 -5 0 -8 -3 -8 -8 0 -5 -13 -14 -30 -19
-21 -8 -28 -16 -24 -26 4 -12 -1 -16 -17 -18 -13 0 -30 -2 -38 -2 -16 -1 -28
-26 -13 -26 6 0 8 -9 5 -19 -3 -13 -11 -18 -21 -14 -10 4 -14 3 -11 -1 14 -15
91 -25 100 -13 4 5 15 7 24 5 17 -3 17 -4 3 -19 -12 -12 -44 -17 -125 -21 -90
-5 -121 -10 -186 -37 -43 -17 -84 -31 -90 -31 -21 -1 -70 -47 -63 -59 4 -6 2
-11 -5 -11 -8 0 -8 -4 1 -15 10 -12 10 -15 -2 -15 -8 0 -23 -9 -33 -20 -22
-24 -16 -25 33 -4 20 9 51 20 67 25 28 8 29 7 11 -6 -11 -8 -28 -15 -38 -15
-10 0 -18 -4 -18 -10 0 -5 -4 -10 -9 -10 -5 0 -25 -7 -45 -15 -54 -23 -34 -38
22 -16 31 11 57 15 77 10 17 -3 22 -7 13 -8 -20 -1 -25 -21 -5 -21 8 0 7 -4
-3 -11 -11 -8 -12 -12 -2 -16 6 -2 12 -9 12 -14 0 -6 -4 -7 -10 -4 -6 3 -10
-5 -10 -19 0 -18 -6 -26 -22 -29 -17 -3 -14 -5 10 -6 37 -1 42 -17 10 -32
l-23 -10 22 5 c27 5 30 -9 6 -23 -15 -9 -13 -10 12 -11 23 0 27 -3 15 -10 -12
-8 -13 -11 -1 -19 10 -6 2 -13 -28 -27 -50 -22 -48 -27 4 -13 38 11 87 0 84
-18 -3 -21 2 -33 15 -33 12 0 25 -28 26 -52 0 -10 -33 3 -42 16 -6 8 -11 7
-17 -3 -7 -11 -26 -13 -80 -9 -39 3 -74 1 -77 -3 -3 -5 3 -9 13 -9 15 0 16 -2
3 -10 -8 -5 -25 -10 -36 -10 -12 0 -33 -9 -47 -20 -16 -12 -40 -20 -65 -20
-23 0 -44 -5 -47 -11 -5 -7 -15 -5 -30 5 -22 15 -23 14 -29 -19 -7 -34 20
-115 37 -115 4 0 5 -5 2 -10 -3 -6 1 -13 9 -16 9 -3 16 -12 16 -19 0 -8 6 -20
12 -27 32 -34 59 -81 54 -93 -2 -7 2 -16 10 -19 9 -3 14 -19 14 -42 0 -30 7
-44 38 -73 30 -28 34 -36 20 -39 -10 -2 -18 -12 -18 -22 0 -10 -5 -20 -11 -22
-5 -2 -11 -10 -12 -18 -1 -8 -10 -26 -20 -40 -9 -13 -17 -29 -17 -35 -1 -16
-34 -52 -50 -53 -8 -1 -35 -6 -60 -11 l-45 -8 44 -2 44 -1 -35 -27 c-43 -34
-108 -121 -108 -145 0 -10 -6 -18 -12 -18 -10 0 -10 -2 0 -9 11 -6 10 -15 -6
-42 -10 -19 -21 -44 -24 -56 l-6 -23 909 0 c500 0 909 4 909 8 0 5 -7 30 -16
55 -15 44 -15 50 0 82 10 20 24 35 34 35 14 0 15 -2 3 -9 -12 -8 -13 -14 -3
-36 7 -14 12 -35 12 -46 0 -12 7 -36 16 -55 l16 -34 372 1 c229 0 360 4 342 9
-16 5 -42 8 -58 6 -17 -2 -28 1 -28 9 0 6 -10 17 -22 24 -13 6 -15 9 -5 6 10
-2 48 -10 84 -15 36 -6 73 -15 82 -20 9 -4 41 -10 71 -11 46 -3 55 0 58 15 3
15 10 17 35 12 18 -4 47 -9 65 -13 17 -3 32 -9 32 -14 0 -5 171 -9 406 -8 303
1 404 4 401 12 -2 7 -17 11 -33 10 -25 -2 -26 -1 -9 7 30 13 55 12 71 -4 12
-13 12 -15 -4 -19 -9 -3 3 -5 28 -6 36 -1 51 4 73 25 15 14 35 23 43 20 8 -3
25 -1 39 4 32 12 34 -7 2 -21 -21 -9 -21 -9 3 -4 14 2 29 5 33 5 5 0 5 5 2 10
-3 6 -1 10 4 10 20 0 11 -31 -11 -40 -19 -7 -14 -9 25 -9 26 -1 48 4 48 9 1 6
2 15 3 22 0 6 7 13 15 16 8 3 11 0 7 -6 -3 -6 -4 -17 0 -25 4 -13 40 -15 227
-15 128 0 214 3 202 8 -11 5 -14 9 -7 11 6 1 17 3 22 4 6 1 13 3 16 4 4 0 1 8
-6 16 -11 13 -7 15 26 14 22 0 32 -3 24 -6 -18 -7 -40 -34 -39 -48 0 -6 3 -4
6 3 2 6 9 12 14 12 6 0 7 -5 4 -10 -4 -7 417 -10 1254 -10 834 0 1261 3 1261
10 0 6 7 10 15 10 8 0 15 -4 15 -10 0 -6 134 -9 360 -10 l360 0 0 39 c0 22 -5
42 -12 44 -10 4 -10 6 0 6 9 1 12 37 12 146 l0 144 -77 4 -78 3 78 2 77 2 0
79 c0 67 -3 80 -17 84 -17 4 -17 5 0 6 16 1 17 153 17 3041 l0 3040 -5910 0
-5910 0 0 -1835z m1434 -204 c10 -15 -5 -40 -19 -35 -7 3 -16 1 -19 -4 -7 -12
17 -18 74 -18 39 1 45 4 48 24 3 21 22 32 22 13 0 -5 11 -12 25 -15 34 -9 52
-43 26 -51 -23 -7 -32 -36 -19 -59 5 -10 5 -16 0 -16 -6 0 -12 7 -16 15 -3 8
-12 15 -21 15 -18 0 -19 -12 -3 -28 9 -9 3 -12 -29 -12 -51 0 -73 -8 -73 -26
0 -8 -9 -14 -20 -14 -11 0 -20 -4 -20 -9 0 -5 -13 -12 -30 -15 -16 -3 -44 -9
-60 -12 -17 -3 -37 -12 -45 -21 -13 -13 -16 -12 -24 9 -5 15 -5 26 3 30 7 5 3
8 -9 9 -11 0 -14 3 -7 6 6 2 10 9 6 14 -3 5 -2 9 3 8 19 -3 27 2 15 9 -10 7
-9 15 4 40 12 25 22 32 45 32 23 0 29 4 29 21 0 18 2 19 15 9 13 -10 15 -9 15
9 0 12 -7 24 -15 27 -8 4 -15 10 -15 15 0 5 7 9 15 9 8 0 15 4 15 9 0 6 15 12
33 14 17 2 35 5 39 5 4 1 9 -2 12 -7z m5246 -3633 c0 -7 22 -8 60 -4 64 7 184
-10 174 -25 -3 -5 12 -8 33 -6 21 3 28 2 16 0 -13 -2 -23 -8 -23 -13 0 -9 51
-16 235 -35 40 -4 125 -27 131 -36 3 -5 11 -6 17 -3 9 5 9 4 1 -5 -9 -9 -30
-11 -75 -6 -35 3 -92 7 -126 8 -35 0 -57 5 -50 9 7 4 -4 7 -25 5 -21 -1 -38
-3 -38 -5 0 -2 16 -10 35 -18 28 -11 40 -12 58 -3 19 10 20 10 10 -2 -9 -12
-4 -14 35 -12 34 2 41 0 27 -6 -17 -7 -15 -10 20 -20 51 -14 65 -14 65 2 0 9
3 8 9 -2 5 -7 13 -11 19 -7 7 4 9 -3 6 -18 -3 -20 1 -24 28 -30 17 -3 36 -2
41 3 6 6 3 8 -9 5 -21 -5 -52 11 -41 22 3 4 13 2 21 -5 8 -6 18 -11 22 -10 5
1 20 1 34 0 22 -1 23 -3 8 -12 -47 -27 3 -37 67 -13 11 4 17 3 13 -1 -16 -18
60 -50 142 -60 17 -2 34 -6 38 -9 5 -3 40 -8 78 -11 38 -3 77 -9 88 -12 12 -3
16 -1 12 6 -4 6 -2 11 4 11 23 0 4 -35 -20 -38 -14 -2 -21 0 -17 4 9 9 -184
37 -241 35 -23 -1 -40 6 -53 21 -11 13 -18 17 -17 9 2 -7 -2 -15 -9 -18 -8 -3
-11 3 -8 15 2 14 -3 22 -18 26 -26 7 -35 0 -19 -16 18 -18 15 -24 -11 -23 -28
2 -60 19 -55 31 4 12 -118 52 -181 58 -28 3 -60 10 -70 16 -11 5 -31 10 -45
10 -14 0 -26 5 -26 10 0 6 -5 10 -12 10 -6 0 -3 -10 8 -21 19 -22 19 -22 -3
-10 -26 13 -33 14 -33 2 0 -5 8 -12 18 -14 10 -3 5 -5 -13 -6 l-30 -2 25 -11
c15 -6 20 -12 12 -15 -7 -3 -23 2 -35 10 -23 15 -73 27 -122 30 -17 1 -39 12
-50 25 -16 19 -33 24 -83 28 -35 2 -68 5 -75 7 -7 1 -12 -7 -12 -18 0 -11 -7
-21 -16 -23 -13 -2 -16 4 -13 25 2 15 1 20 -2 10 -3 -9 -9 -15 -13 -12 -5 2
-8 -6 -7 -18 1 -17 8 -23 34 -25 40 -4 42 -18 3 -24 -17 -2 -28 -1 -25 4 4 7
-33 13 -58 10 -3 -1 -9 6 -12 14 -4 11 -1 14 13 9 21 -6 38 12 24 26 -4 4 -22
9 -39 11 -22 1 -30 7 -30 22 0 12 5 25 10 29 7 5 5 7 -4 4 -8 -2 -14 -11 -14
-20 1 -9 -4 -13 -13 -10 -8 3 -12 12 -9 20 3 8 2 12 -3 9 -5 -3 -14 0 -20 7
-8 11 1 18 49 33 32 10 54 21 48 25 -16 10 -4 44 15 43 9 -1 33 -5 53 -9 30
-5 36 -4 31 8 -4 11 0 13 14 10 10 -3 19 -10 19 -15z m990 -207 c30 -1 59 -6
65 -12 5 -5 35 -9 67 -9 37 0 57 -4 56 -11 -3 -11 82 -42 91 -34 2 3 -1 5 -8
5 -7 0 -9 5 -6 10 8 13 51 13 73 1 10 -5 53 -12 97 -16 82 -7 95 -10 95 -25 0
-15 -31 -40 -48 -39 -14 0 -14 2 -2 6 8 4 21 12 28 20 11 11 10 13 -10 14 -13
1 -54 3 -93 5 -118 7 -178 12 -213 19 -21 5 -43 3 -58 -5 -13 -8 -27 -10 -31
-7 -3 4 1 7 10 7 32 0 17 20 -15 21 -18 0 -45 3 -59 5 -21 3 -28 0 -32 -17 -5
-19 -10 -21 -44 -14 -38 8 -65 12 -93 15 -10 1 -8 4 6 10 11 4 40 4 65 0 24
-5 47 -6 52 -3 12 7 -3 23 -23 23 -20 0 -80 31 -80 42 0 4 12 3 28 -1 15 -4
52 -9 82 -10z m-912 -28 c15 3 37 8 50 12 14 5 22 3 22 -4 0 -6 -7 -11 -15
-11 -8 0 -15 -4 -15 -10 0 -10 34 -15 83 -12 16 1 26 -2 23 -7 -7 -10 39 -22
103 -26 24 -1 47 -8 51 -15 4 -6 10 -11 14 -11 26 4 56 0 52 -7 -2 -4 3 -8 12
-9 9 0 32 -4 51 -8 25 -6 32 -5 27 3 -11 18 20 14 35 -4 9 -11 25 -15 50 -12
21 2 37 -1 36 -6 -1 -6 8 -11 21 -12 12 -1 25 -4 28 -7 3 -3 18 -1 34 3 21 6
30 4 34 -5 3 -9 18 -12 40 -11 20 2 33 -1 30 -5 -3 -5 -19 -9 -35 -9 -17 0
-28 -4 -24 -10 8 -13 -52 -1 -90 18 -16 8 -61 19 -100 23 -38 4 -95 11 -125
15 -51 7 -54 6 -41 -9 7 -10 10 -17 5 -17 -5 0 -3 -4 5 -9 8 -5 11 -16 8 -24
-7 -18 -47 -42 -47 -29 0 6 10 12 22 15 18 5 19 8 8 21 -7 9 -19 16 -27 16 -8
0 -11 5 -8 10 3 6 0 10 -7 11 -7 0 -4 4 7 9 11 5 14 9 8 9 -7 1 -13 9 -14 19
0 10 -3 12 -6 5 -2 -7 -16 -13 -29 -13 -14 0 -22 4 -19 10 3 6 2 10 -4 10 -5
0 -11 -4 -13 -9 -1 -4 -23 -6 -48 -2 -34 4 -47 12 -55 29 -8 18 -18 22 -55 24
-25 0 -53 1 -62 0 -10 -1 -18 3 -18 8 0 6 8 10 18 11 9 0 -11 7 -45 16 -35 8
-63 18 -63 23 0 5 14 4 30 -2 17 -5 43 -8 58 -5z m276 -259 c9 -8 24 -14 33
-13 43 4 74 -1 67 -12 -4 -8 0 -9 15 -4 14 4 21 2 21 -6 0 -9 3 -10 11 -2 6 6
19 8 30 6 15 -4 17 -8 8 -19 -16 -20 -3 -30 16 -14 15 12 106 17 167 9 22 -3
27 -7 22 -21 -4 -14 0 -18 18 -19 21 -1 21 -1 -5 -11 -20 -7 -35 -7 -50 1
l-22 11 23 -6 c12 -3 22 -1 22 4 0 19 -45 28 -80 16 l-35 -13 35 -2 c21 -1 27
-3 15 -6 -44 -9 -49 -13 -37 -25 18 -18 14 -30 -5 -24 -10 3 -25 1 -33 -5 -12
-8 -9 -9 9 -4 16 5 21 4 17 -4 -9 -14 -43 -15 -51 -1 -4 6 -15 6 -31 0 -33
-13 -67 -13 -59 0 3 6 2 10 -4 10 -5 0 -11 -5 -13 -10 -2 -6 -11 -2 -19 9 -16
18 -15 19 32 25 26 4 51 11 54 16 4 6 -7 7 -27 4 -25 -4 -29 -3 -18 5 8 6 23
11 33 11 23 0 22 12 -4 28 -24 15 -41 6 -19 -9 12 -9 12 -10 -3 -5 -10 3 -33
6 -50 7 -28 0 -29 2 -12 10 18 8 18 9 -5 8 -51 -2 -67 3 -35 11 23 6 25 8 8 9
-12 0 -25 6 -28 11 -3 6 -16 10 -28 11 -13 0 -16 3 -8 6 11 5 11 7 0 14 -9 6
-10 9 -2 9 6 0 19 -7 27 -16z m496 -170 c0 -12 6 -15 26 -10 19 5 25 3 21 -6
-2 -7 -11 -12 -20 -12 -9 1 -14 -3 -11 -8 4 -6 27 -8 53 -4 35 4 40 3 21 -4
-23 -9 -23 -9 7 -7 18 2 30 0 28 -4 -6 -9 -55 -18 -55 -10 0 4 -17 7 -37 6
-32 0 -39 -4 -41 -23 -3 -17 2 -22 20 -23 21 -1 20 -2 -5 -9 -30 -9 -57 -4
-57 11 0 4 8 6 18 2 14 -5 15 -4 4 8 -10 10 -17 11 -31 2 -11 -7 -31 -9 -52
-4 -49 11 -167 5 -184 -9 -11 -9 -15 -9 -15 -1 0 22 134 58 146 39 3 -4 17 -5
31 -2 19 5 30 2 40 -12 9 -12 16 -15 21 -8 4 6 19 15 34 20 21 7 25 12 18 24
-8 11 -12 12 -18 3 -5 -9 -22 -10 -57 -4 -28 5 -44 9 -37 10 20 2 3 21 -19 21
-31 0 -22 15 11 16 16 1 28 -3 27 -9 -1 -5 13 -16 32 -24 30 -12 33 -12 28 1
-4 11 -1 13 10 9 12 -5 14 -3 8 6 -4 8 -2 17 6 22 21 13 29 11 29 -7z m-898
-115 c32 -5 68 -13 80 -18 40 -15 148 -24 148 -12 0 6 7 8 15 5 8 -4 13 -10
10 -14 -8 -13 27 -21 41 -9 11 9 14 8 14 -5 0 -12 -11 -16 -52 -17 -33 -1 -42
-4 -24 -6 17 -3 50 -2 74 2 40 6 42 8 25 20 -17 13 -17 14 2 13 11 -1 36 2 55
6 33 6 34 6 10 -6 -32 -17 -37 -38 -7 -38 16 0 18 3 9 9 -11 7 -10 10 3 15 26
10 105 7 105 -4 0 -6 -16 -8 -36 -5 -45 5 -69 -6 -34 -16 20 -6 17 -7 -17 -8
-23 -1 -45 -6 -48 -12 -4 -6 -14 -7 -24 -4 -13 6 -122 13 -218 15 -34 0 -29
30 5 31 24 1 23 2 -8 9 -77 17 -110 21 -110 11 0 -5 8 -12 18 -15 9 -3 -9 -3
-42 -1 -32 3 -65 10 -72 16 -11 9 -18 8 -31 -2 -14 -12 -16 -12 -11 1 2 8 18
18 34 21 26 6 16 14 -13 10 -7 -1 -13 6 -13 15 0 13 6 15 28 9 15 -4 53 -11
84 -16z m995 -73 c27 1 74 -1 106 -5 49 -7 62 -5 82 11 13 10 28 18 34 18 19
0 12 -20 -11 -31 -21 -9 -21 -9 5 -4 15 3 38 8 52 11 18 4 27 1 31 -10 8 -20
-12 -46 -35 -46 -14 1 -14 2 2 14 22 17 22 22 -3 22 -14 0 -20 -7 -20 -23 0
-15 -6 -24 -17 -25 -10 0 -25 -2 -33 -2 -8 -1 -19 3 -23 9 -5 5 -5 -1 -2 -14
5 -17 4 -22 -6 -19 -8 3 -13 17 -12 32 2 26 -12 36 -19 14 -2 -6 -18 -13 -35
-14 -17 -1 -37 -5 -43 -9 -9 -5 -10 -1 -5 16 8 24 8 24 -14 5 -11 -11 -24 -16
-28 -13 -3 4 0 7 7 7 7 0 10 3 6 7 -3 4 4 13 16 20 23 12 22 12 -8 13 -17 0
-50 -6 -72 -14 -22 -8 -50 -12 -61 -9 -32 8 -14 22 24 19 19 -1 35 1 35 6 0 4
-10 8 -21 8 -18 0 -20 2 -8 16 11 13 14 13 21 1 5 -11 21 -14 55 -11z"/>
<path d="M58 1106 c-26 -11 -27 -13 -12 -34 14 -21 14 -22 -13 -23 -25 -2 -26
-2 -4 -6 13 -3 27 -1 33 5 14 14 78 -10 78 -30 0 -10 -7 -18 -15 -18 -8 0 -15
3 -15 8 0 9 -86 9 -96 0 -14 -14 19 -38 50 -37 17 1 40 -2 51 -7 17 -7 18 -6
7 8 -12 15 -8 17 32 23 25 4 62 4 82 0 48 -8 42 15 -7 29 -29 8 -31 10 -11 14
16 2 22 10 22 28 0 23 -3 24 -70 24 -47 0 -72 4 -77 13 -6 11 -14 12 -35 3z"/>
<path d="M3663 959 c-4 -12 -11 -18 -20 -15 -8 3 -12 2 -9 -3 3 -4 -6 -14 -20
-21 -20 -11 -24 -19 -19 -39 6 -22 5 -23 -11 -10 -16 12 -17 12 -12 -1 5 -12
-2 -15 -35 -11 -27 2 -38 0 -33 -8 4 -6 18 -11 32 -11 26 0 29 -7 15 -29 -5
-8 -18 -12 -29 -9 -27 7 -51 -60 -34 -97 10 -21 8 -29 -18 -57 -17 -18 -33
-47 -36 -65 -3 -18 -10 -31 -14 -28 -4 3 -12 -8 -18 -23 -5 -16 -21 -41 -35
-56 -15 -16 -36 -48 -48 -72 -12 -26 -28 -44 -37 -44 -14 0 -15 -2 -3 -9 11
-7 6 -10 -19 -13 -18 -2 -36 -9 -38 -17 -3 -8 0 -11 6 -7 14 8 62 -14 62 -29
0 -7 -11 -10 -30 -7 -16 2 -30 9 -30 14 0 5 -4 7 -9 3 -5 -3 -12 -1 -16 5 -3
5 -14 10 -23 10 -12 0 -6 -10 21 -35 20 -18 37 -37 37 -40 0 -3 -13 -3 -30 0
-17 3 -30 1 -30 -5 0 -10 26 -14 73 -11 15 1 27 -3 27 -8 0 -6 -7 -11 -15 -11
-8 0 -15 -5 -15 -11 0 -5 4 -8 9 -5 14 9 41 -4 41 -20 0 -8 5 -14 11 -14 5 0
7 -5 4 -10 -3 -6 -2 -10 2 -10 5 0 17 -13 26 -30 l18 -29 -28 14 c-35 19 -54
19 -47 1 5 -14 39 -35 64 -40 8 -2 29 -8 45 -15 31 -13 119 -32 139 -30 6 1 0
5 -14 9 -25 8 -24 8 5 9 17 1 26 5 20 9 -11 8 -16 42 -6 42 4 0 17 -7 30 -16
15 -11 46 -17 86 -18 45 -1 69 -6 82 -19 14 -12 37 -17 82 -17 39 0 60 4 56
10 -3 6 -19 10 -35 10 -16 0 -32 5 -35 10 -3 6 -17 10 -30 10 -33 0 -42 20
-11 21 14 1 32 2 39 3 6 1 11 -5 10 -11 -3 -15 4 -15 32 -3 17 7 17 9 3 9 -10
1 -18 6 -18 11 0 6 -15 11 -32 11 -19 1 -25 3 -15 6 11 3 16 10 13 19 -3 8 -9
21 -12 29 -4 11 0 15 15 15 26 0 38 27 23 49 -7 9 -19 29 -28 45 -15 28 -15
30 2 43 11 8 13 13 5 13 -9 0 -12 10 -9 30 3 19 0 30 -8 30 -6 0 -17 6 -23 14
-10 12 -9 20 3 38 8 13 18 41 22 62 6 32 3 42 -12 54 -18 14 -18 14 6 8 14 -3
35 -6 48 -6 18 0 22 -6 22 -30 0 -26 -4 -30 -27 -31 -22 -1 -23 -2 -8 -6 24
-6 35 -21 35 -50 0 -16 -8 -23 -32 -28 -27 -6 -29 -9 -14 -17 12 -7 21 -7 29
1 13 13 41 15 33 2 -4 -5 -3 -17 0 -26 9 -22 71 -12 130 21 24 13 50 24 58 24
9 0 16 5 16 10 0 6 8 14 17 17 9 4 24 14 32 23 69 73 75 81 57 74 -14 -5 -17
-4 -11 5 6 10 2 11 -16 6 -13 -4 -27 -12 -30 -17 -3 -4 -14 -8 -25 -7 -10 1
-37 1 -59 0 -32 -2 -36 -4 -20 -11 20 -8 20 -9 -1 -9 -11 -1 -29 -7 -39 -15
-11 -8 -30 -12 -44 -9 -21 3 -23 2 -11 -12 11 -13 9 -15 -9 -15 -11 0 -21 5
-21 11 0 5 -4 8 -9 4 -5 -3 -12 -1 -16 5 -3 5 0 10 7 10 8 0 9 3 3 8 -6 4 -10
22 -10 40 0 29 2 32 23 27 15 -4 21 -2 17 5 -3 5 -1 10 4 10 6 0 11 -4 11 -9
0 -5 11 -4 24 2 16 8 20 14 13 19 -6 4 -14 3 -17 -2 -3 -5 -11 -6 -17 -2 -9 6
-9 15 3 37 8 16 14 36 13 44 -3 31 1 39 21 44 11 3 20 13 20 22 0 16 16 34 70
78 12 10 7 12 -30 15 -65 3 -187 30 -245 53 -59 23 -110 78 -100 109 4 11 3
20 0 20 -4 0 -9 -9 -12 -21z"/>
<path d="M90 940 c0 -5 -3 -9 -7 -9 -21 3 -32 -2 -27 -15 3 -8 -4 -16 -18 -20
-18 -5 -20 -8 -9 -15 16 -10 6 -31 -15 -31 -8 0 -14 -4 -14 -8 0 -4 24 -7 53
-6 32 1 61 -4 75 -13 13 -8 29 -12 35 -9 9 3 8 5 -1 5 -7 1 -11 5 -7 10 10 16
61 -8 74 -35 10 -23 9 -24 -8 -14 -25 13 -58 13 -66 0 -4 -6 5 -10 22 -9 15 0
42 -4 60 -9 25 -8 33 -7 37 4 3 8 0 14 -7 14 -8 0 -7 4 3 11 12 9 11 10 -7 6
-26 -6 -31 8 -7 17 23 9 74 7 74 -2 0 -4 -5 -13 -10 -18 -7 -7 5 -11 36 -13
30 -1 44 2 39 8 -3 6 0 11 9 11 8 0 16 -4 18 -9 4 -13 86 -22 93 -10 4 5 -4 9
-17 9 -33 0 -140 35 -132 43 4 4 16 7 26 7 10 0 18 5 18 10 0 6 10 15 23 20
21 8 21 9 -5 9 -19 1 -28 6 -28 17 0 13 -7 15 -37 10 -46 -7 -48 -7 -98 -1
l-40 5 35 -13 c19 -8 33 -17 30 -20 -3 -3 4 -13 15 -21 20 -15 20 -15 -2 -16
-13 0 -23 5 -23 10 0 13 -46 31 -82 32 -16 1 -28 5 -28 10 0 5 -14 7 -31 3
-28 -6 -30 -5 -24 14 4 13 2 21 -5 21 -6 0 -8 5 -5 10 3 6 1 10 -4 10 -6 0
-11 -4 -11 -10z"/>
<path d="M673 898 c-15 -15 -34 -28 -43 -28 -34 0 -16 -29 22 -35 43 -8 61
-25 26 -26 -21 -1 -21 -1 5 -11 29 -11 32 -15 17 -38 -5 -9 -5 -19 2 -27 8
-10 4 -13 -16 -13 -23 0 -31 -9 -27 -33 1 -4 -6 -10 -14 -13 -22 -9 -19 -21 8
-29 l22 -8 -23 -4 c-12 -2 -19 -9 -16 -15 4 -7 -4 -8 -24 -3 -18 3 -33 2 -37
-4 -4 -7 7 -11 31 -11 33 0 35 -2 23 -17 -12 -15 -12 -16 6 -8 11 4 31 9 45
10 14 1 17 0 6 -2 -11 -3 -26 -11 -33 -19 -12 -12 -8 -14 31 -14 43 0 69 -14
44 -23 -7 -2 -10 -8 -6 -12 4 -4 18 -1 31 8 13 8 29 12 38 7 29 -15 71 -21 63
-9 -4 7 -2 10 7 7 8 -3 14 -11 14 -19 0 -9 16 -16 50 -20 28 -3 41 -7 30 -8
-14 -2 -8 -8 23 -22 24 -10 41 -23 37 -29 -3 -5 2 -10 11 -10 10 0 14 -3 11
-7 -8 -8 -74 -6 -88 3 -6 4 -6 11 2 20 9 11 7 14 -9 14 -12 0 -24 -4 -27 -10
-3 -5 -18 -10 -33 -9 l-27 1 28 10 c15 5 26 15 24 21 -5 16 -72 13 -92 -3 -13
-11 -12 -14 11 -26 14 -8 35 -14 45 -14 11 0 19 -4 19 -10 0 -5 7 -10 15 -10
8 0 15 -9 15 -21 0 -11 -4 -17 -10 -14 -5 3 -10 1 -10 -5 0 -13 42 -30 74 -30
13 0 31 -10 42 -22 19 -21 19 -21 -1 -14 -11 4 -42 11 -70 15 -27 5 -70 16
-95 25 -25 10 -55 20 -67 23 -46 11 -21 20 45 17 41 -3 62 -1 53 5 -7 5 -10
14 -7 20 4 6 3 11 -3 11 -5 0 -13 -5 -16 -10 -7 -11 -110 -8 -122 4 -4 4 -1
11 7 16 9 6 10 10 3 10 -6 0 -15 -4 -18 -10 -4 -6 -17 -4 -35 5 -34 18 -40 18
-40 4 0 -5 17 -17 38 -26 37 -15 72 -41 72 -53 0 -13 -74 -42 -78 -31 -2 6
-15 11 -28 11 -13 0 -32 4 -42 9 -9 6 -30 13 -47 18 -29 7 -29 8 13 11 41 3
61 22 22 22 -12 0 -17 5 -14 14 7 17 -43 27 -153 31 -79 3 -83 3 -84 -18 -1
-12 -1 -26 0 -30 2 -14 -33 -67 -44 -67 -5 0 -3 -5 5 -10 13 -9 13 -10 0 -10
-8 -1 3 -8 25 -16 22 -8 57 -13 77 -12 21 1 43 -3 50 -10 7 -7 20 -12 29 -12
9 0 20 -7 23 -16 4 -9 13 -13 24 -10 10 4 34 -1 52 -11 43 -21 27 -27 -39 -15
-33 6 -51 6 -54 -1 -2 -7 -13 -7 -32 0 l-30 10 33 7 c34 8 35 26 1 26 -10 0
-19 4 -19 9 0 5 -15 9 -32 9 -18 0 -67 2 -108 5 -48 4 -64 3 -45 -2 17 -5 45
-9 62 -10 28 -1 32 -4 29 -23 -3 -26 -36 -38 -36 -14 0 20 -33 30 -107 30 -34
1 -65 4 -69 9 -9 9 -78 7 -119 -3 l-30 -7 25 -11 25 -11 -25 -1 c-23 -1 -24
-2 -7 -14 21 -16 23 -65 2 -72 -14 -6 -13 -8 2 -20 17 -13 17 -14 0 -8 -15 5
-17 -1 -17 -50 l0 -57 187 1 c156 1 194 5 233 20 47 19 143 39 210 45 19 2 49
8 65 14 71 25 136 41 161 41 41 0 142 20 199 40 100 34 125 41 134 36 5 -4 22
-1 38 5 50 20 247 71 283 73 19 1 40 5 47 9 6 4 13 1 16 -5 3 -9 10 -8 26 7
18 16 26 17 41 7 21 -13 66 -1 137 37 21 11 74 28 118 37 44 10 88 24 97 32
10 8 24 12 31 9 19 -7 93 38 78 47 -6 4 -8 12 -5 18 5 8 1 9 -10 5 -10 -4 -22
-7 -27 -7 -6 0 -8 -4 -5 -9 3 -5 -3 -11 -14 -14 -11 -3 -20 -1 -20 4 0 5 -7 9
-15 9 -8 0 -15 -3 -15 -7 0 -5 -18 -7 -40 -7 -23 1 -44 -4 -51 -12 -8 -10 -34
-14 -86 -14 -41 0 -72 -4 -69 -8 2 -4 -12 -9 -32 -10 -20 -2 -40 -8 -44 -15
-4 -6 -10 -8 -14 -4 -20 19 108 73 154 64 28 -5 52 1 52 13 0 4 -11 5 -24 3
-13 -3 -26 -1 -30 5 -8 13 55 25 68 12 5 -5 21 -9 36 -9 23 2 23 2 3 6 -29 5
-30 23 -2 23 11 0 18 4 14 10 -3 5 -13 6 -23 3 -14 -5 -15 -3 -4 8 15 16 16
29 1 29 -5 0 -7 -4 -4 -10 4 -6 -4 -9 -17 -7 -12 1 -23 -3 -23 -10 0 -16 -5
-18 -32 -9 -28 9 -31 30 -3 23 11 -3 20 -2 20 3 0 4 14 13 30 20 24 10 29 17
24 33 -4 14 -3 17 7 12 9 -6 11 -3 6 8 -3 10 -2 17 3 17 6 0 10 4 10 10 0 5
-7 6 -17 3 -11 -4 -14 -3 -9 5 4 7 3 12 -3 12 -5 0 -11 -6 -14 -12 -3 -10 -12
-9 -35 5 -44 25 -58 22 -38 -8 20 -30 20 -35 1 -35 -8 0 -15 5 -15 11 0 5 -5
7 -11 4 -15 -10 -3 -18 39 -30 19 -6 37 -16 40 -24 3 -10 0 -12 -12 -8 -9 4
-16 2 -16 -3 0 -15 -70 -24 -83 -11 -8 8 -5 11 13 12 14 0 19 3 12 6 -6 2 -10
9 -6 14 3 5 0 9 -5 9 -6 0 -11 -4 -11 -10 0 -21 -18 -9 -30 20 -12 29 -30 41
-30 20 0 -5 -4 -10 -10 -10 -5 0 -10 6 -10 14 0 13 -59 26 -122 26 -16 0 -27
4 -24 9 3 5 -5 11 -19 13 -30 6 -32 -3 -5 -27 12 -11 20 -31 20 -51 0 -18 6
-35 13 -37 7 -3 5 -6 -5 -6 -24 -1 -23 -13 2 -29 23 -14 27 -52 5 -52 -8 0
-15 5 -15 11 0 15 -30 43 -49 45 -17 3 -111 22 -151 32 -14 3 -40 5 -59 3 -24
-2 -31 1 -26 9 5 9 1 10 -14 5 -12 -4 -21 -2 -21 4 0 6 11 11 25 11 24 0 24 1
8 20 -17 20 -43 27 -43 12 0 -5 -18 -7 -40 -6 -22 1 -37 -2 -34 -7 3 -5 -1 -6
-9 -3 -8 3 -18 1 -22 -5 -3 -6 -17 -11 -30 -11 -13 0 -26 -6 -28 -12 -4 -10
-8 -9 -16 2 -8 11 -13 12 -19 3 -4 -6 -25 -14 -47 -18 -66 -12 -29 12 48 31
37 9 67 21 67 25 0 5 10 9 23 10 18 0 16 3 -11 13 -40 14 -31 28 12 21 22 -4
40 1 61 15 18 12 24 20 15 21 -8 0 -23 2 -33 4 -10 2 -20 -2 -23 -8 -2 -7 -19
-13 -37 -14 -25 -2 -29 0 -17 8 11 8 5 9 -23 5 -33 -4 -37 -3 -27 9 15 18 -1
20 -18 3 -9 -9 -12 -9 -12 0 0 7 -11 12 -25 12 -31 0 -33 20 -2 21 14 1 9 5
-16 11 -28 7 -46 7 -64 -1 -13 -6 -29 -9 -34 -6 -17 11 -9 31 19 42 15 7 20
11 12 11 -36 -2 -121 16 -131 28 -6 7 -17 10 -25 7 -8 -3 -14 0 -14 7 0 8 7
10 23 5 40 -13 127 -16 127 -5 0 6 -6 10 -12 9 -28 -3 -40 2 -35 15 4 9 -3 16
-18 18 -16 4 -22 1 -18 -9 6 -15 -13 -18 -22 -3 -4 6 -10 8 -15 5 -12 -8 1 39
14 47 6 4 1 6 -12 5 -12 -1 -34 -14 -49 -29z"/>
<path d="M3336 768 c4 -12 0 -20 -12 -25 -11 -3 -21 -10 -24 -13 -3 -4 -14 -4
-25 1 -19 7 -18 8 3 8 21 1 22 3 8 16 -16 17 -30 20 -21 6 3 -5 1 -12 -5 -16
-27 -16 11 -39 59 -35 24 2 24 2 -5 -23 -20 -18 -33 -22 -41 -15 -7 5 -17 7
-23 3 -6 -4 -11 -1 -9 6 1 8 1 19 0 25 -1 16 -50 27 -65 15 -7 -6 -17 -7 -21
-3 -5 4 -5 1 -1 -5 4 -7 16 -13 27 -13 11 0 19 -6 18 -12 -4 -34 5 -47 51 -72
59 -32 66 -41 43 -56 -15 -9 -14 -10 7 -4 38 11 66 44 36 44 -7 0 -16 9 -19
19 -7 29 21 14 39 -20 10 -21 22 -29 40 -29 23 0 26 4 22 25 -4 17 -1 25 8 25
13 0 18 11 12 26 -2 3 8 12 22 19 l25 13 -38 7 c-20 4 -37 13 -37 20 0 7 -7
18 -15 25 -21 17 -8 32 16 19 12 -6 23 -8 26 -5 12 12 -42 23 -59 12 -14 -8
-21 -6 -33 9 -12 16 -14 17 -9 3z"/>
<path d="M3060 680 c0 -6 9 -10 20 -10 11 0 20 -4 20 -8 0 -5 -15 -8 -34 -8
-19 1 -32 4 -29 9 8 12 -15 8 -29 -7 -23 -23 -58 -30 -58 -12 0 9 -4 16 -10
16 -5 0 -10 -7 -10 -15 0 -8 -11 -17 -25 -21 -14 -3 -25 -9 -25 -13 0 -4 -15
-13 -32 -20 l-33 -13 29 -9 c18 -5 34 -4 42 2 8 6 13 5 18 -6 7 -19 43 -19 90
0 38 16 62 12 50 -7 -4 -6 -2 -8 3 -5 6 4 16 0 23 -8 7 -8 24 -15 39 -16 14 0
19 -3 11 -6 -8 -2 -25 -9 -37 -15 -18 -9 -20 -13 -8 -24 10 -11 20 -12 40 -4
35 13 54 13 35 -1 -11 -8 -9 -9 10 -3 14 3 34 18 46 32 11 14 25 23 30 20 5
-3 15 0 22 8 10 11 10 14 0 15 -7 0 1 7 17 14 23 11 25 14 10 14 -42 1 -94
-12 -88 -22 4 -6 -4 -8 -21 -5 -14 3 -29 1 -32 -4 -3 -5 -16 -2 -30 6 -20 14
-23 14 -18 1 4 -8 2 -15 -3 -15 -5 0 -9 9 -10 21 -2 18 2 20 25 14 39 -11 59
-8 86 12 31 22 33 33 6 33 -11 0 -20 -4 -20 -8 0 -12 -61 -32 -74 -25 -6 4 3
12 19 19 l30 13 -27 1 c-30 0 -39 24 -13 34 8 3 15 10 15 16 0 6 -4 9 -9 6 -5
-4 -21 -2 -35 4 -17 6 -26 6 -26 0z"/>
<path d="M3 573 c7 -90 15 -137 24 -141 21 -7 35 -21 37 -38 3 -21 27 -26 34
-6 2 6 -1 12 -7 12 -6 0 -11 7 -11 15 0 8 4 15 9 15 5 0 17 3 27 7 11 4 15 3
11 -4 -8 -12 52 -26 75 -18 8 3 21 -2 29 -11 13 -16 11 -17 -13 -12 -15 3 -33
1 -40 -3 -8 -5 14 -8 52 -7 36 0 54 3 40 5 l-24 5 24 14 c25 13 25 13 -12 14
-27 0 -38 4 -38 15 0 8 -6 12 -14 9 -7 -3 -30 4 -50 14 -23 12 -32 22 -24 25
7 3 1 6 -13 6 -31 1 -47 27 -21 34 13 4 12 5 -4 6 -28 1 -41 41 -13 41 10 0
19 5 19 10 0 6 -6 10 -13 10 -23 0 -67 25 -67 38 0 6 -5 12 -11 12 -8 0 -10
-22 -6 -67z"/>
<path d="M276 534 c23 -22 41 -30 55 -27 13 4 19 1 17 -8 -2 -8 12 -15 37 -19
102 -18 125 -20 125 -10 0 5 -8 10 -17 11 -10 1 6 7 35 14 29 7 61 11 72 8 11
-3 20 -1 20 5 0 13 -43 23 -90 20 -20 0 -47 6 -60 15 -17 10 -57 16 -127 19
l-102 4 35 -32z"/>
<path d="M2271 468 c24 -17 52 -42 62 -55 42 -53 84 -91 123 -111 22 -11 46
-27 53 -35 6 -8 27 -18 46 -21 31 -6 55 -29 55 -54 0 -14 -82 10 -104 30 -13
12 -30 15 -62 12 -54 -5 -58 18 -4 27 l35 5 -30 9 c-16 4 -35 15 -41 24 -10
12 -15 13 -26 3 -8 -7 -30 -10 -49 -8 -19 2 -43 4 -54 5 -17 1 -18 3 -5 12 11
7 4 8 -25 4 -36 -6 -38 -5 -22 8 15 13 15 16 2 27 -11 9 -15 9 -15 1 0 -7 -4
-10 -8 -7 -5 3 -20 7 -34 10 -20 3 -25 0 -24 -12 2 -10 12 -21 24 -27 12 -5
22 -15 22 -22 0 -9 18 -13 59 -13 33 0 63 -5 67 -11 4 -7 -2 -10 -17 -8 -13 2
-31 -1 -39 -6 -8 -5 -22 -10 -30 -12 -24 -3 -154 30 -167 43 -7 7 -18 14 -25
17 -21 7 -2 19 34 22 17 1 34 8 36 15 3 9 -4 11 -26 8 -22 -3 -29 -1 -25 9 9
22 -23 14 -50 -12 -15 -16 -28 -22 -32 -15 -9 15 -41 12 -59 -5 -19 -19 -24
-19 -29 3 -3 11 -5 7 -6 -10 -1 -23 -7 -28 -43 -36 -32 -7 -37 -10 -18 -12 14
-1 33 -2 43 -1 9 1 17 -3 17 -10 0 -8 -21 -9 -77 -4 -61 5 -75 4 -66 -5 6 -7
9 -19 6 -27 -5 -13 1 -14 34 -8 42 7 69 -9 43 -25 -10 -6 -9 -9 1 -13 11 -4
11 -6 1 -6 -7 -1 -15 5 -18 13 -3 8 -12 12 -20 9 -15 -5 -94 26 -94 37 0 13
-47 8 -68 -6 -17 -11 -35 -14 -60 -9 -30 6 -34 4 -24 -8 7 -7 8 -17 4 -22 -4
-4 4 -5 17 -2 14 3 29 0 38 -9 9 -8 10 -14 3 -14 -6 0 -8 -4 -5 -10 3 -5 19
-10 34 -10 15 0 32 -5 39 -12 9 -9 12 -9 12 0 0 7 10 12 21 12 21 0 21 1 -4
20 -14 11 -33 20 -42 20 -9 0 -13 4 -10 10 9 15 33 12 53 -7 9 -10 30 -26 45
-36 32 -20 38 -44 7 -27 -16 9 -18 8 -14 -5 4 -8 12 -15 19 -15 7 0 15 -6 17
-12 3 -8 9 -4 17 10 12 22 41 31 41 12 0 -6 -5 -9 -11 -8 -6 2 -14 -3 -16 -11
-4 -9 0 -11 15 -7 11 4 23 2 27 -4 4 -6 -8 -11 -32 -12 -36 -1 -36 -1 -6 -5
19 -3 47 4 72 16 43 23 86 19 55 -4 -15 -11 -15 -12 5 -18 11 -3 21 -1 21 4 0
5 6 9 14 9 8 0 16 6 18 12 3 9 12 8 31 -5 30 -19 41 -22 32 -7 -3 6 1 7 9 4 9
-3 14 -11 13 -17 -1 -7 8 -11 21 -9 12 2 22 0 22 -3 0 -9 -23 -31 -40 -38 -12
-4 -11 -6 3 -6 9 -1 26 4 36 11 15 9 25 9 46 0 45 -20 107 -15 145 13 19 14
44 25 57 25 13 0 40 7 60 15 44 19 43 19 43 -5 0 -11 5 -20 10 -20 6 0 10 5
10 11 0 14 31 80 44 95 6 6 21 8 35 6 25 -4 26 -4 6 12 -19 16 -19 16 7 6 18
-6 29 -6 33 0 4 6 15 10 25 10 14 0 18 -5 13 -16 -5 -14 1 -15 48 -10 52 7 56
5 97 -31 128 -112 149 -123 243 -123 l72 0 -77 38 c-42 21 -73 41 -70 45 7 7
-11 11 -29 8 -5 -1 -20 8 -34 19 -17 13 -33 18 -47 14 -12 -4 -18 -3 -14 1 10
10 -10 35 -28 35 -7 0 -25 4 -39 10 -42 16 -19 29 24 14 35 -12 43 -11 68 2
25 14 26 15 4 10 -30 -6 -125 11 -129 24 -2 6 -15 10 -28 10 -18 0 -24 5 -22
17 2 10 -1 18 -7 18 -27 2 -65 16 -65 25 0 6 -9 10 -19 10 -11 0 -23 4 -26 10
-3 6 3 10 13 10 14 0 19 5 15 18 -4 17 -82 52 -117 52 -9 0 -16 5 -16 10 0 6
-9 10 -21 10 -12 0 -17 4 -13 11 4 8 -3 9 -25 4 -20 -4 -31 -3 -31 5 0 8 -6 8
-21 -1 -12 -6 -19 -7 -16 -2 3 5 -12 20 -34 33 -21 14 -39 28 -39 32 0 5 -10
8 -22 8 -17 0 -12 -6 23 -32z"/>
<path d="M2995 280 c31 -20 29 -23 -15 -21 -15 1 -2 -7 30 -19 49 -18 82 -43
152 -117 12 -13 25 -23 30 -23 15 0 47 34 41 43 -4 6 9 7 32 3 35 -7 37 -6 26
8 -8 9 -19 15 -25 14 -17 -3 -56 12 -56 23 0 5 -4 9 -10 9 -5 0 -7 -7 -4 -15
5 -12 1 -12 -28 2 -42 21 -49 27 -20 20 18 -4 21 -3 12 8 -16 19 -78 47 -89
40 -5 -3 -13 0 -17 6 -5 8 -3 10 7 4 11 -6 10 -4 -1 7 -8 9 -33 18 -55 22
l-40 6 30 -20z"/>
<path d="M1305 131 c-11 -5 -24 -6 -28 -4 -4 3 -13 0 -20 -6 -7 -5 -46 -12
-87 -14 -41 -2 -76 -9 -78 -15 -2 -6 -15 -9 -30 -7 -89 14 -113 15 -107 5 4
-6 -6 -10 -23 -10 -17 0 -32 -6 -36 -15 -6 -17 -36 -21 -36 -5 0 6 -7 10 -16
10 -12 0 -10 -5 7 -19 13 -11 21 -23 17 -27 -4 -4 -14 -1 -23 6 -11 9 -31 10
-72 4 -32 -4 -64 -6 -70 -5 -7 1 -13 -3 -13 -9 0 -8 -15 -9 -44 -5 -28 5 -46
3 -50 -4 -5 -8 76 -11 288 -11 226 0 296 3 300 13 5 9 7 9 12 0 7 -16 53 -17
91 -2 19 7 29 7 31 0 2 -6 30 -11 65 -10 l62 1 -75 14 c-41 7 -94 11 -116 8
-27 -4 -44 -2 -49 6 -12 19 0 22 94 22 53 0 89 4 85 9 -3 5 -24 9 -47 9 -31 0
-38 3 -27 10 8 5 25 10 38 10 22 0 22 1 6 25 -18 27 -19 28 -49 16z"/>
</g>
</svg>
