<?xml version="1.0" standalone="no"?>
<!DOCTYPE svg PUBLIC "-//W3C//DTD SVG 20010904//EN"
 "http://www.w3.org/TR/2001/REC-SVG-20010904/DTD/svg10.dtd">
<svg version="1.0" xmlns="http://www.w3.org/2000/svg"
 width="1182.000000pt" height="664.000000pt" viewBox="0 0 1182.000000 664.000000"
 preserveAspectRatio="xMidYMid meet">
<metadata>
Created by potrace 1.14, written by Peter Selinger 2001-2017
</metadata>
<g transform="translate(0.000000,664.000000) scale(0.100000,-0.100000)"
fill="#000000" stroke="none">
<path d="M0 4660 l0 -1980 69 0 c38 0 83 -3 101 -7 24 -4 31 -3 26 5 -4 7 -1
12 9 12 9 0 14 4 11 9 -7 11 59 26 152 37 35 4 69 12 75 18 7 7 35 16 62 22
40 8 57 7 85 -6 19 -8 38 -19 42 -25 5 -6 8 -5 8 3 0 6 11 12 25 12 28 0 32
18 13 50 -10 16 -10 24 0 41 11 17 11 23 0 36 -11 14 -9 19 16 37 30 21 60 50
129 124 36 39 37 41 18 52 -27 14 -46 49 -33 62 6 6 25 1 51 -13 24 -12 38
-25 33 -28 -6 -3 0 -11 14 -18 22 -10 24 -9 24 12 0 13 3 31 6 40 5 11 0 18
-14 22 -20 5 -20 7 -5 29 20 31 28 30 62 -8 l28 -32 19 30 c10 16 23 32 28 35
5 4 6 16 3 28 -3 12 0 27 7 34 7 7 19 26 27 42 11 22 21 29 37 28 25 -3 25 -3
12 31 -9 26 -8 28 35 64 8 7 15 24 15 37 0 13 5 27 11 31 6 3 18 22 26 41 17
42 22 39 27 -13 4 -50 14 -74 32 -74 8 0 14 -4 14 -10 0 -19 29 -10 55 16 23
23 26 35 27 93 0 67 1 68 34 83 19 9 36 12 39 8 3 -4 2 -28 -1 -53 -5 -33 -10
-44 -20 -40 -8 3 -14 0 -14 -6 0 -19 48 -13 53 7 3 12 6 8 11 -13 14 -56 14
-56 56 -53 50 4 53 21 5 28 -52 7 -48 25 7 28 l47 3 -5 52 c-4 47 -2 55 26 85
17 17 26 32 20 32 -18 0 9 42 31 47 10 3 16 9 13 14 -3 5 6 13 19 18 26 10 45
43 28 49 -6 2 -11 10 -11 17 0 7 -5 15 -11 17 -7 2 -13 18 -15 36 -4 31 -2 32
24 26 15 -3 42 -10 61 -16 24 -8 35 -7 41 2 10 17 76 30 89 17 7 -7 19 -6 40
3 26 11 30 16 27 48 -2 25 -10 40 -23 46 -13 6 -20 19 -19 33 1 29 23 30 52 2
34 -32 54 -20 41 24 -9 29 -16 35 -37 34 -21 -2 -25 3 -28 31 -3 34 -11 39
-29 21 -6 -6 -24 -12 -39 -13 -59 -5 -92 -18 -97 -38 -5 -16 -9 -18 -26 -8
-12 6 -21 17 -21 24 0 8 -8 16 -19 19 -25 6 -23 53 2 49 11 -2 15 2 11 13 -3
8 -2 15 4 15 6 0 8 8 5 19 -3 10 0 22 6 25 6 4 11 2 11 -5 0 -8 4 -8 15 1 8 7
15 19 15 26 0 8 11 16 25 20 23 6 36 24 16 24 -18 0 -19 28 -2 46 9 11 15 27
13 37 -2 12 4 20 17 24 24 6 26 15 9 42 -9 15 -16 17 -45 8 -18 -6 -33 -15
-33 -22 0 -6 -17 -12 -40 -12 -22 0 -40 3 -40 8 0 5 5 9 11 9 6 0 9 6 6 13 -7
20 12 47 29 40 12 -4 13 -8 3 -14 -8 -5 4 -8 30 -7 41 0 42 1 36 27 -4 17 -3
22 4 12 7 -11 10 -9 16 9 6 20 12 22 54 18 25 -3 38 -3 28 -1 -29 7 -9 23 29
23 33 0 46 -13 22 -23 -7 -3 7 -5 32 -5 38 0 41 1 15 7 -20 4 -26 9 -17 14 15
10 51 0 70 -20 11 -10 17 -11 28 -2 8 6 14 8 14 4 0 -4 7 -2 15 5 8 7 13 16
10 20 -2 4 14 5 36 3 22 -3 45 0 52 5 8 7 18 7 27 2 13 -9 13 -10 0 -10 -9 -1
-6 -5 8 -10 28 -12 52 -3 45 16 -7 18 4 18 23 -1 37 -36 194 -42 220 -7 9 12
13 12 26 -2 9 -9 27 -16 39 -16 22 0 22 0 3 16 -18 14 -18 15 4 4 13 -6 31
-13 40 -15 27 -6 79 -13 60 -8 -24 6 -23 23 1 23 11 0 23 5 27 11 5 8 10 6 16
-5 5 -9 20 -16 32 -16 13 0 27 -7 30 -17 6 -15 8 -15 19 0 14 19 119 38 139
26 21 -13 50 -11 43 4 -4 6 0 4 8 -5 16 -20 37 -24 37 -8 0 6 7 10 15 10 8 0
15 -7 15 -15 0 -12 4 -14 15 -7 9 5 37 4 66 -2 41 -8 52 -8 59 4 6 9 5 17 -3
22 -7 4 -8 8 -2 8 6 0 17 -6 24 -12 9 -8 11 -8 8 -2 -11 19 19 24 44 7 12 -9
19 -11 15 -5 -4 7 -1 19 7 27 9 8 17 19 19 25 2 7 14 7 36 1 21 -6 32 -6 32 0
0 6 12 9 28 7 21 -2 28 -9 30 -30 3 -28 17 -38 24 -17 3 8 15 6 38 -6 26 -14
38 -15 52 -6 12 8 18 8 18 0 0 -5 4 -8 9 -4 5 3 12 1 16 -4 3 -6 26 -13 50
-17 26 -3 49 -13 54 -23 5 -9 13 -13 17 -9 3 4 20 0 36 -8 16 -8 33 -12 38 -9
6 4 13 -1 16 -9 7 -19 54 -22 54 -3 0 9 3 8 9 -2 6 -9 21 -12 44 -9 20 2 33 0
31 -4 -3 -4 8 -8 24 -8 16 0 43 -7 58 -15 16 -8 30 -11 32 -6 4 12 62 -21 62
-35 0 -13 28 -27 40 -19 4 3 10 -4 13 -15 7 -28 -4 -100 -15 -100 -6 0 -28
-18 -49 -40 l-39 -40 6 -112 c3 -62 10 -114 15 -116 5 -2 9 -10 9 -18 0 -8 5
-14 10 -14 6 0 10 7 10 15 0 9 6 12 15 8 14 -5 14 -8 0 -29 -9 -14 -13 -29
-10 -33 3 -5 -1 -12 -7 -14 -10 -4 -10 -8 1 -15 7 -5 11 -18 7 -28 -3 -11 -1
-26 4 -34 8 -12 10 -12 10 -1 0 11 3 11 15 1 20 -17 54 -3 61 26 3 13 12 24
19 24 7 0 27 3 44 6 28 6 31 4 31 -17 0 -30 46 -99 65 -99 8 0 15 -4 15 -10 0
-5 6 -10 14 -10 16 0 28 -24 30 -59 1 -13 12 -31 24 -39 12 -8 22 -24 22 -37
0 -12 9 -30 20 -40 11 -10 20 -25 20 -34 0 -9 7 -27 16 -40 15 -20 18 -21 26
-8 5 9 14 14 21 11 8 -2 27 2 43 11 16 8 46 15 67 15 30 0 37 -4 37 -20 0 -12
7 -20 18 -21 10 0 12 -3 5 -6 -18 -7 -16 -21 5 -26 16 -4 16 -5 -1 -6 -17 -1
-17 -11 0 -74 4 -16 0 -17 -34 -12 -50 9 -94 20 -167 39 -32 9 -61 15 -63 13
-3 -4 191 -60 250 -72 15 -3 27 -10 27 -15 0 -15 -68 -12 -133 5 -32 8 -61 15
-65 15 -15 -1 56 -28 105 -39 31 -8 50 -17 47 -23 -6 -10 -69 -7 -124 6 -14 4
-9 0 10 -8 19 -8 45 -15 58 -15 12 -1 22 -7 22 -16 0 -18 -38 -20 -89 -5 -59
17 -45 3 16 -16 l58 -18 -40 -12 c-25 -7 -34 -13 -25 -17 9 -3 10 -6 3 -6 -7
-1 -13 -6 -13 -12 0 -7 11 -4 26 6 22 14 37 16 83 9 31 -4 70 -7 86 -6 20 2
26 0 17 -6 -9 -6 -11 -18 -6 -37 6 -23 4 -27 -8 -22 -9 3 -21 0 -27 -6 -17
-17 -13 -26 11 -19 15 4 19 2 13 -7 -4 -8 -17 -10 -31 -7 -38 10 -84 -19 -83
-52 1 -23 2 -24 7 -7 5 14 16 20 37 21 17 0 29 5 28 11 -1 6 6 9 16 6 10 -2
26 3 35 12 16 16 19 15 52 -21 20 -23 42 -38 52 -36 14 2 15 1 2 -7 -12 -9
-10 -16 18 -44 17 -18 32 -40 32 -49 0 -15 49 -51 93 -70 28 -12 19 -27 -21
-33 -62 -10 -85 -16 -80 -20 2 -3 28 -1 57 4 56 9 91 5 91 -10 0 -5 7 -9 15
-9 8 0 15 -9 15 -20 0 -11 0 -23 0 -27 0 -4 -11 -8 -26 -10 -16 -3 -23 0 -19
7 3 5 1 10 -5 10 -6 0 -13 -7 -16 -15 -4 -10 -21 -15 -53 -16 -25 0 -55 -5
-66 -10 -21 -10 126 -4 195 8 l35 5 -22 -21 c-12 -11 -27 -21 -33 -21 -5 0
-10 -4 -10 -10 0 -5 5 -10 12 -10 25 0 -8 -18 -42 -23 -60 -8 -204 -48 -215
-59 -7 -7 -1 -8 20 -3 71 17 163 36 195 40 l35 5 -35 -12 c-19 -6 -71 -21
-115 -34 -112 -32 -75 -29 85 6 177 39 196 37 42 -5 -138 -38 -166 -48 -107
-39 61 9 80 13 168 34 86 21 104 24 95 15 -3 -3 -48 -17 -99 -31 -52 -14 -111
-29 -133 -35 -21 -6 -36 -12 -34 -15 3 -2 69 10 148 26 161 34 216 35 70 2
-52 -13 -115 -29 -140 -37 l-45 -15 45 6 c25 3 72 11 105 19 64 15 147 28 130
21 -5 -3 -47 -15 -92 -27 -93 -24 -115 -44 -25 -23 64 15 115 18 72 4 -14 -4
-45 -13 -68 -20 -67 -18 -46 -20 53 -4 151 23 154 15 7 -17 -75 -17 -79 -19
-32 -15 30 3 71 8 90 11 l35 6 -33 -15 c-18 -9 -83 -23 -145 -32 -113 -16
-164 -30 -154 -40 3 -3 14 -1 25 5 12 6 39 11 62 11 36 0 123 17 240 47 48 12
61 13 56 4 -3 -5 4 -7 16 -4 38 10 10 -11 -30 -22 -40 -11 -55 -41 -25 -47 10
-3 -4 -8 -30 -13 -35 -5 -47 -11 -43 -21 3 -9 -2 -14 -14 -14 -10 0 -21 -4
-24 -8 -3 -5 8 -6 25 -4 17 2 29 0 29 -7 0 -7 8 -8 26 0 15 5 29 7 33 4 7 -8
-19 -24 -39 -26 -48 -3 -161 -42 -137 -47 10 -2 24 1 31 7 13 11 112 18 121 9
3 -3 -23 -18 -57 -34 -61 -28 -62 -29 -31 -32 20 -2 37 -11 43 -23 9 -16 7
-19 -15 -19 -14 0 -25 -4 -25 -10 0 -5 -9 -10 -21 -10 -22 0 -109 -37 -109
-46 0 -4 16 -4 35 -2 54 6 44 -19 -20 -47 -64 -29 -74 -55 -21 -55 19 0 38 -5
41 -10 3 -6 0 -10 -7 -10 -7 0 -22 -11 -32 -25 -10 -14 -23 -25 -28 -25 -15 0
-35 -24 -30 -38 2 -6 -3 -12 -12 -12 -23 0 -20 -21 4 -27 25 -7 16 -23 -13
-23 -13 0 -40 -9 -62 -20 -22 -11 -46 -20 -55 -20 -9 0 -21 -5 -26 -10 -6 -6
-30 -14 -55 -19 -26 -5 -34 -9 -19 -10 35 -1 147 24 192 43 20 9 39 12 42 8
10 -17 -103 -59 -219 -83 -32 -6 -26 -7 25 -4 36 3 81 7 100 10 19 2 26 2 15
-2 -11 -3 -31 -10 -45 -16 -35 -14 -49 -17 -102 -24 -27 -3 -48 -10 -48 -16 0
-5 14 -8 33 -5 17 3 43 1 57 -3 24 -8 24 -8 -5 -6 -17 1 -36 -2 -43 -7 -8 -4
-53 -14 -100 -22 -86 -13 -86 -13 -20 -9 50 3 67 1 65 -8 -4 -20 -20 -26 -62
-23 -31 3 -33 2 -10 -3 25 -5 27 -8 12 -14 -10 -4 -35 -7 -55 -7 -36 -1 -37
-1 -13 -14 24 -13 24 -14 -17 -21 -53 -9 -66 -26 -15 -19 21 3 52 7 68 9 l30
4 -30 -14 c-16 -8 -39 -14 -50 -15 -11 0 -42 -11 -70 -24 -46 -23 -48 -24 -15
-19 19 4 102 28 184 55 102 33 153 45 160 38 5 -5 8 -10 4 -10 -3 0 -36 -11
-74 -25 -38 -14 -100 -37 -139 -50 -159 -55 -181 -64 -153 -65 15 0 80 18 145
39 193 65 292 93 316 89 12 -2 -86 -38 -218 -82 -132 -43 -251 -82 -264 -87
-43 -17 -16 -19 40 -3 30 8 68 18 84 20 17 3 39 9 50 14 18 8 124 40 132 40 2
0 3 -7 3 -15 0 -8 5 -15 10 -15 6 0 10 6 10 14 0 22 22 34 78 42 l52 7 0 -42
c0 -37 -2 -41 -25 -41 -18 0 -25 5 -25 19 0 21 -26 36 -35 21 -4 -6 -3 -15 1
-22 4 -7 3 -8 -4 -4 -11 6 -18 -19 -13 -46 0 -5 -3 -8 -9 -8 -5 0 -10 -11 -10
-24 0 -54 -21 -71 -46 -38 -13 16 -15 15 -37 -8 -12 -14 -33 -33 -47 -43 -14
-10 -25 -23 -25 -30 0 -6 -9 -13 -20 -15 -35 -6 -75 -24 -75 -35 0 -5 8 -16
18 -23 16 -12 16 -13 -3 -19 -11 -4 -28 -11 -37 -16 -10 -5 -22 -9 -28 -9 -6
0 -23 -9 -38 -20 -15 -10 -50 -22 -78 -26 -47 -6 -53 -4 -87 25 -30 27 -43 32
-79 30 -57 -3 -68 -8 -68 -29 0 -10 6 -21 13 -24 9 -4 9 -8 1 -11 -7 -3 -10
-15 -7 -26 3 -10 0 -26 -7 -34 -15 -18 1 -20 19 -2 10 10 11 9 6 -6 -7 -16
-18 -21 -37 -18 -10 1 -10 -20 0 -35 4 -7 18 -14 32 -17 22 -4 21 -4 -7 -6
-17 0 -35 -6 -38 -11 -10 -16 5 -70 19 -70 13 0 39 -44 40 -67 1 -7 10 -19 21
-27 19 -14 16 -15 -36 -16 -66 0 -155 -40 -172 -77 -6 -13 -22 -26 -36 -29
-73 -14 -102 -27 -125 -55 -14 -17 -26 -37 -26 -44 0 -7 -6 -16 -12 -18 -10
-4 -10 -6 0 -6 7 -1 12 -14 12 -31 0 -24 -4 -30 -20 -30 -12 0 -31 -11 -44
-25 -13 -14 -33 -25 -46 -25 -13 0 -40 -19 -66 -46 -41 -41 -47 -45 -62 -32
-9 8 -30 14 -47 13 -16 0 -41 2 -55 6 -14 3 -33 3 -42 0 -14 -5 -5 -16 39 -53
43 -36 60 -45 70 -36 7 6 13 6 13 1 0 -12 -39 -48 -60 -56 -11 -4 -12 -6 -1
-6 8 -1 1 -14 -18 -33 -17 -17 -31 -37 -31 -44 0 -7 -6 -15 -12 -17 -7 -3 188
-6 434 -6 l448 -1 35 38 c19 20 35 43 35 50 0 22 83 166 109 189 l24 23 30
-41 c17 -22 26 -44 21 -47 -5 -4 -22 -26 -37 -49 -25 -39 -57 -58 -57 -33 0 6
-4 10 -10 10 -5 0 -10 -6 -10 -12 0 -16 -54 -75 -95 -105 l-30 -22 708 -1
c448 0 707 4 707 10 0 5 -7 31 -16 57 -12 36 -14 51 -5 65 6 10 11 25 11 33 0
9 9 15 25 15 14 0 24 -3 23 -8 -3 -12 21 -88 37 -119 8 -15 15 -34 15 -40 0
-10 44 -13 188 -13 188 0 236 5 226 21 -8 14 14 11 47 -7 17 -8 36 -13 42 -10
7 2 4 5 -6 5 -10 1 -16 5 -13 10 3 5 14 7 25 4 10 -2 26 4 36 14 15 14 18 15
13 2 -3 -9 -2 -22 3 -30 8 -12 10 -12 18 0 6 10 13 11 29 2 11 -6 36 -11 54
-11 26 0 30 3 18 11 -12 9 -11 9 5 3 31 -13 616 -17 628 -5 8 8 7 11 -3 11 -9
0 -7 5 6 14 18 14 18 15 -3 13 -13 -1 -23 -5 -23 -10 0 -5 -15 -6 -34 -3 -20
4 -37 2 -41 -4 -3 -5 -11 -10 -16 -10 -5 0 -2 11 6 24 14 21 14 24 1 29 -9 4
-18 2 -21 -3 -4 -6 -13 -10 -21 -10 -8 0 -13 4 -10 8 3 5 -17 14 -45 21 -27 7
-46 17 -43 22 3 6 10 6 17 1 17 -13 41 -11 55 4 10 11 7 13 -18 10 -40 -5 -46
8 -15 32 22 17 23 21 8 26 -9 4 -20 2 -23 -5 -6 -8 -9 -7 -14 2 -5 11 -7 11
-12 2 -9 -19 -32 -16 -30 4 1 13 -6 18 -21 17 -13 0 -21 1 -18 4 7 8 -15 42
-28 42 -7 1 -30 9 -52 20 -45 22 -59 25 -50 10 3 -5 2 -10 -3 -10 -18 0 -21
28 -4 42 9 7 13 8 9 2 -5 -9 9 -11 48 -9 58 4 74 -8 28 -20 -26 -7 -26 -8 -8
-15 11 -4 23 -3 27 3 6 10 66 13 76 3 3 -3 -9 -6 -27 -6 -19 0 -30 -4 -26 -10
7 -12 52 -13 59 -2 3 5 31 7 63 5 39 -3 53 -1 44 5 -10 7 -5 9 17 8 45 -2 50
-14 9 -21 -23 -5 -38 -15 -46 -31 -15 -33 -14 -39 4 -24 13 10 19 9 36 -6 l21
-19 -24 -7 c-12 -4 -2 -4 25 -1 39 4 46 3 42 -10 -4 -9 1 -16 15 -20 12 -3 23
0 26 7 3 7 18 13 34 14 25 1 28 -3 27 -26 -2 -25 1 -27 46 -30 26 -2 47 1 47
6 0 10 77 -5 95 -18 6 -4 36 -13 68 -20 37 -7 57 -16 57 -26 0 -8 -5 -14 -11
-14 -5 0 -7 4 -4 10 3 5 -1 10 -9 10 -8 0 -18 -4 -21 -10 -3 -5 -2 -10 4 -10
6 0 8 -7 5 -15 -8 -19 0 -19 36 0 17 9 30 11 30 6 0 -5 15 -6 35 -1 30 7 34 6
24 -6 -10 -12 -4 -14 35 -14 54 0 58 6 14 20 l-33 10 33 -5 c23 -3 31 -1 26 6
-4 7 -1 10 7 7 8 -3 13 -13 13 -22 -1 -10 6 -16 17 -16 11 0 19 6 19 13 0 8 4
7 10 -3 9 -13 10 -13 10 1 0 8 -7 24 -15 35 -19 26 -19 31 5 37 17 4 20 2 15
-14 -4 -10 -2 -19 2 -19 5 0 18 -6 29 -14 18 -14 18 -15 -6 -24 -16 -6 164
-10 514 -10 499 -1 540 0 552 16 9 12 13 13 14 4 0 -9 7 -11 20 -7 11 4 20 2
20 -4 0 -15 57 -14 63 2 3 9 9 9 26 0 25 -16 90 -17 128 -2 19 7 29 7 31 0 2
-7 46 -11 118 -11 97 0 113 2 108 15 -4 9 0 15 9 15 9 0 23 3 32 6 9 4 15 3
14 -2 -1 -5 -1 -14 0 -21 1 -10 256 -13 1166 -13 l1165 0 0 256 0 256 -40 -4
c-21 -2 -37 -1 -34 1 2 2 -1 9 -6 16 -7 9 -1 11 23 11 17 -1 38 -5 45 -10 10
-6 12 232 10 1227 -3 1160 -4 1236 -20 1254 -10 11 -18 28 -18 39 1 15 5 12
18 -11 l17 -30 3 45 c3 38 0 48 -22 65 -14 12 -26 26 -26 32 0 16 26 23 39 10
8 -8 11 445 11 1736 l0 1747 -5910 0 -5910 0 0 -1980z m5198 -777 c7 -7 22
-13 32 -13 22 0 39 -22 22 -28 -7 -2 -12 -10 -12 -19 0 -23 -22 -39 -60 -41
-19 -2 -45 -10 -58 -18 -13 -9 -26 -13 -29 -10 -8 8 8 86 18 86 5 0 9 14 9 31
0 28 2 30 33 27 17 -1 38 -8 45 -15z m5225 -941 c12 -29 13 -49 7 -78 -5 -21
-7 -40 -5 -43 3 -2 0 -10 -6 -18 -9 -10 -8 -13 5 -13 9 0 16 -7 16 -15 0 -8
-7 -15 -15 -15 -8 0 -15 -7 -15 -15 0 -8 -7 -15 -15 -15 -18 0 -18 -1 0 75
l14 60 -27 -31 c-26 -31 -28 -31 -59 -18 -37 16 -41 36 -19 79 17 32 33 45 59
45 21 0 22 -23 2 -44 -33 -32 -8 -49 32 -21 18 13 20 18 10 40 -7 14 -15 25
-19 25 -5 0 -8 9 -8 20 0 34 27 22 43 -18z m-3797 -1818 c25 -8 57 -13 71 -9
31 7 236 -25 245 -39 6 -8 8 -8 8 0 0 6 14 9 33 7 40 -5 195 -29 262 -42 45
-9 43 -9 -25 -4 -41 2 -88 8 -105 13 -64 18 -90 21 -80 12 15 -15 130 -42 176
-42 21 0 39 -5 39 -11 0 -5 4 -8 9 -4 5 3 12 1 16 -5 3 -5 14 -10 23 -9 14 0
13 2 -3 9 -20 9 -20 9 1 9 11 1 25 -4 32 -11 6 -6 33 -13 59 -14 27 -1 57 -4
68 -7 21 -5 87 -14 165 -21 77 -8 180 -30 180 -39 0 -4 -5 -5 -11 -1 -6 3 -15
1 -19 -6 -6 -10 -23 -9 -80 4 -65 14 -92 15 -79 1 3 -2 47 -9 99 -16 70 -9
101 -18 119 -33 13 -12 21 -15 17 -8 -5 9 7 12 51 11 32 -1 50 -3 41 -6 -16
-4 -16 -6 -3 -19 9 -9 23 -13 34 -9 43 13 64 13 134 -2 39 -8 92 -15 117 -14
25 0 52 -4 60 -10 11 -7 -8 -9 -65 -5 -44 3 -110 7 -146 9 -36 2 -70 7 -76 10
-7 4 -14 3 -18 -2 -3 -6 -24 -5 -53 4 -40 11 -173 35 -198 35 -5 0 -4 -4 1 -9
12 -11 222 -50 283 -53 26 -1 41 -6 39 -12 -2 -6 -20 -10 -40 -9 -27 2 -35 -1
-31 -12 3 -8 12 -11 21 -8 10 4 14 2 10 -4 -4 -6 -1 -14 5 -17 7 -3 -3 -4 -22
-3 -29 2 -34 -1 -32 -17 3 -17 2 -18 -12 -3 -20 19 -20 27 -1 41 10 7 12 16 6
25 -8 13 -12 13 -27 0 -11 -9 -15 -9 -10 -1 4 7 1 12 -8 12 -19 0 -22 -36 -3
-43 6 -2 -4 -5 -23 -5 -19 -1 -42 -1 -50 -2 -16 -1 -86 7 -167 19 -31 5 -56 4
-62 -2 -5 -5 -17 -7 -27 -4 -15 4 -14 5 4 6 29 1 19 21 -11 22 -21 0 -21 1 2
10 13 5 29 6 35 1 10 -8 111 -27 184 -35 34 -4 44 8 15 17 -10 3 0 3 22 1 28
-3 35 -2 25 5 -12 8 -10 10 10 10 20 0 22 2 10 10 -8 5 -31 10 -51 10 -20 0
-50 7 -65 15 -36 18 -68 20 -58 3 6 -10 4 -10 -7 0 -7 6 -30 12 -51 12 -21 0
-38 4 -38 10 0 5 23 8 51 7 34 -1 53 2 56 10 3 9 -5 11 -29 8 -18 -3 -27 -3
-20 1 18 8 4 24 -21 24 -18 0 -19 -2 -7 -10 13 -9 13 -10 0 -10 -9 0 -22 6
-28 12 -10 10 -15 10 -20 1 -5 -8 -13 -7 -27 4 -11 9 -13 13 -5 10 8 -2 24 0
35 6 16 9 3 13 -73 24 -60 8 -101 9 -117 3 -15 -6 -27 -6 -30 0 -4 6 2 10 11
10 29 0 12 7 -36 14 -44 7 -48 -6 -5 -17 11 -3 2 -5 -20 -6 -37 -2 -38 -3 -15
-12 13 -6 34 -8 46 -5 12 3 24 2 26 -3 2 -5 19 -12 38 -16 33 -6 34 -6 15 8
-22 17 -15 33 10 24 22 -9 19 -44 -5 -52 -10 -3 -28 -1 -39 4 -11 6 -28 11
-38 11 -10 -1 5 -12 32 -25 58 -28 89 -33 59 -10 -18 14 -18 15 6 12 14 -1 31
-10 38 -19 7 -10 29 -20 50 -23 20 -3 55 -10 77 -15 77 -18 128 -23 121 -12
-4 6 2 8 13 5 11 -3 22 -11 25 -19 4 -12 -4 -14 -43 -12 -27 2 -48 5 -46 8 2
3 -4 6 -13 7 -9 1 -60 9 -112 17 -119 21 -137 23 -179 25 -24 1 -32 5 -28 15
7 16 -82 57 -123 56 -37 -1 -90 11 -90 20 0 4 -13 10 -29 12 -20 3 -27 0 -24
-8 3 -9 -3 -11 -19 -8 l-23 5 23 -11 c13 -5 28 -8 33 -4 5 3 16 1 26 -4 13 -8
11 -11 -16 -17 -21 -4 -37 -2 -47 6 -13 10 -17 10 -24 -2 -7 -11 -2 -16 23
-21 18 -4 38 -5 46 -2 8 2 18 -1 22 -8 6 -9 11 -9 22 0 12 10 16 10 20 -1 3
-9 23 -14 53 -15 61 -3 72 -12 13 -12 -82 1 -200 27 -221 49 -18 20 -30 25
-55 22 -6 -1 -14 3 -18 9 -8 13 -95 13 -95 1 0 -5 -10 -11 -22 -13 -17 -3 -13
-6 17 -12 22 -4 57 -14 78 -22 20 -8 50 -14 65 -14 15 0 33 -5 38 -10 6 -6 29
-12 52 -13 22 0 39 -4 37 -8 -3 -3 16 -5 41 -3 31 2 43 0 38 -8 -5 -8 3 -9 27
-5 21 4 29 4 20 -2 -10 -6 -10 -10 -1 -16 6 -4 14 -5 17 -2 3 3 15 2 28 -3 16
-6 30 -4 46 8 22 15 23 15 10 -1 -12 -15 -11 -17 6 -17 10 0 28 -7 41 -15 17
-12 26 -13 42 -5 16 9 22 8 26 -5 3 -8 13 -15 21 -15 8 0 11 5 8 10 -3 6 -1
10 4 10 6 0 11 -5 11 -11 0 -6 9 -8 20 -4 11 4 20 2 20 -4 0 -6 12 -8 32 -4
26 5 30 4 25 -10 -5 -13 0 -17 21 -17 44 0 72 -11 73 -29 0 -10 2 -11 6 -3 5
13 75 18 70 5 -1 -5 3 -8 8 -8 6 0 9 3 8 6 -1 3 9 4 22 1 14 -2 25 -9 25 -14
0 -5 4 -7 9 -3 6 3 36 1 68 -5 32 -6 66 -11 76 -11 9 0 15 -4 12 -9 -3 -4 1
-10 7 -13 7 -2 1 -4 -14 -4 -15 0 -25 3 -22 8 3 5 0 9 -5 9 -6 0 -11 -4 -11
-10 0 -13 -37 -13 -44 -1 -4 5 0 12 6 15 7 3 3 3 -9 1 -12 -3 -24 -1 -28 5 -3
5 -11 10 -16 10 -6 0 -7 -4 -4 -10 7 -11 -15 -13 -40 -4 -13 5 -14 8 -3 15 10
7 9 9 -4 9 -10 0 -18 -4 -18 -10 0 -16 -30 -12 -36 5 -4 8 -10 15 -15 15 -5 0
-4 -9 3 -20 7 -11 21 -20 30 -20 10 0 18 -5 18 -11 0 -7 -10 -9 -25 -5 -14 4
-25 2 -25 -3 0 -5 -9 -11 -20 -14 -11 -3 -20 -2 -20 3 0 4 -14 10 -32 14 -24
5 -29 9 -20 18 8 8 15 8 26 -1 11 -9 16 -9 22 0 5 9 9 7 15 -7 6 -18 7 -18 14
-1 10 24 8 25 -55 32 -35 4 -50 3 -42 -3 11 -7 11 -10 -2 -15 -9 -4 -13 -12
-11 -19 4 -9 -6 -14 -30 -15 -47 -4 -101 -4 -122 -2 -10 2 -28 -1 -40 -5 -18
-6 -22 -4 -17 8 8 22 -2 20 -26 -4 -23 -23 -46 -18 -54 12 -4 18 -7 19 -20 8
-21 -16 -20 -28 1 -26 9 0 23 -10 30 -24 7 -14 13 -19 13 -12 0 6 7 12 15 12
8 0 15 -6 16 -12 0 -10 2 -10 6 0 5 14 33 17 33 3 0 -6 12 -6 32 0 42 11 57
11 38 -1 -12 -8 -12 -10 3 -16 20 -7 47 12 47 33 0 10 6 13 16 9 9 -3 20 -6
25 -6 5 0 2 -11 -7 -25 -16 -24 -16 -24 -160 -21 -79 1 -147 6 -151 9 -3 4 1
8 10 8 32 3 37 4 37 12 0 4 0 11 0 16 0 4 -12 6 -27 3 -23 -4 -26 -2 -15 9 6
7 11 22 11 34 -1 17 -2 17 -6 2 -5 -20 -23 -13 -23 9 0 12 9 14 44 9 44 -7 96
-13 171 -20 22 -2 41 -8 43 -14 2 -6 8 -11 13 -11 6 0 7 5 4 10 -3 6 3 10 15
10 32 0 60 18 54 35 -4 8 -23 18 -44 21 -24 4 -40 13 -43 23 -3 11 -14 16 -33
15 -16 0 -31 2 -34 5 -3 3 -33 13 -66 22 -49 12 -61 12 -57 2 3 -7 19 -13 36
-13 26 0 28 -2 16 -12 -8 -7 -12 -12 -10 -11 2 1 13 -4 25 -12 11 -8 25 -15
31 -15 5 0 4 4 -4 9 -24 15 -4 30 24 18 21 -10 22 -13 7 -19 -15 -6 -14 -7 3
-7 17 -1 15 -4 -9 -16 -32 -17 -72 -22 -46 -5 11 7 8 11 -15 20 -32 12 -79 5
-70 -10 4 -6 -5 -5 -19 2 -14 6 -26 17 -26 24 0 10 -6 11 -26 4 -33 -13 -34
-13 -34 5 0 8 7 15 16 15 12 0 9 6 -10 21 -15 12 -30 19 -33 15 -3 -3 2 -8 11
-12 22 -8 21 -27 -1 -21 -62 17 -72 17 -66 1 4 -11 13 -14 32 -9 17 4 23 3 16
-3 -12 -12 -29 -15 -70 -12 -30 2 -30 2 -5 10 l25 8 -27 1 c-15 1 -32 9 -38
19 -8 12 -13 13 -16 5 -6 -15 -34 -18 -34 -4 0 5 6 12 13 14 8 4 6 6 -4 6 -9
1 -24 10 -34 21 -18 19 -17 20 5 20 31 0 14 18 -20 20 -48 4 -67 0 -67 -15 0
-8 4 -15 9 -15 4 0 8 5 8 10 0 6 7 10 15 10 8 0 15 -8 15 -18 0 -11 12 -24 28
-32 19 -9 23 -14 13 -18 -8 -3 -17 0 -19 6 -2 7 -15 10 -30 7 -19 -4 -21 -3
-9 3 15 6 12 10 -18 21 -52 19 -85 21 -85 5 0 -7 10 -15 23 -17 14 -3 9 -5
-14 -6 -20 0 -39 2 -43 6 -4 4 -17 8 -29 8 -12 0 -21 6 -19 12 1 7 -1 12 -5
10 -5 -1 -8 3 -9 8 -1 12 40 7 44 -6 6 -15 32 -10 38 6 5 12 9 13 21 3 11 -9
16 -9 23 1 4 8 13 10 19 7 6 -4 11 -3 11 3 0 5 -21 13 -47 16 -27 3 -60 9 -75
11 -17 3 -28 1 -28 -5 0 -16 -17 -13 -24 4 -4 12 6 14 72 9 53 -3 74 -2 67 5
-6 6 -46 12 -89 15 -43 2 -83 10 -90 16 -8 10 -2 11 29 5 22 -4 37 -4 34 -1
-10 10 -99 24 -93 15 3 -5 0 -9 -5 -9 -6 0 -11 4 -11 9 0 5 -6 11 -14 14 -10
4 -12 0 -8 -15 4 -16 2 -19 -9 -12 -8 4 -24 7 -36 6 -11 -2 -24 2 -28 7 -3 6
-14 11 -23 10 -14 0 -14 -2 2 -8 14 -5 16 -10 8 -15 -15 -9 -32 1 -32 20 0 8
10 14 23 14 20 1 20 2 5 11 -22 13 -22 27 -1 111 21 82 36 90 119 62z m2057
-301 c-22 -8 -14 -20 12 -20 14 0 25 3 25 8 0 5 9 9 20 9 11 0 20 -4 20 -9 0
-5 16 -11 35 -13 19 -2 35 0 35 4 0 4 -5 8 -12 8 -6 0 -8 3 -5 7 4 3 16 -2 26
-11 11 -10 26 -16 33 -13 8 3 6 6 -5 6 -10 1 -16 5 -13 9 2 4 42 4 88 -1 46
-4 105 -10 131 -12 27 -2 52 -7 55 -11 4 -4 -4 -4 -18 -1 -14 3 -32 2 -40 -3
-12 -8 -11 -10 7 -10 12 0 24 -4 28 -10 3 -5 12 -7 20 -3 8 3 15 0 15 -7 0 -9
-10 -11 -30 -6 -18 3 -30 1 -30 -5 0 -6 -5 -7 -10 -4 -6 4 -8 10 -5 15 5 8
-91 21 -140 20 -11 0 -35 2 -53 6 -27 5 -31 4 -26 -10 4 -11 1 -16 -11 -16 -9
0 -14 4 -11 9 7 11 -18 21 -54 21 -16 0 -33 -7 -38 -16 -7 -13 -13 -14 -29 -6
-14 8 -23 8 -31 0 -22 -22 -12 -26 61 -32 135 -10 187 -18 181 -27 -3 -5 -1
-9 5 -9 5 0 11 5 13 12 3 7 9 8 19 3 8 -5 28 -11 44 -12 148 -11 149 -11 162
6 11 14 12 13 8 -7 -4 -23 -3 -24 47 -17 36 5 49 4 44 -4 -10 -15 7 -14 22 1
10 10 15 10 21 -1 5 -8 16 -11 30 -6 12 4 21 2 21 -4 0 -6 9 -11 20 -11 11 0
20 4 20 10 0 11 63 1 68 -11 2 -4 15 -4 28 2 25 9 70 12 48 3 -7 -3 -10 -14
-7 -24 4 -15 0 -20 -13 -20 -16 0 -17 2 -4 10 22 14 -35 13 -62 -1 -18 -10
-20 -9 -15 5 8 20 3 20 -17 0 -10 -9 -16 -11 -16 -4 0 7 -8 9 -19 5 -11 -3
-22 -1 -26 5 -4 6 -19 10 -33 9 -15 -2 -32 0 -39 4 -7 4 -25 5 -40 2 -76 -16
-91 -17 -97 -6 -4 6 -2 9 7 6 7 -3 24 -2 37 3 18 7 0 10 -70 15 -51 4 -96 5
-98 2 -3 -3 11 -5 31 -5 20 0 38 -4 42 -10 6 -9 -103 -5 -113 5 -3 3 2 5 11 5
10 0 17 4 17 9 0 5 -18 8 -40 8 -28 -2 -39 -6 -35 -14 5 -15 -11 -17 -20 -3
-3 6 -11 10 -16 10 -6 0 -7 -4 -4 -10 11 -17 -27 -11 -40 7 -11 14 -15 15 -28
4 -10 -8 -25 -10 -39 -5 -13 4 -37 6 -55 6 -26 -1 -31 2 -26 15 4 9 8 12 10 7
4 -12 61 -6 69 7 3 5 -14 10 -38 11 -24 0 -54 3 -68 5 -14 2 -47 5 -75 7 -68
5 -69 8 -6 15 60 7 82 28 29 27 -79 0 -227 16 -273 29 l-50 15 90 -6 c50 -3
119 -10 155 -15 36 -5 81 -8 100 -8 l35 1 -32 9 c-34 10 -47 31 -14 22 10 -3
22 0 25 6 4 6 13 11 19 10 9 0 9 -2 0 -6z m-509 -45 c-5 -8 0 -9 14 -6 12 4
22 2 22 -2 0 -4 10 -6 23 -3 18 4 19 3 7 -6 -18 -13 -1 -15 19 -2 11 7 10 11
-5 20 -17 10 -17 11 6 9 14 -2 24 -9 23 -16 -3 -14 13 -16 22 -2 9 15 35 12
35 -4 0 -8 16 -16 40 -20 23 -3 49 -11 59 -18 13 -8 23 -8 37 0 17 10 16 11
-8 12 -16 0 -28 5 -28 11 0 8 15 9 48 4 26 -4 47 -8 47 -8 0 -1 5 -11 11 -22
7 -13 19 -19 34 -17 16 3 20 0 14 -10 -6 -11 -5 -11 9 0 18 15 97 7 97 -9 0
-20 -33 -22 -46 -4 -12 16 -14 16 -14 3 0 -14 -5 -15 -32 -7 -77 22 -209 41
-285 42 -46 0 -83 4 -83 9 0 4 -12 8 -26 8 -17 0 -23 -4 -18 -12 5 -8 2 -9
-10 -5 -10 4 -25 7 -34 8 -11 1 -8 4 8 10 17 6 6 7 -35 3 -43 -3 -56 -2 -45 5
8 6 23 11 33 11 10 0 16 4 12 9 -4 8 6 13 48 20 5 0 5 -4 1 -11z m-1314 -37
c0 -9 31 -17 103 -28 34 -5 47 -16 30 -26 -5 -2 -1 -1 7 2 35 13 194 -4 184
-20 -3 -6 4 -7 19 -4 14 4 28 2 31 -4 4 -7 -1 -11 -13 -11 -12 0 -21 -6 -22
-12 0 -10 -2 -10 -6 0 -3 7 -20 11 -41 11 -24 -1 -29 -3 -14 -6 33 -7 27 -20
-8 -15 -16 2 -28 8 -25 12 3 5 -1 11 -7 13 -7 3 -4 6 7 6 14 1 16 4 7 13 -9 9
-17 7 -33 -8 -13 -10 -19 -13 -15 -6 4 6 2 12 -3 12 -6 0 -11 -4 -11 -10 0 -5
-7 -10 -16 -10 -8 0 -13 -4 -10 -9 7 -10 -27 -21 -65 -21 -16 0 -30 -7 -33
-16 -8 -22 1 -31 16 -16 7 7 30 12 52 12 36 0 38 -1 21 -13 -16 -13 -15 -14
15 -9 25 4 31 2 25 -8 -6 -10 -4 -12 9 -7 10 4 23 7 29 7 7 1 -3 7 -20 15 -35
15 -44 42 -17 52 18 7 35 -14 27 -34 -3 -8 3 -13 18 -13 20 0 21 2 9 11 -12 8
-10 10 9 5 13 -3 33 -1 43 5 13 7 18 6 18 -3 0 -9 3 -9 12 0 15 15 45 16 53 2
3 -6 -1 -7 -10 -4 -9 4 -21 -1 -29 -11 -8 -11 -18 -15 -26 -10 -9 6 -11 4 -5
-4 5 -9 19 -11 42 -6 25 4 34 3 32 -7 -4 -34 2 -38 61 -38 33 0 60 -4 60 -10
0 -5 -18 -10 -39 -10 -46 0 -67 -19 -24 -21 15 -1 31 -1 36 0 4 0 7 -6 7 -14
0 -8 -6 -12 -14 -9 -8 3 -17 1 -21 -5 -10 -17 -25 -13 -18 6 4 11 3 14 -5 9
-7 -4 -12 -14 -12 -22 0 -9 -11 -14 -30 -14 -17 0 -30 -5 -30 -12 -1 -8 -6 -6
-14 5 -15 19 -38 22 -66 7 -31 -17 -104 17 -100 47 2 9 -33 22 -43 16 -5 -3 0
-11 10 -18 10 -7 15 -17 11 -20 -9 -10 -53 2 -70 18 -7 7 -38 14 -68 16 -30 1
-72 7 -92 13 -32 9 -36 13 -25 26 8 11 8 14 0 9 -6 -4 -14 -3 -18 3 -3 5 -16
10 -28 10 -22 1 -22 1 -2 13 11 6 22 12 25 13 3 0 18 4 33 9 17 4 33 3 39 -3
6 -6 17 -8 24 -5 8 3 14 1 14 -5 0 -6 8 -9 18 -7 9 2 20 4 23 4 3 1 11 13 18
27 10 23 10 25 -9 19 -13 -4 -36 1 -58 13 -31 16 -40 17 -50 6 -12 -13 0 -30
16 -20 4 2 14 0 22 -5 11 -7 5 -9 -20 -8 -19 0 -50 -4 -69 -10 -19 -6 -39 -7
-45 -3 -6 4 -27 7 -47 7 -27 0 -35 -4 -31 -14 4 -11 1 -13 -14 -7 -10 4 -41
12 -67 18 -31 6 -47 14 -44 22 3 8 -6 12 -26 11 -26 0 -32 5 -38 29 -9 33 -3
48 10 27 7 -10 9 -9 14 3 6 14 23 15 67 1 11 -4 26 2 37 13 25 26 53 34 69 21
10 -8 14 -8 14 0 0 6 5 11 11 11 6 0 9 -7 5 -15 -4 -12 0 -14 19 -9 14 3 25 2
25 -4 0 -5 -16 -12 -35 -14 -28 -3 -36 0 -41 16 -6 19 -8 18 -26 -7 -11 -15
-25 -24 -31 -21 -7 4 -5 -1 5 -11 9 -10 21 -14 28 -10 9 6 9 10 -1 16 -11 7
-11 9 2 9 9 0 20 -7 23 -16 5 -14 8 -14 21 -1 8 9 23 14 32 12 10 -2 32 -4 48
-5 22 -2 15 -5 -25 -13 -44 -8 -51 -11 -35 -18 13 -6 1 -7 -35 -4 -30 2 -46 2
-35 -1 11 -3 25 -12 32 -20 7 -10 13 -12 18 -5 3 6 17 11 30 11 12 0 26 7 29
16 5 14 7 14 22 0 17 -17 49 -22 39 -6 -3 6 0 10 7 10 10 0 9 3 -2 11 -11 8
-5 9 26 6 36 -4 41 -2 37 13 -3 11 -18 21 -39 25 -39 7 -44 22 -11 35 29 12
77 12 77 1z m-285 -170 c-2 -4 0 -13 6 -21 6 -12 9 -12 9 -2 0 10 4 10 15 -2
12 -12 22 -13 41 -6 33 13 37 13 28 -2 -6 -10 -4 -10 7 0 20 19 30 14 25 -12
-3 -19 -1 -23 15 -19 10 3 27 2 36 -2 10 -5 28 -9 41 -10 12 -1 25 -5 29 -8
13 -13 -28 -18 -71 -9 -32 7 -48 6 -58 -3 -10 -9 -27 -9 -73 1 -44 9 -52 12
-30 14 17 1 41 6 55 11 18 6 8 7 -33 4 -32 -3 -56 -1 -53 3 2 4 -18 7 -45 6
-35 -2 -49 2 -49 11 0 7 -3 20 -6 29 -5 12 1 14 32 9 21 -4 35 -2 32 3 -4 5 7
9 23 10 15 1 27 -2 24 -5z m101 -121 c16 0 35 -5 41 -11 6 -6 39 -12 72 -13
47 -1 58 -3 46 -12 -12 -9 -6 -13 31 -18 25 -3 51 -3 57 1 5 3 7 1 4 -5 -8
-12 121 -38 166 -34 15 2 27 -1 27 -7 0 -5 29 -13 65 -16 36 -4 68 -11 71 -16
8 -14 24 -10 24 6 0 10 10 15 33 14 21 -1 25 -3 12 -6 -11 -3 -24 -8 -28 -13
-10 -9 151 -40 210 -40 44 0 64 -14 36 -24 -9 -4 -20 -1 -24 5 -4 7 -16 10
-27 7 -11 -3 -68 3 -128 13 -60 10 -145 19 -189 20 -44 1 -97 8 -119 15 -21 8
-49 14 -62 14 -14 0 -33 6 -44 12 -15 10 -22 10 -32 0 -17 -17 -33 -15 -18 3
10 12 10 15 -4 15 -9 0 -16 -5 -16 -11 0 -6 -23 -8 -66 -4 -76 6 -109 19 -75
28 11 3 24 1 27 -4 3 -5 24 -9 47 -9 66 0 31 16 -73 34 -52 9 -119 24 -149 33
-30 9 -64 17 -75 18 -12 1 -27 3 -33 4 -7 0 -13 12 -13 24 l0 24 88 -24 c48
-12 101 -23 118 -23z m672 -18 c2 -7 -7 -16 -20 -21 -21 -9 -19 -10 14 -10 29
-1 38 3 44 21 l7 23 8 -23 c5 -12 16 -22 24 -22 9 0 13 -5 10 -11 -5 -7 -25
-8 -56 -4 -29 4 -49 3 -49 -3 0 -5 33 -12 73 -16 39 -4 80 -9 90 -12 18 -6 18
-6 0 -21 -17 -13 -16 -14 7 -9 14 3 31 1 39 -3 17 -11 6 -31 -17 -31 -15 0
-15 2 -2 10 12 7 8 10 -15 10 -24 0 -27 -2 -15 -11 12 -9 11 -10 -5 -4 -30 10
-53 14 -96 17 -28 1 -39 7 -43 21 -4 17 -11 19 -46 14 -28 -3 -45 -1 -54 9
-16 15 -71 20 -61 5 3 -5 -8 -9 -25 -9 -31 1 -40 12 -17 21 6 3 1 6 -13 6 -14
1 -32 6 -40 12 -11 8 -1 9 35 4 28 -4 79 -9 114 -11 35 -2 67 -7 72 -10 5 -3
9 -1 9 4 0 12 -45 32 -73 32 -20 1 -21 1 -4 11 10 6 25 8 33 5 8 -3 12 -2 9 3
-3 5 5 11 17 14 31 6 41 3 46 -11z m-818 -77 c0 -8 3 -15 8 -16 68 -5 82 -5
82 1 0 7 -8 8 -55 11 -14 1 -25 6 -25 11 0 6 17 7 43 2 23 -4 49 -8 58 -8 9 0
15 -6 12 -13 -3 -7 0 -13 6 -13 6 0 11 -8 11 -17 -1 -16 -2 -16 -15 1 -12 16
-19 17 -37 8 l-23 -11 25 0 c20 -1 22 -3 10 -11 -12 -8 -11 -10 7 -10 12 0 23
-4 25 -9 5 -13 68 -25 68 -12 0 6 5 11 10 11 6 0 10 -7 10 -15 0 -8 6 -15 14
-15 8 0 16 -5 18 -11 3 -9 9 -9 25 0 31 16 49 15 34 -2 -6 -8 -7 -17 -3 -22 4
-4 -2 -5 -14 -1 -14 4 -21 2 -21 -8 0 -10 12 -13 43 -11 24 1 41 -1 39 -5 -6
-10 24 -22 36 -15 5 4 6 -2 2 -11 -5 -13 -3 -16 10 -11 9 3 17 2 17 -4 0 -6 9
-8 21 -4 14 5 19 3 15 -4 -7 -11 -66 -10 -66 2 0 4 -4 7 -10 7 -5 0 -10 -5
-10 -10 0 -6 -8 -19 -17 -29 -18 -19 -59 -20 -130 -5 -48 9 -40 22 10 17 23
-3 58 -1 77 5 34 9 33 10 -25 12 -70 2 -136 5 -184 8 -25 2 -32 6 -27 17 6 16
4 17 -87 19 -32 1 -61 7 -65 13 -4 5 -17 15 -29 22 -13 6 -23 16 -23 20 0 16
55 30 75 19 13 -8 16 -7 11 1 -5 7 1 11 16 12 18 1 16 3 -9 10 -18 5 -33 14
-33 20 0 7 9 9 23 5 31 -10 87 -13 87 -5 0 4 -7 12 -15 19 -8 7 -15 9 -15 6 0
-4 -7 -1 -15 8 -17 17 -20 36 -5 36 6 0 10 -7 10 -15z"/>
<path d="M6900 561 l-25 -8 25 -11 c14 -6 19 -11 12 -11 -18 -1 -4 -21 15 -21
9 0 13 6 10 14 -4 10 -1 13 10 9 8 -3 18 -1 22 6 5 8 15 6 33 -9 15 -11 31
-20 37 -20 6 0 11 -8 11 -17 1 -16 3 -15 19 4 15 18 21 20 30 10 6 -7 33 -14
60 -14 28 -1 55 -4 61 -8 5 -3 19 0 31 8 l21 15 -23 7 c-12 4 -45 8 -72 8 -28
1 -45 3 -39 5 6 2 8 10 5 18 -7 19 13 18 48 -3 28 -17 52 -12 33 7 -15 15
-110 18 -106 3 2 -15 -41 -17 -67 -4 -25 14 -122 21 -151 12z"/>
<path d="M1226 3477 c-16 -12 -17 -16 -5 -35 12 -20 12 -27 -3 -53 -23 -39
-22 -51 1 -90 11 -17 17 -39 14 -48 -4 -12 -2 -13 4 -3 5 7 17 10 25 7 23 -9
30 9 30 73 1 62 -9 112 -22 112 -5 0 -12 11 -17 25 -7 23 -10 24 -27 12z"/>
<path d="M204 1134 c6 -6 18 -13 26 -17 17 -6 -71 -11 -140 -7 -25 1 -52 8
-61 16 -18 16 -29 18 -29 4 0 -5 8 -10 18 -11 14 0 14 -2 -3 -9 -20 -9 -7 -10
180 -14 39 -1 114 2 167 6 53 4 149 8 212 9 231 3 67 32 -190 33 -138 1 -188
-2 -180 -10z"/>
<path d="M930 1110 c-13 -8 -12 -10 3 -10 9 0 17 -3 17 -8 0 -4 14 -13 31 -21
34 -15 32 -21 -14 -37 -20 -6 -33 -18 -35 -31 -2 -16 -9 -19 -29 -15 -19 4
-24 1 -21 -9 6 -18 114 -13 145 7 12 8 31 14 42 14 11 0 23 5 26 10 4 6 11 8
16 5 5 -4 12 1 15 9 4 11 11 13 23 7 10 -6 23 -6 32 0 7 5 28 9 44 9 17 0 41
7 55 16 l25 15 -25 -7 c-28 -8 -110 -7 -119 1 -3 3 0 15 7 25 11 19 9 20 -32
20 -46 0 -96 -17 -96 -32 0 -18 -41 -7 -62 17 -24 28 -27 29 -48 15z"/>
<path d="M0 1079 c0 -5 9 -9 19 -9 11 0 23 -4 26 -10 3 -5 2 -10 -4 -10 -18 0
-17 -45 2 -72 18 -28 18 -28 -2 -28 -11 0 -25 8 -30 18 -9 14 -10 13 -11 -10
0 -16 6 -29 13 -29 47 -4 68 -9 86 -18 11 -6 29 -11 40 -11 14 0 21 -6 21 -19
0 -10 7 -24 15 -31 8 -7 12 -16 9 -21 -3 -5 2 -9 12 -9 25 0 84 -39 84 -56 0
-8 8 -18 18 -21 9 -4 41 -30 70 -59 48 -47 51 -54 42 -78 -11 -29 5 -44 35
-32 10 3 28 -7 48 -27 49 -50 64 -60 64 -42 0 8 -7 17 -15 20 -8 3 -11 12 -8
20 3 10 -1 15 -14 15 -10 0 -22 5 -25 10 -4 6 25 10 79 10 47 0 88 -4 91 -10
4 -6 -15 -10 -49 -10 -30 0 -58 -5 -61 -10 -4 -7 25 -9 90 -7 74 4 95 2 91 -8
-3 -9 7 -11 40 -7 29 3 44 1 44 -7 0 -6 -4 -11 -10 -11 -18 0 -10 -29 12 -44
18 -13 19 -17 7 -33 -7 -10 -15 -20 -16 -22 -1 -2 -9 2 -18 9 -19 16 -34 5
-17 -12 7 -7 44 -14 83 -15 39 -2 79 -7 89 -13 9 -5 54 -12 99 -16 44 -4 81
-11 81 -15 0 -12 57 -11 65 0 5 9 -24 23 -41 20 -29 -5 -64 3 -64 15 0 9 -9
12 -28 9 -24 -4 -25 -3 -8 8 26 16 4 29 -51 29 -23 0 -45 5 -49 11 -4 6 1 10
12 8 11 -1 34 1 53 5 25 6 30 10 20 17 -8 4 -35 3 -59 -2 -51 -11 -96 -9 -93
6 2 6 -12 16 -30 23 l-32 12 32 -3 c21 -2 35 2 44 15 17 23 35 23 85 -1 21
-10 60 -26 86 -35 26 -8 57 -25 68 -36 11 -11 31 -20 44 -20 32 0 58 -27 51
-51 -6 -17 -1 -19 42 -19 35 0 55 -6 71 -20 11 -11 37 -21 57 -22 43 -4 40
-21 -6 -29 -29 -5 -30 -7 -8 -8 15 0 30 -8 33 -17 5 -13 15 -15 44 -11 28 5
59 -2 125 -27 74 -28 95 -32 125 -25 47 11 90 10 47 -1 -16 -4 -22 -8 -12 -9
38 -2 4 -21 -39 -21 -28 0 -43 -4 -39 -10 4 -6 -8 -10 -29 -10 -25 0 -36 -4
-36 -15 0 -16 -35 -21 -45 -5 -3 5 -12 7 -19 4 -7 -3 -20 2 -29 10 -9 9 -22
16 -30 16 -8 0 -20 7 -27 15 -16 20 -5 19 69 -4 34 -10 61 -15 61 -10 0 5 -4
9 -10 9 -5 0 -10 5 -10 10 0 6 8 10 17 10 33 0 5 10 -67 24 -73 13 -115 12
-104 -5 6 -10 -25 0 -44 14 -9 7 -11 6 -7 -6 9 -21 -7 -28 -41 -17 -16 4 -23
9 -16 9 7 1 20 8 28 16 14 13 13 16 -3 21 -10 3 -51 22 -92 41 -64 31 -83 36
-137 34 -35 -1 -71 2 -82 8 -10 5 -31 12 -46 14 -15 2 -31 8 -34 14 -4 6 -34
14 -67 17 -46 5 -55 4 -40 -5 26 -13 50 -49 34 -49 -15 0 43 -42 102 -74 26
-14 49 -34 51 -44 6 -21 26 -34 120 -78 32 -14 60 -34 63 -43 3 -10 19 -32 36
-49 l31 -32 165 0 c147 0 164 2 153 15 -7 8 -32 24 -56 35 -56 24 -56 34 -1
25 39 -7 87 -43 87 -66 0 -5 40 -9 90 -9 58 0 90 4 90 11 0 6 -9 13 -19 16
-11 3 -22 11 -25 19 -3 8 -12 14 -20 14 -10 0 -13 -6 -9 -17 7 -17 6 -17 -44
4 -7 3 -13 1 -13 -5 0 -6 6 -13 13 -15 6 -3 -1 -6 -16 -6 -16 -1 -26 3 -23 8
3 5 -3 11 -14 14 -31 8 -24 24 8 19 16 -2 46 1 66 7 40 11 72 3 98 -22 23 -24
308 -48 308 -27 0 6 -17 10 -37 10 -25 0 -33 3 -25 9 8 4 12 12 10 16 -1 4 7
10 20 11 12 2 22 0 22 -5 0 -5 13 -16 29 -24 24 -12 33 -12 57 -1 l29 14 -35
-6 -35 -5 45 23 c25 13 47 20 48 16 2 -4 27 -8 55 -9 38 0 47 -3 32 -9 -17 -7
-18 -9 -2 -9 9 -1 27 -12 39 -26 l22 -25 192 0 c175 0 193 2 197 18 4 16 5 16
6 0 1 -16 12 -18 76 -18 41 0 75 4 75 9 0 12 39 21 45 11 3 -5 -3 -11 -12 -13
-10 -3 98 -5 241 -6 228 -1 257 1 246 14 -8 9 -21 13 -37 9 -15 -4 -30 0 -42
10 -13 12 -27 15 -45 10 -16 -4 -26 -2 -26 5 0 6 8 11 17 11 15 0 14 2 -3 15
-22 17 -75 20 -91 4 -8 -8 -17 -7 -33 3 -17 10 -24 10 -27 1 -3 -8 -12 -9 -26
-4 -12 4 -29 6 -37 3 -13 -5 -13 -3 -1 11 14 17 10 21 -22 17 -9 -1 -33 8 -51
19 -39 24 -53 27 -37 7 10 -12 5 -14 -27 -12 -22 1 -48 -1 -58 -5 -17 -7 -17
-8 3 -8 12 -1 25 -6 29 -13 5 -8 0 -9 -14 -6 -12 4 -22 2 -22 -3 0 -5 -7 -9
-15 -9 -8 0 -15 4 -15 8 0 12 -47 32 -73 31 -21 -1 -21 -1 2 -8 21 -6 22 -8 7
-20 -13 -11 -19 -11 -31 -1 -8 7 -15 9 -15 5 0 -4 -6 -3 -12 3 -7 5 -28 13
-45 17 -38 8 -44 25 -9 25 31 0 56 28 36 40 -8 5 -17 7 -21 4 -8 -5 -24 35
-17 42 3 2 23 -5 46 -16 42 -20 132 -29 102 -10 -11 7 -6 10 22 10 37 0 59
-14 36 -23 -10 -4 -10 -6 0 -6 14 -1 33 39 25 52 -3 5 -12 6 -20 3 -9 -4 -13
-1 -11 6 7 19 38 22 38 5 0 -12 83 -57 105 -57 18 0 -28 31 -54 36 -32 7 -43
24 -16 24 8 0 15 5 15 10 0 6 -6 10 -12 9 -7 -1 -30 -1 -51 0 -32 1 -37 4 -33
19 4 10 -1 27 -9 38 -26 34 -17 49 45 78 55 26 70 46 34 46 -8 0 -12 -5 -9
-11 4 -6 -4 -9 -22 -7 -17 2 -27 -1 -26 -9 1 -6 -4 -14 -12 -17 -20 -7 -18 4
4 33 17 23 18 27 3 49 -10 16 -12 26 -5 30 36 23 63 48 63 59 0 9 17 13 48 14
45 2 46 2 12 9 -35 6 -35 7 -9 14 40 11 74 4 74 -16 0 -26 17 -39 35 -27 13 8
13 11 -2 23 -24 18 -23 23 7 30 14 4 23 11 20 16 -4 6 9 17 27 25 18 8 28 14
21 15 -7 0 -1 11 13 25 21 21 24 29 13 41 -6 8 -10 16 -8 17 2 1 18 9 34 17
17 8 43 25 58 37 16 13 39 23 52 23 35 0 30 40 -5 41 -23 0 -23 1 -5 9 13 6
15 9 5 9 -8 1 -51 17 -94 36 -44 19 -81 33 -83 31 -4 -3 17 -14 108 -56 24
-11 33 -17 19 -14 -14 3 -54 19 -89 35 -35 16 -66 29 -69 29 -16 0 67 -48 103
-60 22 -7 35 -15 28 -17 -7 -2 -21 0 -32 6 -11 6 -27 11 -37 11 -9 0 -23 8
-30 17 -7 10 -16 15 -20 11 -4 -4 4 -16 17 -27 30 -25 10 -28 -22 -3 -13 10
-42 28 -64 41 l-40 22 32 -28 c18 -15 50 -39 72 -52 22 -14 39 -26 37 -28 -4
-4 -124 64 -148 85 -10 8 -33 15 -50 16 -31 1 -33 3 -36 44 -3 34 -7 42 -23
42 -13 0 -18 4 -13 12 4 6 3 8 -4 4 -6 -3 -30 0 -54 8 -39 13 -41 13 -23 0 11
-9 19 -19 18 -24 -1 -4 7 -6 18 -3 19 5 20 3 14 -18 -10 -33 -12 -34 -37 -22
-20 9 -28 5 -55 -23 -21 -23 -30 -40 -26 -54 3 -11 0 -27 -7 -35 -6 -8 -9 -19
-5 -25 6 -10 -21 -7 -64 6 -12 4 -12 2 0 -13 12 -15 12 -16 -4 -10 -11 4 -16
3 -12 -3 7 -12 -54 -80 -71 -80 -7 0 -27 -14 -45 -31 -23 -21 -40 -29 -56 -26
-18 3 -23 1 -18 -10 4 -12 0 -14 -15 -10 -13 3 -20 0 -20 -9 0 -18 -16 -18
-23 0 -3 8 -16 16 -29 18 -15 2 -22 9 -21 22 1 18 -6 19 -84 2 -26 -5 -25 -16
2 -16 15 0 33 -7 39 -15 6 -8 36 -21 66 -28 l55 -14 -40 -18 c-44 -20 -53 -22
-140 -30 -89 -8 -94 -9 -89 -17 3 -4 -6 -8 -20 -8 -14 0 -28 5 -31 10 -4 7
-16 5 -33 -5 -20 -12 -33 -14 -52 -6 -14 5 -19 10 -11 10 10 1 11 4 2 15 -15
18 22 25 104 21 38 -2 53 0 40 5 -11 4 -30 6 -42 3 -12 -3 -30 0 -40 5 -16 10
-16 11 -1 17 15 6 105 -7 139 -20 10 -4 19 0 22 9 5 13 -2 16 -38 16 -42 0
-76 19 -38 21 23 2 20 2 78 -6 38 -6 47 -5 39 4 -6 7 -29 13 -52 14 -22 0 -39
4 -36 8 2 4 0 11 -6 14 -17 11 -279 11 -272 1 3 -5 -1 -7 -9 -4 -20 8 -46 16
-36 11 4 -3 5 -8 2 -13 -8 -13 30 -21 56 -12 27 10 59 5 59 -9 0 -5 -13 -9
-29 -9 -17 0 -33 -4 -36 -10 -3 -5 2 -9 12 -8 35 3 54 -2 48 -12 -3 -5 -19
-10 -34 -10 -15 0 -32 -5 -39 -12 -9 -9 -12 -9 -12 0 0 18 -18 15 -22 -4 -2
-12 -19 -17 -73 -20 -49 -3 -65 -1 -55 6 13 8 13 10 -2 10 -9 0 -19 -4 -23
-10 -3 -5 -13 -6 -22 -3 -15 6 -14 7 3 14 15 6 16 8 3 8 -21 1 -20 33 1 43 11
5 9 7 -7 7 -12 1 -25 -3 -28 -9 -3 -5 -11 -10 -16 -10 -6 0 -8 4 -4 9 3 5 -5
13 -17 17 -13 4 -30 15 -38 25 -9 9 -32 19 -50 21 -19 2 -34 8 -33 13 1 6 -10
11 -24 10 -14 0 -28 5 -30 12 -6 16 36 28 50 14 15 -15 80 -15 71 0 -4 6 -19
9 -38 5 -26 -5 -28 -4 -12 5 15 9 16 13 5 21 -10 6 -2 8 23 6 51 -5 48 7 -4
20 -32 8 -46 8 -57 -1 -11 -9 -15 -9 -18 1 -3 6 -12 12 -20 12 -13 0 -13 -2
-2 -17 13 -15 10 -16 -31 -8 -25 5 -63 9 -86 9 -28 1 -41 5 -40 15 1 20 -80
49 -96 33 -9 -9 -4 -12 22 -12 40 0 55 -9 55 -30 0 -8 -4 -19 -10 -23 -6 -4 1
-7 15 -6 51 3 70 -1 70 -16 0 -9 6 -12 15 -9 24 10 17 -14 -11 -39 -15 -12
-32 -28 -40 -34 -18 -18 -30 -16 -56 11 -24 24 -68 41 -68 25 0 -5 -5 -9 -11
-9 -6 0 -9 7 -5 15 4 10 -1 15 -14 15 -11 0 -20 5 -20 10 0 6 6 10 13 10 8 0
7 3 -3 9 -8 6 -27 7 -42 4 -18 -4 -28 -1 -28 6 0 8 8 10 20 6 12 -4 20 -2 20
5 0 6 -13 13 -30 17 -33 6 -39 19 -12 27 9 3 5 4 -10 2 -15 -2 -26 1 -25 7 1
5 -10 13 -25 18 -16 4 -28 3 -28 -2 0 -5 5 -9 10 -9 6 0 10 -5 10 -11 0 -7
-10 -9 -24 -7 -16 3 -27 0 -31 -10 -4 -10 0 -13 14 -9 14 3 18 1 14 -9 -3 -8
1 -14 8 -15 8 0 5 -5 -6 -10 -15 -7 -9 -8 24 -6 30 1 46 -2 49 -12 3 -10 -2
-12 -22 -7 -26 6 -38 -8 -13 -17 8 -3 6 -13 -10 -34 l-22 -31 37 -6 c20 -3 57
-6 82 -7 25 0 54 -4 65 -9 13 -6 -18 -9 -90 -8 -60 0 -119 5 -129 10 -15 8
-18 7 -13 -5 5 -13 2 -13 -26 1 -18 8 -35 20 -39 25 -4 7 -18 7 -40 -1 -27 -9
-28 -11 -8 -10 32 2 70 -10 70 -23 0 -5 18 -12 40 -15 22 -4 40 -11 40 -17 0
-7 37 -8 108 -4 262 16 342 19 342 11 0 -5 -33 -10 -73 -12 -39 -1 -115 -7
-167 -13 -53 -5 -118 -9 -146 -8 -85 3 -111 -36 -39 -58 48 -15 105 -17 105
-3 0 6 14 10 30 10 17 0 30 4 30 9 0 5 17 8 38 6 20 -1 27 -1 15 2 -12 2 -23
10 -26 16 -6 15 75 10 84 -6 4 -6 21 -7 45 -2 l39 8 -30 8 c-23 6 -18 7 22 5
32 -2 50 1 46 7 -3 6 21 7 68 3 41 -3 79 -5 84 -5 6 0 30 1 55 2 42 2 45 0 44
-23 -1 -14 -5 -33 -9 -42 -5 -13 2 -21 31 -33 35 -14 38 -14 50 4 15 20 94 34
94 16 0 -6 3 -5 8 1 4 7 16 14 27 17 13 3 7 5 -14 6 -26 1 -32 4 -24 12 13 13
135 20 154 8 24 -14 3 -19 -44 -10 -26 4 -44 5 -42 1 5 -8 53 -21 99 -27 17
-1 33 -8 37 -14 4 -7 12 -8 19 -4 10 6 11 1 6 -19 -4 -18 -2 -26 6 -27 7 0 22
-3 33 -5 11 -3 30 -5 42 -6 13 0 20 -5 17 -10 -4 -6 -20 -7 -36 -4 -16 3 -27
2 -24 -3 15 -23 62 -17 133 16 41 19 76 33 79 31 2 -3 -2 -16 -9 -31 -11 -24
-18 -27 -62 -28 -43 0 -47 -2 -25 -10 13 -6 35 -7 49 -4 21 5 23 3 17 -17 -3
-13 -6 -33 -6 -45 0 -17 -6 -23 -21 -23 -15 0 -19 5 -15 16 3 8 2 12 -4 9 -6
-3 -10 2 -10 12 0 15 -2 16 -10 3 -7 -11 -14 -12 -27 -4 -26 15 -50 6 -57 -20
-8 -31 -34 -37 -68 -16 -29 18 -27 30 4 30 11 0 17 4 14 9 -3 4 7 13 21 20
l26 12 -34 21 c-19 11 -37 26 -41 32 -5 8 -12 8 -27 -1 -19 -12 -31 -8 -31 9
0 5 5 6 10 3 6 -3 10 -1 10 5 0 12 -50 34 -58 25 -3 -2 -11 0 -19 7 -7 6 -16
8 -20 5 -3 -4 -12 -2 -20 5 -11 9 -20 4 -43 -23 -28 -34 -28 -34 -9 -55 23
-24 24 -34 4 -34 -8 0 -15 4 -15 9 0 6 -26 10 -57 10 -99 -1 -114 1 -108 10 8
14 -106 1 -132 -15 -12 -8 -26 -14 -30 -14 -11 0 30 35 50 43 24 9 12 27 -16
26 -21 0 -21 -1 -2 -8 17 -7 16 -9 -10 -15 -17 -4 -33 -13 -37 -19 -5 -9 -10
-9 -20 1 -9 9 -8 12 6 12 9 0 14 5 11 10 -3 6 -22 10 -41 10 -47 0 -125 20
-118 31 2 5 19 6 35 2 20 -4 34 -1 39 7 6 10 26 10 106 0 55 -8 101 -16 104
-19 3 -4 23 -3 45 0 30 5 34 7 15 9 -14 2 -33 2 -44 1 -16 -1 -17 1 -5 15 11
14 9 15 -24 9 -25 -5 -37 -4 -37 4 0 6 10 11 22 11 15 0 19 3 12 10 -17 17
-65 22 -80 9 -8 -6 -21 -9 -29 -5 -8 3 -15 0 -15 -6 0 -7 -15 -9 -45 -5 -34 5
-46 3 -53 -9 -7 -13 -26 -15 -100 -12 -77 2 -91 1 -89 -12 1 -8 16 -18 32 -21
27 -6 25 -7 -12 -8 -24 0 -43 3 -43 7 0 5 -13 9 -30 10 -56 3 -61 5 -55 19 3
10 0 13 -13 9 -26 -8 -96 19 -107 42 -7 16 -18 21 -42 20 -17 -1 -32 -4 -31
-7 2 -23 -6 -31 -29 -31 -16 0 -23 4 -18 8 23 17 12 40 -21 44 -19 2 -34 0
-34 -4 0 -4 -10 -8 -22 -9 -22 0 -22 -1 -3 -9 18 -8 17 -9 -8 -9 -16 -1 -35 6
-43 14 -9 8 -27 15 -42 16 -23 1 -24 2 -7 7 28 10 30 32 3 32 -19 0 -20 2 -8
10 13 8 12 10 -3 10 -10 0 -16 4 -13 9 4 5 -3 7 -13 4 -11 -3 -17 -11 -15 -18
4 -8 -4 -15 -18 -18 -17 -3 -15 -5 10 -6 17 0 32 -6 32 -12 0 -8 -15 -10 -47
-6 -49 6 -113 32 -113 46 0 4 -18 16 -40 26 -57 26 -50 39 7 14 30 -13 57 -18
73 -14 24 6 24 7 6 21 -29 21 0 17 49 -5 26 -13 45 -16 56 -11 9 5 24 8 35 6
10 -2 14 -1 7 1 -7 2 -15 13 -18 24 -4 10 -13 19 -21 19 -8 0 -14 5 -14 11 0
14 -112 2 -121 -13 -4 -6 -18 -8 -33 -4 -15 4 -24 11 -20 17 3 6 17 8 29 5 13
-3 27 -2 30 4 3 5 18 10 33 11 16 0 21 3 12 6 -8 3 -23 14 -34 25 -11 10 -32
18 -48 18 -15 0 -28 5 -28 10 0 6 -7 10 -15 10 -8 0 -15 7 -15 16 0 8 -4 12
-10 9 -6 -3 -10 -1 -10 4 0 6 -7 11 -16 11 -8 0 -13 4 -9 9 3 5 -4 12 -15 16
-11 4 -18 11 -15 16 7 10 54 2 70 -12 14 -13 43 -11 47 3 7 19 -20 41 -42 35
-14 -3 -24 2 -31 15 -11 20 -9 21 29 16 22 -3 46 -2 53 3 11 7 11 9 -2 9 -9 0
-19 6 -22 14 -3 7 -23 17 -44 20 -21 4 -49 10 -62 13 -17 4 -22 2 -17 -6 5 -7
-1 -11 -16 -12 -19 -1 -18 -3 7 -9 18 -5 22 -8 11 -9 -17 -1 -16 -4 8 -26 30
-27 32 -35 11 -35 -18 0 -65 46 -65 65 0 7 -8 15 -17 18 -12 2 -6 7 17 14 l35
10 -48 7 c-26 4 -45 11 -42 16 6 10 -34 25 -42 16 -4 -3 0 -6 8 -7 8 0 5 -4
-6 -8 -11 -5 -33 -3 -50 4 -38 16 -125 25 -125 14z m2013 -738 c6 -6 18 -11
27 -11 9 0 31 -16 50 -35 19 -19 29 -35 22 -35 -6 0 -9 -6 -7 -12 4 -9 -6 -13
-30 -14 -19 0 -35 3 -35 8 0 4 8 8 18 8 9 0 13 4 7 8 -5 4 -10 13 -11 20 -1 6
-2 16 -2 22 -3 13 -77 34 -97 26 -13 -5 -16 -14 -11 -37 4 -22 2 -29 -7 -26
-6 2 -14 17 -17 33 -4 20 -8 25 -14 16 -4 -7 -15 -12 -24 -11 -10 1 -24 1 -32
0 -13 -1 -13 -2 0 -11 12 -8 11 -10 -7 -10 -12 0 -23 6 -26 13 -3 9 -8 9 -18
1 -19 -15 -59 -15 -59 -1 0 7 -6 5 -13 -5 -12 -15 -14 -15 -25 2 -9 15 -7 20
16 28 15 6 43 11 62 12 68 3 79 5 92 18 15 16 124 10 141 -7z"/>
<path d="M3396 813 c-11 -11 -6 -34 5 -28 6 4 19 -2 30 -14 19 -21 17 -24 -18
-20 -9 1 -22 -34 -16 -44 3 -4 14 -5 25 -1 12 3 24 1 28 -6 5 -9 13 -9 26 -2
16 9 13 11 -19 17 -20 4 -37 12 -37 17 0 14 57 2 101 -20 20 -10 34 -23 32
-28 -2 -6 9 -10 27 -9 16 1 30 -2 30 -7 0 -4 -9 -8 -21 -8 -11 0 -27 -7 -36
-16 -9 -8 -22 -13 -29 -10 -8 3 -14 1 -14 -3 0 -28 73 -4 125 40 22 19 55 27
70 17 14 -9 15 55 1 64 -19 13 -29 9 -16 -7 17 -21 2 -38 -28 -30 -14 3 -28 2
-31 -4 -3 -5 -19 -13 -34 -16 -23 -6 -26 -5 -20 10 5 15 2 17 -20 11 -23 -5
-27 -3 -27 14 0 11 7 20 15 20 8 0 15 5 15 10 0 6 6 10 14 10 8 0 13 -7 12
-16 0 -9 5 -18 12 -20 7 -1 8 0 2 3 -19 9 -10 23 17 23 14 0 23 3 19 7 -3 4
-43 8 -89 10 -114 5 -117 6 -117 19 0 14 -25 26 -34 17z"/>
<path d="M75 781 c3 -5 -3 -12 -12 -14 -15 -4 -15 -5 2 -6 11 0 28 -10 37 -20
15 -18 14 -19 -14 -25 -17 -3 -43 -6 -59 -6 -24 0 -29 -4 -29 -25 0 -14 3 -25
8 -26 54 -5 63 -17 24 -31 -38 -15 -45 -51 -9 -48 44 4 68 0 62 -10 -4 -6 -15
-8 -24 -5 -10 3 -24 -1 -31 -10 -11 -13 -8 -14 21 -8 19 5 60 8 92 8 31 0 57
3 57 6 0 4 9 9 20 12 14 4 19 12 18 31 -1 14 -6 26 -10 26 -4 0 -8 6 -8 14 0
8 -6 17 -12 19 -10 4 -9 8 2 16 13 9 12 11 -5 11 -11 0 -31 9 -45 20 -20 16
-23 22 -14 37 9 15 6 19 -25 30 -43 15 -54 16 -46 4z"/>
<path d="M125 526 c-11 -9 -33 -16 -50 -16 -72 -1 -75 -4 -75 -92 l0 -80 163
8 c89 4 170 8 179 8 11 0 14 4 8 10 -5 5 -34 10 -65 11 -30 1 -58 5 -62 9 -3
3 -22 6 -42 6 -20 0 -43 5 -51 10 -11 7 -6 10 20 10 31 0 33 1 19 16 -9 8 -34
22 -55 30 l-39 15 35 -5 c19 -2 45 -7 58 -11 14 -5 22 -3 22 4 0 6 -8 11 -17
11 -11 0 -14 3 -7 8 16 10 10 56 -7 60 -8 1 -23 -4 -34 -12z"/>
<path d="M3205 401 c3 -5 -2 -17 -11 -25 -17 -18 -39 -22 -29 -6 3 6 -1 10 -9
10 -8 0 -18 -4 -21 -10 -9 -14 -55 -12 -55 3 -1 7 -6 4 -15 -6 -7 -11 -31 -25
-52 -32 -21 -8 -30 -14 -20 -15 11 0 17 -8 16 -22 0 -13 -3 -17 -6 -10 -7 17
-23 15 -23 -2 0 -8 9 -17 19 -21 11 -3 18 -12 15 -19 -3 -7 7 -18 21 -26 14
-7 25 -17 25 -22 0 -17 2 -23 12 -35 8 -10 5 -13 -11 -13 -12 0 -19 5 -16 10
3 6 -1 10 -9 10 -24 0 -19 -15 9 -28 31 -14 98 -16 76 -3 -26 17 8 22 39 6 31
-16 42 -32 15 -22 -8 4 -17 2 -20 -3 -4 -6 13 -11 39 -12 25 0 52 -1 59 -2 6
-1 11 7 9 17 -4 21 14 23 22 2 6 -17 36 -21 36 -5 0 6 10 10 23 9 l22 0 -22
-11 c-32 -15 -28 -37 7 -44 16 -4 27 -11 23 -16 -3 -7 8 -9 31 -6 20 2 36 1
36 -3 0 -13 79 -6 84 7 5 12 -50 38 -63 30 -3 -2 -15 8 -25 22 -19 25 -19 25
0 18 30 -12 32 -12 33 -1 1 6 -7 11 -19 13 -11 2 -20 8 -20 13 0 5 -6 9 -14 9
-7 0 -19 7 -27 16 -11 14 -13 14 -21 0 -11 -20 -42 -20 -62 -1 -8 8 -24 15
-37 15 -17 0 -19 -3 -9 -14 9 -12 7 -15 -12 -14 -35 1 -88 18 -88 29 0 19 -38
8 -45 -13 -6 -21 -8 -21 -12 -4 -6 21 36 69 44 50 2 -7 12 -10 21 -7 9 2 44 0
76 -5 49 -8 57 -7 43 3 -21 15 -22 25 -3 25 8 0 22 7 30 16 10 10 24 13 38 9
16 -4 19 -3 9 3 -9 7 -4 11 20 15 19 3 38 1 44 -4 13 -13 122 -11 146 2 16 8
18 14 9 24 -8 9 -8 14 0 17 7 2 -9 14 -33 26 -32 16 -54 21 -73 16 -19 -5 -25
-4 -20 5 5 7 0 11 -13 11 -11 0 -23 -4 -26 -10 -3 -5 1 -10 9 -10 9 0 16 -4
16 -9 0 -5 -9 -7 -20 -4 -14 4 -20 0 -20 -10 0 -14 -3 -14 -27 -2 -48 23 -117
35 -125 22 -5 -8 1 -14 15 -19 12 -3 18 -7 12 -8 -63 -14 -93 0 -57 26 23 16
19 54 -5 54 -8 0 -12 -4 -8 -9z"/>
<path d="M516 349 c9 -15 75 -39 108 -39 26 0 36 -4 36 -16 0 -12 -6 -15 -25
-10 -19 5 -25 2 -25 -9 0 -12 -6 -15 -22 -11 -15 4 -13 1 6 -8 20 -9 25 -15
15 -19 -8 -3 -2 -6 13 -6 15 -1 33 -8 42 -16 10 -11 37 -15 97 -15 65 0 80 3
71 12 -7 7 -45 14 -84 16 -64 4 -70 6 -53 18 10 8 29 14 42 14 13 0 23 5 23
11 0 7 -11 9 -30 5 -18 -3 -29 -2 -25 3 3 5 -1 12 -7 14 -7 3 -3 6 10 6 31 1
27 16 -5 19 -16 1 -29 7 -31 12 -2 6 -10 10 -18 10 -9 0 -12 -4 -9 -10 3 -5
-1 -10 -9 -10 -9 0 -16 4 -16 8 0 4 -24 12 -54 18 -30 5 -53 7 -50 3z"/>
<path d="M378 339 c-3 -8 -60 -12 -179 -13 -96 -1 -180 -5 -187 -10 -8 -4 -12
-33 -12 -81 0 -84 -5 -79 98 -90 100 -11 90 -29 -12 -20 l-86 7 0 -26 c0 -24
3 -26 43 -26 24 0 52 -7 63 -15 11 -8 14 -15 6 -15 -6 0 -11 -5 -10 -12 2 -7
-20 -16 -52 -23 -53 -12 -52 -12 60 -11 63 0 97 3 75 6 -45 6 -38 15 19 25 22
5 51 14 65 21 14 8 31 14 37 14 6 0 17 7 24 15 7 8 21 15 31 15 27 0 24 18 -5
32 -14 6 -27 17 -30 24 -7 18 -3 18 38 -7 22 -13 33 -26 29 -35 -3 -9 1 -14
12 -14 9 0 13 -5 10 -11 -4 -6 -13 -8 -21 -5 -7 3 -16 1 -19 -4 -4 -6 -14 -10
-24 -10 -23 0 -71 -23 -71 -34 0 -4 6 -6 14 -3 20 8 87 -14 79 -26 -8 -14 200
-1 272 17 56 13 65 21 21 16 -11 -1 -16 3 -11 10 4 7 -1 14 -14 17 -11 3 -19
9 -16 13 7 11 42 1 56 -16 16 -19 91 -18 164 2 33 9 79 20 103 24 23 4 46 10
50 15 4 4 -2 5 -14 1 -22 -7 -56 2 -50 13 2 3 0 16 -4 27 -10 25 -66 37 -168
35 -74 -1 -93 -9 -61 -25 12 -6 24 -17 27 -24 3 -10 -4 -9 -28 3 -18 9 -41 15
-51 12 -11 -3 -22 -1 -25 4 -3 5 5 9 17 9 18 0 19 2 9 15 -10 12 -26 14 -68
10 -31 -3 -60 -9 -66 -15 -13 -13 -99 -13 -91 -1 3 5 0 13 -6 17 -6 3 -15 1
-19 -6 -11 -18 -46 -8 -42 13 2 14 -2 16 -22 11 -16 -4 -26 -2 -26 5 0 6 10
11 23 12 24 1 18 4 -27 14 -24 5 -27 8 -15 16 10 8 4 9 -23 7 -26 -3 -39 1
-43 10 -3 9 -14 13 -30 10 -13 -3 -22 -1 -19 3 6 11 74 12 74 2 0 -5 12 -8 28
-8 15 -1 38 -4 52 -8 24 -8 25 -8 5 8 -20 16 -20 17 5 13 14 -2 29 -13 35 -25
12 -29 43 -36 79 -17 19 9 32 11 36 4 7 -11 70 -2 70 10 0 11 -82 22 -89 13
-3 -4 -14 -9 -23 -10 -10 -2 -25 -4 -34 -5 -11 -2 -17 6 -20 25 -2 22 1 27 14
25 9 -2 16 -11 14 -20 -2 -14 5 -13 58 5 49 17 57 23 43 31 -11 6 -18 6 -21
-2 -2 -7 -20 -11 -40 -11 -20 1 -29 3 -19 6 27 7 20 21 -8 15 -15 -2 -25 0
-25 7 0 14 -27 14 -32 0z"/>
</g>
</svg>
