<?xml version="1.0" standalone="no"?>
<!DOCTYPE svg PUBLIC "-//W3C//DTD SVG 20010904//EN"
 "http://www.w3.org/TR/2001/REC-SVG-20010904/DTD/svg10.dtd">
<svg version="1.0" xmlns="http://www.w3.org/2000/svg"
 width="1182.000000pt" height="664.000000pt" viewBox="0 0 1182.000000 664.000000"
 preserveAspectRatio="xMidYMid meet">
<metadata>
Created by potrace 1.14, written by Peter Selinger 2001-2017
</metadata>
<g transform="translate(0.000000,664.000000) scale(0.100000,-0.100000)"
fill="#000000" stroke="none">
<path d="M0 4667 l0 -1973 58 3 c31 2 67 5 79 7 13 2 23 -1 23 -5 0 -5 5 -9
10 -9 6 0 10 9 10 21 0 18 4 20 38 15 102 -15 162 -17 162 -7 0 6 14 14 32 19
20 5 38 19 49 37 9 18 23 29 33 27 11 -2 16 4 16 23 0 14 4 25 9 25 5 0 11 9
14 20 4 14 14 20 34 20 16 0 33 -4 39 -9 18 -17 59 -20 78 -5 11 8 15 14 9 14
-24 0 -18 45 9 81 33 44 34 49 8 49 -11 0 -20 -6 -20 -14 0 -8 -7 -16 -15 -20
-8 -3 -15 -1 -15 4 0 6 -9 10 -20 10 -22 0 -26 -10 -11 -25 6 -6 3 -19 -9 -35
-20 -27 -39 -20 -44 16 -2 11 -9 19 -16 19 -28 0 -38 65 -14 89 14 15 14 16
-3 16 -11 0 -28 -6 -39 -14 -17 -13 -17 -17 -6 -37 15 -23 14 -24 -30 -50 -14
-7 -18 -6 -18 4 0 14 -13 17 -62 17 -16 0 -28 5 -28 10 0 6 4 9 8 6 12 -7 52
31 52 49 0 13 3 13 20 3 24 -16 30 -9 32 35 1 20 5 34 10 31 4 -3 8 0 8 6 0 6
14 17 32 25 28 11 38 11 73 -3 22 -9 46 -22 53 -29 18 -18 21 -16 14 9 -3 14
-2 19 6 14 7 -4 12 -13 12 -19 0 -7 14 -20 30 -29 17 -9 30 -24 30 -33 0 -8 5
-15 10 -15 6 0 10 11 10 23 0 31 36 65 52 49 7 -7 17 -8 29 -2 11 7 20 7 24 0
10 -16 25 -12 25 8 1 25 29 73 30 50 0 -27 1 -32 11 -50 13 -23 58 -23 66 0 4
9 13 23 20 30 16 17 17 32 1 32 -28 0 18 20 47 20 30 1 30 1 10 18 -11 9 -19
25 -17 35 3 15 11 18 38 15 29 -3 33 -1 28 14 -4 13 -1 16 10 12 11 -4 15 1
13 22 -2 24 3 29 48 45 37 13 43 18 25 19 -25 0 -50 16 -50 32 0 14 22 8 35
-9 11 -14 15 -15 29 -4 13 11 24 9 67 -13 l51 -25 -4 33 c-6 52 35 74 73 40
10 -9 24 -14 31 -11 8 3 4 8 -11 14 l-24 10 35 21 c20 12 40 22 47 22 23 0 10
19 -16 22 -32 4 -42 25 -16 35 10 3 34 19 53 35 42 34 67 36 72 6 3 -24 38
-39 38 -16 0 7 7 26 15 42 9 17 14 47 12 75 -5 59 1 75 19 60 11 -9 14 -7 14
10 0 12 -5 32 -12 44 -7 12 -11 33 -9 46 1 13 -1 26 -7 30 -5 3 -12 18 -16 34
-6 26 -5 27 19 21 32 -8 33 9 0 24 -14 6 -25 20 -25 29 1 17 1 17 11 1 10 -18
49 -25 49 -9 0 5 10 12 23 16 20 6 18 8 -15 17 -42 11 -46 19 -23 42 13 12 14
20 5 36 -9 16 -8 22 5 26 8 3 22 4 29 1 10 -4 13 -1 9 9 -9 24 5 48 20 35 11
-8 14 -4 14 19 0 18 -6 30 -14 30 -7 0 -13 11 -13 25 0 30 -35 53 -44 29 -4
-11 -13 -13 -28 -8 -32 9 -33 11 -19 40 8 18 8 30 1 39 -13 16 0 28 17 14 10
-9 13 -6 15 12 1 13 2 31 4 39 1 8 2 19 3 24 1 5 8 3 16 -4 12 -10 19 -10 27
-2 16 16 3 38 -31 53 -32 14 -38 24 -21 34 6 3 10 2 10 -3 0 -5 8 -12 18 -16
9 -3 24 -9 32 -12 8 -4 4 5 -9 20 -25 27 -24 48 0 23 8 -7 27 -17 42 -21 15
-3 27 -11 27 -16 0 -6 27 -10 60 -10 33 0 60 -4 60 -10 0 -6 40 -10 100 -10
55 0 100 4 100 9 0 11 80 19 86 9 3 -5 10 -6 15 -3 5 4 9 2 9 -4 0 -16 53 -18
84 -3 20 10 31 11 39 3 13 -13 50 -15 61 -3 4 4 17 8 29 9 12 1 43 4 70 6 26
3 50 1 53 -4 6 -10 97 -12 132 -3 12 4 22 13 22 20 0 8 5 14 10 14 6 0 10 -7
10 -15 0 -18 48 -21 55 -2 3 6 23 13 45 15 35 2 40 0 40 -19 0 -19 4 -21 38
-15 78 12 122 14 127 5 8 -12 75 -12 75 1 0 6 6 10 13 10 8 0 28 7 46 16 18 9
44 17 59 19 15 1 52 6 82 9 45 6 62 4 95 -13 21 -12 45 -21 52 -21 7 0 25 -13
41 -28 26 -25 37 -29 93 -29 84 0 181 -12 196 -25 7 -5 41 -11 77 -11 46 -2
70 -7 84 -21 12 -10 26 -15 31 -11 6 3 11 2 11 -4 0 -6 6 -8 14 -5 8 3 24 -4
35 -15 12 -12 26 -21 31 -21 6 0 10 -4 10 -10 0 -5 5 -10 12 -10 6 0 35 -11
65 -25 29 -14 59 -25 66 -24 23 3 52 -3 40 -8 -20 -7 12 -34 31 -27 9 3 16 1
16 -5 0 -6 -4 -11 -9 -11 -5 0 -13 -10 -17 -22 -4 -13 -11 -26 -17 -29 -17
-12 -11 -129 12 -219 6 -23 9 -27 10 -14 1 12 8 24 16 28 12 4 15 -3 15 -37 0
-23 -4 -49 -10 -57 -6 -9 -5 -17 2 -21 9 -6 8 -11 -1 -22 -8 -10 -9 -17 -1
-22 5 -3 10 -25 10 -49 0 -23 4 -46 9 -52 6 -5 12 -22 15 -38 5 -30 16 -48 16
-27 0 7 5 9 10 6 6 -3 10 -17 10 -30 0 -12 7 -26 16 -29 9 -4 14 -13 10 -21
-8 -21 3 -45 21 -45 12 0 13 3 4 14 -16 19 -27 106 -12 106 6 0 11 -17 11 -39
0 -42 13 -57 42 -53 13 2 16 -1 12 -12 -3 -9 -10 -14 -14 -11 -15 9 -18 -10
-4 -23 10 -10 14 -10 14 -1 0 7 3 9 6 6 4 -4 1 -13 -6 -22 -11 -13 -8 -15 16
-15 25 0 29 -4 30 -30 2 -26 0 -28 -18 -19 -11 6 -33 7 -51 3 -18 -4 -35 -7
-39 -6 -17 4 -7 -18 12 -28 22 -12 44 -5 35 11 -4 5 -2 9 4 9 5 0 12 -4 16
-10 4 -6 15 -6 32 1 15 5 61 9 104 8 62 -1 83 2 106 18 26 18 63 21 63 4 0 -4
11 -13 25 -19 14 -6 25 -20 25 -30 0 -9 7 -28 16 -40 l16 -23 -54 6 c-29 4
-85 13 -125 21 -85 17 -83 16 -83 5 0 -9 201 -51 244 -51 14 0 28 -4 31 -10
10 -15 -93 -12 -180 6 -42 9 -79 13 -82 11 -6 -7 48 -22 137 -38 38 -7 66 -17
64 -21 -8 -12 -56 -10 -128 7 -60 14 -70 14 -116 -1 -64 -21 -59 -28 8 -12 44
10 64 9 132 -7 44 -10 80 -22 80 -26 0 -15 -26 -15 -92 -1 -56 12 -75 13 -113
2 -25 -7 -44 -15 -41 -17 2 -2 22 1 44 8 35 10 51 9 106 -7 36 -10 66 -22 66
-26 0 -11 -47 -10 -89 3 -28 8 -45 7 -76 -6 -28 -11 -31 -13 -10 -8 42 9 65 7
108 -9 42 -16 39 -28 -7 -28 -27 0 -28 -1 -11 -13 10 -8 15 -19 11 -25 -4 -7
-2 -12 4 -12 6 0 8 -5 5 -10 -4 -6 -11 -8 -16 -5 -5 4 -9 -1 -9 -9 0 -13 5
-13 33 4 17 11 49 20 69 20 43 0 63 -20 21 -21 -16 0 -22 -3 -13 -6 8 -4 21
-12 28 -20 11 -11 9 -15 -13 -23 -14 -5 -23 -15 -20 -20 4 -6 3 -10 -2 -9 -25
4 -42 -3 -48 -22 -8 -25 0 -35 18 -21 7 6 26 10 43 9 23 -2 28 2 26 17 -2 11
1 16 10 14 7 -3 20 3 29 13 22 25 69 36 69 16 0 -9 -8 -18 -17 -20 -10 -3 -2
-5 17 -6 33 -2 34 -2 16 -16 -19 -14 -17 -15 20 -15 l39 -1 -59 -30 c-32 -17
-55 -33 -52 -36 4 -4 12 -1 18 5 7 7 24 12 39 12 15 0 31 5 34 10 4 6 11 8 16
4 15 -9 -20 -44 -45 -44 -12 0 -39 -12 -61 -25 -50 -31 -19 -35 38 -5 49 26
99 25 142 -3 44 -28 44 -38 3 -31 -25 4 -29 3 -18 -5 13 -9 13 -11 0 -11 -9 0
-21 5 -28 12 -9 9 -15 9 -24 -1 -11 -11 -10 -13 5 -8 9 4 17 2 17 -3 0 -5 -16
-12 -35 -16 -19 -3 -38 -10 -41 -15 -3 -5 -16 -9 -30 -9 -24 0 -62 -26 -52
-35 2 -2 39 7 82 21 44 13 84 23 90 20 6 -2 3 -5 -6 -5 -26 -1 -23 -38 3 -46
16 -5 18 -9 9 -15 -15 -9 -41 -2 -53 14 -5 7 -7 2 -4 -11 3 -14 0 -23 -6 -24
-7 0 -39 -13 -72 -29 -51 -24 -55 -28 -25 -23 19 3 43 10 54 15 21 11 106 1
106 -12 0 -5 -8 -11 -17 -13 -11 -3 -5 -5 12 -6 l30 -2 -25 -14 c-14 -8 -31
-14 -37 -15 -16 0 -125 -52 -120 -56 2 -3 60 14 128 36 68 22 128 40 134 39 9
0 -156 -65 -225 -89 -15 -5 -19 -9 -8 -9 9 -1 72 17 139 39 67 22 124 38 126
37 2 -2 -55 -26 -127 -52 -71 -27 -128 -51 -125 -53 2 -2 75 19 162 47 245 79
224 65 -55 -35 -125 -45 -71 -38 83 11 80 26 148 45 150 43 3 -2 -19 -12 -48
-22 -221 -77 -290 -115 -92 -51 200 64 151 35 -77 -45 -75 -26 -145 -53 -155
-60 -17 -11 -17 -11 2 -5 145 49 286 94 310 99 45 9 -61 -38 -132 -59 -67 -19
-155 -56 -150 -62 3 -2 49 12 103 32 55 19 104 35 109 34 14 0 -83 -44 -193
-86 -51 -20 -91 -38 -89 -40 6 -5 185 60 236 87 24 12 45 19 47 17 10 -10
-137 -81 -230 -111 -10 -4 -16 -9 -13 -13 4 -3 24 1 44 10 21 8 65 25 98 38
33 13 71 31 85 41 25 17 119 43 127 34 2 -2 -9 -12 -26 -22 -16 -10 -28 -21
-26 -25 3 -4 -12 -14 -33 -23 -40 -18 -40 -18 56 0 51 10 38 -11 -28 -47 -41
-21 -57 -36 -51 -42 7 -7 14 -7 23 0 7 6 27 13 43 16 17 3 38 9 48 12 9 4 17
3 17 -1 0 -8 -41 -31 -117 -67 -13 -6 -23 -14 -23 -19 0 -4 -11 -8 -24 -8 -14
0 -27 -4 -30 -9 -3 -4 -20 -11 -38 -15 -17 -3 -39 -12 -47 -20 -9 -8 -36 -21
-61 -29 -35 -12 -39 -16 -19 -17 14 0 29 4 35 9 5 4 34 17 64 27 30 10 62 24
71 31 8 7 21 13 27 13 7 0 20 4 30 9 35 18 93 41 102 41 6 0 10 -6 10 -14 0
-11 -21 -23 -46 -25 -2 0 -16 -9 -31 -21 -14 -11 -32 -20 -39 -20 -8 0 -14 -5
-14 -10 0 -7 -14 -9 -37 -5 -28 5 -34 4 -23 -4 12 -8 5 -14 -33 -31 -27 -12
-47 -24 -44 -26 6 -7 108 23 147 42 29 15 50 12 50 -7 0 -5 -14 -9 -31 -9 -19
0 -28 -4 -24 -11 4 -6 -2 -13 -14 -16 -12 -3 -21 -9 -21 -13 0 -5 -16 -14 -36
-20 -20 -7 -48 -19 -62 -27 -26 -14 -26 -15 21 -10 55 5 59 -2 17 -27 -32 -19
-32 -36 1 -36 29 0 20 -32 -14 -48 -28 -14 -39 -39 -11 -28 9 3 20 3 26 0 13
-8 -21 -44 -43 -44 -10 0 -24 -6 -31 -13 -7 -8 -20 -17 -28 -20 -11 -5 -9 -6
5 -6 11 1 31 0 45 0 l25 -2 -24 -10 c-14 -5 -31 -7 -38 -5 -7 3 -13 1 -13 -4
0 -5 -20 -12 -45 -16 -52 -7 -58 -19 -14 -28 41 -8 51 -8 45 2 -2 4 12 6 32 3
l37 -4 -30 -12 c-16 -7 -35 -10 -42 -8 -7 3 -20 0 -28 -7 -8 -6 -18 -10 -22
-7 -4 3 -21 -1 -38 -9 -28 -13 -26 -14 42 -10 39 2 80 9 91 15 30 16 40 13 16
-3 -26 -18 -121 -43 -199 -51 -43 -5 -56 -3 -45 4 8 6 24 11 35 12 17 1 17 2
3 6 -10 2 -18 14 -18 25 0 17 -5 20 -29 15 -16 -4 -49 -15 -73 -25 -24 -11
-58 -25 -75 -32 -44 -17 -42 -31 3 -19 19 6 40 9 46 7 13 -5 -48 -35 -84 -43
-16 -3 -28 -10 -28 -15 0 -6 12 -8 28 -5 l27 6 -27 -18 c-37 -24 -36 -38 2
-18 34 17 40 18 40 6 0 -5 -16 -15 -35 -22 -19 -7 -35 -16 -35 -21 0 -4 -12
-14 -27 -22 -27 -15 -27 -15 -5 -16 13 0 37 7 54 16 16 9 27 11 23 5 -3 -6
-27 -22 -53 -36 -36 -18 -42 -24 -24 -25 12 0 34 8 48 17 20 13 30 14 44 5 14
-9 17 -8 16 6 -1 12 6 16 24 14 20 -2 22 -1 10 7 -13 9 -13 11 3 11 10 0 17
-8 17 -20 0 -13 -7 -20 -20 -20 -11 0 -20 -4 -20 -10 0 -5 8 -10 18 -10 12 0
17 -8 17 -32 0 -17 -6 -33 -13 -36 -6 -2 -12 4 -12 13 0 9 -5 13 -10 10 -18
-11 7 -44 30 -38 27 7 25 -11 -2 -25 -23 -10 -23 -11 5 -11 33 -1 36 -21 3
-21 -14 0 -28 -5 -31 -11 -5 -7 5 -8 29 -4 24 5 36 3 36 -4 0 -6 -6 -11 -12
-11 -9 0 -8 -3 2 -10 10 -6 20 -5 30 4 15 14 52 31 124 61 27 10 43 12 50 5 7
-7 2 -10 -16 -10 -15 0 -30 -4 -33 -10 -3 -5 -17 -10 -31 -10 -13 0 -24 -3
-24 -8 0 -6 -35 -24 -122 -60 -21 -9 -26 -16 -21 -29 7 -17 8 -17 11 0 4 17
56 25 65 10 10 -18 -12 -47 -44 -57 -24 -8 -33 -17 -31 -29 2 -9 -3 -17 -10
-18 -7 -1 -27 -2 -44 -4 -17 -1 -40 -8 -52 -14 -22 -12 -69 -10 -91 3 -16 10
-25 1 -18 -18 3 -8 16 -16 29 -18 l23 -5 -25 -11 c-14 -6 -20 -11 -13 -11 6
-1 11 -10 10 -21 -1 -23 -17 -28 -17 -5 0 8 -20 23 -45 34 -25 11 -48 28 -52
38 -4 10 -13 23 -22 29 -8 7 -12 19 -8 30 5 15 3 14 -9 -3 -9 -13 -24 -23 -34
-23 -21 0 -32 -22 -24 -47 5 -16 4 -16 -6 -3 -8 10 -13 11 -16 3 -4 -8 -15 -9
-37 -2 -45 13 -54 11 -31 -6 10 -8 27 -15 38 -15 12 0 16 -5 12 -16 -3 -9 -6
-17 -6 -19 0 -2 -9 -1 -19 2 -14 3 -21 -2 -27 -19 -16 -48 -19 -69 -12 -98 2
-8 -3 -14 -9 -12 -7 1 -13 -5 -13 -13 0 -8 -4 -15 -10 -15 -5 0 -10 5 -10 11
0 5 -5 7 -11 3 -8 -5 -8 -8 0 -14 13 -7 4 -40 -10 -40 -4 0 -6 7 -3 15 5 11 2
13 -10 9 -9 -3 -23 -1 -31 6 -13 11 -14 10 -9 -4 3 -9 10 -16 15 -16 5 0 9 -4
9 -10 0 -14 -27 -12 -33 3 -3 7 -6 4 -6 -6 -1 -16 5 -18 34 -14 48 6 44 -5 -6
-21 -37 -11 -43 -11 -55 5 -10 13 -13 14 -14 4 0 -8 -3 -11 -7 -8 -3 4 -12 2
-19 -4 -7 -6 -34 -11 -59 -11 -49 -1 -42 -18 8 -18 15 0 30 -6 33 -14 3 -8 13
-12 26 -8 17 4 20 2 15 -11 -4 -10 -2 -17 4 -17 17 0 -11 -40 -34 -50 -12 -5
-16 -9 -9 -9 8 -1 10 -10 6 -28 -9 -37 -9 -36 -33 -21 -18 11 -23 11 -30 -1
-7 -10 -13 -11 -31 -1 -18 10 -20 14 -9 21 12 8 11 10 -1 8 -40 -4 -58 15 -22
24 13 3 10 6 -10 11 -16 5 -28 12 -28 17 0 5 -11 9 -25 9 -19 0 -23 -4 -19
-17 5 -17 5 -17 -8 -1 -9 11 -22 15 -36 11 -16 -4 -22 -1 -22 11 0 9 -8 16
-21 16 -11 0 -18 -4 -14 -9 3 -6 -3 -14 -12 -20 -15 -8 -12 -13 27 -30 28 -13
48 -17 54 -11 13 13 29 13 21 1 -3 -5 7 -9 22 -9 16 1 54 -13 85 -31 41 -23
57 -28 61 -19 4 10 6 10 6 0 1 -7 8 -20 16 -28 20 -20 9 -42 -23 -47 l-27 -4
28 -2 c22 -1 27 -6 27 -26 0 -23 -4 -25 -42 -25 -39 0 -40 -1 -22 -15 10 -8
31 -15 47 -15 21 0 30 -7 37 -27 16 -45 25 -56 58 -72 17 -9 32 -20 32 -24 0
-12 -43 4 -55 20 -6 8 -30 15 -57 16 -25 1 -44 5 -41 9 2 5 0 8 -6 8 -5 0 -12
-6 -14 -12 -4 -10 -8 -10 -15 0 -5 8 -20 12 -33 10 -19 -3 -15 -6 23 -18 26
-8 44 -18 41 -23 -3 -5 3 -5 13 1 16 8 35 9 79 2 6 -1 -1 -6 -15 -12 l-25 -10
30 -9 c33 -10 155 -1 155 11 0 4 -12 5 -27 3 l-28 -4 23 17 c12 9 22 23 22 31
0 8 5 11 10 8 6 -4 8 -11 5 -16 -3 -5 1 -6 9 -3 9 3 16 2 16 -4 0 -6 29 -12
64 -14 48 -2 62 0 55 9 -7 8 -4 10 13 7 19 -3 18 -2 -4 8 -16 7 -28 14 -28 17
0 3 40 6 89 6 51 0 87 -4 84 -9 -4 -5 -1 -6 6 -2 6 4 28 2 48 -5 27 -8 38 -9
41 -1 2 7 16 9 35 6 29 -5 28 -4 -12 15 -52 25 -55 25 -47 5 5 -12 1 -14 -17
-8 -33 10 -58 27 -28 18 19 -5 23 -3 18 9 -3 9 -1 18 6 21 7 4 2 4 -10 2 -13
-2 -26 0 -29 6 -3 5 -15 8 -25 5 -14 -4 -19 0 -19 15 0 12 4 17 12 12 14 -9
51 -15 111 -19 26 -1 54 -8 62 -15 8 -7 22 -10 30 -6 10 4 15 -1 15 -14 0 -28
13 -25 27 6 17 36 7 47 -33 41 -41 -7 -74 1 -68 16 3 8 -10 12 -35 12 -22 1
-37 -3 -35 -7 3 -4 11 -8 19 -8 8 0 17 -5 21 -12 5 -8 2 -9 -12 -3 -10 4 -32
9 -49 10 -22 1 -29 6 -27 18 2 10 -4 17 -13 17 -9 0 -13 -5 -9 -11 4 -7 -1
-10 -12 -7 -10 2 -20 12 -22 22 -3 16 0 18 25 12 15 -4 43 -9 61 -11 18 -2 36
-6 40 -8 4 -2 21 2 37 9 29 13 28 13 -35 14 -48 1 -60 4 -45 11 15 7 12 8 -12
3 -21 -3 -33 -1 -33 5 0 6 -9 11 -20 11 -22 0 -27 16 -8 22 9 3 8 11 -4 30
l-17 26 69 -1 c38 -1 67 -3 64 -6 -2 -3 6 -11 18 -18 l23 -13 -25 1 c-49 4
-58 0 -53 -21 5 -20 12 -21 86 -21 25 0 45 -7 58 -20 18 -18 49 -26 49 -13 0
3 -5 14 -10 25 -8 14 -21 19 -55 19 -24 0 -47 4 -50 10 -3 5 0 10 8 10 24 0
28 29 7 40 -22 12 -22 46 1 61 10 6 7 9 -13 9 -16 0 -28 3 -29 8 0 4 -2 27 -5
51 -5 37 -3 43 11 37 12 -4 15 -1 10 13 -5 16 20 51 29 40 2 -2 21 -35 44 -74
28 -49 37 -72 29 -77 -8 -5 -7 -8 3 -8 13 0 140 -130 140 -144 0 -3 -6 -3 -12
-1 -7 3 -31 -1 -52 -9 l-40 -14 30 -5 c16 -3 49 -8 74 -12 78 -10 84 -27 7
-19 -81 8 -98 -3 -117 -74 -7 -26 -17 -51 -21 -56 -5 -6 -9 -17 -9 -25 -1 -19
-50 -82 -50 -64 0 6 -11 10 -25 9 -36 -4 -44 -16 -11 -16 24 0 27 -3 22 -23
-3 -12 -6 -28 -6 -34 0 -7 -8 -13 -17 -13 -16 -1 -16 -2 1 -15 16 -12 17 -15
4 -15 -29 0 -78 12 -78 20 0 4 12 5 26 2 21 -4 25 -1 22 14 -2 13 -12 19 -28
18 -14 -1 -28 4 -32 10 -4 6 -10 7 -14 3 -4 -3 -1 -13 6 -22 7 -8 8 -15 2 -15
-5 0 -15 6 -21 14 -9 10 -8 16 4 26 14 12 14 15 -1 31 -9 10 -25 21 -35 24
-11 4 -17 11 -14 16 6 9 -78 5 -94 -6 -5 -3 -12 -1 -16 5 -9 14 -22 13 -28 -3
-3 -7 2 -13 12 -13 9 0 34 -4 56 -8 28 -5 36 -4 25 3 -21 15 3 13 31 -1 18
-10 23 -20 21 -41 -3 -23 -7 -27 -25 -22 -41 12 -87 36 -87 45 0 6 -10 10 -22
10 -16 0 -19 -3 -11 -11 6 -6 9 -18 6 -26 -5 -11 -9 -11 -26 4 -11 10 -17 13
-14 7 9 -16 -29 -25 -58 -14 -13 5 -26 6 -29 2 -4 -3 -32 -7 -63 -8 -47 -2
-60 1 -71 17 -15 21 -52 25 -70 7 -9 -9 -12 -9 -12 0 0 7 -8 12 -18 12 -10 0
-35 8 -56 18 -23 11 -54 17 -82 16 -24 -2 -44 1 -44 7 0 5 5 9 12 9 7 0 5 7
-5 18 -15 16 -15 18 3 18 11 0 20 -4 20 -9 0 -4 4 -5 10 -2 23 15 7 25 -40 25
-36 0 -59 6 -79 21 -15 11 -48 22 -72 25 -24 2 -37 1 -29 -3 31 -16 19 -30
-26 -29 -24 0 -44 3 -44 7 0 3 -40 6 -89 5 -49 0 -87 -4 -84 -8 2 -5 0 -8 -4
-8 -5 0 -17 13 -26 30 -10 16 -21 29 -25 28 -14 -4 -72 14 -72 22 0 4 -6 7
-12 6 -26 -2 -18 18 8 21 14 2 23 0 20 -5 -3 -6 1 -12 9 -16 10 -4 15 1 15 15
0 15 5 19 18 15 40 -13 112 -23 112 -16 0 5 -13 11 -30 14 -16 3 -43 9 -60 12
-34 6 -41 24 -10 24 11 0 20 5 20 10 0 12 -20 13 -40 0 -9 -6 -17 -5 -22 3
-12 19 -9 30 7 23 8 -3 15 -1 15 4 0 6 -6 10 -14 10 -8 0 -16 5 -18 12 -3 8
-12 4 -26 -10 l-22 -22 25 -12 c13 -6 22 -15 19 -20 -3 -5 -11 -5 -17 0 -7 5
-20 12 -30 15 -15 6 -17 3 -12 -12 5 -15 1 -18 -22 -13 -16 2 -32 8 -38 12 -5
4 -18 10 -29 14 -14 5 -17 2 -12 -9 7 -20 -10 -19 -32 3 -9 9 -36 26 -60 36
-23 10 -42 23 -42 28 0 11 18 10 25 -2 5 -8 11 -8 20 0 9 8 25 6 56 -5 75 -28
76 -28 76 -8 0 10 -4 24 -10 31 -11 14 -71 17 -62 2 3 -6 -4 -10 -16 -10 -22
0 -22 0 -3 21 15 16 26 20 54 15 19 -3 42 -1 50 4 12 8 12 10 -4 10 -20 0 -20
0 0 15 19 14 19 14 -1 15 -11 0 -30 3 -43 6 -18 5 -21 3 -16 -10 9 -23 -33
-21 -75 5 -27 16 -32 17 -28 5 7 -17 -8 -22 -18 -6 -3 6 -12 10 -18 10 -8 0
-8 -3 1 -9 11 -7 10 -10 -3 -15 -23 -9 -27 -8 -19 5 4 7 1 10 -7 7 -8 -3 -13
-12 -11 -22 2 -10 -4 -16 -18 -16 -11 0 -20 5 -20 10 0 6 -7 10 -15 10 -8 0
-14 -6 -12 -12 1 -8 -8 -12 -25 -10 -16 2 -28 2 -28 -1 0 -7 94 -65 131 -80
19 -8 54 -26 77 -41 23 -14 53 -26 67 -26 14 0 28 -7 31 -15 4 -8 11 -15 18
-15 6 0 60 -25 120 -55 60 -30 113 -52 117 -49 5 3 22 -2 40 -11 39 -21 50
-12 12 10 -29 17 -18 16 45 -4 29 -9 32 -8 22 4 -20 24 -3 17 24 -10 23 -23
54 -35 42 -17 -2 4 4 13 15 20 11 7 19 8 19 2 0 -5 -6 -10 -12 -11 -33 -2 33
-18 75 -18 32 -1 46 -5 42 -12 -4 -6 -22 -8 -46 -4 -21 4 -39 4 -39 1 0 -17
63 -66 85 -66 14 0 37 -7 50 -16 15 -10 55 -18 102 -20 l78 -5 -33 21 c-26 16
-37 18 -47 10 -8 -6 -24 -10 -37 -7 -20 4 -20 4 5 6 40 2 33 21 -8 21 -19 0
-35 4 -35 9 0 5 -15 16 -32 25 -22 10 -27 16 -15 16 11 0 34 -7 53 -16 19 -9
37 -14 41 -11 3 3 23 -3 45 -14 26 -13 44 -17 55 -11 17 10 51 5 71 -11 9 -7
20 -6 37 3 22 12 29 11 55 -8 16 -12 43 -22 60 -22 17 0 39 -9 50 -20 11 -11
26 -17 33 -14 7 2 24 -4 37 -16 26 -22 36 -25 45 -10 3 6 11 10 16 10 6 0 7
-5 4 -10 -9 -15 156 -11 174 4 11 8 15 8 18 -1 6 -17 50 -17 56 0 4 9 6 9 6 0
1 -16 1381 -19 1381 -4 0 6 -7 31 -16 57 -14 42 -14 49 1 80 9 19 23 34 31 34
8 0 13 -4 10 -9 -3 -5 7 -44 23 -87 l28 -79 422 -2 c264 -1 419 2 416 7 -4 6
-13 10 -22 10 -9 0 -14 2 -11 5 8 9 68 -7 62 -16 -3 -5 4 -9 15 -9 10 0 22 6
24 13 4 9 8 9 14 1 4 -7 32 -11 63 -11 30 1 47 3 38 5 -10 2 -18 12 -18 24 0
14 5 18 15 15 8 -4 17 -1 21 4 10 16 -23 43 -53 45 -15 0 -28 5 -30 11 -9 26
78 -3 120 -40 24 -21 33 -24 59 -16 35 9 51 3 28 -11 -11 -7 -8 -11 15 -21 35
-13 85 -17 92 -7 2 5 9 8 14 8 6 0 8 -4 5 -8 -7 -12 115 -12 154 1 19 6 43 10
53 8 9 -1 17 3 17 8 0 6 -5 11 -11 11 -5 0 -7 5 -4 10 5 8 11 7 21 -1 9 -7 32
-10 59 -7 25 3 48 2 51 -3 3 -5 -4 -9 -15 -9 -12 0 -21 -4 -21 -9 0 -16 32
-22 48 -9 12 10 14 10 8 1 -5 -10 11 -13 70 -13 68 0 75 2 64 15 -10 12 -10
19 -2 27 9 9 15 7 26 -7 8 -11 12 -23 10 -27 -3 -5 72 -8 166 -8 112 0 169 3
165 10 -3 6 -15 10 -26 10 -10 0 -19 5 -19 10 0 12 27 13 34 1 3 -5 15 -7 26
-4 15 4 19 2 14 -10 -5 -13 40 -15 385 -16 313 -2 391 1 391 11 0 9 3 9 10 -2
6 -9 13 -11 18 -5 8 12 77 13 88 2 14 -14 46 -8 40 8 -4 11 2 15 27 15 21 0
28 -3 19 -9 -10 -6 -8 -10 10 -14 40 -11 50 -8 43 13 -5 15 -2 20 10 20 12 0
16 -6 12 -20 -3 -11 -1 -20 3 -20 5 0 11 10 13 23 l4 22 8 -22 c4 -13 12 -23
17 -23 5 0 7 4 4 8 -2 4 4 13 14 20 12 7 21 8 25 2 3 -6 0 -10 -7 -11 -42 -2
40 -16 106 -18 68 -2 78 0 73 13 -4 10 -1 16 8 16 8 0 14 -6 13 -12 -2 -9 14
-13 54 -14 36 0 55 3 51 9 -4 7 1 7 13 2 30 -14 1333 -19 1349 -5 9 8 15 8 20
0 4 -7 152 -10 461 -10 439 1 454 1 454 20 0 10 -8 21 -17 23 -17 4 -17 5 0 6
15 1 17 13 17 100 0 95 -1 100 -22 104 l-23 4 23 2 22 1 0 3190 0 3190 -5910
0 -5910 0 0 -1973z m6747 -3760 c41 1 52 -2 56 -16 4 -18 66 -31 147 -31 27 0
32 3 20 11 -11 8 -5 9 25 5 22 -3 73 -8 113 -12 62 -6 70 -9 60 -22 -8 -9 -14
-10 -16 -3 -2 6 -11 11 -20 11 -14 0 -14 -2 -2 -14 11 -10 27 -12 60 -6 25 4
37 8 28 9 -10 0 -18 5 -18 9 0 5 20 4 45 -2 30 -7 44 -15 40 -23 -2 -7 1 -13
8 -13 6 0 2 -10 -10 -22 l-22 -21 -120 23 c-72 14 -138 21 -165 18 -25 -3 -46
-2 -46 2 0 4 -17 11 -37 15 -21 4 -43 11 -50 16 -7 7 -13 6 -17 0 -9 -14 26
-31 64 -31 17 0 29 -4 25 -10 -3 -5 -12 -7 -20 -3 -8 3 -15 0 -15 -6 0 -6 -5
-11 -11 -11 -5 0 -7 5 -3 12 5 8 2 9 -9 5 -11 -4 -20 1 -27 13 -7 13 -21 20
-41 20 -17 0 -40 5 -51 11 -16 9 -19 8 -12 -3 4 -7 -15 7 -44 30 -29 24 -52
46 -52 49 0 3 15 2 33 -3 17 -4 55 -8 84 -7z m21 -96 c9 -5 28 -13 42 -19 14
-5 42 -18 64 -27 21 -9 44 -18 50 -19 6 -1 17 -5 24 -9 6 -5 17 -5 22 -2 6 3
10 -3 10 -14 0 -13 7 -21 16 -21 14 0 14 3 4 15 -7 9 -10 18 -6 22 3 3 6 2 6
-3 0 -5 8 -10 18 -11 26 -2 92 -10 137 -18 l40 -6 -32 15 c-18 8 -33 17 -33
19 0 2 16 4 36 5 20 1 45 4 56 8 12 3 27 -1 40 -13 17 -15 39 -18 135 -20 69
-1 120 -6 128 -13 8 -7 19 -9 25 -5 5 3 10 2 10 -4 0 -19 -20 -21 -56 -6 -20
8 -55 15 -78 14 l-41 -1 35 -8 c19 -5 36 -7 38 -5 2 1 20 -5 40 -15 26 -13 43
-15 60 -9 35 13 52 11 52 -8 0 -15 2 -14 15 3 9 12 14 14 15 5 0 -8 7 -11 20
-8 11 3 18 0 17 -6 -2 -10 15 -15 121 -33 23 -3 42 -10 42 -14 0 -4 17 -6 38
-6 20 1 47 -2 59 -8 16 -6 28 -5 40 5 16 13 17 12 4 -3 -12 -16 -11 -18 10
-19 23 0 23 -1 4 -10 -17 -8 -16 -9 8 -5 15 2 30 -1 33 -6 3 -5 13 -6 22 -3
11 3 22 -3 30 -15 15 -25 4 -26 -53 -6 -25 9 -44 11 -50 5 -5 -5 -18 -9 -30
-9 -17 0 -18 2 -5 11 11 8 7 9 -17 5 -21 -3 -33 -1 -33 5 0 6 -7 9 -15 6 -8
-4 -17 -1 -21 5 -5 7 11 9 52 4 36 -4 53 -3 44 2 -25 15 -120 24 -120 12 0 -7
-6 -10 -12 -7 -7 2 -13 9 -13 14 0 6 -4 15 -8 20 -5 4 -7 1 -5 -7 2 -10 -5
-15 -21 -15 -15 0 -27 -8 -32 -23 -5 -13 -4 -22 1 -22 6 0 10 -7 10 -16 0 -14
-9 -15 -57 -10 -31 3 -62 11 -67 16 -6 6 -21 10 -36 9 -23 0 -23 -1 -5 -9 18
-8 18 -9 -5 -10 -54 -4 -126 2 -140 11 -10 7 8 8 53 4 43 -4 67 -3 67 4 0 16
-22 25 -30 11 -5 -8 -9 -7 -13 4 -4 9 -13 16 -22 16 -8 0 -15 4 -15 9 0 5 16
5 38 0 20 -5 41 -9 45 -9 5 0 6 -4 3 -9 -3 -4 16 -11 42 -14 26 -4 62 -9 81
-13 22 -4 31 -2 26 5 -3 6 -1 11 4 11 15 0 14 47 -1 54 -7 3 -1 4 15 2 15 -2
30 1 33 5 3 5 -16 9 -43 9 -36 0 -44 -3 -33 -11 11 -8 8 -9 -15 -5 -16 3 -36
2 -44 -3 -10 -7 -1 -11 32 -16 26 -4 50 -11 53 -16 7 -12 -28 -11 -61 1 -17 7
-24 7 -20 0 3 -6 1 -10 -4 -10 -6 0 -11 4 -11 9 0 8 -53 17 -136 25 -16 1 -36
6 -42 10 -7 4 -33 -2 -58 -14 -25 -12 -48 -19 -52 -16 -3 4 4 9 16 13 12 3 22
9 22 13 0 15 -40 22 -55 10 -9 -7 -15 -8 -20 0 -11 18 -27 11 -20 -10 5 -15 3
-18 -8 -14 -23 8 -33 -17 -12 -32 16 -12 16 -13 -3 -11 -11 0 -19 4 -16 8 7
11 -24 31 -53 34 -31 2 -88 23 -81 30 7 7 48 -7 48 -17 0 -5 9 -7 20 -3 11 3
27 2 37 -4 11 -6 24 -6 35 0 16 9 16 11 1 29 -15 18 -17 18 -30 2 -12 -16 -12
-15 -6 2 4 13 3 17 -5 12 -7 -4 -12 -2 -12 5 0 8 -12 10 -40 5 -32 -5 -38 -3
-34 8 7 17 -45 31 -78 20 -19 -6 -21 -4 -11 7 13 16 0 49 -14 36 -4 -5 -1 -12
6 -16 10 -7 9 -10 -8 -16 -36 -11 -12 -27 36 -23 38 2 46 0 49 -15 1 -10 -3
-16 -9 -14 -7 3 -11 10 -9 16 1 6 -2 11 -8 11 -6 0 -10 -5 -10 -11 0 -7 -12
-10 -30 -7 -24 4 -30 1 -30 -14 0 -10 -4 -18 -10 -18 -5 0 -9 3 -9 8 1 4 1 15
0 26 -1 15 -4 16 -16 6 -9 -8 -15 -8 -15 -2 0 6 -10 14 -22 18 -12 3 -28 13
-36 20 -7 8 -18 14 -23 14 -6 0 -3 -7 6 -16 9 -9 14 -23 11 -30 -6 -16 23 -34
56 -35 l23 0 -22 -11 c-16 -8 -26 -7 -37 3 -35 32 -46 39 -59 39 -8 0 -17 13
-20 28 -3 15 -26 56 -51 90 -47 63 -49 69 -18 53z m331 -208 c-3 -19 15 -52
30 -56 10 -3 8 -5 -7 -6 -13 0 -21 -4 -18 -9 2 -4 -13 -8 -35 -8 -21 -1 -36 2
-34 7 3 4 -9 4 -27 -2 -18 -5 -34 -9 -35 -9 -1 0 1 7 4 17 5 11 3 14 -6 9 -7
-5 -11 -17 -8 -27 3 -10 1 -22 -4 -25 -5 -3 -9 0 -9 6 0 8 -17 11 -49 8 l-49
-3 -4 41 -3 41 61 -1 c34 -1 60 -4 57 -8 -7 -13 32 -9 46 5 10 8 12 8 7 0 -4
-8 3 -11 24 -11 19 1 35 8 41 20 10 18 20 24 18 11z m1271 -42 c0 -9 122 -7
191 3 32 4 36 2 32 -13 -5 -21 12 -37 22 -22 4 7 15 7 30 1 16 -6 34 -6 50 0
14 5 25 6 25 2 0 -4 5 0 10 8 8 12 13 13 30 3 11 -7 29 -13 40 -13 12 0 19 -4
16 -8 -2 -4 50 -9 117 -10 67 -2 126 -7 131 -12 17 -17 2 -20 -52 -11 -28 4
-49 5 -47 1 2 -4 -14 -7 -35 -8 -25 -1 -40 3 -40 10 0 9 -3 9 -12 0 -14 -14
-32 -16 -24 -3 4 5 -3 7 -14 4 -11 -3 -27 0 -35 7 -12 10 -15 10 -15 -3 0 -13
-8 -15 -37 -10 -21 3 -42 10 -48 14 -5 6 4 7 23 3 21 -4 32 -3 32 5 0 6 -16
11 -35 11 -19 0 -35 -4 -35 -9 0 -6 -11 -6 -29 0 -21 8 -36 7 -51 -1 -15 -8
-20 -8 -16 -1 5 7 -9 11 -41 11 -31 0 -43 3 -34 9 10 6 10 10 1 16 -6 4 -18
-1 -25 -11 -9 -12 -18 -15 -22 -9 -5 6 -28 11 -53 13 -59 4 -82 11 -75 23 8
12 25 12 25 0z m-1233 -195 c4 -3 -3 -6 -15 -6 -12 0 -22 -4 -22 -9 0 -5 -17
-13 -37 -19 -37 -10 -37 -10 -8 -11 19 -1 35 -9 43 -21 8 -14 23 -20 48 -20
21 0 33 -4 29 -10 -4 -6 -11 -8 -16 -4 -6 3 -7 -7 -4 -25 3 -20 1 -31 -7 -31
-6 0 -9 -2 -6 -5 12 -12 36 7 31 26 -4 13 0 19 11 19 11 0 15 5 10 13 -6 10
-4 10 7 0 16 -16 49 -17 49 -2 0 5 -5 7 -10 4 -9 -6 -40 16 -40 29 0 7 139 0
147 -8 4 -3 15 -6 26 -6 31 0 97 -22 91 -31 -2 -4 -21 -1 -41 7 -20 9 -46 13
-59 10 -13 -4 -24 -3 -24 2 0 9 -53 7 -69 -3 -6 -3 -11 -11 -11 -17 0 -7 6 -6
15 2 8 7 15 9 15 4 0 -14 -14 -30 -30 -37 -8 -4 2 -6 23 -4 40 3 51 -9 15 -18
-26 -7 -57 -3 -76 9 -8 5 -20 2 -30 -7 -20 -18 -73 -12 -66 8 3 7 -5 15 -21
19 -15 4 -30 17 -35 31 -5 14 -14 25 -20 25 -5 0 -10 6 -10 13 0 15 -12 17
-79 17 l-44 0 58 30 c32 16 61 27 66 25 4 -3 10 -1 13 4 6 10 73 7 83 -3z"/>
<path d="M1898 4055 c-8 -9 2 -38 16 -47 6 -4 -9 -8 -34 -9 -38 -1 -41 -2 -20
-9 14 -4 18 -9 10 -10 -8 0 -32 -3 -53 -5 -20 -2 -45 -9 -55 -14 -15 -9 -13
-10 10 -11 31 0 45 -15 22 -24 -14 -5 -13 -9 7 -25 13 -10 34 -21 45 -25 16
-5 21 -12 16 -28 -3 -14 -1 -19 6 -14 7 4 12 13 12 19 0 7 9 20 20 30 11 9 20
26 20 37 0 12 9 24 24 29 31 12 40 40 21 61 -8 9 -13 19 -10 22 3 2 -5 4 -18
3 -12 -1 -24 4 -27 12 -3 8 -9 11 -12 8z"/>
<path d="M220 1362 c0 -10 5 -23 12 -30 9 -9 1 -12 -37 -12 -27 0 -82 -8 -122
-17 -73 -18 -73 -18 -71 -50 2 -27 6 -33 25 -33 13 0 23 5 23 10 0 6 5 10 10
10 6 0 10 -6 10 -14 0 -10 7 -12 22 -8 21 5 21 6 2 13 -10 4 35 7 100 6 86 0
121 3 124 12 3 8 22 10 65 7 37 -3 50 -2 32 2 -39 10 -13 21 34 14 24 -3 29
-7 20 -14 -19 -13 174 7 311 33 36 6 30 7 -25 3 -38 -3 -88 -10 -110 -15 -60
-13 -112 -11 -129 6 -8 8 -22 15 -31 15 -9 0 -25 5 -35 10 -27 14 -150 21
-172 9 -14 -7 -18 -6 -18 6 0 9 -7 18 -15 21 -27 11 -15 24 18 19 28 -4 29 -4
7 4 -39 14 -50 12 -50 -7z"/>
<path d="M280 1153 c-8 -3 -21 -12 -28 -21 -10 -13 -20 -14 -64 -5 -59 12 -88
7 -88 -14 0 -10 -6 -12 -22 -7 -13 4 -27 7 -33 7 -37 0 -45 -5 -45 -27 0 -20
6 -24 45 -29 25 -2 54 -11 63 -20 9 -8 26 -17 37 -20 15 -4 13 -5 -7 -6 -23
-1 -28 -6 -28 -26 0 -29 -7 -30 -34 -10 -12 9 -29 12 -40 9 -21 -7 -21 -6 -2
15 11 11 14 21 8 21 -6 0 -19 3 -29 6 -13 4 -15 3 -4 -4 9 -6 10 -12 2 -16 -6
-4 -10 -22 -9 -41 1 -32 4 -35 32 -35 24 0 27 -3 16 -10 -11 -7 -7 -10 18 -10
32 0 33 -1 16 -17 -16 -17 -16 -18 13 -24 16 -3 35 -9 40 -12 6 -4 22 -3 35 2
22 9 22 10 -7 11 -16 1 -38 5 -48 8 -17 7 -16 9 3 30 20 21 57 32 46 13 -4 -5
22 -11 56 -13 69 -4 97 2 58 13 -24 7 -24 7 5 8 41 1 256 -18 278 -25 9 -3 17
-14 17 -24 0 -12 6 -17 18 -15 9 2 61 14 115 26 83 19 101 20 125 9 17 -8 22
-14 14 -17 -8 -3 7 -15 32 -27 25 -12 60 -38 78 -58 31 -32 77 -61 63 -38 -4
6 8 10 29 10 29 0 34 3 29 16 -5 14 -1 16 25 12 17 -2 29 -1 26 4 -3 5 21 6
53 4 32 -3 48 -3 36 0 -30 7 -30 26 0 24 38 -4 47 0 41 14 -3 8 2 16 13 19 14
3 15 5 3 9 -8 3 -44 14 -80 26 -36 12 -108 26 -160 32 -89 10 -130 28 -93 41
8 3 -9 6 -38 6 -30 0 -57 -4 -60 -9 -10 -15 -31 1 -25 18 3 8 -1 17 -9 20 -8
4 -12 10 -9 15 7 11 -9 17 -63 22 -24 2 -43 0 -43 -4 0 -17 -143 -8 -163 9
-14 12 -22 14 -36 5 -10 -6 -24 -7 -32 -2 -29 16 -70 18 -102 5 -17 -8 -81
-16 -142 -19 -62 -3 -95 -2 -75 3 35 7 35 7 5 9 -16 1 -37 6 -45 12 -11 7 -3
9 30 7 25 -1 52 2 59 6 7 5 91 9 185 10 156 1 172 3 173 19 1 9 -5 17 -13 17
-8 0 -12 -4 -9 -10 3 -5 -1 -10 -10 -10 -8 0 -18 7 -21 15 -4 11 -14 13 -33 8
-24 -6 -25 -5 -11 12 14 17 13 18 -3 12 -10 -4 -24 -7 -30 -7 -7 0 -6 -4 3
-10 12 -8 9 -10 -13 -10 -24 0 -27 3 -22 20 6 18 2 20 -47 19 -29 0 -60 -3
-68 -6z"/>
<path d="M2326 952 c-4 -7 -4 -17 0 -24 4 -6 3 -8 -4 -4 -5 3 -12 1 -14 -6 -5
-15 -51 -18 -60 -4 -5 8 -8 7 -8 -1 0 -8 -15 -13 -40 -13 -28 0 -40 4 -40 14
0 9 -7 12 -20 9 -23 -6 -27 -23 -5 -23 8 0 15 -4 15 -10 0 -5 -8 -10 -17 -10
-15 0 -16 -2 -3 -9 8 -6 19 -7 25 -3 5 3 4 -2 -3 -11 -8 -9 -11 -21 -7 -27 9
-14 -5 -13 -25 3 -9 6 1 -5 23 -25 36 -34 77 -53 62 -28 -3 6 -12 10 -19 10
-8 0 -19 7 -26 15 -19 23 9 19 40 -5 14 -11 30 -20 37 -20 6 0 21 -12 33 -27
17 -22 23 -24 30 -13 7 12 13 11 32 -7 34 -32 75 -33 97 -4 l18 24 49 -23 c34
-17 49 -20 52 -11 3 9 8 9 20 -1 15 -12 16 -11 3 4 -7 10 -17 15 -22 12 -16
-10 -72 7 -61 18 11 11 5 38 -9 38 -4 0 -6 -7 -3 -15 5 -11 2 -13 -10 -9 -9 3
-16 15 -16 25 0 15 -7 19 -33 19 -31 0 -57 -14 -57 -32 0 -4 6 -8 14 -8 17 0
41 -28 32 -37 -3 -3 -14 1 -23 9 -10 9 -24 13 -30 11 -16 -6 -17 19 -2 34 5 5
11 24 11 42 1 18 6 31 14 31 7 0 18 9 24 21 10 17 14 18 27 7 9 -7 19 -12 22
-12 3 1 5 -2 4 -7 -2 -5 2 -9 8 -9 6 0 8 7 5 16 -3 9 -6 18 -6 20 0 2 -9 4
-20 4 -11 0 -20 5 -20 10 0 6 -16 10 -35 10 -27 0 -38 5 -44 22 -5 14 -10 17
-15 10z"/>
<path d="M238 890 c27 -11 29 -24 3 -17 -13 3 -18 0 -15 -8 7 -17 67 -26 77
-11 6 8 10 8 14 -1 2 -7 12 -13 21 -13 8 0 12 -3 8 -7 -8 -8 -82 -5 -143 7
-34 6 -43 4 -43 -7 0 -11 -4 -11 -20 -3 -11 6 -25 8 -31 5 -5 -4 -16 -2 -24 5
-8 6 -27 9 -47 5 -29 -6 -33 -10 -36 -41 l-2 -35 152 2 c241 2 368 -5 378 -22
7 -11 12 -11 22 -1 9 9 9 12 -1 12 -7 0 -9 5 -6 10 4 6 10 8 15 5 10 -6 2 30
-16 71 -18 42 -77 62 -133 46 -21 -7 -52 -12 -69 -12 -17 0 -34 -5 -37 -10 -4
-6 -16 -3 -32 10 -14 11 -33 20 -42 19 -11 0 -9 -3 7 -9z"/>
<path d="M782 885 c4 -4 -3 -16 -15 -27 -17 -15 -18 -18 -4 -14 10 3 26 -3 37
-14 16 -16 17 -20 4 -20 -8 0 -12 -4 -9 -10 3 -5 -3 -10 -15 -10 -12 0 -19 -4
-16 -9 3 -4 -20 -16 -51 -26 -43 -14 -53 -20 -38 -25 17 -6 17 -7 1 -13 -10
-4 -27 -7 -39 -7 -21 -1 -21 -1 3 -15 26 -14 23 -18 -25 -28 -17 -4 -17 -5 3
-6 13 0 20 -5 17 -11 -8 -12 2 -12 85 0 49 7 76 6 110 -4 36 -11 41 -15 26
-21 -29 -12 55 -48 86 -36 21 7 19 9 -19 16 -24 4 -43 11 -43 16 0 13 36 11
75 -5 18 -8 44 -12 57 -10 13 2 40 7 60 10 21 3 42 12 48 19 8 10 7 13 -4 11
-9 -1 -19 -5 -22 -9 -14 -14 -42 -6 -47 13 -6 22 8 28 16 8 4 -10 7 -10 18 0
11 10 11 12 -1 13 -8 1 -26 3 -40 4 -14 1 -43 5 -65 8 l-40 6 43 -11 c48 -12
58 -33 12 -26 -16 2 -32 0 -34 -6 -3 -7 -10 -6 -18 4 -7 8 -19 15 -25 16 -7 1
-24 2 -38 3 -14 0 -25 6 -25 12 0 7 12 9 34 5 24 -5 37 -2 46 9 10 12 10 15
-2 15 -8 0 -15 12 -16 30 -2 22 2 30 13 30 9 0 13 5 10 11 -4 6 -13 8 -20 5
-7 -2 -16 2 -19 11 -4 10 -15 14 -31 11 -26 -5 -35 6 -12 15 6 3 1 6 -13 6
-21 1 -26 6 -25 28 0 20 -6 29 -20 31 -11 2 -17 1 -13 -3z"/>
<path d="M32 753 l-32 -4 0 -114 c0 -63 3 -116 8 -118 13 -6 115 5 104 12 -6
3 65 6 158 6 92 0 172 -3 176 -8 4 -4 2 -13 -4 -19 -10 -10 -17 -10 -32 0 -11
6 -37 12 -57 11 -38 -1 -38 -1 -9 -9 16 -5 41 -20 55 -34 32 -30 123 -50 166
-37 l30 9 -32 1 c-34 1 -47 21 -15 21 9 1 -5 9 -33 19 -29 10 -51 24 -53 34
-4 21 14 23 21 3 4 -11 16 -13 40 -9 28 4 35 2 39 -14 5 -20 43 -33 95 -33 20
0 23 3 14 13 -9 11 -2 14 34 14 25 0 51 5 57 11 9 9 7 12 -9 12 -12 0 -25 5
-28 11 -5 7 5 9 26 7 21 -2 33 -8 31 -15 -2 -15 5 -15 33 -3 18 8 18 9 2 9
-20 1 -53 29 -44 37 2 3 12 -2 20 -11 13 -12 23 -14 49 -6 32 9 32 9 6 10 -16
1 -28 5 -28 10 0 10 -39 27 -52 23 -5 -1 -8 5 -8 13 0 8 -7 15 -15 15 -16 0
-10 -29 9 -42 7 -5 5 -8 -5 -8 -8 0 -24 7 -35 15 -10 8 -36 15 -57 15 -34 0
-38 -2 -32 -20 9 -28 -1 -25 -35 10 -25 25 -28 34 -20 50 11 21 -3 29 -15 10
-3 -5 -16 -9 -28 -9 -17 1 -18 2 -4 6 22 6 22 16 -3 38 -11 10 -20 13 -20 7 0
-7 -4 -12 -10 -12 -5 0 -10 12 -10 26 0 23 -3 25 -30 19 -17 -4 -30 -2 -30 3
0 6 -30 9 -70 9 -50 -2 -70 -6 -70 -15 0 -8 -7 -11 -19 -7 -10 3 -34 6 -54 7
-25 1 -34 5 -30 15 3 8 -3 13 -18 13 -13 0 -40 2 -59 4 -19 2 -50 2 -68 -1z"/>
<path d="M1576 558 c3 -4 -14 -5 -38 -2 -24 3 -72 0 -108 -6 -81 -14 -113 -15
-118 -2 -1 5 -14 7 -27 4 -24 -4 -24 -5 -7 -28 9 -13 21 -24 26 -24 5 0 3 6
-3 13 -13 16 -5 28 14 21 8 -3 12 -14 10 -25 -3 -14 3 -20 23 -25 46 -10 53
-14 47 -24 -8 -13 -4 -13 38 5 20 8 44 15 52 15 24 0 7 -20 -18 -21 -17 -1
-18 -2 -4 -6 9 -2 17 -9 17 -14 0 -13 -34 -11 -48 3 -9 9 -12 8 -12 -6 0 -11
-5 -16 -12 -13 -48 19 -51 20 -44 9 4 -6 23 -14 44 -17 56 -10 72 -15 72 -26
0 -5 -17 -7 -40 -3 -50 8 -130 -4 -130 -19 1 -13 65 -57 84 -57 6 0 17 -5 22
-10 10 -10 58 -4 154 21 l35 9 -38 -5 c-53 -6 -37 11 25 26 29 6 62 18 74 26
11 7 24 10 27 7 4 -4 13 -1 21 5 11 9 20 10 36 1 21 -11 80 -5 80 8 -1 4 -8
16 -18 27 -14 16 -31 20 -85 22 -53 1 -76 6 -102 24 -18 13 -33 28 -32 33 1 6
-9 12 -23 14 -14 2 -29 8 -35 14 -7 7 4 8 35 4 24 -4 47 -10 50 -15 4 -6 132
-51 146 -51 3 0 -1 7 -10 15 -8 9 -21 14 -28 13 -7 -2 -13 4 -13 12 0 14 -22
34 -38 35 -4 0 -12 6 -17 14 -7 13 -11 13 -26 0 -10 -8 -15 -9 -11 -3 4 7 -5
11 -23 11 -16 0 -27 -4 -24 -9z"/>
<path d="M2046 543 c6 -5 15 -18 19 -31 6 -22 5 -23 -32 -17 -28 5 -34 4 -23
-4 13 -9 13 -11 -1 -11 -9 0 -19 -7 -23 -15 -4 -11 2 -15 24 -15 17 0 30 -5
30 -10 0 -7 -15 -9 -37 -5 l-38 5 35 -14 c40 -16 84 -21 61 -7 -8 5 10 11 52
15 58 7 64 10 60 27 -3 10 -14 19 -24 19 -10 0 -21 5 -25 12 -5 8 5 9 36 5 31
-4 40 -3 29 4 -11 8 -11 12 -1 16 25 10 11 19 -30 19 -24 1 -61 4 -83 7 -22 4
-35 4 -29 0z"/>
<path d="M32 503 c-23 -3 -32 -9 -32 -23 0 -10 6 -21 13 -23 9 -4 9 -6 0 -6
-10 -1 -13 -26 -13 -91 l0 -89 35 1 c22 1 35 6 35 15 0 15 24 17 49 3 13 -6
24 -5 37 6 18 15 18 15 -6 10 -14 -3 -41 -1 -60 3 l-35 8 50 7 c28 4 85 14
129 22 43 8 81 14 85 15 3 0 -3 4 -14 9 -17 7 -15 9 13 9 17 1 32 4 32 9 0 4
21 8 47 9 51 3 77 18 54 33 -8 5 -25 4 -38 -1 -21 -8 -29 -4 -57 26 -32 34
-56 45 -56 26 0 -5 6 -12 13 -14 6 -3 2 -6 -11 -6 -12 -1 -30 8 -39 19 -18 21
-63 28 -63 10 0 -5 4 -10 9 -10 5 0 11 -9 14 -20 3 -12 0 -20 -8 -20 -7 0 -16
11 -19 25 -4 15 -13 25 -24 25 -13 0 -14 -2 -3 -9 25 -16 -7 -22 -51 -10 -36
10 -40 13 -23 20 11 4 15 8 8 8 -6 1 -17 3 -25 4 -7 2 -28 2 -46 0z"/>
<path d="M1043 503 c9 -2 17 -9 17 -14 0 -5 -12 -6 -27 -3 -33 9 -43 9 -65 -1
-10 -4 -18 -3 -18 3 0 15 -53 9 -66 -7 -8 -10 -13 -11 -18 -3 -4 7 -12 12 -19
12 -6 0 -2 -6 8 -14 11 -8 16 -19 12 -30 -7 -17 -27 -22 -27 -6 0 6 -10 5 -25
-2 -26 -11 -34 -28 -14 -28 6 0 8 -7 5 -16 -4 -9 -1 -23 5 -30 8 -10 8 -14 0
-14 -6 0 -11 -5 -11 -10 0 -6 11 -8 25 -4 14 3 25 2 25 -3 0 -10 -108 -33
-154 -33 -29 0 -35 -18 -8 -26 9 -3 26 -10 37 -14 11 -5 29 -11 40 -13 11 -3
1 -5 -22 -6 -51 -1 -58 -21 -8 -21 40 0 40 -1 20 -40 l-16 -30 31 0 c17 0 33
6 36 14 3 8 16 22 29 30 23 15 23 15 -3 -24 -14 -22 -33 -40 -41 -41 -11 0
-12 -2 -3 -6 20 -8 14 -23 -10 -24 -17 -1 -19 -2 -5 -6 9 -2 17 -11 17 -19 0
-8 5 -12 10 -9 6 3 10 1 10 -4 0 -19 38 -12 53 9 16 23 56 20 78 -6 6 -8 24
-14 40 -14 21 0 28 -5 31 -23 3 -21 8 -22 111 -25 109 -3 139 8 75 27 -31 9
-32 9 -6 10 15 1 33 -6 42 -14 19 -20 46 -19 46 1 0 11 5 14 16 10 9 -3 25 -6
37 -6 20 0 20 0 1 -15 -17 -13 0 -14 159 -15 147 0 181 3 194 15 9 9 29 15 50
13 19 -1 37 3 41 8 8 13 82 39 100 36 6 -2 30 12 52 29 41 33 53 56 24 45 -37
-14 -94 -18 -94 -7 0 7 5 9 10 6 6 -3 10 1 10 9 0 17 -40 33 -49 18 -3 -5 -42
-10 -86 -11 -44 -1 -82 -6 -85 -11 -8 -13 -123 -31 -133 -21 -11 11 58 35 73
26 5 -3 10 1 10 9 0 10 -6 14 -17 10 -10 -3 -5 2 10 11 22 12 32 14 42 5 9 -8
28 -9 56 -3 l42 8 -27 15 c-19 10 -32 11 -44 4 -9 -5 -34 -9 -54 -8 -21 1 -38
-3 -38 -9 0 -5 -9 -7 -20 -4 -11 3 -20 1 -20 -5 0 -5 -12 -7 -29 -3 -17 3 -32
2 -36 -4 -8 -14 -72 -14 -80 -1 -3 6 3 10 15 10 12 0 18 4 15 10 -4 6 15 8 50
5 37 -3 53 -1 49 7 -4 6 1 8 12 4 11 -3 26 -1 34 4 17 11 13 12 -55 11 -47 0
-48 0 -21 11 21 8 25 13 15 19 -24 15 -59 11 -53 -6 5 -12 -2 -15 -34 -15 -31
0 -41 4 -45 20 -3 13 0 20 10 20 8 0 11 5 7 11 -4 8 -9 8 -17 0 -19 -19 -46
-12 -52 12 -5 17 -13 23 -28 22 -12 -1 -26 1 -32 5 -15 11 -82 20 -90 12 -3
-4 -14 -7 -23 -7 -9 0 -16 -6 -14 -12 1 -7 -5 -13 -13 -13 -8 0 -15 5 -15 10
0 6 -13 10 -29 10 -35 0 -61 9 -61 21 0 5 13 6 30 3 17 -4 36 -2 43 5 8 6 29
10 48 9 77 -4 154 2 139 12 -8 5 -26 10 -40 11 -15 1 -7 5 20 10 25 5 53 6 62
3 12 -4 18 0 18 11 0 9 -4 14 -10 10 -5 -3 -18 2 -28 12 -42 40 -74 55 -119
58 -33 3 -42 1 -28 -5 17 -7 15 -9 -11 -9 -20 -1 -34 5 -38 14 -3 10 -18 15
-43 14 -21 -1 -30 -3 -20 -6z"/>
<path d="M2234 423 c3 -8 -2 -13 -14 -13 -11 0 -20 -4 -20 -9 0 -5 10 -7 22
-3 14 3 19 2 14 -6 -9 -15 -46 -16 -46 -2 0 15 -29 12 -46 -4 -17 -18 -2 -30
26 -21 27 9 25 -4 -2 -15 l-23 -9 23 0 c13 -1 22 -7 22 -16 0 -8 7 -15 15 -15
8 0 15 -8 16 -17 0 -11 3 -13 6 -5 2 6 9 10 14 7 5 -3 27 0 50 6 l41 13 -28
23 c-36 28 -50 29 -57 3 -3 -11 -10 -20 -16 -20 -16 0 -13 29 4 46 18 19 100
11 125 -11 21 -19 36 -19 43 -1 4 10 1 13 -9 9 -7 -3 -14 0 -14 6 0 6 -15 11
-32 12 -18 0 -27 3 -20 6 20 8 -6 33 -35 33 -13 0 -21 4 -18 10 4 6 -5 9 -20
8 -16 -2 -24 -7 -21 -15z"/>
<path d="M2533 378 c18 -13 -17 -35 -73 -47 -67 -14 -232 -70 -249 -84 -12
-10 -13 -9 -6 2 6 11 4 13 -9 8 -10 -4 -35 -10 -57 -13 -21 -4 -39 -11 -39
-17 0 -5 -13 -7 -31 -3 -26 5 -29 4 -20 -8 6 -7 10 -24 9 -37 -2 -18 5 -28 33
-43 31 -17 42 -18 80 -9 l44 11 -63 1 c-39 1 -61 5 -57 11 3 5 2 10 -3 10 -6
0 -8 9 -5 20 3 11 10 20 15 20 6 0 8 -7 4 -15 -8 -21 24 -19 39 2 11 15 15 15
29 4 13 -11 20 -11 28 -3 7 7 27 12 45 12 22 0 33 5 33 14 0 20 15 27 63 31
23 2 44 4 46 4 3 1 -4 8 -15 16 -10 8 -14 15 -7 15 6 0 15 -4 18 -10 9 -15 51
-12 65 5 7 9 19 14 26 11 7 -3 23 3 36 14 13 10 57 34 98 53 l75 35 -82 -1
c-45 -1 -77 -5 -70 -9z"/>
<path d="M503 337 c29 -24 27 -37 -5 -37 -13 0 -17 -4 -12 -12 6 -10 5 -10 -7
-1 -8 6 -36 14 -62 17 -27 3 -53 8 -58 11 -5 4 -17 1 -26 -4 -16 -9 -14 -10
10 -11 15 0 27 -4 27 -10 0 -5 9 -10 20 -10 11 0 20 -4 20 -9 0 -10 -84 5
-117 21 -11 6 -27 8 -35 5 -7 -3 -2 -6 12 -7 23 -1 24 -2 8 -14 -10 -7 -18
-18 -18 -23 0 -9 -66 -16 -145 -14 -23 0 -26 -2 -15 -9 11 -7 2 -9 -30 -7 -25
2 -51 2 -57 -1 -21 -7 -15 -22 10 -22 12 0 31 -7 41 -15 11 -8 41 -15 67 -15
26 0 51 -4 54 -10 10 -15 35 -12 35 5 0 8 7 15 16 15 10 0 14 -6 11 -14 -4 -9
1 -17 11 -19 12 -3 10 -5 -6 -6 -13 0 -32 -6 -43 -11 -13 -8 -25 -7 -41 1 -22
12 -22 12 -3 20 12 4 -3 7 -40 7 -33 -1 -75 3 -94 7 -25 6 -32 5 -27 -3 4 -7
16 -12 27 -12 10 0 36 -9 56 -20 21 -11 43 -20 50 -20 7 0 13 -4 13 -9 0 -5
-10 -7 -22 -3 -14 3 -19 2 -14 -6 4 -7 26 -12 49 -11 36 1 38 2 17 9 -16 5 2
7 50 5 41 -2 93 -9 115 -16 22 -6 50 -12 63 -11 12 1 22 -2 22 -7 0 -5 15 -12
33 -16 l32 -8 -29 -4 c-15 -3 -41 1 -57 8 -17 6 -48 12 -70 12 -22 0 -42 4
-45 9 -3 5 -45 8 -92 8 -48 -1 -98 3 -112 8 -18 8 -20 11 -7 11 21 1 22 8 3
26 -18 18 -86 31 -86 16 0 -6 11 -11 24 -11 14 0 28 -5 32 -11 4 -8 -3 -9 -25
-4 -29 6 -31 5 -31 -23 0 -28 4 -31 42 -38 24 -4 69 -6 101 -5 35 1 57 -2 57
-8 0 -11 -26 -16 -63 -13 -9 1 -17 -3 -17 -8 0 -7 72 -10 203 -8 111 1 191 5
177 9 -24 7 -24 7 5 9 27 1 28 2 10 11 -15 7 -11 8 15 3 19 -4 47 -6 63 -6 36
2 34 -5 -5 -17 -27 -8 -17 -9 55 -10 57 -1 86 3 82 9 -4 6 -11 7 -17 4 -6 -4
-13 -2 -17 2 -3 5 -17 15 -31 22 -25 12 -25 12 5 7 17 -2 41 -8 54 -11 17 -5
22 -4 17 4 -4 7 -16 12 -26 12 -10 0 -21 4 -24 9 -3 4 -20 12 -38 16 l-33 8
30 6 29 6 -47 25 c-26 14 -47 31 -47 37 0 7 -12 15 -27 19 -49 10 -49 12 2 14
l50 2 -30 13 c-16 8 -23 14 -15 15 23 0 -2 18 -35 23 -35 6 48 1 115 -7 41 -5
42 -5 10 3 -19 5 -36 15 -38 21 -3 7 -13 21 -23 31 -10 10 -14 19 -8 21 5 2
-17 13 -49 25 l-57 22 28 -22z"/>
<path d="M2648 213 c-28 -7 -21 -28 15 -46 l32 -17 -40 6 c-22 3 -41 10 -43
15 -5 14 -48 11 -61 -5 -10 -12 -18 -11 -51 5 -50 24 -61 24 -30 -2 l25 -20
-25 7 c-14 4 -33 8 -42 8 -9 0 -16 3 -16 6 1 17 -3 24 -10 14 -4 -6 -17 -14
-29 -18 -18 -6 -23 -3 -23 10 0 13 -3 14 -15 4 -8 -6 -19 -9 -24 -6 -5 4 -13
1 -16 -4 -4 -7 -21 -9 -38 -6 -29 6 -30 5 -8 -4 13 -6 40 -8 60 -4 25 4 32 2
22 -4 -11 -8 -10 -11 7 -16 13 -4 18 -13 15 -25 -7 -26 23 -45 81 -51 49 -6
50 -6 14 -11 -46 -6 -164 26 -131 36 l21 7 -21 24 c-23 26 -47 32 -47 11 0
-15 -68 -40 -83 -30 -6 3 -7 1 -3 -5 10 -17 -5 -15 -52 8 -45 22 -56 25 -48
11 3 -5 18 -12 33 -16 16 -3 35 -13 45 -22 14 -13 20 -13 47 1 38 20 52 20 45
1 -4 -8 -17 -18 -30 -21 -13 -3 -21 -10 -18 -16 3 -5 11 -4 20 3 11 9 14 7 14
-15 0 -30 15 -33 56 -11 20 10 23 15 12 15 -10 0 -18 5 -18 10 0 6 6 10 14 10
8 0 18 -4 21 -10 3 -5 15 -10 27 -10 14 0 18 -5 14 -15 -4 -12 5 -15 55 -15
64 0 75 16 13 18 -74 3 -45 12 37 12 77 -1 82 -2 59 -14 -23 -13 -22 -14 27
-13 28 1 49 5 47 9 -3 4 11 6 31 4 20 -1 35 2 35 8 0 6 7 3 14 -6 19 -26 109
-25 143 2 14 11 31 20 38 20 7 0 29 14 50 30 21 17 45 30 54 30 9 1 32 14 51
30 19 17 43 30 53 30 16 0 17 2 7 15 -11 13 -10 14 1 10 8 -3 32 4 54 15 l39
20 -94 -5 c-100 -6 -132 -14 -59 -16 l44 -1 -60 -14 c-33 -7 -72 -13 -87 -14
-15 0 -29 -4 -32 -9 -4 -5 3 -7 14 -4 23 6 26 -3 6 -23 -8 -8 -34 -14 -57 -14
l-42 0 19 -21 c19 -22 19 -22 -4 -10 -26 14 -77 6 -67 -9 3 -6 0 -10 -9 -10
-8 0 -16 -4 -18 -9 -1 -4 -14 -11 -28 -15 l-25 -7 25 20 25 21 -22 0 c-13 0
-23 -4 -23 -10 0 -18 -38 -30 -64 -20 -16 6 -27 6 -31 0 -4 -6 -23 -9 -43 -9
-20 1 -29 3 -19 6 24 6 11 23 -17 23 -13 0 -37 7 -54 16 -34 16 -44 31 -14 19
9 -4 22 -8 29 -9 7 -1 16 -5 19 -9 13 -13 24 -7 24 12 0 11 3 22 8 24 12 8 62
-5 56 -15 -3 -5 -14 -6 -25 -3 -10 4 -19 2 -19 -3 0 -18 26 -28 83 -31 45 -2
57 0 57 12 0 9 5 17 11 19 7 2 -7 10 -30 16 -37 11 -57 32 -31 32 6 0 10 -4
10 -9 0 -5 18 -9 40 -9 29 -1 43 4 50 18 5 10 24 23 41 29 18 6 30 14 26 17
-3 3 -14 1 -25 -5 -11 -6 -28 -8 -38 -4 -12 4 -15 3 -10 -5 4 -7 1 -12 -9 -12
-9 0 -13 5 -10 10 3 6 1 10 -4 10 -6 0 -10 5 -8 11 2 14 -11 18 -35 12z"/>
</g>
</svg>
