<?xml version="1.0" standalone="no"?>
<!DOCTYPE svg PUBLIC "-//W3C//DTD SVG 20010904//EN"
 "http://www.w3.org/TR/2001/REC-SVG-20010904/DTD/svg10.dtd">
<svg version="1.0" xmlns="http://www.w3.org/2000/svg"
 width="1182.000000pt" height="664.000000pt" viewBox="0 0 1182.000000 664.000000"
 preserveAspectRatio="xMidYMid meet">
<metadata>
Created by potrace 1.13, written by Peter Selinger 2001-2015
</metadata>
<g transform="translate(0.000000,664.000000) scale(0.100000,-0.100000)"
fill="#000000" stroke="none">
<path d="M1 4473 c0 -1193 3 -2163 5 -2158 2 6 31 10 65 9 47 -1 59 2 55 12
-3 9 2 14 14 14 14 0 18 -5 13 -17 -7 -17 -6 -17 11 0 10 9 22 15 27 12 5 -4
9 -1 9 4 0 6 9 11 20 11 11 0 20 4 20 9 0 5 18 8 40 7 36 -1 45 4 78 43 36 42
41 44 92 45 36 1 55 5 56 14 1 6 2 26 3 42 1 28 3 30 27 24 21 -5 30 -1 48 20
46 58 146 50 146 -12 1 -15 7 -38 14 -52 l14 -24 12 42 c11 42 10 44 -24 83
-41 44 -45 64 -16 72 19 5 50 -28 50 -53 0 -15 6 -13 36 15 18 17 35 23 51 21
15 -3 26 1 30 10 6 17 54 19 70 3 15 -15 33 -3 33 20 0 10 7 24 15 31 25 20
16 80 -11 80 -15 0 -19 36 -5 44 5 4 22 1 37 -4 32 -12 52 1 30 19 -8 7 -12
19 -9 27 3 8 -1 14 -11 14 -9 0 -16 8 -16 18 0 21 46 47 55 32 4 -6 14 -10 24
-10 10 0 24 -7 31 -15 30 -37 37 -4 14 73 -6 21 -4 22 45 22 28 0 51 4 51 9 0
13 -28 22 -36 10 -3 -6 -14 6 -25 25 -23 43 -24 50 -4 42 8 -3 15 -1 15 4 0 6
-6 10 -12 10 -7 0 0 7 16 15 16 9 38 13 49 9 15 -5 19 -3 14 9 -7 18 19 57 39
57 10 0 14 -12 14 -39 0 -21 6 -43 13 -49 10 -8 12 -3 10 26 -14 215 -8 253
37 215 11 -9 32 -19 47 -21 15 -2 33 -8 40 -14 14 -12 33 -2 33 17 0 16 27 28
35 15 3 -5 14 -7 25 -5 11 2 22 -1 25 -6 4 -5 11 -7 16 -4 12 8 12 52 -1 60
-17 11 -11 37 10 42 13 3 20 14 20 29 0 24 14 32 25 14 3 -6 12 -10 19 -10 20
0 7 57 -14 63 -16 4 -16 11 -7 63 5 33 14 65 20 72 8 10 7 16 -1 21 -18 11 16
39 53 43 39 4 41 32 3 36 -27 3 -41 32 -17 32 8 0 8 4 0 14 -10 11 -8 16 7 21
19 5 18 8 -11 54 -33 50 -81 88 -91 72 -3 -5 1 -12 10 -15 9 -3 12 -11 8 -18
-5 -8 -2 -9 11 -4 15 5 16 4 5 -9 -7 -9 -16 -12 -19 -7 -9 13 -63 20 -91 12
-26 -8 -25 -9 30 -14 8 0 16 -11 16 -23 1 -19 -4 -23 -27 -23 -15 0 -30 -4
-33 -9 -4 -5 -24 -12 -45 -16 -29 -5 -38 -11 -34 -21 3 -9 -2 -14 -15 -14 -11
0 -22 -8 -25 -20 -3 -11 -12 -20 -21 -20 -9 0 -16 -4 -16 -10 0 -5 -7 -10 -15
-10 -9 0 -15 9 -15 25 0 16 6 25 15 25 20 0 19 17 -2 29 -17 10 -17 10 0 11
10 0 16 4 12 9 -3 5 4 12 15 16 22 7 27 24 8 27 -7 0 -17 2 -23 3 -5 2 -14 3
-19 4 -6 0 -2 7 9 14 12 10 14 16 7 21 -16 10 -15 29 1 21 6 -4 1 3 -13 15
l-25 22 43 -7 c47 -8 51 -1 22 30 l-20 21 70 -3 c40 -1 70 2 70 7 0 6 -6 10
-12 10 -7 1 -3 9 10 19 26 23 29 46 5 55 -14 6 -15 9 -4 15 16 10 51 3 51 -11
0 -5 -4 -6 -10 -3 -6 3 -10 -4 -9 -17 0 -13 3 -17 6 -10 2 6 14 12 26 12 13 0
31 13 45 33 22 31 23 31 28 10 8 -28 21 -29 29 -3 3 11 13 20 21 20 8 0 14 10
14 25 0 14 5 25 10 25 6 0 10 -9 10 -20 0 -11 5 -20 10 -20 6 0 10 14 10 31 0
23 4 30 14 26 22 -9 33 12 41 78 4 33 13 63 19 67 17 12 76 9 76 -3 0 -6 8 -8
20 -4 10 3 30 0 42 -6 13 -7 51 -14 84 -15 34 -1 68 -5 75 -10 8 -5 23 -10 34
-11 10 -2 22 -7 25 -12 6 -11 60 -2 60 10 0 5 14 9 30 9 17 0 30 5 30 10 0 6
14 10 30 10 23 0 30 -4 30 -20 0 -17 7 -20 49 -20 31 0 51 5 54 13 3 9 9 8 23
-5 14 -12 36 -16 89 -14 39 1 81 -2 95 -7 46 -17 83 -19 77 -3 -6 15 12 26 44
26 11 0 17 5 14 10 -3 6 3 10 14 10 12 0 21 -4 21 -10 0 -5 5 -10 10 -10 6 0
10 7 10 15 0 9 6 15 13 14 6 -1 30 -1 52 0 29 1 36 4 25 11 -19 12 -13 16 33
24 30 6 37 4 37 -9 0 -15 12 -16 89 -13 49 1 92 1 95 -2 11 -11 196 10 242 28
27 10 60 17 74 16 14 -1 59 -6 100 -10 41 -3 77 -10 80 -14 3 -5 18 -12 33
-15 15 -4 27 -13 27 -20 0 -7 11 -16 25 -19 14 -4 25 -12 25 -19 0 -6 8 0 18
14 l17 25 85 -17 c47 -10 98 -18 113 -18 15 -1 50 -13 78 -27 28 -14 48 -21
44 -15 -3 6 1 11 10 11 8 0 18 -6 21 -14 3 -8 25 -24 50 -35 24 -12 44 -26 44
-31 0 -6 7 -10 16 -10 10 0 14 6 10 15 -6 16 11 20 30 7 17 -11 12 -115 -6
-125 -9 -4 -5 -6 13 -4 35 5 34 1 -5 -19 -32 -16 -75 -54 -62 -54 3 0 2 -6 -4
-13 -7 -8 -7 -18 -2 -27 16 -24 12 -60 -6 -60 -12 0 -9 -8 13 -34 32 -39 43
-44 44 -18 2 26 17 -27 18 -63 3 -76 18 -100 81 -130 33 -16 62 -37 66 -47 3
-9 8 -17 12 -17 18 3 32 -2 32 -11 0 -5 -6 -9 -12 -7 -16 3 -14 -51 2 -67 8
-8 8 -4 1 17 -7 17 -7 27 -1 27 6 0 10 -5 10 -11 0 -6 6 -9 14 -6 12 5 13 -4
9 -43 -4 -39 -1 -56 17 -85 16 -26 20 -39 12 -47 -19 -19 35 -39 100 -37 60 2
70 7 129 61 10 10 29 18 42 18 20 0 23 -4 19 -29 -3 -19 5 -42 23 -71 l27 -42
-111 4 c-61 2 -111 1 -111 -3 0 -3 6 -6 13 -6 168 -11 227 -18 227 -25 0 -5
-47 -8 -105 -7 -58 1 -108 -1 -111 -4 -3 -3 35 -9 85 -12 50 -4 91 -11 91 -16
0 -11 -15 -12 -110 -10 -52 2 -84 -2 -105 -13 -16 -9 -35 -16 -42 -16 -6 0
-14 -4 -18 -10 -7 -11 53 8 72 22 14 11 183 0 183 -12 0 -15 -32 -20 -103 -16
l-72 5 78 -11 c56 -8 77 -15 77 -26 0 -11 -8 -13 -37 -9 -21 3 -47 9 -59 12
-13 4 -29 -1 -45 -15 -23 -21 -23 -21 -1 -10 30 15 112 3 112 -16 0 -8 -11
-14 -27 -15 -18 -1 -22 -3 -10 -6 12 -3 16 -10 12 -24 -5 -15 -3 -17 11 -12
12 4 15 3 10 -6 -6 -9 5 -10 46 -6 29 4 59 8 66 10 6 3 12 0 12 -5 0 -6 -4
-10 -8 -10 -5 0 -14 -11 -20 -24 -6 -13 -20 -27 -31 -31 -12 -4 -18 -12 -14
-21 3 -9 -2 -14 -16 -14 -14 0 -23 -8 -27 -25 -9 -35 3 -44 22 -16 11 15 19
19 28 12 7 -6 17 -6 26 0 13 8 13 10 0 19 -10 6 -11 10 -3 10 21 0 63 42 64
64 1 17 2 18 6 4 2 -10 9 -18 14 -18 6 0 7 -9 4 -20 -5 -14 -2 -20 9 -20 9 0
16 -4 16 -10 0 -5 -5 -10 -11 -10 -5 0 -7 -5 -3 -11 4 -8 9 -8 17 0 13 13 37
15 37 4 0 -5 -14 -16 -30 -25 -17 -9 -30 -22 -30 -29 0 -7 9 -6 25 5 27 17 55
21 55 7 0 -5 -7 -11 -15 -15 -26 -10 -16 -22 16 -20 17 1 42 -4 56 -11 51 -27
46 -37 -40 -73 -45 -19 -92 -36 -104 -39 -12 -3 -28 -12 -34 -20 -11 -12 -8
-13 17 -7 16 4 38 13 49 20 23 14 105 39 119 35 5 -1 12 3 16 9 9 14 70 31 70
19 0 -5 -9 -9 -21 -9 -15 0 -19 -5 -15 -15 3 -8 -2 -19 -11 -23 -9 -6 -14 -16
-10 -25 4 -11 -1 -18 -16 -22 -12 -3 -31 -10 -42 -15 -11 -5 -42 -16 -70 -24
-27 -8 -43 -15 -35 -16 8 0 -3 -10 -25 -21 l-40 -20 35 7 c19 3 42 13 51 20 9
8 40 17 70 21 l53 6 -17 -26 c-12 -19 -13 -27 -4 -30 10 -3 -130 -77 -147 -77
-4 0 -17 -9 -29 -21 l-22 -21 25 11 c88 38 254 100 257 97 2 -2 -31 -18 -74
-36 -93 -38 -184 -82 -180 -87 4 -3 57 17 171 63 98 41 73 20 -31 -26 -54 -23
-102 -47 -108 -53 -7 -7 -4 -8 10 -2 11 4 55 20 98 36 44 16 92 36 109 45 16
8 34 14 40 12 6 -2 -31 -21 -83 -43 -97 -39 -144 -65 -120 -65 7 0 27 7 44 15
45 21 170 65 174 61 2 -1 -42 -22 -98 -46 -124 -54 -114 -66 12 -15 50 20 96
34 102 32 6 -2 -12 -11 -39 -21 -64 -24 -127 -56 -122 -62 3 -2 33 7 68 21
104 41 90 23 -21 -28 -121 -54 -121 -63 0 -12 91 39 95 40 86 24 -5 -7 6 -8
32 -4 33 5 35 4 13 -6 -71 -31 -208 -104 -200 -107 5 -2 45 14 87 36 82 42
210 85 225 76 5 -3 -1 -14 -13 -25 -18 -16 -19 -19 -6 -25 9 -3 21 -3 27 1 5
3 10 0 10 -8 0 -13 -49 -46 -102 -68 -16 -6 -28 -15 -28 -20 0 -11 7 -11 28 0
9 4 40 11 67 14 l50 5 -47 -24 c-48 -25 -64 -40 -29 -29 10 3 23 -1 30 -9 10
-12 -3 -21 -75 -56 -88 -42 -88 -42 -65 -59 l23 -17 -34 -30 c-18 -16 -45 -37
-58 -46 -25 -17 -25 -17 -2 -17 12 -1 22 -5 22 -9 0 -10 -55 -52 -69 -52 -5 0
-11 -7 -15 -15 -3 -10 1 -15 13 -15 23 0 33 -23 18 -40 -10 -10 -3 -11 31 -6
41 6 42 6 25 -14 -10 -11 -21 -20 -26 -20 -4 0 -20 -11 -35 -25 -15 -14 -37
-25 -50 -25 -34 0 -22 -23 19 -37 l34 -11 -47 -12 c-62 -16 -61 -30 3 -30 27
0 48 -4 45 -9 -7 -10 -93 -37 -148 -46 -48 -7 -50 -25 -3 -25 42 0 125 21 125
32 0 4 5 8 12 8 25 0 -19 -31 -72 -50 -56 -20 -100 -29 -181 -35 -27 -2 -59
-6 -71 -9 -13 -4 1 5 31 20 39 18 50 28 40 34 -7 5 -16 7 -19 6 -3 -1 -22 -10
-42 -20 -20 -9 -40 -21 -43 -26 -3 -6 -17 -10 -29 -10 -13 0 -29 -7 -37 -16
-7 -8 -20 -13 -30 -11 -12 3 -16 0 -12 -10 3 -8 12 -12 20 -9 8 4 27 9 41 12
26 5 26 5 7 -10 -11 -8 -25 -19 -31 -24 -6 -5 -20 -13 -32 -16 -12 -4 -22 -11
-22 -16 0 -12 40 0 70 20 27 18 91 42 97 37 2 -2 -25 -19 -59 -36 -98 -50
-104 -55 -100 -73 3 -15 6 -16 25 -4 12 8 33 17 47 21 22 7 23 7 7 -9 -9 -9
-30 -22 -47 -27 -29 -11 -30 -12 -30 -77 0 -74 17 -76 22 -2 3 39 6 45 28 48
13 2 35 13 49 23 14 11 32 17 43 14 10 -4 18 -3 18 2 0 10 37 27 115 51 83 26
125 33 125 22 0 -6 -11 -10 -25 -10 -13 0 -53 -13 -87 -28 -35 -16 -78 -34
-96 -41 -17 -8 -32 -17 -32 -22 0 -12 -4 -13 79 16 51 17 69 20 61 10 -11 -14
-55 -31 -100 -40 -27 -5 -26 -3 -34 -38 -4 -19 -3 -26 4 -22 5 3 10 -1 10 -9
0 -9 -7 -16 -15 -16 -8 0 -15 -5 -15 -11 0 -6 9 -8 20 -4 14 5 20 2 20 -9 0
-20 8 -20 54 -1 20 8 36 13 36 10 0 -4 10 1 22 9 12 9 34 16 48 16 20 0 22 -2
10 -10 -8 -5 -25 -10 -37 -10 -13 0 -23 -3 -23 -7 0 -11 -50 -33 -76 -33 -12
0 -35 -7 -50 -16 l-29 -16 40 7 c51 9 39 -4 -23 -24 -33 -11 -47 -21 -46 -33
1 -10 2 -24 3 -32 0 -8 8 -12 19 -10 27 7 46 -10 35 -31 -9 -16 -11 -16 -26 0
-9 9 -21 13 -27 10 -5 -3 -10 -1 -10 4 0 6 -12 11 -26 11 -14 0 -23 -4 -20 -9
9 -14 -4 -41 -19 -41 -8 0 -16 12 -18 28 -6 33 0 -56 7 -118 l6 -45 -15 50
c-8 28 -20 82 -26 121 -12 67 -13 70 -34 60 -21 -10 -45 -48 -45 -74 0 -9 -7
-11 -19 -7 -16 5 -19 1 -16 -22 3 -31 -10 -63 -26 -63 -6 0 -6 7 1 19 5 11 10
26 9 33 0 7 -4 3 -10 -10 -6 -17 -14 -22 -28 -17 -14 4 -20 -1 -25 -20 -4 -14
-13 -25 -21 -25 -19 0 -19 19 0 26 8 4 12 10 9 15 -10 16 -33 -18 -31 -46 1
-15 -3 -30 -10 -32 -7 -3 -9 3 -6 16 7 28 -3 26 -33 -6 -14 -15 -38 -33 -52
-40 -27 -13 -27 -13 -2 -7 21 4 22 3 8 -6 -10 -6 -18 -19 -18 -28 -1 -16 -1
-16 -11 1 -13 23 -32 22 -54 -3 -13 -14 -22 -17 -29 -10 -5 5 -17 10 -25 10
-12 -1 -11 -3 4 -12 22 -13 85 -18 85 -6 0 12 58 2 77 -13 15 -12 16 -12 10 4
-3 9 -2 17 3 17 15 0 12 -17 -10 -60 -26 -50 -26 -86 0 -100 14 -8 20 -21 20
-45 0 -33 29 -73 54 -76 22 -3 41 3 48 14 5 8 11 7 20 -5 19 -26 71 -34 91
-13 10 9 25 14 36 10 24 -7 51 3 51 20 0 24 15 25 46 3 24 -16 25 -19 7 -15
-13 3 -24 -1 -27 -10 -3 -8 -10 -12 -15 -8 -5 3 -12 1 -15 -4 -3 -5 9 -11 27
-14 21 -3 35 0 40 9 4 8 15 14 22 14 10 0 15 11 15 31 0 26 -3 30 -22 25 -13
-3 -18 -3 -12 0 7 3 10 14 7 24 -3 12 1 22 10 26 8 3 13 13 10 23 -3 11 2 21
12 25 11 4 15 2 12 -6 -2 -7 3 -18 12 -25 11 -8 12 -12 4 -13 -7 0 -13 -4 -13
-10 0 -5 7 -7 15 -4 8 4 15 1 15 -5 0 -6 -8 -11 -17 -11 -15 0 -14 -2 3 -15
10 -8 27 -15 37 -15 9 0 17 -3 17 -8 0 -12 90 -102 102 -102 7 0 5 -5 -4 -12
-8 -7 -18 -29 -22 -48 -5 -32 -4 -33 9 -17 12 17 18 18 49 7 46 -15 46 -20 1
-13 -20 3 -41 1 -49 -6 -7 -6 -19 -45 -25 -86 -7 -41 -19 -89 -28 -106 -8 -17
-16 -60 -18 -95 l-2 -64 465 0 c425 0 464 1 458 16 -20 53 -28 106 -17 117 6
6 11 19 11 28 0 14 18 29 36 29 2 0 11 -26 19 -57 9 -32 23 -75 32 -95 l16
-38 641 1 c353 1 628 4 611 8 -16 4 41 6 127 5 87 -1 161 -5 165 -7 5 -3 46
-1 93 4 58 7 86 6 88 -1 4 -12 141 -12 222 -1 30 5 60 6 65 2 14 -8 272 -6
313 3 20 5 32 3 32 -3 0 -6 14 -11 30 -11 17 0 30 4 30 9 0 12 20 18 88 26 35
5 52 3 52 -4 0 -6 -8 -10 -17 -9 -35 3 -63 -2 -63 -11 0 -5 81 -9 181 -10 123
-1 179 2 174 9 -9 14 45 34 59 20 7 -7 6 -10 -2 -10 -7 0 -12 -5 -12 -10 0 -7
65 -10 197 -8 l197 3 2 33 c2 41 9 49 29 32 12 -10 13 -15 4 -21 -10 -6 -10
-11 -1 -22 7 -7 9 -17 5 -21 -4 -4 323 -6 726 -5 516 1 729 5 722 12 -18 18
-13 27 14 27 14 0 25 -5 25 -10 0 -6 17 -1 37 10 21 11 45 20 53 20 9 -1 6 -6
-9 -14 -15 -8 -20 -16 -12 -20 6 -4 11 -2 11 3 0 17 51 13 64 -5 9 -12 17 -13
39 -5 29 11 61 5 51 -10 -3 -5 2 -9 11 -9 10 0 13 5 9 12 -5 7 -3 8 5 4 7 -5
20 -1 29 7 29 25 152 47 152 27 0 -6 -8 -10 -17 -9 -10 1 -27 1 -38 0 -17 -1
-18 -3 -5 -11 13 -9 13 -11 0 -20 -10 -6 84 -10 284 -10 258 0 297 2 287 14
-10 12 -8 17 9 26 20 11 21 10 15 -10 -6 -18 -4 -20 19 -14 17 4 26 2 26 -5 0
-7 15 -10 40 -9 l40 3 0 44 c0 35 -3 42 -16 37 -8 -3 -13 -2 -9 3 3 5 -1 12
-7 14 -7 3 -3 6 10 6 l22 1 0 439 c-1 332 -4 441 -13 445 -9 3 -9 5 1 5 15 1
17 91 2 91 -5 0 -10 5 -10 11 0 5 5 7 10 4 7 -4 10 920 10 2764 l0 2771 -5910
0 -5910 0 1 -2167z m7013 -3178 c27 -2 78 -9 114 -16 46 -10 67 -10 69 -3 2 7
21 10 43 8 22 -2 42 1 45 6 3 5 13 6 21 3 13 -5 13 -7 2 -15 -9 -6 -5 -7 12
-4 102 20 169 15 130 -9 -6 -4 -8 -11 -5 -16 11 -17 44 -9 59 13 l16 22 0 -21
c0 -12 6 -23 13 -26 25 -9 -5 -21 -49 -18 -32 1 -44 -1 -39 -9 4 -6 13 -9 21
-6 7 3 15 2 18 -2 3 -5 25 -7 50 -6 25 1 46 -1 46 -5 0 -21 63 -41 129 -41 67
0 71 1 71 23 0 16 -3 18 -9 8 -6 -9 -14 -11 -26 -4 -15 9 -14 11 9 15 14 3 34
-1 43 -8 16 -12 16 -15 3 -24 -13 -8 -13 -10 3 -10 9 0 17 5 17 12 0 9 3 9 12
0 7 -7 21 -12 33 -11 19 0 19 1 -2 9 -35 14 -28 31 7 19 16 -6 27 -15 24 -20
-4 -8 35 -14 60 -10 19 4 46 -11 40 -21 -5 -7 -1 -9 9 -5 11 4 27 -5 47 -24
25 -25 30 -27 30 -12 1 17 2 17 16 -2 13 -18 13 -21 -2 -32 -14 -11 -21 -10
-35 3 -9 8 -37 16 -63 17 -25 1 -46 5 -46 11 0 5 22 6 50 3 56 -7 70 9 18 20
-18 4 -37 6 -41 5 -5 -1 -6 1 -4 5 7 10 -12 12 -170 16 -78 2 -133 -1 -133 -6
0 -5 -11 -2 -25 7 -14 9 -25 13 -25 10 0 -4 -9 1 -20 11 -20 19 -74 15 -110
-7 -13 -8 -30 -8 -61 -1 l-44 11 40 1 40 1 -35 21 c-24 15 -35 18 -38 9 -3 -9
-7 -9 -14 1 -7 11 -11 11 -15 2 -2 -7 -11 -13 -19 -13 -9 0 -12 5 -8 11 5 8
-1 10 -19 7 -15 -3 -24 -1 -21 3 3 5 0 9 -5 9 -6 0 -11 -5 -11 -11 0 -20 -142
5 -233 40 -37 14 -37 14 -37 -9 0 -25 72 -49 94 -31 11 9 15 8 19 -2 4 -10 32
-17 91 -22 61 -5 86 -11 86 -20 0 -13 59 -21 240 -30 123 -6 119 -5 91 -16
-35 -14 -23 -16 44 -9 36 4 48 8 30 10 -19 1 -24 4 -12 7 10 3 31 0 47 -5 21
-8 30 -7 33 1 3 9 8 9 19 -1 13 -10 21 -10 44 0 21 10 28 10 31 1 3 -7 11 -9
19 -6 9 3 14 -1 14 -12 0 -12 -5 -15 -20 -10 -31 10 -140 12 -140 3 0 -4 20
-8 44 -8 25 0 47 -4 50 -9 3 -5 20 -12 38 -15 18 -4 56 -12 83 -17 28 -6 71
-12 97 -13 25 0 42 -4 36 -7 -5 -3 -10 -10 -9 -15 0 -5 -8 -8 -17 -6 -9 1 -46
2 -81 2 -53 0 -67 4 -78 20 -8 11 -22 20 -32 20 -9 0 -22 5 -28 11 -6 6 -26 9
-44 6 l-34 -3 34 -9 c26 -6 30 -10 18 -17 -9 -5 -38 -2 -73 7 -32 8 -65 13
-74 10 -9 -3 -45 -1 -81 5 -35 6 -73 11 -84 11 -11 0 -38 4 -59 10 -24 7 -41
7 -45 1 -6 -9 -143 -1 -216 13 -50 9 -124 12 -135 5 -6 -4 -38 2 -72 13 -50
16 -62 17 -69 6 -9 -15 19 -27 74 -31 28 -2 39 -18 12 -18 -8 0 -15 -4 -15
-10 0 -5 7 -7 16 -3 8 3 25 -4 38 -16 16 -15 26 -19 31 -12 3 6 -1 14 -9 17
-9 3 -13 11 -9 17 4 6 1 7 -7 2 -8 -5 -11 -3 -8 6 6 18 49 25 46 7 -2 -7 8
-14 22 -15 22 -2 23 -2 5 7 -13 6 2 7 45 3 36 -3 98 -7 137 -10 51 -4 71 -9
66 -17 -5 -8 -3 -8 8 0 20 15 59 24 59 13 0 -5 18 -9 41 -9 32 0 40 -3 35 -15
-3 -8 -1 -15 5 -15 6 0 7 -4 4 -10 -3 -5 -2 -10 4 -10 5 0 13 5 16 10 3 6 2
10 -2 10 -5 0 -9 8 -9 18 0 17 4 18 45 7 44 -11 69 -35 36 -35 -10 0 -13 5 -9
12 4 7 3 8 -5 4 -6 -4 -20 -2 -29 5 -9 8 -1 -3 18 -24 19 -20 40 -37 46 -37 6
0 11 -6 11 -14 0 -10 -13 -13 -55 -10 -31 3 -61 9 -67 14 -7 5 -15 7 -19 3 -4
-4 -4 1 0 11 5 13 4 17 -4 12 -6 -3 -13 -2 -17 4 -10 16 -62 12 -62 -5 0 -10
6 -13 17 -10 9 3 29 -4 44 -16 16 -12 41 -22 57 -21 16 0 31 -4 35 -9 3 -6
-14 -8 -48 -4 -29 4 -71 7 -93 8 -29 2 -41 7 -43 20 -4 18 -22 24 -22 7 0 -14
-73 -46 -77 -33 -2 6 -13 8 -25 5 -14 -3 -19 -1 -14 6 4 7 1 12 -8 12 -8 0
-18 -4 -21 -10 -3 -5 0 -10 8 -10 8 0 20 -7 27 -15 11 -13 8 -15 -16 -11 -16
2 -37 7 -48 11 -10 5 -21 4 -25 -2 -3 -6 -13 -12 -21 -15 -8 -3 13 -6 48 -7
37 0 77 5 99 14 40 17 49 14 39 -11 -5 -13 -9 -14 -21 -4 -10 9 -15 9 -15 1 0
-7 -21 -11 -55 -11 -55 0 -80 -19 -27 -21 16 -1 20 -3 10 -6 -23 -6 -23 -17
-1 -34 15 -12 16 -12 10 4 -3 9 -2 17 3 17 6 0 10 -4 10 -10 0 -5 6 -10 14
-10 8 0 32 -16 53 -35 21 -19 32 -35 25 -35 -7 0 -15 7 -18 15 -4 8 -11 15
-17 15 -6 0 -19 7 -29 17 -10 9 -18 12 -18 7 0 -6 22 -31 49 -57 49 -45 51
-46 120 -48 39 -1 78 -7 87 -13 12 -9 -8 -10 -83 -4 -115 10 -134 15 -113 28
21 13 10 19 -38 21 -23 2 -42 7 -42 11 0 4 7 8 15 8 22 0 18 18 -5 25 -22 7
-40 0 -40 -16 0 -6 5 -7 12 -3 7 4 8 3 4 -4 -4 -6 -13 -9 -22 -5 -13 5 -13 8
2 24 16 18 16 19 0 19 -9 0 -14 5 -11 10 7 12 3 12 -19 4 -12 -4 -13 -11 -6
-24 5 -9 7 -20 4 -23 -11 -11 42 -36 82 -39 28 -2 40 -7 37 -15 -7 -18 36 -32
107 -35 33 -2 60 -6 60 -9 0 -6 68 -2 103 5 11 3 17 -2 17 -15 0 -22 20 -25
38 -7 9 9 15 10 20 2 9 -13 142 -17 142 -4 0 6 7 10 16 10 8 0 12 -4 9 -10 -4
-6 5 -10 19 -10 14 0 26 -4 26 -9 0 -5 -10 -7 -22 -5 l-23 5 23 -10 c34 -16
26 -23 -18 -17 -22 3 -58 9 -80 12 -26 4 -40 2 -40 -5 0 -6 8 -11 18 -11 12
-1 9 -5 -11 -16 -15 -8 -33 -12 -39 -8 -6 4 -8 3 -4 -4 3 -6 2 -13 -4 -17 -6
-4 -7 -11 -4 -17 5 -8 -3 -9 -27 -3 -19 4 -45 8 -58 10 -13 1 -31 11 -40 22
-9 11 -22 18 -28 16 -6 -2 -14 1 -18 6 -4 7 0 8 11 4 13 -5 15 -2 9 16 l-7 23
21 -21 c12 -12 19 -26 16 -31 -4 -6 -1 -10 5 -10 5 0 9 13 8 30 -2 27 -6 30
-56 41 -30 6 -65 9 -78 6 -13 -2 -24 -1 -24 4 0 4 -12 6 -27 4 -16 -2 -38 -4
-50 -4 -14 -1 -23 -7 -23 -16 0 -10 -9 -15 -27 -14 -17 1 -21 3 -10 6 21 5 22
19 3 26 -9 4 -17 -2 -21 -14 -4 -10 -14 -19 -23 -19 -16 1 -15 2 1 11 20 12
23 29 3 29 -12 0 -25 28 -26 52 0 4 15 2 32 -3 41 -11 58 -11 58 0 0 8 -29 15
-113 26 -46 6 -57 12 -57 31 0 8 -10 14 -24 14 -13 0 -29 7 -36 15 -7 8 -18
15 -25 15 -15 0 -47 34 -40 43 3 4 2 5 -2 2 -8 -6 -33 14 -33 27 0 5 9 7 19 3
11 -3 22 -1 26 5 4 6 -8 10 -32 10 -22 0 -48 7 -59 15 -18 15 -18 15 6 10 54
-12 171 -21 176 -13 3 4 10 8 16 8 6 0 8 -3 5 -7 -10 -9 13 -33 32 -33 11 1 8
5 -9 15 l-25 13 28 11 c31 12 32 18 11 46 -12 16 -16 17 -23 6 -11 -17 -25 3
-16 22 4 6 -1 3 -9 -7 -18 -22 -21 -21 -30 11 -6 18 -4 21 16 16 22 -4 22 -4
-2 9 -14 8 -27 11 -30 8 -3 -4 -14 -10 -25 -14 -14 -5 -16 -9 -7 -15 24 -14
-11 -33 -39 -21 -23 10 -23 10 4 5 30 -6 36 8 10 25 -12 8 -13 10 -3 7 16 -5
43 17 33 27 -4 3 -16 6 -28 6 -12 0 -36 5 -53 11 -29 10 -31 14 -29 56 l2 45
60 -5 c33 -3 68 -8 78 -12 10 -4 17 -3 17 4 0 6 -12 11 -27 11 -14 0 -23 3
-20 7 11 10 107 21 107 11 0 -4 -9 -8 -20 -8 -12 0 -20 -7 -20 -16 0 -11 5
-14 16 -10 9 4 23 1 30 -5 12 -10 13 -8 8 7 -5 18 -5 18 6 0 11 -16 20 -17 76
-11 43 4 64 3 64 -4 0 -6 10 -9 23 -7 12 3 36 5 52 6 25 0 27 2 13 11 -10 5
-24 9 -30 8 -7 -2 -29 1 -48 6 l-35 9 30 6 c26 5 -117 23 -281 34 -23 2 -46 6
-52 10 -5 3 -13 -1 -16 -10 -4 -12 -2 -15 9 -11 8 4 17 3 19 -2 3 -4 20 -6 38
-4 27 3 30 2 16 -7 -17 -10 -118 -4 -118 8 0 2 8 11 18 19 15 12 15 13 -9 7
-20 -4 -29 0 -43 21 l-18 27 48 -6 c27 -3 50 -10 52 -16 2 -5 13 -3 27 6 22
14 23 14 18 -5 -4 -15 -1 -21 12 -21 14 0 16 6 12 30 -6 29 -6 30 36 31 40 2
40 2 -13 9 -162 21 -229 33 -226 39 3 4 42 3 88 -2 46 -4 105 -10 132 -12z
m1548 -173 c-13 -4 -23 -10 -23 -14 3 -27 0 -30 -14 -18 -8 7 -15 8 -15 3 0
-5 -23 -9 -50 -10 -28 0 -53 -3 -57 -6 -6 -7 11 -8 124 -11 28 0 55 -4 59 -8
4 -5 18 -8 31 -8 14 0 33 -4 43 -10 12 -6 27 -6 42 -1 17 7 19 10 6 10 -34 2
-18 16 20 18 34 2 36 1 18 -13 -23 -16 -4 -19 26 -3 23 12 39 2 18 -11 -11 -7
-8 -10 13 -10 16 0 26 4 22 10 -3 6 1 10 10 10 8 0 18 -7 21 -15 5 -11 10 -13
19 -5 6 5 15 7 19 3 4 -4 4 0 0 10 -5 15 -1 16 27 11 43 -9 49 -14 16 -14 -15
0 -27 -5 -27 -11 0 -7 11 -9 28 -6 35 7 112 -3 112 -14 0 -5 -14 -9 -32 -9
-40 0 -30 -11 11 -12 18 -1 34 -5 38 -10 5 -9 -237 -1 -246 8 -10 9 8 10 72 5
38 -4 70 -4 73 0 5 9 -109 21 -221 24 -49 2 -98 6 -107 10 -10 4 -38 5 -63 3
-26 -2 -45 1 -45 7 0 6 -3 6 -8 -1 -10 -14 -42 -26 -42 -15 0 5 6 12 13 14 6
3 2 6 -10 6 -16 1 -21 -3 -17 -14 4 -10 0 -15 -11 -15 -9 0 -13 5 -10 10 4 6
-9 10 -30 10 -29 0 -36 -3 -31 -15 7 -18 -73 -43 -83 -26 -10 15 -51 2 -44
-15 3 -9 21 -14 51 -14 67 -1 72 0 120 6 33 5 48 2 62 -11 12 -11 20 -13 20
-7 0 7 8 12 18 12 14 0 15 -2 2 -10 -12 -8 -10 -10 8 -10 15 0 21 4 16 12 -4
7 -3 8 4 4 24 -14 11 -26 -28 -26 -28 0 -40 -4 -40 -14 0 -8 6 -17 13 -20 6
-3 -6 -3 -28 0 -55 8 -82 26 -32 21 20 -1 37 0 37 4 0 3 -28 9 -62 13 -35 3
-89 10 -120 14 -32 5 -58 4 -58 0 0 -5 -9 -4 -19 2 -26 14 -31 13 -31 -6 0 -8
3 -13 8 -10 4 2 35 1 70 -3 34 -4 63 -4 64 0 2 3 14 3 27 -2 28 -11 24 -19
-11 -23 -13 -1 -30 -6 -36 -10 -19 -12 -62 -15 -68 -4 -3 4 -9 6 -14 3 -4 -3
-21 2 -36 10 -16 8 -38 15 -49 15 -18 -1 -19 -1 -2 -11 19 -11 23 -29 6 -29
-16 0 -59 36 -52 44 3 3 1 6 -5 6 -7 0 -12 -7 -12 -15 0 -8 7 -15 15 -15 8 0
15 -4 15 -10 0 -9 -42 4 -65 21 -5 4 -44 12 -85 18 -181 26 -207 31 -245 45
l-40 14 52 -5 c37 -4 58 -2 69 8 15 12 16 11 10 -9 -8 -25 8 -30 30 -8 12 13
12 17 -1 29 -13 13 -11 16 11 21 13 4 32 2 42 -3 9 -6 14 -11 10 -12 -5 -1
-12 -3 -18 -4 -5 -1 -13 -3 -17 -4 -5 -1 -1 -6 7 -11 13 -8 12 -10 -2 -10 -10
0 -18 -5 -18 -11 0 -8 15 -9 45 -5 36 6 45 4 45 -8 0 -11 8 -13 38 -9 43 6 67
23 34 23 -12 0 -22 4 -22 9 0 4 13 8 30 7 16 -1 30 -3 30 -6 0 -3 43 -6 95 -8
60 -2 95 1 95 8 0 6 -27 10 -64 10 -36 0 -67 4 -70 9 -4 5 16 9 44 8 27 0 53
3 57 6 3 4 -1 7 -10 7 -9 0 -17 4 -17 10 0 5 20 8 46 6 46 -4 74 -16 36 -16
-11 0 -24 -4 -27 -10 -8 -13 20 -13 63 -1 20 6 32 6 32 0 0 -5 5 -9 10 -9 6 0
10 6 10 14 0 8 6 17 13 20 6 3 0 3 -15 0 -16 -4 -36 -3 -45 2 -10 4 -29 9 -43
11 -14 1 -45 5 -70 8 -25 3 -51 6 -57 7 -7 1 -13 9 -13 19 0 26 52 33 69 8 7
-10 21 -19 30 -18 10 0 11 2 4 6 -7 2 -13 11 -13 19 0 12 4 12 20 4 39 -21
186 -13 201 11 5 9 11 10 21 2 14 -12 68 -6 68 8 0 5 15 9 33 8 27 -1 29 -2 9
-7z m928 -148 c0 -13 3 -14 14 -5 9 8 16 8 20 2 8 -12 -40 -23 -99 -23 -25 0
-43 -4 -39 -9 3 -5 -33 -9 -85 -9 -90 0 -125 -6 -116 -20 2 -4 24 -4 47 1 57
11 60 11 53 -1 -3 -5 4 -10 17 -11 23 -1 23 -1 -2 -9 -14 -4 -32 -8 -40 -9
-13 -1 -13 0 0 9 8 5 10 10 5 10 -13 0 -35 -20 -35 -32 0 -4 19 -8 42 -8 23 0
39 -3 35 -6 -9 -9 -107 -12 -107 -3 0 3 -22 6 -50 5 -27 -1 -44 2 -37 6 6 4
30 8 51 8 22 0 37 3 33 6 -10 11 -77 22 -77 13 0 -12 -67 -11 -91 1 -13 7 -19
7 -20 0 -1 -5 -2 -16 -3 -22 0 -7 -17 -14 -36 -15 -34 -3 -34 -2 -10 9 24 10
22 11 -25 19 -54 9 -85 -4 -45 -19 l23 -9 -23 -16 c-13 -9 -28 -13 -33 -10 -5
3 -2 10 7 15 23 13 10 28 -25 28 -29 0 -40 -14 -16 -23 6 -3 3 -6 -8 -6 -11 0
-29 6 -39 14 -11 8 -29 13 -40 9 -17 -4 -18 -3 -6 5 8 6 13 11 10 12 -21 3
-38 8 -54 15 -14 5 -17 4 -11 -5 6 -10 3 -11 -15 -1 -12 6 -28 9 -35 6 -13 -5
-45 33 -45 54 0 5 19 10 43 9 36 -1 38 -2 17 -9 -14 -4 -19 -8 -11 -9 11 -1
11 -4 1 -16 -7 -9 -8 -15 -2 -15 5 0 12 7 16 15 6 16 56 21 56 6 0 -5 -10 -7
-22 -4 -21 4 -21 3 -6 -9 10 -8 35 -14 60 -12 35 1 44 5 46 23 3 16 -2 21 -20
22 -13 0 -17 3 -10 6 7 3 20 2 30 -3 9 -4 23 -6 30 -5 6 1 12 -4 12 -11 0 -9
3 -9 10 2 9 13 11 13 20 0 7 -11 4 -17 -13 -22 -14 -4 -1 -6 33 -7 42 0 51 2
37 10 -9 5 -21 8 -26 5 -5 -3 -11 2 -13 12 -4 12 1 18 13 18 11 0 19 -4 19 -8
0 -4 11 -7 25 -6 14 1 25 6 25 10 0 12 38 10 45 -3 4 -5 17 -9 28 -8 37 2 42
0 22 -14 -14 -11 -15 -16 -5 -22 9 -5 15 -4 18 3 5 16 29 15 35 0 4 -10 7 -10
15 0 6 9 18 11 35 6 22 -5 27 -3 27 12 0 16 -2 17 -11 4 -9 -13 -10 -13 -7 0
3 10 17 13 51 11 26 -1 62 1 80 6 31 7 31 8 -18 14 l-50 6 60 -1 c42 -1 59 -5
58 -13 -4 -18 12 -16 27 2 7 9 27 14 49 13 20 0 45 0 56 1 17 3 17 4 -5 11
l-25 8 28 1 c19 1 27 -4 27 -15z m-1172 -226 c6 -1 12 -7 12 -13 0 -8 -11 -11
-29 -9 -15 2 -36 -2 -46 -9 -14 -11 -10 -13 34 -14 28 0 54 3 57 8 3 5 27 7
52 4 26 -3 74 -7 106 -9 37 -2 63 -9 70 -18 6 -8 18 -17 26 -21 8 -3 1 -6 -17
-6 -27 -1 -31 2 -26 17 6 15 5 15 -11 3 -9 -8 -15 -20 -12 -27 3 -8 0 -11 -9
-8 -8 3 -13 11 -12 16 1 6 -4 13 -12 16 -10 3 -13 -1 -8 -17 3 -14 0 -21 -9
-21 -8 0 -14 6 -14 14 0 22 -18 29 -48 21 l-27 -8 25 -7 c20 -6 15 -8 -20 -8
-25 0 -66 -3 -90 -7 -42 -7 -43 -8 -20 -17 16 -6 26 -5 28 1 2 6 11 11 20 10
11 0 12 -2 5 -6 -7 -2 -13 -9 -13 -15 0 -6 11 -3 25 6 15 10 25 12 25 6 0 -6
8 -10 18 -8 9 1 23 -1 30 -6 7 -4 20 -2 29 6 14 11 15 11 11 -2 -4 -12 -18
-14 -61 -12 -31 2 -64 -1 -74 -7 -16 -9 -15 -10 7 -11 14 0 33 -9 43 -20 15
-17 15 -20 1 -20 -8 0 -13 -4 -10 -8 2 -4 -12 -6 -31 -4 l-36 5 29 12 c28 12
28 13 4 12 -14 0 -37 -9 -52 -19 -31 -21 -63 -25 -35 -4 9 7 17 19 17 27 0 9
-3 10 -8 3 -10 -15 -57 -39 -48 -25 5 7 -2 11 -18 11 -32 0 -34 -15 -3 -24 41
-12 -5 -26 -62 -19 -43 5 -50 8 -39 19 7 7 36 18 63 25 74 17 84 22 54 26 -14
2 -45 -2 -67 -10 -23 -8 -44 -11 -47 -7 -3 5 1 11 7 13 8 4 9 6 2 6 -6 1 -17
-6 -24 -14 -9 -11 -9 -15 -1 -15 7 0 5 -9 -5 -26 -10 -15 -23 -23 -32 -19 -9
3 -12 0 -9 -8 4 -10 -4 -14 -24 -15 -16 0 -29 4 -29 10 0 5 6 8 14 5 14 -5 42
40 31 51 -3 3 -5 0 -5 -6 0 -13 -65 -36 -83 -29 -7 3 -4 6 6 6 10 1 15 6 12
11 -3 6 1 10 10 10 9 0 13 5 10 10 -3 6 1 10 10 10 9 0 13 5 10 10 -4 6 -15 8
-26 5 -11 -4 -19 -2 -19 5 0 6 -4 9 -8 6 -4 -2 -14 0 -22 5 -11 8 -5 9 23 5
28 -3 37 -1 37 10 0 10 -14 14 -57 15 -51 0 -55 2 -33 11 37 16 58 19 65 9 3
-6 18 -6 36 -1 17 5 34 9 38 8 31 -4 42 17 19 40 -8 8 -16 8 -23 2 -8 -7 -17
-4 -28 8 -15 16 -12 17 40 19 47 2 53 0 42 -13 -6 -8 -9 -17 -6 -20 3 -3 12 3
19 15 11 18 23 21 86 21 50 0 71 3 66 11 -3 6 -15 9 -25 6 -11 -3 -19 -1 -19
4 0 7 32 6 118 -3z m507 -141 c19 -2 10 -5 -25 -6 -30 -1 -73 -8 -95 -16 -50
-18 -56 -18 -49 0 4 10 0 15 -10 15 -9 0 -19 -7 -22 -15 -4 -8 -11 -15 -16
-15 -6 0 -5 6 2 15 11 13 8 15 -13 15 -14 0 -29 -4 -32 -10 -3 -5 -19 -10 -35
-10 -25 0 -55 -19 -33 -21 4 0 26 -2 48 -4 22 -2 35 -1 28 2 -7 2 -9 11 -6 19
5 13 8 13 24 -2 10 -9 23 -13 28 -9 6 3 18 -1 27 -9 14 -15 14 -16 -1 -16 -9
0 -15 -6 -12 -12 4 -13 44 -15 103 -3 25 4 34 11 32 23 -2 11 5 18 20 20 12 2
22 7 22 12 0 5 19 9 43 9 23 -1 56 2 72 5 17 4 37 2 45 -3 22 -15 5 -24 -20
-11 -15 8 -25 9 -29 2 -7 -12 -62 -19 -76 -10 -6 3 -18 0 -29 -7 -16 -12 -15
-14 20 -17 l39 -4 -42 -8 c-24 -5 -40 -12 -38 -17 3 -4 0 -11 -6 -15 -6 -3
-14 -2 -18 4 -6 10 -37 6 -126 -17 -22 -6 -53 -11 -68 -11 -24 0 -27 3 -22 20
6 18 4 19 -19 9 -14 -7 -23 -16 -20 -20 3 -5 -4 -9 -15 -9 -11 0 -23 5 -26 11
-4 6 -14 8 -22 5 -8 -3 -11 -1 -8 4 3 6 13 10 21 10 8 0 14 5 14 11 0 7 -13 9
-37 5 -21 -3 -31 -3 -23 1 28 11 49 35 43 49 -4 11 5 14 40 14 25 0 49 5 52
10 9 14 108 12 124 -2 11 -10 13 -10 7 0 -5 9 5 12 38 12 25 0 48 5 52 11 4 7
9 8 13 1 3 -6 20 -12 36 -15z m-1595 -97 c0 -5 -6 -10 -14 -10 -17 0 -29 -27
-15 -36 6 -3 8 -12 5 -19 -8 -22 7 -26 21 -5 14 20 60 29 48 10 -4 -7 3 -8 21
-4 23 6 26 4 21 -10 -4 -9 -1 -16 6 -16 8 0 8 -3 -2 -9 -7 -5 -10 -14 -6 -21
7 -12 -21 -10 -74 6 -14 4 -26 2 -31 -5 -5 -10 -17 -10 -47 -2 -23 6 -49 8
-59 4 -17 -6 -17 -5 -6 10 8 9 11 21 7 27 -3 5 2 13 12 17 10 3 22 12 26 20 4
7 13 13 20 13 7 0 18 9 25 20 13 21 42 28 42 10z"/>
<path d="M206 1053 c10 -7 27 -13 37 -13 19 0 19 -1 2 -20 -17 -19 -17 -20 6
-28 33 -12 151 -24 123 -12 -33 13 -43 35 -13 26 55 -17 70 -17 114 -3 33 12
53 13 71 7 14 -6 42 -10 63 -10 20 0 46 -7 57 -15 18 -14 18 -14 -6 -16 -17
-1 -20 -3 -7 -6 9 -2 15 -8 13 -12 -3 -4 16 -8 42 -9 26 -1 48 -6 50 -12 2 -5
11 -10 20 -10 10 0 24 -5 32 -11 12 -9 10 -10 -9 -5 -15 3 -20 1 -14 -5 5 -5
29 -14 54 -19 35 -7 27 -8 -41 -4 -121 8 -143 10 -165 17 -69 20 -68 20 -62 4
4 -12 2 -14 -11 -10 -9 4 -23 13 -30 20 -11 11 -10 13 7 13 11 0 23 5 26 10 4
6 -10 10 -34 10 -22 0 -43 5 -46 10 -10 16 -28 12 -21 -5 3 -9 0 -15 -9 -15
-19 0 -28 17 -13 23 7 2 -23 4 -67 4 -114 0 -265 12 -286 23 -23 13 -49 13
-49 0 0 -5 10 -9 23 -9 12 1 39 -6 59 -15 21 -9 54 -16 74 -16 31 0 36 -3 31
-20 -5 -18 0 -20 49 -21 30 -1 68 -3 84 -5 17 -3 43 -5 59 -7 16 -1 27 -5 25
-9 -2 -4 8 -9 23 -12 16 -2 0 -3 -34 -1 -35 2 -65 0 -68 -5 -8 -13 70 -20 163
-14 68 5 102 3 139 -8 26 -9 65 -19 85 -22 21 -4 50 -18 65 -32 18 -17 30 -21
37 -14 17 17 56 11 89 -15 28 -21 40 -23 92 -19 40 3 53 1 40 -5 -11 -4 -24
-6 -30 -4 -5 2 -2 -2 8 -10 9 -8 17 -22 17 -31 0 -12 6 -16 17 -12 21 7 40 -4
45 -24 5 -25 27 -41 63 -47 19 -3 35 -9 35 -14 0 -11 -56 -1 -97 17 -17 8 -46
17 -65 20 l-33 5 33 -15 c17 -8 32 -19 32 -25 0 -11 54 -31 86 -31 12 0 24 -5
26 -12 3 -7 20 -13 39 -14 19 -1 44 -6 57 -9 13 -5 22 -3 22 4 0 6 8 8 18 4
14 -6 15 -4 4 9 -7 8 -36 19 -65 23 -28 5 -44 10 -35 12 9 2 40 -1 70 -6 94
-19 110 -21 150 -12 24 6 40 5 44 -1 4 -6 21 -7 43 -2 61 12 102 3 71 -16 -23
-14 -4 -23 20 -10 12 6 33 14 47 16 14 3 32 11 40 19 8 8 20 15 26 16 22 1
-28 18 -53 18 -23 0 -23 -1 -5 -9 17 -7 15 -9 -13 -9 -29 -1 -31 1 -20 18 7
12 29 23 53 27 l40 8 -35 6 -35 7 25 11 c24 12 24 12 -7 6 -17 -3 -34 -1 -38
5 -3 6 -19 11 -34 11 -31 0 -51 16 -51 42 0 10 -7 21 -15 24 -8 4 -13 10 -10
14 3 4 -12 4 -33 -1 -21 -4 -54 -4 -77 1 -22 5 -65 10 -95 11 l-55 2 50 7 c56
7 42 14 -49 24 -56 7 -67 13 -46 26 13 9 13 10 0 11 -8 1 -18 1 -22 0 -13 -2
-9 17 4 22 7 3 -4 3 -25 0 -41 -6 -87 12 -87 33 0 10 -6 11 -23 5 -29 -11 -85
-2 -65 10 7 5 24 9 38 9 l25 1 -25 10 c-13 6 -27 15 -31 21 -4 6 -37 10 -75
10 -38 0 -74 4 -81 10 -10 8 -13 6 -13 -6 0 -20 -16 -21 -23 -2 -3 8 -1 17 6
20 7 2 -22 4 -64 4 -43 0 -82 2 -87 6 -6 3 -23 8 -39 10 -15 2 -50 10 -78 17
-27 7 -96 13 -153 13 -65 1 -105 5 -110 12 -4 6 -38 13 -75 16 -58 3 -66 2
-51 -9z"/>
<path d="M1400 911 c-8 -6 -18 -7 -24 -4 -5 3 -6 1 -3 -4 4 -6 -1 -17 -10 -24
-12 -10 -14 -10 -9 -1 4 8 1 12 -9 12 -11 0 -15 -5 -12 -14 3 -8 3 -17 -1 -19
-4 -2 -2 -2 5 -1 6 1 28 -6 49 -17 42 -21 37 -24 -15 -9 -41 12 -29 -3 14 -17
27 -9 56 -8 218 11 21 2 36 2 33 -1 -9 -9 65 -45 107 -53 29 -6 37 -4 37 7 0
8 -5 11 -11 8 -6 -4 -31 1 -57 11 -26 9 -41 19 -34 22 7 2 9 8 6 14 -4 7 -9 6
-14 -2 -6 -9 -14 -8 -34 5 -21 14 -31 15 -57 6 -35 -12 -53 -6 -29 9 12 8 10
10 -7 10 -15 0 -23 6 -23 18 0 23 -33 22 -79 -2 -28 -15 -35 -15 -42 -4 -5 7
-8 18 -8 23 0 6 3 4 6 -2 2 -7 14 -13 26 -13 20 1 20 2 4 11 -9 6 -15 14 -12
20 8 11 4 11 -15 0z"/>
<path d="M303 802 c-6 -4 -77 -7 -157 -7 l-146 0 0 -87 c0 -67 3 -88 13 -88 8
0 22 -9 32 -20 10 -11 26 -20 35 -20 17 0 47 -27 39 -34 -8 -8 -59 7 -53 15 3
5 -11 9 -30 9 l-36 0 0 -74 c0 -82 3 -86 72 -86 35 0 38 -2 24 -15 -17 -17
-46 -20 -46 -5 0 6 -11 10 -25 10 l-25 0 0 -201 0 -201 363 3 c303 3 364 6
373 18 9 11 41 15 135 18 147 4 200 11 214 29 5 8 26 16 45 19 26 4 30 3 15
-4 -14 -6 6 -9 65 -8 102 2 140 -6 140 -32 0 -36 20 -39 234 -40 l210 0 -30
20 c-16 11 -23 19 -14 19 13 0 13 1 0 10 -19 12 -33 13 -26 1 7 -10 -135 -15
-272 -9 -37 2 -40 4 -22 12 14 6 43 6 81 0 33 -6 62 -7 64 -4 2 3 25 7 51 9
26 1 52 5 58 8 5 4 35 6 65 5 36 -1 49 1 37 7 -15 6 -17 9 -6 16 9 6 -1 14
-35 27 -33 13 -51 16 -59 8 -5 -5 -16 -10 -24 -10 -12 0 -12 3 -2 15 7 8 21
15 31 15 10 0 24 9 31 20 7 11 18 20 25 20 20 0 15 17 -9 34 -29 20 -44 21
-28 1 17 -20 7 -30 -12 -12 -24 24 -56 37 -92 37 -20 0 -36 5 -36 10 0 6 -12
10 -27 9 -16 0 -22 -3 -15 -6 6 -2 12 -9 12 -15 0 -11 -42 0 -50 13 -7 11
-150 7 -143 -3 2 -5 -3 -8 -11 -8 -19 0 -21 26 -3 33 25 9 -165 23 -243 18
-39 -3 -41 -4 -20 -11 l25 -8 -27 -1 c-19 -1 -28 4 -28 14 0 10 -11 15 -37 16
-26 1 -30 3 -13 6 52 8 70 14 70 22 0 5 -8 12 -17 14 -15 4 -15 5 2 6 11 0 35
-3 52 -8 20 -6 35 -6 38 0 12 19 -44 27 -158 22 -87 -3 -117 -1 -117 8 0 8 12
10 43 5 25 -4 37 -3 29 2 -10 7 -8 11 10 15 12 4 34 7 48 7 14 0 32 5 40 10
13 9 11 13 -10 30 -27 21 -60 27 -60 10 0 -5 -9 -10 -19 -10 -25 0 -38 -20
-20 -31 25 -16 -59 -10 -113 7 -40 14 -52 14 -58 4 -6 -10 -13 -9 -31 4 -25
17 -26 17 53 19 30 1 50 -3 53 -10 5 -14 55 -18 55 -4 0 4 -12 6 -27 3 -23 -4
-26 -2 -15 9 7 8 27 12 47 11 40 -4 79 14 68 31 -5 9 -3 9 8 1 8 -6 34 -16 59
-23 68 -20 93 -33 50 -26 -31 4 -33 3 -18 -9 20 -15 14 -26 -14 -26 -11 0 -16
-5 -13 -10 7 -11 46 -3 55 10 7 11 60 0 60 -11 0 -10 60 -12 84 -3 29 11 5 25
-31 18 -25 -5 -34 -3 -29 4 3 6 -2 15 -11 21 -14 8 -3 11 47 11 l65 1 -54 15
c-30 8 -57 17 -60 19 -8 9 29 5 74 -6 24 -6 50 -9 57 -6 19 7 -39 28 -89 32
-22 2 -65 10 -95 18 -29 8 -84 19 -123 23 -54 6 -63 9 -40 13 16 4 54 6 82 6
29 -1 53 1 53 2 0 11 -54 22 -64 14 -13 -11 -51 13 -42 27 6 11 -25 22 -62 22
-13 0 -21 4 -18 8 2 4 -3 8 -12 9 -34 4 -112 28 -112 35 0 4 -7 4 -17 1 -11
-4 -14 -3 -9 6 6 9 1 10 -18 5 -15 -3 -26 -2 -26 4 0 6 -18 13 -40 17 -22 4
-40 11 -40 16 0 5 -8 9 -17 9 -10 0 -31 7 -48 16 -16 8 -52 18 -79 21 -28 4
-61 12 -75 20 -28 14 -69 17 -88 5z m-5 -223 c29 -6 50 -15 47 -20 -7 -11 20
-12 55 -2 24 7 23 8 -10 14 l-35 6 43 2 c31 1 42 -3 42 -14 0 -9 -9 -15 -22
-15 -21 -1 -21 -2 -5 -11 10 -6 23 -9 30 -6 17 5 88 -33 81 -44 -3 -5 4 -9 15
-9 12 0 21 -4 21 -9 0 -5 8 -12 17 -14 11 -3 7 -5 -9 -6 -17 -1 -27 -6 -25
-13 1 -9 -9 -12 -33 -10 -26 2 -31 0 -20 -7 8 -6 23 -11 33 -11 10 0 16 -4 13
-9 -3 -5 -14 -8 -24 -6 -66 14 -71 16 -66 30 5 12 -3 15 -37 15 -24 0 -51 5
-59 10 -10 7 3 8 43 4 35 -4 57 -3 57 3 0 6 11 8 25 5 14 -2 22 -8 19 -13 -3
-5 4 -9 15 -9 30 0 27 5 -24 34 -25 15 -45 30 -45 35 0 8 -90 26 -180 36 -24
3 -48 12 -53 20 -4 8 -13 15 -18 15 -6 0 -7 -4 -4 -10 8 -13 -15 -13 -35 0
-13 8 -12 10 3 10 10 0 16 4 13 9 -6 10 47 6 132 -10z m242 -250 c19 -6 74
-10 123 -9 53 1 87 -3 87 -9 0 -5 14 -8 31 -6 50 6 127 -6 146 -24 21 -19 75
-26 193 -23 70 2 138 -7 146 -20 4 -6 -8 -7 -30 -3 -26 5 -36 4 -36 -5 0 -10
-3 -10 -15 0 -11 9 -29 10 -77 1 -34 -6 -64 -15 -68 -20 -6 -11 -96 -18 -106
-8 -4 4 8 7 27 8 l34 1 -27 10 c-21 7 -35 6 -57 -5 -21 -11 -47 -13 -102 -7
-56 5 -79 3 -96 -8 -12 -7 -27 -11 -33 -7 -20 12 -145 13 -170 0 -41 -20 -94
-24 -115 -9 -17 13 -16 14 21 15 38 2 59 4 79 8 6 1 -1 7 -15 13 -14 6 -20 12
-13 15 7 2 21 0 32 -6 25 -14 54 -14 46 -1 -4 6 7 10 27 10 25 0 29 3 18 10
-13 8 -13 10 1 10 9 0 22 -6 28 -14 9 -10 20 -12 42 -6 16 5 65 8 109 8 50 -1
85 3 92 10 9 9 8 12 -5 12 -9 0 -17 6 -17 13 0 9 -3 8 -9 -2 -6 -9 -14 -10
-22 -5 -14 9 -49 13 -129 15 -38 0 -41 2 -20 9 22 7 20 8 -15 8 -22 0 -34 -2
-27 -5 6 -2 12 -12 12 -20 0 -12 -6 -13 -27 -8 -33 9 -56 12 -178 24 l-90 8
70 1 c39 1 84 -2 101 -7 17 -5 37 -5 45 -1 9 6 4 10 -17 15 -16 3 -42 10 -59
14 l-30 9 30 1 c17 1 46 -4 65 -10z"/>
<path d="M2487 584 c7 -3 9 -12 6 -20 -8 -22 27 -55 57 -53 40 2 88 -22 93
-48 2 -13 0 -23 -4 -23 -16 0 -9 -18 9 -23 16 -4 16 -5 -1 -6 -15 -1 -12 -8
16 -36 19 -19 39 -35 46 -35 6 0 11 -3 11 -7 0 -5 12 -17 27 -27 15 -11 23
-14 18 -5 -5 7 -10 21 -10 30 -1 16 0 16 21 1 12 -10 20 -19 18 -21 -8 -9 88
-68 141 -86 18 -7 17 -9 -10 -21 -16 -7 -24 -13 -17 -14 7 0 12 -6 10 -14 -3
-17 1 -18 43 -9 20 4 26 9 18 13 -7 5 4 8 24 7 20 0 32 -4 26 -8 -6 -3 -10
-10 -10 -15 0 -5 -5 -9 -12 -10 -56 -5 -54 -4 -34 -15 10 -6 28 -9 39 -6 11 3
33 -3 50 -13 26 -16 28 -19 12 -23 -11 -2 -2 -3 19 -2 22 2 54 -5 78 -16 22
-11 57 -22 77 -25 60 -8 57 -21 -5 -22 -40 0 -64 5 -76 16 -13 12 -20 13 -29
4 -16 -16 -28 -15 -28 3 0 18 -16 20 -23 2 -4 -8 -8 -9 -14 -2 -7 10 -79 35
-97 35 -4 0 0 -7 9 -16 20 -20 11 -32 -10 -14 -8 7 -15 8 -15 2 0 -5 -6 -12
-14 -15 -9 -4 -13 2 -13 19 0 15 5 24 16 25 10 0 6 4 -9 10 -14 6 -33 8 -42 5
-10 -2 -18 0 -18 6 0 20 -25 0 -26 -21 -1 -20 -28 -50 -46 -51 -4 0 -5 13 -2
29 5 21 2 30 -12 35 -9 4 -20 3 -23 -2 -8 -10 -51 -11 -45 0 3 4 -16 8 -43 9
-26 0 -42 3 -34 6 14 5 -83 36 -156 50 -18 3 -30 9 -27 14 3 5 -2 9 -11 9 -11
0 -15 5 -11 15 4 11 -2 15 -22 15 l-27 0 25 20 c21 17 23 21 10 29 -14 10 -76
7 -130 -5 -38 -8 -12 12 30 24 33 10 34 10 7 11 -16 1 -48 6 -71 12 -24 6 -54
9 -67 7 -19 -4 -14 -7 19 -13 23 -4 45 -12 48 -16 7 -12 -48 -8 -65 5 -10 8
-15 8 -18 -1 -3 -7 -14 -13 -25 -13 -14 0 -18 -5 -14 -15 3 -8 0 -15 -7 -15
-8 0 -6 -4 3 -10 8 -5 11 -10 6 -10 -5 0 4 -10 19 -22 21 -17 31 -19 45 -10
17 10 74 3 99 -12 6 -4 24 1 41 11 25 14 32 15 42 4 10 -11 10 -14 1 -18 -8
-3 3 -19 26 -42 31 -30 51 -40 102 -50 35 -7 91 -19 125 -27 33 -8 71 -14 85
-14 13 -1 35 -7 49 -14 17 -10 30 -11 43 -4 20 10 73 2 83 -13 3 -6 -10 -7
-34 -3 -25 4 -42 2 -47 -5 -5 -9 29 -11 129 -10 111 1 134 4 125 15 -6 7 -24
16 -40 19 -16 4 -29 11 -29 16 0 12 37 12 45 0 3 -5 19 -12 35 -16 17 -4 30
-12 30 -18 0 -9 75 -13 285 -14 186 -2 284 1 280 7 -3 6 1 10 9 10 8 0 18 -4
21 -10 4 -6 52 -10 113 -9 59 0 101 3 95 6 -21 8 -14 25 7 18 11 -4 20 -2 20
4 0 6 -5 11 -12 11 -6 0 -9 2 -6 5 3 3 18 -1 34 -9 34 -18 45 -12 18 9 -18 14
-17 15 11 8 17 -4 46 -7 65 -7 21 0 41 -7 50 -17 19 -22 91 -33 83 -13 -6 16
8 19 23 4 12 -12 69 2 69 17 0 6 3 15 8 19 12 13 8 24 -10 24 -14 0 -15 2 -4
9 7 5 10 14 7 20 -4 6 -2 11 4 11 8 0 8 6 0 20 -6 11 -7 20 -3 20 20 0 30 50
20 96 -11 45 -67 119 -75 96 -1 -5 -13 -8 -25 -5 -21 4 -20 3 3 -12 15 -10 18
-14 7 -11 -10 3 -25 -1 -33 -9 -14 -13 -13 -15 3 -15 16 -1 15 -3 -6 -21 -23
-19 -23 -20 -5 -41 19 -20 19 -21 -4 -14 -35 11 -82 -2 -75 -21 5 -13 2 -15
-15 -11 -12 4 -20 2 -16 -3 3 -5 15 -9 27 -9 30 0 51 -15 42 -30 -5 -8 -23
-11 -52 -7 l-45 5 31 -19 c39 -23 83 -26 75 -4 -8 19 3 19 21 1 17 -16 9 -26
-19 -26 -19 0 -19 0 -1 -14 11 -8 24 -12 30 -9 5 3 4 0 -2 -8 -7 -7 -13 -21
-13 -31 0 -10 -5 -18 -11 -18 -6 0 -8 7 -5 16 5 12 2 15 -10 10 -18 -7 -67 27
-56 39 4 4 -3 4 -16 0 -13 -4 -29 -2 -36 5 -8 6 -19 9 -26 8 -7 -2 -14 2 -17
9 -3 9 5 9 32 2 20 -6 42 -8 48 -5 7 2 4 5 -5 5 -10 1 -18 5 -18 11 0 5 -7 7
-15 4 -8 -4 -22 -3 -32 0 -14 6 -14 9 6 27 12 11 19 24 16 30 -4 5 0 9 7 10 7
0 0 5 -16 11 -22 8 -31 8 -34 0 -2 -6 -10 -8 -18 -5 -9 3 -14 -1 -14 -12 0
-14 -3 -15 -14 -6 -11 9 -15 9 -18 0 -3 -8 -16 -4 -41 12 -20 13 -37 26 -37
29 0 3 12 10 26 17 30 14 57 7 50 -13 -3 -7 0 -16 6 -20 7 -4 8 -3 4 4 -4 7
-2 12 4 12 6 0 8 5 4 11 -4 8 3 9 25 4 21 -4 38 -2 53 9 l22 16 -21 0 c-12 0
-30 3 -40 6 -15 5 -16 4 -3 -6 12 -9 1 -10 -45 -4 -33 4 -67 8 -75 8 -9 1 -20
4 -25 7 -6 3 -21 3 -35 -2 l-25 -7 25 -1 c29 -1 56 -16 44 -24 -5 -3 -37 -5
-71 -4 -35 0 -68 -5 -77 -12 -9 -7 -17 -8 -20 -2 -4 5 -28 7 -55 5 -30 -3 -67
2 -96 11 -26 9 -54 14 -62 11 -9 -4 -22 -1 -29 5 -10 8 -14 8 -14 0 0 -7 -8
-8 -26 0 -15 5 -35 7 -45 4 -12 -4 -19 -1 -19 8 0 9 -12 13 -40 13 -26 -1 -40
-6 -40 -14 0 -10 -9 -12 -32 -7 -39 9 -50 14 -44 23 2 4 -21 8 -51 9 -30 0
-60 6 -66 12 -14 14 -30 14 -25 0 2 -6 7 -10 11 -10 4 1 16 -8 27 -19 18 -18
55 -26 100 -22 14 1 43 -9 84 -30 12 -6 22 -6 29 1 16 16 34 14 41 -5 3 -8 2
-13 -3 -9 -5 3 -20 1 -33 -4 -23 -9 -23 -9 7 -20 17 -6 33 -10 37 -9 4 2 13
-6 21 -16 8 -12 21 -17 30 -13 9 3 28 -3 43 -15 25 -20 26 -22 8 -29 -17 -7
-17 -8 4 -8 15 -1 26 7 32 23 16 42 53 58 151 65 50 4 93 3 95 -1 3 -5 -3 -8
-13 -8 -10 0 -29 -7 -41 -16 -15 -10 -32 -13 -51 -9 -38 8 -121 -13 -121 -32
0 -11 4 -11 20 -3 13 7 20 7 20 0 0 -16 -73 -42 -103 -36 -17 4 -26 2 -22 -4
3 -5 -4 -9 -17 -9 -13 1 -31 -2 -40 -6 -11 -4 -18 -3 -18 4 0 7 7 14 15 16 52
17 50 14 32 32 -11 11 -31 17 -57 16 -23 -1 -38 2 -35 8 10 16 -7 10 -20 -8
-8 -11 -14 -13 -19 -5 -4 7 -2 12 3 12 6 0 11 7 11 16 0 12 -8 14 -45 8 -44
-6 -46 -5 -56 25 -9 26 -14 29 -30 20 -21 -11 -89 -2 -89 12 0 5 9 9 19 9 31
0 34 18 4 22 -16 2 -27 8 -25 15 1 7 -7 13 -18 13 -11 0 -20 5 -20 10 0 6 -15
10 -32 10 -25 0 -29 3 -18 10 12 8 10 10 -10 10 -14 0 -35 3 -48 6 -17 5 -20
9 -11 20 9 11 16 11 40 -1 33 -17 39 -18 39 -6 0 11 -63 36 -115 46 -22 3 -47
13 -55 20 -8 7 -26 16 -40 20 l-25 8 25 -21 c17 -15 20 -21 10 -21 -8 0 -31
13 -50 29 -33 29 -33 30 -15 45 11 8 15 15 8 15 -7 0 -12 5 -10 12 1 7 -13 15
-33 18 l-35 5 23 16 c18 13 20 18 8 22 -8 3 -17 -1 -20 -9 -3 -8 -11 -14 -18
-14 -9 0 -8 3 2 10 12 8 11 10 -7 10 -13 0 -23 5 -23 10 0 6 -13 10 -30 10
-22 0 -28 4 -24 15 5 11 0 15 -17 14 -13 0 -19 -3 -12 -5z"/>
<path d="M2066 513 c-4 -4 -26 -6 -50 -4 -32 2 -45 -2 -49 -14 -5 -12 -10 -13
-25 -4 -21 13 -57 5 -47 -11 7 -11 115 -9 115 3 0 4 20 7 45 7 25 0 45 -4 45
-9 0 -4 19 -13 43 -19 38 -10 35 -10 -41 -8 -71 3 -82 1 -80 -13 2 -13 -7 -17
-44 -19 -27 -2 -48 -7 -48 -12 0 -5 -6 -10 -12 -13 -7 -2 -4 -2 7 0 69 15 106
15 103 2 -2 -11 11 -14 55 -14 31 0 57 -3 57 -7 0 -3 8 -9 18 -11 12 -3 11 -5
-6 -6 -13 0 -21 -5 -18 -9 3 -5 29 -5 58 -2 31 4 56 3 59 -2 4 -6 14 -5 25 2
15 9 26 9 49 -1 41 -16 55 -19 55 -9 0 5 17 7 38 4 l37 -5 -34 15 c-40 19 -55
20 -45 4 5 -8 2 -9 -12 -3 -10 4 -35 11 -54 15 -55 12 -92 29 -85 40 4 6 13 7
23 1 9 -5 40 -11 67 -14 28 -3 64 -8 80 -12 l30 -7 -32 21 c-17 11 -40 20 -50
19 -10 0 -38 7 -62 16 -24 9 -54 16 -67 16 -13 0 -24 5 -24 10 0 15 43 12 78
-6 18 -8 40 -14 50 -11 13 3 10 7 -13 15 -16 7 -38 17 -48 22 -10 6 -22 8 -27
5 -13 -8 -129 15 -136 26 -6 11 -18 12 -28 2z"/>
<path d="M3620 505 c-17 -20 3 -61 40 -80 14 -8 19 -14 12 -15 -24 0 -3 -17
29 -24 20 -4 38 -1 47 6 13 11 15 10 9 -4 -5 -15 1 -19 34 -24 21 -4 42 -11
45 -16 3 -5 11 -5 18 1 7 6 17 6 26 1 8 -6 10 -10 4 -10 -6 0 -11 -7 -11 -15
0 -26 73 -40 115 -22 26 12 28 22 6 31 -13 5 -14 9 -5 20 9 11 7 15 -11 21
-22 7 -21 8 7 12 16 3 31 0 33 -6 2 -6 13 -11 25 -10 21 0 21 1 -3 11 -24 11
-24 12 15 18 l40 6 -42 5 c-23 2 -39 1 -37 -3 10 -17 -36 -7 -48 10 -9 12 -28
18 -59 19 -26 0 -55 6 -66 12 -11 5 -23 7 -27 4 -3 -3 -6 1 -6 9 0 18 -27 32
-35 18 -8 -13 -56 -13 -75 0 -8 5 -11 10 -6 10 17 0 -28 29 -45 30 -9 0 -22
-7 -29 -15z"/>
<path d="M1854 274 c21 -15 49 -26 62 -26 13 0 24 -4 24 -8 0 -5 3 -15 6 -24
5 -12 0 -16 -21 -16 -23 0 -26 2 -15 15 11 13 7 15 -24 15 -21 0 -35 4 -31 9
7 12 -58 43 -82 40 -10 -2 -24 0 -30 4 -8 5 -13 3 -13 -3 0 -15 20 -34 43 -43
10 -4 16 -11 13 -16 -3 -5 5 -16 19 -25 15 -10 26 -12 30 -6 3 6 -1 10 -9 10
-9 0 -16 5 -16 10 0 15 16 12 31 -6 11 -14 11 -18 -4 -29 -16 -11 -13 -13 20
-17 47 -6 63 -1 56 18 -4 11 5 14 41 14 25 0 46 5 46 10 0 6 -9 10 -20 10 -11
0 -20 5 -20 11 0 7 14 8 41 4 30 -5 40 -4 35 4 -4 6 -13 11 -19 10 -21 -4 -67
13 -62 22 3 4 -10 11 -30 15 -19 3 -38 10 -41 15 -3 5 -19 9 -37 9 l-32 0 39
-26z"/>
<path d="M1813 137 c2 -7 17 -12 33 -12 20 0 30 -6 32 -19 3 -14 0 -17 -12
-12 -9 3 -23 9 -33 13 -12 4 -14 3 -8 -6 4 -8 2 -17 -6 -22 -10 -6 -11 -9 -1
-9 20 0 14 -20 -10 -31 -19 -8 -19 -9 -3 -5 11 2 28 7 38 11 13 6 16 3 11 -9
-5 -12 0 -16 17 -17 18 -1 15 -4 -11 -9 -19 -4 103 -8 271 -8 276 1 307 2 305
17 -2 10 -14 17 -32 19 -48 6 -53 22 -6 22 23 0 42 -5 42 -11 0 -5 4 -8 9 -5
5 4 11 1 13 -5 2 -5 11 -7 21 -3 13 5 15 10 7 19 -8 9 -7 14 2 18 7 3 -25 5
-72 4 -118 -2 -138 2 -133 28 4 18 3 18 -7 3 -8 -13 -22 -16 -63 -14 -73 5
-137 17 -137 26 0 13 -54 19 -74 8 -15 -8 -22 -7 -33 8 -11 16 -18 17 -54 7
-23 -6 -55 -7 -75 -3 -25 6 -34 5 -31 -3z"/>
</g>
</svg>
