<?xml version="1.0" standalone="no"?>
<!DOCTYPE svg PUBLIC "-//W3C//DTD SVG 20010904//EN"
 "http://www.w3.org/TR/2001/REC-SVG-20010904/DTD/svg10.dtd">
<svg version="1.0" xmlns="http://www.w3.org/2000/svg"
 width="1182.000000pt" height="664.000000pt" viewBox="0 0 1182.000000 664.000000"
 preserveAspectRatio="xMidYMid meet">
<metadata>
Created by potrace 1.13, written by Peter Selinger 2001-2015
</metadata>
<g transform="translate(0.000000,664.000000) scale(0.100000,-0.100000)"
fill="#000000" stroke="none">
<path d="M0 4727 l0 -1913 42 -11 c24 -7 70 -11 103 -10 33 2 65 0 70 -4 6 -4
59 -9 118 -11 105 -3 108 -2 103 18 -7 27 28 44 88 44 39 0 45 3 56 30 19 45
35 55 68 41 16 -7 41 -9 55 -5 23 5 27 11 27 44 0 22 5 42 10 45 6 3 10 1 10
-4 0 -6 9 -11 19 -11 24 0 63 52 55 73 -10 26 45 54 96 49 37 -3 43 -2 33 9
-7 7 -13 25 -13 40 0 58 24 77 48 39 10 -17 42 -29 42 -16 0 17 -34 78 -45 83
-20 7 -20 69 0 77 8 3 29 3 46 -1 32 -6 59 14 37 28 -15 9 -3 35 22 49 16 9
22 8 26 -5 4 -9 2 -26 -4 -38 -6 -12 -15 -49 -21 -82 -7 -38 -18 -66 -31 -77
-24 -20 -26 -34 -4 -42 23 -9 47 20 40 49 -6 22 -2 25 34 35 22 6 40 15 40 20
0 5 12 13 26 16 18 5 22 9 13 15 -17 10 1 33 42 49 22 10 36 10 54 2 26 -12
31 -7 17 16 -5 7 -16 10 -25 6 -9 -3 -17 -3 -17 1 0 10 43 44 58 45 6 0 12 5
12 11 0 8 5 8 15 -1 13 -11 15 -7 15 27 0 34 6 44 38 70 20 16 47 35 60 42 43
23 26 49 -50 75 -29 9 -21 22 21 36 49 16 61 8 61 -39 0 -22 6 -44 15 -51 8
-7 15 -22 15 -33 0 -15 3 -18 10 -11 7 7 8 19 1 37 -8 21 -7 35 6 62 16 34 16
35 -9 58 -17 16 -31 21 -40 16 -9 -5 -22 -3 -33 5 -18 13 -18 15 -2 30 18 18
37 14 37 -8 0 -8 12 -11 35 -8 19 2 35 0 35 -5 0 -18 87 -13 112 6 23 19 24
18 53 -5 27 -21 55 -31 55 -20 0 3 -5 17 -12 33 -13 33 -12 47 8 91 16 34 11
66 -12 90 -22 21 -17 39 21 68 42 31 44 44 9 44 -15 0 -23 4 -19 11 8 12 57 9
66 -4 4 -5 16 -4 28 2 12 7 26 9 31 6 6 -3 10 -1 10 4 0 6 -7 11 -16 11 -11 0
-14 8 -12 33 3 29 6 32 33 30 30 -2 30 -2 29 45 -1 26 -3 49 -4 52 -1 3 -2 8
-1 12 0 4 -14 17 -32 29 -17 12 -26 16 -19 9 11 -13 17 -50 8 -50 -2 0 -17 7
-32 15 -33 17 -64 20 -64 5 0 -5 9 -10 19 -10 20 0 35 -25 25 -41 -3 -5 -22
-9 -42 -9 -29 0 -34 -3 -22 -11 11 -8 8 -9 -13 -4 -18 4 -26 2 -22 -4 3 -6 -6
-13 -20 -17 -14 -3 -36 -19 -49 -35 -13 -15 -27 -25 -30 -22 -3 4 -6 -1 -6
-11 0 -14 -4 -15 -20 -6 -24 13 -28 60 -5 60 20 0 19 10 -2 26 -17 12 -16 13
5 14 12 0 22 4 22 8 0 5 10 14 23 19 21 10 20 11 -15 18 -37 7 -47 18 -29 29
5 4 12 0 14 -6 3 -7 6 1 6 18 1 16 -4 35 -10 41 -7 7 -4 12 10 16 15 3 21 0
21 -10 0 -13 3 -13 16 -2 14 12 14 14 0 25 -32 23 -18 34 40 29 51 -4 55 -3
38 10 -12 9 -14 14 -6 15 7 0 11 4 8 9 -3 4 -17 6 -31 3 -15 -2 -25 0 -25 7 0
6 9 11 21 11 11 0 17 5 14 10 -4 6 -11 8 -16 5 -5 -4 -9 11 -9 32 0 28 -3 34
-10 23 -5 -8 -10 -11 -10 -6 0 5 -6 4 -13 -3 -10 -8 -17 -7 -25 1 -19 19 -14
29 13 22 20 -5 25 -2 25 14 0 11 -6 25 -14 31 -12 10 -15 8 -19 -11 l-4 -23
-2 23 c0 12 -7 22 -13 22 -15 0 -20 121 -6 131 14 9 129 3 136 -8 9 -13 50
-23 54 -12 4 13 78 -10 84 -25 3 -8 17 -13 32 -13 14 0 28 -6 30 -12 4 -13
252 -16 252 -2 0 11 80 19 86 9 3 -5 10 -6 15 -3 5 4 9 2 9 -4 0 -16 53 -18
83 -3 20 9 32 10 41 3 6 -6 30 -9 51 -7 22 2 47 4 55 5 13 1 13 2 0 11 -10 7
9 10 63 10 45 0 77 -4 77 -10 0 -14 68 -12 77 3 10 15 22 17 146 22 79 4 97 2
97 -9 0 -8 7 -13 18 -10 9 2 55 6 102 8 114 6 194 17 201 28 3 5 17 4 33 -2
15 -5 49 -10 75 -10 27 0 63 -8 86 -20 22 -11 45 -20 51 -20 7 0 20 -7 29 -16
8 -9 22 -13 30 -10 8 3 15 2 15 -3 0 -5 36 -8 80 -8 44 0 80 3 80 7 0 8 54 -2
109 -19 19 -6 39 -8 45 -4 6 3 8 3 4 -2 -15 -16 15 -35 56 -36 l41 -2 -40 -7
-40 -7 43 -2 c50 -1 75 -13 117 -53 16 -16 40 -31 52 -34 13 -4 23 -9 23 -13
0 -4 29 -18 65 -30 53 -19 65 -27 65 -45 0 -17 -2 -18 -10 -6 -8 12 -10 11
-10 -7 0 -14 -10 -27 -27 -35 -40 -19 -47 -67 -24 -175 11 -48 19 -81 20 -72
1 9 8 22 16 29 13 11 15 4 15 -53 0 -64 1 -66 29 -72 16 -3 35 -13 42 -21 10
-13 8 -13 -16 -4 -39 15 -59 6 -45 -19 5 -11 10 -30 10 -43 0 -13 6 -30 13
-37 10 -11 10 -13 0 -7 -17 10 -16 0 3 -29 9 -13 13 -29 10 -34 -4 -5 -2 -12
4 -16 5 -3 10 2 10 12 0 15 2 16 10 3 5 -8 10 -25 10 -36 0 -12 7 -24 15 -28
11 -4 15 1 15 19 0 51 34 39 59 -22 8 -19 21 -33 30 -33 18 0 51 -48 51 -73 0
-9 5 -17 12 -19 6 -2 12 -12 14 -21 1 -12 -5 -17 -22 -17 -20 0 -24 5 -24 32
0 37 -9 33 -12 -5 -2 -22 -7 -27 -30 -27 -15 0 -30 -5 -34 -12 -5 -8 0 -9 14
-6 12 4 20 3 17 -2 -2 -4 40 -7 95 -6 55 1 100 4 100 8 0 3 16 15 36 27 35 21
65 27 63 14 -3 -21 3 -32 21 -38 11 -3 20 -13 20 -21 0 -8 7 -28 15 -44 15
-30 15 -30 -12 -30 -16 1 -64 7 -108 15 -44 8 -89 14 -100 14 -29 -2 121 -37
188 -45 31 -4 60 -11 63 -15 12 -20 -148 -7 -229 17 -9 3 -17 1 -17 -4 0 -5
17 -12 38 -16 85 -14 161 -31 168 -38 12 -13 -87 -8 -148 6 -32 8 -58 11 -58
7 0 -8 133 -41 163 -41 9 0 17 -5 17 -11 0 -11 -86 -8 -155 6 -16 3 -3 -3 30
-15 33 -11 70 -20 83 -20 15 0 21 -4 16 -11 -4 -8 -26 -10 -63 -6 -52 5 -54 5
-31 -8 14 -8 33 -14 43 -15 10 0 15 -4 12 -10 -8 -13 -58 -13 -72 1 -7 7 -20
6 -44 -5 -19 -8 -28 -15 -21 -15 7 -1 23 4 34 10 12 7 23 7 27 2 3 -5 14 -12
23 -16 11 -4 15 -12 12 -22 -7 -18 7 -20 24 -3 7 7 12 9 12 5 0 -5 -12 -19
-27 -33 l-28 -25 30 14 c17 9 57 15 92 14 l62 0 -21 -31 c-12 -17 -30 -39 -40
-49 -19 -19 -25 -57 -8 -57 6 0 10 7 10 15 0 8 7 15 15 15 7 0 18 7 23 16 10
19 82 31 82 14 0 -6 -10 -15 -22 -20 -20 -7 -18 -9 16 -9 33 -1 37 -3 26 -16
-11 -13 -8 -15 14 -15 36 0 33 -13 -6 -28 -25 -9 -30 -15 -19 -21 9 -6 21 -5
32 2 27 17 37 -1 11 -19 -27 -19 -29 -38 -3 -29 23 7 58 -6 90 -34 17 -15 20
-22 10 -25 -8 -2 -39 -12 -69 -22 -30 -10 -60 -17 -67 -16 -6 1 -14 -2 -18 -8
-3 -5 -14 -10 -24 -10 -10 0 -24 -6 -30 -14 -8 -10 17 -5 83 14 97 28 115 28
93 2 -8 -11 -9 -16 -1 -19 6 -2 19 -10 30 -17 16 -13 12 -15 -44 -31 -84 -24
-72 -30 19 -10 86 17 102 19 94 6 -3 -5 8 -18 24 -27 33 -20 32 -35 -2 -32
-12 1 -38 -5 -57 -14 -19 -9 -50 -21 -68 -28 -53 -21 -31 -20 48 0 97 25 121
24 45 -2 -82 -29 -54 -34 35 -7 39 12 73 19 76 16 3 -3 -79 -33 -183 -67 -103
-34 -195 -66 -203 -72 -11 -6 -8 -7 9 -2 56 15 155 45 271 81 141 45 193 58
170 44 -8 -5 -92 -34 -185 -65 -216 -70 -237 -77 -232 -83 5 -4 119 29 320 92
65 20 120 35 123 33 2 -3 -96 -37 -218 -78 -122 -40 -240 -81 -263 -92 -22
-10 -32 -16 -21 -13 61 18 390 120 440 136 32 11 63 18 68 17 5 -2 -98 -39
-229 -82 -260 -87 -308 -105 -300 -112 3 -3 16 0 28 7 13 6 44 18 69 24 25 7
86 25 135 39 189 56 161 39 -59 -35 -87 -29 -154 -55 -148 -57 6 -2 60 12 119
32 133 43 153 49 153 43 0 -3 -71 -31 -157 -62 -87 -32 -162 -62 -167 -66 -12
-11 192 56 283 92 40 17 75 28 77 26 5 -5 -166 -77 -255 -108 -35 -13 -59 -25
-52 -27 7 -2 29 3 49 12 21 8 56 20 79 26 24 6 72 24 109 40 65 30 124 39 124
20 0 -15 -47 -42 -67 -38 -9 2 -26 -6 -38 -17 -12 -11 -30 -25 -41 -32 -15 -9
-11 -10 19 -2 66 18 76 6 20 -23 -29 -14 -49 -28 -46 -32 6 -6 -15 -10 -44 -9
-7 1 -13 -3 -13 -8 0 -5 -9 -9 -20 -9 -11 0 -20 -5 -20 -11 0 -6 16 -10 38 -8
51 3 62 1 62 -12 0 -7 -9 -9 -22 -6 -13 4 -26 0 -32 -8 -6 -8 -51 -30 -100
-48 -50 -20 -83 -37 -77 -42 7 -3 17 -2 24 3 22 18 194 72 223 71 27 -2 27 -2
4 -6 -48 -8 -56 -13 -40 -24 10 -6 4 -7 -20 -4 -26 4 -30 3 -15 -4 21 -9 21
-10 -31 -26 -8 -3 -13 -9 -10 -14 4 -5 23 -5 46 1 71 18 69 -19 -1 -42 -71
-23 -90 -55 -25 -43 35 7 36 8 -24 -43 -25 -20 -36 -34 -25 -29 49 19 65 18
65 -4 0 -13 -10 -26 -25 -33 -26 -12 -36 -34 -10 -24 8 3 22 9 30 12 10 4 15
0 15 -14 0 -12 -9 -23 -20 -27 -11 -3 -20 -11 -20 -16 0 -5 -10 -9 -22 -9 -32
0 -50 -14 -43 -32 6 -14 -35 -32 -89 -40 -36 -5 -26 -23 14 -26 22 -1 50 -7
62 -12 22 -10 21 -10 -4 -5 -16 3 -32 -1 -42 -10 -8 -8 -19 -15 -24 -15 -6 0
-13 -7 -16 -16 -5 -13 -2 -15 16 -10 51 16 93 25 97 21 10 -10 -65 -31 -153
-42 -47 -6 -48 -6 -35 15 9 14 25 22 44 23 20 1 23 3 10 6 -40 9 -46 13 -38
25 11 19 12 37 2 44 -5 3 -9 1 -9 -5 0 -5 -35 -18 -77 -28 -43 -10 -86 -26
-96 -36 -10 -10 -22 -15 -27 -12 -6 4 -10 1 -10 -4 0 -14 11 -14 88 3 34 7 59
10 55 6 -11 -10 -107 -41 -133 -43 -13 -1 -19 -7 -17 -17 2 -10 13 -14 32 -13
l29 2 -34 -21 c-19 -12 -42 -23 -50 -24 -8 -2 -33 -8 -55 -13 -37 -10 -35 -10
19 -5 32 3 87 17 123 30 36 14 67 23 70 21 2 -2 -30 -17 -72 -33 -41 -16 -75
-32 -75 -35 0 -4 -23 -10 -50 -14 -28 -4 -50 -10 -50 -13 0 -9 106 -7 145 2
24 6 23 4 -10 -12 -22 -10 -55 -18 -73 -17 -36 2 -43 -10 -10 -18 25 -7 21
-16 -12 -22 -36 -7 -37 -15 -2 -15 17 0 46 9 64 20 35 21 74 27 63 10 -3 -6 1
-13 9 -16 9 -3 16 -12 16 -20 0 -8 5 -14 10 -14 6 0 10 -4 10 -10 0 -5 -7 -10
-15 -10 -8 0 -15 -4 -15 -10 0 -5 4 -10 8 -10 4 0 6 -16 4 -36 -4 -29 -2 -35
9 -28 12 6 12 5 1 -8 -8 -9 -21 -19 -30 -21 -9 -2 6 -2 33 -1 l50 4 -40 -14
c-22 -8 -50 -15 -63 -15 -14 -1 -26 -10 -32 -26 -12 -31 -30 -33 -30 -2 0 16
9 27 28 35 l27 11 -32 -3 c-40 -3 -43 9 -6 22 16 6 21 11 11 11 -38 2 -48 -10
-48 -60 0 -32 4 -49 13 -50 6 0 20 -3 29 -5 10 -3 31 -7 48 -11 39 -7 48 -21
10 -15 -22 3 -29 -1 -35 -17 -4 -14 -15 -21 -31 -21 -31 0 -40 -22 -21 -52 13
-21 34 -119 23 -108 -6 7 -64 161 -72 193 -3 15 -10 30 -15 33 -5 3 -9 16 -9
30 0 31 -14 31 -28 0 -7 -16 -19 -24 -32 -23 -25 2 -27 27 -2 27 28 0 34 11
14 26 -22 17 -43 18 -36 1 2 -7 -7 -24 -21 -37 -34 -32 -32 -40 10 -33 31 5
35 3 35 -16 0 -18 -4 -21 -19 -16 -17 5 -22 -1 -33 -37 -7 -24 -11 -53 -10
-65 2 -16 -3 -23 -14 -23 -10 0 -14 -3 -11 -6 8 -8 -20 -58 -50 -91 -15 -17
-23 -20 -26 -11 -4 10 -8 10 -16 -2 -6 -8 -11 -10 -11 -5 -1 16 -29 -38 -30
-56 0 -9 -13 -42 -29 -73 -16 -32 -26 -66 -24 -77 6 -21 -7 -25 -23 -9 -6 6
-27 12 -46 14 -20 2 -42 7 -50 11 -14 9 28 -42 50 -60 7 -6 13 -15 12 -20 -5
-21 1 -29 10 -15 7 12 12 12 28 -4 11 -9 23 -30 27 -44 3 -15 8 -35 11 -44 4
-13 1 -16 -11 -12 -9 4 -14 9 -11 12 3 2 1 13 -5 23 -8 16 -22 19 -87 19 -63
1 -73 3 -57 12 11 6 38 11 60 10 28 -2 36 0 25 7 -8 5 -19 7 -25 4 -5 -4 -7
-2 -2 2 4 5 -1 17 -10 28 -10 10 -17 22 -15 26 2 3 -7 9 -20 12 -13 3 -22 11
-21 17 2 6 -4 9 -12 5 -13 -4 -12 -9 6 -24 12 -11 19 -22 15 -26 -3 -4 -12 0
-19 9 -17 22 -48 31 -40 13 3 -8 9 -12 14 -9 5 3 9 0 9 -5 0 -16 -19 -13 -36
4 -9 8 -20 15 -27 15 -6 0 -3 -6 7 -13 18 -13 18 -14 1 -21 -10 -4 -21 -3 -24
2 -3 5 -14 11 -24 15 -15 5 -17 3 -12 -12 4 -15 0 -19 -22 -19 -16 0 -31 5
-35 12 -6 8 -8 7 -8 -1 0 -7 -11 -13 -24 -13 -15 0 -26 -7 -29 -20 -3 -11 -1
-20 5 -20 5 0 6 -4 3 -10 -9 -15 -25 -12 -25 5 0 18 -4 18 -47 6 -20 -6 -35
-6 -38 0 -4 5 1 9 9 9 9 0 16 5 16 10 0 6 -7 10 -15 10 -8 0 -15 5 -15 11 0 7
10 9 24 5 14 -3 28 -2 31 4 3 5 16 10 28 11 21 0 21 1 -2 10 -16 6 -35 6 -54
-1 -17 -5 -31 -10 -32 -10 -2 0 -6 11 -9 25 -7 26 -17 29 -51 16 -12 -5 -25
-3 -34 6 -10 11 -16 12 -21 2 -6 -8 -18 -9 -46 -1 l-39 10 33 1 c20 1 31 5 27
11 -4 6 -18 9 -32 8 -20 -2 -26 2 -29 20 -4 20 -2 21 16 12 14 -7 20 -7 20 0
0 5 -6 11 -12 11 -7 1 -20 3 -28 4 -8 1 -21 3 -28 4 -7 0 -10 6 -6 12 3 6 17
8 31 4 17 -4 23 -2 18 6 -4 6 -18 9 -31 6 -13 -2 -25 0 -27 6 -2 6 -17 5 -41
-3 -37 -12 -73 -10 -110 5 -14 6 -17 5 -12 -3 4 -8 -2 -16 -16 -21 -13 -6 -17
-10 -9 -10 8 -1 12 -4 9 -7 -5 -5 -55 6 -106 23 -27 8 69 -56 108 -73 28 -12
32 -17 20 -25 -12 -8 -9 -10 13 -6 15 2 27 0 27 -5 0 -6 7 -7 16 -4 9 4 13 2
8 -5 -4 -8 1 -9 17 -4 16 4 20 3 11 -3 -8 -5 -13 -12 -13 -16 2 -15 47 -51 61
-47 8 1 12 0 8 -5 -9 -8 32 -40 45 -36 5 1 20 -6 35 -16 15 -11 37 -23 50 -26
27 -9 29 -26 2 -26 -11 0 -20 4 -20 9 0 5 -10 7 -22 3 -14 -3 -19 -2 -14 6 8
14 9 14 -69 17 -65 2 -105 11 -105 25 0 8 -90 4 -117 -5 -8 -3 -11 -15 -7 -35
5 -25 3 -30 -12 -30 -16 0 -17 2 -4 10 12 8 9 10 -12 10 -16 0 -28 5 -28 11 0
7 10 9 28 5 22 -5 24 -4 10 4 -17 10 -17 12 1 32 16 16 27 19 55 14 30 -6 34
-4 29 13 -5 21 23 36 51 25 9 -3 16 -1 16 5 0 17 -28 25 -44 12 -7 -6 -21 -9
-30 -5 -12 4 -16 0 -16 -15 0 -14 -5 -19 -15 -15 -8 3 -13 11 -12 17 1 7 -8
12 -20 12 -12 0 -33 10 -46 22 -14 12 -30 17 -37 13 -8 -5 -7 -9 5 -14 9 -3
13 -10 10 -16 -4 -7 -12 -7 -24 0 -10 5 -20 8 -22 6 -2 -2 -16 -6 -31 -10 -21
-5 -28 -3 -28 9 0 8 -7 15 -16 15 -14 0 -14 3 -4 15 10 12 10 15 -4 15 -9 0
-16 -4 -16 -10 0 -20 -21 -10 -32 15 -7 15 -17 24 -25 21 -7 -3 -13 -1 -13 5
0 12 78 2 95 -12 6 -4 31 -11 55 -14 38 -5 41 -4 23 6 -12 6 -23 20 -26 30 -3
13 -14 19 -31 19 -14 0 -26 5 -26 10 0 6 8 10 18 10 10 0 13 3 6 8 -6 4 -10
17 -9 30 1 13 -2 25 -7 28 -4 3 -6 10 -3 15 4 5 2 9 -4 9 -5 0 -13 -5 -16 -10
-3 -6 -18 -7 -32 -4 -18 5 -24 3 -19 -5 4 -6 2 -11 -3 -11 -6 0 -11 -4 -11
-10 0 -5 3 -9 8 -9 23 4 52 -2 52 -11 0 -15 -52 -11 -74 5 -11 8 -30 15 -43
15 -13 0 -31 8 -40 17 -10 10 -24 18 -30 18 -7 0 -13 4 -12 9 0 5 -5 13 -13
17 -9 6 -3 9 17 10 17 0 23 3 15 6 -8 4 -21 12 -29 20 -16 16 -53 14 -59 -4
-2 -7 9 -26 25 -41 37 -38 32 -77 -7 -52 -12 8 -12 10 5 10 20 1 20 1 1 15
-11 8 -31 15 -45 15 l-26 1 25 14 c14 8 19 14 12 15 -8 0 -27 -8 -43 -17 -21
-13 -32 -14 -40 -6 -8 8 -5 13 10 18 26 8 28 25 3 25 -10 0 -22 3 -26 7 -4 5
-22 9 -39 9 -18 1 -57 3 -87 4 -30 1 -62 0 -70 -4 -8 -3 -35 -5 -60 -5 -65 0
-131 -12 -124 -22 3 -5 -7 -9 -23 -8 -15 0 -22 3 -15 6 6 2 10 9 6 14 -3 5 2
9 10 9 9 0 16 3 16 8 0 4 17 7 37 8 21 1 58 4 83 8 25 5 77 9 115 10 39 1 75
5 80 8 17 9 122 -7 139 -22 15 -11 19 -11 34 4 15 15 15 16 1 11 -9 -4 -19 0
-22 8 -4 10 3 12 24 9 16 -2 27 -8 24 -12 -7 -11 40 -20 99 -19 45 1 48 3 31
15 -22 17 -32 17 -40 4 -3 -5 -15 -10 -26 -10 -18 0 -18 2 6 28 20 21 22 28
10 30 -8 2 -15 7 -15 10 0 4 -12 8 -27 8 -16 1 -41 5 -58 9 -16 4 -54 9 -82
12 -47 4 -53 3 -53 -14 0 -11 -3 -14 -8 -7 -7 12 -74 11 -124 -1 -19 -5 -28
-3 -28 4 0 8 -5 9 -19 1 -25 -13 -34 -13 -26 0 3 6 -1 10 -9 10 -9 0 -16 -4
-16 -10 0 -5 -5 -10 -11 -10 -5 0 -7 4 -4 10 3 5 -1 10 -9 10 -8 0 -19 -7 -24
-16 -5 -9 -15 -14 -21 -10 -6 4 -8 12 -5 18 5 8 -3 9 -25 5 -20 -4 -30 -3 -26
3 3 6 2 10 -4 10 -5 0 -11 -5 -13 -10 -2 -6 -19 -10 -38 -10 -59 0 -64 0 -105
-5 -88 -10 -190 -27 -202 -33 -8 -5 -9 -12 -3 -22 7 -11 12 -12 18 -3 5 8 15
4 34 -12 15 -13 24 -26 21 -29 -4 -3 14 -6 40 -6 25 0 52 -3 61 -6 9 -3 16 -1
16 5 0 6 -20 11 -47 11 -42 1 -45 2 -28 12 25 15 58 16 67 3 4 -5 29 -9 55 -8
41 1 44 0 17 -7 -60 -14 -68 -19 -54 -35 7 -9 11 -18 8 -20 -9 -9 -38 7 -32
16 3 6 -20 9 -55 8 -37 -1 -66 3 -76 11 -11 9 -15 10 -15 0 0 -6 9 -14 20 -17
11 -3 17 -9 15 -14 -3 -4 -19 -3 -36 3 -24 8 -28 14 -23 32 6 20 5 20 -15 -3
-11 -13 -18 -28 -14 -34 3 -5 1 -7 -4 -4 -13 8 -26 -20 -17 -35 4 -6 -2 -8
-12 -6 -20 3 -26 28 -11 39 16 11 -3 29 -29 29 -14 0 -23 -4 -19 -9 9 -16 -35
-24 -52 -9 -9 7 -14 8 -10 2 4 -7 -2 -14 -13 -17 -11 -3 -20 -1 -20 3 0 17
-40 21 -63 5 -27 -17 -77 -17 -77 2 0 14 -67 7 -87 -10 -9 -6 -14 -5 -18 4 -3
9 -24 15 -60 16 -59 2 -65 -2 -37 -23 15 -12 15 -13 1 -14 -9 0 -22 7 -29 15
-7 8 -23 15 -37 15 -15 0 -22 4 -17 11 8 13 -33 3 -53 -13 -7 -6 -19 -6 -31 1
-11 6 -21 9 -23 7 -2 -2 -18 -6 -35 -9 -26 -5 -31 -3 -30 11 1 11 -9 18 -29
22 -30 6 -30 6 -5 13 21 6 22 9 10 17 -12 8 -11 10 6 10 11 0 24 -3 28 -7 4
-4 30 -9 59 -10 29 -2 64 -9 79 -15 15 -5 34 -8 41 -5 8 3 20 2 27 -3 7 -4 29
-2 49 5 55 19 147 29 239 26 45 -2 82 -1 82 2 0 12 -120 46 -154 43 -21 -2
-54 1 -72 7 -25 8 -38 7 -46 -1 -9 -9 -9 -12 0 -12 7 0 12 -7 12 -15 0 -17
-25 -20 -35 -5 -3 6 -21 10 -38 9 -27 0 -29 -2 -12 -9 16 -7 17 -9 3 -9 -9 -1
-23 -3 -31 -7 -10 -4 -14 2 -13 22 0 15 -5 29 -11 31 -7 3 -13 1 -13 -4 0 -4
-51 -6 -112 -4 -62 2 -141 4 -174 4 -45 1 -60 5 -57 14 3 8 -4 13 -18 14 -23
0 -23 1 -4 9 12 4 57 4 100 -1 85 -8 180 -10 135 -2 -14 3 -31 9 -37 15 -7 6
-19 8 -27 5 -13 -5 -25 10 -32 41 -1 8 18 12 69 14 40 0 57 3 40 5 -35 5 -46
23 -14 23 11 0 22 4 25 9 8 12 57 1 63 -15 7 -19 59 -18 67 1 3 8 16 15 28 16
23 0 23 0 -2 10 -18 7 -21 12 -11 18 10 7 9 9 -3 14 -9 4 -16 11 -16 18 0 6 7
9 15 5 8 -3 15 -1 15 4 0 5 -20 9 -44 8 -50 -1 -55 -22 -7 -33 38 -8 40 -45 3
-45 -26 1 -26 1 -8 15 14 11 16 15 5 15 -8 0 -25 3 -38 7 -17 4 -22 3 -17 -5
10 -17 -15 -14 -39 4 -15 11 -34 13 -77 8 -36 -4 -58 -3 -58 3 0 6 33 14 73
18 39 5 63 10 52 13 -11 2 -24 8 -29 13 -14 12 -79 12 -71 -1 4 -6 -6 -10 -22
-10 -25 1 -26 2 -11 14 23 17 23 29 0 17 -19 -10 -69 -4 -78 10 -3 5 -16 9
-30 9 -21 0 -23 2 -12 14 8 9 17 11 22 5 6 -5 17 -9 25 -9 22 0 -19 29 -42 30
-11 0 -15 5 -11 11 4 8 0 9 -15 4 -12 -4 -21 -2 -21 4 0 6 17 11 37 11 20 0
33 -3 30 -6 -4 -4 9 -15 28 -25 39 -21 49 -23 41 -10 -4 5 12 7 36 4 32 -3 39
-2 28 6 -13 10 -13 11 0 11 24 0 83 -19 89 -29 3 -5 20 -11 38 -14 17 -3 35
-7 40 -10 10 -6 50 22 43 30 -3 4 10 8 29 11 18 2 31 -1 27 -6 -3 -5 24 -12
60 -15 36 -4 70 -10 77 -14 18 -11 37 -12 37 -3 0 11 -29 40 -41 40 -5 0 -9 5
-9 10 0 10 57 7 140 -5 l35 -6 -40 16 c-22 8 -46 13 -53 10 -7 -2 -26 -2 -42
2 -22 4 -28 9 -20 18 7 8 5 12 -5 12 -8 0 -15 -4 -15 -9 0 -4 -18 -8 -40 -8
-22 0 -40 -4 -40 -10 0 -5 -14 -10 -32 -10 -30 0 -30 1 -14 19 17 18 16 19 -2
25 -11 4 -32 4 -46 0 -16 -4 -26 -2 -26 5 0 6 9 11 19 11 11 0 23 5 26 10 3 6
21 10 38 11 27 0 29 2 12 9 -31 14 -55 11 -55 -5 0 -10 -10 -15 -32 -15 l-33
1 25 14 c18 10 20 14 8 15 -27 0 -48 -11 -48 -26 0 -9 -11 -14 -30 -14 -35 0
-41 19 -7 21 15 1 11 4 -13 9 -19 5 -38 6 -42 4 -5 -3 -8 0 -8 5 0 6 -7 11
-15 11 -9 0 -12 -6 -9 -15 4 -10 0 -15 -15 -15 -24 0 -27 10 -9 28 9 9 8 12
-8 13 -12 1 -8 4 11 9 l30 8 -32 1 c-20 1 -35 -5 -41 -15 -9 -17 -21 -16 -95
2 -22 5 -26 4 -21 -10 9 -24 -18 -20 -51 8 l-29 25 -17 -21 c-17 -19 -39 -18
-39 3 0 6 5 7 12 3 7 -4 8 -3 4 4 -9 15 -36 16 -36 2 0 -5 -9 -10 -20 -10 -11
0 -20 5 -20 10 0 6 -18 10 -42 9 -25 -1 -57 5 -75 15 -28 14 -54 16 -175 11
-159 -6 -215 -12 -224 -26 -3 -5 -13 -9 -22 -9 -14 0 -14 2 -3 9 10 6 3 9 -21
8 -27 -1 -33 -4 -24 -13 7 -6 22 -15 34 -18 12 -4 22 -12 22 -17 0 -12 -13
-12 -26 1 -6 6 -18 8 -27 4 -14 -5 -17 -22 -17 -109 l0 -103 37 -7 c21 -4 57
-7 81 -8 27 -1 41 -6 38 -14 -3 -6 10 -14 30 -17 19 -4 34 -12 34 -18 0 -6
-12 -8 -31 -4 -17 3 -48 6 -68 7 -27 0 -31 2 -17 8 18 7 18 8 2 14 -9 4 -25 1
-36 -5 -10 -7 -23 -9 -27 -5 -4 5 -1 12 7 17 11 7 6 10 -17 10 -29 0 -33 -3
-33 -25 0 -22 5 -25 33 -25 22 0 28 -3 18 -9 -7 -5 -22 -6 -32 -4 -16 4 -19 0
-19 -26 0 -26 4 -31 25 -31 25 0 30 -10 26 -52 -2 -12 8 -19 31 -23 19 -4 38
-6 43 -5 21 5 55 0 55 -8 0 -4 -40 -7 -90 -6 -87 1 -90 0 -90 -22 0 -12 6 -25
13 -27 9 -4 9 -6 0 -6 -9 -1 -13 -23 -13 -76 l0 -75 78 -2 c126 -3 138 -4 149
-11 6 -4 19 -4 29 0 14 5 16 3 11 -11 -4 -9 -3 -15 1 -12 4 2 16 -2 27 -10 18
-13 18 -14 -6 -13 -34 2 -87 16 -69 19 26 4 -52 18 -137 25 l-83 7 0 -31 c0
-24 4 -31 19 -31 24 0 36 -16 20 -26 -17 -10 29 -33 68 -34 25 0 31 -4 27 -15
-4 -10 0 -15 11 -15 10 0 13 -4 9 -12 -5 -8 -1 -7 10 1 13 11 41 14 104 13 88
-2 96 8 19 22 -29 5 -37 11 -33 22 5 12 -1 15 -29 12 -44 -4 -49 -21 -9 -29
26 -6 24 -7 -13 -8 -24 0 -43 4 -43 9 0 6 -15 11 -32 11 -20 1 -25 3 -13 6 11
2 30 6 43 9 13 2 21 8 18 13 -3 4 37 7 89 7 91 -1 118 5 75 19 -11 3 -20 10
-20 15 0 11 -55 66 -74 73 -8 3 -16 1 -18 -4 -4 -12 -58 9 -58 23 0 4 13 8 29
8 24 0 28 4 24 19 -3 11 -12 22 -20 25 -7 3 -12 2 -9 -3 3 -5 -17 -8 -44 -8
-27 1 -50 6 -50 11 0 5 -21 6 -46 3 -29 -3 -42 -1 -36 5 5 5 39 10 76 11 44 1
63 4 56 11 -6 6 -29 10 -53 9 l-42 -1 45 8 c37 7 50 5 72 -11 15 -10 41 -19
58 -19 22 0 30 -5 30 -18 0 -16 9 -18 66 -19 41 0 61 3 53 8 -11 7 -10 9 4 9
20 0 23 -26 3 -33 -7 -3 -32 -3 -55 0 -28 4 -41 2 -41 -6 0 -8 8 -10 20 -6 39
12 154 -38 133 -59 -3 -3 1 -6 10 -6 14 0 15 -4 6 -27 -5 -16 -20 -36 -32 -46
l-22 -19 35 8 c19 4 49 7 65 8 29 1 30 -1 30 -41 1 -33 8 -50 30 -73 16 -16
34 -30 40 -30 6 0 18 -11 25 -25 7 -14 20 -25 29 -25 14 0 80 -88 81 -107 1
-5 21 -23 45 -41 25 -18 53 -49 63 -70 10 -20 24 -36 30 -34 7 1 17 -10 22
-24 6 -14 19 -28 30 -31 11 -3 19 -10 18 -17 -4 -19 34 -66 53 -66 11 0 23 -8
27 -17 7 -18 14 -20 82 -29 31 -5 33 -4 18 9 -26 21 -22 28 7 15 14 -6 25 -15
25 -20 0 -5 176 -6 393 -4 509 6 476 5 454 21 -12 8 -32 11 -55 8 -25 -4 -34
-2 -27 5 14 14 102 25 109 13 4 -5 -3 -7 -16 -4 -22 6 -22 5 3 -15 15 -12 39
-21 55 -21 16 0 71 -3 123 -6 52 -3 91 -2 88 2 -4 4 -25 8 -46 9 -50 3 -82 20
-74 40 5 15 -5 15 -68 -2 -21 -6 -50 6 -43 17 3 5 -16 6 -42 2 -34 -4 -45 -3
-40 5 5 8 -5 12 -34 12 -53 0 -131 20 -124 31 7 12 61 11 104 -1 23 -7 36 -6
40 1 5 7 15 6 34 -1 15 -5 24 -15 21 -20 -4 -6 5 -10 22 -8 16 1 34 -1 41 -6
7 -4 12 -2 12 3 0 6 -6 11 -12 12 -7 0 -2 5 11 10 18 7 30 5 50 -8 14 -9 39
-19 56 -23 20 -4 30 -12 29 -23 -2 -15 8 -21 28 -18 4 0 18 -3 32 -9 18 -7 28
-5 37 6 10 13 26 14 83 9 39 -4 77 -12 83 -17 7 -6 29 -7 49 -4 24 5 43 3 57
-7 12 -7 48 -15 80 -16 51 -2 57 0 57 17 0 27 -25 45 -50 37 -23 -7 -26 4 -7
24 10 11 10 13 0 7 -7 -4 -13 -3 -13 2 0 6 -9 6 -24 -1 -14 -7 -21 -17 -19
-27 5 -18 -37 -23 -49 -6 -6 8 -10 8 -15 1 -5 -6 -21 -8 -38 -4 -24 5 -25 7
-7 8 12 0 22 5 22 10 0 10 -50 21 -119 26 -45 4 -46 3 -14 -8 17 -7 35 -15 39
-19 12 -13 -12 -9 -42 7 -33 17 -78 20 -69 5 4 -6 -10 -10 -34 -10 -23 0 -41
5 -41 10 0 6 -8 10 -17 11 -12 0 -13 2 -5 6 7 3 26 0 41 -7 19 -8 35 -8 47 -2
59 30 74 34 125 28 92 -11 139 -9 139 6 0 4 9 8 20 8 11 0 20 -4 20 -9 0 -10
49 -21 95 -22 47 -2 55 0 55 12 0 7 -13 9 -37 5 -35 -6 -37 -5 -19 9 20 15 20
15 0 16 -10 1 -23 1 -28 0 -6 -1 -19 2 -30 8 -12 5 -38 11 -59 13 -31 3 -36 1
-32 -13 4 -13 -2 -18 -26 -21 -38 -6 -79 1 -79 13 0 5 21 9 46 9 25 0 43 4 40
9 -3 4 -21 7 -41 5 -19 -1 -38 2 -41 8 -4 6 -10 5 -15 -3 -6 -10 -9 -11 -9 -1
0 6 -11 12 -25 12 -14 0 -25 -4 -25 -10 0 -5 -4 -10 -10 -10 -5 0 -7 6 -4 13
3 8 -4 13 -18 13 -121 1 -188 6 -188 13 0 5 8 7 19 4 10 -3 22 0 25 6 4 6 16
11 27 11 21 0 27 19 7 21 -7 1 14 5 46 10 59 9 93 -1 80 -22 -3 -5 5 -9 18 -9
13 -1 41 -7 63 -15 22 -8 44 -10 48 -6 12 12 -6 21 -54 26 -70 7 -63 20 11 19
38 0 73 -4 77 -9 5 -4 0 -5 -9 -2 -10 4 -18 2 -18 -3 0 -15 19 -21 37 -11 13
6 30 4 57 -10 22 -10 44 -18 50 -17 6 1 33 -6 60 -17 33 -13 51 -15 53 -8 3 7
25 9 66 5 55 -5 61 -3 49 10 -13 16 -62 31 -62 19 0 -3 -11 -7 -25 -7 -14 -1
-25 2 -25 7 0 5 6 9 13 10 6 0 2 4 -11 10 -15 6 -30 5 -43 -2 -17 -9 -18 -13
-7 -26 12 -15 11 -15 -9 -4 -22 11 -22 41 1 41 6 0 4 5 -4 10 -8 5 -41 10 -74
10 -50 0 -62 4 -82 25 -13 14 -32 25 -43 25 -11 0 -23 5 -26 10 -9 15 24 11
84 -9 36 -13 48 -20 35 -23 -10 -2 15 -8 56 -12 41 -4 85 -14 98 -22 15 -10
28 -12 40 -6 20 11 45 5 36 -9 -6 -11 13 -11 41 0 19 8 19 8 -2 19 -12 7 -28
12 -37 12 -8 0 -18 5 -21 10 -4 6 10 9 37 8 24 -1 52 1 64 5 23 8 78 -28 68
-44 -3 -6 -15 0 -26 13 -13 14 -22 18 -25 12 -2 -7 -13 -9 -25 -6 -24 6 -20
-7 15 -45 23 -25 60 -32 51 -9 -8 20 21 27 58 13 l33 -11 -30 -7 -30 -6 30 -8
c17 -4 43 -19 58 -32 16 -12 37 -23 47 -23 12 0 17 -5 14 -13 -3 -10 4 -14 25
-15 16 0 39 -6 50 -12 14 -7 21 -7 21 0 0 5 7 10 17 10 13 0 12 -3 -6 -19
l-22 -19 43 -4 c24 -3 52 -2 63 2 19 7 18 7 -3 19 -12 7 -26 9 -31 6 -5 -3
-12 4 -16 15 -6 18 -12 20 -42 14 -26 -5 -34 -4 -29 5 11 17 69 13 117 -9 24
-11 37 -20 29 -20 -8 0 -1 -8 15 -18 17 -11 41 -31 55 -45 22 -23 33 -27 88
-27 53 0 67 4 81 21 l17 21 44 -21 c52 -25 169 -31 138 -7 -25 18 -22 29 4 20
17 -5 11 6 -24 41 -47 47 -48 47 -80 34 -18 -7 -36 -17 -39 -21 -8 -12 -90 2
-83 13 3 5 -2 9 -10 9 -28 0 -17 -20 14 -27 32 -6 51 -23 26 -23 -8 0 -16 -5
-18 -11 -3 -8 -9 -6 -20 4 -8 9 -19 13 -23 9 -3 -4 -12 0 -18 9 -22 29 -50 39
-67 24 -17 -15 -60 -10 -60 7 0 5 9 12 20 15 17 5 17 7 5 20 -9 8 -23 12 -34
8 -12 -3 -21 0 -25 11 -5 14 0 15 46 9 59 -8 68 -13 50 -23 -25 -16 41 -28 78
-15 l35 13 -47 -5 c-38 -4 -48 -1 -48 10 0 10 10 15 28 16 46 1 -5 17 -58 19
-37 0 -42 2 -26 11 11 7 38 9 65 5 27 -3 41 -2 32 3 -9 6 -11 16 -6 32 l8 23
17 -22 c22 -26 32 -28 28 -5 -2 13 6 19 32 23 34 5 34 6 13 18 -26 15 -46 16
-38 2 3 -5 2 -10 -4 -10 -5 0 -12 4 -15 9 -5 8 -121 27 -139 23 -4 -1 -7 2 -7
6 0 5 -15 7 -32 4 l-33 -4 28 16 c19 10 34 13 45 7 18 -10 66 -20 120 -26 22
-2 35 1 39 11 6 15 -15 47 -26 39 -4 -2 -20 3 -35 10 -16 8 -32 13 -36 10 -5
-3 -28 0 -52 6 -45 12 -98 6 -98 -11 0 -6 9 -6 23 -1 15 6 26 4 35 -5 11 -12
7 -14 -21 -14 -24 0 -39 -6 -49 -21 -10 -15 -24 -21 -51 -21 -34 0 -36 -1 -20
-14 23 -17 1 -19 -30 -3 -22 12 -22 12 -3 -9 10 -12 23 -19 28 -16 21 13 108
32 108 23 0 -5 7 -9 15 -9 8 0 15 -5 15 -11 0 -8 -12 -10 -35 -6 -19 3 -37 2
-40 -3 -3 -4 -14 -6 -24 -3 -10 3 -22 0 -25 -5 -4 -6 -22 -8 -43 -5 -26 4 -34
3 -29 -5 5 -8 0 -12 -13 -12 -14 0 -19 5 -15 15 4 8 15 15 25 15 10 0 19 5 19
11 0 6 -9 8 -22 3 -20 -6 -21 -5 -9 10 14 17 6 17 -76 0 -13 -2 -23 0 -23 6 0
5 9 10 20 10 11 0 20 5 20 10 0 6 -5 10 -11 10 -5 0 -7 5 -3 11 4 7 1 10 -7 7
-8 -3 -13 -10 -12 -16 2 -6 -10 -11 -25 -11 -15 1 -39 -2 -54 -6 -18 -5 -28
-3 -28 4 0 6 11 11 25 11 14 0 25 5 25 11 0 6 -12 10 -27 9 -44 -3 -55 -1 -48
10 3 6 -3 10 -14 10 -12 0 -21 5 -21 11 0 5 -3 8 -8 5 -4 -2 -18 2 -32 10 -14
7 -20 13 -13 14 6 0 19 3 29 7 12 4 15 3 10 -5 -5 -8 1 -12 18 -12 13 0 31 -6
38 -13 15 -15 132 -31 123 -17 -3 4 1 11 7 13 7 3 -4 6 -24 6 -20 1 -40 6 -43
11 -9 15 -27 12 -19 -2 4 -7 -2 -5 -13 4 -11 10 -29 18 -41 18 -11 0 -24 5
-27 10 -8 13 -62 13 -67 -1 -2 -7 -12 -7 -31 0 -16 6 -39 11 -53 11 -14 0 -24
6 -24 14 0 7 -9 16 -20 19 -16 4 -19 1 -14 -17 5 -20 2 -22 -30 -18 -20 2 -34
8 -31 12 3 5 15 6 27 2 14 -3 19 -2 14 6 -4 7 -24 12 -44 12 -26 0 -33 3 -23
9 8 5 21 7 29 3 11 -4 13 -1 7 7 -5 10 -2 11 14 6 11 -3 29 -2 38 4 15 9 13
10 -13 11 -17 0 -47 3 -65 7 -32 6 -33 5 -19 -12 14 -17 13 -18 -15 -11 -40
10 -56 26 -26 26 33 0 21 23 -17 35 -18 5 -32 12 -32 16 0 4 -10 5 -23 2 -16
-4 -19 -2 -8 5 21 15 -5 37 -46 38 -35 1 -44 -10 -17 -20 24 -9 10 -19 -15
-11 -12 4 -18 12 -14 21 4 11 -2 14 -28 13 -19 -1 -44 1 -57 5 -13 5 -22 3
-22 -3 0 -6 -6 -11 -12 -11 -7 1 -2 10 11 20 18 16 27 18 37 9 11 -9 18 -8 29
1 8 6 19 9 24 5 6 -3 22 5 36 19 26 27 41 31 69 20 26 -10 18 -25 -9 -18 -14
3 -32 4 -40 0 -23 -9 -6 -36 24 -37 33 -1 103 -31 101 -44 0 -6 7 -11 17 -13
14 -2 15 -1 4 6 -10 7 -6 13 18 25 17 8 31 12 31 7 0 -4 9 -6 20 -3 11 3 20 0
20 -6 0 -6 7 -11 16 -11 8 0 12 5 9 10 -3 6 -1 10 6 10 9 0 9 3 0 14 -12 14
-87 16 -109 2 -6 -3 -21 -2 -34 3 -23 10 -23 10 5 10 15 1 27 5 27 10 0 9 46
8 143 -3 44 -5 47 -5 32 10 -27 27 -8 28 37 1 46 -27 128 -98 128 -111 0 -20
-33 -36 -77 -36 -42 -1 -46 -2 -30 -14 24 -19 21 -26 -10 -26 -20 0 -24 3 -14
9 18 12 2 20 -37 19 -35 -1 -34 -18 1 -19 20 0 21 -1 3 -8 -36 -14 2 -23 69
-16 52 6 72 4 102 -10 51 -24 122 -42 161 -39 17 1 32 -2 32 -6 0 -10 50 -31
61 -25 5 4 9 -1 9 -9 0 -13 -8 -14 -45 -9 -44 6 -52 0 -37 -24 9 -15 109 -8
128 8 8 6 14 6 18 0 10 -15 46 0 46 19 0 12 -10 21 -31 25 -17 4 -33 4 -36 1
-4 -3 1 -6 10 -6 10 0 17 -5 17 -11 0 -6 -7 -9 -15 -5 -8 3 -15 0 -15 -6 0 -6
-11 1 -25 16 -14 15 -25 29 -25 31 0 4 54 0 100 -9 30 -5 74 6 60 16 -23 16
-100 34 -111 27 -8 -5 -25 -8 -39 -7 -23 1 -24 1 -2 5 12 2 22 8 22 13 0 4 6
7 13 6 6 0 13 4 15 9 1 6 -1 10 -5 10 -5 0 -14 4 -21 8 -7 5 -26 6 -42 2 -32
-7 -42 8 -13 19 20 8 120 -11 128 -25 4 -5 11 -9 16 -9 6 0 8 4 5 9 -8 12 46
11 61 -1 10 -8 9 -13 -2 -25 -12 -11 -22 -12 -51 -4 -21 6 -33 7 -28 2 14 -12
74 -31 100 -31 24 0 32 14 14 25 -29 18 -4 22 93 16 4 -1 7 -5 7 -11 0 -5 -8
-7 -17 -3 -11 4 -15 2 -10 -3 5 -5 21 -10 35 -10 41 -3 103 -21 116 -35 8 -9
4 -10 -21 -6 -18 4 -33 2 -33 -2 0 -18 12 -41 22 -41 6 0 7 7 4 16 -5 12 -1
14 16 8 12 -4 28 -13 36 -20 14 -15 18 -15 97 -18 37 -1 49 -5 47 -15 -2 -11
3 -10 24 4 24 15 26 15 21 1 -13 -32 83 -58 114 -30 26 24 24 32 -13 44 l-33
10 32 -3 c18 -2 35 1 38 7 3 7 7 7 11 -1 4 -10 11 -10 26 -2 16 9 26 7 47 -9
15 -11 25 -27 23 -38 -2 -10 7 -26 20 -37 12 -10 17 -16 11 -12 -7 3 -13 2
-13 -4 0 -11 56 -41 76 -41 8 0 11 -6 8 -15 -4 -8 -2 -15 4 -15 6 0 12 4 14 9
2 5 18 6 35 4 20 -3 30 -10 26 -16 -4 -6 2 -8 15 -5 12 4 22 2 22 -3 0 -5 5
-9 11 -9 5 0 8 4 5 9 -7 10 16 21 43 21 10 0 43 -14 75 -31 58 -31 71 -48 23
-30 -28 11 -86 14 -127 8 -14 -3 -33 -5 -43 -6 -10 0 -15 -6 -12 -11 4 -7 13
-6 27 1 16 8 22 8 29 -2 4 -8 3 -16 -3 -20 -5 -4 12 -10 38 -14 43 -6 46 -8
26 -16 -15 -6 -35 -4 -57 6 -21 8 -37 10 -40 4 -10 -15 -26 -10 -23 7 2 10 -5
18 -16 20 -51 8 -70 16 -57 23 8 6 3 10 -17 14 -30 6 -72 -1 -72 -12 0 -3 -37
-3 -82 0 -92 7 -108 4 -81 -17 16 -13 15 -13 -11 -4 -16 6 -37 20 -46 30 -17
19 -50 28 -50 13 1 -21 41 -53 64 -53 15 0 29 -6 32 -14 3 -8 18 -14 32 -14
47 1 110 -13 123 -28 13 -16 5 -18 -19 -5 -29 15 -125 17 -130 2 -3 -8 3 -12
14 -10 11 1 26 -1 35 -5 8 -4 67 -5 130 -3 75 2 106 6 92 11 -13 5 -23 12 -23
17 0 12 7 11 30 -1 14 -8 30 -6 57 5 28 12 39 13 47 4 8 -9 7 -10 -6 -6 -10 3
-20 2 -23 -3 -14 -22 175 -35 250 -16 22 6 26 5 15 -3 -11 -8 51 -11 221 -11
l236 0 13 44 c9 33 16 43 27 39 8 -3 19 0 23 7 6 9 10 7 15 -9 6 -19 13 -22
45 -20 22 2 42 0 46 -3 12 -12 -71 -40 -113 -39 -24 1 -43 -3 -43 -9 0 -7 126
-10 394 -10 l394 0 -11 43 c-5 23 -14 47 -19 53 -10 14 16 80 36 87 10 4 17
-8 26 -41 7 -26 22 -68 33 -94 l19 -48 358 0 c324 0 358 2 364 17 6 15 8 15
19 -1 9 -13 24 -17 52 -14 l40 3 -43 24 c-34 20 -41 29 -36 45 8 26 24 45 24
28 0 -6 6 -9 14 -6 7 3 22 -6 33 -20 14 -18 26 -23 42 -19 16 4 20 2 15 -10
-3 -9 -12 -13 -21 -10 -11 4 -14 2 -9 -5 4 -7 14 -12 22 -12 8 0 14 -4 14 -10
0 -15 143 -13 158 2 7 7 12 22 12 35 0 17 6 23 23 23 16 0 18 3 9 9 -10 6 -9
10 7 14 28 7 28 -19 1 -33 -14 -8 -19 -17 -15 -30 4 -13 0 -20 -12 -22 -10 -3
19 -5 64 -5 66 0 80 2 76 14 -3 7 -2 13 3 12 31 -5 64 3 64 16 0 17 6 18 35 5
11 -5 14 -9 7 -9 -7 -1 -10 -6 -7 -11 4 -6 -8 -10 -29 -10 -19 0 -38 -4 -41
-10 -4 -6 23 -9 74 -8 45 1 81 6 81 11 0 5 6 4 14 -2 14 -12 200 -9 316 5 31
3 41 2 31 -5 -24 -16 1324 -14 1351 2 16 9 22 9 25 0 7 -19 40 -16 47 3 6 16
8 16 24 0 20 -17 47 -22 38 -7 -3 5 1 12 10 15 21 8 20 8 40 -11 13 -13 19
-14 22 -5 4 14 48 16 57 2 3 -6 40 -10 81 -10 48 0 73 4 69 10 -3 5 1 10 10
10 9 0 13 -4 10 -10 -3 -5 3 -10 14 -10 12 0 21 6 21 13 0 7 3 8 8 2 8 -12 95
-18 88 -6 -3 4 11 8 30 9 20 1 32 -3 29 -8 -3 -6 4 -10 17 -10 18 0 20 2 8 10
-11 7 -1 9 35 9 44 -1 46 -2 20 -9 -16 -4 130 -7 326 -6 285 1 359 4 372 15
15 12 17 11 17 -3 0 -13 10 -16 58 -14 31 1 65 7 76 12 14 8 20 8 23 -1 5 -15
193 -19 193 -4 0 15 59 19 64 4 7 -16 172 -19 178 -2 2 7 12 7 30 0 36 -14
299 -11 317 3 11 8 15 8 18 -1 3 -8 60 -12 209 -12 l204 -1 0 264 0 265 -22 4
-23 4 23 2 22 1 0 3050 0 3050 -5910 0 -5910 0 0 -1913z m11216 -1414 c23 -31
37 -73 24 -73 -4 0 -6 -18 -3 -40 4 -26 2 -40 -6 -40 -6 0 -11 -9 -11 -20 0
-13 5 -18 15 -14 11 4 15 0 15 -16 0 -16 -4 -20 -15 -16 -11 4 -15 0 -13 -12
2 -11 -4 -17 -17 -17 -16 0 -19 6 -17 25 2 14 8 30 13 36 5 6 7 19 3 28 -3 9
-2 22 3 29 12 16 11 76 -3 85 -6 4 -14 16 -18 27 -7 20 -8 20 -21 1 -8 -10
-12 -23 -8 -29 4 -6 -5 -8 -25 -4 -29 6 -32 4 -38 -28 -3 -19 -11 -35 -17 -35
-8 0 -8 -3 0 -11 12 -12 37 -3 29 9 -6 10 80 9 90 0 4 -5 -2 -8 -13 -8 -17 0
-20 -5 -16 -22 l5 -23 -20 23 c-22 24 -47 30 -39 8 7 -18 -32 -29 -50 -14 -14
12 -11 32 13 86 11 23 24 35 45 39 16 3 29 9 29 14 0 10 29 39 39 39 4 0 16
-12 27 -27z m-10688 -1952 c8 -4 13 -12 12 -17 -1 -5 4 -10 11 -13 7 -2 9 2 5
10 -4 8 -1 6 8 -5 13 -16 19 -17 46 -6 16 7 39 10 50 7 11 -3 23 -1 26 5 3 5
56 8 125 7 108 -2 140 -9 107 -22 -7 -3 3 -6 23 -6 19 -1 40 4 47 11 9 9 13 7
18 -6 4 -9 13 -15 23 -12 9 3 32 1 51 -3 19 -5 29 -9 23 -10 -7 -1 -13 -8 -13
-16 0 -14 -24 -21 -60 -16 -8 0 -36 3 -62 5 -26 3 -67 12 -93 20 -53 18 -75
20 -75 6 0 -5 -7 -10 -15 -10 -8 0 -15 7 -15 15 0 8 -7 15 -16 15 -14 0 -14
-3 -4 -15 10 -12 10 -15 -3 -15 -9 0 -19 4 -22 10 -6 10 -115 7 -174 -6 -30
-6 -33 -5 -28 9 5 13 1 17 -18 17 -14 0 -25 5 -25 10 0 6 7 10 16 10 10 0 14
6 10 15 -6 17 2 19 22 6z m-179 -40 c20 -5 66 -17 103 -26 48 -12 71 -24 83
-41 11 -18 25 -24 50 -24 19 0 35 -4 35 -8 0 -15 52 -34 63 -23 5 5 16 7 23 4
8 -3 14 1 14 11 0 15 3 15 30 1 31 -16 40 -35 17 -35 -7 0 -18 5 -23 10 -7 7
-19 7 -35 1 -24 -10 -23 -10 6 -11 22 0 26 -3 16 -9 -11 -7 -4 -12 27 -21 49
-13 57 -25 10 -16 -20 4 -29 3 -23 -3 6 -5 24 -11 40 -13 17 -2 29 -8 27 -15
-1 -8 8 -13 20 -13 18 0 20 -2 8 -10 -23 -14 13 -24 65 -17 24 4 47 3 50 -2 9
-15 -107 -19 -139 -4 -16 7 -41 13 -55 14 l-26 1 25 8 25 8 -27 1 c-15 1 -30
6 -33 11 -4 6 -15 8 -26 5 -13 -4 -19 -2 -19 9 0 21 -27 20 -38 0 -8 -15 -14
-14 -46 12 -20 16 -36 32 -36 37 0 4 -9 7 -19 7 -11 0 -21 5 -23 12 -3 7 -9 8
-19 3 -16 -11 -67 -7 -89 6 -11 7 -5 9 20 7 50 -2 107 3 93 9 -7 2 -13 9 -13
15 0 6 8 4 18 -5 20 -18 42 -22 42 -9 0 8 -96 55 -117 56 -7 1 -18 7 -25 14
-6 6 -23 12 -36 12 -13 0 -38 6 -55 14 -18 8 -39 17 -47 19 -28 10 20 8 59 -2z
m6431 -154 c74 -21 148 -30 249 -31 58 -1 86 -5 88 -13 3 -9 10 -10 21 -4 10
5 50 4 92 -1 41 -5 81 -10 88 -10 8 -1 7 -8 -5 -21 -17 -19 -17 -20 4 -8 26
13 36 14 29 2 -7 -11 60 -20 76 -10 14 9 2 15 -42 22 -14 2 -4 5 23 6 32 1 47
-3 47 -11 0 -16 -20 -47 -20 -33 0 6 -3 5 -8 -1 -5 -8 -32 -8 -91 -2 -58 6
-86 6 -91 -1 -9 -15 -60 -10 -88 7 -22 15 -23 14 -11 -12 7 -15 18 -25 26 -22
7 3 13 -1 13 -9 0 -21 -19 -19 -39 4 -18 21 -68 40 -56 22 9 -16 -47 -2 -57
13 -5 7 -8 4 -8 -6 0 -10 -6 -19 -12 -19 -7 -1 19 -7 57 -14 39 -7 60 -13 48
-14 -12 0 -24 -4 -26 -8 -3 -5 17 -6 44 -5 31 3 49 0 49 -7 0 -6 -8 -11 -17
-11 -15 0 -14 -2 3 -15 10 -8 28 -15 39 -15 l20 -1 -20 -8 c-12 -5 -33 -3 -54
5 -18 8 -52 16 -75 19 -22 3 -61 12 -86 19 -25 8 -52 15 -60 15 -55 3 -208 28
-221 37 -14 8 3 43 18 37 12 -5 12 -7 1 -15 -9 -6 -4 -8 17 -7 17 1 37 -1 45
-4 30 -11 71 -14 76 -6 3 5 -5 9 -18 10 -23 1 -23 1 2 10 20 7 17 8 -15 4 -24
-3 -35 -1 -26 4 8 6 -6 11 -43 15 -49 7 -56 10 -56 29 0 13 3 17 8 11 12 -18
44 -31 93 -38 26 -4 64 -16 85 -26 21 -11 52 -19 69 -19 22 1 24 3 8 6 -12 2
-24 11 -27 19 -3 8 -2 13 2 10 4 -2 14 -1 22 4 12 7 11 9 -5 9 -69 0 -184 20
-215 37 l-25 13 25 2 c14 1 39 1 55 0 l30 -1 -34 15 c-39 18 -44 18 -36 5 3
-5 -1 -10 -10 -10 -12 0 -15 5 -10 18 5 14 4 15 -6 5 -7 -7 -17 -13 -22 -13
-5 0 -7 6 -4 13 2 6 0 21 -5 32 -8 18 -7 18 4 4 7 -9 38 -23 68 -32z m-6458
-52 c6 -14 17 -25 24 -25 7 0 18 -10 25 -21 9 -17 8 -24 -2 -31 -9 -6 -5 -7
12 -2 15 3 30 1 33 -5 4 -6 22 -11 41 -11 21 0 44 -9 63 -25 16 -13 31 -23 33
-22 3 1 1 -2 -2 -6 -10 -12 -44 -3 -42 10 2 7 -13 10 -40 8 -29 -3 -41 -8 -39
-17 7 -27 26 -38 68 -38 34 0 44 -4 44 -16 0 -11 5 -14 16 -10 12 4 15 2 10
-9 -4 -12 3 -15 38 -15 47 0 76 -7 76 -20 0 -4 -24 -3 -52 2 -112 18 -131 19
-139 6 -6 -9 -15 -6 -34 12 -23 21 -28 23 -47 11 -18 -11 -23 -11 -32 1 -6 8
-18 18 -26 21 -8 3 11 4 44 2 32 -3 64 -9 71 -15 14 -12 48 -2 39 11 -3 5 -9
7 -14 4 -4 -3 -28 3 -52 13 -30 13 -52 16 -72 11 -19 -5 -35 -4 -47 5 -25 17
-14 26 35 26 39 0 40 0 18 15 -15 11 -32 14 -57 9 -19 -3 -47 -2 -62 2 -24 7
-20 9 32 14 57 5 59 6 32 18 -20 9 -33 9 -52 0 -19 -9 -28 -9 -37 0 -9 9 -8
12 6 12 9 0 15 3 13 8 -3 4 13 7 34 7 21 1 39 -3 39 -7 0 -4 6 -8 14 -8 9 0
12 7 9 21 -5 17 -11 19 -42 14 -25 -4 -42 -1 -56 9 -23 18 -8 21 30 6 20 -8
26 -7 23 2 -3 7 -20 16 -39 19 -38 6 -19 18 44 28 4 0 13 -10 19 -24z m6508
-130 c47 -8 96 -16 110 -17 22 -3 50 -20 50 -31 0 -2 -11 -2 -25 1 -25 4 -35
-11 -15 -23 16 -10 12 -25 -7 -25 -15 0 -16 -2 -3 -10 22 -14 30 -12 30 6 0
11 5 14 16 10 9 -3 20 -6 25 -6 6 0 7 -4 4 -10 -3 -5 -2 -10 4 -10 5 0 11 6
13 12 4 10 10 10 29 1 14 -7 18 -12 9 -12 -13 -1 -13 -2 0 -11 13 -8 13 -10
-2 -10 -9 0 -19 6 -22 13 -5 9 -7 9 -12 -1 -5 -10 -12 -8 -30 9 -13 12 -24 18
-24 11 0 -6 11 -19 25 -30 29 -23 32 -32 9 -32 -8 0 -25 -5 -36 -11 -17 -9
-18 -13 -7 -20 10 -6 8 -9 -8 -9 -25 0 -29 10 -12 27 8 8 2 15 -23 27 -47 23
-117 27 -151 9 -31 -16 -68 -14 -74 3 -2 7 8 9 27 6 36 -5 40 12 8 29 -18 10
-19 14 -8 17 8 3 21 11 28 18 11 12 8 13 -20 9 -18 -3 -38 -6 -44 -7 -12 -2
-15 -28 -2 -28 4 0 8 -4 8 -10 0 -21 -17 -9 -42 29 -18 28 -21 38 -10 34 11
-5 13 -3 7 7 -5 8 -3 11 6 8 8 -3 13 -11 12 -17 -2 -6 7 -11 20 -10 12 0 16 3
10 6 -15 6 -17 33 -3 33 6 0 10 -4 10 -9 0 -5 18 -12 40 -16 22 -4 40 -12 40
-18 0 -7 4 -6 10 3 8 12 12 11 30 -8 22 -23 35 -27 44 -13 3 4 18 7 33 5 l28
-4 -27 9 c-14 5 -32 12 -39 17 -9 5 -10 2 -6 -12 6 -14 3 -13 -12 5 -13 17
-25 22 -40 18 -11 -3 -24 -1 -27 4 -3 5 -16 9 -29 9 -13 0 -27 5 -31 11 -3 6
-17 8 -33 4 -26 -7 -26 -7 -6 13 11 11 29 18 40 16 11 -2 58 -10 105 -19z
m406 -10 c8 -20 92 -58 115 -52 10 3 17 0 16 -7 -1 -6 11 -12 27 -14 20 -3 26
0 21 9 -5 7 -4 10 3 6 5 -4 9 -18 8 -31 -3 -21 2 -25 31 -28 19 -2 36 0 39 4
3 4 -7 8 -23 8 -20 0 -24 3 -14 9 7 5 22 6 32 4 10 -3 19 -1 19 5 0 6 11 9 25
8 29 -3 46 -16 21 -16 -9 0 -14 -4 -11 -10 3 -5 -1 -10 -9 -10 -9 0 -16 -5
-16 -11 0 -7 -19 -9 -52 -5 -37 3 -46 2 -31 -4 36 -15 98 -17 96 -3 -2 8 6 9
30 2 17 -5 43 -7 57 -4 14 3 51 -3 83 -14 31 -11 57 -16 57 -10 0 19 31 8 42
-16 6 -14 19 -25 28 -25 35 0 80 13 74 21 -6 10 2 11 34 3 14 -4 21 -12 18
-20 -3 -8 1 -14 10 -14 9 0 14 6 11 13 -4 10 5 13 31 12 20 0 38 -7 40 -14 3
-9 -2 -11 -17 -6 -12 4 -21 2 -21 -4 0 -6 11 -11 25 -11 14 0 25 4 25 9 0 22
69 20 133 -5 9 -3 17 -2 17 4 0 5 -12 13 -27 17 -26 7 -26 8 -8 15 19 8 19 9
-2 9 -13 1 -23 -3 -23 -9 0 -5 -6 -7 -12 -5 -7 2 -31 7 -53 10 -22 3 -44 11
-50 18 -5 7 -19 13 -30 13 -11 0 -33 3 -50 6 l-30 7 28 -12 c32 -13 36 -32 5
-23 -13 3 -29 6 -36 6 -7 0 -12 8 -10 18 2 14 -5 18 -39 20 -26 2 -43 -1 -43
-7 0 -6 17 -12 38 -12 36 -1 37 -1 7 -8 -36 -9 -69 5 -61 25 4 11 2 12 -13 4
-14 -7 -21 -6 -24 3 -3 7 -6 5 -6 -5 -1 -20 -26 -24 -37 -6 -5 7 -2 9 7 6 9
-4 15 1 15 12 0 14 -6 16 -33 9 -19 -4 -42 -5 -53 -2 -11 3 -20 1 -20 -5 0 -9
-24 -10 -85 -3 -5 1 -3 6 5 11 8 5 25 7 36 4 12 -3 25 -1 29 5 3 7 3 11 -2 10
-27 -5 -43 3 -43 21 0 11 -5 20 -11 20 -6 0 -8 -7 -5 -16 4 -11 2 -15 -8 -11
-40 15 -86 19 -86 6 0 -7 -3 -9 -7 -6 -3 4 -12 2 -18 -3 -9 -8 -11 -4 -8 12 4
22 9 23 101 25 53 1 100 -3 103 -8 3 -6 38 -13 77 -16 40 -3 72 -9 72 -14 0
-9 46 -20 89 -21 17 -1 31 -4 31 -7 0 -10 77 -31 107 -30 25 0 26 1 8 9 -16 7
-12 9 18 7 28 -1 36 -5 32 -15 -4 -11 1 -13 20 -8 14 4 25 2 25 -3 0 -5 9 -7
20 -4 11 3 20 1 20 -5 0 -13 52 -11 62 3 5 6 8 5 8 -2 0 -7 18 -16 40 -19 61
-10 48 -21 -22 -18 -35 2 -55 1 -45 -2 9 -3 15 -10 11 -15 -3 -6 -3 -18 1 -27
6 -16 7 -16 16 1 6 9 8 21 5 26 -3 4 17 6 45 4 34 -2 49 0 44 7 -3 5 2 10 14
10 10 0 21 -6 24 -12 3 -10 7 -10 19 0 12 10 18 10 23 2 4 -7 20 -10 36 -8 16
3 30 0 32 -6 3 -8 11 -7 26 2 24 14 43 16 21 2 -11 -7 -11 -10 -2 -10 8 0 10
-5 6 -12 -5 -8 -2 -9 9 -5 20 7 47 -1 47 -15 0 -5 -5 -6 -11 -2 -10 6 -52 8
-115 5 -9 -1 -12 -6 -8 -13 6 -9 3 -9 -9 1 -9 7 -27 11 -39 8 -13 -3 -39 -2
-58 3 -22 5 -27 8 -13 9 31 1 56 13 45 20 -6 3 -36 4 -67 2 -39 -2 -53 -6 -44
-12 11 -7 10 -9 -4 -9 -10 0 -15 -5 -11 -11 3 -6 17 -8 31 -4 16 4 22 2 18 -5
-4 -6 -21 -10 -38 -10 -18 0 -39 0 -47 -1 -8 -1 -35 4 -59 10 -23 7 -46 10
-49 7 -10 -10 5 -17 40 -20 19 -2 43 -8 54 -15 36 -23 -49 -5 -111 24 -53 24
-59 25 -81 10 -13 -8 -23 -19 -21 -24 1 -5 -1 -9 -5 -10 -24 -3 -28 1 -14 15
23 23 20 31 -15 38 -34 6 -53 0 -44 -15 4 -5 -1 -9 -9 -9 -9 0 -16 -4 -16 -10
0 -5 -7 -7 -15 -4 -8 4 -15 1 -15 -5 0 -6 -4 -11 -10 -11 -5 0 -7 7 -4 15 4 9
0 15 -9 15 -8 0 -18 10 -22 23 -6 19 -8 19 -12 5 -8 -29 -26 -20 -21 10 3 19
0 29 -9 29 -9 0 -11 -8 -7 -21 4 -15 3 -17 -4 -7 -5 7 -30 16 -56 18 -26 3
-49 9 -51 13 -3 4 17 5 43 2 26 -2 45 -2 42 1 -3 3 -32 8 -64 11 -51 5 -57 4
-46 -9 16 -19 0 -19 -26 0 -15 11 -16 15 -4 16 16 1 -26 16 -50 18 -13 1 -13
0 0 -9 12 -8 10 -10 -10 -11 -14 -1 -29 -1 -34 0 -6 1 -24 4 -40 7 -26 4 -25
3 9 -10 22 -9 48 -16 58 -16 21 0 18 -21 -3 -28 -7 -3 -10 0 -6 7 4 6 1 11 -8
11 -9 0 -16 -6 -16 -12 -1 -9 -5 -8 -13 2 -7 9 -20 14 -31 12 -11 -2 -16 0
-12 7 6 10 -7 16 -18 9 -2 -2 -12 4 -22 13 -21 18 -54 32 -54 22 0 -3 8 -12
18 -20 15 -13 15 -14 0 -9 -12 3 -15 1 -11 -10 4 -11 13 -14 32 -9 24 5 23 4
-7 -15 -18 -11 -48 -20 -66 -20 -42 0 -96 11 -96 19 1 15 20 35 27 28 4 -5 1
-12 -7 -17 -13 -8 -12 -10 2 -10 9 0 24 -3 34 -7 14 -5 16 -3 11 11 -6 16 -5
16 23 0 35 -21 44 -16 31 20 -8 19 -18 26 -36 26 -14 0 -25 4 -25 10 0 8 -53
27 -134 46 -21 5 -27 4 -22 -5 5 -7 -1 -11 -16 -11 -18 0 -20 2 -8 10 17 11
15 14 -30 33 l-35 16 35 -6 c19 -3 41 -10 47 -16 7 -5 19 -7 28 -4 8 4 17 2
20 -3 3 -6 15 -6 30 0 18 7 26 6 32 -5 11 -18 59 -30 67 -16 5 7 -3 11 -18 11
-17 0 -26 5 -26 16 0 13 -7 16 -37 11 l-38 -5 33 14 c18 8 38 11 45 7 7 -4 6
0 -2 10 -7 9 -24 17 -37 17 -12 0 -26 5 -29 10 -3 6 3 10 15 10 12 0 18 5 15
10 -3 6 -1 10 5 10 6 0 13 -7 16 -15z m-2654 -109 c3 -24 15 -58 27 -74 22
-31 28 -58 11 -47 -6 3 -7 -1 -4 -9 3 -9 9 -14 13 -11 10 6 34 -24 50 -62 7
-17 37 -55 66 -84 51 -50 53 -53 33 -63 -33 -17 -31 -31 3 -34 17 -1 39 -7 49
-12 10 -6 28 -10 39 -10 12 0 21 -5 21 -11 0 -8 -15 -9 -47 -4 -76 11 -116
-13 -147 -90 -14 -35 -34 -78 -46 -97 -24 -39 -25 -80 -5 -139 12 -35 12 -40
1 -26 -12 15 -14 12 -21 -35 -5 -29 -10 -46 -12 -37 -2 8 -24 20 -48 27 -48
13 -61 32 -21 32 23 0 24 2 15 32 -10 35 -70 98 -94 98 -8 0 -15 5 -15 11 0 6
7 9 15 5 22 -8 19 18 -5 39 -18 16 -20 16 -35 1 -21 -20 -42 -22 -25 -1 13 16
5 36 -13 34 -26 -3 -38 2 -31 12 4 7 21 9 42 6 32 -6 33 -5 16 8 -11 8 -27 15
-36 15 -10 0 -18 5 -18 10 0 14 11 13 53 -5 41 -17 60 -20 37 -5 -8 5 -11 12
-7 16 4 4 13 2 19 -4 15 -15 25 -15 31 1 3 9 -14 12 -67 11 -50 0 -77 4 -90
15 -14 11 -17 12 -11 2 5 -9 3 -12 -6 -9 -8 3 -13 11 -11 17 1 6 -9 11 -22 11
-13 0 -30 8 -37 17 -12 15 -12 16 4 10 14 -5 19 0 24 23 5 27 7 29 18 13 7 -9
12 -22 11 -28 -2 -5 -1 -8 1 -5 1 3 25 3 53 2 43 -3 50 -1 50 15 0 16 6 18 40
15 37 -4 40 -2 40 22 0 21 5 26 25 26 24 0 25 3 25 54 0 29 5 67 11 84 8 22 7
36 -1 52 -9 17 -7 30 10 65 18 37 20 50 11 82 -13 46 -14 63 -2 63 4 0 11 -20
13 -44z m2214 -47 c-27 -16 -5 -26 71 -35 35 -3 66 -10 69 -15 3 -5 19 -9 36
-9 18 0 36 -7 44 -17 11 -15 15 -16 26 -4 9 10 10 12 0 7 -7 -4 -15 0 -19 11
-4 10 -11 22 -17 26 -7 5 -4 6 7 3 10 -3 28 -6 40 -7 20 -1 20 -2 -3 -9 -14
-4 -18 -8 -10 -9 8 -1 22 -16 30 -33 11 -24 15 -28 18 -15 2 9 10 17 17 17 9
0 12 -6 8 -17 -5 -17 -5 -17 8 0 13 16 21 16 96 5 45 -6 80 -15 77 -19 -2 -4
17 -7 43 -7 27 0 55 -2 63 -5 8 -3 39 -10 69 -14 52 -8 54 -9 37 -25 -17 -18
-42 -25 -32 -10 2 4 -10 6 -28 4 -17 -2 -55 1 -84 6 -29 5 -55 6 -58 1 -5 -9
7 -11 54 -12 12 0 22 -5 22 -12 0 -7 11 -10 30 -7 25 4 29 1 25 -16 -2 -15 1
-19 11 -15 8 3 14 0 14 -6 0 -17 -37 -13 -44 4 -6 16 -56 21 -56 6 0 -5 9 -7
20 -4 13 4 26 -1 35 -13 19 -25 19 -34 0 -34 -8 0 -15 5 -15 10 0 6 -8 10 -17
10 -15 0 -16 -2 -3 -10 12 -7 8 -10 -15 -10 -24 0 -27 3 -15 11 11 7 4 8 -25
5 -22 -3 -32 -3 -22 0 14 4 16 9 7 19 -13 16 -5 36 13 34 7 -1 21 0 32 1 27 3
-30 18 -70 18 -16 0 -22 -2 -12 -5 9 -2 17 -10 17 -17 0 -15 -58 -19 -80 -6
-8 5 -21 5 -31 0 -12 -7 -21 -5 -29 5 -10 12 -9 15 4 15 10 0 14 5 10 11 -5 8
6 9 37 5 29 -4 37 -3 24 3 -20 9 -186 33 -191 28 -2 -1 1 -9 6 -17 6 -8 10
-10 10 -4 0 7 15 9 45 4 45 -7 73 -20 42 -20 -20 0 -23 -18 -4 -26 22 -8 16
-34 -7 -34 -17 0 -18 2 -6 10 8 5 13 10 10 11 -3 0 -23 3 -45 5 -22 3 -42 10
-46 16 -4 7 -9 6 -14 -2 -4 -6 -13 -9 -21 -6 -8 3 -14 1 -14 -3 0 -5 -10 -7
-22 -3 -20 5 -20 6 -3 12 15 5 12 9 -18 23 -19 9 -42 17 -50 17 -8 0 -28 7
-43 15 -33 17 -54 19 -54 6 0 -6 15 -12 33 -14 l32 -4 -37 -1 c-35 -2 -37 0
-43 37 -3 22 -13 47 -20 58 -20 25 -18 31 8 36 14 3 11 4 -8 3 -20 -1 -31 4
-33 16 -3 17 14 25 58 27 23 0 23 -1 6 -10z m-4789 -38 c-3 -12 4 -16 30 -18
18 -1 41 -9 50 -19 16 -16 16 -16 -5 -10 -12 3 -32 9 -44 12 -16 5 -20 3 -15
-9 4 -11 0 -13 -14 -10 -10 3 -19 1 -19 -3 0 -8 33 -13 98 -15 12 -1 22 -5 22
-9 0 -13 -27 -19 -38 -8 -8 8 -9 4 -5 -11 3 -13 12 -21 22 -19 27 4 91 -23 91
-38 0 -8 10 -14 23 -14 12 0 31 -9 40 -21 15 -17 25 -19 56 -14 34 6 39 4 46
-17 5 -13 9 -31 9 -40 1 -10 5 -18 9 -18 39 0 40 0 27 15 -13 16 -1 21 16 6
15 -14 84 -23 84 -11 0 5 12 10 28 10 24 -1 25 -2 10 -13 -14 -11 -13 -15 14
-30 16 -9 34 -17 40 -17 6 0 24 -14 41 -31 29 -31 31 -32 104 -26 69 5 75 4
101 -20 25 -23 25 -23 2 -9 -28 18 -66 21 -75 6 -3 -5 1 -10 9 -10 8 0 18 -5
22 -11 7 -13 -57 -2 -66 11 -7 10 -69 10 -75 0 -10 -16 29 -34 74 -34 25 1 36
-1 23 -3 -28 -6 -19 -23 13 -23 13 0 27 -5 30 -10 4 -6 12 -7 18 -4 9 5 9 4 2
-4 -7 -8 -21 -9 -40 -4 -17 5 -54 8 -83 8 -38 -1 -51 2 -47 12 3 7 -4 12 -18
12 l-22 1 24 13 c20 11 21 14 6 19 -9 4 -25 7 -36 7 -33 0 -21 20 14 21 l32 1
-40 13 c-22 8 -62 13 -90 13 -46 0 -48 -1 -22 -11 15 -6 27 -14 27 -19 0 -4
-12 -3 -27 3 -15 6 -29 6 -32 1 -3 -5 -27 -9 -53 -9 -36 1 -48 5 -48 16 0 19
-71 26 -101 11 -14 -8 -17 -7 -14 2 10 25 44 39 65 28 29 -16 48 -11 20 5 -21
12 -22 14 -6 15 11 0 27 -7 37 -16 24 -21 66 -10 47 13 -11 14 -7 15 30 11 23
-3 48 -11 56 -18 9 -6 24 -9 36 -5 12 4 26 2 33 -3 16 -12 57 -22 57 -14 0 14
-55 32 -94 32 -31 0 -37 3 -28 12 18 18 15 23 -12 23 -13 0 -22 -4 -19 -8 3
-4 -16 -5 -41 -2 -45 5 -45 5 -36 -20 12 -32 -3 -33 -35 -1 -13 13 -35 26 -49
30 -21 5 -24 3 -19 -11 5 -13 2 -15 -11 -10 -10 4 -29 7 -42 7 -13 0 -24 5
-24 11 0 6 10 8 23 5 22 -6 22 -6 -1 6 -19 9 -25 9 -32 -2 -7 -11 -11 -10 -25
3 -20 21 -26 21 -19 3 4 -11 0 -13 -18 -9 -18 4 -20 3 -8 -6 8 -6 25 -11 36
-11 23 0 51 -26 40 -37 -3 -3 -14 1 -24 10 -10 10 -26 17 -34 17 -9 0 -21 7
-28 15 -10 12 -32 15 -96 13 -46 -1 -78 -6 -71 -10 7 -4 22 -8 35 -8 12 0 22
-5 22 -10 0 -13 -73 -2 -78 11 -2 5 -15 9 -28 9 -16 0 -23 -4 -18 -11 4 -7 0
-9 -12 -6 -11 4 -44 9 -74 12 -98 11 -72 20 63 22 73 1 133 3 135 4 6 4 25 7
63 8 24 0 38 5 34 11 -3 6 0 10 7 10 9 0 9 3 -2 10 -19 13 -5 13 18 0 17 -9
150 -40 174 -40 9 0 9 3 -2 10 -12 8 -10 10 8 10 14 0 21 -4 16 -11 -4 -7 1
-10 11 -7 23 4 32 28 11 28 -10 0 -13 6 -10 15 5 11 2 13 -10 9 -9 -3 -13 -10
-10 -15 6 -10 -26 -5 -79 12 -18 5 -36 5 -47 -1 -20 -11 -50 -4 -50 12 0 5 9
6 20 3 12 -4 20 -2 20 5 0 9 -13 10 -44 6 -29 -5 -47 -3 -51 4 -4 7 -18 9 -30
6 -13 -3 -27 -2 -30 4 -10 16 -25 12 -19 -5 4 -9 0 -15 -9 -15 -9 0 -19 10
-22 21 -6 18 -13 20 -42 16 -20 -4 -45 -1 -57 5 -12 6 -18 7 -13 3 4 -5 -6
-14 -22 -21 -23 -10 -40 -9 -87 2 -78 18 -95 18 -70 -1 11 -8 15 -15 8 -15 -6
0 -9 -6 -7 -12 3 -8 26 -13 63 -14 73 0 112 -10 112 -29 0 -8 -4 -15 -10 -15
-5 0 -10 5 -10 11 0 7 -11 9 -27 6 -16 -3 -32 1 -41 10 -11 11 -17 11 -22 3
-4 -7 -10 -8 -13 -3 -4 5 -19 8 -36 5 -16 -2 -37 1 -48 7 -17 10 -17 10 0 11
21 0 22 16 2 37 -13 13 -18 13 -32 2 -9 -8 -26 -12 -38 -11 -13 2 -26 -2 -30
-7 -10 -18 -48 -14 -41 4 6 16 -1 17 -75 19 -20 1 -43 7 -51 13 -8 7 -17 10
-20 7 -4 -3 -20 2 -37 10 -16 9 -39 16 -51 16 -12 0 -18 5 -15 10 8 12 52 13
59 1 13 -20 205 -31 260 -14 11 3 16 1 12 -5 -3 -6 0 -13 6 -16 7 -3 -16 -4
-51 -2 -76 5 -69 -10 10 -19 55 -7 57 -6 63 19 6 23 9 24 32 16 17 -7 31 -7
42 0 15 8 14 9 -6 10 -15 0 -21 4 -16 12 5 8 2 9 -9 5 -9 -3 -19 -2 -22 3 -4
6 -14 6 -27 -1 -14 -8 -27 -8 -42 -1 -11 6 -49 16 -83 22 -54 11 -64 11 -78
-4 -9 -9 -14 -16 -10 -16 3 0 3 -5 0 -10 -4 -6 -12 -7 -18 -3 -7 4 -17 8 -24
9 -6 1 -19 7 -30 13 -17 10 -16 10 5 11 12 0 22 3 22 8 0 4 15 8 33 9 17 0 52
3 77 6 29 3 57 -1 79 -11 19 -9 57 -17 85 -18 44 -3 74 -6 110 -12 5 -1 3 -9
-4 -17 -10 -12 -9 -15 6 -15 11 0 29 -3 42 -6 12 -4 22 -2 22 4 0 6 -12 13
-27 15 -23 3 -22 4 8 6 20 0 41 -5 47 -12 13 -16 68 -21 77 -7 4 6 -1 7 -11 3
-14 -5 -15 -3 -5 14 9 18 7 21 -17 26 -15 3 -35 1 -45 -4 -9 -6 -23 -7 -29 -3
-7 5 -25 7 -40 6 -14 -1 -30 3 -34 9 -5 9 6 11 44 6 43 -5 52 -3 52 10 0 12
-7 14 -30 9 -18 -3 -29 -2 -25 4 3 5 -9 6 -30 3 -33 -5 -51 10 -22 20 14 5
-39 -3 -70 -10 -13 -3 -23 0 -23 5 0 15 63 26 111 19 34 -4 39 -3 35 10 -5 13
-4 13 8 4 7 -6 21 -9 30 -5 11 4 16 1 16 -10 0 -9 7 -16 16 -16 8 0 12 5 9 10
-3 6 1 10 9 10 8 0 20 -9 26 -20 8 -16 21 -20 57 -20 39 0 44 2 33 15 -10 12
-10 15 1 16 32 2 -40 17 -88 18 -28 1 -55 6 -59 12 -5 8 3 10 25 7 18 -3 53 1
78 7 57 15 96 9 90 -14z m5853 -164 c0 -5 -7 -7 -15 -3 -8 3 -15 1 -15 -4 0
-9 24 -15 103 -26 26 -3 47 -11 47 -16 0 -6 -7 -7 -16 -4 -9 3 -21 3 -27 -1
-7 -4 -3 -9 9 -14 17 -7 17 -8 -4 -8 -13 -1 -20 -5 -17 -11 3 -5 -1 -10 -9
-10 -9 0 -15 5 -13 11 1 5 -16 17 -38 24 -22 8 -40 15 -40 15 -1 0 -1 -9 -1
-20 0 -14 7 -20 23 -20 24 0 33 -19 11 -22 -7 0 -17 -2 -23 -3 -5 -2 -19 -3
-30 -4 -17 -1 -18 -3 -5 -11 9 -6 10 -10 3 -10 -14 0 -63 -47 -63 -60 0 -6 -4
-10 -10 -10 -5 0 -10 5 -10 10 0 7 -8 6 -21 -2 -53 -32 -64 -36 -73 -30 -6 3
-18 7 -26 7 -9 0 -14 7 -12 19 3 15 -1 18 -17 13 -12 -3 -23 -1 -26 3 -3 5
-22 6 -43 4 -30 -4 -34 -3 -19 6 9 6 21 9 25 6 4 -2 14 -1 22 5 12 7 10 9 -7
9 -13 0 -23 5 -23 11 0 5 5 7 11 4 6 -4 26 -7 45 -7 19 0 32 -3 30 -6 -2 -4
32 -7 75 -7 54 0 79 4 79 12 0 6 -5 13 -12 15 -7 3 -5 7 6 11 10 4 15 3 11 -3
-3 -6 0 -10 8 -10 8 0 17 7 21 15 3 8 14 15 25 15 17 0 18 3 8 25 -9 18 -17
23 -32 18 -17 -5 -18 -4 -6 11 7 9 25 16 40 17 14 0 20 3 14 6 -9 3 -10 10 -3
22 9 18 40 25 40 8z m-6128 -151 c8 -8 26 -11 45 -9 17 3 41 -1 53 -7 13 -7
42 -14 66 -15 23 -2 51 -8 62 -14 30 -16 40 -13 18 4 -11 8 -15 15 -9 15 5 0
20 -9 32 -19 21 -18 21 -20 3 -25 -10 -4 -35 0 -55 9 -48 20 -48 19 -41 -11 6
-24 5 -25 -13 -15 -11 5 -33 9 -49 8 -19 -1 -28 2 -26 11 1 6 -7 12 -18 12
-11 0 -37 7 -58 15 -34 14 -36 14 -17 -1 19 -16 19 -16 -10 -9 -16 4 -40 7
-52 8 -13 1 -23 4 -23 7 0 3 -12 6 -26 6 -19 2 -24 -2 -20 -13 5 -12 1 -14
-21 -8 -16 4 -47 7 -70 6 -43 -1 -49 4 -35 25 8 14 60 15 68 3 9 -15 41 -10
48 7 5 13 15 15 52 9 32 -4 44 -3 39 4 -9 16 41 14 57 -3z m-601 -48 c19 -6
37 -16 41 -21 3 -6 28 -11 56 -12 30 -1 62 -10 84 -23 20 -12 45 -22 56 -22
33 0 51 -11 45 -26 -3 -9 2 -14 16 -14 12 0 21 -5 21 -10 0 -11 -49 -3 -64 11
-5 4 -25 1 -46 -7 -27 -11 -43 -12 -64 -4 -15 5 -45 10 -67 10 -26 0 -38 4
-34 11 4 6 14 8 22 5 11 -4 13 -1 8 14 -8 26 7 26 23 0 9 -16 23 -20 62 -20
57 0 64 12 20 30 -16 7 -30 16 -30 19 0 4 -27 6 -60 4 -33 -2 -60 0 -60 4 0 4
-19 9 -43 10 -23 2 -43 7 -45 13 -2 5 -20 11 -40 12 l-37 1 33 4 c18 2 30 9
27 14 -8 13 35 11 76 -3z m1086 -28 c4 -13 14 -20 32 -20 24 -1 24 -2 8 -14
-9 -7 -29 -11 -45 -9 -22 3 -24 2 -10 -6 20 -13 50 -10 72 8 8 7 21 9 27 5 9
-5 7 -10 -7 -15 -18 -6 -17 -8 5 -16 16 -6 20 -12 13 -17 -6 -4 -21 -2 -32 4
-16 9 -18 8 -14 -5 4 -8 1 -15 -5 -15 -6 0 -11 -6 -11 -13 0 -8 -6 -14 -13
-14 -7 0 -25 -3 -41 -7 -18 -4 -25 -3 -21 4 3 5 1 10 -4 10 -6 0 -11 -6 -11
-12 0 -9 -3 -9 -8 -2 -7 11 -42 27 -42 19 0 -2 7 -11 16 -19 14 -15 13 -16
-15 -16 -33 0 -38 8 -18 29 10 11 8 12 -10 6 -17 -5 -23 -2 -23 10 0 15 -48
41 -58 31 -2 -3 7 -8 22 -12 45 -11 28 -24 -31 -23 -81 1 -135 19 -69 23 30 2
30 23 -1 30 -21 6 -24 9 -12 17 18 11 32 12 25 0 -7 -11 28 -21 74 -21 35 0
35 0 -19 25 -30 14 -52 28 -49 31 3 2 18 -1 32 -8 17 -7 30 -8 34 -2 12 16 33
15 78 -3 46 -19 56 -32 27 -34 -12 0 -13 -2 -5 -6 7 -3 25 -2 39 2 21 5 24 8
12 16 -10 6 -5 9 19 9 22 0 32 5 32 15 0 8 -5 15 -11 15 -5 0 -7 -4 -4 -10 4
-6 -14 -10 -47 -10 -42 1 -49 3 -35 11 10 6 27 9 38 6 10 -3 17 -1 14 3 -3 5
1 11 7 13 26 11 40 6 45 -13z m-353 -95 c3 -8 12 -15 20 -15 23 0 81 -43 81
-60 0 -18 35 -27 44 -11 10 15 71 26 71 13 0 -6 -16 -14 -35 -18 -19 -3 -35
-9 -35 -13 0 -12 -84 -30 -135 -30 -27 0 -66 -1 -85 -4 -19 -3 -40 -5 -47 -6
-7 -1 -10 -8 -6 -17 4 -10 13 -14 27 -10 28 7 64 -29 39 -38 -22 -9 -35 -7
-29 3 9 14 -24 22 -46 10 -15 -8 -24 -7 -37 5 -10 9 -28 16 -42 17 -13 0 -18
3 -11 6 20 8 14 23 -10 23 -24 0 -63 -20 -40 -20 6 0 21 -9 32 -20 12 -12 20
-15 20 -7 1 8 5 7 13 -4 10 -14 83 -45 97 -42 3 1 13 4 22 8 13 5 17 2 15 -14
-1 -12 -4 -21 -7 -21 -26 0 -155 41 -161 52 -5 7 -26 13 -48 14 -35 0 -38 -1
-23 -14 15 -12 14 -13 -11 -7 -35 7 -148 -21 -164 -42 -8 -10 -20 -13 -36 -9
-13 3 -39 1 -57 -4 -36 -10 -87 -3 -73 11 5 5 42 10 83 12 52 3 88 11 118 26
23 12 47 19 52 16 5 -3 26 1 45 11 19 9 41 14 50 11 8 -4 17 -2 20 3 6 10 -31
24 -44 16 -5 -4 -16 1 -25 9 -12 13 -26 13 -83 5 -63 -9 -161 -13 -138 -5 92
31 191 56 208 52 12 -3 31 -1 42 3 19 8 19 9 0 9 -13 1 -16 4 -9 11 8 8 19 8
38 0 29 -11 46 -6 46 12 0 6 -3 8 -7 5 -3 -4 -12 -2 -19 4 -7 6 -25 14 -41 19
-19 6 -2 7 51 3 l78 -6 -6 24 c-6 22 -6 23 7 7 14 -18 77 -25 91 -11 4 4 25 6
46 4 30 -2 40 1 40 12 0 9 -6 18 -12 20 -8 4 -7 6 3 6 9 1 19 -6 23 -14z
m6081 -35 c-17 -7 -14 -9 15 -10 19 -1 51 -1 71 0 21 1 40 -3 43 -8 3 -6 -2
-8 -14 -5 -11 3 -20 0 -20 -6 0 -6 -9 -11 -20 -11 -11 0 -20 -4 -20 -10 0 -5
12 -10 26 -10 14 0 23 4 19 9 -3 5 -1 12 5 16 5 3 10 1 10 -4 0 -6 7 -11 16
-11 8 0 12 -4 9 -10 -4 -6 13 -10 43 -10 40 0 49 3 49 18 0 9 -5 20 -11 24 -6
4 12 7 39 7 37 0 45 -3 30 -9 -19 -8 -19 -9 3 -9 12 -1 22 4 22 9 0 6 21 9 48
8 l47 -1 -43 -4 c-23 -2 -40 -8 -37 -13 3 -4 13 -6 23 -4 9 3 28 1 42 -5 24
-9 24 -10 3 -10 -12 -1 -25 -5 -28 -11 -8 -13 -88 -5 -93 9 -4 11 -32 16 -32
5 0 -3 5 -15 11 -26 10 -18 9 -20 -6 -14 -29 11 -38 -5 -10 -20 20 -10 30 -11
45 -2 14 9 25 9 44 0 20 -9 31 -8 53 3 15 8 35 15 43 14 13 0 13 -1 0 -6 -8
-4 -20 -12 -27 -18 -10 -10 -6 -14 15 -18 15 -3 39 -3 55 0 20 4 27 1 27 -11
0 -15 -11 -20 -37 -17 -7 1 -13 -3 -13 -9 0 -5 3 -10 8 -11 4 0 15 -2 25 -4
10 -2 31 0 47 5 26 8 28 7 21 -13 -4 -11 -14 -23 -21 -25 -7 -3 -10 0 -6 6 4
6 -8 9 -31 7 -21 -2 -42 0 -48 4 -5 5 -31 13 -57 20 -38 9 -53 9 -69 -1 -17
-10 -23 -10 -26 -1 -2 7 -11 9 -19 6 -9 -3 -14 1 -14 12 0 13 6 16 25 13 14
-3 28 -1 31 3 3 5 0 9 -5 9 -6 0 -11 5 -11 11 0 5 4 8 9 4 5 -3 12 -1 16 5 3
5 -1 10 -9 10 -8 0 -17 -4 -21 -9 -8 -14 -65 -41 -87 -41 -25 0 -23 17 5 26
20 7 19 8 -13 15 -20 4 -36 4 -38 -2 -2 -5 -8 -9 -14 -9 -6 0 -7 7 -4 15 4 11
-3 20 -22 28 -15 6 -29 15 -32 18 -3 4 -14 8 -25 11 -12 2 -19 10 -17 21 3 20
-13 23 -22 5 -5 -10 -7 -10 -12 -1 -10 22 -73 27 -93 9 -17 -16 -51 -13 -51 4
0 7 19 12 88 24 13 3 26 7 30 10 3 3 12 6 21 5 12 0 11 -3 -4 -9z"/>
<path d="M53 1703 c-7 -2 -13 -9 -13 -15 0 -5 -9 -21 -20 -35 -41 -52 -22 -73
62 -70 21 0 44 -5 50 -12 11 -11 4 -12 -37 -7 l-50 6 34 -15 c26 -12 32 -18
23 -27 -9 -9 -18 -7 -39 8 -41 30 -63 36 -63 19 0 -8 9 -15 20 -15 11 0 20 -4
20 -10 0 -5 -9 -10 -20 -10 -25 0 -26 -28 -2 -46 16 -13 16 -13 0 -14 -10 0
-18 -5 -18 -11 0 -8 15 -10 46 -5 26 3 54 6 63 7 9 0 0 7 -19 14 l-35 13 48 1
c26 1 47 -3 47 -9 0 -14 28 -12 33 3 3 8 8 9 18 2 8 -6 37 -8 69 -4 49 5 50 6
15 8 -23 1 -35 5 -28 9 7 4 82 7 167 7 116 0 156 3 156 12 0 7 7 10 15 7 9 -4
15 0 15 9 0 19 -58 33 -73 18 -6 -6 -36 -11 -66 -11 -30 0 -51 3 -47 7 4 4 23
6 44 5 l37 -2 -29 16 c-23 13 -65 17 -175 20 -80 2 -149 4 -153 4 -5 0 -8 5
-8 10 0 6 42 11 103 12 56 1 84 3 62 5 -22 3 -44 9 -49 14 -6 5 -22 9 -37 9
-15 0 -32 7 -39 15 -7 8 -19 15 -27 15 -8 0 -11 5 -8 10 4 6 -13 11 -42 11
-26 1 -38 4 -25 6 12 2 22 9 22 14 0 9 -26 11 -47 2z"/>
<path d="M1240 1071 c0 -6 -18 -16 -40 -22 -40 -12 -51 -24 -28 -31 6 -2 -3
-10 -20 -17 -27 -11 -34 -11 -47 3 -20 20 -26 20 -19 1 7 -16 -21 -22 -30 -6
-3 4 -17 6 -32 3 -40 -7 -8 -23 43 -20 23 1 45 -1 49 -5 4 -4 1 -7 -7 -7 -12
0 -12 -2 0 -9 10 -6 25 -4 42 5 16 8 60 14 103 15 42 1 76 5 76 10 0 5 -9 9
-20 9 -11 0 -20 4 -20 9 0 6 -12 6 -32 0 -37 -10 -45 -7 -23 11 13 11 25 11
68 0 29 -7 55 -18 60 -24 5 -8 9 -8 15 0 4 6 14 14 22 18 8 3 3 5 -12 3 -15
-2 -33 0 -40 4 -9 6 -8 9 7 9 18 0 17 1 -4 17 -13 9 -39 17 -56 18 -18 1 -37
5 -44 9 -6 4 -11 3 -11 -3z"/>
<path d="M2859 886 c10 -12 8 -14 -11 -9 -22 4 -22 4 -4 -11 11 -9 23 -16 28
-16 4 0 8 -7 8 -15 0 -20 -19 -19 -55 5 -35 23 -105 29 -83 7 7 -7 23 -16 35
-19 17 -5 20 -2 15 11 -5 14 -4 14 11 2 9 -7 14 -17 11 -22 -3 -5 2 -9 10 -9
9 0 16 -5 16 -10 0 -6 -15 -4 -36 5 -20 8 -44 15 -53 14 -10 0 -11 -2 -3 -6 6
-2 12 -11 12 -18 0 -30 65 -34 88 -5 13 16 29 21 72 21 56 1 130 -23 130 -41
0 -6 18 -10 40 -10 22 0 40 5 40 11 0 5 -4 8 -10 4 -13 -8 -60 5 -60 17 0 6 7
8 15 4 8 -3 15 -1 15 5 0 6 -12 9 -27 8 -45 -3 -63 0 -63 12 0 6 7 9 15 5 18
-7 20 10 3 18 -7 3 5 3 27 2 21 -2 41 -9 43 -15 5 -16 29 -13 29 4 0 14 -50
38 -60 29 -5 -5 -91 12 -117 23 -8 3 -32 8 -54 9 -32 3 -36 2 -27 -10z"/>
<path d="M3899 847 c7 -10 20 -17 28 -17 10 0 13 -6 9 -16 -3 -9 -6 -21 -7
-27 0 -7 -4 -2 -9 10 -6 15 -15 21 -25 17 -14 -6 -14 -8 0 -24 8 -9 12 -20 8
-23 -3 -4 -1 -7 5 -7 7 0 12 -4 12 -10 0 -5 -7 -7 -16 -3 -8 3 -13 12 -10 19
3 9 -2 14 -14 14 -14 0 -20 7 -20 24 0 29 -31 40 -75 27 -19 -6 -23 -10 -12
-11 9 -2 21 -3 26 -4 24 -3 18 -13 -6 -12 -19 1 -29 -5 -31 -16 -2 -13 1 -16
12 -12 11 4 13 0 9 -15 -4 -15 -1 -21 11 -21 10 0 14 -5 11 -11 -4 -6 -10 -8
-13 -5 -3 3 -12 1 -19 -6 -11 -9 -17 -9 -24 3 -8 12 -10 12 -19 -1 -9 -13 -14
-7 -11 12 0 4 -7 4 -16 1 -12 -5 -15 -2 -10 10 4 11 1 17 -7 17 -19 0 -26 -22
-12 -35 19 -18 99 -56 105 -50 3 3 -1 10 -9 15 -12 8 -10 10 7 10 12 0 25 5
28 10 3 6 17 10 31 10 14 0 23 -4 20 -8 -9 -14 59 0 69 15 8 11 17 12 37 4 15
-5 28 -7 30 -3 2 4 18 15 36 24 18 10 31 14 28 10 -2 -4 17 -8 42 -9 l47 -1
-35 10 c-19 5 -43 18 -52 28 -15 16 -15 19 -2 24 9 3 12 1 9 -4 -3 -6 -1 -10
4 -10 6 0 11 7 11 16 0 11 -5 14 -17 9 -21 -9 -26 -9 -77 -1 -46 6 -56 14 -36
26 13 8 12 10 -2 10 -10 0 -18 -5 -18 -10 0 -7 -8 -6 -22 1 -21 11 -22 11 -9
-4z"/>
<path d="M158 450 c34 -14 26 -23 -14 -15 -66 12 -144 15 -144 6 0 -11 24 -21
50 -21 9 0 24 -8 31 -17 12 -15 12 -16 -6 -8 -36 14 -75 18 -75 6 0 -6 6 -11
13 -11 8 0 7 -4 -3 -10 -13 -9 -13 -11 0 -20 8 -5 32 -10 53 -10 20 0 37 -4
37 -9 0 -4 17 -11 38 -14 20 -3 51 -11 67 -18 27 -11 28 -13 8 -16 -12 -2 -35
3 -52 11 -16 9 -47 16 -67 16 l-37 0 24 -21 c13 -12 41 -32 62 -45 20 -13 37
-29 37 -34 0 -5 11 -12 24 -16 14 -3 27 -12 30 -20 5 -13 60 -42 203 -103 80
-35 105 -39 97 -16 -4 8 -9 13 -13 11 -4 -3 -29 6 -57 19 -27 13 -42 24 -34
24 34 2 -15 20 -74 26 -46 6 -67 14 -83 31 -12 13 -27 24 -33 24 -5 0 -10 5
-10 10 0 6 9 10 20 10 11 0 20 -7 20 -15 0 -8 12 -17 28 -21 15 -3 40 -10 55
-16 15 -6 30 -8 33 -5 3 3 20 -1 37 -8 62 -25 81 -25 32 -1 -50 26 -103 46
-130 50 -18 3 -32 16 -17 16 7 0 12 6 12 14 0 15 -21 26 -51 26 -10 0 -19 4
-19 10 0 10 44 5 94 -11 37 -12 49 -11 41 1 -7 11 17 14 130 12 l80 -1 -75 13
c-41 8 -104 21 -139 30 -35 10 -70 15 -77 12 -8 -3 -33 4 -56 16 -22 12 -66
24 -97 27 l-56 5 45 6 c27 4 57 2 75 -5 16 -7 50 -15 74 -18 38 -5 41 -4 24 8
-10 7 -29 15 -42 17 -14 1 -27 9 -29 17 -4 11 0 12 14 6 26 -12 113 -12 116 0
2 6 -15 11 -37 13 -76 4 -125 13 -120 22 6 10 -20 20 -53 19 -26 0 -26 -1 -4
-9z"/>
<path d="M3635 330 c-5 -9 -4 -15 4 -18 9 -3 9 -7 0 -18 -9 -11 -8 -14 5 -14
10 0 14 -4 11 -10 -3 -5 2 -10 12 -10 14 0 15 -2 4 -9 -9 -6 8 -11 50 -16 35
-4 69 -11 75 -16 7 -6 16 -9 20 -8 27 5 51 -3 51 -16 0 -18 -34 -20 -74 -4
-15 6 -45 11 -66 10 -21 0 -48 6 -61 14 -18 12 -30 13 -50 6 -24 -10 -37 -31
-18 -31 4 0 22 -13 40 -30 20 -18 44 -30 60 -30 19 0 23 3 13 9 -7 5 -9 11 -4
14 13 8 168 0 251 -14 88 -14 173 -19 167 -9 -8 13 37 20 57 9 11 -6 25 -8 32
-6 6 3 20 -1 31 -9 22 -16 39 -18 30 -4 -3 5 0 10 7 11 7 0 0 5 -17 10 -16 5
-37 6 -47 3 -9 -2 -19 0 -23 6 -3 5 -17 10 -30 10 -15 0 -23 5 -21 13 1 6 1 9
-1 5 -8 -14 -61 -9 -76 7 -10 10 -25 13 -45 9 -19 -4 -34 -1 -45 10 -18 18
-54 21 -59 5 -2 -6 -13 -9 -23 -7 -17 4 -15 7 15 26 l35 22 -35 0 c-20 0 -40
4 -45 9 -12 12 -81 18 -91 8 -10 -10 -56 -9 -50 1 3 5 -5 8 -17 7 -25 -2 -38
9 -53 44 -8 19 -12 22 -19 11z"/>
<path d="M145 164 c54 -26 40 -33 -18 -9 -20 8 -57 15 -82 15 -33 0 -45 -4
-45 -15 0 -8 7 -15 15 -15 20 0 65 -22 65 -32 0 -13 -17 -9 -34 7 -19 19 -43
19 -43 0 0 -9 26 -29 61 -46 34 -16 75 -38 91 -49 39 -24 175 -29 175 -6 0 9
12 16 28 18 30 3 36 21 8 26 -12 3 -16 0 -11 -7 10 -17 -46 -2 -64 17 -13 12
-6 13 50 8 49 -4 60 -3 46 5 -10 6 -49 12 -85 14 -37 2 -78 8 -92 14 -24 11
-24 11 8 8 38 -4 42 10 7 23 -14 5 -44 19 -67 30 -23 11 -47 20 -52 19 -6 0
12 -11 39 -25z"/>
<path d="M3004 125 c3 -8 1 -15 -4 -15 -15 0 -12 -26 3 -28 6 0 21 -3 32 -6
11 -2 22 -5 25 -5 3 -1 -2 -6 -10 -11 -12 -8 -11 -10 5 -10 11 0 31 -7 43 -16
23 -16 91 -17 103 -1 3 4 16 3 30 -2 24 -9 23 -9 -11 -19 -34 -10 -33 -10 18
-8 53 2 79 16 68 34 -3 6 -14 8 -24 5 -11 -2 -32 6 -49 21 -35 29 -63 34 -63
11 0 -12 -4 -13 -19 -5 -24 12 -44 13 -37 1 3 -5 -5 -8 -19 -8 -14 0 -22 3
-19 8 3 5 12 9 20 9 24 0 16 19 -15 35 -23 11 -31 12 -35 2 -3 -9 -9 -7 -19 6
-17 21 -31 22 -23 2z"/>
<path d="M505 105 c17 -8 37 -14 45 -15 10 0 11 -3 3 -11 -18 -18 -4 -39 26
-39 l26 1 -25 14 c-24 14 -24 14 15 8 22 -3 45 -10 52 -15 7 -5 20 -7 30 -4
10 3 32 2 48 -3 24 -6 11 -10 -65 -15 -97 -7 -162 -5 -214 9 -21 6 -27 5 -22
-4 5 -8 -7 -11 -38 -11 -25 0 -46 -4 -46 -10 0 -6 64 -10 173 -10 169 0 247
11 293 39 18 11 18 12 -3 6 -12 -3 -24 -1 -28 5 -3 5 -17 10 -30 10 -13 0 -26
4 -29 9 -3 4 -32 11 -64 14 -32 4 -74 13 -95 22 -20 8 -47 15 -59 14 -21 -1
-20 -2 7 -14z"/>
<path d="M2855 90 c-3 -5 -3 -10 2 -11 4 0 -3 -5 -17 -10 -17 -7 -26 -7 -28 0
-2 6 -29 11 -60 11 -45 -1 -53 -3 -39 -11 10 -6 25 -8 32 -5 18 7 26 -6 15
-24 -5 -9 -5 -19 2 -27 12 -15 42 -18 33 -3 -9 14 9 12 23 -2 10 -10 15 -10
21 1 7 11 17 12 54 2 55 -13 140 -15 133 -2 -4 5 -1 11 4 13 6 2 -5 20 -25 40
-29 32 -38 36 -58 29 -14 -6 -29 -6 -38 0 -19 12 -46 11 -54 -1z"/>
</g>
</svg>
