<?xml version="1.0" standalone="no"?>
<!DOCTYPE svg PUBLIC "-//W3C//DTD SVG 20010904//EN"
 "http://www.w3.org/TR/2001/REC-SVG-20010904/DTD/svg10.dtd">
<svg version="1.0" xmlns="http://www.w3.org/2000/svg"
 width="1182.000000pt" height="664.000000pt" viewBox="0 0 1182.000000 664.000000"
 preserveAspectRatio="xMidYMid meet">
<metadata>
Created by potrace 1.13, written by Peter Selinger 2001-2015
</metadata>
<g transform="translate(0.000000,664.000000) scale(0.100000,-0.100000)"
fill="#000000" stroke="none">
<path d="M0 4791 l0 -1849 30 -4 c17 -3 56 -1 88 4 31 5 77 10 102 11 40 2 45
4 42 25 -2 12 2 22 7 22 6 0 11 9 11 21 0 11 -5 17 -10 14 -6 -3 -10 -1 -10 4
0 10 14 15 33 12 4 0 7 3 7 8 0 11 57 41 77 41 19 0 11 25 -8 26 -8 0 -19 -3
-25 -8 -5 -4 -17 1 -26 12 -12 13 -13 20 -4 23 15 6 20 63 6 72 -5 3 -10 10
-10 14 0 11 97 51 121 51 11 0 19 3 19 8 0 14 48 62 62 62 8 0 23 9 32 19 15
17 22 18 44 9 15 -6 46 -12 69 -13 41 -2 42 -1 48 37 4 21 11 38 16 38 5 0 9
-4 9 -9 0 -5 8 -11 19 -14 19 -5 28 -58 9 -54 -6 1 -14 -8 -19 -20 -6 -17 -5
-23 6 -23 7 0 17 5 20 10 4 6 11 8 17 4 5 -3 23 7 40 22 26 26 36 29 89 27 43
-1 59 2 59 12 0 7 -6 15 -12 18 -10 3 -10 7 0 20 8 9 11 25 7 36 -5 16 0 24
19 33 14 6 26 15 26 19 0 10 29 39 40 39 4 0 6 -10 3 -21 -4 -15 0 -27 12 -35
27 -20 35 -17 35 11 0 16 6 25 15 25 9 0 15 9 15 23 0 13 3 26 6 30 3 3 8 27
10 53 2 26 8 52 14 58 15 15 32 -6 33 -40 1 -16 6 -34 12 -40 13 -14 65 -24
65 -13 0 25 44 51 86 51 42 0 44 1 54 39 6 21 15 39 20 39 22 0 8 28 -20 40
-28 12 -45 35 -17 24 14 -5 37 73 34 116 -1 16 3 25 13 25 11 0 15 -12 15 -45
0 -44 1 -45 33 -45 17 0 32 -3 32 -7 0 -8 -14 -11 -40 -9 -10 1 -15 -8 -15
-27 0 -21 4 -28 15 -25 25 7 44 26 58 56 8 19 18 27 27 23 21 -8 19 24 -2 40
-27 21 -45 17 -41 -8 2 -18 -3 -24 -21 -26 -13 -2 -21 0 -17 6 3 6 2 22 -4 36
-7 21 -6 26 5 26 18 0 18 7 4 50 -10 29 -10 34 7 43 31 18 50 18 67 -1 9 -9
16 -20 16 -24 2 -18 16 -11 19 8 2 16 10 22 30 22 15 0 30 -5 34 -12 5 -7 8
-6 8 4 0 8 -10 21 -21 29 -18 10 -19 15 -8 22 10 6 10 9 2 9 -26 0 -12 20 15
20 l27 1 -27 20 c-16 11 -28 27 -28 35 0 10 6 8 20 -6 20 -20 21 -20 44 -3 25
19 18 33 -16 33 -22 0 -22 3 -3 40 10 19 11 31 5 35 -6 4 -8 11 -5 16 4 5 -1
9 -9 9 -19 0 -21 25 -4 36 6 4 17 -1 25 -12 14 -18 15 -18 41 14 15 18 33 32
40 32 7 0 11 4 7 10 -3 5 -12 7 -20 3 -11 -3 -15 2 -15 18 0 37 -16 56 -23 28
-5 -18 -11 -21 -36 -16 -22 5 -31 3 -31 -7 0 -9 -9 -12 -27 -8 -25 5 -25 6 -8
18 10 8 13 14 7 14 -7 0 -12 5 -12 10 0 6 9 10 21 10 34 0 61 19 54 40 -7 23
11 36 19 13 6 -15 8 -15 16 -3 6 8 10 27 10 42 0 23 4 27 22 25 35 -3 34 29
-1 44 -29 13 -44 49 -21 49 6 0 10 -4 10 -10 0 -5 7 -10 15 -10 8 0 15 -4 15
-10 0 -5 5 -10 11 -10 7 0 5 10 -5 25 -9 14 -13 25 -9 25 14 -1 59 -29 47 -30
-7 0 -14 -9 -17 -20 -6 -24 15 -27 33 -5 7 8 22 15 34 16 20 0 20 1 1 9 -18 7
-19 8 -3 15 10 4 16 11 13 15 -3 5 3 8 12 8 10 0 27 3 38 7 16 5 17 5 5 -4 -8
-5 -11 -13 -7 -17 4 -4 12 -3 18 3 6 6 18 9 25 6 9 -3 14 2 14 13 0 16 5 14
26 -11 18 -21 27 -26 33 -17 12 19 63 9 72 -14 6 -15 8 -16 8 -3 1 22 32 34
43 17 6 -10 10 -10 18 2 7 11 24 14 62 13 32 -2 55 2 60 10 6 9 10 8 18 -3 7
-12 10 -12 10 -1 0 10 18 12 85 8 47 -3 85 -1 85 3 0 5 17 6 39 3 23 -3 41 -1
45 6 4 6 12 11 17 11 6 0 3 -7 -6 -16 -9 -9 -13 -19 -10 -22 3 -4 9 -1 13 5 9
15 111 28 146 19 16 -4 23 -11 20 -20 -4 -11 12 -13 88 -11 51 2 104 8 118 14
23 10 23 11 -7 5 -39 -7 -66 6 -37 17 28 11 74 11 74 -1 0 -5 9 -10 20 -10 11
0 20 7 20 15 0 8 5 15 10 15 6 0 10 -6 10 -12 0 -9 4 -8 10 2 5 8 10 10 10 5
0 -6 9 -11 20 -12 11 -1 20 2 20 7 0 11 32 0 42 -14 5 -8 16 -7 36 0 25 10 29
9 28 -5 -1 -13 10 -16 55 -16 40 0 63 -5 76 -18 11 -9 27 -17 36 -17 9 0 17
-5 17 -11 0 -7 11 -9 30 -6 16 4 32 2 36 -4 3 -6 17 -8 30 -5 13 4 24 2 24 -3
0 -5 26 -9 58 -8 79 2 200 -12 207 -24 4 -5 14 -9 24 -9 10 0 21 -9 24 -20 5
-18 36 -27 71 -21 5 1 15 -7 23 -19 8 -11 25 -20 39 -20 13 0 24 -4 24 -8 0
-5 16 -16 35 -25 19 -9 35 -20 35 -24 0 -10 50 -32 84 -39 14 -2 45 -18 70
-34 24 -17 46 -30 49 -30 2 0 22 -8 43 -17 22 -9 45 -16 53 -14 7 1 11 -3 8
-11 -2 -7 -10 -12 -16 -11 -6 2 -11 -4 -11 -11 0 -8 -11 -27 -24 -41 -25 -27
-25 -25 -17 -224 1 -33 1 -34 21 -16 18 16 20 16 26 2 3 -9 -1 -31 -10 -48
-12 -24 -13 -35 -5 -40 7 -4 8 -12 3 -20 -10 -17 -7 -59 14 -157 10 -46 22
-67 22 -38 0 9 4 14 10 11 6 -3 10 -22 10 -41 0 -19 4 -34 9 -34 5 0 11 -10
13 -22 2 -12 8 -23 15 -25 9 -3 10 4 2 29 -12 43 -12 91 1 83 6 -3 10 -19 10
-35 0 -35 9 -60 21 -60 6 0 5 8 -1 19 -5 11 -10 26 -10 33 1 7 7 -2 15 -21 9
-19 12 -44 8 -59 -5 -21 -3 -24 11 -19 9 4 16 2 16 -3 0 -6 -4 -10 -10 -10 -5
0 -10 -4 -10 -10 0 -5 8 -10 18 -10 11 0 24 -11 30 -25 13 -28 10 -30 -20 -14
-14 8 -23 8 -31 0 -17 -17 -26 -13 -46 20 -15 24 -20 27 -25 14 -3 -9 1 -18
10 -22 11 -4 12 -8 4 -13 -18 -11 21 -53 43 -45 9 4 15 10 12 14 -2 4 46 7
108 5 81 -1 117 2 133 12 18 12 29 12 80 -4 58 -18 59 -19 59 -54 0 -20 4 -36
9 -35 5 1 11 -4 13 -11 4 -11 1 -12 -15 -3 -11 6 -33 11 -47 11 -15 0 -63 9
-107 20 -44 12 -85 19 -92 17 -16 -6 0 -12 154 -51 121 -31 130 -35 84 -35
-27 -1 -85 8 -128 19 -43 12 -86 19 -95 18 -9 -2 32 -17 91 -33 163 -45 132
-61 -37 -20 -53 13 -65 13 -105 0 l-45 -15 57 6 c43 4 75 0 132 -18 77 -23
102 -44 44 -36 -18 3 -54 11 -80 18 -39 11 -55 11 -104 0 -31 -8 -52 -16 -45
-18 6 -2 33 1 59 7 41 10 55 8 115 -13 55 -19 65 -25 48 -31 -12 -4 -41 1 -66
10 -38 15 -51 16 -97 5 -29 -8 -48 -15 -42 -17 6 -2 29 0 50 5 30 7 49 5 82
-9 24 -11 41 -23 37 -28 -6 -10 -23 -7 -60 10 -15 7 -31 5 -55 -6 l-35 -16 38
5 c55 7 108 -20 77 -39 -6 -3 -9 -16 -9 -28 1 -17 2 -18 6 -4 5 19 23 23 23 5
0 -9 3 -9 12 0 14 14 78 16 78 3 0 -5 -8 -12 -17 -14 -15 -4 -14 -5 3 -6 17
-1 20 -6 16 -26 -2 -14 -11 -25 -21 -25 -13 0 -14 -2 -2 -9 11 -7 7 -10 -15
-13 -23 -2 -30 -8 -32 -30 -4 -31 4 -34 32 -13 10 8 24 11 29 8 6 -4 28 -6 49
-4 23 1 38 -3 38 -10 0 -7 -11 -10 -30 -7 -16 3 -30 1 -30 -4 0 -4 -7 -8 -15
-8 -8 0 -15 -4 -15 -10 0 -13 71 -13 106 0 15 6 29 8 32 5 7 -7 -80 -45 -90
-39 -4 3 -18 -2 -30 -11 -23 -17 -22 -17 17 -11 22 4 54 9 70 11 l30 5 -25
-13 c-37 -18 -76 -47 -65 -48 6 -1 22 0 37 1 16 1 35 -6 44 -14 8 -9 30 -16
47 -16 42 0 18 -16 -38 -26 -22 -4 -51 -15 -64 -25 l-24 -19 22 0 c12 0 32 5
44 11 16 9 22 9 25 0 5 -16 22 -14 22 3 0 16 37 32 48 22 3 -4 -4 -9 -16 -13
-31 -8 -26 -29 12 -50 16 -9 8 -14 -53 -33 -40 -12 -71 -23 -69 -25 2 -2 50 8
108 21 58 13 116 23 130 22 23 -1 23 -1 3 -5 -13 -3 -20 -10 -17 -18 3 -7 -1
-17 -8 -21 -9 -6 -6 -10 12 -14 21 -5 13 -10 -45 -29 -38 -12 -77 -25 -85 -28
-8 -4 -44 -17 -80 -30 -77 -27 -58 -23 115 22 168 45 193 44 45 -1 -150 -46
-262 -85 -257 -90 2 -2 23 3 47 11 64 23 336 95 351 94 17 -1 -36 -18 -196
-64 -123 -36 -229 -75 -222 -82 2 -2 17 1 33 7 26 10 95 30 364 106 47 13 92
23 100 21 8 -1 -12 -10 -45 -19 -231 -63 -473 -144 -462 -154 2 -2 28 5 58 16
94 33 459 133 465 127 2 -2 -13 -9 -33 -15 -21 -6 -121 -36 -223 -66 -206 -61
-245 -74 -238 -82 3 -2 41 6 84 20 43 13 117 34 164 46 47 13 122 34 168 47
46 14 86 23 88 20 2 -2 -53 -21 -123 -41 -203 -58 -383 -118 -390 -129 -4 -7
1 -8 13 -3 47 19 328 96 338 93 5 -2 -19 -11 -54 -21 -52 -15 -203 -62 -259
-82 -8 -2 -11 -7 -8 -10 3 -3 52 8 109 26 144 44 145 44 133 32 -5 -6 -66 -29
-135 -51 -69 -23 -132 -46 -140 -52 -13 -9 -13 -10 0 -5 8 2 33 10 55 17 34
10 81 24 240 74 11 4 8 -1 -7 -9 -29 -18 -284 -106 -304 -106 -7 0 -16 9 -19
20 -3 11 -14 20 -23 20 -16 -1 -16 -2 0 -14 12 -8 14 -16 7 -23 -6 -6 -4 -29
6 -68 8 -33 15 -67 15 -77 0 -21 36 -25 43 -5 2 6 -4 36 -15 66 -10 30 -15 58
-11 62 8 7 113 39 198 61 22 5 60 19 85 30 25 11 50 21 55 22 6 1 20 8 33 15
13 7 28 10 35 7 7 -2 2 -8 -10 -11 -13 -4 -20 -11 -17 -16 3 -5 -1 -9 -9 -9
-8 0 -20 -7 -27 -15 -7 -9 -19 -14 -27 -11 -7 3 -13 -1 -13 -8 0 -8 -8 -17
-17 -20 -10 -4 -34 -13 -53 -21 l-35 -14 33 0 c40 -1 42 -19 2 -27 -16 -4 -28
-9 -26 -13 2 -3 -24 -15 -57 -25 -58 -19 -87 -36 -87 -51 0 -4 15 -4 33 -1 17
4 55 8 82 10 l50 4 -75 -28 c-41 -15 -88 -35 -105 -44 -16 -9 -38 -16 -47 -16
-10 0 -18 -4 -18 -10 0 -13 -5 -14 80 15 86 29 92 30 63 10 -36 -25 -19 -48
31 -39 22 3 49 10 59 16 13 6 17 5 17 -7 0 -8 -10 -20 -22 -25 -13 -6 -30 -14
-38 -18 -8 -5 -28 -16 -45 -25 -16 -8 -31 -21 -34 -28 -2 -7 1 -9 8 -5 6 4 30
9 53 11 24 2 36 1 28 -2 -8 -3 -17 -9 -20 -12 -3 -3 -14 -11 -24 -17 -27 -15
-32 -34 -8 -34 11 0 22 -6 24 -12 6 -18 -35 -48 -66 -48 -14 0 -25 -3 -25 -7
4 -23 -4 -34 -26 -43 -14 -5 -25 -14 -25 -20 0 -5 -7 -10 -16 -10 -9 0 -23 -8
-31 -17 -14 -17 -14 -17 -9 0 8 24 -19 33 -52 17 -15 -7 -70 -25 -123 -39 -53
-14 -96 -30 -95 -36 2 -18 77 -9 160 19 27 9 50 15 52 13 6 -6 -63 -33 -148
-59 -43 -12 -78 -27 -78 -31 0 -5 27 -7 60 -5 57 4 62 -9 7 -16 -76 -10 -108
-32 -76 -51 13 -9 -35 -35 -65 -36 -18 0 -17 -2 7 -11 37 -13 26 -25 -31 -35
l-47 -7 40 -6 c23 -4 54 -1 74 7 49 19 62 15 20 -7 -22 -11 -60 -20 -97 -21
-69 -3 -86 -19 -19 -19 35 -1 39 -2 24 -11 -11 -6 -29 -9 -41 -7 -15 3 -23 0
-23 -10 0 -11 11 -13 46 -9 25 3 47 10 49 16 2 6 19 13 38 17 19 3 37 10 40
15 3 5 14 9 25 9 11 0 18 -4 14 -9 -3 -5 -1 -13 5 -16 17 -10 -8 -35 -27 -28
-13 5 -15 2 -11 -15 4 -12 2 -24 -3 -27 -11 -7 12 -45 27 -45 14 0 26 -28 18
-41 -3 -5 -14 -9 -24 -9 -10 0 -22 -5 -26 -11 -5 -8 3 -10 27 -5 19 4 50 9 69
11 l35 5 -35 -11 c-19 -5 -44 -14 -55 -19 -11 -5 -39 -12 -62 -15 -24 -4 -43
-11 -43 -16 0 -12 -27 -12 -35 1 -3 5 16 16 42 25 l48 15 -44 -5 c-30 -4 -47
-2 -53 7 -8 14 -10 8 -11 -37 -1 -54 6 -57 101 -57 12 0 22 -4 22 -10 0 -5 -4
-6 -10 -3 -5 3 -10 1 -10 -4 0 -6 -14 -11 -30 -11 -18 0 -33 -6 -36 -15 -5
-13 -10 -13 -42 1 -24 10 -38 11 -40 4 -2 -5 -8 -7 -14 -4 -7 5 -9 -3 -4 -22
4 -16 7 -37 7 -46 0 -10 4 -20 9 -23 4 -3 6 -14 3 -25 -3 -11 -9 -17 -14 -14
-5 3 -7 9 -4 14 6 10 -46 40 -69 40 -36 0 -94 41 -111 80 -17 37 -17 41 -2 58
19 21 22 38 7 47 -6 3 -7 -1 -4 -9 7 -18 -34 -75 -55 -75 -7 -1 -24 -12 -37
-26 -24 -26 -62 -33 -81 -14 -15 15 -22 -1 -12 -26 4 -11 8 -15 8 -9 1 6 12 9
25 7 29 -6 24 -33 -5 -33 -12 0 -24 -11 -30 -27 -6 -16 -15 -35 -19 -44 -4 -8
-6 -27 -3 -41 l5 -26 -63 13 c-35 8 -66 12 -68 9 -2 -2 10 -7 28 -10 46 -10
51 -26 4 -19 -30 4 -33 3 -15 -4 28 -13 28 -18 -3 -23 -13 -3 -23 -1 -22 5 1
6 -6 13 -17 15 -11 2 -16 0 -12 -7 4 -6 2 -11 -3 -11 -6 0 -11 -5 -11 -11 0
-5 4 -7 10 -4 5 3 23 -1 39 -10 37 -19 51 -20 26 -1 -18 13 -17 14 13 21 18 3
36 14 41 23 5 9 13 13 17 9 5 -5 4 -11 -2 -15 -11 -8 -28 -43 -26 -54 1 -4 -7
-9 -17 -13 -11 -3 -26 -17 -35 -30 -9 -14 -25 -25 -36 -25 -11 0 -18 -5 -15
-12 2 -7 -11 -30 -30 -51 -29 -33 -36 -37 -54 -28 -11 6 -24 11 -30 11 -20 0
-11 -27 12 -38 17 -8 18 -11 5 -11 -9 -1 -19 3 -23 9 -3 5 -13 7 -23 4 -14 -5
-15 -4 -2 5 8 6 10 11 5 11 -6 0 -15 -4 -21 -10 -6 -6 -19 -4 -38 5 -16 8 -30
15 -32 15 -7 0 -4 -14 5 -29 9 -15 26 -18 109 -20 36 -1 51 -5 46 -12 -3 -6
-19 -9 -35 -5 -35 7 -37 0 -4 -25 21 -18 24 -27 23 -83 l-1 -63 -40 9 c-22 5
-42 6 -45 4 -2 -3 -17 1 -32 9 -15 8 -37 11 -48 8 -13 -3 -22 -1 -22 6 0 7 -4
10 -9 6 -5 -3 -12 -1 -16 5 -3 5 -20 7 -38 4 -30 -5 -31 -5 -13 10 18 15 19
16 2 16 -12 0 -16 5 -12 15 8 22 -59 20 -76 -2 -7 -10 -20 -18 -28 -18 -9 0
-14 -7 -12 -18 2 -10 -3 -17 -13 -17 -9 0 -13 -5 -10 -10 4 -6 10 -8 15 -5 5
3 11 1 15 -5 4 -6 -8 -10 -29 -10 -33 0 -43 -16 -23 -36 9 -9 -13 -35 -24 -29
-4 3 -6 12 -3 20 7 18 -25 33 -35 16 -4 -7 -12 -11 -17 -10 -30 5 -23 -4 16
-22 25 -11 53 -25 63 -30 11 -6 21 -8 24 -5 3 3 14 1 24 -5 15 -7 17 -6 13 6
-4 8 -1 15 6 15 7 0 10 8 7 20 -7 28 7 25 27 -5 18 -28 41 -33 50 -10 3 9 0
15 -9 15 -17 0 -84 33 -85 41 0 4 11 9 25 11 25 5 51 -13 38 -25 -3 -4 1 -7
10 -7 8 0 17 6 20 13 4 9 8 9 23 -1 34 -22 46 -25 54 -12 5 8 21 10 51 5 70
-11 83 -15 70 -28 -8 -8 -14 -8 -23 1 -7 7 -25 12 -41 12 -26 0 -28 -2 -16
-16 11 -13 9 -14 -13 -9 -14 4 -28 3 -31 -2 -10 -15 7 -31 38 -37 17 -3 23 -3
15 1 -8 3 -21 12 -29 20 -11 12 -9 13 15 7 41 -10 59 -25 42 -35 -7 -5 -23 -9
-35 -9 -23 0 -33 -20 -10 -20 9 0 9 -2 -1 -9 -10 -6 -4 -10 18 -15 18 -3 36
-3 41 0 13 8 11 -10 -3 -24 -9 -9 -8 -12 5 -12 10 0 20 7 23 15 4 8 10 15 15
15 15 0 10 -27 -7 -44 -17 -17 -15 -19 34 -29 12 -3 22 -1 22 4 0 5 -4 9 -10
9 -19 0 -10 21 13 30 l22 9 -22 7 c-15 4 -22 13 -20 26 1 12 -4 23 -12 26 -8
3 -11 0 -7 -7 9 -14 -9 -14 -36 0 -17 9 -18 13 -7 20 11 8 10 13 -8 28 -25 21
-29 31 -12 31 6 0 20 -11 31 -25 11 -14 26 -25 33 -25 18 0 8 28 -11 32 -9 2
-11 8 -5 17 8 12 16 12 43 3 30 -11 30 -11 5 -8 -19 2 -25 0 -19 -6 6 -6 29
-10 53 -10 23 1 58 -6 79 -14 47 -19 90 -6 90 28 l0 22 20 -22 c11 -12 32 -25
45 -28 34 -8 32 -26 -2 -18 -22 4 -25 3 -13 -5 10 -7 11 -11 2 -11 -9 0 -10
-8 -6 -27 7 -25 6 -27 -9 -15 -18 15 -41 7 -31 -10 5 -8 -3 -9 -25 -5 -20 4
-30 3 -26 -3 3 -6 14 -10 24 -10 22 0 41 -19 41 -41 0 -12 -9 -16 -40 -16 -22
0 -46 -6 -54 -12 -10 -8 -16 -9 -21 -1 -3 6 -11 8 -16 5 -5 -4 -9 -2 -9 3 0 5
-11 15 -25 22 -13 7 -22 17 -19 22 3 4 -5 8 -17 8 -22 0 -22 0 -3 -15 12 -9
14 -14 6 -15 -7 0 -11 -4 -7 -9 9 -15 -34 -24 -50 -11 -8 7 -15 10 -15 6 0
-13 52 -39 58 -29 10 15 52 26 52 14 0 -6 9 -11 20 -11 37 0 21 -17 -21 -23
-41 -5 -68 -21 -56 -33 3 -3 20 1 36 9 17 9 31 11 31 6 0 -5 8 -9 18 -10 14 0
14 -2 -3 -9 -19 -8 -19 -9 2 -9 12 -1 23 -4 26 -8 2 -5 2 -3 1 4 -4 15 20 35
31 25 5 -4 5 -2 2 5 -5 7 9 13 40 17 57 6 93 4 93 -6 0 -5 0 -13 0 -19 0 -8
-19 -10 -60 -6 -39 3 -58 2 -54 -5 4 -6 2 -13 -4 -17 -5 -3 14 -7 44 -8 31 -2
53 1 50 6 -8 12 33 22 64 16 14 -3 18 -2 10 2 -11 5 -3 11 25 20 35 12 36 13
7 8 -33 -5 -40 3 -20 23 9 9 6 12 -13 12 -19 0 -29 9 -42 35 -20 42 -22 54 -5
37 7 -7 19 -12 28 -12 13 0 13 1 0 10 -12 8 -12 10 5 11 16 0 17 2 5 7 -9 4
-27 15 -40 24 -24 17 -24 18 -5 33 11 8 24 15 28 15 5 0 5 5 2 10 -3 6 4 10
15 10 14 0 24 8 27 21 5 19 11 21 49 16 41 -4 44 -3 44 19 0 19 5 24 24 24 21
0 24 4 22 34 -1 29 2 34 21 34 13 0 20 -4 17 -9 -3 -5 3 -10 13 -10 50 -3 76
-9 89 -20 15 -12 15 -12 18 43 1 17 -10 28 -44 45 -51 26 -53 27 -46 14 7 -11
-17 -21 -50 -21 -22 0 -24 3 -22 45 2 28 8 45 16 45 6 0 12 -8 12 -17 1 -17 1
-17 11 0 5 9 18 17 27 18 9 0 4 5 -13 10 -16 5 -38 7 -47 5 -13 -3 -18 2 -18
15 0 23 5 23 60 4 23 -8 53 -12 66 -9 15 4 24 2 24 -5 0 -6 15 -10 35 -8 41 2
42 4 13 18 -20 8 -19 9 8 5 20 -3 31 -1 31 8 0 8 -14 11 -39 10 -21 -1 -41 2
-44 7 -3 5 -23 9 -45 9 -28 0 -38 -4 -33 -12 5 -8 0 -9 -17 -5 -13 4 -28 7
-33 7 -15 0 16 30 33 31 10 0 11 2 4 6 -7 2 -13 15 -13 28 0 13 -6 26 -12 28
-9 4 -10 6 -1 6 6 1 18 -6 27 -14 16 -16 41 -21 32 -6 -12 18 37 20 111 5 38
-7 67 1 58 16 -5 8 -11 8 -19 0 -20 -16 -77 7 -69 28 4 10 8 12 11 4 2 -7 8
-10 12 -7 5 3 7 12 3 20 -3 10 1 15 13 15 14 0 15 3 6 12 -14 14 -16 48 -4 48
11 0 28 -40 27 -60 0 -8 -7 -14 -14 -12 -7 1 -10 -2 -6 -8 9 -14 35 -13 35 3
0 6 6 1 14 -13 7 -14 9 -29 4 -34 -13 -16 -9 -26 10 -26 10 0 25 -12 33 -27 8
-16 18 -31 24 -35 20 -15 -2 -17 -29 -2 -16 8 -31 12 -34 9 -7 -6 -7 -6 51
-34 27 -13 51 -29 54 -37 7 -20 -6 -49 -17 -38 -5 5 -37 7 -71 6 -68 -4 -64
-21 6 -22 46 0 85 -9 85 -19 0 -4 -17 -6 -37 -4 l-38 3 45 -16 c51 -18 73 -34
47 -34 -9 0 -17 -5 -17 -11 0 -5 4 -7 10 -4 6 3 10 2 10 -4 0 -5 17 -12 38
-16 43 -7 81 -27 47 -24 -45 3 -74 -2 -89 -16 -13 -14 -16 -13 -25 2 -8 15
-12 16 -23 4 -10 -11 -10 -14 0 -18 14 -5 17 -63 3 -63 -5 0 -11 4 -13 8 -4
12 -68 23 -68 12 0 -5 -16 -6 -35 -3 -23 4 -35 2 -35 -6 0 -6 10 -11 23 -12
12 -1 3 -5 -20 -11 -24 -5 -43 -13 -43 -18 0 -5 10 -6 23 -2 12 4 47 5 77 1
30 -3 47 -6 37 -7 -10 -1 -16 -6 -12 -11 3 -6 -9 -7 -30 -4 -23 4 -35 2 -35
-6 0 -10 16 -15 47 -14 7 1 10 -3 7 -8 -9 -15 8 -10 28 8 33 30 18 -3 -17 -37
-19 -19 -35 -40 -35 -48 0 -11 -3 -12 -13 -4 -16 14 -54 5 -61 -14 -3 -8 -17
-14 -31 -14 -14 0 -25 -4 -25 -10 0 -5 -12 -10 -26 -10 -14 0 -23 -4 -20 -9 3
-5 -4 -12 -17 -15 -12 -3 -33 -15 -47 -26 -21 -16 -22 -20 -7 -20 10 0 25 7
33 15 20 19 34 19 34 0 0 -13 99 -15 835 -15 530 0 835 4 835 10 0 5 -7 29
-15 53 -13 40 -13 49 0 81 16 37 47 52 38 17 -5 -18 17 -95 39 -138 l11 -23
346 2 c190 0 331 3 314 5 -18 2 -33 8 -33 13 0 18 18 19 48 4 42 -20 108 -31
98 -16 -4 7 -3 12 3 12 5 0 13 -5 16 -10 7 -12 205 -11 205 1 0 4 -10 9 -22
11 -12 2 -23 9 -26 17 -3 8 0 11 7 7 6 -4 11 -4 10 1 -4 18 14 43 33 43 11 0
16 4 12 11 -5 8 6 10 34 7 22 -2 38 0 36 4 -3 5 2 8 10 8 8 0 18 -5 21 -11 4
-6 13 -8 21 -5 8 3 14 1 14 -5 0 -6 9 -8 19 -4 15 5 21 0 26 -25 6 -29 9 -31
37 -25 27 6 29 5 19 -13 -6 -11 -16 -22 -23 -25 -7 -2 20 -5 60 -5 56 -1 72 2
72 14 0 7 7 14 15 14 8 0 14 -6 13 -12 -2 -10 20 -14 80 -15 78 -2 114 11 55
20 l-28 4 28 2 c16 0 30 -5 33 -14 4 -8 18 -15 32 -15 24 0 25 1 7 14 -17 12
-17 13 9 18 23 5 27 2 23 -12 -4 -16 11 -17 193 -18 149 -1 201 2 215 12 11 8
15 18 10 25 -5 9 -11 7 -22 -8 -8 -12 -18 -21 -24 -21 -5 0 1 11 13 25 26 30
39 31 63 5 17 -19 17 -20 -1 -20 -16 0 -17 -2 -4 -10 20 -13 53 -13 45 0 -8
13 14 13 55 -1 20 -7 35 -8 39 -2 12 18 41 23 41 8 0 -9 9 -15 23 -14 16 1 18
2 5 6 -20 5 -25 23 -7 23 6 0 24 -8 39 -17 24 -13 34 -15 54 -5 16 7 28 8 31
2 4 -6 77 -10 174 -10 164 0 169 1 184 23 12 18 18 20 28 10 10 -10 10 -13 1
-13 -7 0 -12 -5 -12 -10 0 -7 51 -10 150 -9 83 1 150 6 150 11 0 5 6 6 13 1 6
-4 36 -8 65 -8 40 -1 51 2 48 12 -4 8 3 13 18 13 32 0 57 -10 51 -20 -3 -4
164 -8 370 -9 387 -2 400 0 363 37 -6 6 -8 15 -4 19 4 4 11 1 16 -7 7 -10 10
-11 10 -2 0 6 4 12 10 12 6 0 5 -10 -2 -25 -14 -32 -4 -42 30 -29 15 6 40 7
55 3 15 -4 428 -8 917 -8 l890 -1 0 75 0 75 -45 0 c-25 0 -45 5 -45 11 0 6 15
8 44 4 l44 -7 1 95 2 96 -48 4 -48 3 48 2 47 2 0 1148 c0 632 -3 1152 -7 1156
-10 10 -10 76 0 76 4 0 7 56 6 124 -1 97 -4 126 -15 130 -10 4 -16 -6 -20 -35
-4 -23 -11 -38 -18 -36 -6 3 -21 -5 -33 -16 -13 -11 -23 -16 -23 -11 1 15 26
44 39 44 6 0 11 10 11 23 0 12 3 32 6 45 5 17 3 21 -9 16 -14 -5 -14 -2 -5 18
l12 24 20 -20 c12 -12 21 -24 21 -28 0 -3 4 -10 9 -15 4 -4 6 27 4 70 -2 55
-8 81 -18 87 -13 8 -12 10 3 10 16 0 17 89 17 1735 l0 1735 -5910 0 -5910 0 0
-1849z m1039 -948 c8 8 11 1 11 -27 0 -27 3 -35 13 -29 6 4 4 -5 -5 -20 -10
-14 -18 -42 -18 -61 0 -26 -7 -40 -30 -59 -16 -14 -30 -30 -30 -36 0 -6 -9
-26 -20 -46 -11 -20 -20 -51 -20 -70 0 -38 -6 -42 -35 -21 -18 13 -21 11 -38
-25 -21 -46 -57 -55 -57 -15 0 29 -18 44 -26 22 -9 -23 -24 -20 -24 5 0 17 -5
20 -25 17 -14 -3 -33 1 -42 8 -16 12 -13 18 41 67 50 47 66 56 110 61 84 11
93 16 104 49 9 30 10 30 11 7 2 -24 2 -24 16 -6 19 25 19 36 0 36 -8 0 -15 3
-16 8 0 4 -2 17 -3 30 -2 12 1 22 5 22 3 0 9 9 12 20 3 13 0 20 -8 20 -24 0
-28 21 -6 27 12 3 21 9 21 14 0 5 11 4 24 -1 15 -5 27 -5 35 3z m9511 -1138
c25 -47 6 -175 -22 -147 -6 6 -6 17 1 30 19 37 11 38 -19 3 -22 -25 -33 -32
-47 -26 -19 8 -29 11 -52 13 -32 4 25 112 59 112 11 0 24 9 30 20 14 27 34 25
50 -5z m-3856 -1831 c21 -3 42 -1 45 4 3 5 25 6 51 2 29 -5 36 -8 20 -10 l-25
-2 25 -7 c14 -4 28 -3 32 2 3 6 29 7 60 4 62 -8 144 -35 113 -37 -14 -2 -9 -6
15 -14 19 -6 42 -15 50 -21 8 -5 40 -11 70 -12 30 -1 56 -7 58 -13 2 -5 15 -7
29 -4 20 5 24 4 18 -6 -6 -10 -4 -12 8 -7 10 3 17 2 17 -2 0 -15 -22 -18 -65
-9 -22 5 -65 11 -95 13 -30 3 -98 14 -150 25 -52 11 -104 22 -115 25 -11 2
-35 8 -52 14 -20 6 -35 6 -38 0 -4 -5 4 -9 16 -9 12 0 32 -11 45 -25 23 -25
84 -36 84 -14 0 5 5 7 10 4 7 -4 6 -14 -1 -28 -9 -20 -9 -20 4 -4 8 9 25 17
38 17 17 0 20 -3 11 -9 -10 -6 -9 -10 7 -14 15 -4 21 0 22 11 1 15 2 15 6 1 3
-13 18 -16 71 -17 37 0 81 -6 97 -13 17 -7 33 -12 38 -11 4 1 7 -2 7 -8 0 -14
-33 -13 -48 2 -12 12 -102 29 -102 19 0 -11 92 -32 155 -36 33 -2 61 -9 63
-15 2 -5 10 -10 18 -10 8 0 14 -4 14 -10 0 -5 5 -10 11 -10 5 0 8 4 5 9 -7 11
14 20 32 13 11 -4 11 -7 2 -12 -8 -5 5 -12 31 -18 24 -5 52 -13 62 -17 10 -4
17 -3 17 4 0 6 4 11 10 11 5 0 9 -5 7 -11 -3 -15 61 -27 93 -18 11 3 14 -3 12
-19 -3 -21 -1 -22 17 -13 24 13 34 14 27 2 -4 -5 0 -12 6 -15 7 -3 2 -3 -11 0
-16 4 -21 3 -17 -5 4 -6 18 -11 31 -11 13 0 27 -5 30 -10 3 -6 17 -10 30 -10
25 0 42 -16 30 -28 -4 -4 -10 -1 -12 6 -3 6 -13 12 -22 12 -10 0 -44 9 -77 20
-32 11 -64 18 -72 15 -8 -3 -10 0 -6 6 4 8 -4 9 -27 4 -27 -5 -31 -4 -19 5 12
9 8 11 -17 7 -18 -2 -33 1 -33 6 0 5 -6 7 -14 4 -7 -3 -18 -1 -23 4 -5 5 -18
11 -29 13 -10 3 -30 9 -44 15 l-25 11 28 -3 c15 -3 25 -2 21 2 -8 9 -124 7
-124 -1 0 -7 26 -12 58 -11 6 1 12 -4 12 -9 0 -6 -16 -8 -37 -5 -37 5 -78 14
-78 17 0 9 -56 2 -59 -7 -8 -20 -28 -16 -61 13 -18 15 -39 24 -55 22 -14 -1
-34 3 -45 9 -14 8 -25 8 -39 1 -15 -8 -21 -8 -24 1 -2 6 -8 11 -13 11 -6 0 -8
-4 -4 -9 3 -5 1 -12 -5 -16 -5 -3 -15 3 -21 14 -7 11 -19 17 -28 13 -10 -4
-13 -1 -9 9 4 10 -2 15 -18 17 -13 1 -24 -2 -24 -7 0 -4 -31 -3 -70 4 -38 7
-70 8 -70 4 0 -4 12 -10 28 -12 27 -4 27 -4 -3 -6 -25 -1 -34 5 -50 32 -10 17
-24 36 -32 40 -7 4 -13 13 -13 18 0 6 5 7 10 4 6 -3 10 -1 10 4 0 6 -8 11 -18
11 -10 0 -31 14 -48 31 l-29 32 50 -26 c60 -31 86 -41 102 -38 6 1 14 -3 18
-9 3 -5 -1 -10 -10 -10 -9 0 -13 -5 -10 -10 5 -8 11 -7 20 0 9 8 34 9 72 5 45
-5 55 -4 43 5 -12 10 -10 11 10 6 24 -5 24 -4 6 9 -17 13 -22 13 -38 -1 -14
-14 -20 -14 -33 -4 -8 7 -32 14 -52 17 -21 3 -48 14 -60 26 -13 11 -23 15 -23
9 0 -6 -7 -9 -15 -6 -8 4 -13 10 -10 14 3 4 -3 7 -12 6 -9 0 -18 5 -21 13 -3
10 0 12 12 8 12 -5 16 -1 16 14 0 18 4 20 38 15 20 -3 55 -9 76 -12z m1231
-289 c53 -7 79 -15 78 -23 -2 -7 8 -12 21 -12 14 0 28 -4 31 -10 3 -5 11 -10
16 -10 6 0 7 5 4 10 -4 6 13 10 45 10 47 0 50 -1 36 -16 -21 -21 -21 -21 14
-16 18 2 30 0 30 -7 0 -6 6 -8 14 -5 8 3 17 1 21 -5 3 -6 16 -11 28 -10 19 0
20 1 4 8 -17 6 -15 8 9 21 21 12 28 12 31 3 3 -7 10 -13 16 -13 6 0 19 -7 29
-17 10 -9 18 -12 18 -7 0 14 198 -6 204 -21 3 -10 -4 -10 -32 -4 -20 5 -61 6
-89 3 -35 -3 -53 -1 -53 6 0 6 -10 8 -24 4 -13 -3 -33 -1 -44 5 -12 6 -23 7
-26 2 -6 -10 -86 3 -115 19 -24 12 -54 2 -47 -16 3 -8 -1 -14 -9 -14 -8 0 -15
8 -15 18 0 15 -12 21 -55 29 -30 5 -60 6 -66 2 -7 -4 -21 1 -31 11 -11 10 -28
16 -39 13 -11 -3 -19 0 -19 7 0 12 27 10 64 -5 13 -6 17 -4 14 5 -5 15 -24 20
-91 21 -26 1 -50 5 -53 10 -3 5 -14 9 -25 9 -10 0 -19 5 -19 11 0 6 9 8 23 3
12 -4 58 -13 102 -19z m-837 -80 c20 -4 32 -3 32 4 0 6 7 11 16 11 10 0 14 -6
10 -15 -3 -10 1 -15 12 -15 9 -1 34 -7 55 -14 31 -12 37 -12 37 0 0 16 9 17
30 4 13 -9 13 -10 0 -11 -8 0 21 -11 64 -24 57 -17 85 -21 98 -14 12 7 18 6
18 -1 0 -20 -28 -21 -89 -4 -34 9 -64 14 -67 11 -3 -3 18 -12 48 -20 88 -24
110 -28 104 -18 -10 16 19 19 49 6 24 -11 26 -14 10 -14 -16 -1 -17 -3 -6 -10
9 -6 22 -6 32 0 26 13 37 11 35 -7 0 -9 5 -19 12 -21 6 -3 12 2 12 10 0 10 7
13 20 10 11 -3 20 -9 20 -14 0 -5 7 -6 15 -3 8 4 15 1 15 -6 0 -9 4 -9 17 1
11 9 14 10 9 2 -5 -9 -2 -11 8 -7 9 3 14 10 11 14 -3 5 8 2 25 -7 17 -8 40
-13 51 -10 10 3 19 1 19 -3 0 -5 -8 -10 -17 -12 -15 -3 -14 -5 5 -10 12 -3 20
-3 17 2 -6 10 21 21 29 13 19 -19 3 -33 -39 -33 -34 0 -43 3 -39 14 3 8 0 17
-7 22 -8 4 -10 3 -5 -4 4 -7 1 -12 -8 -12 -9 0 -16 6 -16 13 0 7 -5 5 -10 -5
-9 -15 -14 -15 -55 -1 -25 8 -45 19 -45 25 0 5 -7 2 -16 -6 -20 -20 -48 -21
-41 -2 3 8 -1 17 -9 20 -8 3 -14 -1 -14 -9 0 -8 -7 -15 -15 -15 -9 0 -12 6 -8
17 5 12 2 15 -10 10 -9 -3 -19 -2 -23 4 -3 5 -13 9 -22 8 -10 -1 -24 1 -32 5
-8 3 -33 7 -55 9 -22 1 -45 8 -51 15 -5 8 -22 15 -37 15 -15 1 -25 7 -23 13 2
6 -42 22 -112 39 -65 16 -121 33 -127 38 -6 6 -3 7 10 4 11 -3 35 -8 53 -12z
m1767 -56 c0 -2 130 -9 233 -11 71 -2 98 -6 89 -13 -14 -11 -11 -46 7 -57 6
-4 30 -8 54 -8 23 0 42 -4 42 -9 0 -11 -77 -2 -103 11 -17 8 -18 7 -12 -14 10
-30 7 -29 48 -31 20 -2 39 -6 43 -10 11 -11 44 -8 44 3 0 6 11 10 25 10 14 0
24 -5 23 -11 -2 -6 3 -14 11 -17 9 -3 11 0 6 8 -5 8 -2 11 10 8 10 -1 20 -9
23 -16 3 -10 -11 -11 -65 -7 -37 4 -75 9 -83 12 -8 3 -27 5 -42 4 -14 -1 -29
2 -33 8 -8 14 -55 14 -55 1 0 -5 -5 -10 -11 -10 -5 0 -7 5 -4 11 4 6 -2 13
-13 16 -11 3 -23 12 -26 20 -4 9 -13 12 -26 8 -11 -3 -20 -2 -20 3 0 6 -19 13
-42 17 -24 4 -50 12 -58 17 -10 6 0 7 30 3 25 -4 52 -8 60 -9 8 -1 25 -7 37
-14 14 -8 24 -9 28 -2 4 6 23 7 44 4 36 -6 38 -4 37 17 -1 23 -4 24 -76 24
-41 0 -78 5 -82 10 -5 6 -8 5 -8 -3 0 -9 -7 -8 -25 4 -15 10 -25 12 -25 5 0
-15 -33 -14 -48 1 -7 7 -12 8 -12 2 0 -7 -20 -8 -62 -1 -95 14 -114 26 -33 22
39 -3 70 -5 70 -6z m-1925 -192 c19 -6 45 -10 58 -9 39 3 24 -6 -37 -24 -65
-18 -71 -34 -20 -56 16 -7 29 -16 29 -20 0 -5 5 -8 11 -8 5 0 7 5 4 10 -3 6 3
10 14 10 12 0 21 -6 21 -12 0 -9 2 -10 8 -2 4 6 17 14 30 18 19 6 22 4 20 -16
-2 -17 2 -22 14 -20 9 1 19 -2 23 -8 4 -6 -4 -10 -18 -10 -14 0 -27 6 -30 14
-6 14 -65 15 -87 1 -12 -7 -100 24 -100 36 0 4 6 10 13 13 8 4 7 5 -3 5 -8 -1
-22 -1 -30 0 -13 1 -13 2 0 12 12 8 11 9 -5 5 -22 -6 -32 -1 -53 26 -12 15
-11 17 10 15 13 0 26 -5 29 -10 8 -11 89 1 89 14 0 12 -37 11 -61 -1 -12 -7
-19 -7 -19 -1 0 6 -15 15 -32 20 -30 8 -27 9 27 9 33 0 76 -5 95 -11z"/>
<path d="M0 1116 c0 -99 8 -119 46 -110 10 2 33 0 49 -4 l30 -9 -39 -17 c-21
-9 -49 -16 -62 -16 -18 0 -24 -6 -24 -21 0 -18 4 -21 30 -16 16 4 32 2 36 -4
3 -5 36 -9 73 -8 38 1 73 -1 80 -5 6 -4 11 -2 11 4 0 8 9 10 24 6 28 -7 39 4
30 29 -5 11 -15 15 -30 12 -13 -2 -24 0 -24 4 0 5 -13 21 -30 35 -23 21 -28
33 -24 51 4 13 2 23 -2 22 -21 -3 -35 2 -29 11 3 5 -10 16 -30 24 -32 14 -35
18 -25 36 8 14 8 20 0 20 -6 0 -8 5 -5 10 4 6 -8 10 -29 10 -38 0 -57 16 -29
23 14 4 13 5 -4 6 -22 1 -23 -2 -23 -93z"/>
<path d="M545 1086 c11 -7 44 -19 73 -26 67 -16 72 -40 7 -38 -25 1 -45 7 -45
12 0 6 -5 5 -12 -2 -16 -16 -7 -23 42 -27 41 -4 58 -10 49 -19 -2 -2 -23 -1
-46 4 -24 4 -43 3 -43 -1 0 -5 10 -9 23 -9 37 0 51 -14 38 -38 -10 -19 -8 -22
14 -28 14 -3 30 -15 36 -25 5 -11 17 -19 27 -19 12 1 8 9 -18 31 -28 25 -30
30 -13 24 18 -5 22 -3 17 9 -7 19 -3 20 32 4 l27 -13 -24 -6 c-24 -7 -24 -7 3
-8 15 -1 30 -6 34 -12 4 -8 -1 -9 -17 -4 -19 6 -22 5 -12 -6 16 -16 83 -39 83
-28 0 5 -7 9 -15 9 -8 0 -15 7 -15 15 0 16 16 20 24 6 8 -12 116 -33 151 -29
17 2 33 7 37 12 4 6 17 5 34 -2 14 -7 29 -10 32 -7 3 3 0 5 -6 5 -7 0 -12 5
-12 11 0 8 22 9 73 4 39 -4 112 -8 160 -9 l88 -1 -5 28 c-4 20 -2 27 9 27 8 0
15 -7 15 -16 0 -10 6 -14 15 -10 17 6 46 -30 39 -49 -3 -7 8 -17 27 -24 49
-17 57 -13 21 10 -18 12 -40 35 -48 51 -10 20 -20 28 -31 24 -10 -4 -13 -2
-10 8 5 11 -6 14 -52 15 -31 0 -69 5 -84 10 -15 6 -27 7 -27 4 0 -4 -5 -2 -12
5 -7 7 -25 12 -40 12 -15 0 -45 9 -65 20 -21 11 -48 20 -60 20 -13 0 -23 4
-23 10 0 5 28 11 63 13 l62 3 -67 2 c-45 1 -68 -2 -68 -9 0 -7 -10 -9 -27 -5
-56 13 -153 22 -144 13 5 -5 28 -10 52 -12 24 -2 51 -4 59 -4 8 -1 -1 -11 -20
-21 -25 -14 -51 -19 -92 -18 -58 3 -69 14 -33 35 18 10 15 12 -23 23 -40 10
-44 9 -62 -12 -17 -21 -20 -22 -35 -7 -16 15 -15 16 12 12 46 -9 14 11 -52 31
-33 10 -73 22 -89 27 -42 13 -53 11 -31 -5z"/>
<path d="M598 888 l-28 -10 29 -24 c16 -13 35 -24 42 -24 26 0 99 -35 99 -47
0 -7 -4 -13 -10 -13 -5 0 -10 5 -10 10 0 6 -18 10 -40 10 -38 0 -54 13 -27 23
7 4 6 6 -5 6 -9 1 -18 -4 -20 -10 -5 -15 -90 -22 -119 -9 -13 6 -35 17 -49 25
-19 11 -26 11 -32 2 -5 -8 5 -18 27 -30 19 -9 35 -22 35 -27 0 -6 12 -10 26
-10 14 0 23 4 19 10 -10 16 12 12 29 -5 9 -9 38 -19 65 -22 28 -3 48 -10 45
-15 -3 -5 -12 -7 -20 -4 -8 3 -14 2 -14 -3 0 -15 145 -35 166 -23 15 9 7 11
-41 12 -36 0 -55 4 -50 9 14 14 54 17 104 7 53 -10 181 2 160 15 -10 6 -10 9
-1 9 6 0 12 9 12 20 0 22 -16 27 -22 8 -3 -8 -11 -9 -24 -3 -18 8 -18 9 4 13
16 2 22 8 18 19 -5 11 -2 13 11 8 41 -17 100 -26 132 -20 40 8 35 16 -14 20
-20 2 -43 9 -51 16 -12 10 -13 9 -8 -6 6 -15 4 -16 -13 -7 -11 6 -23 8 -27 5
-3 -3 -6 2 -6 11 0 17 -1 17 -26 1 -20 -13 -28 -14 -40 -4 -17 14 -132 6 -164
-11 -16 -8 -28 -8 -50 2 -17 7 -30 16 -30 20 0 3 -18 9 -40 13 -48 8 -53 25
-7 25 24 0 28 3 17 10 -18 11 -17 11 -52 -2z"/>
<path d="M1798 843 c16 -6 16 -33 -1 -33 -7 0 -18 5 -25 12 -19 19 -62 19 -62
0 0 -13 -2 -13 -15 4 -14 19 -20 11 -16 -23 1 -6 -3 -14 -9 -18 -5 -3 -10 -1
-10 5 0 6 -5 8 -11 4 -8 -4 -7 -9 2 -15 8 -4 14 -14 14 -21 1 -7 6 -12 13 -11
6 2 9 -4 6 -11 -4 -11 0 -13 17 -9 18 5 21 3 16 -11 -4 -10 -7 -18 -7 -19 0
-1 -24 0 -52 1 -39 3 -50 1 -42 -7 6 -6 25 -13 42 -14 31 -2 45 -19 46 -56 1
-21 25 -26 32 -7 11 28 26 17 22 -16 -3 -32 -2 -33 40 -36 23 -2 42 -7 42 -12
0 -5 15 -12 33 -15 17 -4 44 -20 58 -36 24 -27 30 -28 72 -23 46 7 66 24 27
24 -11 0 -20 5 -20 10 0 15 33 12 58 -6 12 -8 22 -10 22 -5 0 6 9 11 19 11 10
0 21 6 24 14 4 9 0 14 -11 14 -25 -1 -72 20 -72 32 0 5 13 10 29 10 17 0 31 6
35 15 4 13 2 14 -14 5 -22 -12 -60 5 -60 27 0 6 -15 13 -32 15 -18 2 -31 8
-28 13 3 6 9 9 14 7 32 -11 86 -12 86 -3 0 6 -5 11 -11 11 -5 0 -7 5 -4 10 4
6 3 10 -2 9 -21 -4 -44 2 -39 10 6 10 -37 31 -64 31 -10 0 -23 -8 -29 -17 -8
-14 -13 -15 -33 -6 -12 6 -36 14 -51 18 -15 3 -25 9 -22 14 7 12 -19 21 -61
21 -43 0 -45 17 -1 21 53 6 77 0 77 -22 0 -11 7 -19 18 -19 13 0 14 2 4 9 -8
5 8 6 40 4 39 -3 49 -2 38 6 -12 9 -11 11 7 11 28 0 37 14 18 30 -13 11 -14
10 -9 -4 6 -14 2 -16 -22 -10 -16 4 -42 15 -58 25 -16 10 -33 16 -38 13 -4 -3
-8 2 -8 10 0 10 -8 16 -22 15 -13 0 -17 -3 -10 -6z"/>
<path d="M2113 831 c-3 -11 -12 -22 -22 -24 -14 -4 -14 -5 2 -6 9 0 17 -5 17
-11 0 -14 -23 -13 -38 2 -9 9 -12 9 -12 0 0 -6 11 -14 25 -18 14 -3 25 -11 25
-18 0 -16 -38 -38 -45 -26 -3 6 -11 10 -16 10 -19 0 2 -20 36 -34 34 -14 75
-11 75 5 0 5 7 9 15 9 9 0 30 7 48 17 18 9 50 15 71 15 38 -2 39 -2 21 18 -19
21 -60 27 -70 10 -10 -17 -62 -12 -69 6 -4 9 -4 19 -1 22 3 3 5 0 5 -6 0 -7 6
-12 14 -12 9 0 3 11 -16 30 -34 35 -58 38 -65 11z"/>
<path d="M1138 830 c14 -6 22 -18 22 -35 0 -23 -3 -24 -42 -22 -48 4 -118 -11
-118 -24 0 -5 11 -11 25 -15 14 -4 24 -8 22 -10 -7 -7 -112 -26 -139 -25 -15
1 -29 -3 -33 -9 -3 -5 -15 -10 -26 -10 -10 0 -19 -5 -19 -10 0 -7 -6 -7 -19 0
-13 7 -22 7 -26 0 -9 -15 -58 -12 -81 5 -10 8 -38 15 -62 15 -24 0 -41 3 -39
8 3 4 -14 7 -36 7 -23 1 -51 4 -62 9 -16 6 -15 3 5 -13 16 -14 33 -19 48 -16
12 3 31 1 41 -5 10 -5 36 -12 56 -14 21 -3 43 -10 49 -17 8 -9 3 -10 -23 -5
-29 5 -32 4 -21 -9 11 -13 10 -18 -6 -30 -22 -17 -74 -20 -74 -5 0 6 11 8 28
4 18 -4 24 -3 17 3 -13 14 -95 24 -95 12 0 -5 -10 -9 -22 -10 -18 -1 -16 -3 9
-10 18 -5 35 -14 38 -19 11 -17 -36 -32 -79 -25 -23 3 -52 8 -66 10 -52 8
-169 35 -191 45 -21 9 -19 10 13 6 28 -4 38 -1 38 9 0 22 -58 47 -96 43 -19
-2 -34 0 -34 4 0 4 -7 8 -15 8 -8 0 -15 5 -15 12 0 6 -3 9 -6 5 -7 -7 67 -114
110 -160 14 -15 26 -34 26 -41 0 -7 9 -21 20 -31 24 -22 25 -31 5 -39 -22 -8
-47 4 -41 20 3 8 2 14 -3 14 -4 0 -12 15 -17 33 -10 34 -69 75 -111 76 -31 1
-40 21 -9 21 14 0 26 5 26 11 0 5 -4 8 -9 5 -4 -3 -16 3 -26 14 -10 11 -24 20
-32 20 -8 0 -11 4 -8 10 3 6 -3 10 -14 10 -26 0 -29 -37 -3 -56 16 -13 16 -13
0 -14 -12 0 -15 -5 -11 -16 4 -11 8 -12 13 -4 4 7 13 9 19 6 18 -11 13 -26 -8
-26 -11 0 -23 -4 -26 -10 -3 -5 1 -10 10 -10 9 0 13 -4 10 -10 -3 -6 4 -10 17
-10 13 0 30 -5 38 -11 11 -8 7 -10 -20 -6 -45 6 -60 0 -60 -24 0 -10 6 -19 13
-19 9 0 9 -2 0 -8 -7 -4 -11 -18 -10 -30 1 -20 14 -27 44 -23 7 1 13 -5 13
-14 0 -15 -10 -19 -43 -15 -16 1 -18 -7 -16 -78 l3 -80 42 4 c24 2 45 0 49 -6
3 -5 19 -10 34 -10 15 0 31 -3 35 -7 3 -4 22 -12 41 -19 29 -10 35 -9 35 2 0
8 -9 14 -20 14 -22 0 -27 16 -7 23 29 10 -4 17 -42 8 -24 -5 -43 -5 -47 0 -6
10 7 12 45 9 14 -1 21 2 17 9 -4 6 -2 11 5 11 8 0 5 7 -6 20 -10 11 -20 18
-24 16 -3 -2 -15 0 -26 5 -15 6 -10 8 20 8 23 1 47 -5 54 -12 11 -10 13 -9 7
6 -5 16 -2 18 27 12 41 -9 47 -13 47 -31 0 -8 7 -14 16 -12 22 4 25 -24 8 -58
-21 -40 -11 -52 43 -57 l48 -3 -54 -2 c-44 -2 -51 -4 -42 -16 9 -11 2 -14 -39
-15 -28 0 -79 -8 -113 -17 -38 -10 -80 -14 -109 -10 l-48 5 0 -39 0 -40 61 0
c72 0 200 20 194 30 -5 8 45 33 52 26 9 -8 -8 -26 -24 -26 -9 0 -14 -2 -11 -5
7 -8 135 24 171 42 42 21 36 54 -16 77 -30 13 -37 20 -24 23 22 6 23 49 1 57
-9 3 -28 6 -42 6 -21 0 -24 2 -12 10 13 9 13 11 0 20 -30 20 10 10 47 -12 40
-23 64 -48 57 -59 -2 -4 8 -19 21 -33 14 -15 25 -33 25 -40 0 -8 21 -24 47
-37 38 -19 48 -29 48 -49 l0 -25 195 -2 c138 -2 190 0 178 8 -22 12 -23 29 -3
29 8 0 15 -4 15 -9 0 -9 174 -31 249 -31 34 0 51 5 55 15 4 12 -3 15 -32 15
-25 0 -32 3 -23 9 7 5 9 11 5 13 -5 3 -2 3 6 0 8 -3 33 -9 55 -15 22 -5 51
-15 65 -22 31 -15 93 -9 146 15 59 27 94 35 94 21 0 -6 -8 -11 -18 -11 -28 0
-22 -28 7 -33 14 -3 131 -6 259 -6 220 -2 327 7 357 30 6 4 24 10 40 13 17 3
37 15 47 26 17 21 78 29 78 10 0 -5 18 -10 41 -10 23 0 38 -4 34 -10 -3 -5
-19 -7 -34 -4 -16 3 -32 1 -35 -5 -4 -7 5 -10 27 -9 19 1 40 -3 48 -7 7 -5 27
-8 44 -6 17 1 44 -5 60 -13 17 -9 37 -16 45 -16 8 0 -5 10 -30 21 -24 11 -48
25 -52 32 -6 9 -8 8 -8 -2 0 -11 -3 -12 -11 -4 -6 6 -18 9 -25 6 -8 -3 -14 0
-14 7 0 17 39 50 59 50 12 0 13 2 3 9 -10 6 -11 13 -1 34 14 32 29 35 29 7 0
-11 4 -20 9 -20 11 0 21 25 21 51 0 16 5 19 19 14 24 -7 58 11 91 49 14 17 33
38 43 48 16 17 15 18 -40 19 -32 1 -68 0 -80 -1 -15 -1 -23 4 -23 14 0 18 21
20 68 7 17 -5 32 -6 32 -2 0 4 -24 13 -54 20 -59 13 -78 38 -45 62 10 7 16 16
13 21 -16 26 37 -6 90 -54 11 -10 23 -18 28 -18 13 0 48 -34 48 -46 0 -6 8
-14 18 -17 9 -3 32 -10 50 -16 18 -5 30 -6 27 -1 -3 5 -19 11 -36 15 -37 8
-33 30 6 31 16 1 31 6 33 13 6 18 58 41 92 41 18 0 29 4 25 10 -3 6 0 10 8 10
8 0 17 6 20 14 3 7 23 16 45 18 22 3 61 21 90 42 29 20 58 36 66 36 7 0 19 7
26 15 7 9 28 23 46 31 19 9 34 19 34 23 0 10 -59 1 -66 -10 -3 -5 -23 -9 -45
-9 -26 0 -38 -4 -37 -12 2 -8 -9 -14 -24 -16 -16 -2 -28 -8 -28 -13 0 -5 -6
-9 -12 -8 -27 3 -39 -1 -32 -13 5 -8 -2 -9 -27 -5 -25 5 -30 4 -19 -4 11 -7 4
-10 -30 -8 -61 2 -70 1 -70 -12 0 -7 18 -8 50 -5 28 3 50 2 50 -4 0 -15 -17
-21 -72 -24 -29 -2 -54 -8 -56 -15 -2 -6 -22 -11 -45 -11 -49 0 -44 -10 6 -12
46 -2 38 -18 -9 -18 -24 0 -34 -5 -34 -15 0 -10 -10 -15 -30 -15 -16 0 -30 5
-30 10 0 6 -11 10 -25 10 -23 0 -31 14 -26 44 1 5 -5 16 -14 26 -8 9 -12 20
-8 23 3 4 -1 7 -11 7 -9 0 -28 8 -42 17 -21 13 -27 14 -34 3 -4 -7 -6 -19 -3
-27 3 -7 1 -13 -4 -13 -16 0 -23 13 -14 24 6 7 4 16 -5 24 -14 13 -19 5 -15
-20 2 -13 -24 -9 -45 7 -21 16 -59 20 -49 6 3 -6 -4 -15 -15 -21 -11 -6 -18
-15 -15 -20 3 -5 0 -12 -6 -15 -6 -4 -13 2 -16 13 -8 31 -30 34 -58 8 -18 -17
-22 -26 -13 -29 8 -4 7 -6 -4 -6 -10 -1 -18 -5 -18 -11 0 -6 -9 -6 -25 0 -16
6 -25 6 -25 0 0 -6 5 -10 11 -10 5 0 7 -5 3 -11 -8 -14 14 -29 43 -29 12 0 25
-5 29 -11 5 -9 -1 -10 -20 -5 -21 5 -27 3 -24 -6 3 -7 14 -12 25 -10 11 1 26
-4 33 -13 11 -13 7 -15 -26 -15 -30 0 -35 -3 -26 -12 22 -22 12 -29 -19 -13
-17 9 -37 14 -45 11 -8 -3 -14 -1 -14 4 0 5 12 10 27 12 28 3 45 28 19 28 -9
0 -16 5 -16 11 0 5 5 7 10 4 6 -3 10 -2 10 3 0 5 -9 12 -20 15 -13 3 -18 11
-14 21 5 12 1 14 -23 7 -15 -4 -34 -6 -40 -4 -7 3 -13 0 -13 -6 0 -14 -37 -14
-45 -1 -4 6 -12 7 -18 3 -7 -4 -23 -7 -37 -6 -18 2 -15 -1 10 -9 19 -6 29 -13
22 -15 -6 -3 -9 -9 -6 -15 4 -6 1 -14 -6 -18 -8 -5 -7 -9 5 -13 9 -4 13 -3 10
3 -4 6 8 10 27 10 28 -1 31 -2 17 -13 -9 -7 -18 -21 -20 -31 -5 -25 -40 -46
-46 -29 -6 15 -33 17 -33 3 0 -5 5 -10 12 -10 12 0 68 -58 68 -71 0 -4 10 -11
23 -15 17 -5 67 -48 67 -57 0 -9 -127 -2 -132 7 -5 7 -8 7 -8 -2 0 -9 -7 -11
-20 -7 -11 4 -20 2 -20 -4 0 -6 10 -12 23 -12 12 -1 -3 -5 -33 -10 -32 -4 -59
-4 -65 2 -5 5 1 9 17 9 15 0 33 7 42 15 8 8 19 15 25 15 23 0 70 34 71 50 0
10 -195 6 -202 -4 -5 -7 -8 -7 -8 2 0 6 -9 12 -21 12 -11 0 -17 5 -14 10 3 6
23 10 43 10 33 1 35 2 19 14 -17 13 -16 14 2 19 19 5 57 -24 46 -35 -3 -3 9
-5 27 -6 29 0 31 1 14 11 -10 7 -28 20 -40 29 -18 15 -19 19 -6 28 8 5 20 8
25 6 12 -4 36 19 28 28 -3 3 -12 1 -18 -4 -9 -7 -16 -6 -25 5 -14 17 -40 20
-40 5 0 -10 -72 -6 -89 4 -5 4 -16 -3 -24 -14 -12 -17 -21 -20 -49 -15 -25 5
-38 2 -48 -9 -7 -10 -20 -14 -31 -11 -11 4 -19 2 -19 -5 0 -8 -24 -9 -80 -5
-53 4 -80 3 -80 -4 0 -6 -11 -13 -25 -17 -14 -3 -23 -10 -20 -15 5 -8 -56 -29
-85 -29 -9 0 -22 -6 -29 -12 -11 -10 -14 -10 -18 0 -3 6 -12 12 -20 12 -12 0
-13 -3 -4 -14 9 -11 7 -15 -13 -20 -13 -3 -32 -3 -40 0 -12 4 -15 2 -11 -9 4
-10 -2 -16 -22 -20 -40 -8 -100 -24 -163 -42 -30 -9 -86 -18 -124 -19 -51 -2
-72 -7 -81 -19 -13 -18 -91 -25 -80 -8 6 11 -54 30 -95 32 -14 0 -43 6 -65 14
l-40 13 43 1 c24 1 41 5 38 10 -4 5 8 13 26 17 l33 7 -34 9 c-26 7 -31 12 -20
19 8 5 24 9 37 9 22 0 166 24 222 37 25 6 25 6 -5 13 -28 6 -29 7 -8 14 31 10
106 -11 99 -29 -2 -7 2 -16 9 -19 8 -3 12 -11 10 -18 -6 -14 -3 -14 111 -20
59 -3 71 -1 70 12 -1 8 14 22 31 31 18 9 30 19 26 23 -3 3 0 6 8 6 8 0 25 9
38 19 14 10 31 17 38 14 7 -3 26 5 43 17 34 24 34 38 1 20 -18 -9 -21 -8 -21
10 0 16 7 20 33 20 17 0 37 4 44 8 6 4 -15 7 -47 7 -32 1 -58 -3 -57 -8 1 -5
-4 -12 -10 -14 -7 -3 -13 0 -13 6 0 6 -9 11 -20 11 -14 0 -20 -7 -20 -21 0
-18 -3 -19 -14 -10 -9 8 -32 10 -60 7 -139 -18 -143 -18 -116 -2 14 9 43 15
64 16 l39 0 -21 19 c-26 22 -28 31 -7 31 8 0 15 -7 15 -15 0 -12 12 -15 53
-14 51 1 121 16 85 18 -10 1 -18 8 -18 16 0 9 -9 15 -25 15 -14 0 -25 -4 -25
-10 0 -5 7 -10 15 -10 8 0 15 -5 15 -11 0 -14 -59 -1 -78 17 -11 12 -11 14 4
14 14 0 15 3 7 11 -7 7 -49 12 -102 13 -74 1 -93 4 -103 19 -11 14 -19 16 -38
9 l-25 -10 29 -7 c35 -10 61 -22 103 -52 17 -13 36 -23 42 -23 6 0 11 -4 11
-10 0 -11 -24 -13 -69 -4 -17 4 -28 11 -25 16 3 5 15 6 27 3 17 -5 15 -1 -8
14 -47 33 -192 75 -262 77 -35 1 -63 -1 -63 -5 0 -7 32 -29 70 -49 l25 -12
-25 6 c-14 3 -45 8 -70 10 -33 4 -41 3 -30 -5 8 -6 26 -11 40 -11 14 0 36 -7
50 -15 14 -8 40 -14 58 -15 30 0 32 -2 21 -21 -8 -16 -13 -18 -19 -9 -4 7 -12
10 -18 6 -5 -3 -30 5 -54 19 -24 14 -59 25 -79 25 -20 0 -57 9 -83 20 -35 16
-50 18 -65 10 -11 -5 -37 -11 -58 -11 -21 -1 -29 -3 -18 -6 11 -2 30 -6 41 -8
28 -6 40 -45 14 -45 -10 0 -20 -4 -22 -10 -2 -6 -26 -4 -63 5 -33 8 -83 14
-112 15 -28 0 -55 5 -58 10 -4 6 6 10 23 10 46 0 92 12 86 21 -3 5 -9 7 -14 4
-15 -9 -110 -12 -110 -3 0 7 50 13 74 9 5 -1 22 1 38 4 25 6 27 9 16 23 -14
17 -15 17 39 -5 11 -4 14 -3 9 5 -4 7 -13 12 -21 12 -8 0 -16 4 -19 8 -7 12
36 12 51 0 7 -6 24 -8 38 -6 20 4 23 3 14 -8 -9 -11 -6 -14 14 -14 28 0 44 25
21 34 -9 3 -28 6 -44 6 -42 0 -58 9 -53 30 3 12 -2 20 -14 23 -10 3 -4 5 12 4
19 -1 30 -7 30 -17 0 -8 5 -18 10 -22 16 -12 55 -9 55 3 0 6 9 9 20 6 11 -3
18 -2 16 2 -2 3 23 7 55 8 33 0 72 6 87 11 15 6 36 14 47 18 11 4 23 6 28 6 4
-1 7 2 7 8 0 5 -9 10 -20 10 -11 0 -20 -4 -20 -9 0 -5 -10 -7 -22 -3 -14 3
-19 2 -14 -6 4 -7 6 -12 4 -12 -2 -1 -20 -3 -40 -6 -20 -3 -45 -1 -55 5 -16 9
-15 10 7 11 32 0 113 28 121 42 5 7 18 6 43 -2 21 -7 40 -10 43 -7 3 3 -13 11
-36 18 -51 15 -55 31 -5 17 25 -6 39 -6 43 0 3 6 13 10 21 10 8 -1 44 0 80 1
l65 3 -42 9 c-43 10 -80 39 -50 39 9 0 19 -4 22 -10 9 -15 28 -12 22 4 -4 10
6 14 41 13 37 0 191 41 159 43 -19 0 23 30 45 31 17 1 18 3 6 6 -10 2 -18 9
-18 14 0 12 7 11 30 -1 20 -11 83 -2 75 10 -6 10 33 25 57 21 9 -1 19 3 23 9
4 6 -5 10 -24 10 -19 0 -36 8 -46 23 l-17 22 7 -22 c6 -20 4 -22 -32 -16 -21
3 -39 10 -41 14 -2 4 -10 5 -18 2 -8 -3 -20 0 -27 6 -8 6 -31 13 -53 16 -31 4
-34 3 -16 -5z"/>
<path d="M3040 830 c0 -5 -7 -6 -17 -3 -12 5 -14 3 -8 -7 6 -10 1 -12 -23 -7
-21 4 -32 3 -32 -4 0 -8 -4 -8 -14 0 -8 7 -17 8 -20 3 -4 -7 180 -101 259
-132 23 -9 94 -41 158 -69 42 -20 65 -25 102 -22 19 2 19 2 2 12 -9 6 -26 7
-37 4 -13 -4 -23 0 -32 14 -7 12 -19 21 -27 21 -14 0 -81 20 -91 28 -11 8 25
20 39 13 9 -4 27 -5 41 0 24 7 24 7 3 8 -27 1 -31 21 -5 22 9 0 12 3 5 5 -7 3
-22 0 -34 -6 -17 -10 -23 -9 -30 1 -6 11 -13 11 -26 3 -20 -12 -46 -7 -38 6 3
5 -9 5 -27 -1 -18 -5 -34 -5 -37 0 -9 13 -82 42 -91 36 -5 -3 -12 -1 -15 5 -4
6 -3 10 2 9 25 -4 63 2 63 12 0 5 -6 7 -12 3 -8 -4 -9 -3 -5 2 9 9 13 10 65
12 35 2 47 32 12 32 -11 0 -20 -4 -20 -10 0 -11 -28 -9 -48 3 -7 5 -22 5 -33
2 -15 -5 -19 -4 -15 4 4 6 2 11 -3 11 -6 0 -11 -4 -11 -10z"/>
<path d="M2310 578 c0 -4 -15 -8 -32 -8 -44 0 -64 -13 -46 -28 9 -7 19 -8 28
-2 8 6 24 10 35 10 19 -1 19 -1 2 -14 -14 -11 -15 -15 -5 -19 7 -3 -6 -6 -29
-6 -24 -1 -43 3 -43 8 0 12 -69 -7 -86 -24 -8 -7 -33 -16 -56 -20 -24 -4 -61
-13 -83 -21 -22 -7 -61 -15 -87 -17 -57 -6 -198 -39 -198 -47 0 -3 -18 -4 -40
-2 -29 3 -47 -1 -60 -13 -14 -12 -27 -15 -47 -10 -21 5 -24 8 -12 16 7 5 24 9
37 9 13 0 20 4 17 10 -4 6 12 10 40 10 25 0 44 4 41 9 -3 4 -17 6 -31 3 -14
-2 -32 1 -40 8 -13 10 -19 9 -35 -5 -11 -10 -33 -18 -50 -17 -16 0 -30 -3 -30
-8 0 -17 -38 -20 -73 -5 -20 8 -44 15 -54 14 -14 0 -15 -2 -3 -6 8 -3 38 -16
66 -29 28 -13 58 -24 67 -24 11 0 17 -8 17 -21 0 -16 6 -20 28 -18 15 1 40 -3
55 -10 22 -9 34 -8 56 3 15 8 48 14 73 13 34 -1 54 4 77 21 17 12 36 22 43 22
7 0 27 7 43 16 17 9 46 17 65 19 51 4 130 26 130 36 0 13 57 11 65 -2 5 -6 11
-4 19 7 10 13 21 15 44 11 17 -4 34 -2 37 3 3 6 15 10 26 10 10 0 19 5 19 10
0 6 7 10 16 10 9 0 28 6 42 14 15 8 47 20 72 27 45 13 77 35 67 45 -3 3 -15 0
-27 -6 -16 -9 -25 -8 -36 1 -11 9 -18 9 -26 1 -7 -7 -18 -12 -25 -12 -11 0
-11 5 -3 20 10 18 8 20 -30 18 -22 -1 -40 -5 -40 -10z"/>
<path d="M2814 164 c11 -8 23 -14 27 -14 4 0 9 -6 12 -13 7 -18 -26 -19 -75
-1 -45 15 -73 5 -50 -18 9 -9 4 -14 -24 -24 -35 -12 -69 -9 -90 8 -12 9 -70 5
-81 -5 -3 -4 0 -7 8 -7 9 0 25 -9 37 -20 25 -23 31 -10 6 14 -19 20 -5 21 21
2 11 -8 26 -11 34 -8 9 3 12 1 8 -6 -5 -7 3 -8 28 -1 25 7 47 6 82 -5 45 -13
46 -15 24 -23 -16 -7 -20 -12 -13 -17 7 -4 10 -12 7 -17 -4 -5 37 -9 102 -8
103 1 107 8 10 21 -15 2 -27 8 -26 14 0 5 6 7 13 5 29 -9 94 -9 118 1 32 12
28 28 -7 28 -12 0 -25 6 -28 14 -4 10 2 13 19 12 13 0 24 -4 24 -7 0 -4 8 -9
18 -13 9 -3 24 -9 32 -13 8 -3 -3 9 -25 28 -25 21 -39 41 -37 52 3 12 -3 17
-21 17 -14 0 -27 -5 -29 -12 -3 -8 -24 -5 -74 10 -48 14 -63 16 -50 6z"/>
<path d="M3093 134 c16 -9 39 -13 51 -10 16 4 33 -3 56 -24 19 -17 38 -30 42
-30 5 0 6 -5 2 -11 -5 -8 0 -10 17 -6 19 5 28 0 44 -23 19 -29 23 -30 97 -30
71 0 106 11 76 23 -8 3 -6 6 5 6 9 1 17 6 17 11 0 6 -6 10 -12 9 -22 -3 -98
13 -104 22 -3 5 -13 9 -23 9 -10 0 -26 9 -37 21 -10 11 -25 18 -34 16 -17 -4
-43 17 -33 27 4 3 -3 6 -14 6 -11 0 -26 -7 -33 -15 -11 -13 -15 -13 -33 0 -12
8 -42 15 -67 15 l-45 -1 28 -15z"/>
</g>
</svg>
