<?xml version="1.0" standalone="no"?>
<!DOCTYPE svg PUBLIC "-//W3C//DTD SVG 20010904//EN"
 "http://www.w3.org/TR/2001/REC-SVG-20010904/DTD/svg10.dtd">
<svg version="1.0" xmlns="http://www.w3.org/2000/svg"
 width="1182.000000pt" height="664.000000pt" viewBox="0 0 1182.000000 664.000000"
 preserveAspectRatio="xMidYMid meet">
<metadata>
Created by potrace 1.13, written by Peter Selinger 2001-2015
</metadata>
<g transform="translate(0.000000,664.000000) scale(0.100000,-0.100000)"
fill="#000000" stroke="none">
<path d="M0 4781 l0 -1860 62 -14 c35 -9 52 -16 38 -16 -14 0 -42 3 -62 8 -37
9 -38 8 -38 -19 0 -26 3 -28 58 -35 31 -4 62 -11 67 -15 6 -4 44 -13 85 -19
41 -6 91 -14 110 -18 19 -3 47 -6 62 -6 15 0 25 -4 21 -10 -8 -14 -108 -2
-238 28 -148 33 -165 33 -165 -4 0 -25 4 -29 37 -35 60 -9 101 -7 106 7 3 8
11 5 26 -10 12 -13 32 -23 43 -23 25 0 14 15 -17 24 -11 3 3 3 30 0 28 -3 53
-10 56 -15 3 -5 14 -7 24 -3 12 5 16 4 12 -3 -4 -6 5 -13 23 -15 34 -5 39 -1
10 10 -54 20 312 -7 374 -28 15 -5 32 -8 36 -5 5 3 32 -3 62 -14 29 -11 82
-22 118 -25 53 -4 59 -4 33 5 -18 5 -33 14 -33 19 0 6 -12 10 -27 10 -16 0
-46 5 -68 12 -22 6 -47 11 -56 9 -8 -1 -26 3 -40 8 -19 8 -11 10 41 9 36 -1
79 -5 95 -9 28 -8 29 -7 11 6 -11 8 -30 15 -43 15 -13 0 -23 5 -23 10 0 12 11
12 65 1 22 -4 51 -4 65 -1 18 5 5 9 -45 14 -38 4 -99 14 -135 22 l-65 14 85
-6 c47 -3 101 -7 120 -10 24 -3 30 -2 20 4 -8 5 -69 15 -135 22 -127 13 -181
28 -110 31 l40 1 -45 14 -45 14 49 -5 c27 -3 55 -10 62 -16 7 -6 21 -8 31 -5
10 3 40 -1 66 -9 26 -8 45 -10 42 -5 -8 14 7 12 45 -3 22 -10 46 -11 83 -6 30
5 55 5 62 -1 14 -12 100 -20 265 -25 125 -3 160 3 160 30 0 18 -13 15 104 24
84 6 102 11 117 29 9 12 22 22 28 22 6 0 11 7 11 15 0 9 6 18 14 21 23 9 28
35 9 49 -16 12 -16 14 0 29 9 10 17 26 17 36 0 24 16 34 54 34 30 1 46 19 27
31 -15 9 -14 21 5 39 12 12 14 27 8 61 -3 25 -10 45 -15 45 -5 0 -9 8 -9 18 0
13 2 14 9 4 6 -10 12 -7 25 14 10 14 19 36 20 48 2 11 10 35 19 52 14 27 14
34 3 43 -10 9 -15 8 -20 -4 -5 -15 -8 -15 -21 -1 -20 19 -19 32 3 48 11 7 21
20 24 28 4 11 9 6 18 -15 6 -16 13 -37 15 -47 2 -9 10 -29 18 -45 13 -25 13
-32 0 -63 -11 -28 -12 -46 -4 -90 6 -30 10 -68 8 -84 -1 -16 3 -31 9 -33 15
-5 25 49 12 65 -8 9 -8 24 0 50 7 20 10 64 7 97 -3 33 -5 78 -5 100 -1 22 -7
57 -15 78 -15 37 -14 38 10 49 23 10 29 8 55 -20 36 -40 65 -43 56 -7 -4 17
-2 25 6 25 8 1 6 6 -5 15 -11 7 -25 11 -32 9 -7 -3 -15 5 -19 21 -4 14 -18 31
-31 37 -40 18 -30 35 22 35 37 0 50 5 68 25 l21 25 13 -29 c12 -25 17 -28 42
-23 18 4 36 2 44 -5 17 -14 50 -5 40 10 -3 5 2 10 12 10 14 0 15 2 5 9 -11 7
-10 10 3 15 9 3 22 3 27 -1 7 -3 8 -1 4 5 -4 7 -16 12 -27 12 -10 0 -19 5 -19
10 0 6 7 10 15 10 8 0 15 5 15 10 0 6 8 10 18 10 16 1 16 1 0 14 -24 17 -23
26 3 26 13 0 18 -4 13 -12 -4 -7 -3 -8 5 -4 6 4 9 12 5 17 -3 6 2 17 12 24 18
13 18 14 -3 8 -17 -4 -23 -1 -23 11 0 9 -7 16 -15 16 -16 0 -51 47 -42 57 4 3
13 0 22 -7 12 -10 15 -10 15 4 0 9 -4 16 -8 16 -16 0 -43 59 -37 83 4 15 1 28
-9 36 -10 9 -16 30 -16 57 0 33 -4 44 -18 48 -10 4 -19 13 -19 21 0 19 5 19
23 0 21 -20 37 -19 52 5 7 11 9 20 5 20 -5 0 -9 11 -9 25 -1 14 2 25 6 25 4 0
11 11 14 25 4 14 11 25 16 25 5 0 7 -7 3 -16 -4 -12 -2 -15 8 -12 20 7 24 38
5 38 -9 0 -16 5 -16 10 0 6 5 10 10 10 13 0 13 47 0 55 -6 4 -22 -1 -36 -10
-14 -9 -29 -13 -32 -9 -4 4 -1 9 6 11 20 8 14 22 -8 16 -11 -3 -20 0 -20 6 0
6 5 11 10 11 6 0 10 7 10 16 0 14 7 15 44 10 40 -6 46 -5 57 16 7 13 13 30 14
38 5 48 18 81 30 76 9 -3 15 4 17 17 2 12 9 21 16 19 7 -1 16 8 21 20 9 24 51
67 51 53 0 -4 6 -2 14 4 15 13 186 21 186 9 0 -5 7 -8 15 -8 8 0 15 -4 15 -9
0 -5 16 -12 35 -15 19 -4 41 -13 49 -21 11 -11 25 -13 60 -6 31 6 47 5 50 -3
2 -6 5 -3 5 7 1 10 5 15 11 12 5 -3 19 -1 30 5 39 21 122 29 145 14 11 -7 29
-13 40 -12 11 0 32 -3 48 -7 21 -6 27 -4 27 9 0 12 10 16 35 16 24 0 35 5 35
15 0 8 7 15 15 15 8 0 15 -3 15 -7 0 -5 72 -9 160 -10 96 -1 160 2 160 7 0 6
33 10 73 10 39 0 98 6 129 14 32 7 68 11 80 9 13 -2 41 0 63 5 47 10 101 -1
130 -28 12 -11 50 -22 98 -29 43 -6 91 -18 107 -26 16 -8 36 -15 45 -15 8 0
15 -5 15 -11 0 -5 4 -8 9 -5 5 4 40 -10 77 -29 65 -34 71 -35 153 -31 57 3 96
0 116 -8 70 -30 87 -36 105 -36 10 0 20 -8 22 -17 3 -13 -9 -24 -42 -40 -25
-12 -52 -22 -61 -22 -9 -1 -24 -10 -33 -20 -17 -18 -16 -19 16 -15 85 9 300
15 315 9 10 -5 21 -7 26 -7 4 1 7 -1 7 -6 0 -9 66 -9 75 0 14 14 46 -6 52 -33
3 -16 9 -29 13 -29 4 0 10 -16 12 -35 3 -30 1 -35 -16 -35 -29 0 -14 -10 20
-12 16 -1 36 -9 44 -18 8 -9 29 -23 46 -30 17 -8 37 -23 44 -34 12 -20 12 -20
-6 -5 -10 9 -50 31 -89 50 l-70 34 -170 0 c-216 0 -348 -23 -471 -81 -26 -12
-32 -19 -22 -25 9 -6 9 -12 3 -16 -14 -11 -12 -30 10 -80 14 -33 23 -43 42
-43 13 0 23 6 23 14 0 16 69 55 86 49 7 -2 10 -13 7 -23 -3 -12 0 -20 6 -20 7
0 10 -4 6 -9 -3 -5 3 -12 13 -15 10 -3 24 -22 31 -41 7 -19 16 -35 21 -35 11
0 20 26 20 56 0 14 4 22 10 19 12 -7 14 -105 2 -105 -10 0 -2 -79 9 -86 5 -3
9 4 9 15 0 16 9 21 44 26 42 7 92 -7 82 -23 -12 -20 16 -52 56 -63 24 -7 50
-19 59 -26 9 -8 24 -10 34 -7 12 5 23 1 31 -11 8 -10 14 -14 14 -8 0 6 6 10
13 9 6 0 13 3 14 9 2 12 35 24 48 17 6 -4 17 -7 25 -7 20 0 14 -63 -8 -89 -13
-14 -4 -12 38 10 30 15 57 28 60 29 3 0 10 3 15 6 13 9 62 18 103 21 17 1 32
6 32 10 0 4 8 5 18 1 14 -5 13 -3 -3 10 -18 14 -23 14 -42 1 -38 -24 -56 -18
-48 15 3 17 2 32 -4 36 -6 3 -11 2 -11 -4 0 -15 -29 -41 -46 -41 -9 0 -2 13
19 33 30 27 37 43 48 107 17 101 18 222 1 243 -8 9 -11 25 -7 36 6 19 9 18 41
-15 27 -29 39 -35 59 -30 14 4 25 2 25 -3 0 -6 7 -8 15 -5 8 4 15 1 15 -5 0
-6 7 -11 15 -11 8 0 15 -4 15 -10 0 -5 9 -10 20 -10 11 0 20 -3 20 -7 0 -5 14
-16 30 -25 23 -13 30 -24 30 -47 0 -39 9 -61 26 -61 8 0 14 -9 14 -19 0 -12 9
-21 25 -25 14 -4 26 -12 26 -19 2 -20 10 -60 25 -134 3 -14 12 -23 24 -23 31
0 32 17 4 45 -29 29 -27 40 5 30 12 -3 21 -15 21 -25 0 -10 5 -22 10 -25 14
-8 13 -25 -1 -25 -7 0 -17 -7 -24 -16 -10 -14 -19 -15 -61 -6 -28 6 -93 14
-145 18 -52 4 -99 11 -106 16 -9 7 -14 2 -19 -16 -5 -20 -12 -26 -34 -26 -16
0 -30 -7 -34 -16 -3 -9 -11 -14 -18 -12 -13 5 -53 -31 -44 -39 3 -3 13 0 22 7
13 11 17 11 24 0 5 -8 15 -10 26 -5 11 4 26 9 34 11 8 1 31 8 51 15 20 6 43 9
50 6 9 -3 6 -6 -7 -6 -21 -1 -77 -51 -56 -51 6 0 17 6 24 13 7 6 20 13 28 15
8 1 3 -8 -12 -21 -16 -12 -28 -28 -28 -35 0 -7 -7 -12 -15 -12 -8 0 -15 -4
-15 -9 0 -16 38 -23 59 -12 48 26 56 4 9 -24 -26 -15 -29 -20 -15 -23 9 -2 33
6 52 18 21 13 35 17 35 10 0 -7 -9 -14 -20 -17 -11 -3 -17 -10 -14 -15 4 -5
-9 -23 -27 -39 l-34 -30 33 16 c19 9 43 18 54 20 18 4 19 3 5 -18 -8 -12 -43
-44 -78 -70 -158 -120 -199 -153 -204 -167 -4 -8 6 -3 22 11 15 15 73 57 128
94 55 37 109 75 121 84 11 9 4 0 -16 -19 -20 -19 -82 -68 -138 -109 -57 -40
-107 -82 -113 -92 -13 -26 -29 -24 -28 4 0 12 -5 95 -12 184 l-12 162 28 37
28 37 -24 -8 c-13 -4 -35 -7 -49 -7 -14 0 -19 -3 -12 -5 17 -7 15 -23 -3 -23
-13 0 -14 -4 -4 -21 12 -24 -5 -69 -27 -69 -6 0 -14 -7 -18 -15 -3 -8 -13 -15
-21 -15 -14 0 -13 -5 5 -30 15 -21 19 -35 12 -43 -12 -15 8 -65 24 -60 7 2 15
-12 18 -32 4 -19 11 -35 17 -35 11 0 0 -53 -13 -58 -11 -5 -10 -52 1 -52 12 0
34 -66 28 -83 -2 -6 5 -20 16 -29 11 -10 15 -18 9 -18 -6 0 -9 -7 -6 -15 4 -8
1 -15 -5 -15 -27 0 -6 -37 60 -101 58 -57 90 -81 89 -66 -1 11 -68 166 -71
163 -2 -3 -5 5 -5 17 -1 12 -11 54 -23 92 l-21 70 48 44 c26 24 77 63 113 86
36 24 83 58 105 76 33 28 35 29 14 5 -14 -15 -76 -66 -138 -113 -62 -47 -115
-90 -119 -96 -9 -14 5 -5 132 85 71 51 94 64 66 38 -63 -58 -43 -61 26 -5 l58
47 -60 -57 c-33 -31 -92 -81 -131 -110 -68 -51 -93 -75 -79 -75 9 0 96 66 158
120 29 25 68 56 87 69 l35 23 -35 -31 c-19 -17 -53 -48 -75 -69 -22 -21 -66
-58 -97 -82 -32 -25 -58 -48 -58 -53 0 -9 100 64 155 113 22 20 58 49 80 64
l40 27 -39 -33 c-93 -80 -111 -97 -106 -101 9 -9 139 93 145 114 4 10 13 19
21 19 8 0 13 4 10 9 -6 9 45 31 73 31 14 0 14 -2 1 -10 -13 -8 -13 -11 -1 -19
8 -5 11 -16 8 -25 -3 -8 -1 -18 5 -22 8 -5 -87 -45 -129 -54 -1 0 0 7 3 15 12
29 -16 14 -83 -45 -38 -33 -91 -79 -120 -103 -29 -23 -52 -46 -52 -50 -1 -12
52 28 120 89 48 42 75 56 154 82 104 35 141 41 115 19 -20 -16 -23 -37 -6 -37
18 0 29 -29 13 -35 -6 -2 -49 -16 -94 -31 -46 -15 -83 -31 -83 -35 0 -11 6
-11 28 0 26 14 162 44 169 37 3 -3 -1 -8 -10 -12 -9 -3 -13 -12 -10 -20 3 -8
-3 -17 -13 -21 -17 -6 -16 -8 6 -13 22 -6 16 -10 -49 -43 -41 -20 -83 -37 -93
-37 -10 0 -18 -5 -18 -10 0 -7 14 -9 35 -5 19 3 52 7 73 10 l37 4 -40 -19
c-22 -11 -44 -20 -50 -20 -5 0 -21 -9 -35 -20 -19 -15 -21 -20 -8 -20 9 0 27
4 40 9 13 4 43 11 68 15 41 6 43 5 20 -7 -14 -7 -44 -18 -67 -25 -70 -21 -66
-36 7 -28 55 6 62 5 51 -7 -6 -8 -23 -18 -36 -21 -38 -10 -30 -26 13 -26 34
-1 35 -2 18 -15 -25 -19 -12 -37 19 -25 15 6 27 6 30 -1 4 -5 11 -7 16 -4 5 4
16 -1 25 -9 14 -15 13 -16 -6 -16 -12 0 -18 -4 -15 -11 4 -6 34 -8 78 -5 40 2
64 2 55 -1 -10 -2 -18 -12 -18 -22 0 -16 7 -17 50 -13 28 2 50 2 50 -1 0 -8
-161 -57 -187 -57 -12 0 -28 -6 -35 -13 -7 -7 -21 -16 -30 -19 -13 -5 -17 -27
-9 -45 1 -1 29 5 62 13 34 8 64 12 66 10 6 -6 -65 -25 -128 -35 -34 -6 -54
-16 -73 -37 -30 -34 -33 -45 -8 -38 16 5 16 5 0 -9 -10 -8 -18 -17 -18 -21 0
-10 -42 -45 -54 -46 -4 0 -6 7 -2 15 8 23 -4 45 -25 45 -22 0 -39 -32 -21 -38
22 -7 13 -22 -13 -22 -23 0 -30 -10 -25 -35 1 -5 -6 -15 -15 -21 -15 -11 -13
-14 12 -26 34 -16 32 -30 -6 -43 -45 -15 -48 -25 -8 -25 20 0 38 -4 41 -9 6
-9 -36 -31 -59 -31 -8 0 -17 -5 -21 -12 -5 -7 0 -9 14 -6 13 4 23 0 27 -10 7
-18 5 -20 -21 -26 -40 -9 -64 -19 -64 -27 0 -5 7 -10 15 -10 31 -3 35 -4 36
-14 0 -5 -18 -13 -42 -17 -64 -11 -73 -28 -15 -28 29 0 45 -4 41 -10 -3 -6 0
-10 7 -11 29 -2 -40 -17 -85 -18 -46 -1 -137 -35 -137 -51 0 -5 17 0 37 10 22
10 44 15 52 10 7 -4 34 -6 60 -4 l46 3 -40 -9 c-22 -5 -52 -9 -66 -9 -15 -1
-48 -13 -73 -27 -51 -29 -57 -45 -7 -19 19 9 52 15 84 14 28 -1 63 1 76 6 15
4 21 4 17 -3 -3 -6 -30 -13 -59 -17 -70 -8 -146 -25 -151 -34 -3 -4 34 -6 82
-4 56 2 80 0 67 -6 -11 -5 -23 -7 -27 -4 -9 5 -152 -33 -176 -46 -22 -13 -6
-14 55 -2 64 13 168 20 151 10 -7 -4 -69 -19 -137 -33 -68 -14 -126 -28 -130
-32 -6 -6 67 -1 169 12 74 9 26 -13 -55 -26 -117 -19 -141 -30 -56 -26 43 2
68 0 60 -5 -8 -5 -26 -9 -41 -9 -30 0 -107 -27 -123 -43 -6 -6 -2 -7 12 -3 11
4 45 11 75 16 29 5 64 12 78 15 49 12 -3 -12 -85 -40 -44 -14 -89 -30 -100
-35 -11 -5 -30 -12 -43 -15 -13 -4 -21 -9 -19 -12 3 -2 37 5 77 17 113 34 215
58 220 53 8 -8 -25 -22 -125 -54 -141 -44 -156 -50 -188 -76 -16 -13 -36 -23
-45 -23 -23 -1 -161 -48 -143 -49 30 -2 166 42 192 61 24 18 219 76 314 94 38
7 -49 -27 -186 -71 -58 -19 -119 -45 -134 -57 -15 -12 -77 -36 -138 -54 -60
-18 -115 -38 -120 -43 -19 -19 217 49 247 71 54 39 226 79 198 45 -6 -6 -12
-27 -14 -45 -2 -25 -11 -38 -33 -50 -16 -9 -32 -20 -35 -23 -3 -4 -15 -9 -27
-13 -27 -9 -39 -36 -15 -37 9 -1 20 -1 25 0 13 2 7 -27 -10 -47 -11 -12 -36
-24 -60 -27 -23 -3 -55 -12 -70 -20 -15 -8 -34 -15 -41 -15 -7 0 -15 -7 -19
-16 -4 -12 -18 -15 -55 -13 -54 3 -68 -7 -60 -47 2 -13 0 -24 -6 -24 -6 0 -14
-9 -17 -20 -6 -19 -45 -29 -45 -11 0 12 -71 -5 -80 -19 -4 -6 -14 -8 -23 -4
-12 4 -17 1 -17 -10 0 -12 -10 -16 -39 -16 -22 0 -42 5 -44 13 -3 6 -6 2 -6
-10 -1 -25 -16 -31 -24 -10 -3 7 -6 4 -6 -6 -1 -12 -5 -16 -13 -11 -10 6 -10
4 0 -8 11 -14 10 -17 -9 -23 -13 -5 -24 -2 -29 6 -7 10 -12 10 -27 -2 -17 -13
-17 -13 -4 4 9 11 22 16 34 13 47 -12 -1 10 -85 39 -51 18 -109 41 -128 53
-20 13 -43 19 -56 16 -12 -3 -25 -1 -28 5 -4 6 -12 11 -19 11 -8 0 -8 -3 1
-12 7 -7 12 -19 12 -27 0 -12 -3 -12 -12 -3 -18 18 -28 15 -21 -5 6 -16 5 -16
-10 -4 -9 7 -15 17 -12 21 3 4 -3 14 -13 21 -15 13 -16 12 -3 -4 15 -20 4 -22
-20 -4 -16 12 -14 37 5 49 8 5 7 8 -2 8 -7 0 -15 -7 -19 -16 -5 -13 -7 -13
-14 -2 -5 7 -19 14 -31 15 -13 0 -34 5 -48 9 -23 7 -24 7 -8 -9 9 -9 22 -17
29 -17 9 0 8 -5 -4 -17 -9 -10 -27 -18 -39 -18 -32 0 -71 -75 -58 -111 9 -23
8 -25 -7 -19 -10 4 -27 10 -38 13 -17 5 -16 7 10 14 26 6 25 7 -12 5 -23 -1
-39 1 -37 5 3 4 -6 13 -20 20 -14 6 -26 17 -26 25 0 14 -18 17 -44 7 -11 -4
-13 -10 -7 -18 5 -6 7 -17 3 -23 -5 -8 -19 -6 -46 8 -22 10 -42 16 -45 12 -10
-13 -61 -15 -61 -3 0 6 -13 2 -29 -9 -16 -12 -34 -21 -40 -21 -6 0 -11 -4 -11
-9 0 -13 -27 -21 -45 -15 -23 9 -18 26 5 19 14 -4 20 -2 20 9 0 9 12 19 28 22
32 8 52 22 52 38 0 6 -7 3 -14 -7 -22 -29 -52 -20 -48 15 1 3 -5 9 -13 12 -8
3 -15 1 -15 -4 0 -19 -25 -10 -35 12 -11 24 -35 36 -35 18 0 -6 4 -9 9 -6 5 3
11 -3 14 -14 4 -15 0 -20 -14 -20 -14 0 -19 7 -19 28 0 19 -3 23 -9 13 -7 -11
-13 -9 -30 8 -11 11 -21 26 -21 31 0 17 -25 11 -39 -9 -8 -11 -19 -18 -25 -16
-54 16 -66 15 -66 -5 0 -11 -7 -20 -15 -20 -14 0 -13 -3 1 -25 9 -14 22 -25
30 -25 7 0 11 -6 8 -14 -3 -8 4 -16 17 -19 41 -11 12 -19 -41 -12 -42 6 -49 9
-39 21 9 11 8 14 -4 14 -8 0 -17 6 -20 14 -4 10 0 14 14 11 10 -2 19 0 19 6 0
5 -6 9 -14 9 -23 0 -46 -11 -41 -20 3 -5 -4 -12 -16 -15 -24 -8 -59 19 -59 47
0 17 33 25 80 18 25 -3 5 10 -29 20 -18 5 -33 5 -36 -1 -12 -18 -38 -10 -32
10 3 13 -1 21 -14 24 -12 3 -17 1 -12 -6 4 -7 -2 -8 -18 -3 -59 18 -101 26
-109 21 -4 -3 -10 0 -12 7 -4 10 -10 10 -32 0 -17 -8 -42 -10 -64 -6 -33 6
-34 8 -16 21 18 13 17 13 -6 11 -16 -2 -24 2 -23 10 2 6 -2 12 -7 12 -6 0 -10
5 -10 10 0 7 6 7 19 0 34 -18 37 -11 7 13 -22 18 -26 26 -16 32 9 5 11 4 6 -3
-9 -14 3 -15 23 -3 12 8 9 11 -12 16 -31 8 -36 25 -8 25 11 0 22 4 25 9 3 5
-12 8 -33 7 l-39 -1 3 -53 c2 -29 8 -59 15 -67 6 -7 12 -44 13 -82 0 -49 5
-73 18 -86 21 -23 32 -76 23 -112 -6 -23 -9 -25 -43 -18 -20 5 -55 8 -78 8
-27 0 -45 5 -48 13 -4 10 2 12 25 7 19 -4 30 -3 30 4 0 6 -5 11 -12 11 -6 0
-8 3 -5 6 4 4 18 -1 31 -10 37 -24 43 -20 12 9 -25 23 -28 23 -71 10 -25 -7
-47 -9 -50 -5 -7 11 8 20 39 22 20 2 23 5 13 17 -10 12 -8 13 15 8 14 -4 33
-10 41 -13 23 -8 11 29 -14 44 -14 9 -25 10 -37 2 -13 -8 -14 -10 -2 -9 27 3
40 -1 40 -10 0 -11 -58 3 -72 17 -4 4 8 14 27 21 19 7 35 19 35 26 0 21 -72
40 -98 26 -11 -6 -38 -10 -59 -10 -21 1 -29 3 -18 6 11 3 38 11 60 18 23 7 60
11 86 8 27 -3 49 -1 53 5 4 6 -1 11 -11 11 -10 0 -37 4 -60 9 -41 9 -80 7
-113 -5 -8 -3 -39 -6 -68 -7 -36 -1 -58 -6 -65 -17 -7 -8 -20 -18 -30 -22 -10
-4 -17 -12 -15 -19 1 -7 -3 -23 -10 -35 -11 -19 -10 -21 11 -16 22 5 22 5 2
-10 -17 -12 -29 -13 -77 -3 l-56 11 40 17 c21 9 46 14 54 11 7 -3 14 0 14 6 0
6 -5 11 -11 11 -8 0 -8 4 0 14 10 12 7 13 -21 6 -57 -13 -72 -22 -105 -57 -34
-35 -35 -63 -2 -63 10 0 19 -7 19 -15 0 -8 14 -17 35 -21 40 -7 62 3 27 13
-12 3 -19 9 -16 14 3 5 -4 9 -15 9 -12 0 -21 5 -21 10 0 12 30 13 49 1 8 -5
21 -6 30 -3 12 5 10 8 -9 13 l-25 7 28 1 c16 1 30 -5 33 -14 4 -8 10 -15 15
-15 5 0 9 7 9 15 0 8 4 15 9 15 6 0 9 -9 8 -20 -1 -11 -8 -20 -16 -20 -11 0
-10 -4 5 -14 11 -9 29 -12 44 -9 22 6 24 5 11 -10 -7 -10 -23 -18 -35 -18 -19
-1 -19 -2 -2 -6 15 -4 16 -7 5 -13 -27 -18 0 -20 42 -5 24 9 54 19 66 22 12 3
28 11 34 19 15 19 33 18 25 -1 -4 -12 4 -15 39 -15 25 0 45 -4 45 -10 0 -5
-26 -10 -57 -10 -32 -1 -87 -8 -123 -16 -72 -18 -142 -20 -168 -5 -16 10 -16
10 1 11 29 0 19 20 -13 27 -17 3 -33 10 -36 14 -3 5 -14 9 -25 9 -13 0 -18 4
-13 12 5 8 2 9 -9 5 -10 -4 -16 -2 -14 6 1 7 -12 13 -33 14 -19 1 -37 2 -40 3
-19 8 -59 7 -55 -1 4 -5 12 -9 19 -9 31 0 101 -40 101 -57 0 -14 10 -19 48
-21 26 -2 47 -6 47 -11 0 -29 -458 -45 -511 -17 -14 7 -39 17 -55 21 l-29 8
25 7 c23 7 23 8 3 9 -12 1 -25 6 -28 11 -9 14 31 12 55 -2 10 -7 23 -9 27 -5
4 5 1 12 -7 17 -11 7 -12 10 -2 10 7 0 10 5 6 11 -4 8 0 9 15 4 11 -3 21 -3
21 2 -1 20 -20 35 -49 38 -49 3 -49 15 0 16 24 1 36 3 26 6 -25 7 -11 23 21
23 19 0 23 3 15 11 -17 17 -183 21 -183 4 0 -11 -6 -11 -29 -2 -22 8 -50 8
-108 -2 -47 -8 -100 -10 -129 -6 -28 4 -45 4 -41 -1 10 -10 13 -11 70 -13 38
-2 40 -3 18 -12 -14 -5 -30 -8 -37 -5 -7 3 -25 1 -41 -3 -15 -5 -63 -5 -106
-2 -42 4 -84 3 -91 -1 -8 -5 -16 -2 -19 6 -4 10 5 13 31 13 21 -1 66 3 102 8
63 8 64 9 25 14 -35 5 -40 9 -41 34 -1 20 4 27 17 27 24 0 34 -18 12 -22 -10
-3 -1 -6 20 -9 26 -4 37 -1 37 8 0 7 -8 13 -17 13 -15 0 -16 2 -3 10 9 5 19 5
27 -2 7 -6 26 -8 43 -6 16 3 30 1 30 -4 0 -4 10 -8 21 -8 18 0 19 -2 9 -15
-11 -13 -6 -15 31 -15 48 1 105 25 79 33 -8 3 -22 8 -30 10 -8 3 0 6 18 6 18
1 42 -4 53 -9 33 -18 248 -16 260 2 7 11 167 12 193 2 9 -3 16 -1 16 5 0 7
-27 12 -72 12 -90 2 -99 3 -122 14 -10 4 -21 4 -25 -1 -3 -5 -79 -10 -169 -11
-90 -1 -168 -5 -175 -10 -14 -11 -29 -11 -74 1 -43 10 -43 34 0 39 17 2 3 3
-33 0 -36 -2 -86 1 -112 5 -27 6 -48 6 -48 1 0 -5 9 -9 20 -9 11 0 20 -4 20
-10 0 -5 8 -10 18 -11 10 0 12 -2 4 -6 -7 -3 -34 5 -59 17 -51 24 -98 27 -246
14 -61 -5 -90 -11 -94 -21 -4 -10 -16 -12 -42 -7 -27 4 -32 3 -21 -5 8 -6 25
-11 37 -11 11 0 48 -15 80 -33 33 -19 76 -37 97 -40 45 -7 56 -15 37 -26 -7
-5 -11 -14 -7 -20 4 -6 -4 -13 -19 -16 -14 -3 -37 -7 -51 -10 -27 -6 -84 14
-84 29 0 5 -8 15 -18 22 -15 12 -13 13 18 14 35 0 83 20 50 20 -8 0 -32 9 -53
20 -20 11 -46 20 -57 20 -11 0 -20 4 -20 9 0 5 -12 14 -27 19 -16 6 -21 11
-13 12 11 1 9 4 -5 10 -14 6 -4 7 30 4 45 -4 48 -3 31 10 -16 13 -10 14 60 11
43 -2 104 2 134 7 30 6 82 11 115 11 33 0 54 2 47 5 -6 2 -12 7 -12 12 0 11
42 -1 58 -17 7 -7 21 -12 30 -12 15 1 15 2 0 6 -10 2 -18 8 -18 13 0 4 8 6 19
3 10 -3 22 0 25 6 5 7 -10 11 -46 12 l-53 1 50 14 c59 16 165 15 182 -2 10
-10 10 -13 0 -17 -18 -7 -77 4 -77 14 0 5 -5 9 -11 9 -5 0 -8 -4 -5 -9 4 -5 0
-12 -6 -14 -7 -3 -3 -6 10 -6 13 -1 20 -5 17 -11 -4 -6 11 -10 38 -10 32 0 47
5 51 16 4 10 14 14 26 11 11 -3 22 -2 25 3 6 10 -24 22 -36 14 -5 -3 -9 0 -9
5 0 6 21 11 48 11 26 0 58 3 71 7 20 5 23 3 18 -10 -3 -9 -3 -16 1 -16 21 3
32 -3 32 -17 0 -10 6 -14 14 -11 8 3 19 -5 26 -18 7 -13 20 -27 29 -30 13 -5
14 -4 4 6 -13 13 -18 79 -7 79 17 0 45 -46 40 -66 -5 -20 -2 -22 38 -22 34 1
43 4 39 15 -4 10 -14 12 -32 8 -20 -5 -23 -4 -15 5 15 15 -9 41 -67 70 -36 19
-43 20 -57 6 -15 -13 -20 -12 -41 5 -15 12 -31 17 -45 13 -20 -6 -20 -6 -2 8
18 14 18 15 1 22 -23 8 -134 -4 -141 -15 -3 -5 -12 -9 -20 -9 -8 0 -12 5 -9
10 12 19 -6 31 -21 15 -9 -9 -36 -16 -67 -17 -29 -1 -65 -2 -82 -3 -141 -9
-208 -2 -250 24 -17 10 -14 11 23 6 27 -4 42 -3 42 4 0 6 7 8 16 4 11 -4 12
-8 4 -13 -18 -11 0 -17 44 -15 22 1 42 7 44 13 3 9 9 9 23 1 15 -7 25 -6 42 6
l22 17 -23 -7 c-24 -7 -56 11 -46 26 3 5 -6 9 -20 9 -14 0 -26 4 -26 8 0 9
134 29 240 36 36 3 100 8 143 12 46 4 82 3 85 -2 4 -5 19 -15 35 -21 15 -7 27
-19 27 -28 0 -8 5 -15 10 -15 22 0 9 40 -15 46 -14 3 -25 10 -25 14 0 11 36
17 150 26 84 7 90 9 48 14 -48 6 -75 19 -45 21 29 2 35 4 42 10 10 11 -91 22
-117 13 -13 -4 -33 -7 -46 -5 -13 1 -25 -4 -28 -13 -4 -10 -18 -16 -41 -16
-20 0 -32 4 -28 10 4 6 -7 10 -25 10 -17 0 -29 -4 -26 -8 2 -4 -22 -5 -54 -2
-88 8 -135 6 -133 -6 1 -6 -30 -11 -85 -13 -134 -3 -204 -8 -234 -16 -20 -5
-27 -3 -32 12 -5 16 -18 19 -81 21 -41 1 -96 -3 -122 -8 -38 -9 -49 -8 -61 4
-13 13 -11 15 19 14 19 0 75 2 124 6 50 3 96 6 104 6 11 0 11 3 1 15 -9 11 -9
15 -1 15 6 0 14 -6 17 -13 4 -12 31 -14 107 -8 10 0 15 6 12 11 -3 6 1 10 9
10 8 0 18 -4 21 -10 6 -10 67 -2 75 10 6 10 120 -8 136 -20 6 -6 48 -9 93 -8
48 0 77 5 69 9 -10 7 -8 9 5 9 10 0 30 9 45 20 26 20 29 20 61 4 28 -14 42
-15 85 -6 28 6 97 13 153 14 57 2 103 6 103 10 0 5 -3 7 -7 7 -25 -4 -43 3
-43 16 0 9 -10 15 -22 16 -13 1 -35 3 -50 5 -16 1 -28 -1 -28 -7 0 -5 -7 -9
-16 -9 -8 0 -12 -4 -9 -10 3 -5 2 -10 -4 -10 -5 0 -15 8 -21 18 -8 12 -13 13
-16 5 -4 -10 -11 -10 -26 -2 -22 12 -49 5 -46 -12 2 -6 -3 -14 -10 -16 -7 -3
-11 1 -10 8 2 8 -7 15 -22 16 -14 1 -19 0 -12 -3 25 -11 11 -25 -20 -19 -66
11 -143 14 -129 6 9 -6 10 -11 2 -15 -6 -4 -20 -1 -32 8 -20 13 -20 14 -2 19
17 4 17 5 0 6 -10 0 -16 5 -12 11 4 6 15 6 31 0 14 -6 42 -10 62 -9 l37 1 -40
9 c-22 6 -55 14 -73 18 -21 6 -30 6 -26 -1 4 -6 -4 -8 -17 -6 -13 1 -24 10
-24 18 0 8 -4 18 -10 22 -15 12 -87 10 -80 -2 9 -15 -26 -12 -59 5 -15 8 -37
15 -49 15 -19 0 -20 -1 -2 -20 22 -24 8 -26 -23 -4 -12 8 -32 14 -45 13 -12
-2 -33 3 -45 10 -13 7 -36 10 -50 7 -21 -5 -24 -4 -12 4 11 9 -3 10 -55 6 -71
-6 -180 14 -157 28 6 4 20 2 30 -3 11 -6 64 -10 118 -10 54 0 110 -4 124 -9
14 -5 90 -9 169 -10 87 0 148 -5 154 -11 6 -6 21 -11 34 -11 17 0 21 4 17 17
-5 17 -5 17 9 1 12 -15 24 -16 83 -11 38 4 113 7 166 7 54 1 98 3 98 6 0 8
244 6 258 -3 7 -5 14 -3 18 7 3 8 13 12 22 9 15 -4 15 -3 2 6 -9 7 -10 11 -3
11 6 0 15 -5 18 -10 3 -5 16 -10 28 -9 21 0 21 1 2 8 l-20 8 20 5 c11 2 33 0
48 -5 15 -5 30 -7 33 -4 14 14 -67 24 -112 15 -27 -6 -107 -12 -179 -14 -71
-2 -137 -3 -145 -4 -62 -2 -99 3 -94 12 4 6 27 8 60 4 37 -4 54 -3 54 5 0 6 7
8 16 5 8 -3 22 1 30 9 14 13 12 15 -11 15 -15 0 -33 6 -40 14 -14 14 -51 10
-97 -9 -11 -4 -18 -3 -18 4 0 6 8 11 18 11 15 1 15 2 -3 16 -23 17 -76 15 -83
-4 -2 -6 5 -12 15 -12 10 0 25 -5 33 -11 12 -8 10 -9 -9 -4 -17 5 -21 4 -16
-5 5 -8 2 -10 -11 -6 -104 31 -172 26 -117 -9 26 -17 27 -18 13 0 -14 16 -13
17 19 10 18 -4 40 -8 47 -9 25 -4 27 -16 3 -17 -76 -4 -109 -1 -138 11 -23 9
-29 16 -22 23 16 16 13 27 -6 28 -15 0 -15 2 2 9 18 8 18 9 -5 10 -14 2 -28 2
-32 1 -4 0 -5 6 -2 14 5 12 -2 15 -30 15 -20 0 -36 4 -36 9 0 5 -15 14 -32 22
-18 7 -45 22 -60 32 -24 18 -33 19 -117 9 -96 -12 -116 -9 -141 18 -15 17 -84
24 -74 8 3 -4 14 -8 24 -8 10 0 25 -6 32 -14 8 -7 33 -17 55 -21 36 -6 41 -10
45 -36 4 -24 2 -29 -11 -23 -9 3 -28 7 -44 9 -15 1 -33 9 -40 18 -6 9 -32 19
-57 22 l-45 5 50 -15 c44 -13 46 -14 13 -10 -21 2 -38 0 -38 -6 0 -5 11 -9 24
-9 14 0 27 -4 30 -9 3 -4 -6 -6 -21 -3 -18 3 -24 1 -19 -7 4 -6 1 -11 -8 -11
-9 0 -16 5 -16 11 0 5 -5 7 -10 4 -6 -4 -10 6 -10 22 0 19 -3 24 -9 15 -7 -11
-17 -8 -51 13 -27 17 -63 29 -98 32 -41 5 -51 8 -37 14 16 6 16 8 4 8 -9 1
-30 -6 -45 -14 l-29 -15 45 0 c53 0 90 -9 90 -21 0 -5 -8 -9 -17 -10 -15 0
-15 -2 2 -8 11 -5 23 -7 27 -4 5 2 8 -2 8 -9 0 -7 9 -19 21 -26 13 -9 18 -19
14 -30 -5 -13 -3 -14 5 -6 9 9 9 17 0 34 -15 27 -11 30 20 13 14 -7 19 -13 12
-13 -7 0 -11 -4 -8 -9 3 -5 37 -8 75 -7 59 2 67 0 53 -10 -9 -8 -39 -14 -67
-14 -27 -1 -59 -5 -70 -9 -11 -5 -29 -4 -40 2 -10 5 -42 12 -70 14 -95 7 -109
10 -113 22 -5 14 65 5 85 -11 14 -11 93 -1 93 11 0 5 -18 7 -41 6 -28 -2 -59
6 -97 25 -53 26 -198 52 -162 30 8 -5 29 -10 45 -11 17 -1 3 -5 -30 -9 -61 -8
-138 4 -215 35 -19 7 -52 16 -72 19 l-38 5 0 -70 0 -69 78 -1 c42 -1 88 -5
102 -9 14 -4 -20 -6 -77 -3 l-103 6 0 -115 0 -114 38 -11 37 -11 -37 5 -38 5
0 -52 0 -53 96 7 c110 8 217 -1 190 -16 -11 -6 -28 -6 -48 1 -33 12 -52 6 -29
-8 8 -5 9 -11 3 -15 -5 -3 -12 1 -16 9 -4 10 -20 15 -52 15 -38 0 -44 -3 -35
-13 6 -8 8 -16 6 -19 -6 -6 -70 14 -81 25 -4 4 -13 7 -21 7 -10 0 -13 -21 -13
-84 0 -85 0 -85 28 -89 l27 -4 -28 -2 c-24 -1 -27 -5 -25 -31 2 -33 8 -36 26
-18 9 9 12 9 12 0 0 -7 10 -12 23 -13 12 0 31 -5 42 -10 17 -8 16 -9 -7 -6
-21 3 -28 -1 -32 -20 -4 -12 -11 -23 -17 -23 -6 0 -8 8 -5 18 8 24 -7 44 -27
36 -14 -5 -17 -20 -17 -83 l0 -78 71 -12 c38 -7 68 -15 66 -18 -3 -2 -31 0
-63 6 -32 6 -61 11 -65 11 -4 0 -8 -36 -8 -80 l0 -80 37 0 c39 0 71 -14 55
-23 -5 -3 -15 -2 -23 4 -8 5 -27 9 -42 9 l-28 0 0 -259 c0 -198 3 -261 13
-264 10 -4 10 -6 0 -6 -10 -1 -13 -34 -13 -131 l0 -130 516 0 c341 0 513 3
509 10 -3 5 1 10 10 10 9 0 13 -5 10 -10 -4 -7 60 -10 194 -8 128 2 200 7 199
13 -2 6 -13 10 -25 10 -12 -1 -19 3 -17 7 9 15 98 6 110 -11 10 -14 37 -17
158 -19 92 -1 146 2 146 8 0 6 7 10 15 10 8 0 15 -4 15 -10 0 -13 47 -13 52 0
4 14 72 24 95 15 17 -7 17 -8 -2 -15 -11 -5 52 -8 148 -8 95 0 167 4 167 9 0
5 -12 8 -27 7 -27 -2 -73 16 -73 28 0 4 12 3 27 -1 27 -6 27 -6 8 9 -19 14
-17 15 28 14 49 -1 64 -13 25 -21 -17 -3 -15 -5 8 -6 18 0 34 -7 37 -15 9 -23
85 -31 106 -12 10 9 26 16 37 16 17 0 16 3 -6 19 -30 23 -65 32 -79 18 -5 -5
-15 -6 -22 -1 -9 5 -8 9 7 14 11 4 -9 10 -54 14 -74 7 -89 6 -84 -6 4 -15 -39
-8 -44 7 -4 9 -13 13 -24 10 -20 -6 -50 3 -50 16 0 5 15 7 33 4 21 -3 27 -2
18 4 -11 7 -11 10 0 15 8 3 4 3 -8 0 -16 -4 -23 -1 -23 10 0 12 -11 14 -52 11
-52 -4 -53 -4 -27 12 14 8 34 28 45 44 10 16 23 30 29 32 5 3 -3 3 -19 1 -23
-3 -26 -1 -17 9 9 11 3 13 -32 7 -23 -3 -53 -3 -67 1 l-25 6 27 11 c18 7 38 8
59 2 42 -12 64 5 26 19 -15 6 -27 13 -27 15 0 5 54 7 114 6 38 -1 68 9 61 21
-4 5 2 9 12 9 32 -1 -25 -40 -58 -40 -16 0 -29 -4 -29 -10 0 -14 175 3 265 26
16 4 17 3 5 -5 -12 -9 -12 -11 3 -17 9 -3 17 -10 17 -16 0 -5 -13 -2 -29 8
-20 12 -33 14 -46 7 -15 -9 -8 -13 35 -23 32 -8 55 -9 59 -3 3 5 51 10 106 11
167 3 179 4 161 18 -9 6 -16 15 -16 20 0 4 5 3 12 -4 7 -7 20 -12 31 -12 17 0
17 1 2 16 -10 11 -27 15 -48 11 -17 -2 -47 0 -65 5 -32 9 -130 -7 -142 -23 -3
-3 -16 -9 -30 -13 -24 -7 -24 -6 -6 8 18 14 17 16 -17 32 -22 11 -42 14 -54 9
-17 -8 -31 -9 -70 -6 -24 2 -10 12 23 15 16 2 32 4 37 5 12 2 8 19 -10 36 -14
14 -14 20 -4 37 8 13 9 24 3 30 -6 6 -12 6 -16 -1 -9 -14 -51 -14 -78 0 -26
14 -36 3 -20 -21 18 -29 -3 -26 -44 5 -19 15 -35 21 -39 15 -3 -5 1 -10 9 -10
18 0 21 -16 5 -26 -6 -3 -14 -2 -18 5 -4 6 -31 11 -61 12 -82 3 -112 0 -105
-10 3 -5 -7 -8 -21 -7 -15 2 -44 -5 -65 -16 -42 -20 -63 -24 -39 -7 12 8 9 10
-12 6 -15 -2 -25 0 -22 4 5 9 -37 12 -106 9 -19 0 -46 3 -60 9 -19 7 -3 9 63
7 79 -3 114 6 70 17 -14 4 -12 5 5 6 12 0 22 -3 22 -9 0 -5 9 -10 20 -10 26 0
21 21 -10 41 -28 17 -126 36 -100 19 13 -8 13 -10 -2 -10 -10 0 -18 5 -18 10
0 6 -9 10 -21 10 -11 0 -17 -4 -14 -10 4 -6 -5 -10 -21 -10 -22 0 -25 2 -14
15 10 12 9 15 -4 15 -10 0 -15 4 -12 9 4 5 0 11 -6 14 -7 2 -11 7 -8 10 3 4
19 0 34 -9 32 -16 39 -15 27 5 -10 16 -101 22 -119 8 -7 -5 -15 -7 -19 -3 -10
10 1 16 48 25 37 7 29 8 -49 8 -88 0 -92 -1 -75 -17 10 -10 21 -16 25 -14 4 3
9 0 13 -6 4 -6 -5 -10 -20 -10 -16 0 -24 4 -20 11 4 6 -2 13 -14 16 -12 3 -21
11 -21 18 0 7 -6 16 -12 19 -7 4 8 4 35 1 52 -5 57 -1 26 26 -19 16 -20 19 -5
25 9 3 23 1 31 -6 11 -10 18 -9 30 4 18 18 55 22 55 6 0 -5 -11 -10 -25 -10
-14 0 -25 -4 -25 -9 0 -5 -8 -12 -17 -14 -11 -3 -7 -5 10 -6 15 0 27 -5 27
-11 0 -6 26 -10 59 -10 33 0 63 -5 67 -11 4 -8 -1 -9 -16 -4 -15 5 -20 4 -16
-4 4 -6 16 -11 26 -11 10 0 20 -5 22 -12 2 -6 21 -12 41 -12 20 -1 39 -7 42
-13 5 -15 51 -17 60 -3 3 5 16 10 28 9 20 -1 20 -2 -3 -9 -25 -8 -25 -8 5 -9
l30 -2 -30 -14 -30 -13 40 -2 c22 -1 49 -3 60 -5 23 -5 125 16 120 25 -2 3
-26 5 -54 4 -27 0 -48 3 -45 8 3 4 -10 8 -28 9 -27 0 -29 2 -13 8 11 5 24 6
28 4 12 -7 95 -5 108 3 8 5 7 9 -5 16 -9 5 -16 14 -16 19 0 6 13 1 29 -10 22
-16 31 -18 34 -9 4 10 7 10 15 0 7 -11 18 -11 51 -2 47 12 114 4 90 -11 -11
-7 -10 -9 4 -9 20 0 22 -20 5 -39 -11 -11 -8 -11 12 0 14 8 34 14 45 15 11 0
37 1 57 2 24 1 37 7 35 15 -1 8 8 11 25 9 25 -2 47 13 35 25 -11 10 -76 20
-84 12 -10 -10 -53 0 -53 12 0 4 -18 13 -40 19 -49 13 -52 30 -5 28 19 -1 33
-3 30 -6 -6 -6 26 -31 40 -32 6 0 3 5 -5 10 -12 8 -11 10 8 10 12 0 22 5 22
11 0 6 -9 8 -21 4 -13 -5 -19 -3 -15 3 3 5 27 13 53 17 27 3 59 9 72 12 23 6
24 6 5 21 -18 13 -18 14 6 7 14 -4 32 -11 40 -16 12 -7 11 -10 -7 -15 -13 -3
-23 -10 -23 -15 0 -5 -17 -9 -39 -9 -22 0 -44 -6 -51 -15 -10 -12 -10 -15 2
-15 19 0 81 -30 90 -43 4 -6 13 -4 22 6 13 12 28 15 68 10 37 -5 49 -3 44 5
-4 7 -1 12 8 12 19 0 30 -17 14 -23 -7 -2 23 -12 66 -21 51 -12 74 -21 65 -26
-7 -5 -21 -4 -32 2 -11 5 -37 7 -58 4 -22 -3 -39 -2 -39 3 0 5 -10 7 -22 4
-15 -3 -19 -2 -11 4 8 5 -9 10 -44 11 -31 1 -59 -2 -63 -8 -3 -6 -25 -11 -48
-13 -23 -1 -42 -5 -42 -9 0 -9 57 -27 98 -31 19 -2 38 -10 42 -17 5 -7 26 -12
51 -12 44 1 89 -14 89 -30 0 -13 -38 -9 -43 5 -4 8 -8 9 -14 1 -9 -13 -43 -15
-43 -2 0 4 -5 8 -11 8 -5 0 -7 -4 -4 -10 10 -16 -7 -12 -19 5 -8 11 -36 16
-98 19 -85 4 -94 2 -89 -26 0 -5 -4 -8 -10 -8 -5 0 -7 -4 -4 -10 3 -5 19 -10
36 -10 16 0 29 -5 29 -11 0 -5 -10 -9 -21 -7 -32 4 -34 -29 -3 -35 28 -5 43 9
17 16 -11 3 -7 5 10 6 17 1 26 -3 22 -9 -3 -5 0 -10 7 -10 10 0 10 -2 -1 -9
-10 -7 -5 -11 17 -16 38 -8 75 2 66 17 -5 8 -1 9 12 4 16 -6 15 -4 -4 17 -13
14 -33 25 -45 26 -73 3 -79 10 -27 31 25 10 33 10 43 0 10 -10 7 -12 -11 -7
-15 3 -22 1 -19 -6 2 -7 20 -10 45 -8 27 1 42 -2 42 -9 0 -7 7 -10 18 -6 16 6
16 5 0 -8 -23 -17 -23 -26 1 -26 11 0 22 -4 25 -9 3 -5 42 -8 86 -7 45 1 73
-1 64 -4 -12 -5 -14 -9 -6 -14 6 -4 20 -3 29 2 10 5 24 7 31 5 11 -4 16 8 13
29 0 4 6 5 15 1 14 -5 15 -3 4 17 -7 12 -20 25 -31 27 -10 3 -16 9 -13 14 3 5
10 7 15 4 5 -3 6 1 3 9 -3 9 -14 16 -24 16 -11 0 -22 5 -25 10 -3 6 0 10 7 10
9 0 9 3 -2 10 -8 5 -24 10 -35 10 -15 0 -17 -2 -6 -9 10 -6 10 -10 1 -16 -7
-4 -13 1 -17 14 -3 12 -10 21 -15 21 -6 0 -8 -9 -5 -21 3 -13 1 -19 -6 -16 -7
2 -11 11 -9 21 2 9 -4 16 -13 16 -8 0 -15 4 -15 9 0 12 124 2 128 -10 2 -5 21
-18 43 -29 44 -23 57 -43 61 -91 3 -35 28 -69 52 -69 18 0 29 -17 21 -31 -5
-6 -11 -4 -19 7 -12 16 -14 15 -19 -7 -4 -13 -15 -30 -26 -36 -23 -15 -84 -6
-74 10 4 6 -2 8 -15 5 -12 -4 -25 -2 -28 3 -3 5 -10 7 -15 4 -5 -4 -9 -4 -9 0
0 12 45 22 52 11 5 -8 10 -8 18 0 9 9 4 13 -15 18 -30 8 -95 -10 -95 -25 0 -6
-4 -7 -10 -4 -13 8 -80 -5 -80 -16 0 -5 9 -9 19 -9 11 0 23 -5 26 -11 5 -7 -8
-9 -37 -7 -28 2 -42 7 -41 16 2 7 -7 12 -21 12 -13 0 -32 3 -42 7 -13 5 -15 3
-9 -7 6 -10 4 -12 -11 -6 -10 4 -31 10 -45 13 -22 4 -27 1 -31 -21 -4 -22 0
-27 28 -36 19 -6 36 -15 39 -20 10 -17 -65 -3 -85 15 -11 10 -23 16 -25 13 -7
-7 16 -60 30 -71 6 -5 -1 -6 -15 -3 -14 3 -28 6 -32 6 -17 0 -7 20 10 21 10 0
12 3 4 6 -6 2 -10 8 -7 13 6 10 -49 30 -84 30 -23 1 -24 2 -8 11 10 6 25 8 33
5 8 -3 14 -1 14 4 0 18 -45 15 -62 -5 -16 -18 -17 -18 -18 -2 0 20 -16 23 -23
3 -8 -21 2 -26 47 -26 23 0 47 -4 54 -8 7 -5 -7 -8 -35 -8 -26 0 -61 -3 -77
-8 -26 -6 -28 -5 -17 8 11 13 11 16 -3 16 -9 0 -16 5 -16 10 0 6 -7 10 -15 10
-18 0 -20 -17 -2 -23 8 -3 7 -10 -7 -26 -11 -11 -14 -21 -8 -21 6 0 9 -6 6
-14 -3 -9 4 -15 21 -18 19 -4 25 -2 21 8 -6 15 6 16 44 4 17 -5 19 -8 8 -9
-10 -1 -18 -5 -18 -11 0 -13 23 -13 36 0 6 6 15 5 24 -1 12 -9 12 -10 -3 -5
-11 3 -16 2 -12 -4 3 -6 19 -10 35 -10 16 0 31 -4 34 -9 7 -11 98 -41 125 -41
12 0 21 -4 21 -10 0 -5 -6 -10 -14 -10 -8 0 -18 -5 -21 -10 -4 -7 7 -8 33 -4
27 4 42 2 47 -7 6 -8 4 -11 -6 -7 -8 3 -23 2 -34 -3 -13 -5 4 -8 48 -7 37 0
70 5 73 9 3 5 -4 9 -15 9 -14 0 -19 5 -15 15 5 11 -1 15 -22 15 -16 0 -36 5
-44 11 -12 8 -9 9 11 7 14 -1 42 6 61 16 34 18 68 17 68 -3 0 -10 -39 -27 -52
-23 -5 1 -8 -4 -8 -12 0 -17 35 -16 67 2 13 7 34 9 55 5 l33 -8 -45 -5 c-31
-3 -45 -10 -45 -20 0 -11 14 -16 53 -18 47 -3 56 0 73 22 11 15 29 26 40 26
18 0 17 -3 -8 -25 l-28 -24 175 0 c156 0 173 1 156 14 -20 15 -20 15 0 15 16
0 17 2 4 10 -8 5 -26 10 -39 10 -24 0 -24 0 -5 -16 18 -15 18 -15 -3 -5 -12 6
-32 11 -45 12 -14 1 -8 4 17 11 39 9 113 3 101 -9 -3 -3 2 -12 10 -20 22 -22
80 -20 106 4 30 27 48 36 48 25 0 -5 -11 -14 -25 -20 -37 -17 -30 -32 14 -32
41 0 63 16 41 30 -7 4 -10 13 -6 19 4 6 -4 13 -19 17 -13 3 -22 10 -19 15 9
16 30 10 59 -17 26 -24 28 -25 48 -7 14 13 21 15 24 6 3 -10 10 -10 24 -2 11
5 16 15 13 21 -5 7 -2 9 9 5 9 -3 19 -2 22 3 4 6 1 10 -5 10 -6 0 -8 5 -5 10
3 6 0 12 -7 15 -21 8 -11 75 11 75 14 1 13 3 -3 15 -18 13 -15 14 28 10 30 -3
45 -1 41 5 -3 6 1 10 10 10 12 0 15 6 10 22 -6 17 -4 20 10 15 20 -8 55 9 55
26 0 7 10 13 21 14 12 1 31 11 43 22 26 25 45 26 72 6 18 -14 18 -14 1 -15
-11 0 -30 -9 -44 -20 -20 -15 -22 -20 -9 -20 9 0 19 7 22 15 4 8 10 13 15 10
14 -9 98 36 93 50 -3 7 2 15 12 19 12 5 15 2 10 -9 -5 -14 -2 -14 23 1 21 12
27 22 23 40 -3 18 2 26 22 34 15 5 38 21 51 36 15 16 32 24 47 22 17 -2 23 2
22 14 -1 11 5 18 17 18 10 0 21 5 24 10 3 6 15 10 26 10 12 0 19 5 17 12 -6
18 17 38 42 38 12 0 19 4 15 9 -5 9 92 61 113 61 5 0 17 9 27 20 10 11 24 20
32 20 7 0 13 9 13 21 0 30 20 45 57 43 23 -1 34 3 38 16 3 10 17 26 31 34 24
16 25 16 34 -11 6 -15 14 -35 19 -44 8 -13 5 -18 -12 -23 -31 -8 -39 -7 -32 4
3 6 2 10 -3 10 -9 0 -33 -25 -47 -50 -8 -13 -7 -13 8 -1 15 11 17 11 17 -2 0
-18 -24 -29 -45 -21 -26 10 -16 -3 18 -25 28 -18 29 -21 10 -21 -12 0 -25 4
-28 10 -9 15 -58 12 -80 -4 -18 -13 -18 -14 6 -21 13 -4 26 -7 28 -6 2 2 7 -2
11 -9 11 -17 108 -40 113 -26 2 6 8 8 12 3 5 -4 3 -13 -3 -19 -7 -7 -12 -15
-12 -19 0 -11 33 -20 39 -11 4 6 16 6 30 1 l24 -9 -22 -19 c-20 -18 -25 -18
-77 -4 -31 8 -61 12 -67 9 -7 -2 -2 -5 10 -5 31 -1 40 -21 9 -21 -18 0 -24 -4
-20 -15 7 -18 0 -19 -28 -4 -11 6 -35 11 -54 11 -18 0 -39 7 -46 16 -11 13
-10 15 5 9 11 -4 16 -3 12 3 -3 6 -2 10 4 10 5 0 12 -4 15 -9 3 -5 22 -9 42
-9 61 0 22 20 -46 24 -57 2 -62 1 -57 -17 3 -10 0 -19 -6 -20 -7 -1 -1 -4 12
-8 14 -4 26 -12 29 -19 3 -9 -3 -10 -20 -3 -40 15 -151 25 -144 12 7 -11 -9
-15 -54 -11 l-25 2 20 -22 c15 -17 16 -23 6 -29 -15 -10 -11 -13 47 -31 23 -7
42 -17 42 -22 0 -4 18 -8 41 -8 24 0 38 -4 34 -10 -3 -6 -34 -10 -68 -9 -40 1
-53 3 -38 8 23 6 22 7 -15 23 -34 14 -66 27 -84 33 -3 1 -13 5 -23 10 -25 11
-36 -4 -14 -19 24 -19 21 -36 -7 -36 -13 0 -26 -5 -28 -11 -2 -7 -12 -7 -31 2
-23 10 -30 10 -44 -4 -10 -8 -31 -21 -47 -27 -25 -9 -27 -9 -17 4 11 13 7 13
-25 3 -20 -6 -30 -13 -23 -15 8 -2 19 -5 24 -7 6 -1 12 -2 15 -2 14 1 50 -25
45 -34 -4 -5 1 -9 9 -9 9 0 16 -5 16 -11 0 -6 -9 -9 -20 -6 -11 3 -20 1 -20
-3 0 -19 13 -40 24 -40 6 0 12 -9 13 -20 1 -15 -4 -20 -20 -19 -12 0 -17 3
-10 5 8 4 7 11 -5 25 -18 20 -38 26 -26 7 4 -6 3 -8 -4 -4 -6 3 -19 -4 -29
-17 -10 -13 -24 -22 -31 -19 -19 6 -43 -18 -37 -37 4 -13 -2 -16 -38 -13 -48
4 -81 -18 -59 -40 20 -20 13 -27 -23 -21 -23 4 -35 2 -35 -6 0 -6 -9 -11 -20
-11 -11 0 -20 -7 -20 -15 0 -14 27 -15 208 -13 114 1 195 4 180 6 -16 2 -28 5
-28 7 0 2 12 16 26 30 30 30 28 34 -9 37 -15 1 -27 6 -27 11 0 5 11 6 25 3 26
-7 32 3 14 21 -6 6 -18 9 -26 6 -13 -5 -13 -2 -4 15 15 29 17 28 37 -10 9 -18
25 -39 35 -46 10 -7 24 -19 32 -26 8 -8 25 -16 38 -19 13 -2 7 -3 -15 -2 -46
4 -66 -2 -66 -21 0 -12 38 -14 215 -14 181 0 215 2 215 14 0 8 5 18 12 22 8 5
9 0 6 -14 l-6 -22 688 0 688 0 -10 38 c-9 36 -20 76 -33 118 -5 15 0 23 20 32
39 18 42 16 59 -41 9 -29 25 -74 36 -100 l21 -47 361 0 c314 1 358 3 342 15
-25 19 -6 18 26 0 34 -19 579 -22 598 -3 9 9 12 9 12 0 0 -7 13 -12 31 -12 17
0 28 4 24 10 -3 6 -1 10 4 10 6 0 11 -4 11 -9 0 -5 100 -9 232 -10 188 0 228
2 214 12 -15 11 -11 12 26 8 34 -3 39 -6 23 -12 -17 -6 -15 -8 10 -8 17 -1 36
4 43 11 8 8 15 8 24 1 8 -7 84 -11 203 -11 136 0 182 3 163 10 -16 5 -28 13
-28 17 0 3 -17 15 -37 26 -21 10 -47 26 -58 35 -25 20 -123 80 -132 80 -9 0
79 -65 112 -83 l30 -15 -27 -7 c-15 -4 -33 -5 -40 -2 -7 3 -2 6 12 6 23 1 22
2 -13 26 -20 14 -42 23 -47 20 -6 -3 -10 0 -10 8 0 18 -24 29 -45 21 -8 -4
-15 -2 -15 4 0 6 -2 17 -5 25 -5 10 1 13 23 9 16 -2 33 1 36 7 4 6 1 11 -7 11
-24 0 -80 27 -70 33 5 3 29 -5 54 -18 24 -13 55 -29 69 -35 24 -11 101 -50
144 -73 12 -7 46 -27 76 -46 51 -33 53 -36 30 -41 -59 -14 11 -21 194 -19 140
1 194 5 189 13 -3 6 0 5 8 -1 8 -8 43 -13 96 -13 73 0 82 2 76 17 -5 13 -2 15
12 9 11 -4 22 -1 27 6 6 9 7 5 3 -9 -5 -20 -3 -23 19 -23 28 0 33 9 14 28 -9
9 -8 12 4 12 9 0 18 -9 21 -20 4 -14 14 -20 35 -20 17 0 34 5 37 10 3 6 11 10
16 10 6 0 8 -3 6 -7 -9 -14 65 -14 81 -1 12 11 16 11 20 0 3 -10 63 -12 268
-11 190 0 262 4 258 11 -5 8 -1 9 12 2 29 -14 1143 -17 1160 -3 10 8 14 8 14
1 0 -8 133 -11 445 -11 l445 -1 0 24 c0 15 -7 26 -17 29 -17 4 -17 5 0 6 16 1
17 20 17 247 0 176 -3 243 -11 238 -8 -5 -8 -1 0 14 16 31 13 73 -6 88 -17 13
-17 14 0 8 14 -5 17 0 17 34 0 23 -5 43 -12 45 -10 4 -10 6 0 6 9 1 12 598 12
2951 l0 2950 -5910 0 -5910 0 0 -1859z m6680 -3344 c19 -6 37 -11 40 -12 72
-14 128 -31 124 -37 -3 -4 1 -8 9 -8 8 0 27 -12 43 -27 16 -15 40 -33 54 -41
24 -13 24 -14 -10 -7 -46 9 -51 10 -79 19 -19 6 -28 4 -38 -10 -13 -18 -15
-17 -36 8 -12 14 -29 29 -37 32 -8 3 -5 4 8 2 43 -8 17 19 -29 29 -24 6 -50
14 -57 18 -8 6 -17 -2 -26 -25 -16 -37 -16 -37 10 -42 65 -14 121 -32 137 -45
15 -13 20 -13 26 -2 5 8 14 10 20 6 9 -5 9 -11 -1 -22 -11 -14 -10 -15 10 -9
13 4 22 3 22 -3 0 -5 -9 -13 -20 -16 -23 -7 -27 -25 -5 -25 8 0 14 -6 13 -12
-2 -7 5 -12 15 -12 9 1 17 -2 17 -7 0 -5 9 -9 20 -9 11 0 20 -5 20 -11 0 -6 7
-9 15 -5 8 3 15 1 15 -4 0 -5 9 -7 20 -5 11 2 22 0 25 -5 6 -10 81 -23 137
-24 30 -1 38 -5 38 -20 0 -15 3 -16 15 -6 8 6 19 9 26 5 17 -11 -10 -25 -50
-25 -29 0 -32 2 -21 15 14 17 7 18 -63 15 -21 -1 -45 4 -53 10 -7 7 -14 9 -14
4 0 -5 -4 -3 -9 4 -4 7 -27 13 -50 14 -23 0 -47 6 -54 12 -6 7 -21 10 -34 8
-14 -3 -23 1 -23 8 0 15 -26 41 -34 33 -3 -3 2 -12 12 -19 16 -12 16 -13 0
-14 -9 0 -20 -5 -24 -12 -4 -6 -3 -8 3 -5 5 3 36 -3 69 -13 l59 -19 -45 -1
c-43 -2 -41 -3 40 -23 47 -12 91 -26 98 -30 6 -5 12 -4 12 2 0 5 -23 17 -51
26 -58 20 -60 31 -2 16 22 -6 63 -12 91 -13 29 -2 52 -8 52 -13 0 -6 36 -19
80 -29 65 -16 82 -17 95 -6 19 16 170 9 187 -8 7 -7 26 -11 43 -11 18 1 23 3
12 6 -11 3 -28 14 -38 24 -11 11 -24 17 -29 14 -5 -3 -19 3 -31 13 -22 21 -59
19 -59 -4 0 -8 -4 -14 -10 -14 -5 0 -7 7 -3 16 5 14 2 14 -31 0 -20 -8 -36
-11 -36 -5 0 5 -7 9 -16 9 -10 0 -14 -6 -11 -15 5 -12 2 -12 -19 -3 -34 16
-18 27 43 29 l51 2 -21 19 c-12 11 -16 17 -9 13 7 -4 45 -8 85 -10 40 -2 64
-1 55 2 -10 2 -18 9 -18 15 0 12 120 1 135 -13 5 -5 15 -9 23 -9 7 0 20 -7 29
-15 10 -10 23 -13 37 -9 11 4 47 7 79 7 50 -1 63 -5 87 -28 19 -18 30 -23 35
-15 4 6 14 8 24 5 9 -4 39 -9 66 -12 66 -7 89 -10 95 -13 3 -1 15 -1 28 0 12
1 22 -2 22 -7 0 -4 23 -9 50 -10 53 -2 105 -21 65 -24 -11 -1 -32 0 -47 1 -16
1 -28 -3 -28 -9 0 -6 5 -11 10 -11 6 0 10 -7 10 -16 0 -14 1 -14 16 0 17 18
69 22 79 6 3 -5 21 -11 38 -11 30 -2 30 -2 5 -6 -18 -3 -25 -9 -21 -19 4 -10
-2 -14 -21 -14 -14 0 -26 6 -26 13 0 8 -3 9 -8 1 -11 -17 -52 -24 -45 -8 3 9
-2 14 -16 14 -12 0 -21 -6 -21 -12 0 -9 -2 -10 -8 -2 -4 6 -17 14 -29 18 -17
6 -23 3 -23 -8 0 -9 -7 -16 -15 -16 -18 0 -20 17 -3 22 6 2 8 10 4 16 -5 8
-16 10 -28 6 -11 -3 -23 -2 -27 4 -3 5 -30 11 -59 14 -44 4 -50 3 -40 -9 6 -8
18 -11 25 -9 8 3 29 -2 46 -11 18 -9 35 -16 39 -15 3 1 9 -6 12 -14 5 -13 0
-14 -27 -9 -17 4 -44 14 -59 21 -36 18 -47 18 -22 -1 18 -14 17 -15 -8 -4 -15
7 -25 16 -21 22 4 6 -7 7 -29 3 -20 -3 -47 -2 -62 4 -17 6 -26 6 -26 -1 0 -5
7 -12 15 -15 8 -4 12 -11 8 -17 -3 -5 2 -16 12 -24 11 -7 14 -13 9 -13 -6 0
-15 5 -22 12 -9 9 -12 8 -12 -5 0 -9 -4 -17 -10 -17 -5 0 -7 7 -4 15 4 8 1 21
-5 29 -6 7 -8 15 -5 18 3 4 -8 9 -25 13 -22 5 -28 11 -24 23 3 11 2 13 -4 6
-12 -17 -72 -12 -65 5 4 10 1 13 -10 8 -9 -3 -36 0 -60 8 -26 8 -51 10 -59 5
-20 -13 -7 -21 46 -26 26 -2 53 -11 62 -19 8 -8 24 -15 35 -15 12 0 18 -3 14
-7 -11 -11 -96 -15 -96 -4 0 5 9 7 20 4 15 -4 19 -2 14 10 -4 11 -12 14 -27 9
-34 -12 -90 -5 -103 12 -7 10 -31 18 -66 20 -30 3 -67 8 -83 11 -23 5 -26 4
-15 -4 8 -6 27 -11 43 -11 15 0 27 -4 27 -8 0 -10 52 -28 105 -37 67 -10 75
-15 75 -41 0 -13 5 -24 11 -24 5 0 8 3 6 8 -11 18 33 36 49 20 4 -5 0 -8 -9
-8 -9 0 -17 -5 -17 -11 0 -6 9 -8 22 -3 21 6 21 5 9 -10 -8 -10 -23 -15 -33
-13 -10 3 -21 1 -24 -4 -3 -5 2 -9 10 -9 9 0 16 -4 16 -10 0 -5 9 -10 21 -10
12 0 17 -4 13 -11 -4 -7 0 -9 14 -5 11 4 23 2 27 -4 10 -16 21 -12 21 10 0 23
-26 34 -57 25 -16 -5 -19 -4 -14 5 5 8 22 10 51 6 42 -5 71 8 37 17 -10 3 6 4
34 4 29 -1 53 -5 53 -9 0 -5 10 -8 21 -8 18 0 19 -2 9 -15 -12 -14 -15 -14
-36 0 -34 22 -50 19 -28 -6 19 -22 19 -22 -3 -8 -17 10 -25 11 -34 2 -12 -12
-7 -14 55 -28 22 -5 26 -9 16 -15 -18 -11 45 -24 120 -24 30 -1 58 -5 61 -9 4
-5 22 -13 40 -17 28 -8 23 -9 -29 -7 -34 1 -63 -2 -65 -8 -2 -6 -20 -4 -46 5
-34 11 -47 11 -62 2 -11 -7 -19 -8 -19 -2 0 5 -6 10 -14 10 -8 0 -16 5 -18 11
-2 6 -20 11 -41 11 -20 0 -40 4 -43 9 -3 5 -10 6 -16 3 -17 -11 34 -33 60 -27
20 5 23 2 20 -17 -1 -13 -9 -25 -16 -26 -7 -1 -8 0 -2 3 22 11 8 21 -37 28
-45 6 -98 19 -204 52 -26 7 -66 16 -89 19 -24 3 -62 16 -85 29 -29 16 -46 20
-53 13 -6 -6 -16 -7 -22 -3 -9 6 -9 10 1 16 10 6 8 9 -8 9 -12 0 -24 -6 -26
-12 -4 -9 -6 -7 -6 3 -1 9 -17 21 -40 28 -21 6 -42 18 -45 26 -3 8 -14 15 -24
15 -11 0 -40 11 -66 25 -52 28 -56 29 -56 17 0 -5 11 -14 25 -20 14 -6 25 -18
25 -27 0 -8 6 -15 14 -15 7 0 19 -6 25 -14 9 -11 5 -15 -24 -18 -20 -2 -38 0
-41 4 -3 4 -16 8 -29 8 -13 0 -26 4 -29 9 -3 4 6 6 21 3 18 -3 24 -1 19 7 -4
6 -14 11 -22 11 -8 0 -14 4 -14 8 0 5 -9 18 -20 30 -12 12 -19 22 -16 22 3 0
-7 12 -22 28 l-27 27 24 3 c23 4 23 4 -5 19 -34 18 -106 34 -98 22 3 -5 -1 -9
-9 -9 -8 0 -17 7 -21 15 -3 8 -15 15 -26 15 -14 0 -20 7 -20 21 0 11 -5 30
-11 41 -11 20 -9 20 37 14 45 -6 47 -5 30 9 -19 14 -12 21 17 16 4 0 7 3 7 8
0 15 -42 41 -65 41 -11 0 -27 5 -35 11 -11 7 -3 8 30 3 25 -3 48 -11 52 -18 5
-8 11 -7 20 2 16 16 3 27 -44 40 -25 7 -39 7 -47 -1 -6 -6 -11 -7 -11 -3 0 5
-7 3 -15 -4 -12 -10 -21 -10 -45 0 -16 7 -30 16 -30 21 0 14 12 11 32 -8 16
-15 21 -15 28 -3 10 17 3 33 -13 27 -18 -6 -40 22 -34 43 3 11 0 20 -6 21 -7
0 -3 4 8 9 11 5 14 9 8 9 -7 1 -13 5 -13 10 0 6 8 8 18 6 10 -2 25 1 33 6 10
6 6 9 -16 10 -16 1 -33 1 -37 0 -5 0 -8 6 -8 15 0 11 5 14 18 9 9 -4 33 -12
52 -18z m570 -101 c36 -8 88 -20 117 -26 29 -7 56 -9 61 -6 5 3 22 1 38 -4
138 -44 244 -59 244 -34 0 19 7 18 41 -7 17 -12 47 -23 68 -26 24 -3 42 -13
51 -27 12 -19 12 -20 -3 -7 -11 9 -17 9 -17 2 0 -6 15 -18 33 -26 17 -8 23
-13 12 -9 -58 16 -144 34 -170 34 -27 0 -28 -1 -13 -17 10 -9 36 -18 63 -19
26 -1 52 -8 60 -14 10 -8 15 -8 19 2 5 10 7 10 12 1 8 -17 29 -16 47 1 9 9 19
11 28 5 11 -7 9 -10 -8 -15 -13 -4 -21 -9 -19 -13 2 -3 -23 -6 -55 -7 -33 0
-54 3 -48 6 14 9 -14 20 -50 20 -15 0 -31 4 -37 9 -5 5 -19 12 -31 16 -17 4
-21 3 -18 -7 3 -8 -4 -14 -20 -14 -14 -1 -22 2 -19 7 3 5 -8 9 -25 9 -16 0
-33 5 -36 10 -8 13 16 13 49 0 14 -5 26 -6 26 -1 0 4 10 13 23 19 18 9 12 11
-36 8 -32 -2 -60 1 -63 5 -3 5 -13 9 -22 9 -15 0 -15 -2 -2 -10 13 -9 13 -10
0 -10 -13 0 -13 -1 0 -10 13 -8 12 -10 -3 -10 -10 0 -20 7 -23 15 -4 8 -14 15
-23 15 -14 0 -14 2 -1 11 12 9 12 10 -4 5 -11 -4 -23 -1 -28 6 -6 10 -8 10 -8
-1 0 -8 7 -19 16 -26 13 -9 9 -10 -20 -7 -22 3 -36 0 -36 -7 0 -6 9 -11 20
-11 11 0 20 -4 20 -10 0 -5 -22 -7 -52 -3 -58 6 -76 13 -35 13 14 0 29 5 32
10 3 6 -4 10 -17 10 -13 0 -34 8 -48 17 -17 12 -25 13 -28 5 -2 -7 -13 -10
-28 -6 -15 4 -24 2 -24 -5 0 -6 10 -11 23 -11 12 0 30 -9 40 -20 9 -11 28 -20
41 -20 14 0 28 -5 32 -12 5 -8 -2 -9 -27 -4 -19 4 -45 10 -59 12 -13 3 -31 10
-38 17 -8 6 -28 10 -44 8 -18 -1 -28 1 -24 7 3 5 -5 12 -19 14 -17 4 -25 1
-25 -9 0 -11 -6 -13 -17 -8 -39 16 -56 18 -49 7 4 -7 16 -12 27 -12 21 0 26
-24 7 -36 -6 -4 -8 -3 -5 3 4 6 -2 13 -13 16 -10 3 -20 1 -22 -3 -2 -5 -19 1
-38 11 -19 11 -26 18 -16 14 11 -3 23 0 28 7 6 10 8 8 8 -4 0 -10 4 -18 9 -18
5 0 7 8 4 19 -4 15 3 19 40 24 24 3 62 4 83 2 37 -5 38 -5 9 5 -16 6 -52 8
-80 5 -31 -3 -43 -2 -31 3 15 6 16 11 7 16 -7 5 -18 3 -24 -3 -6 -6 -20 -11
-31 -11 -16 0 -18 2 -7 9 9 6 10 11 3 15 -6 4 -16 -2 -21 -13 -8 -14 -8 -21 2
-24 6 -2 -5 -8 -26 -12 -33 -6 -36 -9 -25 -24 11 -14 11 -14 -3 -3 -9 7 -21
12 -25 11 -20 -3 -47 2 -41 8 4 3 0 15 -10 25 -9 10 -11 18 -5 18 6 0 16 -9
22 -20 11 -20 50 -28 50 -11 0 5 8 7 19 4 22 -6 36 23 15 31 -8 3 -14 11 -13
18 0 10 2 10 6 1 7 -18 30 -16 37 2 3 10 -3 17 -19 21 -27 7 -33 19 -12 27 7
3 6 6 -5 6 -9 1 -19 5 -23 10 -3 5 11 5 32 -1 21 -6 58 -8 84 -5 28 4 78 -2
130 -13 91 -21 145 -26 119 -11 -8 5 -53 17 -100 26 -47 10 -89 22 -95 27 -10
10 -9 10 105 -16z m-3850 -373 c0 -20 -4 -22 -25 -17 -16 4 -30 0 -41 -10 -14
-15 -13 -17 23 -31 21 -9 47 -20 57 -26 15 -9 18 -8 14 3 -3 8 0 22 7 31 11
16 14 15 25 -13 7 -17 10 -46 7 -66 -5 -32 -2 -40 34 -75 22 -22 44 -37 50
-34 5 4 9 1 9 -5 0 -11 -16 -20 -44 -24 -8 -1 -19 -6 -23 -10 -4 -5 4 -6 20
-4 34 6 34 -3 0 -39 -14 -15 -23 -22 -19 -15 7 12 -3 16 -38 12 -11 -1 -15 3
-12 9 4 6 19 11 33 11 39 0 24 9 -34 19 -61 12 -94 5 -86 -17 4 -10 2 -13 -6
-8 -6 4 -28 9 -47 11 -52 5 -54 15 -3 16 30 2 35 3 17 6 -16 2 -28 11 -28 18
0 18 -16 27 -52 31 -28 4 -28 3 -12 -21 15 -23 15 -25 0 -25 -9 0 -16 5 -16
10 0 6 -11 16 -25 22 -19 8 -22 14 -13 20 7 5 -11 6 -42 2 -53 -6 -54 -6 -32
11 37 27 177 5 213 -34 22 -23 35 -26 44 -11 6 10 52 11 70 1 6 -3 15 -6 20
-7 6 -1 17 -5 26 -8 9 -4 21 0 29 9 11 13 10 19 -5 35 -10 11 -26 20 -36 20
-9 0 -19 5 -21 11 -2 6 -15 12 -30 12 -17 1 -24 7 -20 15 4 12 1 12 -17 0 -20
-12 -24 -10 -41 12 -11 14 -20 19 -20 13 0 -7 -3 -13 -7 -13 -14 0 -63 47 -56
54 3 3 0 6 -8 6 -12 0 -12 2 0 9 11 7 9 10 -7 15 -29 9 -17 36 16 36 14 0 22
3 19 6 -9 10 -152 3 -152 -6 0 -2 -22 -4 -48 -6 -27 -2 -55 -8 -63 -15 -7 -6
-19 -9 -26 -7 -15 5 25 29 57 35 11 1 52 9 90 17 39 8 99 17 134 21 60 7 64 6
57 -11 -5 -17 -5 -17 6 -3 27 33 78 35 78 2z m3260 -52 c0 -5 -6 -12 -12 -14
-7 -3 -3 -6 10 -6 20 -1 27 -11 23 -34 -1 -5 3 -6 9 -2 5 3 10 17 10 31 0 20
4 23 23 19 22 -6 62 -11 107 -15 22 -1 23 -2 6 -9 -11 -4 -38 -4 -60 0 -50 10
-71 11 -63 3 5 -6 65 -22 102 -28 11 -2 27 -5 35 -6 8 -1 2 -5 -15 -9 -21 -5
-30 -12 -29 -24 2 -14 -5 -18 -25 -17 -63 4 -75 -2 -26 -14 28 -6 52 -9 55 -6
3 3 14 7 25 8 11 2 24 8 30 13 5 5 15 9 23 9 11 0 10 -4 -2 -21 -8 -12 -12
-28 -9 -37 5 -11 2 -14 -9 -9 -9 3 -24 0 -35 -8 -15 -11 -16 -14 -3 -18 8 -3
22 -8 30 -10 8 -3 -1 -6 -20 -7 -29 -1 -31 -3 -15 -10 11 -4 53 -6 93 -4 58 4
72 2 66 -8 -5 -10 -4 -10 6 -1 11 10 11 15 0 28 -8 9 -8 15 -2 15 6 0 14 -5
17 -10 4 -7 13 -7 25 0 16 9 19 8 13 -7 -5 -15 -3 -15 11 2 12 14 19 16 22 8
3 -7 17 -13 31 -13 21 0 24 -2 13 -15 -7 -8 -21 -15 -31 -15 -11 0 -19 -4 -19
-10 0 -5 7 -7 15 -4 8 4 15 2 15 -4 0 -20 -29 -21 -35 -1 -8 24 -24 25 -20 2
2 -10 4 -24 4 -31 1 -8 9 -10 26 -6 15 4 25 2 25 -5 0 -6 -5 -10 -11 -9 -22 5
-19 -20 3 -26 42 -11 50 -8 45 22 -2 15 -2 21 0 15 3 -7 9 -13 14 -13 5 0 9
-9 9 -20 0 -17 -6 -19 -69 -16 -38 2 -74 6 -80 10 -17 11 -13 26 7 27 14 0 14
2 -3 9 -29 13 -35 12 -35 -6 0 -11 -5 -14 -16 -10 -14 5 -15 4 -5 -8 7 -8 19
-12 26 -9 10 3 13 -1 10 -15 -4 -21 27 -42 33 -23 2 6 8 8 13 5 6 -3 17 0 25
7 8 6 17 9 21 5 8 -7 -27 -35 -44 -36 -7 0 -13 -4 -13 -10 0 -13 17 -13 25 0
9 15 22 12 22 -5 0 -14 -10 -19 -29 -16 -5 0 -8 -6 -8 -15 0 -15 -2 -15 -25 0
-23 15 -25 15 -25 -1 0 -10 -3 -28 -6 -40 -5 -17 -2 -23 10 -23 10 0 14 -5 11
-10 -4 -6 -11 -8 -16 -5 -5 4 -9 2 -9 -4 0 -5 6 -12 13 -14 7 -4 6 -6 -5 -6
-9 -1 -19 5 -21 12 -3 7 -6 4 -6 -6 -1 -10 -7 -17 -13 -14 -7 2 -12 11 -10 21
4 25 -13 19 -26 -8 -10 -22 -8 -25 11 -29 18 -4 17 -5 -5 -6 -20 -1 -28 4 -28
15 0 14 -3 14 -15 4 -12 -10 -15 -9 -16 6 0 11 -3 14 -6 7 -2 -7 -9 -13 -15
-13 -6 0 -8 7 -4 15 4 12 0 14 -22 10 -25 -5 -25 -5 -4 4 12 6 39 9 60 7 32
-2 38 0 39 17 2 14 -3 18 -16 14 -27 -7 -51 10 -28 19 9 3 17 13 17 21 0 25
35 10 36 -15 1 -27 21 -52 21 -27 0 8 -4 15 -8 15 -5 0 -6 7 -2 16 8 21 -13
34 -54 34 -23 0 -33 -5 -33 -16 0 -8 -5 -12 -10 -9 -6 3 -13 -1 -16 -10 -6
-14 -7 -14 -18 0 -7 10 -18 13 -29 9 -25 -9 -21 -27 4 -19 15 5 19 4 15 -4 -4
-6 0 -11 10 -11 14 0 13 -3 -6 -20 -26 -22 -40 -26 -40 -9 0 5 5 7 10 4 6 -3
10 -2 10 3 0 18 -14 21 -30 7 -16 -15 -16 -12 -3 37 8 29 15 96 16 149 2 81 4
95 17 91 9 -3 4 7 -11 24 -14 16 -37 47 -52 69 -15 23 -45 58 -67 80 -22 21
-40 43 -40 47 0 4 14 8 30 8 17 0 30 -4 30 -9z m1334 -8 c4 -5 22 -9 39 -9 18
-1 88 -9 157 -19 69 -9 150 -21 180 -25 30 -4 46 -8 35 -9 -19 -2 -19 -2 3
-21 27 -22 19 -28 -28 -19 -24 4 -27 7 -12 8 13 0 20 5 17 11 -3 5 -20 7 -38
4 -22 -4 -28 -3 -18 4 22 16 -6 25 -55 17 -24 -3 -42 -10 -39 -16 8 -12 45
-12 45 1 0 6 8 10 17 10 13 0 14 -3 6 -11 -6 -6 -9 -18 -6 -25 3 -8 0 -14 -7
-14 -6 0 -8 -4 -5 -10 3 -5 -1 -10 -10 -10 -9 0 -13 -4 -10 -10 9 -15 35 -12
35 4 0 12 6 13 30 5 17 -6 30 -15 30 -21 0 -6 -7 -8 -15 -4 -9 3 -20 -3 -27
-14 -7 -11 -21 -20 -31 -20 -10 0 -15 -4 -12 -10 6 -10 -6 -13 -60 -12 -28 1
-27 0 8 -10 29 -8 45 -7 62 2 12 7 32 9 43 6 11 -4 23 -2 27 4 11 18 27 12 17
-7 -7 -11 -5 -27 7 -49 19 -39 29 -44 56 -32 18 8 18 8 -2 4 -13 -2 -26 0 -29
5 -3 5 0 9 6 9 7 0 10 7 6 15 -4 12 4 15 39 15 24 0 46 -4 49 -9 4 -5 25 -12
47 -16 23 -4 37 -11 32 -16 -5 -5 -32 -2 -63 6 -82 22 -99 20 -64 -7 41 -32
57 -48 47 -48 -4 0 -2 -4 6 -9 10 -7 4 -9 -20 -7 -48 4 -49 5 -47 18 2 6 -5
14 -15 16 -10 2 -16 -1 -15 -6 4 -13 -10 -12 -45 3 -26 11 -27 13 -13 28 19
19 21 28 3 21 -7 -2 -21 2 -32 10 -18 14 -18 15 -2 16 17 0 23 15 10 23 -14 8
-48 -10 -48 -24 0 -15 -64 -17 -135 -5 -26 5 -30 4 -15 -3 33 -16 -10 -14 -48
2 -18 8 -39 12 -47 9 -8 -3 -12 -1 -7 4 4 4 27 7 50 7 41 -1 41 -1 -13 11 -30
7 -65 18 -77 24 -16 9 -22 9 -25 0 -3 -7 -7 -5 -11 6 -6 16 -1 17 59 11 36 -3
76 -10 89 -15 28 -11 73 -1 53 11 -15 10 38 5 73 -6 14 -5 19 -3 15 3 -4 6 7
12 26 14 l33 4 -45 21 c-25 12 -39 22 -32 22 7 1 10 5 7 11 -3 6 1 7 9 4 9 -3
16 -1 16 4 0 14 -54 38 -101 46 -19 3 -53 15 -74 26 -22 11 -49 20 -62 20 -12
0 -24 4 -27 9 -3 5 -16 7 -29 4 -18 -4 -19 -3 -7 6 18 13 24 13 34 4z m-5297
-19 c13 -4 20 -11 16 -20 -3 -9 2 -14 15 -14 27 0 35 -15 28 -45 -5 -21 -11
-24 -36 -18 -19 3 -30 1 -30 -6 0 -11 33 -16 78 -12 19 1 22 -3 22 -34 0 -25
7 -41 25 -57 14 -12 25 -30 25 -40 0 -25 -46 -24 -62 2 -9 14 -24 20 -48 21
-19 0 -44 5 -55 10 -15 7 -9 8 23 5 36 -4 42 -2 38 11 -3 8 -6 18 -6 23 0 4
-35 6 -77 4 -43 -3 -88 -2 -101 1 -36 9 -14 28 27 23 20 -3 45 -2 56 3 19 7
19 8 -2 8 -26 1 -28 7 -9 26 7 8 24 12 37 9 15 -2 9 3 -16 16 -30 15 -35 20
-18 20 12 0 25 -4 28 -10 3 -5 14 -10 23 -10 14 0 14 2 3 9 -7 5 -11 14 -7 20
7 11 -45 10 -196 -5 -40 -3 -70 -4 -67 0 7 8 213 48 242 47 9 0 15 4 12 10 -7
10 1 11 32 3z m1636 -33 c29 -15 34 -21 23 -30 -7 -6 -16 -8 -19 -5 -3 4 -5
-3 -4 -15 2 -27 14 -27 22 0 5 15 10 18 18 10 16 -16 37 -13 31 4 -4 10 0 15
15 15 15 0 19 -5 15 -17 -5 -17 -5 -17 6 0 6 9 17 17 25 17 8 0 11 7 8 20 -5
18 0 20 43 20 35 0 45 -3 34 -10 -8 -5 -25 -10 -38 -10 -19 0 -22 -4 -17 -20
4 -14 2 -20 -6 -18 -7 2 -22 -11 -33 -29 -12 -18 -24 -32 -29 -33 -4 0 -25
-11 -45 -25 -29 -19 -46 -24 -70 -19 -18 4 -32 8 -32 11 0 2 12 14 26 27 23
19 25 25 15 43 -8 15 -17 20 -33 15 -17 -4 -20 -2 -15 11 3 9 2 19 -4 22 -5 4
-7 11 -3 16 3 5 10 7 15 4 5 -4 9 -1 9 4 0 14 -1 14 43 -8z m-2112 -27 c12
-15 10 -16 -21 -10 -31 6 -33 5 -17 -7 9 -8 17 -19 17 -26 0 -6 11 -17 25 -23
14 -6 25 -17 25 -25 0 -17 -10 -16 -32 4 -10 9 -21 13 -26 9 -4 -4 2 -14 12
-22 14 -10 16 -14 5 -14 -12 0 -12 -1 0 -9 10 -7 22 -4 38 8 22 18 73 18 73
-1 0 -5 9 -4 20 2 16 9 18 8 14 -5 -4 -8 -1 -15 6 -15 6 0 10 -5 8 -10 -2 -6
-40 -12 -86 -14 -45 -1 -78 1 -71 4 18 12 -20 21 -39 10 -15 -9 -16 -9 -1 -10
9 0 22 -7 29 -15 7 -9 19 -14 27 -11 7 3 13 -1 13 -9 0 -8 5 -15 12 -15 6 0 8
-3 5 -6 -4 -4 -12 -2 -19 3 -7 6 -34 17 -60 26 -41 14 -49 14 -56 1 -5 -9 -28
-16 -61 -18 -36 -3 -57 -9 -63 -20 -6 -11 -17 -14 -32 -10 -14 3 -29 0 -37 -9
-14 -14 -79 -12 -79 2 0 16 -58 31 -83 22 -17 -7 -28 -7 -32 -1 -4 6 6 11 22
11 15 1 -6 6 -47 11 -72 9 -110 25 -82 35 19 7 14 33 -7 33 -11 0 -23 5 -26
10 -4 6 -15 8 -25 5 -23 -7 -38 14 -19 26 10 6 6 9 -13 9 -16 0 -28 5 -28 10
0 17 48 11 59 -7 7 -13 26 -18 83 -20 59 -2 69 -1 51 8 -17 9 -19 14 -10 24 9
10 17 9 36 -4 23 -15 25 -15 18 2 -7 20 5 22 32 5 10 -6 27 -8 37 -4 14 5 15
9 5 15 -18 12 -5 17 62 25 44 6 57 4 57 -6 0 -9 -14 -12 -49 -11 -40 1 -50 -2
-54 -17 -4 -16 -1 -17 19 -10 14 6 47 8 75 7 28 -2 91 1 140 8 49 6 89 7 89 3
0 -4 -6 -8 -12 -9 -7 0 -2 -5 11 -10 13 -5 26 -7 29 -4 11 11 -42 54 -76 61
l-37 8 50 6 c28 4 57 8 66 8 9 1 23 -5 30 -14z m-326 -4 c-11 -5 -41 -9 -66
-9 -25 -1 -49 -4 -52 -7 -4 -4 -27 -8 -51 -9 -25 -1 -51 -6 -58 -11 -13 -10
-60 -10 -596 -1 -279 5 -366 16 -141 18 418 4 647 9 754 17 177 12 234 12 210
2z m6808 -8 c-1 -5 18 -13 43 -17 24 -3 42 -10 39 -16 -9 -14 5 -11 21 6 14
13 13 15 -8 16 -13 0 -32 5 -43 10 -19 9 -4 8 115 -6 14 -2 56 -6 94 -9 113
-10 90 -18 -28 -10 -85 5 -107 4 -101 -5 4 -8 17 -10 31 -7 13 4 24 2 24 -3 0
-15 -23 -19 -50 -9 l-25 9 23 -23 c12 -14 22 -28 22 -33 0 -5 -7 1 -16 13 -13
18 -19 21 -30 11 -12 -9 -13 -9 -9 3 7 17 -51 31 -120 29 -47 -1 -186 27 -200
41 -7 7 30 8 105 4 85 -5 111 -3 100 5 -13 9 -13 10 0 6 8 -2 14 -9 13 -15z
m-7970 -32 c52 -31 94 -41 125 -29 20 8 23 12 12 19 -21 13 70 -1 97 -15 12
-7 20 -15 17 -18 -8 -8 29 -16 86 -19 25 -2 43 -7 42 -12 -2 -5 2 -12 9 -17
22 -13 6 -17 -36 -9 -22 4 -30 8 -17 9 12 0 22 6 22 12 0 8 -11 9 -31 5 -17
-3 -50 -6 -73 -6 -33 -1 -37 -3 -24 -11 10 -5 24 -9 30 -8 32 4 40 -4 13 -12
-21 -6 -38 -4 -59 6 -37 19 -42 19 -26 0 7 -8 18 -15 25 -15 8 0 15 -6 18 -12
4 -10 7 -10 18 0 20 18 46 15 63 -9 10 -15 29 -23 60 -26 27 -3 47 -11 51 -21
8 -22 -5 -30 -18 -11 -7 9 -35 19 -65 23 -64 8 -84 15 -76 27 7 13 -10 11 -23
-2 -12 -12 -86 -2 -78 11 3 5 15 6 28 4 22 -5 22 -5 -1 8 -19 9 -28 9 -43 0
-23 -15 -69 -5 -69 14 0 17 12 18 27 3 7 -7 23 -9 40 -4 25 6 26 8 11 19 -10
7 -14 17 -10 21 4 4 -10 5 -31 2 -30 -5 -40 -2 -50 14 -6 10 -17 19 -24 19
-17 0 -72 33 -78 48 -6 16 -2 15 38 -8z m6571 -41 c16 2 18 -2 13 -31 -3 -19
1 -44 8 -58 7 -13 11 -30 8 -37 -3 -7 6 -17 20 -22 14 -6 28 -19 32 -30 6 -20
52 -41 91 -41 16 0 24 -6 24 -17 0 -14 -2 -15 -9 -4 -6 10 -13 11 -29 2 -11
-6 -32 -11 -47 -11 -15 0 -24 -4 -20 -10 8 -12 -5 -13 -25 0 -8 5 -12 12 -8
15 3 3 -17 28 -44 55 -34 34 -45 50 -33 50 9 0 23 7 31 15 13 13 10 16 -31 26
-25 6 -45 15 -45 19 0 5 9 6 20 3 11 -3 20 -1 20 5 0 5 -16 13 -35 16 -21 4
-35 13 -35 21 0 8 -5 15 -11 15 -5 0 -7 5 -3 11 3 6 17 9 30 6 14 -2 27 0 30
5 3 4 11 5 17 1 7 -4 21 -6 31 -4z m2216 -20 c0 -13 34 -11 48 3 8 8 15 9 20
3 9 -13 132 -44 132 -33 0 4 -7 8 -16 8 -8 0 -12 5 -9 10 8 12 43 4 65 -16 9
-7 26 -11 38 -7 12 3 30 2 39 -2 15 -7 13 -9 -12 -15 -24 -6 -19 -8 27 -9 31
0 59 -5 62 -10 3 -4 -39 -8 -94 -7 -55 0 -100 4 -100 8 0 5 7 8 15 8 8 0 15 5
15 11 0 6 -7 8 -16 5 -9 -3 -30 -7 -47 -7 l-32 -1 30 -8 c24 -6 18 -8 -30 -9
-49 -1 -63 -5 -73 -21 -11 -19 -10 -20 25 -20 28 0 34 -3 23 -10 -12 -8 -12
-10 3 -16 9 -3 15 -9 13 -13 -6 -10 -76 -1 -76 10 0 5 -7 6 -15 3 -9 -4 -15 0
-15 9 0 9 -4 19 -10 22 -14 8 -50 -13 -47 -28 1 -7 -4 -12 -10 -11 -7 1 -25 2
-39 3 -14 0 -23 5 -20 10 7 10 -24 25 -33 16 -3 -3 1 -10 9 -15 12 -8 12 -10
-3 -16 -9 -3 -14 -10 -11 -15 3 -5 2 -9 -3 -9 -4 0 -19 -3 -33 -6 l-25 -5 25
15 c22 13 23 15 8 21 -10 4 -15 11 -12 16 3 5 -1 9 -8 9 -7 0 -20 6 -29 13
-13 10 -5 12 45 10 67 -2 99 -10 90 -24 -3 -5 4 -9 15 -9 14 0 21 6 21 19 0
20 59 48 69 33 3 -4 22 0 41 10 l35 18 -40 -1 c-55 -1 -63 1 -40 11 18 8 17 9
-7 9 -15 1 -30 -3 -33 -9 -9 -14 -25 -12 -22 3 1 7 -6 11 -19 9 -11 -1 -31 2
-45 7 -23 9 -22 10 10 10 22 1 32 5 28 14 -3 9 6 11 34 9 22 -2 39 -8 39 -13z
m-920 -16 c0 -15 2 -15 9 -4 6 10 19 12 42 7 37 -8 119 -17 189 -21 25 -1 59
-3 75 -5 30 -2 30 -2 5 -10 -19 -6 -9 -9 40 -11 36 -1 74 -3 85 -4 13 0 19 -7
17 -18 -2 -10 3 -17 12 -17 18 0 32 20 14 20 -8 0 -6 5 5 11 13 8 22 7 32 -1
8 -6 23 -9 35 -5 11 3 20 2 20 -3 0 -5 7 -9 15 -9 8 0 15 4 15 9 0 4 12 8 28
7 24 0 25 -1 7 -9 -11 -5 -15 -9 -10 -10 6 -1 -1 -5 -15 -9 -14 -4 -34 -5 -45
-1 -26 9 -45 2 -45 -16 0 -8 -9 -14 -21 -14 -12 0 -17 4 -13 11 4 7 0 9 -12 5
-23 -7 -49 8 -40 22 4 7 -7 14 -27 17 -45 9 -80 3 -83 -13 -1 -7 0 -8 3 -2 8
18 28 11 39 -15 11 -23 10 -24 -7 -14 -11 5 -27 9 -37 7 -26 -4 -45 11 -33 26
8 9 1 12 -25 12 -32 0 -34 -1 -18 -13 16 -12 14 -13 -16 -7 -19 4 -39 10 -45
14 -16 12 -65 18 -65 9 0 -5 8 -10 18 -11 32 -2 37 -4 50 -11 6 -5 12 -14 12
-22 0 -10 -30 -3 -117 26 -64 21 -127 39 -140 39 -32 0 -18 30 16 32 16 0 9 4
-19 8 l-45 7 48 1 c39 2 47 -1 47 -15z m-5548 -108 c7 -16 19 -25 32 -24 19 0
19 1 -4 11 -15 6 -20 12 -12 15 7 3 29 -3 49 -12 20 -10 50 -19 68 -20 18 -2
46 -12 61 -22 31 -20 116 -45 124 -36 3 3 -1 8 -8 10 -10 4 -10 8 -1 19 14 17
48 18 69 3 11 -8 8 -9 -16 -5 -38 6 -50 -2 -26 -20 16 -12 15 -13 -7 -22 -30
-11 -17 -20 41 -30 33 -6 43 -12 44 -28 1 -11 6 -29 12 -41 15 -27 5 -35 -22
-17 -13 8 -26 11 -31 7 -4 -5 -5 -2 -1 5 4 6 14 12 23 12 9 0 13 3 9 7 -4 4
-24 6 -44 5 l-37 -2 33 14 c17 8 32 18 32 21 0 3 -7 2 -16 -3 -21 -12 -74 7
-74 26 0 11 -9 13 -32 9 -18 -3 -27 -3 -20 0 17 7 5 23 -17 23 -9 0 -27 10
-40 21 -18 17 -31 20 -67 16 -24 -2 -46 -1 -49 3 -2 4 -19 6 -37 5 -38 -3 -67
13 -47 26 8 5 1 14 -22 28 l-34 21 28 0 c20 0 31 -7 39 -25z m7221 9 c-16 -7
-17 -34 -2 -34 7 0 18 8 25 18 9 13 16 14 24 6 7 -7 28 -10 51 -7 25 4 39 2
39 -6 0 -6 -4 -11 -10 -11 -5 0 -10 -9 -10 -20 0 -12 -6 -20 -12 -19 -7 1 -21
-1 -30 -5 -10 -5 -23 -6 -30 -3 -7 3 -3 6 10 6 27 1 29 17 3 31 -25 13 -41 13
-21 0 13 -8 12 -11 -5 -24 -11 -9 -27 -16 -35 -17 -8 -1 8 -5 35 -10 28 -4 71
-12 97 -17 36 -7 45 -6 41 4 -3 8 6 14 24 16 25 3 23 5 -19 18 -46 14 -64 30
-34 30 8 0 16 5 18 11 2 5 11 7 21 3 10 -3 16 -12 13 -19 -5 -15 30 -31 94
-41 25 -4 37 -9 27 -12 -10 -2 -16 -10 -13 -17 7 -19 -16 -25 -104 -25 -53 0
-83 -4 -92 -13 -11 -12 -16 -12 -26 0 -10 10 -10 13 0 13 13 0 -31 39 -44 40
-14 0 -4 -25 12 -32 10 -4 6 -7 -12 -7 -20 -1 -26 3 -22 14 6 15 -9 20 -49 17
-10 -1 -15 3 -12 8 4 7 -2 7 -18 1 -33 -13 -64 -4 -70 19 -6 24 0 30 30 30 13
0 22 4 19 8 -2 4 -23 6 -46 4 -25 -3 -37 -7 -30 -12 9 -6 9 -9 1 -15 -7 -4
-18 -2 -26 5 -11 9 -12 7 -8 -9 6 -25 5 -25 -41 -6 -34 14 -53 31 -21 19 20
-8 19 6 -2 23 -17 13 -16 14 7 10 14 -3 36 -1 50 3 l25 8 -25 1 c-15 1 -20 4
-13 9 6 4 60 8 120 9 59 1 102 0 96 -3z m-9024 -13 c7 -5 10 -14 7 -20 -4 -6
3 -15 18 -21 14 -5 26 -12 26 -16 0 -3 -7 -4 -15 0 -8 3 -15 1 -15 -5 0 -7
-10 -9 -24 -5 -14 3 -27 2 -30 -3 -7 -11 55 -21 83 -14 11 3 18 9 15 15 -6 10
34 3 77 -13 14 -6 72 -11 127 -12 70 -2 106 -7 114 -16 11 -11 9 -13 -9 -8
-13 3 -23 1 -23 -4 0 -5 8 -9 18 -9 10 0 27 -7 38 -15 19 -14 19 -14 -3 -15
-12 0 -25 5 -28 10 -3 6 -14 10 -25 10 -10 0 -20 6 -23 14 -4 10 -28 14 -89
14 l-83 1 55 -20 c30 -11 75 -20 99 -19 34 0 42 -3 38 -15 -5 -12 2 -14 41 -9
45 5 46 4 22 -9 l-24 -15 37 -10 c29 -8 44 -7 65 4 34 18 52 18 52 0 0 -17
-87 -28 -129 -16 -17 4 -39 6 -49 3 -10 -2 -34 0 -53 6 -32 10 -32 10 13 5 55
-6 75 12 20 19 -20 3 -51 8 -69 11 -18 3 -34 2 -37 -3 -7 -10 -66 -1 -66 10 0
5 10 9 23 10 18 0 16 3 -13 16 -20 10 -58 16 -90 15 -35 -1 -50 1 -41 7 21 13
-5 18 -56 11 -24 -4 -41 -5 -38 -2 8 8 -28 31 -50 32 -36 0 -96 21 -90 31 4 5
21 8 38 8 l32 -1 -30 -7 c-25 -6 -19 -8 32 -12 33 -2 59 -1 57 2 -2 4 6 9 18
12 18 5 19 8 8 21 -7 9 -9 17 -4 17 5 1 -4 5 -21 9 l-30 8 35 1 c19 0 41 -3
49 -8z m6961 -12 c0 -5 -7 -6 -15 -3 -30 12 -14 -5 20 -22 19 -9 44 -14 55
-11 11 3 20 1 20 -3 0 -13 94 -31 99 -19 1 6 8 3 15 -6 9 -12 21 -14 54 -9 23
3 39 10 36 15 -3 5 2 6 11 3 9 -4 14 -12 11 -20 -3 -7 0 -15 7 -18 7 -3 -1 -2
-17 1 -20 4 -27 2 -22 -5 10 -17 66 -41 102 -44 l31 -3 -34 -16 c-22 -11 -35
-13 -40 -6 -4 6 -1 7 8 2 10 -6 11 -5 3 4 -6 6 -25 13 -42 14 -20 1 -30 7 -28
14 3 6 -2 14 -11 17 -11 4 -14 2 -9 -9 7 -19 1 -19 -19 1 -9 10 -39 18 -73 21
-31 2 -70 5 -87 6 -16 1 -36 6 -44 11 -8 5 -16 4 -21 -3 -5 -10 -16 -9 -44 3
-20 8 -43 13 -50 10 -8 -3 -17 -1 -21 5 -3 7 2 11 14 11 10 0 21 6 24 13 3 9
7 9 19 0 14 -12 28 -8 28 8 0 6 -16 14 -75 34 -19 6 -19 6 -1 -9 18 -15 15
-36 -6 -36 -6 0 -9 3 -5 6 10 11 -20 34 -45 35 -13 0 -32 4 -43 9 -13 6 19 8
88 8 59 0 107 -4 107 -9z m565 -98 c3 -6 17 -6 36 1 16 5 44 7 62 4 18 -4 43
-7 57 -8 14 0 19 -3 12 -5 -21 -8 18 -30 64 -37 38 -6 38 -5 7 4 -54 17 -47
29 8 15 29 -8 55 -14 58 -13 3 1 13 -2 22 -6 10 -4 31 1 50 12 19 10 48 18 64
16 17 -1 44 -2 60 -3 24 -1 27 -3 15 -12 -12 -8 -9 -10 13 -6 39 6 36 -22 -4
-30 l-31 -6 31 -13 c32 -13 61 -10 61 8 0 5 5 6 11 2 6 -3 15 0 20 7 6 10 9
11 9 2 0 -7 10 -13 23 -13 13 0 32 -7 43 -16 18 -15 18 -15 -6 -9 -60 14 -88
17 -94 7 -3 -5 10 -13 29 -16 19 -4 35 -11 35 -16 0 -5 14 -5 32 1 17 5 34 7
36 5 2 -3 -13 -9 -34 -15 -21 -6 -41 -7 -44 -3 -5 8 -34 17 -128 42 -34 9 -42
15 -38 28 5 14 3 13 -8 -2 -9 -11 -22 -16 -31 -13 -25 10 -17 -13 10 -25 24
-11 34 -28 17 -28 -5 0 -33 4 -63 10 -30 5 -81 12 -114 15 -89 7 -103 11 -202
60 -51 25 -97 45 -102 45 -5 0 -13 5 -16 10 -3 6 1 10 9 10 8 0 17 -4 21 -9z
m-2954 -153 c12 -35 22 -68 21 -75 -2 -7 12 -16 30 -21 l33 -8 -29 -8 c-39
-10 -74 -34 -81 -57 -10 -29 -25 -22 -19 9 3 15 -4 53 -15 86 -27 76 -26 101
1 120 12 9 25 16 29 16 3 0 17 -28 30 -62z m2100 42 c-43 -5 -44 -6 -27 -22
10 -10 14 -18 9 -18 -4 0 -1 -5 7 -10 20 -13 -1 -13 -34 0 -15 5 -28 6 -31 0
-3 -5 -12 -7 -20 -3 -9 3 -15 -1 -15 -9 0 -8 -9 -23 -20 -33 -18 -16 -20 -16
-26 -1 -3 9 -16 16 -28 16 -17 0 -18 -2 -6 -10 9 -6 10 -10 3 -10 -6 0 -15 5
-18 11 -5 6 -22 8 -47 4 -29 -5 -39 -4 -34 4 4 6 14 11 22 11 8 0 14 5 14 11
0 6 -9 9 -19 6 -14 -3 -18 -1 -14 9 3 8 0 14 -6 14 -6 0 -11 -13 -11 -29 0
-29 -20 -55 -27 -35 -2 6 -17 8 -34 6 -22 -3 -27 -7 -18 -13 11 -7 11 -9 1 -9
-7 0 -15 7 -18 15 -4 8 -10 13 -14 10 -5 -3 -12 0 -16 6 -10 17 17 29 39 18
13 -7 23 -7 33 2 8 6 14 8 14 3 0 -4 10 2 23 14 17 16 34 21 65 19 23 -1 42
-5 42 -8 0 -3 12 -4 28 -2 l27 4 -25 -15 c-23 -13 -23 -15 -6 -22 11 -4 21 -2
26 7 5 7 12 10 16 6 4 -4 18 0 32 9 15 10 33 13 50 9 22 -5 25 -4 15 6 -31 32
-7 48 57 39 l35 -4 -44 -6z m-6368 -34 c12 -8 45 -16 74 -18 28 -2 49 -6 47
-10 -2 -4 4 -9 13 -11 10 -2 1 -3 -19 -1 -21 3 -38 0 -38 -5 0 -14 26 -20 64
-14 19 3 43 2 53 -2 10 -4 45 -6 78 -5 33 1 57 -1 54 -5 -4 -3 -27 -6 -52 -7
-41 0 -44 -2 -31 -16 20 -19 88 -26 141 -14 31 7 43 7 47 -3 6 -16 -41 -19
-215 -14 -37 1 -74 -3 -85 -10 -16 -10 -14 -11 16 -7 19 3 42 1 50 -5 12 -8 9
-10 -12 -6 -16 2 -28 0 -28 -4 0 -5 6 -9 14 -9 7 0 26 -10 41 -21 15 -12 41
-25 58 -29 28 -7 29 -8 7 -9 -14 0 -36 6 -50 14 -52 29 -93 45 -119 45 -14 0
-53 9 -86 20 -48 15 -54 19 -30 20 17 0 42 6 56 14 19 9 48 12 98 8 42 -3 71
-1 71 5 0 5 -13 8 -30 5 -21 -3 -32 0 -36 12 -3 9 -10 16 -16 16 -5 0 -6 -5
-2 -12 4 -6 3 -8 -2 -5 -6 3 -30 8 -54 11 -29 3 -51 12 -62 25 -10 13 -29 22
-50 22 -23 1 -26 3 -10 6 24 5 29 18 10 26 -10 4 -10 6 0 6 7 1 23 -5 35 -13z
m7852 -26 c5 -8 11 -7 21 1 11 9 14 8 14 -5 0 -9 6 -16 13 -15 6 1 19 0 27 -4
8 -3 44 -8 80 -11 36 -3 74 -7 85 -9 12 -1 19 3 18 11 -4 15 33 16 42 1 4 -6
14 -7 24 -3 25 11 111 15 111 5 0 -13 -72 -24 -79 -13 -4 7 -13 5 -25 -4 -20
-14 -20 -14 0 -16 10 0 27 -1 36 0 12 1 15 -3 11 -16 -5 -14 -3 -15 8 -4 18
17 45 15 69 -5 27 -23 25 -37 -2 -29 -13 4 -30 8 -38 10 -8 2 -33 9 -55 15
-23 6 -61 13 -85 16 -25 3 -56 7 -70 10 -14 3 -41 7 -60 10 -53 7 -142 33
-149 43 -3 5 -13 12 -21 15 -12 4 -12 6 2 6 9 1 20 -4 23 -9z"/>
<path d="M227 2686 c-4 -9 1 -17 11 -20 9 -3 -5 -3 -33 0 -27 3 -52 10 -55 14
-3 4 -21 7 -40 5 -19 -2 -41 -4 -48 -4 -7 -1 -12 -9 -10 -18 4 -25 -39 -30
-45 -6 -3 13 -5 11 -6 -7 -1 -23 3 -25 51 -28 51 -2 51 -2 33 18 -10 11 -15
23 -12 26 4 4 40 1 82 -5 41 -7 83 -10 92 -7 32 10 108 -8 111 -27 3 -14 0
-16 -22 -7 -15 5 -26 6 -26 0 0 -13 12 -18 56 -24 21 -2 64 -10 94 -17 40 -8
55 -9 58 0 2 7 9 8 22 1 11 -6 45 -13 77 -16 32 -3 76 -9 98 -14 59 -14 70
-13 53 4 -20 19 -44 25 -125 31 -68 4 -123 18 -123 30 0 4 21 4 48 1 41 -5 43
-4 17 4 -16 6 -50 13 -75 16 -25 2 -64 6 -88 9 -53 6 -54 -17 -1 -26 33 -6 33
-6 -10 -8 -41 -1 -43 0 -39 23 6 29 -7 36 -58 36 -20 0 -33 4 -30 9 3 5 -4 11
-17 15 -31 8 -34 8 -40 -8z"/>
<path d="M214 2484 c3 -8 -1 -14 -9 -14 -8 0 -15 5 -15 10 0 13 -37 13 -45 1
-9 -16 28 -30 91 -36 33 -3 79 -9 104 -14 47 -8 46 -9 -25 -25 -11 -2 18 -5
65 -5 47 0 112 -7 145 -16 43 -11 86 -14 153 -10 51 3 91 2 89 -3 -3 -4 31 -7
74 -7 67 0 77 2 62 12 -9 7 -25 13 -34 13 -10 0 -21 5 -25 11 -5 9 1 10 22 5
16 -4 52 -10 79 -12 28 -2 70 -6 95 -10 29 -4 41 -2 35 4 -11 11 -125 32 -173
32 -31 0 -44 14 -21 22 6 2 -2 10 -17 17 -23 10 -27 10 -16 0 24 -25 11 -29
-90 -28 -59 0 -95 4 -84 8 18 7 16 9 -14 19 -40 14 -40 14 -40 2 0 -5 7 -10
15 -10 8 0 15 -5 15 -11 0 -5 -4 -8 -9 -5 -5 4 -12 0 -15 -6 -3 -9 -8 -8 -16
5 -7 11 -24 17 -52 17 l-40 0 23 -19 c16 -12 26 -15 30 -9 4 6 15 8 25 4 16
-6 16 -9 4 -17 -11 -7 -6 -8 14 -3 21 5 27 4 22 -5 -8 -12 -62 -13 -111 -2
-21 5 -29 12 -27 24 2 9 -2 17 -8 17 -6 0 -9 -4 -6 -9 7 -11 -39 -20 -65 -14
-31 9 -21 23 11 17 41 -9 38 9 -5 26 -19 8 -35 17 -35 22 0 4 -10 8 -22 7
l-23 0 23 -11 c12 -6 22 -15 22 -20 0 -12 -72 2 -90 18 -22 19 -93 26 -86 8z"/>
<path d="M99 2412 c7 -5 11 -14 7 -20 -3 -6 0 -13 6 -15 7 -3 1 -6 -14 -6 -31
-1 -47 15 -21 22 14 4 13 5 -4 6 -13 0 -23 -3 -23 -9 0 -5 -11 -10 -25 -10
-18 0 -25 -5 -25 -20 0 -14 7 -20 23 -20 22 -1 22 -1 -3 -15 -25 -14 -25 -14
10 -9 19 3 41 7 47 9 16 5 38 -32 22 -37 -7 -2 -7 -12 0 -29 11 -29 57 -47 74
-30 16 16 27 13 21 -4 -5 -12 -2 -13 17 -7 13 5 40 5 62 0 43 -9 110 -1 101
13 -3 5 0 9 5 9 6 0 11 -6 11 -12 0 -10 2 -10 8 -1 5 8 21 10 47 6 37 -6 38
-7 15 -15 -18 -5 -11 -7 23 -4 26 2 47 0 47 -5 0 -5 -18 -9 -39 -9 -40 0 -61
-13 -41 -25 6 -4 8 -11 5 -16 -4 -5 12 -9 34 -9 23 0 41 -4 41 -10 0 -5 17
-10 38 -10 20 0 52 -4 70 -10 29 -8 32 -7 22 5 -7 8 -22 15 -34 16 -15 0 -16
2 -6 6 8 3 18 10 21 15 4 6 23 6 50 0 40 -9 41 -10 12 -11 -45 -1 -33 -29 15
-36 21 -3 51 -12 67 -20 17 -7 54 -16 84 -20 29 -3 59 -12 66 -19 8 -8 26 -11
47 -7 l33 5 -40 7 c-32 5 -26 6 34 8 71 1 92 12 34 17 -49 4 -68 9 -75 19 -5
7 -8 7 -8 0 0 -5 -15 -11 -33 -12 -23 -2 -28 0 -17 7 13 8 12 10 -2 10 -10 0
-18 4 -18 10 0 14 183 1 192 -13 6 -9 8 -9 8 1 0 7 13 12 30 12 17 0 30 5 30
10 0 6 -8 10 -17 10 -10 0 -25 5 -33 11 -11 8 -6 9 20 5 19 -4 40 -13 47 -22
14 -19 35 -10 26 11 -6 17 12 21 22 5 3 -5 15 -10 25 -10 10 0 22 -5 25 -10 7
-12 -14 -44 -23 -35 -3 3 -10 1 -16 -4 -6 -5 -28 -14 -48 -20 -21 -7 -38 -17
-38 -23 0 -6 -13 -8 -35 -4 -44 9 -40 -13 8 -37 25 -12 28 -16 12 -16 -12 -1
-26 4 -33 11 -6 6 -15 9 -19 5 -3 -4 2 -13 12 -20 17 -13 17 -14 0 -21 -14 -5
-15 -9 -6 -20 10 -11 8 -16 -9 -21 -13 -4 -27 -2 -34 5 -8 8 -7 10 7 5 9 -4
17 -3 17 2 0 5 -6 10 -12 11 -7 1 -32 5 -55 10 -24 5 -43 5 -43 1 0 -5 13 -9
29 -9 34 0 54 -36 30 -51 -9 -6 -2 -9 23 -9 20 0 40 5 43 10 3 6 13 10 21 10
8 0 12 -4 9 -10 -3 -5 -2 -10 3 -10 6 0 12 7 16 15 6 17 66 21 66 5 0 -6 -12
-8 -27 -5 -25 6 -26 5 -9 -6 11 -7 44 -11 74 -10 62 2 95 -6 86 -21 -4 -6 12
-9 42 -8 66 2 67 2 51 -15 -14 -14 -67 -13 -107 2 -8 3 -26 6 -40 5 -16 0 -19
1 -7 4 37 11 14 19 -57 19 -41 0 -74 -1 -73 -2 13 -13 112 -37 182 -44 105
-11 241 -19 205 -12 -36 7 -53 27 -18 21 15 -3 25 -1 22 3 -3 5 -15 9 -27 9
-12 0 -35 7 -52 16 -16 9 -47 16 -68 15 -24 0 -36 3 -32 9 4 6 3 9 -2 8 -15
-4 -83 13 -83 21 0 5 21 4 47 0 26 -5 53 -7 60 -4 7 2 13 -3 14 -13 0 -9 3
-12 5 -6 7 16 66 4 60 -12 -4 -10 4 -14 27 -14 18 0 49 -5 70 -11 33 -9 42 -8
58 7 15 14 21 14 34 4 8 -7 15 -9 15 -5 0 4 6 2 14 -4 11 -9 15 -9 19 1 4 10
6 10 6 1 1 -7 11 -13 24 -13 13 0 31 -6 41 -13 17 -12 17 -14 1 -27 -12 -10
-18 -11 -24 -2 -8 14 -118 38 -128 28 -11 -11 3 -17 53 -22 27 -3 59 -10 70
-16 15 -7 28 -7 43 2 12 6 42 9 69 6 31 -3 37 -3 17 2 -26 7 -27 9 -11 15 10
4 16 10 13 14 -4 3 -13 0 -22 -7 -20 -17 -66 -5 -59 15 5 11 -2 15 -27 16 -19
0 -28 3 -21 6 29 11 8 20 -39 15 -38 -3 -50 -2 -45 7 4 6 12 9 17 6 5 -4 9 -1
9 4 0 6 -9 11 -20 11 -11 0 -20 -4 -20 -9 0 -12 -49 -20 -56 -10 -3 5 0 9 5 9
6 0 11 4 11 9 0 5 -53 11 -117 15 -266 13 -343 19 -343 25 0 8 188 7 196 -2 4
-4 74 -7 156 -7 113 0 147 3 145 13 -4 20 -20 27 -64 27 -24 0 -43 -5 -46 -12
-4 -10 -8 -10 -15 1 -6 8 -17 11 -27 7 -9 -3 -35 -3 -57 0 -65 11 -20 25 70
23 42 -1 91 -1 107 1 27 2 25 3 -14 12 -38 8 -42 12 -27 20 10 5 33 7 52 4 26
-5 34 -4 34 8 0 8 -5 18 -12 22 -7 5 -9 2 -5 -9 4 -11 2 -14 -8 -10 -8 3 -12
9 -9 14 3 5 -2 9 -11 9 -11 0 -15 5 -11 15 4 11 -1 15 -17 15 -16 0 -18 -3 -8
-9 11 -7 11 -9 0 -14 -10 -4 -9 -6 4 -6 9 -1 17 -6 17 -12 0 -8 -13 -10 -37
-5 -21 3 -44 6 -51 6 -23 0 -2 20 21 20 47 1 -10 19 -72 24 -60 4 -61 3 -46
-15 10 -10 27 -20 39 -22 12 -3 7 -5 -14 -6 -20 0 -41 -6 -47 -12 -8 -8 -13
-8 -17 0 -4 6 -27 11 -51 11 -24 0 -47 5 -51 11 -4 8 12 10 55 7 56 -3 79 4
49 15 -25 8 4 22 60 29 44 5 36 6 -35 4 -84 -3 -114 4 -80 17 9 4 8 8 -3 16
-13 9 -12 11 5 11 12 0 27 -6 35 -12 12 -11 12 -10 1 4 -15 20 -7 38 17 38 11
1 8 6 -11 16 -28 15 -52 11 -41 -7 4 -7 -8 -8 -33 -3 -55 10 -61 16 -28 30
l30 13 -27 1 c-16 0 -30 1 -33 2 -32 10 -95 13 -99 4 -3 -7 -8 -6 -14 3 -10
14 -67 12 -132 -5 -41 -10 -59 -10 -60 1 0 6 14 13 32 16 30 6 31 6 6 8 -37 2
-78 -18 -71 -35 8 -21 -21 -17 -42 6 -10 11 -23 20 -30 20 -7 0 -27 7 -45 16
-27 14 -34 14 -41 3 -13 -21 -11 -35 3 -21 16 16 28 15 28 -2 0 -8 10 -17 23
-19 12 -3 -3 -3 -33 -1 -30 3 -79 6 -108 8 -71 5 -79 16 -11 17 l54 1 -48 13
c-51 14 -81 32 -37 22 61 -14 125 -18 110 -8 -8 6 -24 11 -35 12 -12 0 -7 5
15 11 l35 11 -30 8 c-74 19 -209 39 -267 39 -35 1 -94 5 -133 10 -51 6 -72 5
-77 -3 -4 -7 -3 -16 2 -21 6 -6 10 -17 10 -25 0 -12 -5 -11 -18 5 -9 12 -30
29 -47 38 l-30 17 33 -5 c18 -3 32 -1 32 4 0 6 -13 10 -29 10 -16 0 -38 3 -48
6 -14 4 -15 4 -4 -4z"/>
<path d="M20 2292 c-11 -5 -16 -26 -19 -78 l-3 -70 79 -12 c43 -7 99 -12 126
-12 57 0 62 -15 7 -23 -57 -7 -160 3 -157 17 1 6 -10 12 -25 14 -22 3 -27 -1
-25 -17 1 -17 10 -22 49 -27 53 -7 69 -19 38 -27 -11 -3 -20 -1 -20 4 0 5 -17
8 -37 8 -22 -1 -29 -4 -16 -6 26 -5 39 -31 15 -29 -9 0 -16 -5 -15 -11 2 -7
-2 -13 -7 -13 -6 0 -10 -24 -10 -54 0 -59 2 -61 98 -83 37 -9 42 -8 37 4 -4
12 0 14 15 10 11 -3 20 -2 20 3 0 4 -10 10 -23 14 -13 3 -24 12 -24 20 0 12
13 14 66 10 113 -9 225 -22 246 -30 14 -5 17 -4 10 4 -6 6 -37 21 -70 32 l-60
20 47 -4 c25 -3 55 -9 67 -15 33 -18 36 -12 5 11 -16 12 -31 25 -34 29 -3 4
-14 9 -25 12 -11 2 1 5 28 6 26 0 47 -3 47 -7 0 -11 69 -12 76 -1 3 5 15 9 27
8 21 0 21 -1 2 -8 -17 -7 -14 -10 20 -19 28 -8 41 -8 46 -1 4 7 22 9 50 4 56
-9 87 -26 44 -24 -51 3 -89 -1 -81 -8 4 -4 24 -8 44 -8 20 -1 53 -5 72 -9 26
-5 31 -4 20 3 -13 9 -13 11 1 11 9 0 20 7 23 16 4 10 13 13 26 9 11 -3 20 -2
20 4 0 5 -21 9 -47 9 -27 -1 -70 5 -97 12 -39 10 -54 10 -69 1 -10 -7 -21 -10
-24 -7 -3 3 2 8 11 12 21 8 21 24 -1 25 -13 0 -11 3 6 10 17 7 28 6 40 -5 13
-11 304 -57 356 -56 24 1 -23 20 -47 20 -20 0 -28 5 -28 18 0 12 -2 14 -8 4
-6 -9 -21 -11 -51 -6 -23 4 -52 8 -64 9 -65 7 -64 6 -37 15 23 7 22 8 -10 9
-19 1 -43 7 -52 15 -12 8 -40 11 -88 9 -46 -2 -70 0 -70 7 0 6 -8 9 -18 6 -23
-8 -139 -9 -171 -2 -12 3 -29 10 -35 16 -7 5 -16 7 -19 4 -9 -9 -59 5 -52 15
3 5 35 7 72 5 153 -10 202 -10 192 2 -6 7 -38 15 -71 19 -58 7 -60 8 -37 21
22 12 22 13 4 15 -11 0 -32 0 -47 -1 -29 -2 -38 14 -15 24 6 4 1 4 -13 1 -14
-3 -44 -8 -67 -11 -27 -4 -43 -12 -43 -20 0 -18 -40 -17 -64 1 -17 13 -17 15
-3 21 24 9 10 24 -22 24 -16 0 -34 7 -41 15 -7 8 -16 13 -20 10 -10 -6 -32 20
-23 28 6 7 -15 37 -26 36 -3 0 -13 -3 -21 -7z"/>
<path d="M2360 1255 c-7 -8 -16 -13 -20 -10 -13 8 -91 14 -106 8 -8 -3 -12 -9
-9 -13 3 -5 -13 -11 -35 -15 -22 -4 -40 -11 -40 -16 0 -5 -8 -9 -17 -10 -13 0
-12 -3 5 -10 13 -5 29 -6 34 -2 7 3 8 1 4 -5 -4 -7 -2 -12 5 -12 7 0 9 8 6 21
-6 24 12 34 46 25 28 -7 67 -39 67 -55 0 -6 6 -11 14 -11 18 0 15 24 -7 48
-16 18 -16 20 -2 26 9 3 14 2 11 -3 -3 -5 1 -14 9 -21 8 -7 15 -18 15 -25 0
-9 18 -12 63 -10 101 4 107 5 107 14 0 4 -19 5 -42 1 -24 -5 -50 -4 -58 1 -11
6 -7 8 16 9 17 0 41 9 53 19 l22 19 -27 21 c-34 27 -38 26 -62 -4 -16 -20 -22
-22 -31 -12 -8 10 -7 17 1 25 8 8 8 12 1 12 -6 0 -16 -7 -23 -15z"/>
<path d="M2085 1189 c-11 -4 -35 -8 -52 -8 -18 -1 -33 -5 -33 -10 0 -4 18 -7
40 -6 22 1 43 -2 46 -6 3 -5 18 -9 35 -9 44 0 35 -15 -12 -18 -26 -2 -38 1
-34 8 4 6 -11 8 -42 5 -29 -2 -50 0 -54 7 -5 7 -53 12 -137 12 -72 1 -128 -2
-126 -5 7 -12 98 -29 184 -35 77 -4 119 -8 144 -12 5 -1 1 -11 -10 -23 -18
-20 -18 -20 11 -13 17 4 32 11 33 16 6 14 32 9 32 -7 0 -13 4 -13 23 -3 12 7
24 16 27 19 10 11 46 22 70 21 22 -1 21 1 -10 15 -61 29 -102 42 -119 36 -13
-4 -14 -3 -1 6 19 13 10 20 -15 10z"/>
</g>
</svg>
