<?xml version="1.0" standalone="no"?>
<!DOCTYPE svg PUBLIC "-//W3C//DTD SVG 20010904//EN"
 "http://www.w3.org/TR/2001/REC-SVG-20010904/DTD/svg10.dtd">
<svg version="1.0" xmlns="http://www.w3.org/2000/svg"
 width="1182.000000pt" height="664.000000pt" viewBox="0 0 1182.000000 664.000000"
 preserveAspectRatio="xMidYMid meet">
<metadata>
Created by potrace 1.13, written by Peter Selinger 2001-2015
</metadata>
<g transform="translate(0.000000,664.000000) scale(0.100000,-0.100000)"
fill="#000000" stroke="none">
<path d="M0 4507 l0 -2133 101 -12 c55 -7 106 -9 111 -5 18 10 140 13 174 4
38 -11 58 3 44 29 -8 15 -5 19 16 24 14 4 29 4 35 0 5 -3 33 2 62 12 29 9 58
18 65 20 7 2 10 8 7 14 -3 5 1 10 9 10 9 0 16 9 16 20 0 24 16 26 28 4 5 -9
14 -14 21 -10 14 9 15 36 1 36 -18 0 -11 30 8 31 14 0 14 2 -3 9 -17 7 -17 9
-2 9 9 1 17 9 17 19 0 13 2 14 9 4 6 -10 11 -6 19 17 11 31 35 41 47 20 4 -6
8 -29 10 -51 5 -53 15 -62 67 -54 23 4 53 7 66 7 16 1 22 5 18 16 -4 8 -9 26
-12 39 -6 21 -3 24 25 24 20 0 34 7 41 20 6 11 15 18 20 15 10 -6 51 18 89 53
13 12 28 22 34 22 5 0 7 21 3 53 -6 49 -5 54 25 86 28 32 33 33 44 18 7 -9 17
-17 22 -17 15 0 45 -49 38 -60 -3 -5 1 -7 9 -4 8 3 17 12 20 20 3 9 11 12 17
8 6 -3 14 -3 18 2 3 5 15 14 26 20 27 14 85 129 85 167 0 35 56 123 84 133 17
6 18 13 12 78 -4 39 -8 88 -10 109 -3 31 -2 36 10 26 11 -9 14 -8 14 3 0 8 -5
19 -12 26 -9 9 -14 7 -23 -5 -10 -14 -15 -12 -38 13 -28 30 -31 41 -21 68 5
13 17 6 55 -33 27 -28 49 -54 49 -59 0 -13 47 -24 71 -17 39 13 10 93 -31 82
-12 -3 -18 -1 -14 5 4 6 0 14 -7 19 -24 15 9 28 64 25 l49 -2 -5 41 c-8 59 6
77 28 34 26 -50 43 -63 60 -49 11 9 11 17 3 36 -6 13 -16 24 -22 24 -15 0 -57
51 -50 62 3 5 12 4 19 -2 21 -17 35 -3 35 34 0 26 -6 36 -27 46 -27 13 -27 14
-5 18 23 4 29 21 13 38 -11 10 -18 101 -8 110 3 3 21 9 39 13 30 6 34 11 39
51 3 25 9 54 14 65 4 11 -2 5 -14 -12 -11 -18 -25 -33 -30 -33 -21 0 -41 13
-41 27 0 10 6 13 16 9 18 -7 13 3 -29 57 -16 20 -25 37 -20 37 4 0 -6 10 -24
21 -18 11 -37 18 -42 14 -13 -7 20 -44 34 -37 6 3 7 1 2 -3 -4 -5 -34 -7 -67
-6 -38 1 -60 -2 -60 -8 0 -6 9 -11 19 -11 52 0 65 -44 14 -48 -14 -1 -31 -6
-38 -12 -6 -5 -15 -7 -18 -3 -4 3 -13 0 -21 -6 -11 -9 -20 -10 -35 -2 -29 16
-50 14 -29 -3 16 -12 16 -14 -7 -26 -14 -7 -25 -17 -25 -22 0 -12 -38 -47 -44
-41 -12 12 -6 33 9 33 8 0 15 7 15 15 0 8 -6 15 -12 15 -10 0 -9 3 1 9 7 5 10
14 7 20 -4 6 4 16 21 22 l28 11 -25 11 c-31 14 -40 26 -40 55 0 13 -6 22 -16
22 -8 0 -13 4 -9 9 8 14 65 -8 65 -25 0 -8 -8 -14 -17 -14 -9 0 -14 -3 -10 -6
10 -10 47 7 47 22 0 8 5 14 11 14 5 0 8 4 5 8 -3 5 10 21 29 36 19 15 32 33
29 40 -8 20 88 66 136 66 23 0 51 5 63 12 12 6 41 10 65 9 50 -2 85 6 77 19
-3 5 8 16 24 25 38 19 37 19 45 -7 l7 -23 11 23 c6 12 17 22 25 22 7 0 13 11
13 25 0 14 5 25 10 25 6 0 10 -9 10 -20 0 -11 5 -20 10 -20 6 0 10 7 10 16 0
10 6 14 14 11 8 -3 20 1 26 9 10 11 10 14 0 14 -10 0 -10 3 0 16 8 8 15 43 17
77 2 34 9 65 16 70 17 11 127 3 135 -10 4 -6 23 -13 43 -16 20 -2 43 -8 50
-13 8 -5 23 -10 34 -11 10 -2 22 -8 25 -14 4 -5 14 -7 23 -3 21 8 89 -4 83
-15 -3 -4 1 -8 9 -8 8 0 14 3 13 6 -2 20 4 31 17 31 8 0 15 6 15 13 0 6 5 4
11 -5 5 -10 19 -18 29 -18 22 0 27 16 8 23 -7 3 8 6 33 6 26 1 60 -6 75 -14
16 -8 22 -15 14 -15 -13 0 -13 -2 0 -9 8 -6 18 -7 22 -5 4 3 8 0 8 -6 0 -6 8
-10 18 -8 9 2 17 10 17 18 0 10 12 16 33 18 18 2 30 8 27 13 -4 5 0 9 9 9 8 0
17 -6 19 -12 4 -10 8 -9 16 2 11 16 13 17 67 19 19 0 33 4 31 9 -3 4 82 7 189
7 107 0 194 3 194 6 0 7 183 29 246 29 25 0 55 5 67 12 27 15 76 11 94 -8 8
-8 31 -14 51 -14 21 0 46 -6 57 -14 11 -7 32 -16 48 -20 15 -3 27 -11 27 -16
0 -6 7 -10 15 -10 8 0 15 -6 16 -12 0 -7 4 -3 9 9 8 20 14 22 77 18 90 -5 167
-21 171 -34 2 -6 22 -12 45 -12 l42 -2 -40 -7 -40 -7 40 -2 c53 -1 127 -32
120 -49 -3 -8 -8 -32 -12 -55 -3 -23 -11 -45 -17 -49 -6 -4 2 -8 18 -8 l29 0
-38 -26 c-73 -49 -72 -47 -55 -153 11 -71 17 -82 30 -62 6 10 10 -1 15 -35 13
-102 19 -119 43 -118 12 1 19 -3 16 -7 -3 -5 -10 -7 -15 -4 -5 4 -9 2 -9 -3 0
-5 20 -20 45 -33 35 -18 45 -30 45 -49 1 -14 8 -36 16 -50 11 -17 13 -19 9 -5
-15 44 -17 85 -6 85 6 0 11 -10 12 -22 0 -22 1 -22 9 -3 8 19 9 19 9 -2 1 -14
6 -21 14 -17 17 6 86 -46 87 -65 0 -27 93 -155 104 -144 3 4 6 1 6 -5 0 -21
58 -14 73 8 16 23 74 44 82 29 4 -5 22 -9 42 -9 35 0 36 0 18 -20 -19 -21 -35
-26 -35 -11 0 5 8 12 18 14 11 3 8 5 -9 6 -23 1 -26 -2 -22 -24 5 -22 9 -24
47 -21 22 2 29 1 14 -1 -31 -5 -36 -26 -14 -55 17 -23 26 -23 26 2 0 11 -4 20
-10 20 -5 0 -10 4 -10 9 0 5 16 11 35 13 35 4 47 -5 21 -15 -8 -3 -20 -22 -27
-41 l-13 -36 -71 -2 c-40 -1 -53 -3 -30 -5 114 -10 116 -33 3 -33 -45 0 -79
-2 -77 -4 4 -4 81 -13 127 -15 29 -2 -17 -31 -49 -31 -59 0 -24 -10 52 -15 41
-2 76 -4 79 -5 3 0 -2 -5 -10 -10 -8 -5 -34 -10 -57 -10 -25 0 -43 -5 -43 -11
0 -8 20 -10 60 -7 57 4 61 3 66 -19 7 -28 -2 -57 -16 -48 -6 4 -10 -5 -10 -19
0 -14 4 -28 10 -31 6 -3 10 0 10 7 0 7 9 -1 19 -18 21 -35 41 -51 41 -35 0 6
-4 11 -10 11 -5 0 -10 5 -10 12 0 6 9 3 20 -7 11 -10 20 -28 20 -39 0 -15 10
-25 31 -33 27 -11 30 -15 19 -28 -10 -12 -10 -15 5 -15 21 0 54 -39 55 -65 0
-12 3 -16 8 -9 10 16 41 2 72 -30 30 -33 29 -34 -89 -72 -90 -29 -98 -47 -8
-20 84 26 98 25 109 -7 14 -41 3 -60 -32 -55 -16 2 -27 1 -24 -4 3 -4 -8 -8
-23 -8 -16 0 -33 -4 -38 -9 -6 -4 -58 -27 -118 -51 -59 -24 -106 -44 -105 -45
2 -2 61 17 133 40 71 24 131 42 134 40 2 -3 -9 -9 -25 -15 -123 -47 -213 -84
-210 -87 2 -2 65 17 140 43 76 25 140 44 143 41 3 -3 -13 -10 -34 -16 -50 -14
-203 -81 -183 -80 8 0 33 7 55 15 83 31 227 76 231 71 2 -2 -33 -17 -78 -32
-87 -29 -168 -63 -168 -70 0 -4 29 4 115 33 33 11 72 22 88 26 49 12 28 -2
-38 -24 -36 -12 -67 -26 -70 -31 -9 -13 5 -11 59 7 82 28 61 8 -31 -29 -112
-46 -94 -48 24 -3 48 18 105 36 126 40 21 4 46 9 55 12 14 5 15 4 2 -4 -8 -5
-31 -13 -50 -17 -42 -9 -105 -34 -99 -39 2 -3 31 2 64 10 115 27 117 15 3 -15
-89 -24 -91 -24 -83 -11 9 15 -18 11 -40 -6 -19 -15 -19 -15 9 -8 19 4 27 3
23 -3 -4 -7 8 -7 36 -2 66 13 75 9 32 -12 l-40 -19 40 6 c22 4 48 11 59 16 23
12 91 2 119 -17 25 -18 80 -20 108 -4 24 12 51 -4 42 -27 -3 -8 0 -14 6 -14 6
0 11 -8 11 -17 0 -14 -2 -15 -9 -4 -7 11 -10 9 -16 -8 -6 -21 -25 -29 -25 -11
0 6 5 10 10 10 14 0 12 26 -3 39 -10 8 -22 7 -45 -1 -38 -14 -41 -25 -9 -31
18 -4 17 -5 -6 -6 -31 -1 -87 -30 -87 -44 0 -5 -7 -7 -15 -3 -8 3 -15 1 -15
-4 0 -6 -10 -10 -22 -10 -13 -1 -43 -12 -68 -26 -38 -21 -40 -24 -15 -19 132
28 185 35 200 27 12 -8 -30 -20 -73 -21 -18 -1 -31 -5 -28 -10 4 -5 -8 -13
-26 -16 -18 -4 -35 -11 -38 -15 -3 -4 -25 -17 -50 -29 -34 -17 -38 -20 -15
-15 17 4 46 10 66 14 20 4 52 17 71 28 40 25 78 29 78 9 0 -15 -56 -42 -108
-52 -18 -4 -62 -22 -97 -41 l-65 -33 32 -9 c32 -8 33 -9 11 -21 -13 -6 -23
-18 -23 -26 0 -7 -12 -15 -27 -17 -14 -2 -28 -8 -30 -14 -6 -19 27 -25 57 -9
23 12 29 12 33 1 7 -19 -12 -36 -40 -36 -14 0 -23 -6 -23 -15 0 -10 10 -15 31
-15 28 0 30 -2 18 -16 -11 -13 -10 -17 4 -25 26 -15 20 -35 -13 -49 -16 -7
-30 -16 -30 -20 0 -4 -13 -10 -30 -14 -44 -8 -37 -26 10 -26 22 0 40 -3 40 -7
0 -5 -28 -18 -63 -31 -34 -13 -90 -36 -124 -53 -35 -16 -68 -29 -75 -29 -21
-1 -66 -29 -47 -30 16 0 79 23 164 60 22 9 60 20 84 23 37 5 41 4 25 -8 -11
-7 -35 -17 -54 -23 -19 -5 -71 -26 -115 -45 -44 -20 -92 -39 -108 -42 -15 -4
-29 -11 -32 -15 -6 -10 65 9 160 44 39 13 88 27 110 30 l40 6 -35 -16 c-53
-26 -87 -39 -180 -69 -47 -15 -94 -31 -105 -35 -11 -5 -33 -13 -50 -18 -21 -7
-24 -11 -10 -11 10 -1 77 17 148 40 92 29 133 37 140 30 8 -8 6 -11 -6 -11 -9
0 -36 -9 -59 -20 -24 -10 -98 -36 -165 -57 -68 -21 -123 -42 -123 -46 0 -5 8
-6 18 -2 15 6 255 78 307 92 13 4 17 2 10 -4 -17 -17 -124 -60 -237 -95 -60
-18 -108 -36 -108 -39 0 -12 231 52 283 78 16 8 27 9 27 3 0 -5 -5 -10 -12
-10 -6 0 -25 -11 -42 -24 -17 -13 -47 -27 -66 -30 -30 -7 -187 -56 -199 -63
-2 -2 -2 -6 1 -9 3 -3 30 2 60 11 29 9 79 23 111 31 32 8 76 23 98 35 41 20
57 20 44 0 -3 -6 -17 -11 -30 -11 -12 0 -25 -6 -28 -14 -3 -7 -23 -17 -44 -21
-51 -9 -213 -68 -213 -77 0 -13 22 -9 100 17 41 13 88 25 104 25 17 0 39 8 50
19 26 23 66 36 66 22 0 -6 -7 -11 -16 -11 -9 0 -28 -8 -42 -19 -15 -10 -51
-24 -80 -31 -28 -6 -54 -16 -57 -20 -3 -5 -28 -11 -55 -15 -33 -5 -50 -12 -50
-21 0 -16 18 -13 101 13 26 8 60 13 75 11 23 -3 14 -8 -46 -26 -41 -13 -85
-27 -97 -32 -27 -11 -32 -36 -5 -25 9 3 51 15 92 27 161 43 181 50 187 64 3 8
15 14 27 13 14 0 16 -2 6 -6 -8 -3 -27 -16 -41 -28 -14 -12 -53 -29 -85 -39
-155 -46 -194 -59 -194 -67 0 -4 -8 -10 -17 -12 -10 -2 -4 -3 12 -1 17 2 53
10 80 18 106 30 137 37 141 33 2 -2 -7 -15 -21 -29 -30 -31 -103 -54 -118 -39
-6 6 -18 11 -26 11 -14 0 -14 -1 -1 -10 12 -8 10 -10 -10 -11 l-25 0 23 -11
c29 -14 28 -35 -3 -63 -19 -19 -32 -22 -65 -18 -26 4 -40 2 -40 -6 0 -6 7 -11
15 -11 8 0 15 -9 15 -20 0 -11 -7 -20 -15 -20 -8 0 -15 -4 -15 -8 0 -4 -33 -7
-74 -7 -41 0 -72 -3 -70 -7 9 -14 -19 -56 -35 -53 -9 1 -10 0 -3 -2 6 -3 12
-8 12 -11 0 -16 -97 -112 -113 -112 -9 0 -17 -7 -17 -15 0 -15 -10 -19 -40
-16 -11 1 -10 -3 4 -14 17 -13 18 -15 3 -15 -9 0 -17 -7 -17 -16 0 -14 -3 -14
-15 -4 -10 9 -15 9 -15 1 0 -6 -6 -11 -14 -11 -20 0 -40 -27 -24 -32 8 -3 5
-12 -10 -28 -12 -13 -24 -32 -28 -42 -3 -10 -9 -16 -14 -13 -11 7 -70 -24 -70
-37 0 -5 7 -8 15 -4 8 3 15 1 15 -4 0 -15 -50 -24 -63 -11 -16 16 -27 14 -20
-5 5 -13 2 -15 -16 -9 -20 6 -22 4 -16 -13 6 -19 4 -20 -27 -11 -41 11 -41 11
-32 -3 6 -10 4 -10 -8 0 -10 8 -19 9 -22 3 -3 -5 6 -19 20 -30 15 -12 23 -21
18 -21 -11 0 18 -20 30 -20 4 0 6 6 3 13 -4 10 2 13 19 9 14 -2 24 -5 22 -6
-2 -1 -20 -14 -40 -29 -24 -18 -35 -22 -32 -12 4 10 0 15 -13 15 -10 0 -28 7
-39 15 -26 18 -41 7 -16 -12 9 -7 13 -13 7 -12 -25 3 -36 -2 -29 -13 6 -10 5
-10 -8 -1 -8 7 -18 10 -21 6 -4 -3 -13 0 -22 7 -9 7 -18 10 -22 6 -4 -3 2 -13
13 -21 26 -19 9 -19 -21 1 -19 12 -28 13 -45 4 -20 -11 -21 -10 -10 9 9 18 8
21 -12 21 -13 0 -54 10 -93 21 -38 11 -88 22 -110 25 -22 3 -42 10 -43 15 -2
5 -12 9 -23 9 -10 0 -19 5 -19 10 0 12 -38 12 -65 -1 -15 -7 -10 -8 20 -4 22
2 35 1 28 -3 -8 -5 1 -18 27 -40 28 -23 39 -28 42 -18 2 11 17 8 68 -16 36
-16 82 -30 102 -29 21 0 40 -4 43 -8 8 -14 -33 -20 -66 -11 -18 5 -27 5 -24
-1 4 -5 15 -9 25 -9 10 0 22 -4 25 -10 3 -6 -4 -10 -18 -10 -36 0 -40 -12 -10
-32 30 -19 89 -25 78 -8 -8 13 1 13 26 -1 15 -7 24 -7 35 2 10 8 14 8 14 0 0
-11 -16 -16 -89 -26 -25 -3 -49 -1 -56 5 -19 16 -29 -5 -15 -30 6 -12 20 -20
33 -19 17 1 18 2 5 6 -34 9 -18 22 22 18 22 -2 40 1 40 6 0 5 11 7 24 3 13 -3
27 -1 30 4 4 6 31 14 61 17 58 8 75 24 28 26 -23 1 -24 2 -6 6 12 2 31 -1 42
-6 15 -8 23 -7 34 4 8 8 17 12 20 9 3 -4 16 2 29 11 l23 17 -27 -6 c-15 -3
-30 -2 -33 4 -9 14 -25 12 -23 -3 4 -17 -42 -21 -78 -6 -23 10 -25 13 -11 16
10 3 25 -1 34 -8 13 -11 17 -10 29 6 10 13 24 18 49 17 19 -2 35 2 35 7 0 6 7
7 17 4 11 -4 14 -3 9 5 -5 8 1 12 16 12 19 0 20 2 8 11 -12 8 -9 9 11 5 24 -5
26 -3 21 19 -6 32 13 33 39 3 l20 -23 -11 23 c-7 13 -10 26 -7 28 6 7 54 -13
62 -25 4 -8 12 -6 22 4 9 9 22 14 29 11 11 -4 13 1 9 17 -4 15 1 31 14 46 12
13 21 19 21 12 0 -7 4 -10 10 -6 5 3 6 13 3 23 -3 9 -3 14 2 10 4 -4 18 3 30
16 l23 25 25 -27 c14 -15 29 -40 33 -57 4 -16 13 -37 21 -46 12 -14 12 -18 1
-22 -7 -3 6 -4 29 -1 23 2 45 0 48 -6 3 -5 2 -10 -4 -10 -6 0 -8 -6 -5 -13 2
-7 -9 -20 -26 -30 -32 -19 -42 -41 -13 -30 11 4 14 3 9 -5 -4 -7 -14 -12 -23
-12 -12 0 -13 -3 -4 -14 10 -12 8 -14 -11 -9 -18 4 -20 3 -8 -6 25 -18 49 -13
43 8 -4 15 2 19 27 23 18 3 37 -1 44 -7 16 -16 111 -31 101 -16 -3 7 -12 10
-18 9 -20 -4 -69 12 -84 27 -10 11 -19 12 -33 5 -24 -13 -34 10 -11 27 12 9
21 6 43 -12 24 -20 33 -22 60 -14 18 5 34 9 35 9 1 0 0 -7 -3 -15 -8 -20 16
-19 31 2 17 23 38 8 25 -17 -8 -15 -7 -18 3 -14 8 3 17 -2 20 -10 4 -10 1 -13
-9 -9 -7 3 -14 1 -14 -5 0 -5 7 -13 16 -16 9 -4 14 -13 10 -22 -3 -8 -2 -12 4
-9 11 7 13 48 4 81 -7 27 -33 41 -119 63 -71 19 -72 20 -66 70 1 6 13 3 29 -5
40 -21 79 -18 87 6 5 15 15 20 41 20 32 0 39 7 35 38 -3 18 5 15 34 -12 20
-19 24 -28 17 -43 -11 -20 -30 -112 -39 -183 -3 -25 -15 -58 -25 -73 -16 -22
-21 -48 -23 -120 -2 -51 -8 -103 -14 -117 -5 -14 -10 -18 -11 -10 0 12 -4 11
-15 -4 -8 -10 -12 -22 -10 -26 6 -10 -14 -26 -40 -33 -11 -2 237 -5 551 -6
l572 -1 -11 38 c-15 53 -13 132 4 143 28 18 41 3 68 -77 16 -45 31 -86 35 -93
6 -9 164 -12 684 -10 645 2 676 3 694 21 10 10 17 22 14 26 -2 4 9 8 24 9 23
2 27 -1 23 -17 -3 -11 -8 -19 -12 -18 -25 3 -32 -5 -12 -13 16 -6 28 -6 38 3
10 8 16 9 21 1 9 -14 282 -15 282 -2 0 5 8 9 18 9 13 0 14 -2 4 -9 -8 -5 4 -8
31 -7 25 1 41 4 35 7 -5 3 -9 10 -9 15 2 12 63 32 78 27 20 -8 5 -22 -16 -16
-10 3 -22 0 -25 -6 -4 -6 0 -11 8 -11 9 0 16 -4 16 -10 0 -14 872 -6 925 8 42
12 59 7 35 -8 -10 -6 66 -10 206 -10 184 0 224 3 234 15 13 16 34 10 24 -6 -4
-6 21 -9 65 -8 40 1 74 6 77 11 3 4 19 8 35 8 21 0 28 -4 23 -12 -5 -8 -2 -9
12 -3 31 14 114 18 114 6 0 -6 19 -11 43 -11 39 0 43 3 43 23 -1 18 5 22 34
24 19 1 28 0 20 -4 -15 -6 -30 -23 -30 -34 0 -11 1171 -11 1184 -1 19 16 133
24 142 11 5 -9 -1 -11 -22 -6 -17 3 -36 1 -44 -4 -10 -6 42 -9 145 -8 91 1
151 5 140 10 -19 7 -19 8 2 8 12 1 25 -4 28 -9 4 -7 101 -10 281 -9 l274 2 0
149 c0 96 -4 147 -10 143 -5 -3 -18 -2 -27 4 -16 8 -15 11 9 22 l27 12 1 238
0 239 -33 0 c-21 0 -28 -3 -19 -9 11 -7 10 -10 -3 -15 -9 -3 -24 -6 -33 -6
-13 0 -14 2 -4 9 8 4 12 10 11 12 -2 2 2 12 7 22 9 15 15 16 38 7 34 -12 36
-12 36 0 0 6 -9 10 -19 10 -11 0 -22 4 -26 9 -9 16 15 24 30 11 13 -11 15 -2
15 60 0 60 -3 71 -15 66 -8 -3 -15 -1 -15 4 0 6 7 10 15 10 12 0 15 19 15 110
l0 110 -60 0 c-33 0 -60 4 -60 10 0 6 -12 11 -27 11 -20 1 -22 3 -9 6 10 3 29
-1 42 -7 14 -8 39 -10 68 -6 43 7 46 9 46 38 0 19 -8 38 -22 49 l-21 19 21 0
c12 0 22 5 22 11 0 7 -23 8 -67 5 -72 -5 -73 -6 45 20 19 4 22 10 22 58 0 34
-5 56 -12 59 -10 4 -10 6 0 6 18 1 18 2871 0 2871 -7 0 -23 3 -35 6 -14 4 -23
2 -23 -5 0 -6 9 -11 19 -11 11 0 22 -4 25 -9 9 -14 -24 -22 -45 -11 -20 11
-23 36 -13 89 6 26 11 31 35 31 16 0 29 -5 29 -11 0 -5 -10 -9 -22 -7 -16 2
-22 -3 -23 -19 -2 -22 11 -32 48 -39 14 -3 17 4 17 44 0 26 -6 54 -12 61 -10
11 -10 14 0 18 9 4 12 227 12 1069 l0 1064 -5910 0 -5910 0 0 -2133z m7033
-2903 c4 -4 48 -8 99 -10 51 -2 143 -6 203 -10 61 -4 143 -6 183 -5 49 2 87
-3 117 -15 25 -9 48 -14 51 -11 3 3 19 1 35 -3 28 -8 42 3 17 13 -10 4 -10 6
-1 6 16 1 24 -14 17 -32 -4 -12 -12 -13 -37 -6 -41 12 -87 12 -87 0 0 -15 18
-22 22 -9 3 7 9 8 18 3 9 -6 6 -12 -15 -22 -21 -12 -29 -12 -35 -3 -7 12 -29
13 -137 7 -16 -1 -39 2 -52 7 -16 6 -21 5 -17 -3 4 -6 2 -11 -3 -11 -6 0 -11
5 -11 11 0 6 -8 8 -19 4 -11 -3 -22 -1 -25 4 -4 6 -14 7 -23 4 -11 -4 -14 -3
-9 6 7 11 -8 10 -66 -6 -10 -2 -18 0 -18 5 0 6 -10 6 -24 -1 -14 -7 -22 -14
-19 -17 5 -5 16 -6 102 -9 39 -1 42 -3 30 -18 -15 -18 -16 -18 38 4 13 5 15 2
10 -10 -5 -14 -2 -16 21 -12 16 2 43 0 61 -5 17 -5 104 -14 191 -21 88 -7 158
-14 155 -17 -5 -5 -159 -3 -227 3 -138 13 -183 16 -279 20 -58 2 -117 9 -132
14 -17 7 -27 7 -27 1 0 -6 -5 -10 -11 -10 -5 0 -8 4 -5 9 3 5 -5 11 -19 13
-14 3 -25 1 -25 -3 0 -5 7 -9 15 -9 8 0 15 -7 15 -15 0 -8 8 -15 18 -15 59 -1
227 -12 233 -16 4 -2 10 2 12 8 4 10 7 10 14 1 6 -8 32 -12 76 -10 37 1 67 0
67 -3 0 -3 28 -4 62 -2 41 2 58 0 49 -6 -7 -5 -21 -7 -32 -5 -10 3 -31 -2 -48
-10 -21 -10 -32 -12 -40 -4 -6 6 -11 8 -11 4 0 -3 -11 -2 -25 3 -25 10 -31 4
-17 -16 7 -11 53 -10 175 1 42 4 67 3 67 -3 0 -6 -10 -9 -23 -8 -13 2 -43 0
-68 -4 l-44 -7 50 -3 c28 -2 57 -4 65 -5 8 -1 20 2 25 5 19 13 65 20 65 11 0
-5 -8 -12 -17 -14 -10 -2 5 -3 32 -2 28 2 69 3 93 4 24 1 41 5 37 10 -3 6 -14
8 -25 6 -11 -2 -20 0 -20 5 0 4 -19 9 -42 10 -24 1 -56 3 -73 5 -16 2 -42 4
-57 4 -16 1 -28 5 -28 9 0 4 40 4 88 1 89 -8 313 -20 411 -22 37 -1 56 2 59
11 3 10 -4 12 -32 7 -24 -5 -36 -3 -36 4 0 6 -8 11 -17 11 -10 0 -27 7 -37 15
-23 17 -59 19 -87 5 -13 -8 -19 -7 -19 0 0 6 -5 8 -10 5 -6 -4 -17 -1 -25 5
-8 6 -23 9 -35 5 -21 -7 -28 9 -9 20 6 4 8 12 6 19 -3 8 4 11 24 8 16 -2 27
-8 24 -12 -2 -4 8 -5 23 -2 25 5 26 4 12 -13 -13 -17 -13 -18 0 -10 8 5 24 9
35 7 19 -2 19 -1 1 6 -29 12 -8 18 59 16 105 -3 112 -4 112 -16 0 -9 -17 -13
-49 -13 -26 0 -48 3 -48 8 0 4 -12 7 -27 7 l-27 0 24 -17 c14 -9 28 -21 31
-26 3 -4 49 -9 102 -9 76 0 94 -2 85 -12 -7 -7 -22 -11 -34 -8 -12 2 -25 -1
-28 -7 -5 -7 2 -11 16 -11 13 0 30 -5 38 -11 11 -8 6 -9 -20 -5 -20 3 -48 -1
-65 -9 -29 -13 -29 -13 20 -9 57 4 249 -21 282 -38 12 -6 34 -8 50 -4 18 4 23
3 15 -2 -20 -14 7 -21 100 -28 60 -4 84 -10 99 -25 10 -10 19 -21 19 -24 0 -3
-34 -5 -74 -4 -66 1 -73 3 -60 16 17 18 17 19 2 21 -45 5 -134 24 -149 32 -10
6 -33 10 -51 10 -32 -1 -32 -1 -13 -16 11 -8 29 -13 41 -11 11 2 26 -2 32 -10
10 -11 7 -13 -16 -13 -16 0 -49 6 -74 14 -31 9 -51 10 -63 4 -9 -6 -34 -7 -54
-3 -20 3 -70 8 -111 11 -41 3 -82 8 -90 11 -8 4 -24 7 -35 8 -11 1 -33 6 -49
10 -25 7 -28 6 -23 -9 6 -15 3 -17 -21 -12 -24 5 -62 7 -117 5 -44 -1 -104 14
-99 25 3 6 0 4 -8 -4 -13 -16 -58 -15 -58 0 0 9 -80 5 -112 -6 -10 -3 -28 -2
-40 3 -20 6 -18 8 17 14 31 5 21 6 -41 8 -44 0 -84 4 -88 8 -3 4 -16 8 -28 10
-17 3 -19 1 -8 -12 19 -23 -12 -30 -50 -12 -16 9 -30 12 -30 7 0 -4 -27 -1
-60 7 -32 9 -58 20 -57 25 1 5 -20 11 -48 13 l-50 3 35 -13 35 -13 -30 -1
c-16 0 -39 6 -49 14 -11 8 -16 15 -11 15 4 0 6 3 2 6 -3 4 -14 -2 -24 -12 -16
-16 -16 -17 -1 -12 24 10 34 -23 12 -39 -10 -7 -25 -13 -33 -13 -14 0 -14 1
-1 10 12 8 9 10 -12 10 -34 0 -36 10 -6 29 20 12 20 14 4 23 -13 7 -21 6 -29
-2 -9 -10 -9 -11 0 -6 6 3 14 3 17 -2 3 -5 -11 -15 -30 -24 -18 -9 -34 -11
-34 -6 0 5 -4 6 -10 3 -5 -3 -10 -1 -10 4 0 6 -5 11 -11 11 -5 0 -7 -4 -4 -10
8 -13 -8 -13 -20 -1 -6 6 -22 12 -37 15 -15 2 -33 8 -39 12 -10 6 -28 -11 -29
-27 0 -3 17 -6 38 -7 59 -2 164 -23 194 -38 18 -10 29 -11 33 -3 4 5 14 8 22
5 8 -3 11 -1 8 4 -11 17 63 5 83 -13 10 -9 24 -17 32 -17 7 0 1 9 -14 21 -14
11 -23 25 -20 31 4 6 10 5 15 -3 9 -14 14 -15 159 -23 47 -3 85 -6 85 -7 0 -1
86 -8 118 -10 10 0 16 -6 14 -12 -2 -7 -24 -12 -55 -11 -28 0 -49 -3 -46 -7 3
-5 44 -7 92 -5 48 2 74 2 57 -1 -51 -8 -55 -25 -5 -21 52 3 65 31 18 36 -16 2
-28 8 -28 14 0 7 12 8 33 3 17 -4 41 -7 52 -6 29 2 65 -8 65 -18 0 -4 -18 -6
-40 -4 -23 2 -40 0 -40 -6 0 -6 7 -8 15 -5 8 4 15 2 15 -4 0 -6 9 -8 20 -5 11
3 28 2 37 -2 17 -7 16 -8 -2 -15 -11 -4 -41 -5 -67 -3 -43 5 -47 4 -45 -16 1
-13 8 -21 22 -22 19 -1 19 -1 0 -6 -11 -3 -25 -12 -31 -21 -6 -9 -18 -13 -28
-9 -22 9 -20 28 4 34 25 7 26 23 3 24 -35 1 -76 10 -117 24 -46 16 -90 20 -68
6 11 -7 11 -9 -1 -14 -9 -3 -18 1 -21 9 -9 22 -35 17 -29 -6 3 -11 11 -20 19
-20 7 0 17 -7 22 -16 6 -11 16 -13 37 -8 23 6 25 8 11 16 -9 5 -21 6 -26 3 -6
-3 -10 -1 -10 4 0 17 50 13 56 -4 4 -8 10 -15 16 -15 5 0 6 5 3 10 -3 6 1 10
9 10 10 0 13 -6 10 -15 -5 -13 -2 -14 20 -5 32 12 33 8 2 -23 -28 -29 -67 -42
-59 -21 3 8 10 14 16 14 8 0 8 3 0 11 -12 12 -53 3 -53 -11 0 -5 8 -7 18 -3
13 4 14 3 6 -6 -8 -8 -18 -9 -37 -2 -20 8 -27 7 -27 -2 0 -8 -3 -8 -9 2 -5 7
-13 11 -19 7 -6 -3 -13 -2 -17 4 -3 5 0 10 7 11 21 1 -24 18 -50 18 -13 1 -30
-5 -37 -13 -12 -12 -8 -13 28 -10 32 3 37 2 22 -5 -19 -9 -19 -10 3 -10 12 -1
25 -8 29 -17 4 -11 13 -13 33 -9 19 4 33 1 44 -10 9 -9 19 -14 23 -12 5 3 31
-1 58 -8 32 -8 54 -9 62 -3 7 6 14 4 20 -5 4 -8 15 -16 23 -19 31 -10 -97 -18
-145 -9 -34 6 -54 6 -63 -2 -11 -8 -12 -5 -6 18 5 21 4 26 -6 20 -7 -4 -16 -2
-21 6 -7 11 -9 11 -9 -3 0 -9 6 -19 13 -21 6 -3 2 -6 -10 -6 -13 -1 -23 3 -23
8 0 11 -59 -4 -74 -19 -7 -7 -3 -11 12 -12 12 -1 34 -3 50 -5 15 -2 59 -6 97
-8 39 -3 117 -9 175 -15 58 -6 126 -12 153 -14 48 -3 79 -16 39 -16 -12 0 -22
-4 -22 -10 0 -5 5 -10 11 -10 5 0 7 -5 3 -11 -5 -8 -9 -7 -14 1 -4 7 -15 10
-24 7 -12 -5 -16 -1 -16 14 0 18 -4 20 -32 16 -46 -8 -170 -10 -188 -3 -8 3
-58 8 -110 11 -52 3 -127 8 -166 13 -50 5 -74 4 -82 -4 -8 -9 4 -13 46 -16 31
-3 66 -9 76 -13 14 -6 17 -5 11 4 -6 10 0 11 26 6 47 -11 57 -12 214 -20 77
-3 148 -9 158 -11 11 -4 17 0 17 11 0 9 5 13 11 10 6 -4 8 -13 6 -20 -7 -16
92 -40 107 -25 15 15 29 12 22 -5 -3 -8 -1 -15 5 -15 6 0 7 -4 4 -10 -3 -5 0
-10 7 -11 10 0 10 -2 1 -6 -7 -2 -13 -9 -13 -15 0 -6 7 -8 15 -4 8 3 15 1 15
-4 0 -6 -12 -10 -26 -10 -24 0 -26 3 -20 30 5 28 4 30 -19 24 -16 -4 -25 -2
-25 6 0 7 -8 9 -20 5 -11 -4 -20 -2 -20 4 0 6 -8 11 -17 11 -12 0 -14 -3 -6
-8 6 -4 -29 -6 -78 -5 -49 1 -93 5 -99 8 -6 3 -12 0 -15 -7 -4 -9 -22 -13 -56
-12 -61 2 -79 14 -20 14 26 0 40 4 36 10 -3 6 1 10 9 10 9 0 16 5 16 11 0 8
-13 9 -42 4 -74 -12 -118 -15 -118 -6 0 13 -81 -5 -92 -20 -8 -12 -10 -12 -15
0 -4 11 -7 11 -14 0 -4 -7 -11 -10 -14 -7 -13 12 6 28 33 28 19 0 23 3 13 9
-7 5 -22 6 -34 3 -11 -3 -18 -1 -14 4 3 6 -19 9 -54 8 -34 0 -55 2 -49 6 9 6
9 9 0 15 -7 4 -17 1 -22 -6 -8 -11 -9 -11 -5 3 7 20 -2 31 -17 19 -22 -16 -59
-19 -119 -9 -78 13 -169 16 -158 5 5 -5 31 -11 59 -13 69 -7 75 -9 89 -17 11
-7 69 -13 196 -20 9 -1 17 -5 17 -10 0 -4 -21 -5 -47 -1 -27 3 -77 8 -113 10
-76 5 -113 9 -156 19 -39 9 -56 -11 -29 -32 11 -7 15 -13 9 -13 -18 1 -41 25
-38 42 3 24 -11 31 -35 18 -17 -8 -22 -6 -32 11 -10 20 -9 21 14 17 14 -3 32
-1 39 3 10 7 9 9 -4 9 -23 0 -22 9 3 40 20 24 20 24 14 3 -4 -15 -2 -23 7 -24
7 0 21 -2 31 -4 9 -2 17 1 17 6 0 5 5 9 11 9 5 0 7 -5 4 -10 -4 -7 2 -9 19 -4
45 11 61 10 61 -5 0 -8 6 -16 13 -19 7 -2 11 2 10 8 -6 24 19 20 32 -5 16 -30
25 -31 47 -5 20 24 71 27 79 5 4 -8 10 -13 15 -10 4 3 6 12 2 20 -4 12 4 15
35 15 22 0 47 3 56 6 12 4 16 0 16 -15 0 -17 6 -21 33 -20 30 2 30 2 5 6 -30
5 -36 21 -15 42 10 10 4 12 -28 10 -22 -1 -51 1 -64 5 -16 6 -21 5 -17 -3 4
-6 2 -11 -3 -11 -6 0 -11 6 -11 14 0 9 -7 12 -20 9 -11 -3 -18 -9 -15 -13 10
-16 -228 11 -267 31 -10 6 -19 5 -23 -1 -3 -5 -12 -10 -19 -10 -9 0 -13 18
-14 59 l0 60 41 3 42 3 -44 10 c-30 7 -46 17 -51 31 -7 18 -5 20 16 16 13 -2
21 -8 18 -13 -3 -5 1 -9 8 -9 7 0 31 -3 53 -6 32 -4 37 -3 25 6 -12 10 -11 11
8 7 13 -3 31 -3 40 1 14 5 12 7 -8 13 -22 6 -21 7 10 8 25 1 31 4 20 10 -19
11 -75 19 -156 23 -34 2 -67 9 -73 16 -9 9 -8 12 5 12 23 0 13 9 -16 15 -35 7
-49 35 -50 98 0 52 2 57 22 57 28 0 16 12 -14 14 -16 1 -24 8 -26 24 -2 13 2
22 10 23 7 0 5 4 -6 8 -10 4 27 7 83 7 63 -1 100 -5 98 -11 -2 -5 -17 -13 -33
-16 -16 -4 -23 -7 -16 -8 25 -2 11 -19 -25 -29 -25 -6 -30 -10 -16 -11 12 -1
33 4 47 10 25 12 105 4 199 -20 41 -10 49 -5 15 9 -20 9 -19 10 12 8 19 0 62
0 95 1 46 1 56 4 43 12 -10 5 -18 14 -18 19 0 5 8 7 18 4 14 -5 15 -4 2 5 -18
13 -142 12 -134 -1 4 -6 28 -7 55 -4 27 3 49 2 49 -3 0 -13 -71 -19 -102 -9
-17 6 -33 6 -44 0 -12 -6 -27 -7 -43 -1 -13 6 -30 8 -38 5 -7 -3 -13 -2 -13 3
0 5 -7 8 -16 7 -9 0 -19 5 -22 13 -3 10 0 12 11 8 9 -3 17 -2 19 4 2 5 17 7
35 3 18 -4 31 -10 28 -14 -3 -4 4 -10 15 -13 28 -7 20 15 -10 30 -24 11 -24
11 11 12 20 1 39 -2 42 -5z m2513 -222 c-2 -2 -18 -4 -35 -4 -17 -1 -31 -5
-31 -10 0 -4 -15 -8 -34 -8 -19 0 -38 -5 -41 -11 -4 -6 -13 -8 -20 -5 -8 3
-16 0 -19 -7 -2 -7 -5 -4 -5 7 -1 11 4 16 12 13 16 -6 44 9 35 18 -9 9 -77 9
-86 0 -4 -3 1 -11 11 -16 9 -6 15 -14 12 -20 -7 -11 6 -16 65 -25 68 -10 144
-8 148 5 2 6 10 11 17 11 7 0 16 6 19 13 3 6 4 0 1 -14 -5 -25 -2 -27 36 -31
41 -4 41 -4 19 14 -22 18 -22 18 11 11 19 -3 39 -13 45 -22 10 -13 16 -13 38
-3 18 8 26 8 26 1 0 -7 10 -9 28 -5 51 13 87 14 94 3 4 -7 12 -6 24 4 14 11
16 11 10 0 -7 -10 -3 -12 13 -6 11 3 21 3 21 -2 0 -4 23 -6 51 -4 36 2 49 0
45 -8 -4 -6 -17 -9 -29 -6 -12 3 -44 1 -72 -4 -42 -8 -56 -7 -87 9 -21 11 -38
16 -38 11 0 -5 8 -12 18 -14 9 -3 -18 -3 -60 0 -70 4 -77 2 -71 -13 4 -11 2
-15 -6 -13 -7 3 -12 9 -11 14 0 6 -21 13 -47 17 -74 10 -115 9 -108 -2 3 -6
-1 -7 -9 -4 -10 4 -16 1 -16 -8 0 -11 16 -15 61 -16 34 -1 79 -7 101 -13 29
-7 44 -7 51 0 14 14 44 14 52 0 11 -17 -3 -23 -22 -8 -14 11 -15 11 -9 0 7
-11 -1 -12 -40 -7 -87 11 -144 13 -144 4 0 -4 -15 -2 -32 5 -21 8 -33 20 -33
32 0 10 -6 20 -14 23 -8 3 -11 0 -7 -7 9 -14 6 -14 -37 4 -20 8 -37 11 -39 6
-2 -5 -14 -11 -28 -15 l-25 -7 25 16 c24 14 22 15 -37 10 -34 -2 -63 0 -65 5
-2 6 -9 6 -18 0 -13 -8 -12 -10 3 -10 9 0 17 -6 17 -14 0 -8 8 -17 18 -19 9
-2 4 -3 -11 -1 -17 2 -26 0 -22 -6 3 -6 1 -10 -5 -10 -7 0 -10 -7 -6 -15 4
-12 -3 -15 -32 -14 -23 1 -29 3 -14 6 23 5 31 23 10 23 -27 0 -58 -13 -52 -21
3 -5 -7 -9 -23 -8 -25 0 -26 1 -8 9 18 8 17 9 -7 9 -16 1 -28 -3 -28 -9 0 -5
-24 -9 -56 -7 -48 2 -57 -1 -60 -16 -1 -12 2 -17 11 -13 7 2 16 -2 19 -11 5
-12 0 -14 -29 -11 -19 2 -35 0 -35 -4 0 -4 -7 -8 -15 -8 -8 0 -14 6 -13 13 2
9 -20 12 -84 14 -48 1 -92 4 -98 8 -6 4 -14 5 -16 2 -3 -2 -24 0 -46 5 -31 6
-43 6 -49 -4 -4 -7 -11 -9 -15 -5 -4 4 1 14 12 22 19 14 18 14 -3 15 -12 0
-25 5 -29 12 -5 7 -3 8 6 3 10 -6 12 -4 7 8 -8 22 9 22 22 0 8 -15 11 -15 12
-3 0 8 4 4 8 -10 6 -23 12 -25 62 -25 30 -1 59 -3 64 -6 19 -11 90 -3 121 13
21 11 59 18 115 19 46 1 95 6 109 12 14 5 47 11 73 12 62 3 88 24 32 26 -36 2
-37 3 -10 7 l30 5 -30 6 c-21 4 -35 1 -47 -11 -10 -10 -24 -18 -30 -18 -7 1
-2 10 11 20 13 11 21 20 18 20 -3 0 -14 3 -24 7 -10 3 -15 3 -11 -2 9 -10 -21
-34 -44 -35 -11 0 -15 6 -11 19 3 13 -2 21 -17 26 -28 9 -40 -3 -17 -19 9 -7
17 -17 17 -21 0 -4 -6 -2 -14 4 -9 8 -16 8 -20 2 -4 -6 -18 -5 -39 3 -17 8
-38 11 -46 8 -8 -3 -12 1 -9 9 2 7 15 16 29 20 24 7 24 7 1 8 -13 1 -32 -7
-43 -18 -17 -15 -25 -16 -58 -8 -33 9 -41 7 -69 -13 -27 -20 -34 -22 -45 -10
-10 10 -9 12 7 6 15 -5 17 -4 7 8 -12 14 -64 25 -138 29 -57 2 -55 22 2 22 25
0 45 -4 45 -9 0 -4 16 -5 35 -2 19 4 35 3 35 -2 0 -14 48 -33 55 -22 4 6 15
10 26 10 10 0 19 4 19 9 0 5 -20 6 -45 3 -37 -4 -44 -2 -40 10 9 24 53 40 73
28 13 -8 14 -10 2 -9 -29 3 -41 -1 -35 -11 3 -6 17 -7 31 -4 14 4 24 2 24 -5
0 -6 5 -11 11 -11 6 0 8 9 4 20 -5 17 -2 20 22 20 24 -1 26 -2 13 -13 -16 -12
-16 -52 0 -42 5 3 7 11 4 18 -6 16 101 23 111 8 3 -6 11 -11 16 -11 6 0 7 5 4
10 -3 6 2 13 12 17 10 4 22 11 26 17 6 7 7 4 3 -6 -6 -21 5 -23 23 -5 10 10
12 8 9 -8 -3 -22 1 -23 130 -26 79 -2 113 5 78 16 -50 16 -51 18 -16 26 62 15
120 18 120 6 0 -6 3 -7 7 -4 3 4 12 2 20 -4 10 -9 13 -8 13 1 0 8 9 11 25 8
17 -4 25 -1 25 8 0 12 4 12 20 2 10 -7 18 -14 16 -16z m-1376 -131 c0 -10 31
-8 49 3 10 7 11 4 2 -13 -13 -23 -2 -28 18 -8 11 10 14 10 18 0 3 -7 12 -13
21 -13 12 0 10 -5 -8 -25 -18 -20 -20 -25 -8 -25 9 0 18 6 21 13 3 8 10 6 20
-8 16 -20 16 -20 10 3 -5 21 -3 22 21 16 28 -7 37 10 11 20 -8 3 -15 12 -15
21 0 12 6 14 26 9 17 -4 29 -2 34 7 7 10 11 10 24 0 8 -7 20 -10 26 -6 5 3 10
1 10 -6 0 -7 11 -9 35 -5 20 4 35 3 35 -2 0 -11 -63 -23 -70 -13 -3 3 -27 8
-55 9 -47 3 -49 2 -32 -16 9 -10 17 -24 17 -32 0 -16 30 -39 51 -40 9 0 22 -7
29 -15 10 -12 9 -15 -4 -15 -11 0 -14 -5 -10 -12 5 -7 3 -8 -7 -2 -18 11 -69
14 -69 4 0 -9 49 -24 70 -21 13 2 13 1 0 -8 -22 -15 -71 -14 -67 2 1 6 -5 10
-13 9 -65 -15 -78 -14 -85 7 -7 24 -25 28 -25 5 0 -8 -5 -12 -10 -9 -8 5 -7
11 1 21 9 11 8 14 -4 14 -20 0 -31 -16 -17 -25 17 -10 11 -25 -9 -25 -19 0
-22 14 -8 38 5 7 3 12 -7 12 -10 0 -13 6 -10 15 7 16 34 21 34 6 0 -5 14 -12
30 -16 17 -4 30 -11 30 -16 0 -5 7 -9 15 -9 8 0 15 -6 16 -12 0 -9 2 -9 5 -2
3 7 14 10 24 7 14 -4 20 0 20 11 0 9 6 16 14 16 27 0 25 15 -5 33 -17 9 -27
12 -23 5 5 -8 -5 -9 -36 -4 -27 4 -47 2 -56 -5 -11 -9 -14 -8 -14 5 0 9 -8 16
-20 16 -11 0 -20 5 -20 10 0 6 -5 10 -11 10 -5 0 -8 -4 -5 -8 2 -4 -11 -6 -30
-4 -19 2 -34 9 -34 14 0 6 11 8 25 6 14 -3 28 -2 30 3 8 13 -35 22 -49 10 -15
-13 -103 -4 -113 11 -3 6 3 7 17 3 15 -5 20 -3 16 3 -4 6 2 15 11 21 21 11
113 13 113 2z m3063 -32 c41 -1 47 -3 27 -9 -24 -8 11 -11 160 -16 25 0 67 -2
94 -3 27 0 47 -3 45 -5 -5 -6 -40 -7 -224 -7 -98 0 -142 -3 -147 -12 -6 -8
-10 -9 -15 -1 -6 7 -85 10 -241 10 -129 -1 -239 2 -244 5 -6 4 70 8 168 9 215
3 350 13 316 25 -18 6 -20 10 -10 16 7 5 14 4 16 -1 2 -6 27 -10 55 -11z
m-3422 -31 c3 -4 19 -2 37 4 28 11 34 10 51 -9 11 -12 34 -24 51 -28 16 -4 30
-11 30 -16 0 -12 -17 -12 -24 0 -10 15 -55 19 -60 5 -3 -7 -25 -16 -50 -19
-25 -4 -46 -11 -46 -16 0 -4 -8 -8 -17 -7 -10 0 -32 -2 -50 -5 -22 -4 -33 -1
-37 9 -6 17 -1 18 25 4 17 -10 18 -9 7 15 -7 15 -19 25 -32 25 -18 0 -17 3 9
20 17 11 26 20 20 21 -5 1 1 4 15 8 27 8 62 3 71 -11z m2207 -20 c-3 -20 -8
-22 -52 -19 -30 2 -46 -1 -42 -7 4 -6 49 -9 109 -7 56 1 112 -1 124 -6 13 -5
23 -4 25 3 6 17 65 19 100 2 31 -14 17 -14 -27 0 -19 7 -19 7 -1 -6 10 -7 26
-21 35 -30 8 -10 21 -18 28 -18 6 0 15 -5 19 -11 4 -7 1 -10 -7 -7 -8 3 -25 1
-37 -4 -30 -10 -47 -1 -32 17 15 18 5 21 -60 24 -30 1 -63 4 -72 7 -10 3 -18
1 -18 -5 0 -6 5 -11 10 -11 6 0 10 -4 10 -9 0 -5 -19 -7 -42 -4 -31 3 -39 2
-28 -6 23 -16 6 -22 -29 -10 -17 6 -37 9 -45 6 -7 -3 -19 0 -25 6 -16 16 -14
27 4 21 8 -4 15 -1 15 6 0 7 9 9 23 6 20 -6 20 -5 -2 6 -19 10 -25 10 -28 1
-3 -7 -11 -9 -19 -6 -8 3 -14 1 -14 -5 0 -5 -19 -12 -42 -15 -32 -4 -45 -2
-55 11 -19 26 -16 32 22 32 50 0 43 20 -7 22 l-43 1 40 4 c22 3 43 10 47 16 5
9 10 9 20 -1 16 -16 33 -16 20 1 -9 10 -1 13 34 15 41 1 45 0 42 -20z m-1380
-8 c2 -5 16 -10 30 -10 26 1 26 1 8 15 -16 12 -17 15 -4 15 9 0 19 -7 22 -16
5 -12 14 -15 39 -10 73 14 97 14 97 1 0 -7 -6 -16 -12 -19 -7 -3 1 -3 17 -1
17 2 79 4 138 4 69 1 106 5 102 11 -3 6 -2 10 4 10 5 0 13 -5 16 -10 4 -7 12
-7 25 0 15 8 20 6 25 -10 3 -11 11 -20 16 -20 6 0 7 5 4 10 -3 6 -2 10 4 10 5
0 17 3 27 7 13 5 16 3 12 -8 -5 -12 1 -14 26 -11 17 3 36 8 42 13 6 5 14 6 18
2 4 -4 30 -8 59 -9 64 -2 67 -3 42 -14 -17 -7 -16 -9 9 -9 42 -1 24 -13 -19
-13 -42 0 -56 9 -35 22 13 8 12 10 -2 10 -10 0 -18 -4 -18 -10 0 -5 -9 -10
-20 -10 -11 0 -20 -4 -20 -10 0 -5 5 -10 12 -10 6 0 9 -3 5 -6 -3 -3 -29 -1
-59 4 -106 21 -119 22 -113 12 3 -6 -1 -10 -9 -10 -9 0 -16 7 -16 15 0 12 -3
13 -19 3 -10 -6 -17 -18 -13 -26 4 -11 0 -13 -19 -7 -13 4 -30 12 -37 18 -7 5
-30 10 -52 10 -22 0 -40 4 -40 9 0 5 -24 8 -53 7 -30 -1 -58 0 -63 3 -5 3 -49
9 -99 13 -49 4 -94 10 -100 13 -5 4 -44 12 -85 19 l-75 13 90 -5 c49 -2 91 -9
93 -15z m-711 -48 c-25 -5 -17 -34 13 -49 23 -11 25 -10 28 9 2 11 -2 24 -9
29 -19 11 -7 19 19 12 21 -5 31 -23 13 -23 -5 0 -11 -11 -13 -25 -6 -29 -5
-30 27 -9 19 13 23 20 15 34 -7 13 -6 19 4 23 9 4 13 -5 14 -27 1 -26 -4 -36
-24 -45 -32 -14 -67 -15 -58 0 4 7 -1 10 -12 7 -11 -2 -19 -10 -20 -18 -2 -31
-5 -35 -15 -20 -8 12 -9 9 -4 -9 6 -21 4 -23 -14 -18 -11 3 -21 1 -21 -3 0
-12 68 -30 86 -23 7 3 11 9 8 14 -3 5 -10 7 -15 4 -17 -11 -30 6 -15 21 17 17
30 19 20 3 -5 -9 11 -10 62 -5 38 4 77 7 86 7 10 0 20 4 23 10 4 5 -2 9 -11 9
-16 0 -16 1 2 15 18 15 17 16 -11 10 -25 -4 -32 -1 -42 22 -7 14 -10 29 -7 32
4 3 9 1 11 -6 2 -7 11 -9 19 -6 7 3 11 9 8 14 -11 19 14 8 36 -16 17 -18 19
-25 9 -26 -9 0 -10 -2 -2 -5 7 -3 9 -12 6 -20 -3 -8 1 -14 9 -14 8 0 15 -7 15
-15 0 -18 -13 -20 -21 -2 -5 10 -7 10 -12 0 -3 -7 -12 -13 -20 -13 -8 0 -14
-3 -14 -7 0 -5 -26 -8 -57 -8 -41 0 -57 -4 -55 -12 1 -7 -4 -13 -10 -13 -7 0
-20 -5 -28 -10 -13 -9 -13 -11 0 -21 13 -9 13 -10 -2 -6 -9 3 -19 3 -21 -1 -2
-4 -2 -1 0 7 2 8 -2 11 -12 7 -9 -3 -18 1 -21 9 -4 8 -12 15 -19 15 -15 0 -27
38 -14 46 5 3 7 9 4 14 -3 4 7 13 22 18 l28 10 -25 2 c-14 1 -42 2 -62 3 -46
0 -49 9 -8 24 20 7 30 8 33 0 3 -11 67 -18 67 -7 0 15 -14 19 -27 8 -7 -6 -17
-7 -21 -3 -4 4 -1 10 6 12 6 3 12 11 12 19 0 8 5 14 11 14 5 0 8 4 5 9 -4 5 4
6 16 3 19 -5 20 -7 5 -10z m-2133 -756 c14 -58 51 -125 71 -129 18 -3 17 -5
-6 -14 -27 -12 -88 -63 -75 -63 4 0 4 -5 0 -12 -8 -13 -47 152 -45 192 1 23
24 50 42 50 4 0 10 -11 13 -24z m1398 8 c-2 -5 -8 -8 -14 -6 -5 1 -6 -2 -3 -8
5 -8 13 -6 25 5 19 17 46 12 35 -6 -9 -14 8 -11 33 7 16 11 22 12 22 3 0 -9 3
-10 11 -2 6 6 18 9 27 6 13 -3 17 -16 17 -56 0 -29 -4 -52 -10 -53 -5 0 -17
-4 -26 -8 -8 -4 -26 -2 -40 3 -13 5 -19 10 -12 10 16 1 3 41 -14 41 -8 0 -11
-5 -8 -11 4 -6 -2 -5 -13 2 -12 7 -19 16 -16 20 2 4 0 10 -6 14 -5 3 -10 1
-10 -6 0 -8 -4 -8 -15 1 -8 7 -15 19 -15 26 0 8 -5 14 -11 14 -5 0 -7 4 -4 10
7 12 51 6 47 -6z m581 -50 c7 -7 -17 -34 -31 -34 -5 0 -12 -9 -15 -20 -5 -21
8 -29 15 -8 3 7 12 9 24 4 18 -7 17 -9 -11 -33 -24 -19 -26 -23 -9 -19 18 5
21 2 21 -24 0 -22 -5 -30 -19 -30 -10 0 -23 -9 -30 -20 -7 -11 -16 -20 -21
-20 -4 0 -5 5 -2 10 8 12 -5 13 -24 1 -10 -6 -5 -12 18 -22 38 -17 38 -22 6
-39 -14 -7 -25 -19 -25 -27 0 -18 -10 -16 -26 4 -13 17 -13 17 -14 1 0 -10 -7
-18 -15 -18 -12 0 -12 3 2 20 10 11 28 20 40 20 13 0 23 3 23 8 0 4 -20 6 -44
4 -40 -4 -44 -2 -40 16 7 25 -25 35 -51 16 -38 -28 -49 -8 -15 26 24 24 17 48
-7 28 -9 -7 -26 -11 -39 -10 -27 4 -32 -13 -8 -22 9 -4 14 -9 11 -12 -3 -3
-17 2 -31 11 -14 9 -31 13 -38 9 -8 -4 -7 0 2 9 8 9 31 17 50 19 19 1 45 10
58 19 15 12 35 16 60 13 23 -3 32 -1 24 5 -11 6 -10 10 4 15 16 6 16 8 4 17
-12 7 -11 10 8 15 24 7 29 20 10 27 -10 4 -10 7 0 18 10 11 12 10 12 -3 0 -22
26 -43 35 -28 4 6 -1 17 -11 25 -17 12 -15 14 21 20 22 4 45 8 50 10 16 6 21
5 28 -1z m751 -36 c-6 -10 -4 -10 7 0 15 14 107 16 129 2 8 -5 11 -13 6 -17
-5 -4 -11 -2 -13 5 -3 7 -23 12 -49 12 -28 0 -43 -4 -39 -10 3 -5 0 -11 -7
-11 -7 -1 1 -4 17 -8 37 -8 40 -35 5 -39 -75 -7 -98 -14 -93 -28 3 -8 19 -14
37 -15 28 0 29 -1 9 -9 -32 -13 -29 -20 7 -15 17 2 30 -1 30 -6 0 -5 8 -9 18
-8 14 0 14 2 -5 15 -21 15 -21 16 -2 35 10 10 24 19 29 19 16 0 11 -18 -7 -29
-17 -10 -17 -10 0 -11 9 0 17 5 17 10 0 6 6 10 14 10 10 0 14 -10 13 -32 -2
-28 1 -33 20 -33 30 0 34 -19 6 -23 -13 -2 -23 2 -23 8 0 8 -10 9 -29 5 -37
-8 -171 42 -164 62 3 7 0 13 -7 13 -7 0 -10 7 -6 15 3 8 0 15 -7 15 -8 0 -7 4
3 10 9 5 19 5 26 -1 10 -8 11 9 5 53 -1 4 -13 9 -28 11 -16 2 -2 5 30 6 44 1
56 -2 51 -11z"/>
<path d="M826 1615 c-3 -8 -12 -15 -21 -15 -9 0 -25 -9 -37 -20 -12 -11 -30
-20 -41 -20 -15 0 -17 -3 -8 -13 6 -8 8 -17 4 -20 -3 -4 7 -7 24 -7 17 0 46
-3 64 -6 26 -4 30 -3 19 5 -8 6 -27 11 -42 11 -15 0 -30 5 -33 10 -4 6 5 10
19 10 16 0 26 6 26 15 0 19 18 19 66 -2 28 -12 34 -18 22 -21 -10 -2 -18 -8
-18 -14 0 -5 7 -7 16 -4 9 3 12 2 9 -5 -5 -7 28 -8 107 -4 131 8 150 11 128
25 -8 6 -19 10 -25 10 -5 0 -3 -5 5 -10 11 -7 -5 -10 -52 -10 -47 0 -71 5 -82
16 -25 24 -19 37 12 30 15 -3 43 -8 62 -11 33 -5 33 -4 -10 12 l-45 18 55 6
55 6 -65 2 c-36 1 -86 3 -113 4 -40 2 -45 0 -30 -10 14 -11 11 -13 -27 -13
-34 0 -41 3 -32 12 7 7 12 16 12 20 0 14 -18 9 -24 -7z"/>
<path d="M125 1383 c-44 -2 -84 -8 -89 -13 -7 -7 -4 -10 7 -10 9 0 17 -5 17
-11 0 -8 14 -10 41 -6 32 4 39 3 30 -6 -7 -7 -35 -13 -64 -14 -29 0 -55 -2
-59 -2 -5 -1 -8 -32 -8 -71 l0 -70 33 0 c17 0 49 -5 70 -11 26 -7 42 -7 51 0
7 6 26 7 51 1 52 -12 68 -12 60 0 -3 6 3 10 15 10 12 0 18 -4 15 -10 -8 -14
18 -13 32 1 6 6 17 8 24 3 7 -4 22 -8 33 -9 12 -1 30 -6 41 -10 12 -5 8 2 -11
18 -18 15 -37 27 -43 27 -6 0 -11 5 -11 10 0 18 26 10 50 -15 17 -18 34 -25
59 -25 30 1 33 2 18 11 -10 6 -24 8 -32 5 -8 -3 -24 7 -37 22 -24 28 -65 32
-81 8 -5 -8 -10 -6 -17 6 -9 15 -28 17 -163 14 -164 -2 -130 10 50 18 106 4
136 12 112 27 -8 5 -21 8 -29 8 -10 0 -8 -3 5 -9 l20 -9 -20 0 c-11 0 -33 6
-50 14 -29 13 -29 13 33 14 43 1 68 -4 78 -14 8 -8 21 -12 28 -9 8 3 17 1 21
-5 3 -6 22 -11 41 -11 31 0 37 -4 50 -35 13 -33 17 -35 59 -35 32 0 47 -5 53
-17 14 -26 4 -43 -25 -43 -23 0 -24 -2 -12 -17 13 -15 11 -16 -16 -9 -22 5
-26 4 -15 -4 8 -5 32 -10 54 -10 27 0 37 -4 33 -13 -3 -7 4 -19 16 -26 20 -13
20 -14 2 -27 -10 -8 -15 -14 -9 -14 5 0 2 -5 -6 -10 -12 -8 -12 -10 5 -10 23
0 47 -33 39 -53 -3 -9 -14 -12 -29 -9 -14 2 -22 9 -18 15 4 7 0 8 -11 4 -10
-4 -22 -7 -27 -7 -6 0 -7 -4 -4 -10 3 -5 19 -10 35 -10 41 0 60 -10 60 -30 0
-21 23 -43 35 -32 5 4 5 1 1 -5 -4 -7 -18 -13 -32 -13 -27 0 -32 -15 -8 -24 8
-3 12 -10 9 -16 -3 -5 -1 -10 4 -10 15 0 14 -37 -1 -43 -17 -6 36 -27 68 -27
13 0 24 5 24 10 0 6 -7 10 -16 10 -13 0 -13 2 2 18 17 16 16 17 -12 23 l-29 7
28 1 c16 0 26 5 23 9 -3 5 2 28 10 53 11 32 14 62 9 107 -6 59 -11 67 -44 63
-7 -2 -10 2 -6 8 3 6 16 12 28 12 17 1 18 2 5 6 -10 2 -18 13 -18 24 0 13 -7
19 -21 19 -12 0 -18 4 -13 11 3 6 0 16 -7 21 -10 7 -6 8 14 4 15 -4 27 -2 27
4 0 5 -15 11 -32 11 l-33 2 33 6 c45 8 41 25 -8 29 -22 2 -40 7 -40 12 0 16
19 21 39 9 15 -10 22 -9 35 4 16 15 15 17 -11 23 -53 11 -63 15 -63 24 0 5 8
11 18 13 14 4 13 5 -4 6 -11 0 -28 7 -37 14 -14 10 2 12 93 10 62 -1 110 3
110 8 0 5 -5 9 -11 9 -5 0 -8 4 -5 9 3 5 -6 11 -19 14 -14 2 -28 0 -31 -5 -3
-5 -15 -6 -26 -2 -11 3 -18 2 -15 -2 3 -5 -27 -10 -66 -10 -54 -1 -63 0 -37 6
29 6 31 8 10 9 l-25 2 25 10 c14 6 36 8 50 5 39 -7 58 9 23 20 -31 10 -83 7
-83 -5 0 -4 -16 -5 -35 -3 -19 2 -35 7 -35 11 0 4 -33 7 -74 7 -67 0 -72 -2
-48 -12 20 -9 22 -13 9 -13 -36 -2 -10 -26 34 -32 41 -5 42 -6 17 -13 -16 -5
-35 -6 -43 -2 -20 7 -19 -4 3 -20 15 -12 13 -13 -20 -14 -20 0 -43 6 -50 13
-15 15 -138 47 -180 47 -15 0 -30 5 -33 11 -5 7 8 9 41 4 36 -5 45 -4 34 4 -8
6 -30 11 -49 11 -33 0 -34 1 -15 15 10 8 15 14 9 13 -5 -1 -46 -4 -90 -5z"/>
<path d="M0 1140 c0 -29 1 -30 53 -30 50 -1 51 -1 27 -15 -28 -16 -54 -20 -30
-5 11 7 7 10 -17 10 l-33 0 0 -79 c0 -55 4 -81 13 -84 6 -2 48 -2 92 -1 77 3
78 3 40 -9 -33 -11 -37 -14 -21 -20 10 -4 17 -10 14 -13 -3 -2 -18 0 -34 6
-35 14 -104 3 -104 -15 0 -8 8 -16 18 -18 16 -4 16 -5 0 -6 -14 -1 -18 -10
-18 -35 l0 -34 133 -4 c86 -2 139 -8 152 -16 19 -13 19 -13 -2 -9 -13 3 -23 2
-23 -2 0 -12 75 -41 108 -41 18 0 32 -4 32 -10 0 -13 -107 -7 -143 8 -42 18
-68 15 -37 -4 l25 -15 -25 6 c-14 4 -34 9 -45 12 -42 10 -106 44 -100 53 3 5
-10 6 -32 3 -51 -8 -54 -13 -9 -13 20 0 35 -4 32 -9 -4 -5 0 -12 6 -15 7 -3
-6 -2 -29 1 l-41 5 0 -45 0 -46 38 2 c21 2 36 -1 34 -5 -3 -5 -20 -8 -39 -8
l-33 0 -1 -119 -2 -119 31 -11 c17 -5 45 -8 63 -6 26 4 27 3 7 -3 l-24 -8 30
-21 c17 -12 42 -25 57 -28 15 -4 27 -11 27 -16 0 -10 -111 37 -120 50 -3 5
-20 10 -37 13 -32 4 -33 3 -33 -29 0 -20 5 -33 13 -33 8 0 7 -3 -3 -10 -23
-15 -6 -21 64 -24 37 -2 69 -5 72 -8 11 -12 -76 -19 -110 -10 l-36 10 0 -98
c0 -84 3 -101 18 -109 16 -10 15 -10 -3 -11 -14 -1 -11 -5 12 -13 47 -18 53
-30 11 -22 -26 5 -38 4 -38 -4 0 -6 19 -11 46 -11 25 0 43 4 40 8 -3 5 16 5
42 1 26 -4 67 -7 92 -7 43 1 44 1 10 7 -26 5 -31 8 -18 13 10 4 36 1 58 -7 32
-11 106 -14 348 -14 172 1 298 5 287 9 -17 8 -16 9 8 9 17 1 26 -3 22 -9 -5
-7 38 -10 130 -9 119 1 134 3 123 16 -7 9 -22 13 -38 9 -17 -3 -39 2 -59 15
-17 10 -38 19 -45 19 -7 0 -19 7 -26 15 -20 24 -9 21 68 -19 26 -14 36 -15 47
-6 11 9 21 8 46 -4 18 -9 44 -16 58 -16 14 0 35 -7 45 -15 11 -8 26 -15 34
-15 12 0 11 4 -3 20 -15 16 -15 20 -3 20 8 0 23 -9 33 -20 11 -12 30 -20 49
-19 l31 1 -34 10 c-26 7 -31 12 -20 19 8 5 27 9 42 9 20 0 26 4 21 12 -5 9 -2
9 9 -1 9 -7 17 -22 17 -33 0 -18 5 -20 31 -14 17 3 38 6 45 6 24 0 15 19 -12
26 -16 4 -23 12 -20 20 4 10 -3 14 -22 15 -15 0 -21 3 -14 6 10 4 10 8 1 19
-11 14 1 20 14 7 28 -27 239 -15 392 23 39 9 79 16 89 16 23 -1 10 14 -19 22
-11 3 -5 3 13 1 76 -11 92 -17 92 -35 0 -16 -4 -17 -32 -9 -18 5 -42 9 -53 9
-19 -1 -19 -2 4 -20 30 -25 57 -25 106 0 47 24 52 24 72 5 14 -14 13 -15 -10
-10 -26 7 -45 -9 -26 -21 7 -4 43 -6 80 -6 74 2 94 -13 32 -22 -21 -2 -45 -5
-53 -4 -8 0 -40 -3 -70 -6 -30 -3 -59 -5 -65 -6 -29 -2 27 -20 65 -21 l45 -2
-35 -7 c-20 -4 55 -8 173 -9 114 0 207 1 207 3 0 11 -58 40 -77 38 -13 -1 -23
3 -23 8 0 6 12 10 28 11 26 1 25 2 -8 13 -19 6 -55 26 -79 43 -43 32 -66 38
-153 36 -21 0 -38 3 -38 8 0 5 7 9 16 9 10 0 14 6 10 15 -4 11 1 15 19 15 13
0 40 9 60 20 20 11 43 20 53 20 13 0 14 2 3 9 -9 6 -10 11 -2 15 5 4 19 1 30
-6 16 -10 23 -10 33 0 10 10 7 16 -12 30 -13 9 -34 20 -45 25 -20 7 -20 7 -1
-8 17 -13 17 -15 4 -15 -9 0 -20 5 -24 11 -4 8 -9 7 -15 -2 -6 -11 -13 -9 -29
9 -12 12 -18 27 -15 32 3 6 0 10 -8 10 -8 0 -17 7 -21 15 -3 10 -18 15 -43 14
-37 -1 -37 -2 -8 -8 l30 -7 -40 -7 c-22 -4 -63 -7 -91 -7 -46 0 -52 3 -58 24
-3 14 -18 29 -36 36 -16 7 -30 16 -30 20 0 9 -54 31 -82 35 -34 4 -18 -11 26
-24 25 -7 47 -19 50 -27 3 -8 15 -14 26 -14 11 0 20 -6 20 -14 0 -8 6 -16 13
-19 27 -10 -3 -17 -34 -8 -19 5 -26 10 -15 10 11 1 17 4 13 7 -3 3 -14 3 -25
0 -20 -7 -20 -7 2 -31 13 -14 32 -25 42 -25 16 0 17 2 4 10 -10 7 6 8 50 5 91
-7 119 -6 141 5 12 7 20 7 24 -1 4 -5 17 -14 30 -19 12 -5 25 -18 28 -29 6
-25 -5 -27 -23 -6 -7 8 -24 15 -39 16 -22 0 -23 1 -7 8 13 5 16 10 9 14 -16
10 -63 -13 -63 -30 0 -10 -20 -13 -77 -15 -78 -1 -78 -1 -23 -8 37 -4 44 -7
23 -8 -18 -1 -33 -7 -33 -13 0 -8 -5 -7 -15 1 -13 10 -28 10 -81 -5 -55 -15
-75 -16 -117 -7 -91 20 -110 20 -164 6 -30 -8 -74 -14 -98 -14 -25 0 -45 -4
-45 -10 0 -5 -10 -10 -22 -11 -13 0 -17 -3 -10 -6 6 -2 12 -10 12 -17 0 -7 10
-18 23 -24 21 -10 20 -11 -13 -13 -19 -2 -46 -2 -60 -1 -19 1 -22 -1 -10 -8
17 -11 0 -13 -25 -4 -13 5 -14 8 -3 15 9 6 9 9 1 9 -16 0 -36 -38 -29 -55 3
-9 0 -12 -9 -8 -8 3 -13 8 -11 12 2 3 -9 6 -25 7 -15 1 -26 -3 -23 -7 7 -13
-3 -11 -34 5 -34 17 -95 26 -111 17 -19 -12 23 -54 48 -46 10 3 22 1 26 -5 7
-12 -73 -12 -120 0 l-30 8 33 1 32 1 -20 20 c-11 11 -33 20 -49 20 -17 0 -33
5 -37 11 -4 7 0 9 14 5 11 -4 23 -3 26 2 3 5 -17 13 -45 16 -62 8 -58 17 8 20
53 3 75 -2 68 -14 -8 -12 28 -21 77 -20 24 1 72 -3 107 -10 60 -10 100 -6 53
7 -12 3 -20 9 -17 13 2 4 -7 5 -20 2 -14 -2 -25 0 -25 6 0 16 22 20 55 10 17
-5 47 -9 68 -10 20 0 40 -4 43 -9 3 -5 10 -6 16 -3 6 4 1 12 -13 20 -13 7 -18
13 -11 14 7 0 10 5 7 11 -4 6 -19 10 -33 9 -43 -3 -62 -1 -62 8 0 4 14 7 32 7
42 0 47 20 6 23 -18 1 -38 8 -43 15 -12 15 -31 20 -70 19 l-30 -1 29 9 c34 11
52 9 82 -8 12 -6 24 -8 28 -5 3 3 6 1 6 -6 0 -6 6 -11 13 -10 36 5 48 -1 42
-21 -4 -14 -2 -20 9 -20 21 0 47 11 42 19 -2 3 17 5 42 3 26 -2 58 1 72 7 21
9 17 10 -29 9 -33 -1 -56 3 -59 10 -2 6 -10 8 -17 6 -8 -3 -19 -3 -26 1 -6 4
-29 8 -51 9 -26 2 -45 9 -54 20 -7 10 -17 15 -23 11 -6 -3 -19 -1 -28 4 -15 9
-11 10 18 11 57 0 103 -11 87 -22 -8 -5 5 -6 34 -2 54 7 110 -2 89 -15 -10 -6
-9 -10 4 -14 10 -5 14 -3 9 5 -5 8 0 9 17 4 13 -5 59 -10 101 -11 43 -2 95 -9
115 -14 21 -6 45 -11 53 -10 8 0 0 5 -18 10 -19 6 -30 14 -26 20 4 7 -3 10
-17 8 -13 -1 -55 1 -94 5 -51 6 -64 11 -50 17 17 6 17 8 3 8 -10 1 -18 6 -18
11 0 6 28 10 63 10 34 0 73 3 87 6 20 5 22 4 10 -6 -12 -9 -3 -10 40 -6 50 5
52 5 20 -5 -19 -6 -50 -8 -68 -6 -18 3 -30 2 -27 -3 3 -5 -5 -11 -17 -14 -13
-2 -2 -3 24 -1 32 3 50 -1 59 -11 6 -8 20 -14 30 -14 10 0 21 -4 24 -10 3 -6
16 -10 28 -10 18 0 19 2 7 10 -8 5 -10 10 -5 10 6 0 3 5 -5 11 -12 9 -11 9 5
4 44 -16 54 -17 72 -6 17 10 17 11 1 12 -25 2 -29 4 -61 19 -20 10 -24 16 -15
22 10 6 10 8 1 8 -7 0 -13 7 -13 15 0 18 -21 20 -37 4 -7 -7 -23 -8 -45 -3
-32 7 -32 8 -8 14 24 7 23 7 -10 14 -37 8 -105 -16 -78 -27 10 -4 9 -6 -2 -6
-8 -1 -21 8 -27 18 -16 25 -57 17 -50 -10 3 -11 0 -16 -7 -13 -14 6 -19 44 -5
44 6 0 8 4 5 9 -3 4 6 6 19 3 15 -2 25 0 25 7 0 6 -6 11 -12 12 -7 0 -62 4
-123 8 -113 8 -149 5 -139 -10 3 -5 -4 -9 -15 -9 -10 0 -28 -3 -38 -6 -11 -3
-9 0 5 9 23 13 23 14 -18 26 -23 7 -45 10 -48 7 -3 -3 2 -6 11 -6 9 0 19 -5
22 -10 8 -13 -47 -2 -55 11 -3 4 -19 11 -35 15 -17 4 -33 9 -37 11 -4 2 -42 6
-85 8 -43 2 -79 8 -81 14 -5 14 -22 14 -22 1 0 -15 44 -30 95 -32 26 -1 46 -7
49 -14 4 -9 15 -12 36 -8 19 4 30 2 30 -5 0 -6 -16 -11 -36 -11 -25 0 -41 -7
-54 -22 -10 -13 -21 -20 -25 -16 -4 4 1 15 11 25 17 17 16 18 -17 24 -19 4
-25 7 -15 8 27 2 17 7 -26 15 -31 6 -37 4 -32 -8 3 -7 0 -17 -6 -21 -9 -6 -9
-10 1 -16 11 -7 11 -9 -1 -9 -9 0 -20 4 -25 9 -10 10 -36 14 -69 12 -15 -1
-16 -4 -6 -16 10 -13 9 -15 -9 -15 -26 0 -28 -16 -3 -24 13 -4 18 -17 19 -41
1 -19 -3 -35 -8 -35 -18 0 -8 -32 11 -37 11 -3 20 -9 20 -13 0 -5 -9 -6 -20
-3 -16 4 -20 0 -20 -21 0 -14 -4 -26 -9 -26 -19 0 -22 -35 -5 -47 16 -12 16
-13 -4 -13 -12 0 -22 -4 -22 -10 0 -5 4 -10 9 -10 5 0 8 -8 6 -17 -2 -10 -4
-24 -4 -30 -2 -25 -21 -13 -21 12 0 30 -40 78 -47 58 -3 -7 -11 -13 -19 -13
-8 0 -14 -5 -14 -11 0 -5 -5 -7 -12 -3 -7 5 -5 11 7 21 20 14 16 16 -25 14
-23 0 -23 0 4 9 16 5 33 7 38 4 4 -3 8 -1 8 5 0 5 -6 12 -12 15 -7 3 -1 4 15
1 29 -6 33 8 8 34 -11 13 -11 16 5 22 16 6 14 8 -11 15 l-30 7 28 12 28 11
-43 13 c-24 8 -47 15 -53 16 -5 2 11 4 38 4 26 1 47 -3 47 -9 0 -5 10 -9 23
-9 16 1 18 2 5 6 -10 2 -18 8 -18 12 0 5 -28 14 -62 21 -35 8 -56 15 -47 17
10 2 44 -3 77 -11 73 -19 77 -20 63 -2 -9 11 -9 15 1 19 8 4 7 6 -4 6 -18 1
-26 21 -10 21 19 0 7 30 -12 31 -13 1 -7 5 14 10 27 6 21 7 -32 5 -37 -1 -65
1 -62 5 2 4 -8 10 -23 12 -16 2 -8 3 17 1 50 -5 45 8 -10 25 l-35 11 35 -4
c19 -2 44 -7 55 -11 20 -7 20 -7 0 10 -11 9 -20 21 -20 27 0 6 -9 14 -20 18
-19 7 -19 7 0 18 19 11 19 11 -2 12 -13 0 -23 5 -23 11 0 7 10 9 25 5 14 -4
25 -2 25 4 0 5 7 10 16 10 8 0 12 -4 9 -10 -3 -5 0 -10 7 -10 7 0 24 -3 38 -6
20 -4 22 -3 10 5 -13 9 -12 11 5 12 l20 0 -20 9 c-11 5 -15 9 -10 10 18 3 -40
18 -80 20 -25 2 -31 4 -17 7 23 5 29 18 12 28 -18 11 -10 27 11 22 11 -3 28
-3 36 0 21 8 -62 42 -102 42 -26 0 -27 -2 -10 -9 17 -7 16 -9 -10 -10 -29 -1
-30 -1 -6 -11 30 -12 20 -23 -14 -15 -26 7 -34 31 -12 39 7 3 4 6 -6 6 -10 1
-15 6 -12 11 4 6 16 8 28 5 17 -4 15 -2 -5 10 -35 20 -36 28 -2 14 15 -5 29
-7 32 -4 3 3 0 5 -6 5 -7 0 -12 9 -12 21 0 15 -4 19 -16 15 -9 -3 -24 -6 -34
-6 -23 0 -31 -33 -14 -58 13 -19 12 -20 -20 -20 -19 0 -42 -5 -53 -10 -17 -10
-17 -11 0 -17 9 -4 26 -5 37 -2 11 3 23 1 26 -4 3 -5 -3 -9 -13 -10 -16 0 -16
-1 2 -9 19 -8 19 -8 1 -16 -13 -5 -23 -2 -31 9 -7 10 -20 17 -29 17 -13 0 -10
-6 11 -25 23 -20 25 -24 10 -25 -11 0 -15 4 -11 12 5 8 -4 9 -34 6 -39 -6 -71
9 -55 25 3 4 -1 7 -10 7 -9 0 -17 5 -17 11 0 11 17 9 67 -7 15 -5 15 -4 -2 7
-11 7 -24 18 -28 26 -5 7 -13 10 -19 7 -8 -5 -9 -1 -5 11 6 15 3 17 -20 13
-16 -3 -39 -2 -53 2 -23 8 -23 8 8 9 32 1 43 15 20 24 -7 3 -3 6 9 6 12 1 25
-3 28 -9 6 -9 65 -15 65 -7 0 21 -35 67 -51 67 -11 0 -17 5 -14 10 3 6 18 8
33 5 l27 -6 -22 17 c-28 20 -29 34 -4 34 10 0 22 7 25 16 4 12 1 14 -13 9 -11
-3 -22 -1 -26 5 -9 14 22 25 38 12 6 -6 23 -12 37 -14 17 -2 25 -9 25 -22 0
-11 7 -21 15 -23 8 -3 25 -9 37 -15 43 -21 33 -2 -20 37 -39 30 -48 40 -34 43
10 2 25 -2 33 -9 12 -10 13 -9 8 5 -3 9 -1 16 5 16 6 0 11 5 11 10 0 6 -9 10
-19 10 -11 0 -21 3 -24 8 -2 4 -2 1 -1 -5 2 -7 -5 -13 -15 -13 -14 0 -18 5
-14 20 4 16 0 20 -20 20 -13 0 -30 7 -38 16 -11 14 -9 15 27 9 21 -4 46 -9 54
-11 10 -2 16 3 17 16 2 18 -4 20 -58 18 -32 -1 -62 1 -66 5 -3 4 5 7 18 7 35
0 69 11 69 22 0 6 -14 7 -32 3 l-33 -7 21 23 c21 23 22 49 3 49 -4 0 -6 -7 -3
-15 4 -8 5 -15 3 -15 -2 0 -42 7 -89 15 -105 19 -110 19 -110 0 0 -19 -10 -19
-38 1 -15 10 -39 14 -74 12 l-53 -3 30 -14 c17 -7 46 -13 65 -12 25 0 39 -5
48 -19 10 -17 10 -20 -2 -20 -8 0 -18 5 -21 11 -4 6 -19 9 -33 8 -15 -1 -35 1
-44 5 -9 4 -22 4 -29 0 -7 -4 -9 -3 -6 3 4 6 -11 14 -36 18 -34 7 -37 9 -17
13 24 4 23 4 -9 18 -46 20 -51 18 -51 -16z m1132 -765 c68 -2 155 -6 193 -9
47 -4 63 -3 50 3 -11 5 -36 10 -55 10 -19 1 -42 6 -50 12 -12 8 -11 9 5 5 11
-3 55 -6 97 -8 43 -2 78 -6 78 -10 0 -4 28 -5 63 -2 56 5 60 4 44 -9 -14 -11
-15 -16 -5 -20 7 -3 -3 -5 -22 -5 -19 1 -48 -2 -65 -5 -16 -4 -66 -3 -110 2
-44 4 -81 5 -83 2 -1 -3 -38 -6 -83 -5 -55 0 -83 4 -89 13 -5 9 -17 11 -34 7
-14 -3 -26 -2 -26 3 0 5 -18 12 -40 16 -24 4 -44 14 -50 26 -10 18 -8 17 24
-2 30 -17 56 -21 158 -24z"/>
<path d="M890 1067 c0 -35 64 -62 127 -54 l48 7 -25 -20 c-20 -16 -22 -20 -7
-20 9 0 17 -4 17 -10 0 -5 -12 -10 -26 -10 -19 0 -25 4 -20 15 3 9 0 15 -9 15
-8 0 -15 -4 -15 -9 0 -12 29 -41 41 -41 5 0 9 -7 9 -16 0 -11 7 -14 28 -11 15
2 21 2 15 0 -7 -3 -13 -13 -13 -24 0 -16 -5 -18 -32 -14 -24 4 -29 3 -18 -5
17 -11 83 -13 94 -3 3 4 12 8 19 9 7 1 26 5 42 9 28 6 29 6 11 -9 -11 -9 -26
-17 -33 -17 -28 -3 -32 -4 -43 -15 -16 -16 54 -12 74 5 10 8 26 11 43 6 27 -6
26 -5 -11 30 -29 26 -36 39 -27 44 9 6 6 10 -11 16 -21 8 -21 8 10 12 17 2 32
9 32 14 0 6 5 7 10 4 6 -4 8 -11 4 -16 -12 -20 19 -39 65 -39 25 0 59 -7 74
-15 23 -12 33 -12 50 -3 21 11 21 11 2 18 -11 4 -32 6 -46 3 -16 -3 -32 1 -42
12 -12 12 -26 14 -52 9 -23 -4 -35 -2 -35 5 0 6 5 11 11 11 6 0 9 7 5 15 -3 9
0 15 9 15 45 0 -13 35 -89 53 -54 13 -161 11 -183 -3 -16 -10 -16 -11 5 -7 12
3 22 1 22 -4 0 -17 -70 -10 -77 8 -9 22 -35 53 -45 53 -5 0 -8 -11 -8 -23z"/>
<path d="M1055 843 c-11 -3 -28 -15 -38 -27 -18 -21 -18 -21 2 -24 24 -4 24
-3 11 -36 -8 -21 -6 -26 13 -32 23 -7 34 -4 30 9 -4 11 15 8 23 -4 3 -6 1 -15
-6 -19 -16 -10 51 -18 94 -11 l31 5 -30 8 c-22 5 -17 6 18 3 33 -3 46 -1 41 6
-4 8 0 7 15 0 13 -7 21 -8 21 -2 0 6 7 8 15 5 8 -4 12 -11 8 -18 -4 -6 1 -5
10 2 9 8 25 11 38 7 13 -4 19 -3 16 3 -4 5 -30 12 -58 15 -28 4 -58 12 -66 19
-11 9 -16 9 -23 -1 -9 -15 -53 -8 -113 18 -28 12 -37 21 -33 34 2 9 -1 17 -6
17 -6 0 -5 6 2 15 7 8 11 14 9 14 -2 -1 -13 -4 -24 -6z"/>
<path d="M2515 580 c4 -12 2 -20 -5 -20 -6 0 -8 -5 -5 -11 4 -6 9 -8 12 -5 3
3 17 -6 32 -20 61 -57 80 -79 72 -82 -11 -4 61 -82 77 -82 6 0 12 -4 12 -10 0
-5 6 -10 13 -10 6 0 25 -14 41 -30 15 -16 44 -36 63 -45 19 -9 43 -25 54 -36
10 -10 36 -26 56 -34 21 -9 50 -30 66 -46 18 -21 33 -28 46 -24 10 3 31 -1 47
-10 29 -15 29 -15 4 -15 -25 0 -24 0 6 -19 19 -11 41 -17 57 -14 21 4 27 1 27
-11 0 -14 8 -17 43 -14 33 2 42 7 40 21 0 12 4 16 13 13 7 -3 16 -1 19 4 4 6
1 10 -5 10 -6 0 -9 4 -6 9 4 5 -12 8 -36 5 -29 -2 -37 -1 -23 5 17 7 15 9 -15
16 -19 4 -41 11 -50 15 -8 4 -33 16 -56 26 -34 15 -39 21 -28 32 11 10 11 17
2 32 -12 19 -56 43 -74 39 -22 -4 -35 2 -28 13 5 7 2 9 -8 5 -9 -3 -28 1 -43
9 -15 8 -39 14 -54 14 l-26 1 28 15 c30 16 28 34 -4 34 -11 0 -17 5 -14 10 3
6 0 10 -7 10 -7 0 -24 9 -38 20 -27 21 -45 26 -35 10 9 -15 -16 -12 -49 5 -15
8 -36 15 -45 16 -13 0 -12 2 3 8 26 10 3 25 -27 17 -12 -3 -29 -1 -37 4 -13 8
-12 10 3 10 10 0 15 5 12 10 -4 6 -15 8 -26 5 -15 -5 -19 -1 -19 15 0 18 3 19
21 9 13 -6 19 -7 15 -1 -3 6 7 13 24 17 l31 7 -40 29 c-32 23 -45 27 -63 19
-13 -5 -17 -9 -10 -9 7 -1 10 -6 6 -12 -4 -7 3 -10 17 -9 35 3 49 1 49 -7 0
-5 -15 -9 -34 -10 -28 -2 -40 3 -65 32 -34 40 -45 44 -36 15z"/>
<path d="M2956 523 c13 -12 24 -26 24 -32 0 -5 8 -7 18 -5 9 3 27 -4 39 -15
12 -12 41 -28 65 -38 24 -9 58 -30 75 -47 22 -20 45 -31 68 -33 39 -2 96 -41
90 -60 -2 -7 2 -10 10 -7 8 3 20 -4 27 -15 7 -12 20 -21 30 -21 9 0 20 -5 23
-10 3 -6 19 -10 36 -10 16 0 29 -4 29 -9 0 -17 72 -21 100 -4 29 17 31 53 3
53 -13 0 -13 -3 -3 -15 10 -12 10 -15 -3 -15 -8 0 -18 7 -21 16 -3 9 -11 14
-18 12 -6 -2 -20 4 -30 14 -12 12 -26 17 -38 13 -10 -3 -21 -1 -25 5 -4 6 -15
8 -26 5 -11 -4 -19 -2 -19 4 0 6 12 12 28 12 17 1 7 6 -28 13 -54 11 -54 12
-33 27 l23 16 -25 11 c-21 10 -27 9 -31 -3 -4 -8 -13 -15 -21 -15 -8 0 -11 -5
-7 -11 4 -7 1 -10 -6 -7 -21 7 -23 26 -3 31 10 3 2 5 -17 6 -19 1 -30 5 -25 9
23 17 13 32 -25 38 -23 4 -38 9 -35 12 9 9 -47 41 -62 35 -7 -3 -22 2 -33 12
-11 10 -28 15 -40 12 -11 -3 -20 -1 -20 5 0 5 -8 9 -17 8 -25 -3 -64 11 -58
20 3 4 -6 7 -19 6 l-24 -1 24 -22z"/>
<path d="M4166 427 c8 -23 -55 -50 -112 -48 -29 1 -55 -3 -59 -9 -3 -5 -22
-10 -41 -10 -21 0 -33 -4 -29 -10 4 -6 -8 -10 -29 -10 -20 0 -36 -4 -36 -9 0
-6 -9 -8 -20 -6 -11 2 -20 0 -20 -6 0 -5 -7 -9 -15 -9 -12 0 -13 -4 -5 -19 16
-31 12 -34 -20 -11 -16 12 -30 18 -30 14 0 -3 -7 -1 -15 6 -12 10 -15 10 -15
-4 0 -9 -8 -16 -17 -16 -12 0 -6 -8 17 -22 24 -16 52 -23 90 -23 37 -1 54 -5
53 -13 -2 -7 1 -12 6 -12 5 0 12 13 16 30 5 21 13 30 26 30 10 0 19 5 19 10 0
6 14 10 30 10 18 0 33 6 36 15 5 12 10 13 20 4 8 -6 21 -8 31 -5 9 4 20 1 25
-6 5 -10 8 -8 8 5 0 11 4 15 12 11 8 -5 9 0 6 14 -5 17 -2 22 14 22 10 0 16
-4 13 -10 -4 -6 6 -10 24 -10 16 0 31 -6 34 -12 8 -24 19 0 22 49 2 35 -2 51
-14 60 -21 16 -32 16 -25 0z"/>
<path d="M2635 320 c2 -4 -7 -7 -22 -7 -15 0 -29 -6 -31 -12 -2 -6 -26 -11
-55 -12 -46 0 -49 -2 -27 -11 24 -10 24 -10 5 -18 -17 -6 -13 -9 23 -21 31 -9
49 -10 60 -2 18 10 42 7 42 -7 0 -4 -6 -7 -12 -6 -7 0 -14 -3 -16 -9 -2 -5 15
-15 38 -21 30 -7 47 -18 57 -38 10 -19 20 -26 32 -23 28 7 48 -9 77 -63 15
-28 33 -50 41 -50 7 0 13 -4 13 -10 0 -5 14 -10 31 -10 41 0 33 24 -8 28 -17
2 -34 10 -37 19 -9 22 0 28 18 13 32 -26 166 -6 139 21 -8 8 -42 17 -72 18 -8
1 -11 7 -7 17 3 9 2 12 -5 9 -5 -4 -15 -2 -22 3 -7 5 -24 12 -39 16 -16 3 -28
11 -28 16 0 6 -7 10 -16 10 -8 0 -13 4 -10 9 3 5 -1 12 -10 15 -8 3 -12 10 -9
16 3 6 -3 10 -15 10 -12 0 -35 11 -52 25 -16 14 -48 28 -70 32 l-41 6 33 17
c30 16 31 17 11 23 -11 3 -19 2 -16 -3z"/>
<path d="M3634 233 c-7 -24 -41 -41 -98 -47 -46 -6 -53 -11 -29 -24 31 -17 88
-19 79 -3 -3 5 4 11 17 15 32 8 47 7 47 -4 0 -5 -7 -10 -16 -10 -8 0 -12 -5
-9 -11 4 -6 -1 -17 -11 -25 -18 -15 -18 -15 1 -9 11 4 38 11 59 15 35 7 42 5
58 -16 10 -12 25 -21 32 -18 8 3 17 1 21 -5 3 -6 1 -11 -4 -11 -6 0 -11 -5
-11 -10 0 -6 11 -8 25 -6 13 3 27 0 30 -5 10 -15 22 -10 28 11 3 11 11 20 17
20 7 0 10 -6 7 -14 -4 -10 0 -12 14 -9 19 5 27 23 11 23 -5 0 -8 10 -8 22 1
15 -6 24 -19 26 -11 3 -26 13 -33 23 -7 11 -18 19 -24 19 -6 0 -5 -7 3 -16 12
-15 11 -16 -11 -9 -14 4 -28 12 -31 17 -3 5 -18 6 -32 3 -22 -6 -26 -4 -24 15
1 15 7 20 18 17 26 -7 12 18 -17 32 -35 16 -53 13 -30 -4 11 -8 16 -18 11 -22
-4 -5 -10 -2 -12 5 -3 6 -9 9 -15 6 -5 -3 -16 2 -24 12 -13 18 -14 18 -20 -3z"/>
<path d="M3471 121 c-9 -6 -5 -11 16 -16 15 -5 32 -7 37 -6 4 1 14 -6 21 -16
12 -15 11 -19 -3 -24 -9 -4 -20 -1 -24 5 -5 8 -11 7 -20 -2 -9 -9 -8 -15 8
-27 13 -10 15 -14 5 -15 -8 0 -23 8 -33 17 -12 10 -22 13 -26 8 -4 -6 -13 -10
-19 -11 -26 -2 -30 -4 -30 -19 0 -13 12 -15 61 -13 55 3 61 5 64 25 3 23 29
31 48 14 14 -12 104 -35 111 -27 3 3 -3 6 -15 6 -11 0 -24 5 -28 11 -5 8 5 9
34 4 26 -4 47 -2 61 7 31 19 26 30 -11 24 -25 -5 -28 -4 -13 3 19 9 18 10 -5
10 -14 1 -32 6 -40 11 -10 6 -3 8 23 3 26 -4 37 -2 37 7 0 7 -7 10 -16 6 -8
-3 -12 -2 -9 4 15 25 -68 2 -86 -24 -4 -5 -20 1 -36 12 -19 13 -38 19 -51 15
-12 -3 -28 -1 -35 5 -7 6 -19 7 -26 3z"/>
</g>
</svg>
