<svg version="1.0" xmlns="http://www.w3.org/2000/svg"
 width="1182.000000pt" height="664.000000pt" viewBox="0 0 1182.000000 664.000000"
 preserveAspectRatio="xMidYMid meet">

    <defs>
        <style>
            .svg {
            fill: #fff;
            stroke-dasharray: 200600;
            stroke-dashoffset: 200600;
            animation: svg 5s linear forwards;
            }
            @keyframes svg {
            0% {
            stroke-width: 40px;
            stroke-dashoffset: 200600;
            }
            80% {
            stroke-dashoffset:0 fill: #fff;
            }
            100% {
            fill: #000;
            stroke-width: 0;
            stroke-dashoffset: 0;
            }
        </style>
    </defs>


<g transform="translate(0.000000,664.000000) scale(0.100000,-0.100000)"
fill="#000000" stroke="none">
<path class="svg"
      stroke="#000"
      stroke-miterlimit="10" d="M0 4730 c0 -1635 2 -1910 14 -1910 8 0 16 -5 18 -11 2 -7 12 -7 30 0
20 8 28 7 32 -5 3 -8 10 -14 15 -14 6 0 8 7 5 15 -5 11 1 15 24 15 17 0 33 -4
36 -9 3 -4 50 -14 103 -20 54 -7 110 -16 124 -21 17 -5 31 -4 38 3 8 8 11 8
11 0 0 -6 16 -11 38 -10 20 0 57 1 82 0 226 -3 242 9 35 27 -118 10 -148 10
-160 0 -12 -10 -19 -10 -27 -2 -9 9 -7 12 8 13 15 1 14 3 -6 9 -23 7 -22 8 11
9 44 1 78 31 35 31 -14 0 -26 3 -27 8 0 4 -2 14 -4 23 -2 14 4 16 39 12 31 -3
37 -2 26 6 -20 14 -90 14 -90 0 0 -14 -150 -2 -165 13 -7 6 -1 8 15 4 61 -12
140 -17 140 -8 0 6 -33 13 -72 16 -40 4 -91 10 -113 14 l-40 6 50 6 50 6 -45
11 c-25 6 -35 11 -24 12 12 1 41 -6 64 -14 24 -8 52 -13 62 -9 11 3 32 1 46
-4 15 -6 42 -13 61 -16 29 -5 32 -4 21 9 -7 8 -9 15 -6 15 15 0 71 -33 79 -46
5 -9 26 -14 60 -13 49 1 50 1 19 10 -17 5 -32 12 -32 15 0 7 139 -2 147 -10 4
-4 -10 -5 -30 -2 -37 5 -42 0 -31 -28 4 -11 18 -16 48 -15 l41 1 -35 11 -35
10 43 7 c24 4 60 3 80 -1 21 -3 28 -8 17 -9 l-20 -1 20 -9 c11 -5 43 -8 70 -8
41 0 45 2 25 9 -15 5 10 6 65 2 50 -3 102 -12 117 -19 18 -10 28 -10 30 -3 3
8 24 7 74 -3 59 -12 74 -13 89 -2 10 8 29 11 42 8 36 -10 73 4 73 26 0 12 9
22 23 25 12 3 42 10 67 16 25 6 87 16 137 22 l93 10 2 41 c0 23 0 51 -1 64 -1
17 5 24 27 28 16 3 41 17 56 30 14 14 31 22 37 19 6 -4 10 -1 9 6 -3 22 11 59
21 54 4 -3 6 13 3 35 -6 49 2 80 21 80 18 0 25 36 11 55 -6 9 -22 14 -36 13
-27 -3 -27 -5 -13 85 3 21 1 37 -5 37 -12 0 -22 -34 -22 -75 0 -33 -14 -62
-23 -49 -3 5 -8 33 -11 62 -3 30 -8 57 -11 62 -3 4 2 10 10 14 8 3 15 17 15
31 0 36 28 32 45 -7 7 -18 16 -50 20 -70 7 -36 35 -55 35 -25 0 8 16 28 35 46
34 30 35 34 35 100 0 56 3 70 17 76 16 6 15 8 -7 25 -14 11 -33 20 -43 20 -54
0 -73 47 -43 104 l13 27 6 -31 c5 -24 12 -30 32 -30 14 0 37 -7 50 -16 23 -15
28 -15 65 0 22 9 50 16 63 17 12 0 16 3 10 6 -7 2 -13 12 -13 20 0 9 6 13 15
9 8 -3 15 -1 15 4 0 5 -10 10 -22 12 -12 2 -24 9 -26 17 -3 10 0 12 12 8 9 -4
14 -3 11 2 -3 5 5 12 17 14 l23 4 -23 8 c-31 10 -25 41 7 37 21 -3 23 -1 16
25 -4 15 -7 37 -7 48 1 19 0 19 -13 2 -18 -25 -46 -15 -69 24 -18 31 -18 31 3
24 29 -9 27 10 -5 52 -14 19 -23 40 -21 48 3 7 -1 21 -8 32 -18 23 -19 50 -2
56 9 3 9 9 -2 27 -14 24 -9 33 37 59 10 6 10 13 -2 36 -9 16 -12 32 -8 35 4 3
13 16 19 30 l12 25 0 -25 c1 -23 2 -23 18 -8 11 12 16 32 14 71 l-1 54 29 -5
c37 -5 89 17 97 40 3 10 12 18 20 18 8 0 14 10 14 25 0 18 5 25 19 25 11 0 22
8 24 18 3 12 5 10 6 -7 l1 -24 18 24 c10 13 26 40 35 60 26 56 35 60 151 60
80 0 111 -3 128 -15 12 -9 30 -16 40 -16 9 0 25 -8 35 -19 31 -31 85 -33 142
-4 28 13 51 28 51 33 0 4 68 9 152 12 109 2 153 7 156 16 6 18 92 16 92 -2 0
-11 28 -13 158 -8 86 2 159 9 160 13 5 12 82 11 82 -1 0 -13 73 -13 87 1 6 6
45 15 87 20 65 8 81 7 108 -8 18 -9 38 -18 45 -19 7 -1 40 -9 75 -17 35 -9 89
-19 121 -23 31 -3 57 -10 57 -14 0 -4 10 -11 23 -15 12 -4 28 -9 35 -11 6 -2
18 -5 25 -7 8 -1 26 -10 40 -20 19 -12 48 -17 107 -17 81 0 124 -13 158 -47 8
-8 21 -12 29 -9 8 3 11 1 8 -4 -8 -13 -2 -13 30 2 20 9 28 9 38 -2 9 -10 9
-11 0 -6 -7 4 -13 2 -13 -3 0 -6 -9 -11 -20 -11 -11 0 -20 -4 -20 -10 0 -5
-10 -10 -22 -10 -23 0 -88 -45 -88 -61 0 -6 5 -7 11 -4 6 4 70 9 142 11 209 6
248 4 264 -12 17 -16 30 -18 35 -5 2 5 15 12 29 16 23 6 28 1 53 -49 16 -31
32 -56 37 -56 5 0 9 -4 9 -10 0 -5 -6 -10 -14 -10 -8 0 -16 -6 -18 -12 -4 -10
-57 -15 -199 -19 -250 -8 -443 -42 -486 -85 -8 -8 -11 -14 -8 -14 4 0 -2 -16
-14 -35 -11 -19 -16 -35 -12 -35 5 0 12 -11 15 -25 4 -14 10 -24 15 -21 4 3
17 -1 27 -9 25 -19 54 -19 54 -1 0 18 38 46 63 46 10 0 21 -9 24 -20 3 -11 10
-20 15 -20 5 0 6 -5 2 -12 -4 -6 -3 -8 3 -5 6 4 19 -5 29 -19 29 -41 44 -54
60 -54 12 0 19 -19 15 -43 -7 -41 -9 -117 -3 -117 4 0 26 16 50 35 24 18 49
32 56 29 15 -6 36 -47 36 -69 0 -21 60 -48 76 -34 11 9 14 8 14 -2 0 -8 23
-21 50 -31 50 -16 90 -14 90 4 0 5 4 7 9 4 4 -3 17 1 27 9 27 20 34 18 34 -9
0 -28 -37 -96 -52 -96 -5 0 -6 -5 -3 -10 4 -6 41 7 93 35 47 25 92 43 99 41 7
-3 10 1 6 10 -3 8 -1 20 5 27 5 6 12 53 16 102 4 50 11 108 16 130 13 54 12
125 -1 164 -9 25 -9 35 0 44 9 9 11 8 5 -6 -5 -13 -1 -20 15 -24 11 -3 21 -12
21 -19 0 -8 9 -14 20 -14 11 0 20 -6 20 -14 0 -15 42 -26 97 -26 34 0 63 -18
63 -40 0 -13 25 -40 37 -40 9 0 43 -73 43 -93 0 -7 11 -21 25 -31 15 -12 24
-25 20 -34 -3 -8 -3 -30 1 -48 6 -31 10 -34 40 -34 24 0 34 -5 34 -15 0 -8 6
-15 14 -15 24 0 29 -19 10 -37 -13 -13 -19 -14 -22 -5 -2 6 -8 12 -14 12 -6 0
-6 -6 2 -15 7 -8 22 -15 33 -15 11 0 17 -3 14 -7 -4 -3 -40 1 -80 10 -124 28
-177 37 -213 37 -20 0 -52 11 -75 26 -40 25 -40 25 -86 8 -26 -10 -41 -20 -35
-22 7 -2 10 -7 7 -12 -2 -4 14 -1 37 7 54 18 82 14 86 -14 3 -18 -1 -23 -20
-22 -13 0 -17 3 -10 6 17 7 15 23 -3 23 -8 0 -15 -6 -15 -13 0 -8 -12 -20 -27
-28 -15 -8 -38 -24 -51 -36 -14 -13 -30 -23 -37 -23 -7 0 -18 -7 -26 -16 -9
-11 -22 -14 -43 -10 -23 4 -27 3 -16 -4 13 -8 13 -11 1 -19 -7 -5 -10 -14 -7
-20 9 -14 0 -14 -25 -1 -17 10 -18 8 -9 -14 6 -17 5 -26 -3 -30 -7 -2 -4 -5 6
-5 9 -1 17 6 17 14 0 8 7 15 15 15 14 0 13 -3 -1 -25 -9 -14 -23 -25 -31 -25
-8 0 -11 -4 -8 -10 3 -5 -4 -12 -17 -15 -15 -4 -23 -14 -24 -30 -1 -16 2 -22
12 -18 10 4 12 0 8 -11 -3 -9 -1 -16 5 -16 7 0 11 -24 11 -65 0 -52 4 -67 19
-76 14 -10 17 -21 13 -54 -3 -30 2 -53 18 -85 20 -39 21 -47 9 -82 -10 -31
-10 -41 -1 -47 7 -4 10 -14 7 -22 -3 -9 15 -37 48 -72 29 -32 51 -60 48 -62
-2 -3 1 -5 8 -5 6 0 22 -9 34 -20 29 -28 33 -9 9 43 -38 81 -40 75 74 160 103
76 119 84 88 38 -12 -17 -13 -26 -5 -34 8 -8 11 -8 11 2 0 7 9 24 20 38 21 27
27 48 10 38 -6 -3 -10 -1 -10 5 0 6 8 13 18 16 9 3 26 10 37 16 19 11 111 38
129 38 6 0 2 -6 -8 -13 -14 -10 -17 -23 -14 -50 3 -29 0 -37 -12 -37 -30 -1
-124 -37 -128 -50 -3 -9 1 -11 14 -5 65 26 177 46 120 21 -19 -9 -24 -15 -15
-18 11 -4 11 -8 2 -18 -10 -11 -9 -16 5 -26 10 -8 12 -13 5 -14 -7 0 -37 -11
-68 -25 -31 -14 -60 -23 -65 -20 -5 3 -18 -2 -28 -12 -10 -10 -26 -22 -34 -28
-9 -5 -19 -21 -22 -35 -3 -14 -3 -19 0 -12 3 6 17 12 30 12 14 0 24 6 24 15 0
14 37 27 115 39 29 5 36 4 25 -3 -8 -6 -22 -11 -31 -11 -21 0 -106 -38 -114
-50 -4 -6 -11 -8 -16 -5 -5 3 -6 -1 -3 -10 4 -10 10 -12 18 -6 6 5 45 16 87
25 42 9 85 18 95 22 16 5 16 4 4 -5 -8 -6 -31 -15 -50 -21 -20 -5 -44 -17 -55
-25 -19 -15 -17 -16 33 -13 51 3 71 -9 32 -19 -24 -6 -27 -33 -4 -33 10 0 14
-7 12 -22 -3 -21 1 -22 54 -23 43 -1 65 -7 85 -23 24 -19 35 -21 98 -16 51 4
66 3 55 -5 -8 -6 -23 -11 -33 -11 -9 0 -25 -8 -36 -19 -10 -10 -25 -21 -32
-24 -8 -3 -5 -6 8 -6 12 -1 25 4 28 9 7 12 75 14 75 2 0 -4 -40 -16 -88 -25
-103 -20 -112 -20 -112 -7 0 6 9 10 19 10 28 0 52 11 45 21 -10 17 -41 9 -80
-20 -102 -78 -99 -74 -78 -83 14 -6 10 -7 -12 -4 -42 7 -62 -14 -32 -31 23
-12 23 -12 -5 -13 -17 0 -30 -7 -34 -17 -10 -26 -44 -54 -62 -51 -10 2 -15 14
-16 33 0 27 -4 30 -34 33 -18 2 -38 -1 -44 -7 -8 -8 -8 -11 0 -11 10 0 12 -85
2 -94 -2 -2 -13 -8 -24 -14 -17 -10 -18 -11 -2 -12 9 0 17 -7 17 -15 0 -18
-28 -31 -82 -40 -62 -10 -43 -23 25 -18 53 5 65 3 70 -11 5 -11 -1 -17 -21
-22 -15 -3 -36 -9 -47 -14 -16 -7 -13 -9 16 -9 22 -1 39 -7 42 -15 5 -11 -12
-19 -65 -31 -39 -9 -83 -22 -97 -30 -26 -14 -25 -14 12 -8 37 6 47 -3 26 -24
-16 -16 0 -36 25 -29 20 5 20 4 -3 -15 -13 -10 -38 -19 -55 -19 -18 0 -36 -3
-39 -6 -10 -11 12 -44 31 -45 9 0 -9 -7 -40 -15 -55 -13 -114 -42 -104 -51 2
-3 17 2 33 10 18 9 52 14 96 12 87 -3 96 -11 14 -12 -50 0 -75 -7 -126 -32
-35 -18 -61 -35 -58 -37 3 -3 24 4 48 15 43 21 119 29 119 12 0 -5 -19 -12
-42 -16 -79 -12 -93 -16 -118 -35 l-25 -20 37 15 c47 19 89 20 82 2 -3 -8 -33
-19 -67 -26 -68 -13 -108 -31 -72 -31 11 0 40 5 64 11 24 5 58 7 75 3 l31 -8
-35 -7 c-19 -4 -84 -17 -145 -29 -60 -11 -119 -25 -130 -30 -18 -9 -17 -10 5
-5 14 3 68 10 120 15 52 5 110 12 128 16 21 4 32 3 32 -5 0 -6 -8 -12 -17 -12
-19 -2 -42 -5 -83 -13 -14 -3 -46 -8 -72 -11 -62 -8 -62 -24 0 -19 l47 4 -45
-16 c-25 -9 -54 -24 -65 -32 -19 -14 -19 -14 5 -7 41 11 125 16 115 7 -6 -5
-39 -17 -75 -27 -81 -22 -220 -89 -196 -93 10 -2 28 6 40 17 22 20 302 99 313
88 8 -9 -29 -24 -138 -56 -118 -34 -184 -60 -176 -67 3 -3 32 2 64 11 32 9 78
23 103 30 55 15 88 7 45 -11 -17 -7 -42 -13 -57 -14 -16 0 -28 -4 -28 -8 0 -5
-22 -14 -50 -21 -27 -7 -67 -24 -87 -38 -33 -22 -162 -63 -250 -80 -18 -3 -33
-9 -33 -13 0 -5 8 -6 18 -4 194 44 235 56 266 78 39 26 115 47 169 45 18 0 26
-3 20 -6 -7 -2 -13 -20 -13 -38 0 -30 -6 -38 -45 -61 -25 -14 -49 -33 -55 -42
-5 -10 -10 -12 -10 -4 0 17 -30 15 -30 -2 0 -8 -6 -17 -12 -19 -7 -3 4 -6 25
-6 30 -1 37 -5 37 -21 0 -13 -7 -20 -20 -20 -10 0 -32 -5 -47 -11 -15 -6 -37
-15 -48 -19 -11 -5 -32 -11 -46 -14 -14 -3 -38 -17 -53 -31 -20 -18 -37 -25
-58 -23 -32 3 -48 -14 -40 -44 3 -12 -3 -25 -17 -34 -20 -14 -20 -41 0 -29 5
3 6 -1 3 -10 -6 -15 -8 -15 -22 -2 -12 12 -19 13 -34 4 -15 -9 -20 -9 -27 2
-6 9 -16 11 -32 6 -13 -5 -38 -7 -56 -7 -17 1 -36 -5 -43 -12 -16 -20 -118
-30 -155 -15 -17 7 -32 13 -35 13 -47 12 -130 55 -135 71 -6 19 -7 19 -15 -5
-7 -19 -8 -15 -5 19 2 24 10 48 17 52 9 6 10 9 1 9 -12 0 -39 -39 -35 -52 1
-4 -5 -5 -13 -2 -8 3 -26 -8 -43 -27 -27 -30 -31 -31 -61 -21 -48 17 -55 5
-18 -28 l32 -29 -27 -1 c-24 0 -29 -6 -39 -45 -7 -29 -17 -45 -27 -45 -10 0
-7 -7 12 -25 14 -13 26 -26 26 -28 0 -3 -41 3 -130 18 -34 7 -34 6 14 -20 39
-22 50 -24 57 -13 5 7 9 8 9 2 0 -6 -11 -21 -25 -34 -23 -22 -31 -18 -26 13 1
5 -9 7 -21 6 -31 -5 -70 24 -62 44 3 10 35 25 75 37 60 18 71 25 83 53 11 27
11 34 -1 49 -8 9 -21 14 -29 11 -9 -3 -14 2 -14 16 0 12 -6 21 -15 21 -8 0
-15 -4 -15 -9 0 -12 -36 -20 -60 -14 -11 3 -20 12 -20 20 0 10 -7 14 -20 10
-10 -3 -24 1 -30 8 -6 8 -18 11 -27 8 -12 -5 -14 -1 -8 17 5 16 4 20 -4 15 -7
-4 -23 0 -36 9 -29 19 -44 21 -27 4 17 -17 15 -33 -3 -18 -8 7 -15 19 -15 27
0 10 -6 13 -16 9 -9 -3 -22 -6 -30 -6 -9 0 -12 -4 -9 -10 3 -5 -2 -11 -12 -11
-10 -1 -25 -3 -33 -4 -8 -1 -25 -3 -37 -4 -13 0 -23 -7 -23 -15 0 -8 -6 -17
-12 -19 -7 -2 -1 -3 14 -1 32 4 58 -4 58 -18 0 -5 -10 -6 -23 -3 -17 5 -19 4
-7 -4 12 -9 11 -11 -8 -11 -13 0 -33 9 -44 20 -13 12 -24 16 -28 10 -3 -5 -14
0 -24 11 -9 12 -20 18 -23 15 -3 -3 2 -12 11 -21 9 -9 16 -20 16 -24 0 -5 10
-6 23 -4 17 3 28 -2 41 -22 9 -14 15 -32 13 -38 -2 -7 3 -21 12 -31 15 -18 15
-19 -6 -14 -19 5 -20 4 -10 -13 6 -10 26 -26 44 -36 18 -10 35 -24 38 -33 3
-8 19 -30 35 -49 17 -18 30 -37 30 -42 0 -4 7 -14 15 -23 14 -13 13 -16 -4
-26 -16 -8 -21 -6 -26 10 -3 11 -10 20 -15 20 -5 0 -18 10 -29 21 -13 14 -27
20 -41 16 -13 -3 -24 1 -30 14 -8 14 -22 19 -53 19 -28 0 -37 -3 -28 -9 11 -7
9 -11 -8 -20 -27 -15 -44 -5 -38 20 3 11 3 19 0 19 -9 0 -42 -45 -43 -59 0 -7
-6 -11 -15 -7 -8 3 -21 -1 -29 -9 -7 -8 -16 -12 -19 -9 -2 3 -17 -7 -33 -21
-21 -19 -29 -22 -36 -13 -6 10 -8 10 -8 1 0 -9 -12 -11 -42 -7 -63 9 -126 9
-134 1 -4 -3 -1 -13 6 -22 10 -12 10 -15 -4 -15 -9 0 -16 5 -16 10 0 6 -7 10
-15 10 -8 0 -15 6 -15 13 0 9 -12 13 -35 13 -38 -1 -49 -16 -12 -17 21 0 21
-1 2 -9 -13 -5 -26 -3 -36 7 -15 13 -19 12 -33 -9 -14 -20 -19 -21 -45 -11
-17 6 -31 7 -33 2 -2 -4 -21 -4 -42 1 -27 6 -46 5 -60 -3 -12 -6 -31 -10 -43
-8 -13 1 -23 -2 -23 -8 0 -6 5 -11 12 -11 6 0 9 -3 5 -6 -3 -4 -21 -1 -38 5
-25 9 -35 8 -42 -1 -5 -9 -10 -9 -13 -2 -5 12 -60 10 -77 -4 -20 -16 -74 -24
-82 -13 -4 7 3 11 17 11 21 1 21 2 5 11 -14 8 -23 7 -35 -3 -28 -22 -61 -38
-77 -38 -9 0 -13 -5 -10 -10 9 -15 -18 -12 -40 4 -18 13 -16 15 30 21 28 4 60
16 72 27 12 11 32 19 45 19 89 -5 150 -1 253 18 33 6 89 13 125 17 36 3 69 10
74 15 6 5 35 9 65 9 31 0 74 5 96 11 22 6 67 15 100 20 76 11 157 33 150 41
-4 3 0 6 7 5 55 -2 75 4 86 28 10 22 18 25 69 25 39 1 53 4 43 9 -18 11 -89 9
-109 -3 -9 -6 -12 -5 -9 5 3 8 31 18 71 25 66 11 99 24 60 24 -31 0 -37 29
-12 57 13 12 18 23 12 23 -6 0 -18 3 -26 6 -10 3 -18 -2 -22 -15 -8 -27 -18
-27 -30 1 -6 12 -17 23 -25 25 -10 3 -8 -1 4 -11 11 -9 16 -16 10 -16 -5 -1 2
-10 15 -20 23 -20 23 -20 2 -20 -12 0 -21 4 -21 9 0 5 -10 11 -22 14 -12 4
-19 9 -15 13 8 9 -12 36 -22 29 -4 -2 -22 -7 -40 -10 -18 -3 -39 -12 -46 -19
-8 -7 -25 -11 -38 -9 -14 3 -39 -3 -56 -12 -24 -12 -36 -13 -45 -6 -15 12 -92
18 -103 8 -3 -4 5 -7 20 -7 14 0 28 -4 31 -9 3 -5 15 -7 26 -4 14 4 20 0 20
-10 0 -8 6 -17 13 -20 6 -2 9 -8 5 -12 -4 -4 -21 -2 -37 5 -17 7 -37 10 -46 6
-8 -3 -15 -1 -15 4 0 6 5 10 12 10 6 0 8 3 5 6 -4 4 -12 2 -19 -3 -7 -6 -35
-11 -63 -12 -27 -1 -57 -2 -65 -3 -62 -5 -99 16 -42 25 15 2 3 2 -27 0 -53 -5
-101 -31 -73 -41 18 -6 15 -22 -5 -22 -9 0 -13 3 -10 7 4 3 2 12 -4 20 -9 10
-8 13 0 13 7 0 9 5 6 10 -4 6 -11 7 -18 3 -17 -10 -71 -11 -78 -1 -7 10 -141
14 -184 5 -16 -3 -45 -9 -62 -13 -18 -3 -33 -10 -33 -15 0 -14 -26 -10 -40 6
-7 8 -28 15 -47 15 -19 0 -32 4 -29 9 3 4 31 4 63 -1 60 -9 108 -4 98 11 -3 5
34 12 81 16 54 5 81 11 73 16 -11 7 -10 9 4 9 9 0 17 5 17 10 0 14 26 13 50
-2 16 -10 23 -10 37 5 16 16 16 17 -15 17 -20 0 -31 4 -27 10 8 14 42 12 89
-5 37 -13 39 -12 62 12 23 24 25 25 48 9 31 -20 74 -22 58 -4 -8 10 -1 14 29
15 47 3 83 4 107 4 94 -2 123 2 130 16 7 12 14 13 29 5 10 -6 25 -7 32 -3 9 6
6 10 -11 16 -43 13 -51 14 -137 4 -47 -6 -120 -12 -163 -14 -42 -1 -82 -6 -90
-11 -7 -4 -4 2 6 14 l19 22 -38 0 c-44 0 -42 6 5 20 27 8 33 6 37 -8 4 -18 13
-19 116 -14 63 3 33 18 -32 16 -41 -1 -64 3 -72 12 -9 11 -7 14 10 14 11 0 21
-6 21 -12 0 -10 2 -10 8 0 6 8 21 11 48 7 51 -8 56 -8 74 -3 8 3 12 3 7 1 -17
-10 7 -23 41 -22 20 0 31 3 25 6 -7 2 -13 9 -13 13 0 11 43 55 67 69 15 9 14
10 -9 9 -16 -1 -28 -8 -28 -16 0 -7 -10 -16 -22 -21 -19 -7 -25 -4 -36 15 -16
29 -25 30 -68 3 -20 -12 -39 -17 -46 -12 -9 5 -3 10 17 15 21 5 16 6 -15 2
-24 -3 -49 -8 -55 -13 -5 -4 -38 -7 -72 -6 -34 1 -60 -1 -58 -5 3 -4 -7 -10
-21 -13 -17 -3 -24 -1 -20 8 3 9 -2 11 -17 8 -22 -5 -22 -5 -2 10 11 9 15 17
8 17 -6 0 -14 -4 -18 -9 -3 -6 -14 -9 -24 -8 -18 1 -18 3 -3 34 9 19 23 33 33
33 10 0 20 4 24 9 3 5 21 7 40 4 20 -3 35 -1 35 4 0 6 -12 8 -26 5 -19 -3 -25
-1 -20 7 5 8 -9 11 -49 11 -30 0 -72 7 -92 15 -19 8 -41 15 -47 14 -6 0 6 -7
27 -16 20 -8 37 -19 37 -24 0 -12 -27 -11 -35 1 -3 6 -11 10 -17 10 -6 0 -5
-7 3 -17 13 -17 12 -17 -6 -2 -22 17 -65 23 -65 8 0 -5 4 -9 8 -9 4 0 8 -9 8
-20 0 -16 -3 -17 -16 -6 -8 7 -24 17 -35 21 -19 8 -19 9 3 13 24 4 25 26 1 28
-8 0 -22 4 -31 8 -16 7 -55 -12 -86 -41 -7 -7 -20 -13 -28 -13 -8 0 -14 -5
-14 -10 0 -6 15 -4 36 5 20 8 40 12 45 9 5 -2 18 0 29 6 16 9 22 8 26 -5 3 -8
12 -15 19 -15 7 0 18 -7 26 -16 12 -14 8 -15 -34 -11 -26 3 -45 2 -42 -2 2 -5
29 -11 59 -14 30 -3 65 -11 78 -18 12 -8 40 -14 61 -15 60 -3 87 -13 87 -31 0
-13 -3 -14 -12 -5 -18 18 -32 14 -17 -4 12 -15 10 -16 -18 -10 -18 4 -34 3
-38 -3 -3 -6 2 -11 12 -11 20 0 43 -18 43 -34 0 -5 -9 -1 -19 8 -11 10 -24 15
-30 12 -6 -4 -30 -2 -53 5 l-43 12 28 9 c40 14 28 33 -19 30 -29 -2 -47 3 -68
19 -18 14 -42 22 -67 22 -34 0 -39 2 -34 18 5 15 1 19 -19 19 -42 0 -53 9 -48
38 2 15 9 33 15 39 5 8 6 13 0 13 -16 0 -33 -23 -33 -46 0 -30 -78 -133 -123
-164 -20 -14 -37 -28 -37 -32 0 -5 -5 -8 -11 -8 -5 0 -8 4 -5 8 3 5 -10 15
-29 22 -19 7 -32 17 -29 22 3 4 -2 5 -10 2 -9 -4 -16 -1 -16 6 0 9 -11 11 -35
7 -54 -9 -32 9 27 23 56 13 106 36 56 26 -22 -5 -26 -3 -22 9 4 9 1 15 -7 15
-11 0 -11 3 1 10 25 16 -30 11 -65 -6 l-30 -14 35 5 35 4 -28 -15 c-17 -9 -39
-13 -56 -9 -16 3 -47 -1 -72 -9 -51 -18 -70 -20 -49 -5 12 8 11 9 -5 7 -12 -2
-19 -10 -17 -21 2 -12 -4 -17 -20 -17 -19 0 -20 2 -8 10 13 9 13 10 0 11 -8 1
-26 3 -40 5 -96 11 -151 13 -146 5 3 -5 -9 -8 -27 -7 -21 1 -36 -4 -45 -16
-13 -18 -58 -26 -47 -8 6 10 -4 12 -52 13 -31 1 -29 15 2 23 17 4 32 1 44 -10
20 -18 51 -12 51 9 0 8 -8 11 -20 8 -11 -3 -20 -1 -20 5 0 5 -10 13 -22 17
-19 7 -16 9 22 15 38 6 40 7 13 8 -31 2 -32 3 -21 27 6 14 15 25 19 25 5 0 6
7 3 15 -5 11 -9 12 -25 2 -11 -7 -21 -19 -24 -28 -6 -19 -102 -119 -114 -119
-5 0 -8 -8 -7 -17 0 -10 -11 -23 -27 -31 -18 -9 -26 -19 -23 -28 3 -9 -4 -19
-18 -26 -19 -8 -29 -7 -47 6 -13 9 -36 16 -51 16 -15 0 -30 5 -33 10 -3 6 -18
11 -33 11 -23 1 -22 3 8 9 35 6 35 7 10 17 -28 12 -150 8 -255 -8 -38 -5 -87
-12 -107 -16 -23 -3 -38 -1 -38 5 0 6 10 8 22 4 14 -3 19 -2 14 6 -4 8 0 12
11 13 10 0 54 5 98 11 44 5 108 10 143 11 67 2 77 10 36 29 -21 10 -27 9 -35
-3 -5 -9 -9 -10 -9 -2 0 9 -8 9 -32 1 -18 -6 -35 -15 -38 -19 -3 -4 -21 -4
-40 1 -31 7 -32 8 -8 9 15 1 29 5 33 10 3 6 -18 8 -52 5 l-58 -4 53 15 c38 10
59 12 72 5 24 -13 40 -13 20 0 -25 15 -7 19 45 9 86 -17 99 -17 150 -5 53 14
47 27 -14 31 -20 2 -49 5 -66 9 -16 3 -22 3 -12 0 29 -9 19 -25 -10 -17 -16 4
-36 7 -45 7 -10 0 -18 4 -18 8 0 11 -48 10 -52 -1 -1 -5 -23 -6 -48 -2 -42 7
-59 7 -148 3 -19 -1 -31 -6 -27 -12 3 -5 1 -10 -5 -10 -7 0 -10 6 -7 14 7 17
-19 30 -29 15 -3 -5 0 -16 6 -24 10 -12 9 -15 -4 -15 -9 0 -16 4 -16 9 0 11
-122 33 -141 26 -8 -3 -19 3 -26 14 -11 18 -8 19 50 20 33 0 64 -3 67 -8 8
-14 50 -24 50 -12 0 19 -54 39 -114 42 -50 3 -60 1 -70 -16 -6 -11 -12 -22
-13 -24 -2 -2 -11 3 -20 11 -24 20 -151 44 -164 31 -12 -12 -99 -5 -114 8 -9
9 158 6 245 -5 35 -4 39 -4 20 4 -19 7 -4 9 55 7 77 -2 79 -1 62 16 -10 10
-25 16 -33 13 -8 -3 -14 1 -14 9 0 8 -4 15 -10 15 -5 0 -10 -7 -10 -15 0 -18
-16 -19 -35 -2 -33 29 -41 33 -53 29 -7 -2 -10 2 -7 10 3 7 -7 21 -22 30 -34
21 -19 23 33 4 22 -7 45 -11 52 -8 11 3 12 0 4 -14 -9 -17 -6 -19 21 -20 17
-1 33 -6 35 -13 2 -6 25 -12 50 -12 30 -1 37 -4 20 -6 -40 -6 -34 -21 10 -25
46 -4 182 8 190 17 4 3 0 10 -7 15 -11 6 -10 9 5 13 10 2 -16 5 -58 6 -46 1
-78 -3 -78 -9 0 -5 9 -10 19 -10 11 0 22 -4 25 -8 2 -4 -11 -6 -30 -4 -25 3
-34 8 -30 18 4 9 -2 14 -17 15 -12 0 -31 5 -42 10 -13 6 18 8 93 6 61 -1 112
0 112 2 0 2 -8 10 -18 17 -16 12 -16 13 2 20 10 4 27 2 37 -4 10 -7 24 -12 31
-12 9 0 8 3 -2 10 -12 8 -11 10 6 10 11 0 24 -3 27 -7 9 -9 -23 -43 -40 -43
-10 0 -12 -6 -8 -20 4 -11 2 -20 -4 -20 -6 0 -10 -6 -8 -12 1 -7 -4 -12 -10
-11 -7 2 -13 -1 -13 -7 0 -5 -23 -7 -52 -5 -36 3 -28 0 25 -9 43 -7 91 -10
107 -8 29 4 47 27 30 37 -15 10 -12 25 4 19 8 -3 24 0 36 6 16 8 30 8 56 0 26
-9 39 -9 47 -1 8 8 2 11 -22 11 -18 0 -30 4 -27 9 3 5 -4 11 -16 15 -14 3 -26
0 -31 -9 -6 -11 -24 -15 -65 -14 -57 1 -57 1 -19 11 20 6 37 16 37 24 0 8 10
14 24 14 14 0 28 5 31 10 3 6 -4 10 -17 10 -17 0 -19 3 -9 9 11 7 10 11 -5 20
-11 6 -15 11 -10 11 5 0 3 6 -4 14 -6 8 -19 12 -27 9 -11 -4 -14 -2 -9 5 12
20 31 14 59 -18 18 -20 32 -27 43 -23 10 4 22 0 28 -9 6 -8 25 -20 41 -26 l30
-10 -35 -2 c-28 -1 -31 -3 -15 -9 11 -5 32 -5 47 0 16 4 30 3 33 -2 4 -5 48
-9 98 -9 71 1 88 3 74 11 -11 6 -32 8 -48 5 -21 -4 -28 -2 -23 5 4 7 25 9 58
5 28 -4 62 -8 76 -9 14 -2 24 -7 23 -12 -1 -6 12 -10 28 -11 17 -1 26 3 22 9
-4 7 1 8 12 3 11 -4 21 -2 26 5 4 6 12 8 19 4 9 -6 9 -10 -1 -17 -10 -6 -7 -8
11 -7 14 1 34 1 45 0 17 -1 18 -3 5 -11 -13 -8 -12 -10 3 -10 15 0 17 -5 13
-28 -8 -36 36 -87 68 -78 11 3 36 6 54 6 17 0 32 5 32 10 0 6 -7 10 -16 10
-10 0 -14 5 -10 16 3 9 2 12 -5 9 -15 -10 -61 4 -54 15 3 6 -1 10 -9 10 -14 0
-14 3 1 20 10 11 28 20 41 20 21 0 22 2 12 15 -10 13 -9 15 11 15 12 0 38 5
56 12 25 9 36 9 45 0 9 -9 6 -14 -13 -21 -37 -15 0 -13 82 4 40 9 81 23 90 31
14 12 22 13 39 4 13 -7 26 -8 33 -2 18 14 77 23 77 11 0 -5 12 -8 28 -5 15 2
36 5 47 5 18 2 19 2 2 12 -9 5 -21 8 -26 4 -5 -3 -12 4 -16 15 -3 11 -11 20
-16 20 -13 0 -11 -14 3 -28 7 -7 8 -12 4 -12 -5 0 -14 7 -21 17 -10 13 -17 14
-45 5 -18 -7 -37 -12 -42 -12 -14 0 19 30 34 31 7 0 4 4 -7 9 -18 8 -18 9 5
10 21 0 22 2 8 10 -11 7 -25 6 -43 -2 -32 -15 -56 2 -36 26 11 13 7 14 -26 10
-25 -4 -34 -3 -25 4 11 7 8 11 -10 15 -12 4 -30 7 -38 7 -13 0 -13 -1 0 -10
11 -7 6 -9 -19 -6 -22 2 -37 10 -41 21 -6 16 -10 13 -34 -18 -31 -40 -117 -88
-124 -69 -2 7 -13 12 -23 12 -11 0 -17 5 -14 10 4 6 -8 16 -26 24 -21 9 -27
15 -18 19 8 3 2 6 -13 6 -16 1 -28 -4 -28 -10 0 -14 -173 -2 -230 16 -39 12
-73 16 -152 15 -125 -1 -171 -16 -69 -22 34 -1 61 1 61 6 0 4 10 5 23 1 12 -4
44 -6 70 -6 51 2 87 -5 87 -18 0 -5 -13 -8 -29 -7 -16 1 -27 4 -24 8 6 11 -2
10 -31 -3 -14 -7 -23 -16 -20 -20 3 -5 -2 -9 -11 -9 -9 0 -14 -4 -10 -9 3 -5
0 -13 -6 -16 -12 -8 -15 -6 -23 22 -6 17 -2 22 16 26 13 2 -10 5 -51 6 -79 1
-88 -8 -18 -20 42 -6 42 -7 -15 -8 -32 0 -58 -6 -60 -12 -3 -8 -13 -7 -33 3
-41 21 -92 31 -99 20 -9 -15 -46 -2 -46 15 0 11 -5 13 -17 8 -10 -4 -67 -10
-126 -13 -60 -2 -104 -8 -97 -12 14 -8 -94 -32 -114 -24 -8 3 -16 -3 -19 -15
-6 -24 -54 -30 -63 -8 -2 7 -13 13 -23 14 -36 3 -102 24 -97 31 3 4 -23 8 -57
9 -48 1 -56 -1 -37 -8 17 -6 4 -7 -42 -4 l-68 6 0 -76 c0 -75 9 -92 37 -64 13
13 89 -16 97 -37 3 -8 16 -13 28 -13 17 1 19 2 5 6 -9 2 -15 8 -12 13 3 5 13
6 22 3 11 -5 14 -3 8 6 -6 10 -3 11 13 2 13 -7 19 -17 16 -26 -8 -20 -68 -20
-88 0 -8 8 -24 15 -34 15 -11 0 -22 4 -24 9 -2 5 -18 6 -35 4 -32 -5 -33 -7
-33 -53 0 -38 4 -50 18 -53 16 -4 16 -5 0 -6 -10 0 -18 -7 -18 -15 0 -25 26
-37 69 -30 28 4 41 3 41 -5 0 -7 -21 -11 -55 -11 -48 0 -55 -3 -55 -19 0 -11
8 -22 18 -24 16 -4 16 -5 0 -6 -28 -2 -25 -72 3 -90 17 -10 19 -15 8 -21 -8
-6 -16 -4 -21 3 -4 7 -8 -5 -8 -26 0 -31 4 -40 20 -44 26 -7 26 -23 0 -23 -16
0 -20 -7 -20 -36 0 -19 4 -33 9 -29 5 3 12 1 16 -5 3 -5 -1 -10 -10 -10 -13 0
-15 -13 -13 -86 l3 -87 29 -3 c42 -4 45 -14 3 -14 -39 0 -44 -8 -27 -41 7 -12
7 -19 1 -19 -7 0 -10 -121 -11 -335 l0 -335 142 0 c104 0 139 3 128 11 -11 8
-9 9 10 3 14 -4 378 -9 810 -11 733 -2 783 -1 753 14 -18 9 -33 20 -33 25 0 4
-8 8 -17 8 -16 0 -16 -2 -3 -11 11 -8 9 -9 -10 -3 -14 4 -40 7 -59 7 -31 0
-32 2 -15 14 10 7 27 11 38 8 21 -6 21 -6 2 9 -23 18 -36 20 -36 6 0 -5 -19
-10 -43 -10 -24 0 -49 -6 -56 -12 -10 -11 -12 -10 -9 2 2 11 -9 17 -42 22 -32
4 -21 6 40 5 74 -2 85 0 82 14 -2 15 2 15 33 5 19 -7 38 -15 42 -19 3 -4 20
-6 37 -4 17 3 23 2 14 0 -10 -2 -18 -7 -18 -11 1 -12 88 -52 112 -52 23 1 23
1 3 17 l-20 15 20 -5 c11 -3 52 -15 90 -26 67 -20 96 -21 639 -20 313 0 566 2
563 6 -3 3 -21 9 -39 13 -30 7 -28 8 20 9 29 1 63 6 74 12 16 9 23 8 29 -2 15
-24 10 -32 -17 -26 -17 3 -22 1 -16 -5 6 -6 51 -8 104 -6 73 2 98 7 112 21 10
9 26 17 36 17 10 0 22 5 25 10 3 6 17 10 30 10 14 0 29 9 35 21 7 13 17 18 27
15 9 -4 25 3 37 14 47 46 91 80 104 80 18 0 38 21 46 47 4 12 18 28 31 37 14
9 25 23 25 31 0 8 5 15 10 15 6 0 10 -4 10 -8 0 -13 57 -42 84 -42 14 0 26 -5
26 -11 0 -6 -6 -9 -12 -7 -14 5 -50 -27 -41 -36 3 -3 -14 -14 -38 -25 l-44
-19 40 5 c22 3 45 12 52 20 6 8 17 12 23 8 19 -12 -30 -45 -67 -45 -41 0 -93
-34 -67 -44 8 -3 12 -2 9 4 -10 16 11 12 25 -5 7 -8 17 -15 22 -15 14 0 41
-30 34 -38 -4 -3 -10 -2 -14 4 -7 11 -53 39 -62 37 -3 0 -18 -3 -33 -7 -19 -4
-26 -3 -22 4 9 14 -6 12 -27 -4 -10 -7 -14 -17 -10 -21 4 -4 -8 -5 -26 -2 -23
5 -31 3 -26 -5 5 -8 -4 -9 -32 -4 -24 4 -34 3 -26 -2 11 -7 7 -11 -12 -16 -40
-10 -31 -25 12 -20 20 2 31 2 24 -2 -33 -16 -1 -22 118 -23 72 -1 130 2 129 6
-4 22 3 24 26 9 21 -14 55 -16 222 -16 108 1 192 5 185 9 -15 9 12 51 34 51 8
0 14 4 14 9 0 5 9 11 20 14 24 6 27 -15 4 -37 -8 -9 -11 -16 -5 -16 6 0 11 -5
11 -11 0 -6 -7 -9 -15 -6 -8 4 -17 2 -20 -3 -4 -6 266 -10 735 -10 l741 0 -6
23 c-4 12 -15 50 -26 84 -10 34 -19 64 -19 66 0 6 60 31 63 26 2 -2 11 -29 21
-59 10 -30 24 -69 32 -87 8 -17 14 -36 14 -42 0 -17 1297 -15 1304 2 3 9 5 9
5 0 1 -15 51 -18 51 -3 0 6 -7 10 -15 10 -9 0 -12 6 -9 18 4 11 3 13 -3 5 -7
-9 -18 -10 -46 -2 -38 10 -50 22 -19 18 42 -4 83 2 77 11 -4 6 1 7 11 3 10 -4
13 -8 7 -10 -7 -3 -9 -11 -6 -19 3 -10 12 -12 26 -8 20 6 20 6 4 -10 -9 -10
-17 -20 -17 -22 0 -3 51 -4 114 -3 114 2 114 2 119 28 3 14 0 30 -6 34 -8 6
-5 7 7 3 13 -5 17 -2 13 8 -4 11 -1 13 11 10 15 -5 15 -4 -1 9 -17 14 -17 16
5 32 l23 17 -22 -5 c-27 -6 -29 1 -5 20 16 13 15 14 -5 10 -14 -3 -20 -1 -17
8 6 14 -64 70 -74 60 -4 -4 -1 -10 6 -12 26 -10 10 -23 -25 -22 -33 0 -35 1
-15 9 32 13 27 27 -9 28 -17 0 -34 4 -38 8 -3 4 6 5 21 2 35 -6 59 7 29 17
-19 6 -20 9 -9 23 11 14 8 14 -16 -2 -16 -10 -26 -14 -22 -8 3 5 -3 17 -14 27
-16 14 -17 20 -8 27 18 11 40 10 33 -2 -3 -6 5 -14 19 -20 14 -5 26 -14 26
-20 0 -5 10 -10 23 -11 12 0 16 -3 10 -6 -21 -8 -15 -25 6 -18 11 3 25 -1 34
-9 8 -8 18 -12 22 -8 5 4 5 -1 2 -11 -5 -14 -2 -20 12 -24 11 -3 22 -11 25
-19 3 -8 12 -14 20 -14 10 0 13 6 9 16 -3 9 0 20 8 25 8 4 14 14 14 20 0 7 6
14 14 17 10 3 12 0 8 -11 -3 -9 -1 -18 6 -21 7 -2 1 -8 -13 -12 l-25 -8 30 -7
c29 -6 29 -7 4 -8 -25 -1 -64 -31 -41 -31 18 0 34 -37 20 -46 -7 -4 -8 -3 -4
4 4 7 2 12 -3 12 -6 0 -11 -4 -11 -10 0 -5 -7 -7 -15 -4 -8 4 -15 1 -15 -5 0
-6 8 -11 18 -11 10 0 13 -3 6 -8 -13 -9 -27 -45 -15 -38 12 8 34 -21 26 -34
-8 -13 8 -13 22 1 8 8 13 8 17 0 4 -6 12 -11 18 -11 6 0 -6 16 -28 35 -29 26
-32 33 -14 24 14 -7 38 -23 53 -35 34 -28 84 -31 103 -7 13 17 15 17 28 1 10
-13 28 -18 70 -18 31 0 56 4 56 9 0 10 20 18 60 26 14 3 20 0 17 -8 -2 -7 -15
-11 -29 -9 -15 2 -29 -1 -32 -7 -5 -7 69 -10 219 -10 124 1 227 4 230 9 2 4
-17 5 -43 3 l-47 -4 25 20 c28 23 56 27 63 9 4 -9 8 -10 14 -3 4 6 21 12 37
13 28 2 29 1 10 -13 -10 -8 -14 -15 -7 -15 29 0 38 47 11 56 -28 8 -15 16 15
9 28 -7 40 -42 25 -70 -9 -15 4 -16 155 -14 130 2 164 6 160 16 -6 15 -19 17
-28 3 -3 -6 -11 -10 -18 -10 -25 0 14 24 41 25 15 0 26 6 24 13 -3 15 14 16
23 2 5 -8 11 -7 20 0 8 7 22 10 32 8 12 -3 6 -8 -19 -17 -21 -7 -38 -19 -38
-27 0 -13 125 -14 938 -13 613 1 941 5 950 11 8 7 12 7 12 -1 0 -13 123 -11
136 2 4 4 12 7 18 7 6 0 4 -5 -4 -10 -10 -6 104 -9 317 -10 195 0 334 4 338 9
3 6 -9 7 -29 4 -32 -5 -34 -4 -29 16 7 27 27 26 87 -4 40 -20 64 -25 128 -25
l78 0 0 28 c0 20 -7 32 -22 40 l-23 11 23 0 c18 1 22 7 22 36 0 30 -4 36 -32
45 l-33 10 33 -3 32 -4 0 53 c0 32 -5 54 -12 57 -10 4 -10 6 0 6 8 1 12 25 12
85 0 85 0 85 -27 89 l-28 4 28 2 c22 1 27 6 27 26 0 16 -6 25 -15 25 -19 0
-20 29 -1 36 10 4 14 39 15 152 l2 147 -43 3 c-24 1 -57 6 -73 11 -20 6 -7 7
43 3 l72 -5 0 1486 c0 974 -3 1488 -10 1492 -5 3 -15 16 -21 27 -10 19 -9 20
10 15 11 -3 21 -1 21 3 0 5 -8 11 -17 13 -17 4 -17 5 0 6 22 1 22 38 0 44 -17
4 -17 5 0 6 16 1 17 72 17 1346 l0 1345 -5910 0 -5910 0 0 -1910z m5590 -995
c0 -3 -10 -10 -22 -15 -18 -8 -12 -9 22 -4 44 5 44 5 20 -10 -14 -9 -38 -22
-54 -30 -28 -13 -28 -14 -8 -20 12 -4 26 -5 32 -1 5 3 7 0 4 -8 -3 -8 -15 -18
-27 -21 -21 -6 -21 -7 -4 -20 12 -10 15 -16 7 -21 -8 -5 -6 -11 6 -20 17 -12
15 -15 -16 -44 -19 -17 -31 -31 -27 -31 16 0 52 23 65 42 14 20 52 25 52 6 0
-6 -14 -23 -30 -38 l-31 -27 41 2 c22 1 44 6 48 10 4 5 -1 5 -10 2 -10 -4 -18
-3 -18 2 0 5 9 11 19 14 30 7 19 -20 -20 -51 -19 -16 -72 -54 -119 -85 -47
-31 -98 -68 -113 -83 -16 -14 -31 -23 -35 -19 -3 3 -8 79 -10 168 l-4 163 26
31 c14 17 26 36 26 43 0 7 8 10 20 7 13 -3 20 0 20 10 0 9 6 13 15 9 23 -8 75
5 75 19 0 13 15 23 38 24 6 1 12 -1 12 -4z m99 -388 c-48 -39 -163 -127 -221
-168 -32 -22 -58 -44 -58 -49 0 -9 112 64 175 114 22 18 56 42 75 55 l35 22
-34 -28 c-19 -15 -54 -44 -77 -64 -24 -20 -70 -56 -103 -79 -34 -24 -61 -47
-61 -52 0 -10 66 33 155 103 33 25 74 54 90 64 l30 17 -26 -20 c-14 -12 -57
-47 -95 -79 -38 -32 -86 -69 -107 -82 -20 -12 -37 -27 -37 -32 0 -9 56 27 165
107 l50 37 -55 -51 c-30 -28 -76 -66 -102 -84 -27 -18 -48 -37 -48 -41 0 -12
50 20 125 80 36 29 76 58 88 64 28 14 15 0 -34 -38 -20 -15 -68 -54 -107 -85
-39 -32 -72 -58 -74 -58 -2 0 -4 12 -5 26 0 15 -5 29 -11 33 -5 3 -12 24 -15
47 -8 48 -4 53 123 137 47 31 105 72 130 91 50 39 69 47 29 13z m956 -1766 c3
-5 0 -13 -6 -17 -8 -4 -9 -3 -5 4 4 7 1 12 -9 12 -9 0 -15 -6 -13 -12 6 -18
147 -58 181 -52 15 3 27 1 27 -4 0 -5 8 -9 18 -9 36 2 122 -14 117 -22 -6 -11
63 -28 95 -22 23 3 22 5 -15 22 -36 17 -37 19 -10 14 17 -2 84 -16 150 -31
132 -29 245 -44 245 -32 0 4 16 -2 35 -13 19 -12 40 -19 47 -16 7 2 20 -2 30
-10 11 -10 42 -15 97 -15 71 -1 81 -4 82 -20 1 -10 2 -23 3 -30 0 -6 17 -16
35 -23 39 -13 34 -19 -24 -30 -33 -6 -37 -9 -20 -15 11 -5 14 -9 7 -9 -8 -1
-25 8 -39 19 -14 11 -33 20 -42 19 -10 0 -12 -2 -3 -6 23 -9 12 -21 -19 -19
-19 0 -34 -5 -37 -12 -3 -9 3 -13 18 -10 13 2 25 -2 27 -9 5 -13 -100 -7 -127
8 -10 5 -5 7 15 5 17 -2 36 -1 42 1 21 8 4 23 -26 23 -15 0 -36 7 -47 15 -10
8 -28 14 -39 15 -17 0 -18 -2 -5 -11 12 -8 9 -9 -11 -5 -19 4 -29 1 -33 -9 -4
-10 2 -15 17 -17 12 0 27 -2 32 -3 6 -2 16 -3 23 -4 7 0 10 -6 7 -11 -8 -14
16 -22 69 -24 24 0 48 -6 54 -12 11 -12 -34 -11 -92 2 -27 6 -29 5 -24 -20 3
-16 1 -26 -7 -26 -6 0 -12 -6 -12 -13 0 -8 11 -11 34 -9 38 5 38 5 19 25 -12
12 -6 14 50 14 36 0 67 -3 69 -8 3 -4 14 -5 25 -2 14 4 20 0 20 -10 0 -9 8
-16 18 -16 9 1 28 -2 42 -5 14 -3 -5 9 -42 27 -38 17 -68 34 -68 37 0 3 11 6
25 6 14 1 25 -1 25 -5 0 -4 19 -5 41 -3 26 3 44 0 49 -8 4 -7 21 -13 37 -14
17 -1 27 -6 26 -13 -2 -7 1 -13 6 -13 5 0 18 -3 28 -7 16 -6 16 -5 4 10 -13
16 -12 17 13 7 15 -5 32 -7 38 -4 6 4 16 0 22 -8 6 -8 25 -18 41 -21 17 -4 41
-10 55 -13 22 -7 23 -6 12 8 -7 9 -31 19 -53 23 -44 8 -53 20 -14 20 14 0 25
-3 25 -7 0 -4 7 -5 14 -2 15 6 29 -3 67 -41 16 -16 22 -17 28 -6 6 9 16 11 32
5 23 -7 84 -13 163 -15 27 -1 35 -4 25 -11 -9 -6 -3 -7 19 -3 24 5 34 3 38 -9
5 -12 21 -16 75 -16 38 0 69 -4 69 -8 0 -5 -30 -8 -67 -6 -44 2 -62 -1 -53 -7
8 -5 24 -9 34 -9 10 0 24 -7 30 -16 8 -10 18 -13 31 -8 18 7 18 8 -1 15 -18 7
-17 8 3 8 12 1 25 -4 28 -10 4 -6 13 -8 21 -5 8 3 14 1 14 -5 0 -6 9 -8 19 -4
11 3 22 1 26 -5 3 -5 -2 -10 -12 -11 -35 -2 43 -19 92 -20 28 -1 56 -7 64 -13
12 -9 13 -8 9 5 -5 13 -2 16 13 12 10 -3 25 -1 32 5 8 7 16 6 25 -4 11 -12 8
-14 -18 -14 -16 0 -30 -4 -30 -8 0 -5 14 -6 31 -4 24 3 30 1 24 -8 -6 -9 -3
-9 13 -1 12 6 23 7 26 2 3 -4 17 -6 31 -3 15 2 25 0 25 -7 0 -6 9 -11 20 -11
11 0 20 5 20 11 0 8 4 8 14 0 7 -6 21 -9 29 -5 9 3 23 0 30 -8 11 -11 1 -13
-65 -15 -68 -1 -95 6 -70 20 4 2 0 2 -8 -1 -8 -2 -21 -4 -27 -4 -7 1 -34 2
-60 2 -27 1 -54 7 -62 13 -12 9 -13 9 -7 0 4 -7 3 -13 -3 -13 -5 0 -11 5 -13
10 -2 6 -14 12 -28 12 -14 1 -28 6 -31 11 -4 5 -15 4 -27 -2 -14 -7 -21 -8
-24 0 -4 13 -76 30 -80 18 -2 -5 -22 -10 -46 -11 -31 -1 -41 -5 -38 -14 7 -19
-13 -29 -27 -14 -9 10 -9 14 1 17 22 8 12 21 -23 27 -19 4 -35 13 -35 20 0 7
-12 18 -27 25 -28 13 -28 13 -9 -8 16 -18 17 -21 3 -21 -9 0 -19 5 -23 11 -3
6 -16 8 -27 5 -25 -6 -69 3 -62 13 2 4 -9 5 -26 3 -17 -3 -29 0 -29 7 0 6 -4
11 -10 11 -15 0 -12 -30 3 -31 6 -1 19 -3 27 -4 8 0 28 -7 43 -13 16 -7 33
-10 37 -7 5 3 27 -4 49 -16 22 -11 46 -17 52 -13 8 4 9 3 5 -4 -4 -7 -1 -12 8
-12 15 0 32 -18 24 -26 -3 -2 -28 3 -56 11 -28 9 -54 15 -59 14 -20 -3 -34 2
-28 11 9 14 -56 29 -78 18 -12 -6 -29 -6 -47 1 -17 5 -32 6 -35 1 -3 -5 4 -11
14 -15 11 -3 23 -14 26 -24 3 -11 13 -18 23 -16 9 1 11 0 5 -2 -22 -8 -14 -23
11 -23 14 0 27 -4 30 -9 11 -17 -50 3 -78 26 -25 21 -36 24 -74 18 -33 -5 -42
-3 -37 5 5 9 1 10 -12 6 -11 -4 -31 -2 -44 4 -18 8 -5 9 54 5 49 -3 76 -1 72
5 -3 6 -16 10 -28 10 -12 0 -42 7 -67 16 -25 9 -52 18 -60 21 -13 4 -12 6 3
14 9 6 21 8 26 4 5 -3 12 -1 16 5 3 5 11 10 16 10 6 0 8 -4 5 -9 -4 -5 4 -6
16 -3 20 6 18 8 -14 16 -21 5 -38 13 -38 18 0 4 -4 8 -10 8 -5 0 -10 -8 -10
-19 0 -13 -9 -20 -30 -23 -20 -3 -30 0 -30 9 0 7 -5 13 -11 13 -5 0 -7 -5 -4
-10 4 -6 -4 -19 -16 -29 l-23 -18 35 5 c19 2 30 1 26 -4 -5 -5 -13 -10 -18
-10 -5 -1 -13 -2 -19 -3 -5 0 -10 -8 -10 -16 0 -12 -7 -14 -27 -9 -37 9 -39
12 -23 27 10 9 11 9 6 0 -5 -9 0 -13 16 -12 13 0 17 3 10 6 -6 2 -10 9 -6 14
9 15 -23 10 -36 -6 -7 -8 -18 -15 -24 -15 -6 0 -5 4 3 9 24 15 -8 25 -89 27
-44 1 -76 6 -78 13 -2 6 -8 9 -13 5 -17 -10 2 -24 32 -24 18 0 28 -4 24 -10
-4 -7 3 -9 22 -5 18 5 24 3 15 -3 -9 -6 5 -13 49 -22 49 -11 58 -15 43 -22
-15 -6 -13 -7 7 -3 31 6 117 -9 129 -21 5 -5 -7 -10 -28 -11 -27 -1 -32 0 -17
6 17 7 15 9 -13 13 -25 4 -32 1 -28 -9 4 -9 1 -11 -5 -7 -7 4 -19 8 -28 9 -46
6 -82 18 -71 25 7 4 -2 9 -22 12 -30 3 -34 1 -30 -17 2 -14 12 -21 30 -23 14
-1 31 -7 37 -13 7 -9 3 -10 -15 -5 -14 3 -43 6 -65 7 -23 1 -31 4 -17 6 26 5
26 6 7 43 -15 30 -30 41 -23 18 6 -18 -15 -36 -45 -40 -15 -2 -29 -7 -32 -10
-3 -3 -15 -4 -25 -1 -28 7 -13 25 18 22 33 -3 72 9 72 22 0 5 -10 9 -22 8 -13
0 -45 4 -71 9 -48 9 -73 -1 -46 -19 8 -5 12 -9 9 -10 -3 0 -14 -2 -25 -3 -11
-2 -24 -4 -30 -6 -20 -5 -36 0 -30 10 3 6 17 10 31 10 22 0 28 8 22 27 -2 5
-9 7 -15 5 -7 -2 -13 2 -13 8 0 5 -4 10 -10 10 -5 0 -6 -8 -3 -17 5 -12 2 -15
-10 -10 -11 4 -14 2 -10 -9 3 -7 1 -14 -5 -14 -6 0 -9 11 -7 25 3 29 -12 42
-28 26 -9 -9 -9 -14 0 -19 7 -4 9 -13 4 -20 -5 -9 -12 -9 -27 3 -10 8 -14 15
-7 15 16 0 6 27 -13 34 -11 4 -14 1 -9 -13 3 -10 -1 -23 -9 -30 -13 -11 -15
-8 -13 15 1 15 -4 29 -12 32 -10 3 -12 -1 -8 -17 3 -11 2 -23 -3 -26 -8 -5
-64 10 -92 26 -21 11 -25 -6 -5 -24 22 -21 57 -38 57 -28 0 5 -9 13 -21 16
-42 14 -12 13 40 -1 44 -11 57 -11 63 -1 6 9 10 9 17 -3 5 -8 7 -18 5 -22 -3
-4 7 -8 23 -8 15 0 35 -5 43 -10 12 -8 10 -10 -10 -11 -23 0 -23 -1 -5 -8 11
-5 25 -5 30 -1 14 11 46 7 72 -8 12 -6 23 -8 25 -4 4 10 88 -6 88 -18 0 -4
-10 -6 -22 -3 -19 5 -21 3 -11 -7 10 -11 95 -16 121 -7 4 1 8 -2 9 -8 2 -6
-21 -10 -52 -10 -30 0 -55 -3 -55 -7 0 -5 15 -8 34 -8 19 0 46 -4 60 -10 39
-15 266 -51 276 -45 15 9 12 25 -5 25 -8 0 -15 -5 -15 -11 0 -8 -5 -8 -15 1
-8 7 -22 10 -30 6 -10 -4 -14 -2 -9 5 4 8 -1 9 -16 4 -15 -5 -20 -4 -16 4 9
14 -7 14 -21 0 -12 -12 -53 4 -53 21 0 4 -14 11 -30 15 -17 4 -28 10 -25 15 3
5 -1 11 -7 14 -7 3 12 2 42 -1 30 -3 58 -10 61 -16 4 -5 12 -6 19 -2 7 4 32 8
56 9 32 1 43 -2 39 -11 -2 -7 0 -13 5 -13 6 0 10 9 10 20 0 24 27 27 56 6 10
-8 30 -13 44 -10 18 4 21 3 11 -4 -7 -5 -10 -15 -7 -21 13 -21 -19 -11 -46 14
-30 28 -43 32 -35 11 7 -19 -40 -31 -59 -15 -11 9 -14 8 -14 -4 0 -20 54 -27
85 -11 18 9 27 9 31 2 4 -6 2 -8 -4 -5 -6 5 -8 0 -5 -13 4 -14 14 -20 34 -20
15 0 31 -4 34 -10 9 -14 42 -12 48 3 2 6 8 9 12 4 5 -4 0 -14 -11 -22 -19 -14
-46 -12 -97 7 -29 11 -43 6 -32 -11 3 -6 21 -11 38 -11 18 0 85 -9 150 -19 80
-12 117 -14 114 -7 -2 6 -30 13 -63 16 -45 4 -54 7 -37 13 25 9 90 -1 99 -15
3 -5 15 -6 27 -2 19 6 20 5 9 -8 -11 -14 -6 -17 34 -23 25 -3 48 -4 51 -1 3 2
17 0 32 -6 41 -16 84 -17 101 -3 10 8 22 10 35 5 18 -8 18 -9 2 -9 -29 -1 -9
-21 21 -21 24 -1 25 -2 9 -11 -13 -7 -31 -8 -56 -2 -20 6 -46 7 -56 3 -16 -6
-13 -8 14 -11 32 -4 33 -5 16 -19 -10 -8 -16 -10 -13 -5 3 6 -7 11 -25 12 -17
1 -35 7 -40 12 -5 5 -22 5 -41 -1 -23 -7 -39 -7 -52 0 -17 10 -17 11 -1 12 9
0 17 5 17 10 0 7 -25 9 -67 6 -65 -5 -107 4 -85 18 6 3 13 2 17 -4 8 -14 45
-13 45 1 0 6 -9 9 -20 6 -11 -3 -20 -2 -20 2 0 5 -22 8 -50 7 -44 -1 -48 -3
-34 -16 13 -13 16 -13 24 0 8 12 10 12 16 -3 3 -9 12 -17 20 -17 8 0 14 -5 14
-11 0 -5 5 -7 11 -3 6 3 15 1 19 -7 7 -10 14 -10 32 -2 20 9 26 7 42 -14 10
-13 15 -27 11 -31 -3 -4 -11 1 -16 11 -7 12 -17 16 -30 12 -11 -4 -25 -2 -32
3 -7 5 -39 12 -72 16 -32 4 -73 13 -89 21 -16 9 -37 13 -47 10 -10 -3 -21 0
-26 7 -4 7 -21 14 -38 15 -59 3 -85 7 -85 15 0 5 -17 5 -38 2 -28 -4 -43 -2
-55 10 -8 9 -27 16 -40 16 -21 0 -24 4 -21 23 2 12 2 16 -2 10 -3 -7 -15 -13
-25 -13 -11 0 -17 4 -14 10 6 10 -17 17 -80 24 -22 2 -67 13 -100 24 -33 12
-69 23 -80 25 -11 3 0 6 25 7 25 1 41 3 35 5 -5 1 -29 8 -52 15 -25 8 -40 17
-36 24 4 7 1 7 -7 -1 -9 -8 -20 -8 -44 0 -50 17 -90 44 -74 50 7 3 1 5 -14 4
-16 -1 -28 -3 -28 -5 0 -8 59 -59 63 -55 8 7 48 -17 43 -26 -4 -7 35 -48 42
-43 7 6 21 0 25 -12 7 -18 -57 -26 -87 -11 -12 6 -28 9 -35 7 -8 -3 -11 0 -8
5 9 14 47 24 47 12 0 -5 5 -9 11 -9 8 0 8 5 -1 15 -7 8 -16 12 -21 9 -5 -3
-15 -2 -21 3 -7 4 -16 8 -19 8 -15 0 -80 52 -85 68 -3 9 -12 17 -20 17 -8 0
-12 4 -9 10 3 5 -9 17 -28 26 -20 9 -40 27 -46 40 -6 14 -19 24 -32 24 -16 0
-20 5 -16 20 7 25 -2 30 -61 36 -33 3 -43 1 -32 -6 8 -5 27 -10 43 -10 17 0
27 -5 27 -15 0 -18 -16 -20 -23 -2 -3 7 -6 5 -6 -5 -1 -10 -8 -18 -17 -18 -13
0 -14 3 -5 14 9 11 6 15 -15 20 -14 4 -35 4 -47 0 -20 -5 -20 -4 3 12 l25 19
-40 7 c-22 5 -53 10 -70 11 -51 6 -125 29 -125 39 0 6 -11 7 -25 4 -14 -4 -25
-2 -25 4 0 5 -8 10 -18 10 -10 0 -29 12 -43 26 l-24 27 27 -7 c75 -18 145 -18
171 -2 20 14 30 15 46 7 11 -6 36 -11 55 -11 20 0 36 -4 36 -10 0 -5 15 -10
33 -10 17 0 57 -8 88 -18 46 -14 54 -20 43 -30 -8 -7 -14 -8 -14 -3 0 6 -15 7
-37 4 -26 -4 -34 -3 -29 5 4 7 3 12 -3 12 -14 0 -23 -17 -13 -24 5 -3 33 -8
63 -11 29 -4 58 -10 64 -14 9 -8 38 -16 90 -26 11 -2 49 -10 85 -19 78 -19
111 -20 55 -1 -22 7 -32 13 -22 14 10 1 15 6 12 11 -6 10 12 9 75 -5 14 -4 30
-7 37 -9 7 -1 16 -5 19 -9 4 -4 27 -7 50 -7 24 0 46 -5 49 -10 4 -6 10 -8 15
-5 13 8 101 -16 94 -26 -3 -5 0 -9 5 -9 6 0 11 4 11 9 0 6 19 9 41 8 57 -3 63
19 7 25 -24 3 -48 1 -53 -3 -6 -4 -17 -4 -25 1 -12 8 -12 10 4 10 11 0 16 3
13 7 -4 4 -36 6 -71 5 -36 -1 -75 3 -88 8 -19 9 -16 10 20 7 23 -1 42 1 42 5
0 12 75 10 125 -3 25 -6 43 -15 40 -19 -7 -11 35 -17 70 -10 l30 6 -35 8 c-46
12 -42 10 -68 24 -12 7 -20 17 -17 22 3 6 -1 7 -9 4 -9 -3 -16 -1 -16 5 0 6
-5 11 -11 11 -5 0 -7 -4 -4 -10 9 -15 -4 -12 -20 4 -8 7 -11 16 -8 20 4 3 -5
6 -20 6 -14 0 -29 -5 -32 -10 -4 -6 -12 -10 -18 -9 -23 4 -69 -13 -57 -21 8
-5 5 -9 -8 -12 -15 -4 -18 -1 -15 13 4 15 1 18 -11 13 -9 -3 -16 -11 -16 -16
0 -6 -6 -8 -14 -5 -7 3 -19 0 -25 -6 -9 -9 -10 -3 -5 22 5 25 4 32 -4 27 -19
-11 -14 5 6 20 16 13 16 14 0 8 -10 -3 -18 -1 -18 4 0 6 9 14 20 17 11 3 20
11 20 16 0 5 -9 9 -20 9 -11 0 -20 4 -20 9 0 12 -32 24 -39 14 -11 -14 -33
-14 -45 0 -14 18 -46 29 -46 17 0 -6 4 -10 9 -10 5 0 4 -11 -2 -24 -9 -19 -18
-23 -54 -21 -50 2 -67 13 -52 35 6 8 12 11 15 5 12 -27 24 -39 31 -31 4 5 2
11 -4 13 -7 3 -13 9 -13 15 0 6 6 6 15 -2 8 -6 22 -10 32 -7 17 4 16 5 -2 12
-11 5 -28 16 -37 26 -10 10 -39 21 -65 25 -45 8 -46 8 -18 15 25 5 26 7 7 8
-14 1 -22 6 -20 13 6 17 -35 37 -83 40 -22 1 -43 6 -45 10 -3 4 -16 8 -29 8
-20 0 -24 5 -23 24 2 22 28 27 28 4 0 -5 4 -7 8 -4 5 3 16 -4 25 -15 12 -14
28 -19 55 -18 20 1 42 1 47 -1 6 -1 19 -1 30 0 11 1 0 6 -24 11 -25 5 -49 13
-55 19 -8 8 -3 8 18 0 16 -6 31 -9 33 -6 3 2 18 0 34 -4 17 -5 29 -5 29 1 0 5
-12 11 -27 14 -16 4 -47 10 -70 16 -55 12 -66 12 -57 -3 5 -7 -5 -3 -20 10
-33 26 -61 28 -70 7 -5 -13 -9 -13 -26 -3 -28 18 -25 30 5 22 14 -3 25 -2 25
4 0 5 -18 12 -40 14 -39 3 -39 3 -24 -20 8 -12 12 -27 8 -33 -3 -6 0 -10 7 -8
29 3 49 -1 49 -12 0 -6 -8 -8 -19 -4 -14 4 -21 0 -26 -15 -8 -26 -22 -26 -30
0 -3 11 -10 20 -15 20 -11 0 -19 47 -9 59 6 8 5 8 -3 1 -20 -16 -56 -11 -76
10 -12 13 -25 18 -35 14 -10 -3 -17 -2 -17 4 0 11 -75 32 -114 32 -30 0 -33
15 -9 42 17 19 48 24 58 9z m295 -231 c13 -8 13 -10 -1 -10 -9 0 -16 -7 -16
-15 0 -17 13 -20 22 -5 3 6 11 10 17 10 16 0 -13 -31 -37 -40 -17 -6 -16 -8
13 -15 23 -5 32 -11 28 -21 -4 -10 3 -14 24 -14 17 0 30 -4 30 -9 0 -5 11 -12
25 -15 14 -4 23 -11 20 -16 -3 -6 -1 -10 4 -10 6 0 11 7 11 17 0 14 2 15 18 1
9 -8 40 -21 67 -28 28 -7 54 -16 59 -20 4 -5 30 -6 58 -3 57 6 91 -3 68 -17
-9 -5 -19 -5 -27 2 -8 7 -22 7 -41 0 -15 -5 -39 -8 -52 -7 -14 1 -34 3 -45 4
l-20 2 20 9 c17 6 13 9 -20 16 -36 7 -51 9 -109 13 -12 1 -16 6 -12 16 3 8 1
15 -4 15 -6 0 -10 -4 -10 -9 0 -6 -22 -9 -50 -9 -27 1 -50 5 -50 10 0 13 -58
35 -100 40 -19 1 -37 6 -40 10 -3 4 -12 2 -20 -3 -12 -8 -12 -12 -2 -16 10 -4
10 -8 2 -18 -15 -18 -40 -8 -33 12 4 11 2 14 -5 9 -7 -4 -12 -2 -12 3 0 6 6
11 13 12 6 0 2 4 -9 9 -12 5 -47 8 -78 7 -31 -1 -56 2 -56 7 0 4 18 6 39 4 45
-4 46 7 1 15 -16 4 -30 11 -30 16 0 6 12 6 31 1 16 -5 37 -6 46 -3 11 4 14 2
9 -5 -4 -7 -5 -12 -2 -12 2 0 12 -3 22 -7 12 -4 15 -3 10 5 -4 7 -1 12 8 12 9
0 16 -4 16 -8 0 -4 17 -6 38 -4 25 2 33 0 24 -6 -11 -7 -11 -10 2 -15 8 -3 18
-2 21 4 4 5 11 6 17 3 6 -4 5 -10 -3 -15 -10 -6 -10 -9 -2 -9 7 0 16 7 21 17
9 14 10 14 17 -6 5 -18 10 -20 21 -10 7 6 11 16 7 23 -4 6 -6 21 -4 33 2 18
-1 21 -15 16 -14 -5 -14 -4 2 15 20 24 31 27 54 12z m-5105 -149 c-6 -4 -30
-15 -55 -24 -25 -9 -63 -23 -85 -31 l-40 -15 33 -1 c22 0 32 -5 32 -15 0 -8
-7 -15 -16 -15 -8 0 -12 5 -9 10 8 12 -32 5 -80 -15 l-30 -12 40 -11 c22 -7
48 -12 58 -12 10 0 15 -5 12 -11 -5 -7 6 -8 32 -4 33 5 35 4 16 -6 -13 -7 -23
-16 -23 -21 0 -5 -4 -6 -10 -3 -5 3 -10 -1 -10 -9 0 -9 -2 -16 -4 -16 -19 0
-136 43 -136 50 0 13 -110 0 -148 -18 -27 -12 -35 -13 -42 -2 -5 8 -17 10 -32
7 -13 -3 -30 -2 -38 3 -11 7 -1 10 33 10 26 0 47 3 47 8 0 4 -23 5 -51 3 -34
-2 -49 0 -45 7 3 6 2 13 -4 17 -33 20 36 34 82 16 24 -9 65 9 51 22 -3 4 9 2
27 -3 33 -9 54 -5 46 9 -5 7 22 19 83 36 17 5 22 4 16 -5 -6 -10 4 -12 47 -7
31 3 64 10 74 17 21 12 113 48 129 49 6 1 6 -2 0 -8z m-860 -58 c20 -12 20
-12 -2 -13 -12 0 -23 6 -26 13 -2 6 -8 9 -12 5 -11 -11 4 -28 26 -28 26 0 130
-56 121 -66 -4 -4 1 -4 10 -1 10 3 17 3 15 -1 -1 -4 3 -7 8 -7 5 0 9 3 8 8 -2
4 7 7 20 8 22 0 22 0 -2 10 -30 12 -20 23 14 15 31 -8 32 -29 3 -44 -13 -6
-17 -11 -10 -11 14 -1 17 -41 2 -41 -5 0 -10 -6 -10 -13 0 -18 -46 -57 -66
-57 -9 0 -14 -6 -11 -12 8 -22 -12 -47 -53 -68 -22 -11 -40 -27 -40 -36 0 -8
-7 -17 -15 -20 -17 -7 -21 -34 -5 -34 12 0 1 -53 -12 -58 -4 -2 -8 -10 -8 -17
0 -8 -9 -17 -20 -20 -11 -3 -23 -17 -26 -31 -8 -33 -44 -33 -44 -1 0 26 -32
61 -45 50 -4 -5 -5 -2 -1 5 4 7 0 24 -9 38 -9 14 -14 33 -11 41 4 11 2 13 -9
10 -8 -4 -17 -2 -20 3 -5 8 24 22 41 19 5 -1 29 0 54 1 l45 2 -34 12 c-20 7
-30 15 -24 19 6 4 19 4 29 0 12 -4 15 -3 10 5 -4 7 -15 12 -25 12 -9 0 -21 4
-27 9 -5 5 -29 16 -54 25 -45 15 -45 15 55 9 55 -3 106 -10 113 -16 11 -9 16
-3 13 16 0 4 9 7 20 7 19 0 20 2 8 17 -12 15 -12 16 4 10 9 -3 17 -3 17 2 0
22 -268 42 -335 25 -17 -4 -18 -3 -4 5 20 13 156 19 185 8 13 -4 27 -2 40 8
18 14 16 15 -21 9 -27 -4 -37 -3 -30 4 12 11 97 24 91 13 -7 -11 26 -36 52
-38 12 -1 22 2 22 8 0 5 -6 9 -12 10 -9 0 -9 2 -2 5 7 3 10 13 7 24 -3 12 2
20 14 24 10 3 6 4 -9 2 -16 -2 -36 2 -45 9 -9 7 -24 10 -34 8 -13 -4 -18 0
-17 13 0 11 -4 31 -10 47 -9 21 -18 27 -44 28 -32 1 -32 1 10 12 56 15 102 15
127 0z m5675 -58 c0 -7 6 -15 13 -18 9 -3 9 -7 -2 -20 -12 -15 -11 -17 3 -18
22 -2 25 -3 69 -18 49 -16 60 -7 16 13 -34 14 -34 14 -6 15 15 1 27 -3 27 -9
0 -5 12 -10 28 -11 15 0 21 -3 13 -6 -11 -5 -11 -7 0 -14 9 -6 1 -9 -23 -9
-21 0 -38 -5 -38 -11 0 -6 10 -9 23 -6 33 8 58 -5 47 -23 -5 -8 -10 -10 -10
-4 0 16 -21 23 -45 14 -18 -7 -17 -9 12 -20 46 -17 48 -36 5 -38 -49 -4 -55
-12 -9 -12 21 0 45 -4 55 -9 9 -6 31 -13 47 -17 17 -3 24 -9 17 -11 -6 -3 -10
-9 -6 -14 8 -14 24 -11 24 6 0 18 10 19 47 3 36 -14 29 -13 93 -23 45 -7 50
-10 30 -15 -14 -3 -28 -2 -31 3 -4 6 -14 7 -24 4 -9 -4 -29 0 -45 8 -16 8 -35
15 -43 15 -20 0 -31 -31 -15 -42 8 -5 9 -11 3 -15 -5 -5 -11 -15 -13 -23 -3
-11 -1 -12 8 -4 18 18 48 5 55 -24 3 -14 14 -32 23 -39 16 -12 16 -14 -2 -28
-19 -15 -19 -15 5 -15 19 0 21 -2 9 -10 -9 -6 -10 -10 -3 -10 7 0 16 6 20 13
12 18 62 49 72 43 4 -3 17 1 27 9 17 13 16 14 -15 8 -23 -4 -32 -3 -28 4 4 6
-6 13 -24 15 -18 3 -33 0 -37 -8 -5 -9 -12 -10 -22 -4 -9 6 -10 10 -3 10 8 0
7 9 -4 31 -18 36 -14 43 18 30 17 -7 19 -10 7 -10 -10 -1 -18 -5 -18 -10 0 -5
8 -12 18 -14 30 -9 156 -36 182 -40 20 -4 19 -5 -7 -6 -36 -1 -60 -30 -41 -49
8 -8 4 -14 -16 -22 -35 -13 -36 -13 -30 5 8 19 -10 19 -26 0 -7 -8 -16 -12
-21 -9 -5 3 -15 2 -21 -3 -8 -5 2 -10 27 -13 31 -4 41 -10 46 -30 6 -22 7 -23
8 -4 1 12 8 25 17 28 12 4 15 2 10 -9 -3 -8 -9 -22 -12 -30 -3 -8 -1 -15 5
-15 6 0 11 -7 11 -15 0 -8 7 -15 16 -15 8 0 13 -4 9 -9 -9 -15 14 -24 30 -11
9 7 15 8 20 0 3 -5 0 -10 -8 -10 -7 0 -14 -6 -14 -14 0 -20 64 -36 117 -30 44
5 150 29 154 36 2 2 10 14 19 28 9 13 17 19 17 12 0 -6 10 -11 23 -9 13 1 21
-3 20 -10 -3 -13 19 -17 65 -13 32 2 27 -18 -5 -22 l-28 -4 25 -11 25 -12 -29
0 c-21 -1 -27 -5 -22 -16 3 -8 1 -15 -3 -15 -5 0 -11 5 -13 12 -3 8 -12 6 -29
-6 l-24 -18 24 7 c19 6 23 4 18 -8 -6 -16 4 -16 36 -2 11 4 16 14 12 23 -4 12
-3 13 10 2 12 -10 13 -16 4 -26 -6 -8 -18 -14 -25 -14 -8 0 -14 -7 -14 -15 0
-8 -6 -15 -12 -16 -7 0 2 -5 20 -10 30 -9 33 -13 28 -37 -3 -15 -3 -21 0 -14
3 6 9 10 13 8 30 -19 107 -14 95 6 -4 6 -1 9 7 6 8 -3 14 -13 14 -23 0 -17 -9
-19 -88 -19 -49 -1 -91 3 -94 7 -2 4 -13 5 -23 2 -10 -3 -21 -1 -25 5 -3 5 2
10 12 10 15 0 16 2 3 10 -13 9 -13 12 3 21 23 14 22 32 -2 24 -11 -3 -22 -1
-26 5 -10 17 -22 11 -20 -11 1 -11 8 -25 16 -30 10 -8 8 -9 -10 -7 -20 2 -24
9 -25 35 -1 17 2 29 7 26 4 -2 7 -2 7 1 0 2 2 11 5 18 5 12 -7 14 -55 14 -43
0 -60 -3 -60 -13 0 -7 8 -13 18 -14 43 -2 71 -13 61 -24 -6 -5 -61 11 -92 27
-19 9 -67 1 -67 -13 0 -5 -13 -9 -30 -9 -16 0 -30 -5 -30 -11 0 -5 5 -7 10 -4
6 3 10 2 10 -3 0 -5 9 -13 19 -18 17 -8 17 -11 5 -22 -12 -11 -14 -10 -14 3 0
20 -16 19 -24 -1 -8 -22 2 -36 23 -29 11 3 18 0 18 -8 0 -19 -34 -10 -50 13
-7 9 -19 19 -27 23 -10 4 -8 6 8 6 34 1 26 21 -8 21 -31 0 -37 8 -21 25 5 6 7
22 4 37 -5 24 -10 28 -40 28 -20 0 -32 4 -28 10 3 6 16 10 29 10 43 0 47 20
10 58 -31 32 -37 34 -60 24 -32 -15 -35 -15 -27 4 3 8 12 13 19 10 8 -3 14 -1
14 4 0 9 -16 14 -46 13 -6 0 -10 10 -8 23 1 15 -3 24 -12 24 -8 0 -14 5 -14
10 0 6 -5 10 -12 10 -6 0 -8 -3 -5 -6 4 -4 -3 -15 -15 -26 -28 -24 -38 -13
-10 13 l22 20 -65 62 c-36 34 -65 68 -65 76 0 8 -6 11 -16 7 -9 -3 -12 -2 -9
5 12 19 -47 95 -66 83 -17 -10 -57 16 -64 44 -5 19 -9 22 -18 13 -14 -14 -44
-15 -52 -1 -4 6 1 7 11 3 11 -4 15 -3 10 5 -4 6 4 12 21 14 24 3 19 7 -31 23
l-58 19 7 59 c3 32 9 65 11 72 7 17 34 8 34 -10z m308 -99 c7 -4 22 -4 33 -1
13 5 19 3 15 -3 -3 -5 1 -13 10 -16 11 -4 15 -2 11 8 -10 25 17 24 40 -1 12
-12 29 -23 38 -23 8 0 15 -4 15 -10 0 -12 8 -13 -75 5 -83 17 -95 18 -95 6 0
-6 21 -13 48 -16 57 -8 81 -16 66 -22 -6 -2 -31 1 -55 6 -28 6 -48 6 -53 0 -6
-5 -3 -9 10 -9 11 0 25 -5 32 -12 7 -7 12 -8 12 -2 0 5 15 8 34 6 21 -2 44 3
59 13 24 16 26 15 37 -4 9 -18 8 -21 -10 -21 -25 0 -27 -17 -2 -23 13 -4 12
-5 -5 -6 -12 0 -23 -6 -25 -13 -3 -9 -18 -9 -64 1 -94 20 -98 21 -84 34 10 9
14 9 17 0 3 -7 9 -13 14 -13 23 0 -7 30 -37 36 -37 7 -44 18 -18 28 28 11 -3
34 -41 32 -19 -1 -35 2 -35 6 0 5 11 8 24 8 14 0 27 4 30 8 6 10 36 9 54 -2z
m1455 -98 c7 5 23 8 37 7 14 -2 29 -4 33 -4 5 -1 5 -7 1 -13 -6 -10 -3 -9 8 0
13 11 21 11 39 2 17 -10 23 -9 30 1 8 12 10 12 18 0 5 -8 7 -20 4 -28 -4 -10
7 -13 41 -13 45 0 63 14 29 23 -10 3 2 5 27 6 42 0 44 -1 25 -15 -23 -17 -12
-45 21 -51 26 -4 94 7 94 16 0 9 -31 8 -48 -3 -6 -4 -20 -2 -29 3 -16 9 -14
10 10 11 15 0 27 3 27 8 0 4 32 8 70 10 39 1 70 -2 70 -7 0 -5 -18 -7 -40 -4
-26 4 -40 2 -40 -6 0 -6 18 -11 43 -12 23 0 36 -3 28 -6 -10 -4 -8 -9 9 -18
15 -8 19 -15 11 -19 -6 -4 -11 -2 -11 4 0 7 -6 8 -19 0 -28 -15 -33 -13 -26
10 5 16 2 20 -15 20 -12 0 -19 -4 -16 -8 3 -5 -9 -6 -26 -4 -25 4 -30 2 -25
-11 6 -17 -29 -32 -39 -16 -3 5 -14 9 -25 9 -11 0 -31 7 -44 16 -14 9 -36 14
-50 12 -13 -3 -22 -2 -20 2 5 9 -81 35 -108 33 -9 -1 -15 2 -12 8 6 9 4 10
-53 15 -18 1 -41 6 -50 10 -20 8 -28 10 -62 13 l-25 3 25 8 c16 5 33 2 48 -7
15 -9 28 -11 35 -5z m-3959 6 c8 -3 31 -39 51 -80 20 -41 41 -74 46 -74 6 0 8
-3 5 -8 -2 -4 -38 -6 -80 -5 -61 3 -74 0 -70 -11 4 -9 24 -14 62 -16 87 -2
105 -4 127 -17 28 -16 12 -28 -37 -26 -23 1 -49 -2 -59 -7 -11 -7 -20 -7 -24
0 -3 5 -1 10 6 10 7 0 10 2 7 5 -3 3 -16 1 -29 -4 -17 -7 -19 -10 -6 -10 9 -1
17 -6 17 -12 0 -8 17 -9 54 -5 60 8 113 -1 98 -16 -6 -6 -18 -6 -32 2 -17 9
-26 8 -43 -2 -12 -8 -33 -13 -47 -11 -14 2 -34 4 -45 5 -11 2 -19 -2 -18 -8 1
-7 -13 -15 -32 -18 -19 -4 -35 -11 -35 -16 0 -6 -3 -10 -7 -9 -5 1 -19 -2 -32
-6 l-23 -8 23 -13 c13 -7 34 -13 47 -14 12 0 22 -4 22 -9 0 -11 -64 -22 -68
-12 -6 16 -62 -3 -88 -30 -18 -19 -38 -29 -56 -29 -32 0 -31 -2 -19 53 6 23
12 54 16 70 3 15 11 27 18 27 17 1 68 48 96 88 25 36 37 40 45 15 3 -10 4 -2
3 18 -2 26 1 35 10 32 6 -3 14 -10 16 -16 2 -7 3 -5 2 3 -2 8 -6 24 -10 35 -4
13 -4 16 2 7 7 -9 15 -6 33 13 l23 25 -23 0 c-13 0 -20 3 -17 7 4 3 21 6 39 6
l33 0 -27 10 c-30 12 -32 15 -19 36 5 7 14 10 21 6 9 -6 9 -10 -1 -17 -11 -7
-9 -8 4 -4 10 3 24 6 30 7 7 0 2 4 -10 9 -13 5 -23 14 -23 20 0 12 3 12 24 4z
m5736 -156 c3 -3 18 -10 34 -14 21 -5 27 -4 22 5 -4 6 -1 11 9 11 8 0 18 -6
21 -14 4 -11 12 -13 29 -6 15 6 27 6 30 0 7 -11 80 -8 91 3 4 3 11 4 16 1 5
-3 2 -12 -8 -18 -15 -11 -13 -13 17 -14 24 -1 29 2 19 8 -11 7 -7 10 17 10 17
0 34 -3 36 -8 4 -5 95 -7 127 -2 3 0 -6 8 -20 16 -17 10 -18 13 -5 9 11 -4 28
-10 38 -12 9 -3 17 -9 17 -13 0 -12 -49 -22 -72 -14 -15 4 -19 2 -16 -7 3 -10
25 -14 76 -14 47 0 76 -5 84 -14 11 -11 10 -12 -5 -4 -21 11 -87 5 -87 -8 0
-5 -9 -4 -20 3 -15 10 -26 10 -52 0 -18 -7 -34 -9 -36 -4 -2 8 -117 6 -139 -2
-7 -3 -13 -1 -13 3 0 5 7 12 16 15 9 4 14 9 11 13 -4 3 -14 0 -23 -8 -13 -11
-18 -11 -21 -1 -3 7 -22 12 -46 12 -31 0 -38 -3 -27 -10 18 -12 3 -12 -25 0
-18 7 -19 8 -2 15 28 12 19 21 -23 22 -22 1 -47 9 -56 17 -18 19 -33 20 -54 5
-12 -8 -10 -9 7 -4 12 3 24 1 28 -5 7 -11 -24 -14 -49 -4 -21 8 -20 32 2 36
24 6 46 4 52 -4z m-8240 -117 c0 -6 -16 -7 -35 -4 -33 5 -35 4 -35 -21 0 -16
5 -26 15 -26 8 0 15 -5 15 -11 0 -6 -7 -9 -15 -5 -8 3 -25 1 -37 -4 -18 -7
-19 -9 -5 -9 9 -1 20 -1 24 0 3 0 10 -6 15 -15 5 -9 17 -16 26 -16 14 0 14 -2
3 -9 -11 -7 -9 -11 9 -21 15 -8 20 -8 16 -1 -10 15 -5 14 35 -6 l34 -18 -50
-6 -50 -5 31 -13 c24 -9 31 -17 27 -31 -4 -16 -1 -17 31 -10 21 4 36 4 36 -1
0 -5 -10 -9 -22 -10 -22 0 -22 -1 -3 -9 21 -9 21 -9 -12 -16 -29 -5 -66 25
-52 42 7 8 4 14 -8 18 -12 5 -23 0 -35 -13 -9 -12 -20 -21 -25 -21 -4 0 -13
-10 -18 -22 -12 -27 -35 -35 -35 -13 0 12 -5 15 -16 11 -9 -3 -20 -6 -25 -6
-4 0 -6 -7 -3 -15 4 -8 16 -15 28 -15 12 0 31 -7 42 -15 17 -13 15 -14 -28 -8
-33 4 -48 2 -48 -6 0 -6 -16 -11 -35 -11 -46 0 -45 17 3 26 l37 7 -43 14 c-23
8 -47 23 -53 34 -8 16 -14 17 -30 8 -11 -5 -25 -8 -32 -5 -7 2 -4 5 6 5 20 1
23 17 5 24 -7 3 1 6 19 6 17 1 35 -3 38 -9 8 -13 16 -12 35 0 13 9 12 12 -4
25 -19 15 -19 15 2 15 11 0 25 -8 31 -17 5 -10 11 -16 13 -15 2 2 15 -2 30 -9
21 -9 34 -9 50 -1 l23 11 -23 0 c-13 1 -21 5 -18 10 3 5 16 7 29 4 12 -2 5 5
-17 16 -22 12 -46 21 -53 21 -7 0 -13 4 -13 9 0 15 -41 24 -53 12 -6 -6 -15
-11 -20 -11 -5 0 -1 7 8 16 12 13 26 15 63 9 31 -4 44 -3 37 3 -10 10 -68 21
-113 22 -13 0 -20 4 -17 10 4 6 21 8 40 4 19 -3 35 -1 39 5 4 6 19 11 34 11
24 0 25 1 7 13 -10 8 -29 13 -41 11 -13 -1 -24 2 -24 7 0 10 -43 12 -53 2 -10
-9 -187 -10 -181 -1 3 4 22 8 42 8 37 0 205 23 292 39 64 12 110 13 110 2z
m7042 2 c-9 -3 -10 -9 -2 -18 14 -17 -48 -27 -90 -15 -17 5 -32 5 -35 0 -6
-10 23 -20 70 -23 17 -1 34 -6 38 -12 6 -6 10 -6 14 3 2 6 11 12 18 12 10 0
11 -5 2 -25 -12 -25 -27 -34 -27 -15 0 6 -18 10 -41 10 -26 0 -38 -4 -33 -11
3 -6 19 -9 35 -7 36 6 37 1 3 -12 -19 -8 -34 -6 -59 6 -19 9 -38 13 -43 10 -5
-3 -9 2 -9 12 0 38 -3 52 -13 52 -14 0 -12 -27 3 -33 6 -3 2 -6 -11 -6 -13 -1
-33 4 -45 10 -16 9 -22 9 -25 0 -2 -6 -8 -11 -14 -11 -6 0 -8 7 -4 15 6 16 -3
19 -28 9 -9 -3 -14 -10 -11 -15 3 -4 -14 3 -37 16 -51 29 -59 31 -52 8 4 -13
0 -12 -15 5 -11 13 -25 21 -31 17 -5 -3 -10 -1 -10 6 0 9 18 10 68 5 37 -4 85
-9 106 -12 22 -2 43 -9 47 -16 5 -8 12 -9 21 -2 23 18 90 36 97 27 10 -14 89
-12 95 3 3 8 11 14 18 13 10 0 10 -2 0 -6z m-1265 -58 c17 -3 35 -1 38 5 9 15
25 12 25 -5 0 -8 8 -15 18 -15 14 0 15 2 2 10 -12 8 -10 10 8 10 13 0 30 -7
38 -15 9 -8 12 -15 8 -15 -3 0 -1 -6 5 -13 6 -8 8 -17 4 -20 -3 -4 -1 -7 6 -7
7 0 10 -4 7 -9 -7 -11 25 -71 37 -71 5 0 6 -4 3 -8 -6 -11 -139 22 -143 35 -2
6 7 8 23 5 19 -3 25 -1 22 8 -6 19 -104 40 -119 26 -9 -8 -10 -4 -5 16 4 20 1
30 -11 37 -14 8 -15 11 -3 11 9 0 6 6 -10 16 -19 11 -20 14 -5 10 11 -3 34 -8
52 -11z m-1017 -4 c0 -5 -5 -11 -12 -13 -6 -2 -8 -10 -4 -16 5 -8 16 -10 29
-6 20 6 20 5 8 -10 -8 -9 -20 -15 -28 -12 -18 7 -16 0 5 -23 28 -31 57 -75 54
-83 -1 -5 5 -8 13 -8 8 0 15 5 15 10 0 6 -4 10 -10 10 -5 0 -10 5 -10 10 0 6
7 10 15 10 8 0 15 -4 15 -10 0 -5 10 -20 22 -32 16 -16 17 -20 4 -15 -10 4
-15 3 -11 -3 3 -6 2 -10 -4 -10 -5 0 -11 5 -13 12 -2 6 -9 8 -16 4 -6 -3 -9
-13 -6 -21 4 -8 10 -12 15 -9 5 3 8 -8 7 -26 -2 -21 -6 -29 -16 -25 -7 3 -18
5 -23 5 -6 0 -8 4 -5 8 3 5 -6 15 -19 22 -18 9 -23 19 -19 32 4 13 1 16 -10
12 -10 -4 -16 -1 -17 7 -1 8 -5 3 -9 -11 -6 -18 -8 -3 -9 50 -1 97 8 150 25
150 8 0 14 -4 14 -9z m-5967 -82 c10 -1 -25 -12 -70 -22 -20 -5 -28 -17 -10
-17 9 0 19 -5 23 -12 5 -8 2 -9 -11 -4 -11 4 -25 0 -37 -11 -14 -13 -21 -14
-27 -5 -4 6 -29 14 -57 17 -36 4 -44 3 -29 -4 16 -8 11 -10 -25 -9 -48 1 -223
-8 -330 -18 -43 -4 -62 -2 -55 4 6 6 80 15 165 22 85 6 190 19 235 29 44 10
102 19 130 19 27 1 52 7 54 13 1 5 10 8 18 5 8 -3 20 -6 26 -7z m8239 -71 c10
-10 24 -18 32 -18 7 0 27 -7 42 -15 33 -17 68 -20 59 -5 -7 11 20 3 50 -16 11
-7 52 -16 90 -19 39 -4 78 -12 89 -17 12 -7 21 -7 25 0 7 12 78 32 85 24 3 -3
6 -16 6 -29 0 -19 10 -28 46 -43 38 -17 43 -22 32 -34 -11 -12 -13 -12 -16 0
-2 8 -12 14 -22 14 -10 0 -22 5 -25 11 -4 6 -19 10 -33 9 -45 -3 -48 0 -23 19
20 15 21 19 7 24 -10 4 -16 1 -16 -8 0 -20 -28 -26 -87 -16 -29 4 -53 5 -53 2
0 -3 -4 -1 -8 6 -11 18 -63 24 -81 10 -14 -10 -14 -10 -3 4 11 14 5 18 -49 28
-34 7 -74 17 -88 24 -14 6 -55 18 -91 27 -36 10 -73 21 -82 25 -11 4 -18 3
-18 -4 0 -6 6 -11 13 -11 6 0 29 -11 51 -24 30 -18 35 -24 22 -29 -10 -4 -15
-3 -11 3 8 14 -66 42 -92 35 -18 -4 -23 -1 -23 13 0 28 5 30 83 29 54 -1 75
-5 89 -19z m-3177 -45 c3 -15 13 -43 22 -62 9 -20 16 -43 17 -51 1 -10 12 -15
33 -15 37 0 35 -10 -4 -20 -36 -8 -95 -53 -88 -66 4 -5 1 -9 -5 -9 -7 0 -9 7
-5 18 3 9 -4 56 -16 104 -22 85 -22 88 -4 108 25 27 42 25 50 -7z m-3334 -44
c34 -17 67 -28 75 -25 8 3 14 1 14 -4 0 -5 -10 -10 -22 -12 -21 -3 -20 -5 12
-22 30 -16 48 -18 139 -12 58 3 110 11 115 16 10 10 -5 15 -29 10 -5 -1 -5 4
2 11 9 9 17 8 37 -5 14 -9 38 -17 53 -17 21 -1 23 -3 8 -6 -80 -18 -94 -24
-89 -38 5 -11 -2 -13 -30 -8 -37 6 -46 -3 -24 -25 8 -8 8 -12 1 -12 -6 0 -13
7 -17 15 -3 8 -18 15 -33 16 -25 0 -24 2 12 14 l40 14 -53 -3 c-29 -2 -56 -7
-59 -10 -3 -3 -12 -1 -20 5 -19 17 -16 1 8 -32 26 -37 79 -60 149 -64 52 -3
53 -3 30 10 -19 11 -21 14 -7 15 22 0 23 20 0 20 -9 0 -13 3 -10 6 4 4 28 -2
54 -14 31 -12 61 -18 83 -15 33 5 34 4 15 -10 -11 -8 -38 -20 -60 -27 -22 -7
-50 -20 -63 -28 -12 -8 -25 -12 -29 -8 -3 3 0 6 7 6 9 0 7 5 -5 14 -20 14 -55
10 -55 -6 0 -5 10 -12 22 -16 l22 -5 -22 -8 c-15 -6 -20 -14 -15 -26 5 -14 3
-16 -7 -6 -10 9 -18 9 -33 1 -27 -14 -127 -18 -127 -5 0 5 -14 7 -33 4 -19 -3
-49 -1 -68 4 l-34 9 38 -5 c21 -2 56 3 79 11 22 8 68 14 102 14 41 0 56 3 46
9 -8 6 -18 7 -24 4 -5 -4 -7 1 -3 10 5 15 -5 16 -96 12 -56 -3 -93 -1 -83 3
19 8 18 9 -4 25 -20 14 -26 14 -51 1 -35 -17 -39 -18 -39 0 0 9 7 12 20 9 14
-4 20 0 20 11 0 9 8 16 19 16 10 0 25 7 32 16 13 16 50 15 92 -1 13 -6 16 -3
11 9 -3 9 -15 16 -26 16 -10 0 -17 4 -14 9 3 4 -7 6 -22 4 l-27 -4 25 14 24
15 -37 15 c-20 9 -74 18 -119 20 -100 6 -99 6 -68 18 13 6 49 7 80 3 l55 -7
-27 26 c-50 46 -39 48 43 6z m-1216 11 c22 -5 41 -14 43 -19 2 -6 18 -11 36
-11 21 0 44 -9 62 -25 16 -14 33 -25 37 -25 4 0 7 -6 5 -13 -3 -12 36 -57 50
-57 4 0 20 -9 36 -19 l28 -19 -31 3 c-16 1 -37 8 -45 14 -8 7 -21 9 -27 5 -8
-4 -9 -3 -5 4 9 14 1 15 -41 3 -20 -6 -35 -6 -38 0 -4 5 -13 9 -21 9 -9 0 -22
7 -30 15 -14 14 -56 21 -94 15 -8 -1 -12 2 -7 6 11 11 98 12 134 1 24 -8 39
-7 60 2 l28 13 -58 29 c-32 16 -62 27 -67 24 -5 -3 -29 -1 -52 6 -24 6 -47 12
-53 14 -44 10 -64 18 -59 26 7 11 58 11 109 -1z m8519 -2 c-5 -8 2 -9 27 -3
67 17 123 12 203 -17 44 -15 88 -28 99 -28 12 0 16 -4 11 -12 -5 -10 -4 -10 6
-1 8 7 18 9 24 4 15 -12 126 -20 132 -9 8 13 44 9 50 -6 3 -8 15 -14 27 -14
12 -1 48 -4 79 -8 42 -5 55 -10 51 -20 -3 -8 1 -14 11 -14 19 0 96 -37 96 -47
0 -16 -218 27 -246 48 -6 5 -24 8 -40 7 -16 0 -42 4 -59 10 -16 6 -57 16 -90
22 -33 7 -78 18 -100 26 -45 15 -75 18 -75 7 0 -5 43 -21 95 -38 52 -16 91
-32 87 -36 -9 -9 -82 10 -191 50 -47 17 -93 31 -102 31 -10 0 -21 5 -25 12 -5
7 -2 9 8 6 9 -4 37 -9 64 -12 39 -5 43 -4 20 4 -15 5 -53 12 -85 15 -31 3 -66
8 -78 11 -26 5 -31 24 -7 24 9 0 12 -5 8 -12z m-6635 -7 c9 -6 22 -6 33 0 14
7 20 6 24 -6 10 -25 -2 -29 -48 -17 -38 10 -71 6 -40 -5 6 -3 12 -11 12 -19 0
-10 -13 -14 -45 -14 -25 0 -45 -4 -45 -9 0 -15 18 -23 25 -11 8 13 25 13 25 0
0 -5 -11 -12 -25 -16 -14 -3 -22 -10 -19 -15 3 -5 -4 -9 -15 -9 -11 0 -23 -4
-26 -10 -3 -5 -17 -10 -31 -10 -13 0 -24 -4 -24 -9 0 -14 -72 -10 -108 6 -45
20 -32 29 18 13 37 -12 42 -11 77 12 21 14 54 40 73 58 35 32 96 69 115 69 6
1 17 -3 24 -8z m-2595 -53 c13 -18 15 -18 30 -3 10 10 24 14 33 10 15 -5 15
-7 3 -15 -11 -7 -2 -10 29 -10 50 0 47 -7 -20 -61 l-38 -30 -9 32 c-4 18 -14
34 -22 37 -13 3 -13 2 -1 -6 16 -11 6 -32 -15 -32 -8 0 -14 -4 -14 -10 0 -17
-30 -11 -52 10 l-22 20 32 -6 c25 -5 32 -3 32 10 0 9 -6 16 -14 16 -8 0 -17 9
-21 19 -3 12 -21 23 -43 28 -34 9 -31 10 31 10 56 0 70 -3 81 -19z"/>
<path class="svg"
      stroke="#000"
      stroke-miterlimit="10" d="M0 2771 c0 -5 6 -12 13 -15 10 -5 10 -7 0 -12 -7 -3 -13 -11 -13 -19
0 -8 23 -15 71 -19 93 -10 105 -14 82 -31 -15 -11 -21 -11 -33 0 -8 8 -39 17
-68 21 -49 6 -52 5 -52 -16 0 -21 3 -22 46 -16 27 3 54 1 66 -5 27 -14 158
-21 158 -9 0 6 -12 10 -27 11 -16 0 -37 4 -48 9 -23 10 79 3 170 -12 33 -5 94
-13 135 -18 41 -5 116 -16 165 -24 87 -13 106 -13 92 0 -6 7 -25 9 -95 12 -19
1 -31 6 -27 12 9 15 -44 32 -77 25 -17 -4 -28 -2 -28 4 0 6 -9 11 -19 11 -11
0 -26 6 -33 14 -20 19 -55 29 -63 16 -3 -5 -11 -10 -16 -10 -6 0 -8 4 -5 8 5
9 -153 36 -214 38 -89 1 -99 4 -94 19 5 12 -3 15 -40 15 -25 0 -46 -4 -46 -9z"/>
<path class="svg"
      stroke="#000"
      stroke-miterlimit="10" d="M0 2541 c0 -15 10 -18 73 -21 39 -2 94 -3 120 -3 29 0 43 -3 35 -8
-9 -6 -9 -9 -1 -9 6 0 15 5 18 10 4 6 11 7 17 4 6 -4 25 -10 42 -14 25 -5 15
-8 -47 -14 -54 -5 -82 -4 -92 4 -17 14 -97 9 -102 -7 -3 -8 6 -9 33 -3 42 10
81 1 48 -10 -10 -4 31 -11 94 -15 62 -4 114 -11 117 -15 7 -11 -40 -21 -59
-14 -9 3 -16 1 -16 -5 0 -6 6 -12 13 -12 6 -1 -1 -5 -18 -10 -27 -7 -26 -8 10
-4 44 4 111 -14 108 -30 -1 -5 7 -13 18 -17 22 -9 17 -28 -7 -28 -18 0 -44 24
-44 39 0 6 -15 11 -32 10 -28 0 -30 -2 -13 -9 14 -6 15 -9 5 -9 -9 -1 -25 6
-37 14 -18 13 -26 13 -50 3 -15 -7 -31 -16 -34 -21 -7 -10 -39 2 -39 14 0 5
10 9 22 9 l22 0 -22 16 c-15 10 -52 17 -103 20 l-80 4 3 -85 c3 -70 6 -85 21
-89 10 -2 17 1 17 9 0 8 7 11 20 8 28 -7 16 -21 -25 -29 l-35 -6 0 -63 c0 -58
2 -64 23 -68 l22 -4 -22 -2 c-21 -1 -23 -6 -23 -51 0 -47 2 -50 25 -50 14 0
25 -5 25 -10 0 -6 -11 -8 -25 -4 -24 6 -25 4 -25 -43 l0 -49 52 -10 c29 -5 51
-12 48 -16 -3 -4 4 -14 15 -23 19 -15 18 -16 -15 -10 -19 3 -50 8 -67 12 l-33
5 0 -91 0 -90 29 5 c20 4 30 2 34 -10 4 -9 18 -16 34 -16 l28 0 -25 20 c-19
15 -21 20 -8 20 9 0 19 -6 21 -12 4 -10 8 -9 16 2 8 12 13 12 23 2 6 -6 30
-12 51 -12 31 0 38 3 33 16 -3 8 -2 12 3 9 5 -3 49 -8 97 -11 48 -3 96 -9 105
-15 24 -13 29 -11 23 5 -3 8 -15 17 -27 19 -15 3 -11 5 11 6 20 0 31 -3 27 -9
-4 -6 7 -10 24 -10 19 0 31 -5 31 -13 0 -10 -37 -13 -177 -13 -103 1 -203 -4
-238 -11 -52 -11 -30 -12 178 -9 130 1 239 5 242 8 3 2 6 16 7 29 2 21 7 24
47 26 26 1 60 -2 76 -7 17 -4 50 -5 75 0 39 6 41 8 13 9 -22 1 -33 6 -33 16 0
11 5 12 23 6 12 -5 64 -12 114 -16 51 -4 90 -11 87 -16 -3 -5 -1 -9 4 -9 6 0
12 7 16 15 4 11 -2 15 -24 15 -16 0 -31 4 -34 8 -3 5 26 9 64 10 38 0 78 6 89
12 12 6 38 8 61 4 23 -4 40 -3 40 3 0 5 17 9 38 9 100 -1 151 5 167 20 12 13
19 13 30 4 11 -9 19 -8 37 5 13 10 16 15 8 13 -8 -3 -24 -2 -35 3 -19 7 -19 8
3 8 12 1 22 6 22 12 0 11 -37 3 -57 -13 -7 -5 -22 -7 -35 -3 -23 7 -23 7 -3
-9 19 -16 18 -17 -25 -12 -25 3 -48 5 -52 5 -14 1 -9 29 6 34 7 3 32 3 55 0
25 -3 41 -2 41 5 0 6 27 9 68 9 37 -1 78 2 92 6 23 7 24 7 7 -6 -16 -14 -14
-15 23 -19 22 -2 40 0 40 4 0 5 -6 8 -12 9 -7 1 -2 5 12 9 23 7 23 8 -10 10
-148 9 -297 7 -321 -5 -16 -9 -30 -10 -40 -4 -11 7 -9 9 9 9 16 0 21 4 15 13
-4 6 -8 15 -8 19 0 11 -15 22 -15 11 0 -6 -28 -13 -61 -17 -63 -6 -89 -18 -89
-41 0 -21 55 -37 114 -33 31 1 56 0 56 -4 0 -5 -15 -8 -32 -8 -25 0 -29 -3
-18 -10 11 -7 6 -8 -17 -4 -20 4 -33 2 -33 -3 0 -14 -91 -23 -112 -12 -11 6
-18 6 -18 1 0 -11 -45 -8 -157 9 -45 7 -86 10 -89 6 -13 -13 5 -20 53 -19 36
0 42 -2 23 -7 -35 -10 -236 -1 -219 10 11 7 11 9 -2 9 -8 0 -20 -5 -25 -10
-14 -14 -42 -2 -49 21 -4 10 -11 19 -17 19 -6 0 -6 -6 2 -15 10 -13 9 -15 -9
-15 -12 0 -19 5 -16 10 3 6 -3 10 -14 10 -11 0 -23 -4 -26 -10 -3 -5 1 -10 9
-10 8 0 18 -5 22 -11 5 -8 0 -10 -17 -6 -13 3 -62 7 -109 8 -92 2 -113 6 -104
20 3 5 -11 9 -31 9 -38 0 -80 21 -89 45 -4 12 4 13 42 8 26 -3 53 -10 60 -16
7 -6 42 -7 87 -4 44 4 75 3 75 -2 0 -5 -10 -12 -22 -14 -13 -2 1 -5 30 -6 33
0 51 3 47 9 -3 6 2 10 12 11 11 0 13 3 5 6 -6 2 -10 8 -7 13 3 4 23 0 45 -11
21 -10 54 -19 72 -18 31 1 32 1 8 9 -24 8 -23 8 8 9 21 1 32 -4 32 -13 0 -9 7
-12 19 -9 10 3 22 0 25 -6 5 -7 -2 -11 -16 -12 -17 -1 -18 -3 -5 -6 9 -2 17
-9 17 -14 0 -17 46 -9 67 11 12 11 41 23 65 27 38 6 40 8 18 14 -22 6 -20 7
12 8 20 1 39 7 41 14 4 7 6 6 6 -4 1 -12 15 -19 49 -25 41 -6 43 -8 20 -13
-20 -4 -25 -10 -19 -19 6 -10 19 -11 45 -7 31 6 35 9 24 23 -11 13 -10 14 11
7 16 -5 21 -4 17 4 -4 6 -16 11 -27 11 -30 0 -17 24 17 31 22 5 16 7 -26 8
-173 6 -204 10 -170 21 24 8 24 8 -7 9 -29 1 -60 21 -32 21 7 0 10 3 7 6 -4 3
-16 0 -28 -6 -16 -9 -25 -9 -33 -1 -8 8 -7 11 4 11 10 1 9 5 -6 15 -12 10 -31
13 -55 9 -23 -4 -31 -2 -21 4 9 7 10 12 2 16 -6 4 -9 12 -6 17 4 5 2 9 -4 9
-5 0 -11 -10 -13 -22 -2 -15 -11 -24 -25 -26 -17 -3 -21 1 -17 11 3 8 0 18 -6
22 -6 3 -9 1 -8 -6 2 -6 -3 -14 -11 -17 -10 -3 -12 0 -8 12 5 12 -3 20 -31 33
-20 9 -46 17 -57 18 -11 1 -47 5 -80 10 -33 4 -95 9 -137 9 -42 1 -80 5 -84 9
-16 16 332 -9 352 -25 7 -5 28 -9 48 -10 20 -1 36 -5 36 -10 0 -4 19 -6 43 -2
31 4 38 3 27 -5 -13 -9 -13 -11 1 -11 9 0 37 -11 62 -25 27 -16 51 -23 62 -18
13 4 16 3 11 -5 -4 -7 -1 -12 8 -12 8 0 16 6 19 13 3 9 9 9 23 2 41 -23 92 11
54 35 -20 13 -33 13 -25 0 7 -12 -38 -14 -49 -2 -4 4 -40 12 -79 18 -66 11
-60 11 78 7 83 -2 161 -7 175 -10 l25 -6 -30 -8 c-18 -5 -33 -5 -39 1 -6 6
-14 10 -19 10 -5 0 1 -9 14 -20 20 -16 21 -19 7 -20 -9 0 -19 -4 -22 -9 -3 -4
27 -6 66 -3 52 4 69 2 64 -7 -10 -16 9 -14 23 3 9 11 1 15 -46 22 -50 6 -54 8
-28 14 17 3 32 2 35 -2 3 -4 21 -7 40 -6 19 0 45 -2 58 -6 18 -6 25 -4 29 12
4 18 12 19 146 16 78 -2 174 -5 212 -8 50 -4 62 -3 41 4 -16 5 -65 11 -109 14
-44 2 -82 8 -86 14 -9 13 -85 26 -76 13 3 -7 0 -8 -9 -5 -9 3 -16 10 -16 16 0
5 -4 7 -9 3 -16 -9 -153 -13 -196 -6 -34 6 -25 9 60 16 55 4 132 11 170 15 61
6 64 7 23 9 -27 0 -48 6 -48 11 0 6 21 11 48 11 42 1 44 2 17 9 -55 14 -119
10 -173 -10 -65 -25 -185 -29 -176 -5 7 18 69 36 92 27 13 -5 10 -8 -13 -13
-27 -6 -28 -7 -5 -8 42 -1 54 14 23 29 -16 8 -36 22 -46 32 -10 10 -28 18 -40
18 l-22 1 22 18 c19 16 20 20 7 25 -22 9 -24 8 -18 -8 3 -7 -1 -16 -9 -19 -11
-4 -13 0 -10 14 4 15 0 19 -18 19 -18 0 -20 -3 -11 -12 16 -16 15 -28 -3 -28
-8 0 -15 -5 -15 -11 0 -6 9 -8 20 -4 11 4 20 2 20 -4 0 -6 16 -11 36 -11 44 0
42 -24 -2 -28 -20 -2 -25 0 -16 6 11 7 9 10 -6 14 -27 7 -53 -8 -29 -18 21 -8
21 -14 3 -40 -14 -19 -15 -18 -42 6 -16 15 -25 19 -22 10 2 -8 18 -24 35 -35
17 -11 36 -28 43 -38 10 -17 9 -18 -21 -12 -40 9 -62 13 -72 14 -5 1 -5 5 -2
11 4 7 -3 7 -20 0 -17 -6 -41 -7 -67 -1 -23 6 -46 8 -50 5 -4 -3 -8 0 -8 5 0
6 -11 11 -24 11 -13 0 -31 3 -40 6 -38 15 -9 21 89 20 58 -1 105 2 105 6 0 9
-23 12 -55 9 -26 -2 -105 21 -105 31 0 4 7 8 16 8 31 0 7 25 -27 28 -60 6 -97
61 -41 63 26 0 26 1 5 9 -13 5 -23 14 -23 20 0 14 51 8 57 -7 3 -7 15 -13 27
-13 16 0 18 2 7 9 -15 10 -15 10 54 24 11 3 -16 6 -60 7 -123 3 -145 6 -158
19 -9 9 -2 11 35 6 43 -6 46 -5 41 14 -6 25 12 28 25 5 7 -12 27 -18 68 -20
33 -2 73 -6 89 -9 20 -3 25 -2 15 4 -8 5 -24 11 -35 13 -11 1 -25 9 -31 17 -7
9 -33 15 -65 17 -29 1 -55 7 -57 13 -2 6 -8 11 -13 11 -4 0 -6 -7 -2 -16 5
-13 1 -15 -15 -10 -12 3 -31 9 -42 12 -11 3 -20 11 -20 19 0 15 -51 29 -77 21
-10 -3 -25 -1 -33 5 -25 18 152 3 196 -17 22 -9 53 -18 69 -19 17 -2 53 -6 80
-10 50 -7 50 -7 21 9 -16 9 -38 14 -49 10 -12 -4 -17 -2 -13 4 6 11 -91 33
-168 38 -28 2 -54 8 -60 14 -7 7 -7 10 0 10 13 0 210 -29 244 -36 18 -4 21 -3
10 4 -14 9 -80 20 -242 41 -32 4 -61 11 -65 15 -4 4 16 4 45 0 36 -4 52 -3 52
5 0 6 -18 11 -44 11 -26 0 -46 5 -49 13 -4 10 -6 10 -6 0 -1 -8 -14 -13 -32
-13 -17 0 -28 4 -24 10 4 6 -6 10 -22 11 -15 0 -37 4 -48 10 -13 5 25 7 105 4
103 -3 119 -2 90 7 l-35 12 35 6 35 7 -30 3 c-16 1 -33 2 -36 2 -4 -1 -44 6
-89 14 -45 9 -84 13 -87 11 -2 -3 9 -8 26 -12 17 -4 31 -11 31 -17 0 -6 -8 -7
-17 -4 -9 4 -44 9 -77 12 -34 3 -69 7 -78 10 -10 3 -18 0 -18 -7 0 -9 -3 -9
-15 1 -8 6 -19 9 -25 5 -5 -3 -10 -2 -10 3 0 5 -11 7 -25 4 -14 -2 -25 0 -25
6 0 5 -25 10 -55 11 -47 1 -55 -2 -55 -18z m184 -612 c36 -11 79 -12 72 -1 -3
5 8 6 25 4 18 -3 29 0 29 7 0 15 69 4 88 -13 10 -10 -2 -13 -55 -14 -37 -1
-76 -5 -87 -8 -17 -6 -18 -8 -5 -18 20 -15 18 -40 -3 -44 -10 -2 -18 1 -18 7
0 6 -21 7 -54 4 -52 -5 -55 -5 -49 16 4 18 1 21 -23 22 l-29 1 30 8 30 7 -30
12 c-69 27 -70 29 -10 24 33 -2 73 -9 89 -14z"/>
<path class="svg"
      stroke="#000"
      stroke-miterlimit="10" d="M604 2512 c-15 -12 -10 -56 9 -74 10 -9 44 -19 80 -23 34 -4 121 -15
192 -26 72 -10 137 -19 145 -20 10 0 8 -3 -5 -9 -18 -8 -18 -9 -2 -9 11 -1 30
-10 44 -21 14 -11 33 -20 42 -19 9 0 4 5 -11 11 -16 5 -28 13 -28 17 0 5 12 6
28 3 15 -2 24 -2 21 2 -4 4 -20 9 -35 11 -16 1 -28 8 -26 14 2 10 -14 15 -45
14 -7 -1 -13 5 -13 13 0 8 -8 14 -17 14 -16 0 -16 -2 -3 -11 11 -8 6 -9 -20
-5 -19 3 -59 8 -88 12 -38 5 -52 11 -48 20 3 8 -5 15 -22 18 -15 2 11 3 58 1
l85 -4 -89 19 c-101 21 -116 29 -60 31 33 2 34 3 10 6 -16 3 -40 -1 -53 -8
-19 -10 -26 -10 -40 3 -32 27 -49 33 -29 10 11 -12 14 -22 8 -22 -6 0 -14 5
-17 10 -3 6 -11 10 -16 10 -6 0 -7 -4 -4 -10 3 -5 -3 -10 -14 -10 -23 0 -29
16 -9 22 8 3 7 6 -3 10 -9 3 -20 3 -25 0z"/>
<path class="svg"
      stroke="#000"
      stroke-miterlimit="10" d="M1446 1749 c-61 -14 -56 -20 9 -14 48 5 58 4 48 -6 -7 -7 -34 -13
-60 -15 -26 -1 -70 -3 -98 -4 -27 -1 -59 1 -70 4 -11 4 -8 0 8 -9 15 -8 27
-19 27 -24 0 -11 -50 -11 -70 -1 -29 14 -72 21 -65 10 3 -5 16 -10 28 -11 20
-1 20 -2 -3 -9 -32 -10 -13 -13 75 -10 39 2 104 2 144 2 46 0 70 3 61 8 -8 5
23 7 78 6 54 -2 92 0 92 6 0 5 10 6 23 3 18 -6 20 -5 9 6 -10 11 -16 11 -33 1
-18 -11 -19 -10 -13 12 5 23 -10 45 -24 31 -3 -3 0 -10 8 -15 8 -6 10 -10 4
-10 -20 0 -79 23 -92 37 -15 15 -30 15 -86 2z"/>
<path class="svg"
      stroke="#000"
      stroke-miterlimit="10" d="M2040 1438 c14 -6 20 -12 13 -15 -7 -2 -21 1 -32 7 -15 8 -21 8 -21
0 0 -6 -10 -10 -22 -9 -28 3 -88 -10 -88 -19 0 -4 -11 -12 -24 -18 -28 -13
-53 -3 -41 16 6 10 -3 12 -38 8 -25 -3 -48 -1 -49 4 -2 4 -18 6 -35 2 -18 -4
-30 -10 -27 -15 3 -5 -2 -9 -10 -9 -20 0 -17 -22 4 -32 12 -5 10 -8 -7 -14
-30 -8 -29 -24 1 -24 35 0 87 21 80 32 -3 5 -13 7 -23 3 -13 -5 -14 -4 -3 6 9
10 19 10 45 1 43 -16 68 -16 47 -1 -10 7 -11 9 -2 7 8 -2 12 -8 11 -13 -9 -38
-13 -45 -30 -45 -11 0 -19 -4 -19 -10 0 -5 -6 -10 -12 -10 -7 1 -2 10 11 20
29 25 8 27 -46 5 -32 -14 -35 -17 -22 -30 15 -15 103 -10 93 6 -3 5 19 9 48 8
39 0 48 -3 33 -9 -23 -10 -21 -11 21 -13 22 -1 30 2 27 11 -3 6 0 12 7 12 6 0
9 4 5 10 -3 5 -12 7 -19 4 -7 -3 -19 2 -26 11 -11 13 -8 14 21 9 19 -4 41 -11
50 -15 9 -5 19 -5 23 -2 10 11 59 13 71 3 12 -10 61 -8 72 3 3 4 -5 7 -20 7
-14 0 -30 6 -34 14 -7 13 -16 13 -66 1 -43 -10 -57 -10 -54 -2 2 7 12 14 23
16 10 2 22 8 26 15 6 8 8 7 8 -1 0 -7 8 -13 18 -13 14 0 15 2 2 10 -30 19 1
22 37 3 47 -25 113 -38 113 -23 0 5 -17 10 -37 11 -37 1 -38 1 -10 11 39 14
34 26 -18 40 -25 7 -45 18 -45 25 0 8 -11 13 -27 12 l-28 0 25 -11z"/>
</g>
</svg>
