<?xml version="1.0" standalone="no"?>
<!DOCTYPE svg PUBLIC "-//W3C//DTD SVG 20010904//EN"
 "http://www.w3.org/TR/2001/REC-SVG-20010904/DTD/svg10.dtd">
<svg version="1.0" xmlns="http://www.w3.org/2000/svg"
 width="1182.000000pt" height="664.000000pt" viewBox="0 0 1182.000000 664.000000"
 preserveAspectRatio="xMidYMid meet">
<metadata>
Created by potrace 1.13, written by Peter Selinger 2001-2015
</metadata>
<g transform="translate(0.000000,664.000000) scale(0.100000,-0.100000)"
fill="#000000" stroke="none">
<path d="M0 4640 l0 -2000 23 -4 c12 -3 66 -9 120 -15 64 -6 103 -15 113 -25
9 -10 32 -16 57 -15 33 0 38 2 22 9 -11 5 -30 9 -42 9 -12 1 -25 5 -28 11 -4
6 21 8 72 5 77 -5 167 -22 128 -24 -19 -2 -19 -2 -1 -12 28 -17 3 -28 -64 -30
l-55 -2 80 -12 c72 -11 75 -13 35 -15 l-45 -3 50 -9 c97 -17 231 -29 275 -24
25 2 77 6 117 8 91 4 126 28 41 28 -66 0 -97 8 -76 21 8 5 -10 8 -44 8 -68 -1
-98 12 -53 23 17 4 8 5 -22 2 -35 -4 -53 -2 -53 5 0 6 -18 11 -42 11 -53 0
-88 9 -88 22 0 6 51 8 138 5 76 -3 143 -2 148 1 6 4 14 16 18 27 6 16 9 17 17
5 8 -13 10 -13 19 0 6 10 10 11 10 3 0 -24 22 -13 33 17 6 17 18 31 27 31 44
4 58 7 78 18 12 6 22 16 22 21 0 17 74 32 136 27 90 -7 108 -1 123 39 7 19 10
37 7 42 -2 4 4 18 14 32 l18 24 28 -19 c37 -25 45 -25 67 -3 11 11 32 18 56
18 21 0 41 3 44 6 6 6 -9 43 -22 54 -3 3 -18 21 -33 41 l-27 37 22 20 c12 12
41 40 65 64 23 24 43 38 43 33 1 -6 3 -20 4 -31 5 -50 30 -56 82 -21 23 15 33
30 33 49 0 21 -4 25 -19 21 -15 -4 -20 0 -19 13 0 11 -3 27 -7 37 -5 13 -2 17
14 17 12 0 21 -6 21 -12 0 -8 7 -5 15 6 8 11 15 14 15 8 0 -7 5 -12 12 -12 6
0 4 7 -5 18 -22 24 -22 72 0 117 14 30 15 42 5 83 -14 54 -15 93 -6 139 5 28
8 31 25 20 20 -13 26 -61 9 -72 -14 -9 7 -45 27 -45 13 0 15 9 10 53 -4 44 -2
56 16 75 18 20 19 24 7 32 -8 5 -27 10 -41 10 -20 0 -28 6 -33 25 -4 14 -4 30
-2 34 7 11 86 5 99 -8 5 -5 16 -7 23 -4 8 3 20 0 28 -6 20 -17 73 -2 91 26 10
14 22 22 31 19 8 -3 14 -1 14 5 0 6 5 7 11 3 8 -5 8 -1 0 14 -13 25 -15 72 -2
72 5 0 12 -6 14 -12 4 -10 6 -10 6 -1 1 7 -8 17 -19 23 -12 7 -20 21 -20 38 0
15 -7 36 -15 46 -8 11 -15 28 -15 38 0 10 -6 18 -14 18 -8 0 -18 5 -22 11 -5
8 1 10 20 7 25 -5 26 -4 10 13 -11 13 -26 17 -48 13 -17 -2 -25 -2 -19 2 7 3
13 14 13 25 0 21 17 21 38 2 16 -16 42 -17 42 -3 0 6 10 15 22 21 21 9 21 9
-5 5 -20 -2 -25 0 -18 7 20 20 11 24 -41 19 -29 -2 -50 -1 -46 3 4 5 21 8 38
7 16 0 30 4 30 9 0 5 6 9 13 9 9 0 14 12 15 33 2 39 -6 67 -18 67 -5 0 -7 -6
-4 -14 3 -9 -4 -15 -20 -18 -31 -6 -41 15 -18 38 12 13 13 19 4 22 -6 2 -12 9
-12 15 -1 19 -53 75 -78 82 -20 6 -22 4 -17 -17 6 -22 4 -24 -27 -20 -18 2
-44 -1 -58 -6 -23 -9 -23 -9 12 -16 28 -5 36 -11 35 -26 -1 -16 -9 -20 -34
-20 -17 0 -35 -4 -38 -10 -3 -5 -18 -10 -33 -11 -26 0 -26 -1 -4 -9 30 -13 28
-17 -15 -29 -45 -13 -52 -8 -28 20 17 17 17 22 5 29 -8 6 -25 10 -37 10 -13 0
-23 5 -23 11 0 6 -7 17 -15 26 -9 8 -13 18 -9 22 4 3 9 0 11 -6 13 -36 52 6
53 55 0 20 4 31 10 27 6 -3 10 1 10 11 0 14 3 14 15 4 13 -11 19 -10 35 7 10
12 16 25 12 29 -4 5 2 1 13 -8 17 -14 22 -14 33 -2 11 12 10 14 -3 14 -9 0
-13 4 -10 10 9 15 71 12 85 -5 10 -12 17 -12 34 -3 11 6 45 10 74 9 44 -2 57
2 85 25 27 22 33 24 35 10 5 -22 19 -20 27 4 3 11 13 20 21 20 8 0 14 9 14 20
0 25 20 27 21 3 1 -19 4 -13 24 44 4 13 12 20 18 16 5 -3 7 -1 4 5 -10 16 4
44 19 38 7 -3 15 0 18 7 2 7 5 2 5 -10 1 -16 5 -21 17 -16 9 3 11 8 6 12 -16
10 -2 57 23 81 15 14 39 23 67 25 24 2 48 4 53 5 6 1 13 1 18 0 4 -1 10 -3 15
-5 4 -1 14 -4 22 -7 46 -18 83 -27 91 -22 5 3 19 -1 31 -8 13 -6 32 -13 43
-15 10 -2 22 -8 26 -14 3 -6 18 -7 34 -3 18 5 30 2 36 -7 7 -11 9 -10 9 4 0 9
7 17 15 17 8 0 15 4 15 9 0 5 7 12 15 15 11 4 15 0 13 -11 -2 -10 5 -19 16
-21 14 -3 17 0 13 13 -6 15 3 16 96 12 56 -2 112 -7 123 -11 17 -6 22 -3 27
13 3 12 9 21 14 19 4 -1 32 1 62 6 40 5 56 4 62 -6 7 -10 9 -10 9 0 0 10 4 10
20 0 15 -10 23 -10 28 -2 4 8 50 12 127 13 149 2 189 4 195 12 10 12 100 19
100 8 0 -7 7 -8 18 -4 9 4 24 8 32 8 8 0 18 5 22 11 5 7 8 4 8 -8 0 -14 5 -17
25 -12 14 4 34 15 45 26 18 18 19 18 56 -1 21 -10 53 -19 71 -19 17 0 35 -4
38 -10 3 -5 24 -10 46 -10 25 0 51 -8 69 -21 17 -13 35 -19 46 -15 20 8 184
-14 184 -24 0 -4 10 -11 23 -15 12 -4 28 -9 35 -11 6 -2 18 -5 25 -7 8 -1 25
-10 38 -18 36 -24 66 -31 125 -30 30 0 54 -4 54 -9 0 -6 7 -10 15 -10 9 0 12
-6 8 -17 -3 -10 -3 -15 2 -11 4 4 13 2 21 -5 46 -41 49 -42 100 -46 7 -1 15
-8 18 -17 3 -8 2 -12 -3 -9 -5 3 -12 1 -16 -5 -3 -5 -14 -10 -24 -10 -10 0
-30 -11 -45 -25 -15 -14 -32 -25 -37 -25 -6 0 -9 -6 -6 -12 4 -14 77 -20 77
-7 0 4 10 5 22 1 14 -3 19 -2 14 6 -5 8 4 12 29 12 22 0 38 -6 41 -15 8 -19
33 -19 40 0 5 12 10 13 20 4 11 -9 22 -7 48 5 28 13 39 14 60 5 14 -7 26 -15
26 -18 0 -3 12 -19 26 -36 14 -16 21 -31 15 -33 -5 -2 -7 -10 -4 -18 3 -9 19
-14 43 -14 22 0 42 -5 46 -12 5 -8 2 -9 -12 -4 -10 4 -78 10 -149 13 -112 5
-145 3 -235 -17 -162 -35 -280 -81 -280 -110 0 -9 -5 -21 -12 -28 -9 -9 -9
-12 1 -12 7 0 11 -6 8 -15 -4 -8 -2 -17 3 -20 6 -4 10 2 11 12 0 11 5 5 12
-14 16 -42 37 -64 37 -38 0 10 3 16 6 13 3 -4 21 0 40 8 20 8 34 10 34 4 0 -5
7 -10 15 -10 8 0 14 -3 14 -7 -3 -21 2 -33 16 -33 8 0 15 -8 15 -17 0 -13 3
-14 8 -5 6 9 14 7 30 -11 14 -15 18 -27 12 -37 -7 -12 -4 -109 5 -118 6 -6 34
11 30 18 -3 4 2 14 11 21 14 12 20 9 43 -17 14 -17 34 -34 44 -37 9 -4 17 -16
17 -27 0 -11 6 -20 13 -20 8 0 7 -3 -3 -10 -21 -13 -9 -20 47 -26 37 -4 53 -1
62 10 7 8 18 13 26 10 7 -3 16 -1 20 5 3 6 17 11 30 11 12 0 25 7 29 15 3 8
14 15 25 15 27 0 16 -28 -15 -41 -13 -4 -24 -15 -24 -23 0 -7 -6 -16 -14 -19
-9 -4 -12 -14 -9 -27 4 -13 -3 -33 -16 -51 -28 -38 -21 -62 14 -53 30 7 117
-14 109 -27 -3 -5 -13 -5 -22 0 -9 4 -33 11 -52 14 -40 7 -14 -8 33 -17 15 -4
27 -11 27 -17 0 -7 -7 -8 -17 -4 -10 4 -31 9 -48 11 l-30 4 33 -10 c45 -15 40
-24 -10 -17 l-43 6 35 -14 c19 -7 29 -14 23 -14 -26 -2 -12 -17 17 -19 20 -2
30 2 30 12 0 14 48 32 58 21 3 -3 -3 -8 -15 -11 -25 -7 -43 -43 -44 -92 0 -20
-3 -31 -6 -24 -7 18 -21 15 -28 -7 -3 -11 3 -34 15 -55 21 -35 19 -62 -3 -50
-7 3 -3 -3 8 -13 16 -15 19 -28 17 -73 -2 -41 1 -57 13 -66 9 -7 17 -28 18
-47 2 -34 49 -117 66 -117 6 0 12 -8 16 -19 3 -10 33 -41 66 -70 34 -28 54
-51 45 -51 -9 0 -16 -4 -16 -9 0 -5 16 -9 36 -8 24 1 39 -5 45 -16 15 -26 28
-20 26 11 -2 21 4 30 30 42 17 8 34 24 37 35 5 17 8 18 16 5 6 -10 5 -17 -5
-23 -20 -11 -20 -38 0 -31 8 4 15 1 15 -5 0 -15 25 -14 58 3 15 7 43 16 62 19
35 6 35 6 10 -8 -14 -8 -35 -14 -48 -15 -14 0 -21 -4 -16 -11 3 -6 0 -15 -7
-20 -9 -6 9 -7 46 -4 61 6 59 -1 -7 -25 -28 -10 -38 -30 -15 -30 6 0 27 4 46
10 31 9 33 8 27 -14 -5 -21 -1 -25 38 -35 25 -6 52 -8 62 -4 17 6 53 -30 54
-53 0 -18 -32 -27 -42 -12 -5 9 -8 6 -8 -10 0 -21 -18 -26 -31 -8 -4 5 -12 5
-18 2 -8 -5 -4 -14 11 -26 l23 -18 -27 -11 c-16 -6 -28 -15 -28 -20 0 -15 -81
-91 -91 -85 -5 3 -9 16 -9 30 0 17 -5 24 -20 24 -13 0 -18 5 -14 15 4 10 0 15
-11 15 -9 0 -14 3 -11 8 2 4 -1 15 -8 24 -13 17 -56 15 -56 -4 0 -5 8 -4 19 2
13 7 22 7 26 0 3 -5 -1 -10 -9 -10 -9 0 -16 -5 -16 -11 0 -6 7 -9 15 -5 8 3
15 4 15 2 0 -9 -91 -46 -165 -66 -125 -35 -136 -39 -80 -33 28 3 88 19 135 35
46 16 93 28 103 26 18 -3 18 -4 -3 -31 -12 -15 -26 -24 -32 -21 -6 4 -8 -1 -3
-15 5 -16 2 -21 -11 -21 -10 0 -14 -3 -11 -7 8 -7 -34 -39 -46 -35 -16 5 -43
-24 -42 -47 0 -20 -10 -27 -64 -46 -85 -31 -100 -49 -20 -25 85 26 116 26 69
0 -19 -11 -43 -22 -52 -26 -10 -3 -18 -13 -18 -21 0 -12 8 -14 33 -10 17 3 40
8 50 12 9 4 17 3 17 -3 0 -5 -13 -15 -30 -22 -45 -19 -25 -33 36 -27 30 3 54
2 54 -3 0 -14 -107 -60 -156 -67 -68 -9 -54 -27 15 -19 91 10 88 -9 -6 -44
-41 -16 -43 -34 -3 -28 17 3 30 1 30 -4 0 -4 -5 -8 -11 -8 -14 0 -39 -26 -39
-40 0 -8 10 -10 25 -8 35 7 42 -10 10 -22 -14 -5 -28 -17 -31 -25 -4 -8 -15
-15 -25 -15 -24 0 -25 -20 -1 -21 14 0 14 -2 -3 -9 -11 -5 -14 -9 -6 -9 23 -1
-6 -28 -37 -34 -28 -5 -49 -12 -174 -58 -42 -16 -86 -29 -97 -29 -12 0 -21 -4
-21 -10 0 -12 0 -12 36 -1 16 5 56 16 89 26 33 9 81 23 106 31 26 8 55 14 64
14 31 0 -2 -27 -48 -38 -23 -6 -60 -15 -82 -21 -48 -12 -161 -54 -171 -63 -7
-8 47 6 126 32 69 23 176 37 166 22 -3 -6 -25 -13 -49 -17 -23 -4 -79 -20
-124 -36 -45 -16 -89 -29 -97 -29 -9 0 -16 -5 -16 -11 0 -7 8 -9 23 -4 47 15
143 35 167 34 16 0 7 -6 -25 -15 -27 -8 -59 -19 -70 -25 -11 -5 -51 -19 -90
-30 -147 -43 -164 -46 -168 -35 -3 7 -11 4 -23 -7 -18 -16 -17 -17 11 -17 17
0 65 11 108 25 43 13 88 26 100 28 12 2 29 6 37 9 40 15 110 30 126 26 12 -2
2 -8 -26 -16 -25 -8 -62 -22 -82 -33 -20 -10 -47 -19 -60 -19 -34 0 -198 -52
-198 -63 0 -5 6 -7 13 -4 6 2 62 17 122 31 61 15 118 32 128 37 9 5 39 12 65
14 l47 5 -47 -14 c-26 -7 -71 -23 -100 -34 -29 -12 -94 -33 -145 -48 -51 -15
-90 -31 -87 -35 2 -4 37 1 77 13 86 24 171 38 160 27 -4 -4 -28 -12 -52 -18
-58 -13 -191 -64 -191 -74 0 -9 36 -1 113 24 31 10 64 19 72 19 21 0 19 -20
-2 -21 -53 -2 -163 -36 -163 -50 0 -13 28 -11 75 6 22 8 58 14 80 14 35 0 30
-4 -53 -30 -51 -16 -90 -34 -87 -38 5 -8 78 3 97 15 4 3 29 9 56 14 26 4 62
13 80 18 17 6 32 9 32 7 0 -11 -66 -36 -146 -56 -49 -13 -102 -31 -119 -42
-16 -10 -21 -16 -10 -12 11 4 38 11 60 16 22 5 51 11 65 14 14 3 45 8 70 12
54 7 47 -3 -27 -42 -40 -21 -56 -24 -71 -16 -16 8 -23 6 -38 -11 -11 -12 -13
-18 -6 -14 8 5 12 0 12 -13 0 -26 -27 -41 -62 -34 -15 3 -40 2 -55 -2 -24 -6
-25 -8 -11 -16 18 -10 15 -33 -7 -55 -8 -9 -15 -8 -28 1 -9 6 -13 15 -9 19 4
4 0 6 -8 4 -8 -1 -21 -15 -29 -30 -19 -39 -28 -35 -34 14 -13 101 -26 138 -49
138 -6 0 -8 -7 -4 -15 8 -23 -31 -60 -49 -45 -9 7 -15 8 -19 1 -8 -13 -29 -5
-94 36 -49 31 -53 37 -48 61 l7 27 -26 -30 -26 -30 5 35 6 35 -20 -25 c-10
-14 -25 -32 -33 -41 -7 -9 -12 -25 -10 -37 3 -25 -7 -28 -26 -10 -11 11 -12 9
-7 -8 5 -16 0 -23 -19 -32 -15 -7 -23 -17 -20 -22 4 -6 -6 -10 -21 -10 -15 0
-24 -3 -20 -7 3 -4 -15 -17 -41 -30 -61 -30 -114 -69 -106 -77 4 -3 1 -6 -5
-6 -6 0 -25 -23 -43 -50 -18 -28 -36 -50 -41 -50 -4 0 -8 -10 -9 -22 0 -19 -2
-20 -7 -6 -5 12 -12 14 -21 9 -16 -10 -6 -31 15 -31 10 0 14 -12 14 -41 0 -35
-3 -40 -17 -34 -13 4 -12 1 5 -15 12 -12 20 -25 18 -29 -3 -5 12 -15 34 -24
39 -15 40 -15 60 10 11 14 20 21 20 15 0 -6 3 -17 6 -25 3 -9 0 -17 -8 -20 -7
-2 -5 -3 4 -2 10 2 21 -1 24 -6 3 -5 0 -9 -6 -9 -15 0 -44 -29 -37 -37 3 -3
14 2 23 11 9 10 23 15 30 12 8 -3 14 -1 14 4 0 6 7 10 15 10 9 0 15 -7 13 -16
-2 -10 3 -19 10 -21 8 -3 10 1 6 11 -11 27 13 45 49 37 41 -10 57 -4 57 20 0
10 1 19 3 19 16 0 86 -43 91 -56 5 -14 1 -15 -29 -10 -28 6 -35 4 -35 -9 0 -8
-5 -15 -11 -15 -7 0 -9 -9 -6 -21 4 -15 2 -19 -9 -15 -8 3 -14 1 -14 -5 0 -6
-6 -9 -14 -6 -8 3 -17 -1 -20 -9 -3 -7 -2 -13 2 -13 17 3 32 -2 32 -10 0 -5
-9 -7 -19 -4 -18 5 -66 -16 -101 -44 -8 -6 -19 -12 -25 -13 -41 -8 -56 -21
-49 -43 3 -12 3 -19 -1 -15 -5 4 -14 3 -22 -4 -21 -17 -27 -1 -10 26 15 22 15
25 1 30 -24 9 -31 7 -14 -4 13 -9 13 -11 0 -20 -8 -5 -11 -10 -7 -10 5 0 2 -6
-6 -14 -8 -8 -24 -12 -42 -9 -20 4 -26 3 -20 -6 4 -7 13 -10 21 -7 7 3 16 1
19 -4 8 -14 -18 -18 -39 -6 -13 8 -20 8 -22 1 -3 -6 -21 -9 -41 -7 -35 4 -36
4 -20 -12 9 -10 21 -14 27 -11 5 3 10 2 10 -4 0 -15 -21 -25 -29 -13 -3 5 -22
12 -41 14 -30 3 -35 0 -34 -18 0 -15 -4 -20 -18 -17 -9 3 -25 -2 -34 -12 -16
-15 -15 -17 5 -22 11 -3 18 -9 15 -14 -3 -5 2 -9 10 -9 14 0 20 11 17 32 0 4
6 5 14 2 8 -4 15 -1 15 5 0 6 8 11 18 12 14 0 14 2 -3 9 -18 8 -18 9 -2 9 10
1 28 -4 39 -10 17 -9 23 -8 30 5 5 9 16 16 24 16 10 0 7 -7 -10 -23 -14 -13
-23 -27 -19 -30 3 -4 2 -7 -3 -7 -6 0 -15 5 -20 10 -6 6 -19 8 -28 4 -14 -5
-15 -9 -5 -15 10 -6 9 -10 -6 -15 -11 -4 -24 -13 -28 -21 -4 -7 -21 -13 -36
-13 -29 0 -49 -24 -30 -35 11 -7 3 -25 -12 -25 -5 0 -9 6 -9 14 0 21 -17 29
-36 18 -15 -8 -14 -11 7 -25 l23 -17 -32 -11 c-18 -6 -29 -15 -26 -20 3 -5 -6
-9 -20 -9 -14 0 -26 -4 -26 -9 0 -22 78 -29 98 -9 6 6 14 9 17 6 10 -10 -61
-48 -88 -48 -14 0 -29 -5 -33 -11 -4 -8 1 -9 17 -5 21 6 22 6 6 -4 -38 -24
-78 -30 -94 -15 -19 19 -33 19 -33 0 0 -13 -4 -14 -20 -5 -20 10 -23 29 -7 41
5 3 31 2 59 -3 53 -10 73 -4 48 13 -13 9 -13 10 1 6 9 -3 22 -1 30 4 10 6 5
10 -18 15 -18 4 -33 10 -33 14 0 15 -39 18 -44 4 -3 -8 -13 -14 -22 -14 -13 0
-14 3 -4 15 12 14 6 35 -9 35 -5 0 -11 -9 -14 -20 -3 -12 -14 -20 -27 -20 -11
0 -18 5 -15 10 3 6 12 10 20 10 8 0 11 7 8 19 -5 22 17 22 59 2 16 -8 34 -10
45 -6 14 6 8 10 -26 17 -40 9 -42 11 -28 25 9 9 30 16 46 15 32 -1 44 17 14
19 -10 1 -25 2 -33 3 -18 1 -40 -16 -33 -26 2 -5 -5 -8 -16 -8 -12 0 -21 5
-21 10 0 6 -7 10 -15 10 -18 0 -20 -16 -2 -23 6 -3 -6 -6 -28 -6 -22 0 -47 4
-55 9 -8 5 -10 10 -5 10 6 0 2 5 -8 11 -9 6 -26 8 -36 4 -14 -4 -21 0 -26 15
-4 13 -15 20 -31 20 -13 0 -24 5 -24 11 0 5 -5 7 -10 4 -6 -3 -10 -1 -10 4 0
6 7 11 16 11 8 0 12 4 9 10 -4 6 5 10 19 10 14 0 26 -4 26 -9 0 -14 71 -24 83
-12 8 8 5 11 -8 12 -16 1 -15 3 5 9 19 6 29 3 43 -12 17 -20 17 -20 17 6 0 19
-7 29 -24 36 -29 11 -86 10 -86 -2 0 -4 4 -8 10 -8 5 0 7 -7 4 -15 -4 -8 -11
-15 -16 -15 -6 0 -8 7 -4 15 3 8 2 16 -2 16 -44 7 -72 7 -68 1 2 -4 -14 -8
-35 -8 -32 -1 -39 2 -34 13 4 12 -1 14 -19 11 -15 -3 -27 0 -30 8 -8 20 -66
17 -82 -3 -12 -17 -13 -17 -26 0 -13 18 -15 18 -38 -1 -22 -18 -23 -21 -7 -27
24 -10 21 -23 -5 -21 -13 1 -40 -1 -61 -5 l-39 -7 7 34 c6 36 -11 54 -37 38
-23 -14 -61 -16 -52 -3 5 9 1 10 -14 7 -15 -4 -22 -2 -22 8 0 22 -20 17 -47
-12 -19 -20 -30 -25 -51 -20 -21 5 -24 4 -12 -4 13 -9 12 -11 -3 -8 -10 2 -18
7 -17 12 1 5 -17 17 -40 27 -34 15 -39 21 -28 32 7 8 21 12 32 9 13 -4 17 -1
12 7 -6 8 3 10 32 5 23 -4 48 -2 58 5 15 9 10 10 -26 5 -35 -4 -42 -3 -30 6
13 9 12 10 -5 6 -11 -3 -33 1 -49 9 -15 8 -33 12 -40 8 -8 -4 -8 -3 0 6 9 10
21 10 50 2 49 -14 84 -14 84 -1 0 5 -8 9 -17 8 -10 -1 -29 0 -43 1 l-25 1 25
20 c14 11 34 20 45 20 14 0 21 7 22 21 2 20 1 20 -16 5 -10 -9 -23 -16 -29
-16 -20 0 -13 20 10 29 21 7 21 8 -7 15 -21 5 -32 3 -40 -7 -11 -15 -85 -40
-94 -32 -8 9 8 17 34 17 30 1 31 6 8 24 -17 13 -17 13 0 14 10 0 16 4 12 10
-3 5 -11 7 -18 5 -7 -2 -25 -6 -42 -9 -24 -5 -27 -4 -12 4 20 13 14 32 -8 23
-11 -4 -13 -1 -9 11 5 14 2 16 -20 10 -20 -5 -26 -3 -24 7 4 16 -54 14 -87 -4
-18 -9 -19 -9 -6 6 7 10 21 17 30 17 9 0 23 4 30 9 10 6 0 8 -29 4 -33 -5 -41
-3 -35 6 5 9 2 12 -11 9 -12 -2 -18 -11 -16 -22 3 -14 -1 -17 -14 -12 -22 8
-84 -14 -84 -31 0 -7 -4 -13 -10 -13 -5 0 -10 9 -10 20 0 18 11 25 33 21 5 -1
6 3 2 9 -3 5 3 10 14 10 12 0 21 4 21 8 0 4 -11 8 -25 8 -14 0 -25 -4 -25 -8
0 -5 -9 -4 -19 2 -25 13 -34 13 -26 0 3 -6 0 -10 -7 -10 -8 0 -6 -5 5 -11 21
-12 13 -29 -14 -29 -23 0 -24 -6 -3 -27 13 -13 22 -14 53 -4 21 6 48 11 60 11
13 0 20 4 16 11 -5 7 3 9 21 7 20 -2 30 -9 32 -23 2 -13 0 -16 -5 -8 -8 12
-61 5 -128 -16 -23 -7 -14 -8 40 -5 62 3 66 2 30 -6 -22 -6 -78 -15 -124 -20
-47 -6 -87 -13 -90 -16 -3 -4 12 -4 34 -1 31 5 36 4 22 -4 -10 -6 -35 -13 -55
-15 -20 -3 -38 -7 -42 -11 -3 -3 22 -3 55 1 36 4 63 12 68 21 6 12 23 14 75
11 47 -3 61 -2 47 5 -17 8 -16 9 7 6 15 -2 25 0 22 5 -3 5 0 9 7 7 25 -3 40 1
35 9 -6 10 37 10 45 0 3 -5 18 1 32 12 15 12 32 18 38 14 8 -5 7 -10 -5 -16
-28 -16 -18 -34 27 -48 58 -19 72 -34 22 -25 -22 4 -45 11 -51 16 -14 11 -44
1 -44 -15 0 -7 -3 -6 -9 2 -7 11 -10 11 -22 0 -18 -17 -159 -58 -198 -58 -16
0 -33 -5 -36 -10 -4 -6 -12 -4 -21 5 -9 8 -33 15 -55 15 -21 0 -39 5 -39 11 0
6 9 8 23 3 12 -3 18 -3 14 2 -10 11 -159 5 -171 -7 -6 -5 6 -9 32 -9 42 0 46
-4 45 -48 -1 -6 3 -12 7 -12 12 0 20 26 15 50 -2 11 0 20 6 20 5 0 9 -8 9 -18
0 -14 7 -17 39 -14 21 2 42 -1 45 -7 5 -7 -3 -9 -25 -4 -22 4 -30 3 -25 -5 3
-6 -3 -13 -16 -15 -13 -3 0 -3 27 -1 28 2 74 10 103 18 28 8 52 10 52 6 0 -5
-17 -12 -37 -15 -21 -4 -52 -11 -70 -16 -17 -6 -54 -11 -82 -11 -50 -1 -74
-18 -26 -18 14 0 25 -5 25 -11 0 -6 17 -8 48 -5 34 4 40 3 22 -3 -38 -13 -84
-13 -99 2 -11 10 -13 9 -9 -3 3 -8 17 -16 31 -18 15 -2 27 -7 27 -12 0 -4 -15
-5 -33 -1 l-32 8 2 -51 c1 -28 2 -57 2 -63 1 -7 10 -13 21 -13 14 0 18 5 14
18 -4 12 -3 13 3 4 5 -7 29 -12 54 -12 24 0 77 1 117 0 41 0 79 3 85 7 19 13
97 30 91 21 -9 -13 6 -9 22 7 9 8 22 15 31 15 25 0 9 -24 -30 -45 -43 -23 -46
-32 -14 -38 14 -3 8 -5 -15 -6 -20 0 -40 -5 -43 -11 -3 -5 -16 -10 -28 -9 -20
0 -20 1 -4 8 17 6 17 8 3 20 -10 8 -36 12 -76 9 -33 -1 -60 0 -60 4 0 6 -38 6
-154 -1 -19 -1 -19 -1 -1 -14 14 -11 15 -16 5 -22 -8 -5 -11 -4 -7 2 3 5 -14
9 -43 9 -27 0 -47 -3 -44 -8 3 -4 0 -8 -5 -8 -6 0 -11 4 -11 9 0 5 -19 7 -42
4 -24 -3 -40 -3 -37 0 4 6 51 13 102 16 5 1 5 6 2 11 -3 6 3 10 14 10 17 0 21
6 21 35 0 19 5 35 10 35 6 0 10 5 10 10 0 6 -11 10 -25 10 -18 0 -25 5 -25 20
0 11 7 20 16 20 8 0 12 -4 9 -10 -3 -5 -1 -10 4 -10 13 0 14 10 3 27 -6 9 -24
10 -72 3 -35 -5 -66 -8 -68 -6 -7 8 58 24 76 19 11 -2 23 1 27 8 6 9 -3 11
-41 6 -27 -3 -54 -6 -59 -7 -25 -5 -75 1 -75 9 0 5 21 6 48 4 60 -7 46 13 -19
26 -43 9 -43 9 -9 10 27 1 31 4 20 11 -8 5 -25 10 -37 10 -12 0 -24 4 -27 8
-3 5 16 7 43 4 33 -3 51 0 56 8 6 10 1 11 -19 6 -15 -4 -26 -2 -26 4 0 5 10
10 23 10 21 1 57 21 57 32 0 3 -20 3 -45 0 -29 -3 -45 -1 -45 6 0 8 11 9 32 5
22 -4 29 -3 24 5 -4 7 -18 12 -32 12 -13 0 -24 4 -24 9 0 5 -8 12 -17 14 -10
2 -3 3 15 1 17 -1 32 1 32 5 0 5 -20 11 -44 13 -25 3 -52 13 -61 22 -21 20
-58 30 -89 22 -19 -5 -24 -11 -20 -30 3 -19 -1 -25 -22 -30 -14 -4 -40 -2 -57
5 -23 8 -55 8 -112 1 -44 -5 -87 -6 -95 -1 -16 9 -13 9 70 15 19 1 69 5 110 8
41 3 77 6 80 6 16 1 -29 20 -50 21 -20 1 -18 3 10 9 22 5 37 5 41 -2 4 -6 12
-7 18 -4 6 4 9 11 6 16 -3 4 5 6 17 2 16 -4 20 -2 15 10 -10 26 41 41 102 30
28 -5 51 -5 51 -1 0 5 -13 9 -28 9 -69 0 -175 52 -154 75 4 4 -7 5 -25 2 -23
-5 -31 -3 -27 6 6 17 84 20 84 4 0 -8 3 -8 8 -2 4 6 36 18 72 27 l65 16 -60
-3 c-33 -3 -80 -7 -105 -10 -55 -7 -96 -12 -131 -14 -31 -1 -35 -31 -7 -43 9
-4 22 -17 29 -30 12 -22 11 -23 -8 -6 -11 10 -35 19 -54 19 -19 1 -26 3 -16 6
9 2 17 8 17 13 0 12 -47 40 -80 47 -29 5 -52 23 -31 23 6 0 11 5 11 10 0 6
-10 10 -23 9 -12 -1 -33 -1 -47 0 l-25 2 25 10 c34 14 83 3 113 -25 37 -34 47
-36 128 -21 41 8 95 17 122 20 26 4 47 11 47 17 0 6 -14 8 -37 3 -45 -8 -40
-8 -78 -6 -21 1 -26 4 -16 10 11 7 10 11 -5 19 -31 16 -94 24 -94 12 0 -5 -7
-10 -15 -10 -8 0 -14 6 -12 13 1 6 -7 12 -18 13 -29 0 -56 15 -49 25 12 20 -8
30 -27 13 -17 -15 -19 -15 -19 -1 0 9 12 18 30 22 17 4 30 11 30 17 0 6 7 8
15 4 8 -3 15 -1 15 4 0 6 -9 10 -20 10 -22 0 -27 15 -8 26 7 5 5 11 -7 21 -17
12 -16 13 16 13 l34 0 -32 16 c-30 15 -112 94 -97 94 21 0 -44 50 -65 51 -23
0 -24 1 -6 8 39 15 90 22 78 10 -8 -8 -4 -17 14 -35 13 -14 30 -24 36 -22 16
3 57 -12 57 -20 0 -4 15 -15 33 -24 73 -38 108 -50 123 -44 12 4 14 1 9 -14
-5 -14 -2 -20 9 -20 9 0 16 -4 16 -10 0 -5 7 -10 16 -10 8 0 22 -7 30 -15 9
-8 26 -15 39 -15 13 0 30 -6 37 -13 7 -8 28 -14 45 -15 17 0 44 -8 60 -17 l28
-16 -30 6 -30 6 33 -30 c18 -17 37 -31 42 -31 4 0 10 -5 12 -12 3 -7 21 -11
46 -10 31 2 44 -1 48 -13 3 -8 12 -15 20 -15 8 0 14 -4 14 -10 0 -5 7 -10 15
-10 8 0 15 -6 16 -12 0 -7 4 -4 8 7 6 14 4 22 -8 26 -13 5 -11 8 8 18 17 9 26
10 34 2 7 -7 7 -11 1 -11 -5 0 -10 -9 -10 -20 0 -13 6 -18 21 -17 14 1 20 -4
19 -15 -1 -12 5 -18 20 -18 11 0 30 -8 41 -16 20 -16 20 -16 -2 -9 -18 5 -22
3 -17 -8 8 -21 39 -30 115 -32 36 -1 70 -5 76 -8 7 -4 14 -3 18 3 3 5 15 10
26 10 10 0 19 5 19 11 0 6 -9 9 -19 6 -14 -3 -18 -1 -14 9 4 11 -2 12 -28 7
-27 -5 -31 -4 -26 10 7 19 -23 32 -54 22 -15 -5 -20 -3 -17 6 3 8 13 16 23 18
10 2 25 9 33 17 11 12 11 14 -5 12 -44 -3 -54 2 -49 25 l6 22 -11 -22 c-13
-25 -32 -32 -23 -8 4 8 2 15 -2 15 -15 -1 -44 -27 -37 -33 3 -4 1 -7 -6 -7 -7
0 -9 9 -6 23 5 17 1 26 -17 34 -38 18 -58 23 -58 13 0 -4 -14 -1 -31 7 -17 9
-42 15 -55 15 -13 0 -27 4 -30 9 -3 5 -14 9 -25 9 -11 0 -17 5 -14 10 3 6 -1
10 -9 10 -9 0 -16 5 -16 10 0 6 -6 10 -14 10 -8 0 -16 6 -19 14 -4 9 -14 12
-26 9 -12 -3 -21 -1 -21 4 0 6 -21 18 -47 27 -27 10 -57 21 -68 26 -11 5 -44
14 -73 20 -28 7 -55 16 -58 21 -3 5 -15 9 -27 10 -21 1 -21 1 2 8 21 6 22 8 7
20 -8 7 -14 17 -11 21 7 11 -42 49 -74 57 -14 3 -29 10 -32 16 -4 5 -18 10
-33 10 -57 4 -18 27 45 27 21 0 39 5 39 10 0 6 -4 10 -8 10 -5 0 -17 7 -28 16
-18 15 -18 15 8 10 14 -3 37 -2 50 3 21 9 19 10 -14 10 -35 1 -54 12 -41 24 3
4 14 2 24 -4 13 -7 19 -6 19 1 0 6 5 8 10 5 6 -3 10 -2 10 3 0 4 -16 14 -35
22 -19 8 -35 18 -35 23 0 5 -6 4 -14 -2 -7 -6 -22 -8 -31 -4 -10 3 -16 2 -13
-3 4 -5 -29 -10 -75 -11 -81 -2 -81 -2 -44 11 49 18 53 23 26 31 -17 6 -19 9
-8 16 9 6 1 7 -20 2 -29 -5 -33 -4 -28 10 6 15 1 16 -36 12 -31 -4 -37 -3 -22
4 27 13 88 13 119 1 16 -6 27 -6 31 0 3 6 16 1 27 -10 12 -11 33 -20 47 -20
14 0 46 -14 70 -30 24 -17 48 -30 53 -30 4 0 8 -6 8 -13 0 -7 9 -18 20 -25 13
-7 20 -8 20 -2 0 6 -7 13 -15 16 -14 6 -13 8 2 20 14 11 15 13 2 8 -9 -3 -29
6 -47 20 -16 15 -37 26 -46 26 -9 0 -16 7 -16 16 0 8 -5 12 -10 9 -6 -4 -24
-4 -40 0 -27 6 -28 7 -12 26 20 23 47 26 38 4 -4 -11 2 -15 22 -15 21 0 24 2
12 10 -12 8 -11 10 8 10 12 0 22 -4 22 -10 0 -5 5 -10 11 -10 5 0 7 5 3 12 -5
8 6 9 42 4 48 -6 49 -6 29 13 -24 24 -75 38 -75 22 0 -13 -46 -15 -54 -2 -4 5
2 7 13 4 10 -3 21 2 24 10 8 22 -60 54 -84 39 -13 -8 -18 -8 -22 2 -9 22 3 26
47 19 23 -3 38 -3 35 0 -3 4 -39 11 -80 17 -41 6 -75 15 -77 20 -2 6 -13 9
-25 9 -17 -1 -18 -2 -4 -6 9 -2 17 -9 17 -15 0 -6 -10 -8 -22 -4 -13 3 -36 6
-53 6 -23 0 -27 3 -15 10 10 6 11 10 3 10 -7 0 -13 4 -13 9 0 5 21 9 47 9 56
2 67 10 54 44 -7 20 -17 25 -46 26 -20 1 -40 4 -44 6 -9 6 -44 -28 -36 -35 10
-11 -149 -8 -259 4 -87 10 -122 18 -131 30 -6 9 -23 21 -36 27 -18 8 -7 9 46
4 39 -3 78 -10 87 -15 9 -5 29 -9 45 -8 24 0 25 1 8 8 -11 5 -24 6 -29 3 -5
-3 -7 7 -4 21 7 38 -15 52 -78 49 -30 -1 -54 2 -54 8 0 5 -14 7 -32 4 -31 -6
-32 -6 -13 9 13 10 31 13 54 9 25 -4 32 -2 27 7 -5 7 -17 9 -29 5 -22 -6 -22
-6 -2 10 l20 16 -20 -7 c-11 -3 -30 -13 -42 -21 -12 -7 -31 -11 -42 -7 -12 4
-30 0 -42 -9 l-21 -14 23 -4 c23 -4 23 -5 4 -13 -11 -5 -23 -13 -27 -18 -3 -6
-27 -10 -51 -10 -34 1 -44 -2 -41 -12 4 -10 -1 -12 -15 -8 -12 3 -27 -2 -36
-11 -9 -9 -27 -16 -40 -16 -13 0 -27 -4 -30 -10 -3 -5 -1 -10 4 -10 19 0 12
-20 -6 -21 -12 -1 -9 -4 7 -8 24 -8 24 -8 -10 -19 -71 -23 -166 -58 -187 -70
-12 -7 -28 -12 -35 -12 -8 0 -31 -9 -53 -20 -22 -11 -47 -18 -56 -15 -15 5
-17 -1 -16 -45 0 -34 5 -50 14 -50 7 0 13 7 13 15 0 8 5 15 10 15 13 0 13 -47
1 -55 -5 -3 -8 -18 -7 -33 3 -27 4 -27 79 -28 78 -1 163 -19 174 -37 6 -10 0
-9 -66 9 -17 5 -22 4 -17 -4 4 -7 14 -12 22 -12 8 0 14 -4 14 -10 0 -18 -29
-11 -53 14 -20 20 -36 24 -105 28 -48 3 -82 1 -82 -5 0 -5 7 -7 15 -4 8 4 17
2 21 -4 3 -6 -4 -13 -15 -16 -22 -5 -22 -8 -20 -269 l1 -264 26 1 c47 2 72 13
63 28 -6 9 -11 10 -15 2 -11 -17 -36 -13 -36 5 0 12 7 15 28 11 58 -12 65 -12
69 1 3 6 -2 12 -11 12 -9 0 -16 5 -16 11 0 7 11 9 27 6 28 -5 53 11 53 35 0 7
7 23 15 35 14 20 14 23 -2 33 -14 8 -12 9 12 3 27 -6 29 -5 16 10 -12 15 -11
17 10 17 19 0 21 2 9 10 -8 5 -39 10 -68 10 -33 0 -51 4 -47 10 3 6 0 10 -8
10 -26 0 -7 -40 22 -47 l26 -7 -30 -7 c-60 -13 -62 -12 -63 36 -1 26 2 45 8
45 7 0 7 6 0 20 -8 16 -8 20 3 20 11 0 14 12 11 46 l-3 45 30 -6 c18 -4 29 -3
29 4 0 6 -12 11 -26 11 -14 0 -23 4 -20 9 4 5 0 12 -6 14 -7 3 -1 6 14 6 15 1
33 -6 42 -14 8 -8 19 -15 25 -15 14 0 14 -6 1 -31 -9 -15 -15 -17 -30 -9 -27
14 -34 12 -20 -5 8 -10 30 -15 65 -15 61 0 74 9 43 27 -21 13 -20 14 17 8 22
-4 44 -11 49 -16 13 -12 116 -12 116 1 0 6 -13 10 -30 10 -16 0 -30 4 -30 9 0
5 -12 12 -27 14 -24 3 -23 4 8 6 19 0 40 -4 47 -11 9 -9 12 -9 12 0 0 13 -6
16 -52 26 -16 4 -28 13 -28 21 0 12 -13 15 -57 15 -41 0 -54 3 -43 10 11 7 7
10 -20 11 l-35 2 35 6 c19 4 40 4 45 0 10 -8 127 -31 142 -28 21 4 47 -2 38
-9 -13 -9 -16 -44 -3 -36 6 4 8 1 6 -7 -3 -8 1 -22 10 -32 8 -9 13 -19 11 -20
-49 -37 -58 -46 -50 -51 12 -8 97 71 88 80 -4 4 -7 2 -7 -4 0 -7 -4 -12 -10
-12 -5 0 -10 7 -10 15 0 8 7 15 15 15 9 0 12 6 8 16 -5 13 -2 15 15 10 17 -6
21 -4 16 7 -7 18 35 30 53 15 10 -8 13 -5 13 11 0 12 7 24 15 27 8 4 15 13 15
21 0 8 4 12 9 9 19 -12 19 23 0 40 -10 9 -19 14 -19 9 0 -4 8 -14 18 -21 16
-12 16 -13 -4 -14 -27 0 -51 25 -32 33 8 4 3 9 -12 13 -23 8 -22 9 15 15 22 4
45 3 50 -1 6 -4 23 -10 38 -12 22 -4 27 -2 23 9 -4 10 -1 13 12 9 9 -3 24 -1
32 4 13 9 12 12 -4 22 -11 6 -30 22 -42 35 -12 13 -33 23 -48 23 -14 0 -26 3
-26 8 0 12 173 6 197 -7 12 -6 33 -11 47 -11 14 0 28 -5 32 -12 5 -7 1 -9 -13
-6 -30 8 -52 -7 -35 -24 20 -20 14 -28 -20 -28 -31 -1 -32 -1 -14 -15 19 -15
19 -15 -1 -15 -12 0 -25 5 -28 10 -3 6 -13 10 -22 10 -11 0 -14 -6 -10 -21 6
-23 -23 -59 -48 -59 -8 0 -15 -4 -15 -8 0 -5 -11 -15 -25 -22 -18 -10 -22 -17
-15 -24 8 -8 13 -7 19 3 5 8 23 14 41 13 35 -1 56 -12 22 -12 -11 0 -24 -4
-27 -10 -3 -5 -24 -10 -46 -10 -30 0 -39 4 -40 18 0 13 -2 14 -6 2 -3 -8 -11
-18 -17 -23 -7 -5 -5 -12 8 -22 26 -20 40 -19 32 1 -5 13 -1 15 20 11 15 -2
42 2 61 9 27 12 41 12 72 3 l39 -11 -17 -30 c-16 -28 -18 -29 -76 -23 -33 4
-71 2 -85 -3 l-25 -9 24 -8 c18 -5 21 -9 10 -16 -11 -7 -9 -9 6 -9 11 0 31 -3
45 -6 l25 -6 -25 21 -25 20 38 -1 c37 -1 39 -3 35 -30 -4 -22 -1 -27 11 -24
29 9 96 10 108 3 7 -4 28 -1 47 7 20 8 38 11 41 6 3 -4 -1 -11 -7 -13 -10 -4
-10 -6 0 -6 16 -1 16 -28 -1 -34 -6 -3 -1 -6 12 -6 19 -1 21 -4 12 -15 -9 -10
-8 -15 4 -20 8 -3 15 -14 15 -23 0 -10 7 -28 15 -40 12 -16 12 -22 2 -26 -6
-3 5 -6 25 -6 20 -1 43 -4 52 -7 9 -3 16 -1 16 4 0 6 -16 13 -35 15 l-35 4 37
-1 c30 -1 38 -5 37 -19 -1 -9 4 -17 12 -17 8 0 14 5 14 10 0 6 7 10 16 10 14
0 14 -2 -1 -16 -9 -9 -37 -18 -63 -20 -29 -3 -42 -1 -34 5 18 11 -7 21 -51 21
-29 -1 -30 -2 -14 -14 21 -16 22 -26 3 -26 -8 0 -16 7 -20 15 -3 8 -18 15 -33
15 -15 0 -48 7 -73 15 -26 9 -33 14 -17 11 20 -2 25 0 18 7 -18 18 -12 28 8
17 11 -5 29 -10 40 -10 11 0 24 -7 29 -15 5 -10 15 -13 26 -9 14 5 13 8 -10
20 -14 8 -36 14 -48 14 -12 0 -26 4 -32 10 -13 13 -88 24 -80 12 3 -5 -4 -12
-16 -15 -26 -7 -38 1 -19 12 17 11 -9 21 -52 21 -30 0 -31 -1 -13 -17 14 -13
20 -15 23 -5 3 6 9 9 14 6 6 -3 6 -11 -2 -20 -9 -11 -6 -16 12 -23 23 -9 22
-10 -8 -10 -23 -1 -31 -5 -27 -15 3 -7 -2 -16 -11 -20 -9 -3 -14 -9 -11 -14 2
-4 -6 -12 -19 -19 -21 -9 -26 -8 -38 11 -8 11 -17 31 -21 44 -5 15 -13 21 -23
18 -8 -3 -22 -6 -30 -6 -12 0 -13 -3 -4 -14 6 -7 17 -31 25 -52 12 -35 16 -39
42 -36 22 2 26 1 14 -7 -12 -9 -10 -11 10 -11 19 0 22 -2 10 -10 -12 -8 -12
-10 3 -15 9 -4 26 -22 38 -41 15 -24 28 -34 46 -34 15 0 24 -3 20 -6 -9 -9
-77 5 -77 16 0 5 -16 25 -34 44 -30 29 -37 32 -47 20 -7 -9 -10 -32 -6 -62 6
-54 1 -68 -28 -69 -11 0 -28 -3 -38 -8 -10 -4 -23 -2 -31 4 -9 8 -21 8 -37 2
l-24 -10 25 -2 c23 -1 23 -2 -5 -8 -36 -9 -69 -1 -40 9 18 6 17 7 -2 12 -26 7
-33 1 -33 -24 0 -22 -9 -23 -36 -3 -12 8 -25 11 -29 7 -5 -4 -5 -1 -1 6 5 8
17 11 31 8 37 -9 39 12 3 27 -32 13 -32 13 36 15 77 1 105 15 62 32 -42 16
-79 13 -72 -5 6 -16 -3 -19 -30 -8 -16 6 -16 7 2 14 16 7 17 8 2 8 -13 1 -17
8 -16 26 3 27 13 33 22 13 5 -10 7 -10 12 -1 3 7 13 10 22 7 9 -2 2 3 -16 11
-18 9 -37 13 -43 10 -5 -4 -9 -1 -9 4 0 6 10 11 23 11 16 0 18 3 8 9 -7 5 -10
14 -7 20 5 7 -5 11 -28 11 -41 0 -46 -7 -13 -20 16 -7 9 -8 -28 -4 l-50 5 25
-20 c14 -11 19 -21 13 -21 -29 0 -10 -27 25 -37 l37 -10 -45 2 c-25 2 -48 3
-52 4 -3 1 -4 11 -2 24 2 12 2 16 -2 10 -9 -21 -33 -15 -27 6 3 13 -4 25 -22
37 l-26 17 -58 -61 c-53 -58 -81 -76 -81 -52 0 6 5 10 10 10 7 0 7 6 0 19 -8
16 -6 20 8 24 9 3 2 5 -15 6 -33 1 -33 1 -33 -49 0 -43 2 -49 18 -43 16 6 16
5 0 -14 -16 -18 -18 -50 -18 -351 l0 -332 178 0 c118 0 172 4 162 10 -13 8
-12 10 3 10 9 0 17 -4 17 -10 0 -6 27 -10 63 -9 34 0 56 3 50 6 -7 2 -13 11
-13 18 0 7 -6 15 -12 18 -7 2 -9 8 -5 13 5 5 15 1 23 -10 8 -11 14 -16 14 -10
0 5 9 -2 20 -16 18 -23 20 -23 20 -5 1 19 1 19 14 3 12 -16 36 -18 247 -18
161 0 229 3 219 10 -11 8 -2 9 30 4 25 -4 186 -8 358 -10 273 -3 312 -2 312
11 0 8 -18 22 -40 31 -58 23 -43 28 21 7 60 -19 87 -38 66 -46 -6 -3 139 -5
323 -6 185 0 342 4 349 9 8 5 24 3 38 -3 18 -8 26 -8 31 1 5 7 13 8 22 2 20
-13 140 -13 140 0 0 6 12 10 26 10 14 0 23 -4 19 -10 -3 -6 5 -10 19 -10 14 0
28 4 31 10 3 5 18 10 33 9 l27 -1 -25 -8 c-15 -5 88 -8 250 -8 151 1 280 5
285 8 6 4 17 7 25 7 8 1 35 5 60 11 28 7 49 7 55 1 5 -6 3 -9 -7 -9 -9 0 -19
-4 -22 -9 -3 -4 102 -9 234 -10 l240 -2 36 38 c20 21 40 50 46 66 5 15 19 32
29 38 10 5 19 20 19 32 0 31 38 63 59 50 9 -5 28 -6 43 -2 27 7 38 3 38 -13 0
-5 -5 -6 -11 -2 -12 7 -29 -12 -29 -33 0 -25 31 -12 69 28 30 32 46 41 74 42
25 1 39 7 46 21 6 12 18 31 27 43 19 26 3 31 -21 7 -9 -9 -19 -14 -22 -10 -4
3 2 13 13 21 10 8 15 15 9 15 -21 1 41 29 66 30 15 0 30 7 33 16 9 24 8 25
-19 18 -26 -6 -35 9 -12 20 6 3 -8 4 -33 1 -40 -5 -43 -4 -27 8 15 10 30 11
66 3 28 -5 56 -6 67 -1 17 8 15 9 -9 13 -53 7 -96 81 -63 104 7 6 6 12 -4 19
-12 9 -11 10 7 6 20 -4 21 -3 12 15 -6 10 -9 24 -7 30 5 15 40 19 55 6 9 -7
13 -7 13 1 0 7 5 9 10 6 6 -4 26 3 45 14 19 11 41 18 49 15 8 -3 17 -1 21 5 3
6 0 11 -8 11 -19 0 -30 29 -17 45 7 9 2 12 -19 12 -24 0 -28 -4 -27 -24 0 -12
7 -23 14 -23 6 0 12 -5 12 -11 0 -6 -6 -9 -14 -6 -8 3 -17 -1 -20 -9 -3 -8
-10 -14 -16 -14 -6 0 -8 5 -5 10 3 6 -1 10 -10 10 -9 0 -14 -4 -11 -9 3 -5 -1
-11 -9 -15 -8 -3 -19 3 -25 12 -8 12 -13 13 -16 5 -4 -9 -12 -5 -27 11 -12 13
-28 21 -36 18 -8 -3 -12 1 -9 9 3 8 12 14 21 14 9 0 18 5 19 10 3 16 -34 19
-43 3 -6 -9 -9 -5 -9 15 0 15 4 27 9 27 5 0 11 8 14 18 3 9 13 28 21 42 8 14
17 36 20 50 3 14 17 37 31 52 14 15 25 37 25 49 0 16 4 19 18 14 9 -4 30 -9
46 -11 34 -5 48 -21 40 -46 -4 -13 -1 -16 10 -12 9 3 14 10 11 14 -3 5 -1 12
5 15 8 5 7 11 -1 21 -15 18 -6 29 17 20 9 -4 14 -9 11 -13 -10 -9 45 -36 71
-35 12 1 22 -2 22 -7 0 -9 -57 -26 -122 -36 -20 -3 -39 -13 -42 -21 -9 -24 -8
-26 14 -14 26 14 27 -4 1 -22 -10 -7 -19 -17 -20 -23 -1 -5 -12 -16 -24 -23
l-22 -13 22 4 c19 4 38 -14 33 -33 -1 -3 9 -8 22 -11 14 -3 22 -12 22 -23 -2
-14 1 -15 14 -4 8 7 17 12 19 11 9 -7 23 -2 18 6 -3 5 8 19 25 31 16 12 30 27
30 35 0 7 6 16 13 18 7 3 7 6 1 6 -6 1 -23 -13 -38 -30 -20 -22 -31 -28 -40
-20 -9 7 -19 6 -35 -5 -12 -9 -25 -14 -28 -11 -9 9 31 54 44 50 6 -2 14 1 18
6 3 6 18 11 32 11 22 0 25 4 21 25 -4 19 -1 25 13 25 11 0 19 6 19 13 1 6 10
-13 20 -43 11 -30 31 -77 45 -103 14 -27 25 -50 25 -52 0 -2 -15 1 -32 6 -50
14 -63 12 -47 -7 8 -9 21 -13 35 -10 19 5 22 3 17 -10 -5 -14 -3 -15 16 -4 19
9 26 9 41 -5 10 -9 16 -23 13 -31 -3 -8 0 -14 6 -14 6 0 11 -5 11 -11 0 -8 -4
-8 -12 -1 -14 10 -58 -1 -58 -15 0 -4 16 -8 35 -9 45 -1 51 -8 31 -39 -14 -22
-56 -38 -42 -17 2 4 -10 8 -27 8 -26 0 -35 -6 -47 -30 -10 -21 -21 -30 -33
-28 -10 2 -30 -4 -43 -13 -14 -9 -28 -14 -32 -11 -5 3 -21 -2 -36 -10 -36 -18
-42 -18 -26 1 11 13 8 13 -19 4 -17 -6 -31 -13 -31 -16 0 -3 7 -3 15 1 9 3 15
0 15 -8 0 -32 74 -35 106 -5 16 15 29 19 41 14 16 -7 15 -8 -6 -14 -34 -9 -39
-31 -7 -31 14 0 26 -4 26 -8 0 -4 -19 -8 -42 -7 -24 1 -63 -5 -87 -12 -52 -15
-72 -17 -51 -3 11 7 11 10 2 10 -8 0 -10 5 -5 13 16 25 11 37 -15 37 l-27 -1
24 -13 c23 -13 20 -13 -28 -11 -46 3 -53 1 -60 -18 -9 -24 -4 -38 7 -22 6 10
56 35 68 35 3 0 2 -4 -1 -10 -3 -5 -1 -10 6 -10 32 0 -39 -45 -74 -47 -48 -3
-72 -20 -57 -38 8 -9 6 -15 -7 -19 -15 -6 -15 -9 -3 -17 12 -9 12 -10 -3 -5
-10 3 -28 -1 -40 -9 l-21 -15 22 0 c12 0 22 -4 22 -10 0 -5 -7 -10 -16 -10 -9
0 -32 -9 -50 -21 -39 -24 -44 -19 -12 13 13 13 17 23 10 26 -6 2 -26 -12 -45
-32 -28 -28 -31 -35 -17 -39 9 -2 28 2 41 9 36 20 42 17 37 -16 -4 -25 -2 -29
13 -25 9 3 20 1 24 -5 10 -15 62 -12 79 6 9 8 24 13 34 11 15 -4 15 -5 -2 -6
-12 -1 -16 -6 -12 -16 3 -8 1 -15 -5 -15 -6 0 -31 -21 -56 -46 l-44 -46 88 3
c77 4 90 7 106 27 11 12 30 22 44 22 37 0 26 6 -24 14 -35 5 -43 3 -43 -9 0
-9 -9 -15 -21 -15 -21 0 -21 1 4 20 15 12 38 19 55 18 16 -1 41 7 59 20 17 12
37 22 45 22 7 0 20 5 28 10 10 6 3 8 -23 3 -34 -5 -37 -4 -34 16 2 12 18 31
35 41 18 11 32 25 32 32 0 6 7 20 17 30 10 12 12 18 4 18 -7 0 -9 5 -6 10 5 8
11 8 20 0 10 -8 22 -7 45 5 l32 17 -5 -44 c-4 -24 -6 -46 -6 -51 -1 -4 -4 -6
-8 -5 -5 2 -19 -5 -33 -15 -24 -17 -24 -17 -2 -17 17 0 21 -5 20 -25 -2 -23
-18 -37 -18 -15 0 6 -12 10 -26 10 -14 0 -23 -4 -19 -9 3 -5 1 -12 -5 -16 -6
-4 -7 -11 -4 -17 4 -6 -1 -8 -15 -3 -15 4 -21 2 -22 -9 -1 -9 -2 -21 -3 -28 0
-7 -12 -15 -26 -19 -16 -4 -19 -7 -7 -8 9 -1 17 -5 17 -10 0 -6 21 -13 47 -17
37 -5 49 -3 58 10 15 20 26 21 19 1 -5 -13 59 -15 541 -15 l547 0 -6 33 -5 32
11 -32 c21 -62 27 -33 7 35 -34 118 -34 110 -4 118 14 4 30 3 33 -2 4 -5 21
-49 37 -97 l29 -88 443 1 c244 1 443 4 443 6 0 10 -29 34 -37 32 -4 -2 -9 2
-10 7 -2 6 3 10 10 10 6 0 18 6 26 13 17 16 53 12 59 -6 3 -11 0 -12 -16 -3
-16 8 -21 7 -26 -5 -8 -22 1 -34 27 -34 18 0 19 -2 7 -10 -11 -7 -7 -10 19
-10 30 0 33 2 27 24 -5 20 -2 24 12 23 10 0 24 -7 31 -14 9 -10 8 -13 -6 -14
-11 0 -7 -5 12 -11 21 -8 30 -8 33 0 2 6 10 8 18 5 8 -3 21 0 29 7 9 7 19 10
22 6 4 -4 1 -11 -7 -16 -10 -7 1 -10 38 -10 33 0 51 4 47 10 -3 5 -1 10 4 10
6 0 11 -4 11 -10 0 -5 17 -10 39 -10 31 0 40 4 44 21 5 19 10 20 46 14 31 -5
41 -3 41 7 0 10 2 10 9 -1 6 -9 19 -12 37 -8 45 8 63 -5 25 -18 -29 -9 -21
-11 65 -13 l99 -2 -83 78 c-45 42 -82 83 -82 90 0 6 -9 12 -19 12 -11 0 -23 9
-26 20 -3 11 -10 20 -14 20 -6 0 -38 28 -143 126 -42 39 -49 59 -17 49 15 -5
19 -4 15 4 -4 6 -2 11 4 11 6 0 8 5 4 11 -3 6 -9 7 -13 3 -8 -12 -71 -14 -71
-3 0 5 5 9 11 9 6 0 18 7 26 16 12 11 18 12 23 4 5 -8 9 -4 13 9 3 14 10 19
21 15 12 -5 15 -2 10 11 -5 11 -14 15 -28 11 -11 -3 -28 -6 -36 -7 -10 0 -8
-3 5 -9 18 -8 17 -9 -8 -9 -16 -1 -26 -5 -22 -10 7 -12 -31 -25 -45 -16 -15 9
-12 35 5 35 8 0 23 10 34 21 14 16 27 20 45 15 22 -5 84 3 140 20 12 4 16 2
12 -5 -4 -6 -16 -11 -28 -11 -17 0 -18 -2 -8 -15 11 -13 10 -18 -6 -31 -18
-14 -18 -15 4 -9 23 7 31 -8 11 -21 -8 -4 -7 -9 2 -15 10 -6 8 -9 -8 -9 -30 0
-40 -20 -13 -27 12 -3 19 -11 16 -19 -3 -9 3 -12 22 -10 15 1 32 -5 38 -13 10
-13 16 -13 38 -3 31 14 46 15 46 4 0 -5 -17 -14 -37 -20 l-38 -11 38 5 c37 5
53 -11 22 -22 -8 -4 -15 -10 -15 -16 0 -15 48 25 53 44 3 10 12 18 21 18 19 0
21 -16 4 -24 -7 -3 -4 -4 7 -3 16 2 21 -5 23 -30 2 -20 -1 -33 -8 -33 -6 0 -8
-4 -5 -10 4 -6 -5 -10 -19 -10 -32 0 -34 -18 -4 -29 20 -7 24 -4 33 21 10 27
12 28 30 14 13 -10 15 -15 6 -16 -10 0 -11 -3 -2 -14 13 -16 -3 -25 -47 -27
-23 -1 -22 -3 8 -8 23 -5 40 -3 50 6 13 10 16 9 16 -7 0 -11 -4 -20 -9 -20 -4
0 -6 -4 -3 -8 3 -5 -1 -20 -9 -35 -15 -29 -11 -35 9 -14 7 7 11 18 8 25 -2 6
1 12 7 12 6 0 10 5 9 11 -2 6 3 14 10 16 7 3 12 -4 12 -15 0 -11 -6 -22 -13
-25 -6 -3 4 -5 23 -5 19 1 43 5 53 10 12 6 23 5 33 -3 18 -15 18 -29 -1 -29
-8 0 -15 -4 -15 -8 0 -5 -11 -15 -25 -22 -14 -7 -25 -20 -25 -27 0 -8 4 -12 8
-9 4 2 14 0 22 -5 13 -8 13 -10 0 -19 -10 -6 53 -10 194 -10 187 0 210 2 222
18 12 16 13 16 26 0 12 -17 74 -17 1003 -14 545 2 1008 6 1030 10 29 5 36 4
25 -3 -11 -8 179 -11 635 -10 559 0 646 2 620 14 -16 7 -23 14 -15 14 8 0 26
-6 40 -14 19 -11 67 -14 198 -15 l172 0 0 435 0 435 -55 0 c-37 0 -54 -4 -53
-12 2 -6 -12 -14 -29 -18 -18 -4 -33 -4 -33 1 0 5 -11 9 -25 9 -14 0 -25 -4
-25 -10 0 -5 -4 -10 -10 -10 -5 0 -10 7 -10 15 0 8 5 15 12 15 6 0 9 2 6 5 -3
3 -18 1 -33 -5 -21 -8 -31 -8 -39 1 -8 9 -8 10 1 5 6 -3 14 -2 18 4 3 5 34 11
68 12 l62 2 -52 3 c-29 2 -53 7 -53 11 0 13 176 2 232 -14 16 -5 18 3 18 80 0
62 -3 86 -12 86 -9 0 -8 4 2 10 13 9 13 11 0 20 -10 6 -11 10 -2 10 8 0 12 22
12 74 0 63 -3 75 -17 79 -17 4 -17 5 0 6 15 1 17 13 17 105 0 74 -4 106 -12
109 -10 4 -10 6 -1 6 10 1 13 529 13 2586 l0 2585 -5910 0 -5910 0 0 -2000z
m5417 -440 c3 -11 10 -20 15 -20 6 0 7 -11 4 -25 -5 -18 -2 -25 9 -25 8 0 15
7 15 15 0 8 5 15 10 15 6 0 10 -8 10 -17 0 -14 2 -15 9 -4 9 14 51 7 51 -10 0
-5 5 -9 11 -9 5 0 7 5 4 10 -10 16 0 12 27 -12 25 -23 68 -104 68 -130 0 -7
11 -22 25 -32 14 -10 25 -25 25 -32 0 -7 6 -19 14 -26 8 -8 29 -41 47 -74 18
-32 38 -63 43 -67 6 -5 -2 -6 -19 -2 -16 3 -67 6 -112 7 -46 1 -83 6 -83 10 0
4 -8 8 -18 8 -11 0 -33 7 -51 16 -31 15 -55 15 -93 -1 -17 -7 -18 2 -18 103 0
73 4 112 11 114 17 6 -9 149 -29 164 -9 6 -13 18 -9 28 9 22 28 20 34 -4z
m-23 -562 c5 -10 7 -10 12 0 3 6 22 12 42 12 34 -1 36 -2 18 -15 -16 -12 -17
-17 -6 -30 11 -14 11 -18 1 -25 -8 -4 -10 -13 -6 -20 12 -20 15 -80 5 -80 -6
0 -10 -7 -10 -15 0 -21 12 -19 32 5 18 21 65 37 76 26 3 -4 -5 -17 -19 -29
-14 -12 -35 -34 -48 -49 -22 -25 -22 -26 -3 -22 11 3 25 17 31 31 8 18 17 24
31 20 13 -3 17 -1 13 9 -4 10 0 12 11 8 16 -6 15 -8 0 -33 -9 -14 -61 -68
-116 -120 -54 -51 -104 -103 -110 -115 -9 -18 28 13 103 84 27 26 84 75 104
89 11 8 -34 -38 -100 -102 -114 -112 -134 -129 -120 -107 3 5 1 18 -4 28 -6
10 -13 45 -16 78 -3 32 -10 83 -15 113 -18 100 -13 158 16 196 14 19 35 37 45
40 16 5 18 10 8 21 -9 11 -8 14 4 14 8 0 18 -6 21 -12z m1439 -1985 c-2 -7 4
-13 13 -13 8 0 13 4 10 9 -3 5 3 11 14 14 11 3 20 1 20 -4 0 -5 9 -9 20 -9 11
0 20 -4 20 -10 0 -5 15 -7 33 -4 40 7 110 6 159 -2 46 -7 88 4 67 17 -20 13
17 12 40 -1 34 -17 315 -38 291 -21 -12 8 -6 11 25 11 22 0 51 -7 63 -16 12
-8 27 -12 34 -8 7 4 8 3 4 -5 -5 -8 3 -10 31 -6 54 7 145 -7 151 -24 3 -8 0
-11 -7 -7 -7 5 -9 1 -5 -9 4 -8 11 -15 18 -14 6 1 22 -2 35 -7 23 -7 23 -8 5
-14 -15 -6 -11 -9 21 -15 22 -4 47 -12 55 -16 9 -6 0 -7 -25 -3 -22 4 -47 6
-55 5 -36 -6 -104 -1 -114 9 -14 14 -53 13 -59 -2 -4 -10 -6 -10 -6 -1 -1 6 9
19 21 27 29 21 15 32 -44 39 -55 5 -62 -5 -17 -23 26 -11 32 -11 40 1 5 8 9 9
9 3 0 -6 -7 -17 -15 -24 -8 -7 -15 -9 -15 -5 0 4 -6 2 -14 -4 -12 -10 -17 -7
-28 16 -14 30 -57 41 -87 22 -12 -7 -7 -9 19 -7 19 1 41 -1 48 -6 15 -9 16
-36 1 -36 -6 0 -9 6 -6 14 5 11 -4 14 -39 13 -24 -1 -44 -5 -44 -9 0 -5 -5 -8
-11 -8 -6 0 -9 7 -6 15 8 18 -47 30 -104 22 -21 -3 -39 -2 -39 3 0 15 -72 22
-81 8 -6 -8 -9 -9 -9 -1 0 6 -11 10 -25 9 -13 -2 -22 1 -19 6 4 6 17 8 30 5
20 -3 22 -2 13 9 -15 18 -34 18 -53 -1 -17 -17 -36 -20 -36 -4 0 6 -8 8 -19 4
-11 -3 -22 -1 -26 5 -4 7 -19 9 -38 4 -45 -9 -54 -16 -31 -25 14 -6 9 -8 -18
-8 -21 -1 -38 -5 -38 -11 0 -5 -7 -10 -15 -10 -9 0 -12 6 -9 15 4 8 18 15 33
15 17 1 3 9 -44 26 -38 13 -74 22 -80 20 -5 -2 6 -8 25 -12 29 -6 31 -9 15
-15 -19 -7 -19 -8 1 -8 12 -1 25 -8 28 -17 5 -14 1 -15 -21 -10 -47 11 -123
14 -123 5 0 -13 -67 -22 -86 -11 -15 9 -14 11 11 25 28 14 28 15 8 25 -11 6
-24 19 -27 28 -6 14 0 16 39 12 53 -6 58 -2 13 11 -32 10 -32 10 12 8 30 -1
44 -6 43 -14z m122 -107 c63 -11 110 -10 108 2 -3 13 98 18 110 5 7 -6 29 -10
82 -15 11 -1 22 -5 25 -9 3 -3 21 -10 40 -14 37 -8 33 9 -5 18 -15 4 -14 5 7
6 15 0 34 -6 42 -15 13 -12 39 -16 116 -17 55 0 100 -4 100 -9 0 -4 21 -8 46
-8 40 0 45 -2 34 -15 -10 -12 -9 -15 8 -15 11 0 22 7 26 15 8 22 28 18 21 -4
-6 -21 13 -32 43 -24 11 3 28 0 38 -5 13 -7 25 -7 37 0 14 7 17 7 13 -1 -4 -6
3 -12 16 -15 23 -5 247 -29 281 -30 24 -1 22 -21 -3 -23 -11 -1 -18 2 -15 7 3
4 -19 7 -47 6 -29 -2 -91 3 -137 10 -47 7 -88 11 -92 9 -3 -3 -21 0 -40 4 -55
14 -119 20 -119 10 0 -4 23 -11 51 -15 27 -4 46 -11 42 -15 -5 -5 -35 -1 -66
8 -34 9 -53 19 -46 23 6 4 -22 8 -62 8 -82 0 -100 2 -112 17 -6 6 -10 6 -14
-2 -7 -18 -24 -16 -17 2 5 11 -1 15 -26 15 -18 0 -29 -4 -25 -10 3 -5 13 -10
20 -10 9 0 12 -6 9 -15 -5 -12 2 -15 30 -15 20 0 36 -4 36 -10 0 -5 5 -10 11
-10 5 0 7 5 3 12 -5 7 -2 9 9 5 8 -3 53 -9 99 -13 46 -3 87 -9 92 -12 5 -3 48
-7 95 -9 47 -2 100 -7 118 -12 20 -6 35 -6 39 0 7 12 81 12 88 0 3 -5 -13 -11
-35 -15 -36 -6 -39 -9 -33 -29 5 -18 4 -20 -7 -9 -15 14 -79 16 -79 2 0 -9 45
-15 90 -12 8 0 18 -5 22 -13 5 -8 17 -11 29 -8 12 4 25 0 30 -8 5 -8 9 -9 9
-3 0 7 16 11 42 10 25 0 43 4 45 12 3 7 -4 12 -16 12 -12 0 -21 4 -21 10 0 5
11 9 25 8 19 -2 25 -8 25 -26 0 -18 3 -22 13 -15 6 6 26 13 43 16 29 5 31 4
26 -15 -4 -19 -1 -20 37 -16 22 2 41 0 41 -5 0 -4 5 -5 10 -2 6 4 7 12 3 18
-4 8 -1 7 9 -1 13 -10 25 -11 58 -2 43 12 65 6 40 -10 -8 -6 -10 -10 -5 -10
13 0 35 20 35 32 0 4 -17 8 -38 8 -21 0 -44 6 -50 12 -10 10 -15 10 -22 -2 -9
-14 -14 -7 -11 13 1 4 -7 3 -18 -3 -11 -5 -28 -10 -38 -10 -15 0 -16 2 -3 10
11 7 6 10 -20 9 -19 0 -62 3 -95 8 -60 8 -60 9 -28 20 17 6 33 9 36 7 2 -2 22
-6 43 -8 117 -11 170 -20 176 -30 5 -7 8 -7 8 2 0 9 7 11 20 7 13 -4 20 -2 20
7 0 9 3 9 8 2 11 -17 72 -26 73 -11 0 9 2 9 6 0 3 -8 22 -13 47 -13 23 0 48
-6 55 -12 8 -7 11 -8 8 -2 -4 7 12 10 47 10 30 -1 52 -4 49 -8 -6 -11 5 -10
28 2 13 7 19 7 19 0 0 -15 26 -12 40 5 11 13 16 12 44 -2 38 -21 70 -24 114
-13 28 7 33 6 28 -6 -5 -13 -3 -13 16 1 26 18 64 20 74 4 4 -8 -1 -9 -16 -4
-15 5 -20 4 -16 -4 4 -6 2 -11 -3 -11 -6 0 -11 5 -11 11 0 5 -5 7 -10 4 -6 -4
-8 -10 -5 -15 3 -4 -3 -14 -12 -21 -12 -10 -14 -10 -9 -1 5 8 0 12 -14 12 -13
0 -19 4 -14 11 4 8 -1 9 -17 4 -13 -4 -26 -7 -29 -7 -44 -1 -101 5 -87 9 23 6
12 23 -15 23 -12 0 -18 -3 -15 -7 4 -3 -10 -13 -30 -21 -38 -15 -77 -18 -123
-9 -14 3 -38 6 -53 6 -16 1 -26 5 -23 10 4 5 -9 4 -28 -1 l-35 -11 25 -20 c14
-10 28 -17 31 -13 4 3 1 6 -5 6 -7 0 -12 5 -12 10 0 15 17 12 35 -7 14 -13 18
-14 25 -3 7 11 14 11 40 0 24 -10 40 -10 68 -2 63 19 167 17 244 -4 9 -3 15
-10 12 -17 -4 -12 63 -47 90 -47 33 0 23 18 -14 24 -21 3 -42 11 -46 18 -10
16 119 3 158 -17 35 -17 83 -20 73 -5 -3 6 1 7 10 4 9 -4 14 -13 11 -20 -4
-10 2 -14 19 -14 13 0 26 -4 29 -9 6 -10 -74 -2 -89 9 -35 26 -124 33 -109 8
4 -7 -9 -9 -35 -6 -25 2 -40 0 -38 -7 2 -5 30 -10 63 -10 32 0 64 -3 70 -7 6
-4 29 -9 51 -10 29 -2 39 -7 35 -16 -3 -9 -8 -10 -15 -3 -5 5 -15 7 -23 4 -7
-3 -34 3 -60 13 -41 15 -48 16 -58 3 -9 -12 -20 -13 -51 -6 -48 11 -95 16
-195 21 -81 4 -113 13 -104 27 3 5 -10 9 -28 9 l-33 0 30 20 c17 11 25 20 18
20 -6 0 -15 -5 -18 -10 -4 -6 -10 -8 -15 -5 -4 3 -13 -2 -20 -10 -13 -16 -35
-21 -26 -7 8 14 -60 8 -77 -7 -9 -7 -25 -10 -37 -6 -11 4 -20 2 -20 -4 0 -6
-7 -8 -15 -5 -8 4 -12 10 -9 15 3 5 -2 9 -11 9 -9 0 -14 -4 -11 -9 9 -14 -24
-22 -45 -11 -10 6 -34 11 -54 12 -19 1 -32 5 -29 10 3 4 -4 8 -15 8 -12 0 -21
-5 -21 -11 0 -5 -4 -7 -10 -4 -15 9 -12 25 4 25 8 0 17 3 19 8 3 4 -8 7 -24 7
-22 0 -29 -5 -29 -19 0 -12 -5 -16 -16 -12 -9 3 -22 6 -30 6 -9 0 -13 4 -10 9
11 18 -27 21 -70 6 -52 -17 -84 -19 -84 -5 0 6 9 10 20 10 11 0 20 6 20 14 0
11 -17 14 -80 12 -44 -2 -80 0 -80 4 0 5 -15 8 -34 8 -19 0 -39 3 -45 7 -6 3
-11 2 -11 -4 0 -5 8 -14 18 -20 16 -9 16 -10 0 -16 -9 -4 -32 -2 -50 3 -18 6
-40 11 -48 11 -28 1 -129 26 -136 34 -4 4 -17 7 -28 8 -15 0 -17 2 -6 6 8 3
18 12 22 18 5 7 24 13 43 13 24 0 33 -4 28 -11 -4 -7 0 -6 9 1 15 12 41 12
116 -4 16 -3 22 0 22 13 0 15 -2 16 -10 3 -8 -13 -10 -13 -10 2 0 13 8 15 43
12 l42 -4 -40 13 c-23 8 -43 9 -46 4 -6 -8 -147 15 -188 31 -9 3 -12 1 -7 -6
9 -15 -32 -16 -69 -2 -20 8 -30 7 -41 -5 -9 -8 -12 -15 -7 -16 4 0 17 -3 28
-5 11 -3 34 -6 50 -7 19 -2 30 -8 30 -17 0 -18 -41 -26 -59 -11 -8 6 -21 9
-30 5 -9 -3 -22 -2 -29 3 -6 6 -26 13 -44 16 -28 5 -31 4 -28 -13 6 -30 15
-41 32 -38 8 2 22 -7 31 -20 15 -23 15 -23 -30 -19 -25 2 -50 7 -57 11 -6 4
-21 4 -34 1 l-22 -7 22 16 c12 9 30 13 40 10 14 -4 15 -4 4 4 -7 5 -11 14 -7
20 9 15 -22 42 -47 41 -12 0 -16 -3 -9 -6 6 -2 10 -9 6 -14 -3 -5 5 -9 17 -9
18 0 19 -3 9 -15 -12 -15 -74 -16 -97 -2 -8 5 -13 3 -13 -3 0 -14 -38 -4 -61
16 -8 8 -22 14 -30 14 -12 0 -11 -2 1 -10 8 -5 10 -10 5 -10 -6 0 -15 4 -20 9
-11 11 -110 40 -160 48 -22 3 -26 2 -16 -5 8 -6 20 -8 26 -6 7 3 15 -2 19 -11
3 -10 15 -15 28 -14 33 4 68 -10 68 -27 0 -8 4 -12 10 -9 5 3 8 0 5 -7 -4 -10
8 -12 52 -11 32 2 63 5 70 8 7 2 15 0 18 -5 4 -6 0 -10 -7 -10 -10 0 -9 -3 2
-9 8 -6 18 -8 22 -5 4 3 17 0 28 -6 11 -6 48 -11 80 -11 33 0 58 -5 55 -9 -3
-5 -12 -7 -20 -3 -8 3 -15 0 -15 -6 0 -10 14 -15 33 -12 4 1 10 -6 13 -14 7
-18 25 -20 22 -2 -2 7 8 12 25 12 15 -1 27 3 27 7 0 4 -14 8 -31 8 -19 0 -28
4 -23 11 9 15 71 2 112 -23 18 -11 32 -22 30 -23 -7 -7 -57 8 -52 16 12 19
-36 -3 -66 -30 -13 -13 -13 -14 4 -8 15 6 17 4 13 -13 -3 -11 -1 -20 4 -20 5
0 17 -8 27 -18 17 -17 19 -17 47 0 20 12 24 18 13 18 -9 0 -20 -5 -23 -10 -5
-8 -11 -7 -21 1 -20 16 -18 39 4 39 14 0 15 -2 2 -10 -24 -15 -3 -23 31 -11
40 14 59 14 59 0 0 -5 -4 -8 -9 -4 -5 3 -12 1 -16 -5 -3 -5 -1 -10 4 -10 6 0
2 -9 -9 -20 -12 -12 -17 -26 -14 -32 6 -9 9 -9 11 -1 3 7 12 9 21 6 13 -5 15
-3 5 7 -9 10 -9 16 2 26 7 8 19 14 26 14 10 0 10 -3 1 -12 -7 -7 -12 -16 -12
-20 0 -13 28 -9 34 5 5 10 7 10 12 0 3 -7 13 -13 21 -13 13 0 13 -3 3 -15 -10
-12 -10 -15 3 -15 8 0 18 -6 21 -12 5 -10 7 -10 12 0 3 6 15 12 27 12 18 0 19
-2 7 -10 -13 -8 -12 -10 3 -10 13 0 17 5 13 18 -4 11 2 21 19 29 14 6 25 7 25
3 0 -5 6 -10 13 -13 6 -2 4 -3 -5 -2 -26 4 -32 -12 -9 -24 27 -15 41 -14 41 4
0 8 5 15 10 15 6 0 10 -4 10 -10 0 -5 10 -10 23 -10 13 0 32 -7 43 -15 22 -16
12 -20 -16 -5 -13 7 -19 6 -24 -5 -6 -15 5 -17 74 -15 97 4 101 5 78 28 -9 9
-9 12 3 12 28 0 19 -39 -12 -55 -16 -9 -29 -23 -29 -31 0 -14 3 -14 16 -3 11
9 17 10 23 1 6 -11 51 -6 51 6 0 2 -8 11 -17 19 -17 14 -17 14 1 9 14 -5 17
-2 12 10 -5 12 -2 15 10 10 8 -3 23 -6 32 -6 14 -1 12 -5 -7 -20 -13 -11 -18
-20 -12 -20 6 0 8 -7 5 -15 -3 -8 -10 -13 -14 -12 -5 1 -16 -7 -25 -18 -16
-20 -16 -20 -6 1 10 20 8 21 -39 16 -49 -4 -56 0 -51 31 2 12 -17 8 -22 -5 -4
-10 -7 -10 -14 0 -12 16 -91 9 -122 -10 -12 -7 -21 -24 -22 -38 0 -24 -1 -24
-9 -4 -5 12 -14 25 -21 30 -9 5 -10 2 -6 -11 6 -14 3 -16 -15 -12 -22 6 -22 5
-4 -8 11 -8 14 -15 8 -15 -7 0 -12 -4 -12 -9 0 -10 66 -8 76 2 3 2 6 14 7 26
1 11 8 21 15 21 12 0 12 -3 2 -15 -11 -13 -7 -16 20 -21 26 -6 29 -9 16 -16
-12 -6 -23 -5 -34 3 -9 8 -14 9 -9 4 4 -5 -5 -15 -20 -22 -28 -13 -27 -13 13
-9 44 4 70 -5 60 -22 -3 -6 -2 -12 2 -14 4 -1 3 -13 -3 -25 -11 -22 -12 -22
-28 -3 -14 17 -14 20 -2 20 8 0 15 8 15 18 0 17 -5 18 -45 12 -27 -4 -45 -3
-45 3 0 5 -11 7 -25 5 -13 -3 -22 -1 -19 3 3 5 -6 9 -19 9 -13 0 -32 9 -42 20
-10 11 -26 20 -36 20 -10 0 -20 4 -23 9 -4 5 4 7 16 4 23 -5 23 -5 3 10 -29
23 -11 32 34 17 21 -7 45 -10 52 -7 14 5 6 9 -41 23 -13 5 -13 6 0 15 12 9 10
9 -5 3 -11 -4 -42 -7 -70 -7 -43 1 -45 0 -16 -5 l35 -7 -37 -39 c-34 -39 -35
-40 -16 -54 10 -7 19 -19 19 -25 0 -8 -4 -7 -9 2 -8 12 -13 12 -24 3 -11 -10
-17 -9 -27 3 -9 11 -16 12 -25 5 -9 -7 -15 -7 -19 -1 -4 5 4 13 16 17 31 10
67 37 68 50 0 7 7 15 16 18 9 4 15 9 12 11 -9 10 -38 -7 -38 -21 0 -8 -4 -14
-9 -14 -4 0 -6 12 -4 28 l4 27 -14 -30 c-8 -18 -16 -25 -20 -18 -4 6 -3 14 3
18 16 10 12 25 -7 26 -10 1 -4 5 12 9 23 6 25 8 8 9 -12 0 -25 6 -28 11 -3 6
-16 10 -28 9 -20 0 -21 -1 -3 -8 27 -11 8 -19 -34 -15 -19 2 -43 4 -52 4 -22
2 -42 26 -34 45 8 21 -41 74 -52 57 -5 -8 -16 -10 -28 -5 -17 6 -17 5 -5 -10
7 -9 24 -17 38 -17 14 0 21 -4 18 -10 -3 -5 -1 -10 5 -10 7 0 10 -6 7 -14 -3
-8 -1 -17 6 -20 7 -3 2 -3 -10 0 -17 4 -23 1 -23 -11 0 -11 8 -16 23 -15 12 1
31 1 42 0 17 -2 17 -3 -4 -9 l-24 -6 27 -12 c22 -11 26 -10 26 2 0 10 10 15
26 15 22 0 25 -2 14 -15 -11 -13 -8 -15 14 -15 14 0 26 5 26 10 0 6 7 10 15
10 8 0 15 -4 15 -9 0 -5 -7 -16 -15 -25 -8 -8 -15 -18 -15 -22 0 -5 5 -3 11 3
6 6 18 9 25 6 25 -9 15 -21 -26 -28 -22 -4 -42 -11 -45 -16 -7 -11 -64 0 -89
17 -13 9 -25 10 -38 3 -14 -7 -18 -6 -18 6 0 8 7 15 15 15 8 0 15 5 15 10 0 6
-5 10 -11 10 -6 0 -9 7 -5 15 4 10 -1 15 -14 15 -20 0 -23 -19 -6 -32 6 -4 5
-13 -3 -22 -7 -8 -10 -20 -6 -26 3 -5 1 -10 -4 -10 -13 0 -13 -1 -16 73 -2 54
-1 57 19 52 15 -5 17 -3 8 3 -11 7 -10 12 3 26 15 14 15 16 1 16 -9 0 -16 -7
-16 -16 0 -14 -3 -14 -15 -4 -10 8 -32 11 -60 8 -31 -4 -48 -1 -56 8 -6 8 -22
14 -35 14 -28 0 -104 38 -104 52 0 5 -4 6 -10 3 -5 -3 -26 3 -47 14 -21 11
-31 20 -22 21 9 0 32 3 50 6 26 4 30 3 19 -5 -17 -12 -6 -14 28 -5 26 7 30 24
5 24 -9 0 -13 3 -10 7 4 3 24 6 44 5 28 -1 34 1 23 8 -8 5 -24 10 -34 10 -11
0 -17 3 -13 6 3 3 24 3 47 -1 34 -6 39 -9 29 -21 -9 -11 -7 -14 12 -15 l24 -1
-25 -8 c-23 -7 -23 -8 -3 -9 12 -1 25 4 28 9 3 6 14 10 23 10 15 -1 14 -3 -3
-16 -19 -15 -18 -16 20 -10 29 5 36 4 25 -3 -11 -8 -11 -11 -2 -11 7 0 10 -4
7 -10 -3 -5 -2 -10 3 -10 5 0 12 12 15 26 3 20 0 28 -14 31 -11 3 -19 9 -19
14 0 12 11 11 40 -6 14 -8 46 -14 72 -15 26 0 50 -5 54 -12 4 -6 3 -8 -4 -4
-6 3 -13 2 -17 -4 -8 -13 5 -13 38 3 26 12 39 34 15 24 -7 -2 -22 0 -33 5 -17
7 -16 8 5 4 24 -5 24 -4 6 9 -11 8 -24 15 -29 15 -4 0 -6 4 -3 8 7 11 -172 53
-207 48 -16 -2 -34 3 -42 10 -7 8 -22 14 -32 14 -10 0 -29 7 -41 16 -20 14
-22 14 -22 0 0 -19 -5 -20 -31 -6 -23 13 -25 30 -3 30 8 0 13 -4 9 -9 -3 -5
-1 -12 5 -16 5 -3 10 1 10 9 0 9 6 16 13 17 6 0 -15 7 -48 15 -32 8 -62 20
-66 26 -4 6 -14 8 -23 5 -8 -3 -18 -2 -21 3 -9 15 -37 12 -30 -2 4 -7 1 -6 -7
3 -13 16 -38 24 -123 39 -27 5 -66 12 -85 15 -35 7 -100 35 -100 45 -1 3 -5
24 -9 48 -5 25 -5 42 1 42 5 0 6 5 3 10 -3 6 1 10 9 10 10 0 13 -6 9 -17 -5
-17 -5 -17 8 -1 10 12 21 16 38 11 23 -6 23 -7 6 -13 -17 -6 -16 -8 8 -12 19
-4 27 -1 27 9 0 12 33 13 60 3 3 -1 9 -2 13 -1 5 1 6 -3 2 -9 -4 -6 -12 -10
-18 -9 -7 1 -21 0 -32 -1 -21 -2 45 -18 79 -19 20 -1 20 -1 1 13 -19 14 -19
15 5 35 14 11 32 18 40 16 8 -2 29 -6 45 -9z m-6617 -27 c17 -6 32 -16 32 -22
0 -7 9 -23 20 -37 15 -19 16 -28 7 -39 -9 -11 -9 -13 0 -8 12 7 73 -22 73 -35
0 -16 -69 -8 -78 9 -7 12 -35 18 -116 26 -58 6 -106 14 -106 19 0 5 12 7 28 4
56 -11 187 -16 167 -7 -11 5 -32 10 -46 10 -15 1 -40 8 -55 16 -16 8 -42 15
-57 15 -24 0 -26 3 -18 19 6 10 8 21 5 24 -3 3 -3 11 1 17 8 13 85 7 143 -11z
m7700 -23 c7 -4 52 -10 100 -12 363 -16 483 -26 478 -40 -3 -8 1 -14 10 -14 8
0 12 5 9 10 -4 6 5 10 20 10 15 0 24 -4 20 -10 -4 -7 7 -9 29 -6 19 2 48 1 63
-4 15 -5 22 -9 16 -9 -7 -1 -13 -5 -13 -9 0 -5 14 -6 31 -4 24 4 30 2 24 -8
-5 -8 -4 -11 3 -6 6 3 13 2 17 -4 12 -19 -26 -23 -40 -4 -9 12 -14 14 -15 6 0
-10 -4 -10 -22 0 -13 7 -27 11 -31 10 -5 -1 -6 2 -2 8 4 6 -5 10 -20 10 -15 0
-24 -4 -20 -10 8 -12 -15 -13 -34 -1 -7 5 -26 5 -42 1 -20 -6 -29 -4 -33 6 -6
16 -52 19 -61 4 -3 -5 3 -10 15 -10 11 0 31 -11 43 -24 17 -18 29 -22 55 -19
17 3 32 1 32 -3 0 -5 40 -9 90 -8 49 1 90 -3 90 -7 0 -12 -46 -23 -65 -16 -8
4 -17 2 -20 -3 -4 -6 -11 -10 -16 -10 -6 0 -7 5 -4 10 3 6 2 10 -4 10 -5 0
-18 3 -28 6 -16 5 -16 4 1 -10 19 -15 19 -16 -11 -16 -18 0 -33 6 -37 15 -3 8
-17 15 -31 15 -14 0 -39 9 -54 21 -23 17 -39 20 -87 16 -46 -3 -65 0 -86 15
-15 10 -29 14 -32 10 -3 -5 -19 -9 -37 -10 -25 -1 -34 11 -11 14 4 0 16 5 27
10 27 12 30 34 5 27 -11 -3 -20 0 -20 6 0 6 -5 11 -11 11 -8 0 -7 -5 1 -15 7
-9 10 -19 6 -22 -4 -4 -11 -1 -16 7 -6 8 -10 10 -10 4 0 -6 -13 -11 -30 -11
-16 0 -30 4 -30 9 0 16 -20 8 -21 -9 0 -14 -2 -15 -6 -3 -9 22 -26 31 -34 18
-16 -26 -123 -28 -147 -3 -16 16 -16 17 3 7 23 -11 120 -10 131 1 4 4 4 10 0
14 -4 4 -10 3 -14 -2 -8 -11 -58 -13 -68 -2 -4 4 -17 7 -29 7 -13 0 -28 7 -35
15 -12 14 -15 13 -31 -4 -24 -26 -24 -31 1 -31 11 0 20 -4 20 -8 0 -9 -64 6
-110 25 -14 6 -32 7 -41 3 -8 -5 -21 -5 -28 -1 -17 11 49 21 69 11 21 -11 86
0 69 11 -11 7 -10 9 5 9 15 0 16 3 6 15 -11 13 -10 14 11 3 13 -7 30 -17 37
-22z m-1358 -127 c0 -7 10 -9 26 -5 23 6 24 5 14 -14 -6 -12 -9 -29 -5 -37 3
-9 0 -20 -7 -25 -10 -6 -8 -8 5 -8 9 0 17 -6 17 -13 0 -8 17 -18 38 -24 l37
-10 -35 -3 c-19 -1 -29 -4 -22 -7 6 -2 10 -9 6 -14 -3 -5 0 -9 5 -9 6 0 11 5
11 10 0 14 16 12 33 -5 8 -8 18 -11 21 -7 11 11 137 12 131 1 -4 -5 -11 -7
-16 -4 -5 4 -9 1 -9 -4 0 -7 -17 -10 -42 -7 -44 3 -68 -1 -68 -13 0 -3 30 -6
66 -6 47 0 69 4 77 15 10 14 37 17 85 12 6 -1 12 -7 12 -12 0 -6 -11 -8 -25
-4 -25 6 -35 -9 -15 -21 17 -10 1 -25 -23 -21 -12 2 -27 -1 -34 -6 -7 -5 -18
-6 -24 -2 -7 4 -32 9 -57 11 -39 3 -44 2 -33 -11 9 -11 31 -15 70 -15 31 0 71
-4 88 -10 20 -6 35 -6 38 0 4 5 -4 10 -17 10 -23 2 -23 2 -1 6 12 2 35 -4 50
-15 45 -31 126 -77 147 -82 11 -3 21 -11 24 -18 3 -9 -3 -10 -25 -1 -22 8 -26
8 -15 -2 17 -18 15 -32 -3 -25 -9 3 -18 -1 -21 -9 -9 -22 -70 -49 -91 -40 -16
7 -16 8 2 12 49 10 75 25 65 38 -8 10 -18 10 -40 2 -20 -8 -25 -14 -17 -19 7
-5 1 -8 -15 -8 -16 0 -28 -3 -28 -7 0 -15 15 -31 35 -36 11 -3 1 -4 -21 -1
-36 5 -42 2 -47 -15 -3 -12 -10 -21 -17 -21 -6 0 -8 5 -4 12 5 8 0 9 -15 5
-22 -5 -22 -5 -5 14 9 10 15 21 13 23 -2 1 -29 8 -59 13 l-55 10 45 3 c42 2
43 3 15 10 -26 7 -24 8 19 9 46 1 48 0 30 -14 -18 -14 -17 -15 11 -8 27 6 29
5 16 -11 -8 -9 -11 -19 -8 -23 10 -9 37 17 37 35 0 8 8 24 18 35 17 19 16 20
-7 7 -13 -6 -21 -7 -17 -2 3 6 2 13 -4 17 -5 3 -10 0 -10 -7 0 -10 -13 -14
-40 -14 -22 1 -40 4 -40 9 0 4 9 7 20 7 11 0 20 5 20 10 0 21 -64 0 -89 -29
-23 -26 -57 -31 -91 -14 -26 13 -29 17 -19 36 9 20 9 20 -4 5 -17 -21 -37 -6
-30 23 4 14 9 16 23 9 27 -14 57 -12 57 3 0 8 -12 14 -30 14 -30 0 -49 18 -44
43 2 11 13 14 42 12 34 -3 37 -1 26 12 -8 9 -26 16 -42 16 -16 0 -30 6 -31 13
0 6 -2 17 -2 24 -1 6 -15 31 -32 55 -18 23 -32 47 -32 52 0 5 -5 12 -12 16
-15 9 -26 80 -11 80 6 0 11 -5 11 -11z m3110 -44 c20 -8 27 -14 17 -14 -27 -1
-15 -26 14 -28 22 -2 22 -2 4 6 -15 7 -7 10 33 10 28 1 52 -3 52 -8 0 -4 13
-7 28 -5 20 2 29 -1 29 -11 0 -8 -6 -15 -14 -15 -7 0 -13 4 -13 9 0 9 -77 8
-85 -1 -3 -3 -2 -13 1 -22 6 -14 17 -17 60 -14 30 1 54 -1 54 -5 0 -4 9 -3 19
3 14 7 20 7 23 -2 3 -8 18 -8 58 2 43 10 50 15 35 21 -17 6 -15 8 9 8 28 1 29
1 11 -19 -10 -11 -25 -20 -33 -20 -9 0 -12 -3 -8 -7 3 -4 32 -8 64 -9 66 -3
106 -8 145 -19 48 -13 29 -22 -30 -14 -32 5 -73 6 -90 3 -19 -4 -33 -2 -33 4
0 6 -27 9 -65 8 -36 0 -65 -5 -65 -9 0 -5 -7 -1 -16 7 -9 10 -33 16 -60 16
-46 0 -57 -12 -26 -29 19 -11 18 -12 -16 -16 -19 -2 -23 2 -19 16 3 11 0 19
-6 20 -8 0 -8 2 1 6 26 10 10 19 -33 17 -24 -2 -47 1 -50 7 -10 16 -48 11 -41
-6 5 -13 2 -13 -19 1 -14 9 -25 20 -25 25 0 5 -7 9 -17 9 -14 0 -14 -2 3 -21
26 -29 3 -40 -43 -20 -34 15 -34 16 -10 19 14 2 28 10 31 19 5 13 4 14 -8 4
-8 -7 -20 -10 -26 -6 -6 4 -17 1 -25 -5 -11 -9 -18 -8 -32 6 -17 16 -17 17 -1
11 10 -3 20 -2 23 3 7 12 109 4 113 -9 2 -6 11 -11 19 -11 11 0 8 6 -8 20 -20
16 -21 19 -6 20 9 0 17 -5 17 -11 0 -7 11 -9 27 -6 29 5 53 0 53 -13 0 -4 -12
-5 -27 -2 -16 2 -25 1 -21 -3 4 -4 24 -8 46 -9 49 -3 47 17 -5 36 -25 9 -33
17 -30 30 6 21 -4 23 -21 6 -9 -9 -12 -9 -12 0 0 7 6 12 13 13 6 0 3 4 -8 9
-33 14 6 10 45 -5z m-2117 -95 c17 -16 30 -20 57 -15 24 4 42 1 55 -9 24 -18
39 -21 29 -5 -4 8 5 9 32 5 22 -3 73 -8 114 -11 140 -9 210 -18 210 -26 0 -5
-8 -6 -17 -2 -14 5 -15 3 -7 -6 9 -10 17 -10 34 -1 18 10 20 14 9 21 -8 5 -9
9 -4 9 27 0 33 -16 15 -40 -15 -20 -26 -24 -62 -22 -23 2 -52 5 -63 8 -18 6
-18 4 -5 -9 8 -9 29 -19 45 -22 23 -5 26 -4 15 4 -12 9 -11 11 8 11 12 0 25
-7 28 -15 5 -13 9 -12 24 5 19 22 34 13 24 -15 -4 -8 -3 -15 2 -14 5 1 16 -1
24 -4 8 -4 35 -4 60 1 l45 7 -23 23 c-13 13 -34 22 -51 22 -55 0 -82 22 -41
33 13 3 20 0 20 -9 0 -8 5 -14 11 -14 5 0 7 5 4 10 -4 6 13 10 44 10 39 0 51
-4 51 -15 0 -8 5 -15 11 -15 5 0 8 4 5 9 -6 10 24 25 32 16 3 -3 1 -5 -5 -5
-6 0 -10 -8 -9 -17 1 -13 -5 -17 -24 -15 -13 1 -28 8 -32 15 -4 6 -8 8 -8 2 1
-21 28 -45 44 -39 11 4 16 1 16 -10 0 -9 5 -16 10 -16 6 0 10 4 10 8 0 4 9 8
20 8 22 0 27 -12 8 -19 -8 -3 -7 -6 4 -6 9 -1 20 4 23 9 4 6 11 8 16 5 19 -13
-21 -37 -49 -30 -71 17 -92 18 -92 1 0 -9 6 -16 13 -15 29 4 67 -2 67 -10 0
-11 -79 -11 -86 0 -3 5 -17 9 -32 9 -25 0 -25 1 -6 15 17 13 18 14 1 15 -10 0
-20 -6 -23 -13 -3 -8 -17 -11 -40 -9 -25 3 -32 7 -23 13 10 6 4 9 -16 9 -17 0
-35 4 -41 8 -12 12 -124 35 -131 28 -3 -3 5 -10 18 -16 l24 -11 -25 7 c-14 3
-43 9 -65 14 l-40 7 40 2 c39 2 39 2 16 15 -33 18 -5 28 30 10 21 -11 26 -11
26 1 0 7 -15 16 -34 20 -19 3 -41 9 -49 12 -12 4 -14 0 -8 -22 5 -20 4 -26 -5
-21 -13 8 -54 -17 -44 -27 3 -4 1 -7 -5 -7 -7 0 -12 7 -12 15 0 8 5 15 10 15
28 0 -32 41 -65 45 -43 6 -43 -3 1 -11 33 -6 44 -12 44 -25 0 -17 -79 -9 -115
11 -20 11 -48 21 -63 21 -24 1 -23 2 8 8 l35 7 -32 20 c-18 10 -33 22 -33 27
0 4 -5 7 -11 7 -6 0 -17 7 -25 15 -24 23 4 18 29 -5z m-6757 -15 c7 -29 19
-32 33 -8 7 14 12 15 25 4 8 -7 20 -10 26 -6 5 3 17 -1 26 -9 8 -9 24 -16 34
-16 10 0 22 -5 26 -11 4 -8 0 -9 -15 -4 -12 4 -21 2 -21 -4 0 -12 14 -14 48
-5 31 9 27 22 -10 33 -29 8 -30 9 -8 10 14 0 34 -2 46 -5 20 -5 20 -8 8 -42
-12 -37 -11 -52 6 -52 5 0 6 7 3 17 -4 11 -3 14 5 9 7 -4 12 -15 12 -25 0 -12
13 -22 40 -30 60 -18 59 -31 -2 -30 -43 1 -47 3 -23 8 26 6 27 8 10 14 -48 15
-98 20 -91 8 4 -6 16 -11 27 -11 11 0 17 -5 14 -10 -4 -6 -15 -8 -26 -5 -11 4
-19 2 -19 -4 0 -7 25 -11 63 -11 65 0 94 -10 83 -29 -5 -8 -13 -8 -27 -1 -13
7 -19 7 -19 0 0 -15 -47 -12 -64 5 -8 8 -21 15 -28 15 -10 0 -9 -3 2 -10 12
-8 10 -10 -9 -10 -13 0 -21 3 -18 7 4 3 -3 11 -15 17 -12 6 -24 18 -26 26 -4
12 -3 13 10 3 8 -7 18 -10 22 -6 4 4 -4 13 -16 20 -23 12 -23 12 7 13 37 0 22
17 -20 22 -17 2 -29 8 -27 16 1 6 -3 12 -9 12 -5 0 -7 5 -4 10 4 6 12 8 18 4
7 -3 4 1 -5 9 -22 18 -23 31 -2 23 9 -3 12 -2 9 4 -5 8 -65 11 -65 4 0 -2 7
-9 15 -17 12 -13 11 -15 -9 -19 -17 -4 -23 -1 -19 9 3 7 -1 13 -10 13 -16 0
-49 55 -39 64 12 12 22 5 28 -19z m7917 -96 c15 1 27 -3 27 -8 0 -5 14 -14 31
-20 39 -13 49 -14 29 -1 -11 7 -12 12 -3 21 8 8 13 6 18 -11 5 -17 13 -21 31
-17 13 2 29 -2 35 -9 6 -8 8 -15 3 -15 -5 -1 5 -5 21 -10 22 -6 16 -7 -24 -3
-29 2 -57 7 -61 9 -11 7 -40 -5 -40 -15 0 -5 9 -6 20 -3 11 3 20 0 20 -6 0 -6
-12 -9 -27 -7 -76 10 -113 19 -113 27 0 5 3 8 8 7 4 -2 9 1 12 7 3 5 -8 12
-25 15 l-30 6 25 9 c23 9 21 10 -20 15 -48 6 -79 -1 -43 -10 17 -4 19 -7 8
-17 -11 -10 -17 -10 -29 3 -9 8 -16 11 -16 5 0 -6 -6 -11 -14 -11 -9 0 -12 8
-9 24 5 24 7 24 72 19 36 -2 78 -4 94 -4z m-7920 -239 c14 -11 28 -20 33 -20
13 0 125 -43 121 -47 -2 -2 -38 4 -81 13 -42 8 -82 14 -89 11 -16 -6 59 -27
103 -28 l35 -1 -30 -8 -30 -8 27 -1 c15 0 45 -8 65 -16 29 -11 54 -13 108 -6
42 5 56 9 34 10 -43 1 -71 25 -40 34 11 3 25 -1 30 -7 6 -7 28 -18 50 -26 28
-9 37 -17 34 -29 -3 -13 -20 -17 -84 -19 -49 -2 -79 1 -79 8 0 5 -11 10 -25
10 -14 0 -25 4 -25 8 0 9 -157 35 -202 34 -16 -1 -28 4 -28 10 0 7 18 9 53 5
l52 -6 -52 17 c-51 17 -91 42 -44 27 16 -5 21 -4 17 4 -4 6 -1 11 6 12 10 0
10 2 1 6 -17 6 -16 33 1 33 7 0 25 -9 39 -20z m6155 -8 c0 -4 0 -14 1 -22 1
-12 4 -12 12 3 11 20 31 23 23 4 -2 -7 8 -17 25 -24 24 -9 34 -8 51 4 19 14
23 13 34 -2 9 -13 22 -16 45 -13 23 3 31 1 27 -8 -3 -8 0 -11 9 -8 7 3 26 -2
42 -12 15 -10 25 -14 21 -9 -9 10 9 35 25 35 7 0 7 -4 -1 -12 -17 -17 -15 -30
6 -26 9 2 25 -3 35 -12 10 -9 32 -13 55 -11 20 1 34 0 30 -5 -23 -22 -134 -6
-172 25 -18 15 -19 15 -13 -1 5 -15 0 -16 -46 -11 -29 3 -56 10 -62 16 -7 7
-6 8 3 3 6 -4 12 -3 12 3 0 6 6 8 14 5 8 -3 17 0 22 7 5 9 -1 10 -25 6 -20 -4
-30 -3 -26 3 3 6 -3 10 -14 10 -12 0 -21 -6 -21 -14 0 -9 -12 -14 -35 -14 -32
0 -52 17 -22 19 6 0 3 4 -8 9 -28 12 -35 12 -35 -1 0 -5 5 -7 10 -4 6 3 10 1
10 -5 0 -7 -7 -9 -16 -6 -9 3 -28 6 -42 6 -21 0 -24 2 -12 10 13 9 7 14 -12
11 -18 -3 -6 17 13 22 14 4 20 11 16 21 -4 10 -1 13 8 10 8 -3 14 -9 13 -12z
m-105 -71 c9 0 17 -6 17 -12 0 -5 -4 -7 -10 -4 -5 3 -10 1 -10 -5 0 -7 8 -9
21 -5 13 4 19 3 16 -2 -4 -6 13 -8 42 -5 42 4 50 1 65 -19 9 -13 20 -24 24
-24 4 0 6 -9 4 -20 -1 -11 5 -25 15 -32 15 -12 15 -14 -3 -12 -3 0 -14 -9 -24
-20 -9 -12 -24 -19 -32 -16 -9 4 -14 -1 -14 -14 0 -10 5 -17 12 -14 6 2 17 -3
24 -11 7 -9 16 -13 21 -10 5 3 14 2 19 -1 23 -14 -10 -31 -63 -33 -51 -1 -55
0 -59 23 -4 16 0 25 11 28 10 3 8 5 -6 6 -20 1 -28 15 -24 43 0 4 -9 10 -21
13 -14 5 -17 10 -8 15 8 5 8 9 -4 13 -9 4 -16 2 -16 -4 0 -5 -11 -8 -25 -6
-31 4 -45 17 -17 17 11 0 27 8 34 19 7 10 22 21 33 24 11 3 1 4 -23 1 -28 -4
-48 -1 -59 8 -15 11 -16 11 -10 -4 5 -13 1 -18 -13 -18 -11 0 -20 -4 -20 -9 0
-4 -13 -8 -30 -7 -35 1 -41 16 -7 16 28 0 51 15 43 28 -3 5 10 13 29 16 19 4
35 11 35 15 0 5 -18 5 -40 1 -22 -4 -40 -6 -40 -4 0 9 56 31 74 29 12 -1 29
-3 39 -4z m-5415 -264 c18 11 74 5 70 -7 -4 -16 30 -50 52 -51 l25 -1 -25 -7
c-14 -4 -40 -3 -59 3 -26 8 -36 7 -39 -2 -4 -14 -47 -6 -77 14 -11 8 -29 14
-40 13 -14 0 -16 -2 -5 -6 8 -4 21 -12 28 -20 11 -11 10 -13 -7 -13 -11 0 -23
5 -26 10 -3 6 -15 10 -26 10 -10 0 -19 4 -19 9 0 4 -11 6 -25 3 -32 -6 -143
17 -170 35 -26 17 -8 17 45 -2 48 -17 73 -10 44 13 -18 13 -17 14 10 8 15 -4
34 -13 42 -20 8 -9 38 -14 80 -14 60 0 65 1 61 18 -6 24 14 32 30 11 10 -13
15 -14 31 -4z m5272 -91 c-19 -7 -37 -21 -38 -30 -4 -16 2 -17 50 -11 63 9 65
10 48 30 -16 20 -3 19 17 -1 14 -14 14 -16 -3 -29 -11 -8 -40 -15 -66 -15
l-47 0 9 -31 c5 -18 7 -36 4 -41 -3 -5 0 -8 7 -7 8 2 32 -1 54 -6 48 -11 56
-12 73 -14 7 0 11 -5 8 -9 -6 -10 86 -8 102 2 5 3 12 -5 14 -19 5 -26 -1 -31
-17 -16 -15 13 -74 21 -80 11 -10 -16 -23 -12 -29 8 -6 18 -38 23 -52 9 -4 -3
-13 0 -21 8 -8 8 -22 15 -31 15 -13 0 -13 -2 4 -15 19 -14 11 -20 -23 -16 -6
1 -30 -3 -52 -8 -43 -9 -44 -9 -35 25 4 14 17 24 37 29 29 6 30 8 12 15 -17 7
-17 9 -2 9 9 1 17 6 17 12 0 6 -7 9 -15 5 -21 -8 -19 21 1 32 11 6 13 11 5 16
-31 19 8 55 59 55 21 -1 20 -2 -10 -13z m-4492 -18 c12 -6 22 -15 22 -20 0 -5
-4 -6 -10 -3 -5 3 -10 1 -10 -5 0 -7 6 -10 14 -7 8 3 20 0 26 -8 8 -10 8 -14
-1 -17 -28 -9 5 -30 42 -26 32 3 39 0 39 -14 0 -22 7 -23 26 -4 12 13 18 11
42 -12 16 -15 28 -31 28 -37 -2 -18 29 -11 32 8 2 11 -3 17 -14 17 -13 0 -15
3 -7 11 16 16 47 3 39 -17 -3 -9 -2 -12 5 -9 6 4 8 13 6 20 -4 8 5 12 24 13
16 0 27 -4 23 -9 -3 -5 -9 -7 -14 -4 -4 3 -8 -10 -7 -29 1 -27 7 -37 26 -46
20 -9 26 -8 33 4 10 17 48 22 48 7 0 -5 -8 -7 -18 -4 -12 3 -19 -1 -19 -11 0
-11 7 -14 24 -10 14 4 23 2 23 -5 0 -13 -82 -15 -96 -2 -5 5 -19 12 -31 16
-18 5 -22 3 -17 -8 3 -10 -4 -17 -22 -21 -23 -6 -25 -9 -13 -17 11 -8 11 -12
2 -16 -7 -2 -13 -9 -13 -14 0 -5 9 -4 19 3 15 9 24 8 45 -5 14 -9 32 -17 41
-17 8 0 15 -4 15 -10 0 -16 -47 -12 -54 5 -7 19 -36 19 -36 0 0 -22 -31 -18
-37 4 -4 16 -11 18 -36 14 -29 -4 -32 -2 -34 23 -2 39 -63 88 -63 51 0 -7 -9
-13 -20 -14 -17 -2 -18 1 -7 18 6 10 15 19 20 19 4 0 6 4 2 9 -3 6 3 15 12 21
16 10 15 10 -4 5 -13 -4 -23 -2 -23 3 0 5 -10 8 -22 8 -15 -1 -22 4 -20 13 2
8 -16 33 -38 56 -29 29 -38 44 -28 47 7 3 10 8 7 12 -9 10 -80 -4 -74 -14 3
-4 -6 -15 -20 -24 -24 -16 -27 -16 -48 -1 -22 17 -22 17 8 11 32 -6 48 1 53
23 2 9 -3 11 -15 7 -16 -5 -16 -5 -2 7 21 16 98 19 127 5z m3482 -93 c36 -100
39 -105 62 -105 18 0 12 -6 -22 -23 -25 -13 -49 -33 -55 -45 -14 -31 -21 -27
-22 11 0 17 -6 50 -13 72 -22 74 -24 104 -4 126 24 27 33 21 54 -36z m-4475
16 c3 -5 18 -12 34 -16 18 -4 28 -12 27 -23 -1 -10 16 -25 43 -38 24 -13 47
-27 50 -32 6 -8 80 -32 108 -34 7 -1 10 -5 7 -10 -3 -4 3 -11 13 -15 10 -3 33
-19 52 -36 30 -25 40 -28 87 -25 30 1 54 0 54 -4 0 -5 -11 -8 -24 -8 -14 0
-27 -4 -30 -8 -9 -15 -70 0 -96 23 -14 12 -42 29 -62 39 -21 9 -38 21 -38 27
0 6 -5 7 -11 4 -6 -4 -8 -13 -5 -21 6 -16 4 -17 -18 -8 -9 3 -13 10 -10 15 7
12 -56 49 -86 50 -22 0 -22 1 -6 8 16 6 12 11 -28 35 -25 15 -44 31 -41 37 4
5 -5 9 -19 9 -20 0 -24 4 -19 17 5 12 3 14 -7 8 -9 -5 -11 -4 -6 3 9 14 23 15
31 3z"/>
<path d="M385 2030 c4 -6 15 -10 25 -10 10 0 21 -6 23 -12 4 -10 6 -10 6 0 1
6 6 12 13 12 6 0 8 -3 5 -7 -4 -3 1 -12 10 -18 15 -11 13 -13 -15 -20 -17 -3
-36 -4 -42 0 -5 3 -10 -3 -10 -14 0 -10 6 -21 13 -24 7 -3 5 -8 -8 -13 -11 -4
-26 -14 -33 -21 -7 -7 -23 -13 -35 -13 -18 0 -19 -2 -7 -10 13 -8 11 -11 -7
-16 -13 -4 -21 -10 -18 -14 3 -5 -2 -15 -11 -24 -8 -9 -12 -20 -9 -26 3 -5 1
-10 -4 -10 -6 0 -11 6 -11 14 0 8 -14 26 -31 40 -20 17 -25 26 -15 26 9 0 16
-4 16 -10 0 -5 5 -10 11 -10 5 0 7 5 3 12 -5 8 0 9 15 5 18 -4 21 -1 19 24 -2
25 -6 29 -34 29 -17 0 -47 3 -65 6 -32 5 -33 4 -12 -8 39 -23 14 -38 -62 -35
-49 1 -69 -2 -68 -9 1 -7 -9 -15 -22 -18 -19 -5 -25 -13 -25 -33 0 -24 2 -25
43 -21 23 3 56 2 72 -2 l30 -8 -35 -2 c-19 -2 -52 -2 -72 -1 -53 4 -48 -17 4
-22 l43 -4 -42 -1 -43 -2 0 -48 c0 -57 5 -65 34 -50 20 11 20 11 1 20 -14 5
-7 6 20 3 37 -5 39 -4 21 10 -17 12 -17 15 -4 15 9 0 23 -6 30 -14 20 -19 74
-29 95 -17 17 10 17 10 1 11 -10 0 -18 5 -18 10 0 18 29 10 44 -12 l16 -22 0
22 c0 13 6 22 16 22 8 0 12 5 8 11 -7 12 12 29 34 29 19 0 14 -20 -10 -41 -13
-10 -17 -18 -10 -19 20 0 64 47 49 53 -9 4 -9 6 0 6 7 1 10 8 6 17 -5 14 -3
15 15 5 11 -6 33 -11 49 -10 27 1 27 1 -5 9 -19 4 -39 13 -45 20 -10 10 -2 11
37 5 34 -4 46 -3 41 4 -3 6 -11 9 -16 6 -18 -12 -9 6 19 35 16 16 32 27 35 24
3 -4 28 -7 55 -8 38 -1 48 2 44 13 -4 11 -1 11 15 2 17 -8 22 -7 27 5 9 23 8
24 -16 25 -22 0 -22 1 -3 9 19 8 19 9 -2 9 -14 1 -23 -5 -23 -14 0 -8 -7 -15
-16 -15 -11 0 -14 6 -9 20 8 24 -2 26 -26 4 -17 -15 -18 -15 -14 7 6 31 17 36
96 43 l68 7 -35 31 c-35 31 -37 31 -95 22 -36 -6 -63 -6 -68 -1 -13 13 -83 19
-76 7z"/>
<path d="M1223 1853 c-13 -2 -23 -9 -23 -14 0 -6 -9 -7 -20 -4 -11 4 -20 2
-20 -4 0 -6 10 -11 23 -12 21 -1 21 -1 -3 -8 -16 -5 -25 -14 -26 -29 -1 -26 7
-27 48 -6 20 11 45 14 70 11 49 -7 57 -13 33 -31 -16 -12 -15 -13 16 -11 22 1
46 -6 69 -21 30 -21 32 -24 12 -24 -13 0 -22 -6 -22 -15 0 -8 5 -15 12 -15 8
0 9 -3 2 -10 -13 -13 -76 -1 -67 13 4 7 0 8 -11 4 -10 -4 -23 -7 -29 -8 -7 0
-1 -5 13 -11 14 -6 33 -10 44 -9 10 2 15 -2 12 -7 -13 -21 84 -29 111 -10 7 6
20 5 32 -2 24 -12 29 -32 6 -24 -26 10 -16 -12 10 -24 38 -18 32 -35 -10 -28
-21 4 -35 3 -35 -3 0 -5 20 -13 44 -16 33 -5 43 -11 39 -21 -10 -27 16 -43 62
-37 26 3 45 0 49 -6 7 -11 -21 -14 -99 -13 -29 1 -29 1 -5 -7 14 -5 37 -6 53
-3 15 2 27 0 27 -6 0 -7 10 -8 32 -1 43 12 44 12 24 -10 -11 -12 -26 -17 -44
-14 -18 3 -23 2 -14 -5 10 -7 10 -11 -2 -22 -20 -16 -11 -30 17 -29 17 1 18 2
5 6 -19 5 -24 18 -10 27 17 10 102 -27 102 -45 0 -16 -28 -10 -40 9 -10 16
-10 15 -8 -3 2 -14 -4 -21 -27 -25 -30 -6 -30 -6 8 -11 23 -3 45 0 55 8 28 21
48 15 76 -22 15 -19 33 -35 41 -35 8 0 21 -10 29 -21 8 -12 25 -21 40 -21 14
-1 23 -5 20 -10 -7 -12 36 -1 50 12 13 12 39 -18 32 -36 -4 -10 4 -21 24 -32
31 -18 42 -39 14 -28 -8 3 -12 2 -9 -4 3 -6 15 -10 26 -10 12 0 19 -7 19 -20
0 -13 5 -18 15 -14 9 4 15 0 15 -9 0 -20 27 -29 51 -17 27 15 24 26 -12 40
l-31 13 28 12 c25 10 26 12 9 18 -10 4 -23 3 -29 -3 -5 -5 -19 -10 -30 -10
-26 0 -15 9 31 25 38 13 38 14 13 23 l-25 10 24 9 c22 9 22 10 6 17 -12 4 -22
2 -27 -7 -4 -9 -17 -12 -33 -9 -23 4 -24 6 -9 17 15 11 15 12 -5 18 -11 3 -19
1 -15 -4 3 -5 -2 -9 -11 -9 -13 0 -14 4 -5 20 10 18 8 20 -17 20 -18 0 -23 3
-16 8 9 5 1 12 -22 21 -19 7 -35 18 -35 26 0 9 22 2 71 -22 62 -30 76 -34 103
-25 34 11 34 11 -44 15 -14 1 -24 7 -23 15 2 6 -2 12 -7 12 -6 0 -10 5 -10 10
0 6 23 10 51 10 27 0 48 3 46 8 -3 4 17 6 44 6 27 -1 49 2 49 7 0 12 -107 11
-115 -1 -3 -5 -12 -10 -18 -10 -8 0 -7 4 2 9 10 6 2 9 -25 8 -21 -1 -50 2 -64
7 -24 8 -24 8 -5 -8 20 -15 20 -15 -2 -16 -14 0 -23 6 -23 15 0 8 -9 15 -21
15 -11 0 -18 -4 -15 -9 4 -5 -22 -8 -59 -8 -36 1 -65 5 -65 10 0 4 13 7 29 7
17 0 32 4 35 8 2 4 -12 6 -32 5 -34 -3 -35 -2 -14 8 30 16 28 29 -7 29 -20 0
-30 6 -34 20 -6 23 -6 24 28 8 23 -10 28 -10 36 5 11 18 49 24 49 7 0 -5 -6
-10 -12 -10 -10 0 -10 -2 0 -9 11 -6 10 -10 -4 -15 -16 -6 -16 -8 2 -21 10 -7
29 -11 42 -8 13 3 22 1 22 -6 0 -6 10 -11 21 -11 16 0 19 3 12 13 -6 8 -2 19
13 33 19 18 24 19 28 7 9 -21 8 -23 -11 -23 -12 0 -14 -3 -7 -10 7 -7 20 -7
33 -2 20 7 21 9 7 21 -12 10 -13 17 -6 26 15 18 -30 28 -84 20 -37 -6 -43 -4
-53 17 -7 12 -12 17 -12 11 -1 -15 -41 -18 -41 -4 0 12 63 23 86 15 15 -4 13
-1 -5 14 -14 11 -31 18 -38 15 -7 -3 -13 0 -13 7 0 9 -3 10 -13 1 -8 -6 -17
-8 -20 -4 -4 3 -13 0 -21 -6 -13 -11 -17 -5 -29 36 -11 36 -17 44 -22 31 -4
-10 -16 -18 -26 -18 -10 0 -19 -4 -19 -10 0 -5 4 -10 9 -10 5 0 17 -3 27 -7
13 -5 15 -3 9 7 -5 8 -4 11 3 6 12 -7 5 -36 -9 -36 -4 0 -6 -6 -3 -14 8 -21
-28 -30 -43 -10 -7 10 -13 24 -13 31 0 7 -6 13 -12 13 -8 0 -9 3 -3 8 13 9 17
64 5 57 -6 -3 -7 1 -4 9 3 9 16 16 28 16 28 0 100 -20 106 -30 3 -4 14 -4 25
1 l20 8 -20 0 c-11 1 -33 8 -50 17 -21 11 -51 15 -100 13 -126 -4 -155 -1
-155 19 0 15 9 17 76 15 58 -2 80 2 92 14 15 14 14 15 -3 10 -34 -10 -90 -11
-104 -3 -8 5 -17 3 -22 -5 -7 -11 -12 -11 -26 -2 -10 6 -17 17 -15 23 2 9 -19
11 -77 9 -43 -2 -75 -1 -69 2 6 4 1 10 -12 14 -16 5 -19 10 -11 18 8 8 14 8
23 -1 7 -7 28 -12 48 -12 26 0 31 3 20 10 -8 5 -10 10 -5 11 24 2 -34 18 -67
18 -27 1 -38 5 -38 16 0 10 -10 15 -31 15 -27 0 -30 -2 -19 -15 10 -13 9 -15
-12 -15 -14 0 -28 3 -32 7 -4 4 -15 8 -24 8 -12 0 -17 8 -17 28 1 15 -2 26 -5
26 -3 -1 -15 -4 -27 -6z"/>
<path d="M522 1164 c-7 -8 -10 -19 -7 -24 3 -6 -5 -10 -18 -10 -17 0 -26 -7
-30 -21 -4 -17 -3 -19 6 -10 14 14 57 15 57 0 0 -6 -5 -19 -10 -30 -8 -15 -7
-19 5 -19 8 0 15 -4 15 -10 0 -5 -7 -10 -15 -10 -12 0 -14 -4 -5 -19 5 -11 6
-22 1 -25 -12 -8 -21 4 -21 31 0 13 -3 23 -7 24 -59 8 -113 8 -113 -1 0 -5 7
-10 15 -10 11 0 15 -8 12 -27 -3 -24 -8 -28 -38 -28 -23 0 -35 -5 -37 -16 -2
-12 -12 -15 -37 -12 -18 2 -36 -1 -40 -7 -4 -6 5 -10 19 -10 14 0 26 -5 26
-11 0 -7 -11 -9 -29 -6 -31 6 -72 -15 -57 -30 5 -4 11 -2 13 5 7 20 22 14 16
-7 -3 -14 -13 -19 -30 -18 -14 1 -28 -3 -30 -9 -2 -7 17 -12 52 -13 32 -1 55
3 55 9 0 5 -7 10 -15 10 -8 0 -15 6 -15 14 0 13 4 13 28 0 15 -7 45 -13 67
-13 l40 1 -37 10 c-21 6 -38 14 -38 19 0 11 43 2 88 -19 41 -19 53 -9 15 13
l-28 16 28 -4 c15 -2 27 0 27 6 0 5 13 7 31 3 25 -5 28 -3 17 8 -7 7 -20 15
-28 19 -12 4 -11 6 3 6 10 1 15 6 12 12 -5 7 6 8 32 5 21 -3 32 -3 25 0 -6 3
-10 10 -6 15 3 5 14 4 26 -2 17 -9 18 -13 7 -20 -11 -7 -9 -9 6 -9 11 1 27 6
36 13 15 11 15 15 3 32 -19 26 -17 37 5 30 33 -10 32 12 -2 34 l-32 21 47 -4
c34 -3 48 -1 52 10 6 14 -22 34 -48 34 -9 0 -16 4 -16 9 0 5 -20 8 -45 7 -25
-1 -45 2 -45 6 0 5 4 8 8 8 4 0 8 9 9 20 2 23 -7 25 -25 4z"/>
<path d="M2666 964 c-17 -8 -48 -12 -82 -10 -30 2 -54 -1 -54 -5 0 -5 8 -9 18
-10 36 -2 -34 -17 -88 -19 -44 -1 -50 -3 -32 -10 12 -5 22 -13 22 -18 0 -11
57 -30 95 -32 65 -4 77 3 18 11 -72 9 -92 17 -72 30 18 11 32 11 25 1 -3 -5
15 -10 39 -10 32 -2 47 3 55 15 8 13 13 14 16 6 3 -7 12 -13 20 -13 11 0 12
-4 4 -19 -8 -16 -7 -20 9 -18 10 0 17 6 14 13 -2 6 3 14 11 17 22 9 20 27 -3
27 -11 0 -22 4 -25 8 -3 5 18 7 47 5 36 -3 48 -1 38 5 -8 6 -20 8 -27 5 -6 -2
-15 0 -18 6 -8 12 116 8 149 -4 16 -6 18 -5 8 5 -6 7 -40 14 -75 16 -35 2 -68
6 -74 8 -6 3 -24 -2 -38 -10z"/>
<path d="M3369 766 c9 -11 6 -13 -15 -13 -14 0 -30 -5 -35 -10 -5 -5 6 -8 29
-5 22 2 32 0 25 -5 -10 -7 -8 -13 6 -25 10 -8 24 -18 32 -21 9 -3 5 -6 -8 -6
-25 -1 -40 -19 -21 -26 7 -2 29 -6 48 -9 55 -6 73 -16 59 -32 -6 -8 -23 -15
-38 -15 -23 -2 -24 -2 -3 -6 30 -6 18 -23 -16 -23 -19 0 -23 -3 -15 -11 8 -8
20 -9 41 -1 22 7 33 7 42 -1 10 -9 11 -9 5 3 -8 13 -7 13 11 0 10 -8 25 -23
33 -33 10 -14 21 -17 42 -13 16 3 29 1 29 -4 0 -6 -7 -10 -15 -10 -8 0 -15 -5
-15 -11 0 -7 10 -9 25 -7 14 3 25 1 25 -3 0 -5 -9 -9 -20 -9 -11 0 -20 -7 -20
-16 0 -11 -6 -14 -22 -10 -13 3 -17 3 -10 0 6 -3 10 -10 6 -15 -8 -13 -42 -11
-47 4 -3 9 -7 9 -20 -2 -23 -19 -21 -30 7 -37 13 -3 23 -12 22 -21 0 -9 5 -18
13 -21 8 -3 11 0 7 7 -4 6 -1 11 8 11 27 0 26 -18 -1 -25 -20 -5 -31 -1 -42
13 -21 25 -56 44 -79 40 -11 -2 -17 4 -17 17 0 16 7 20 34 20 19 0 36 6 38 13
3 6 -3 12 -13 12 -23 0 -15 6 20 14 27 7 28 6 15 -10 -12 -16 -12 -17 4 -11
10 4 21 7 23 7 3 0 2 5 -2 11 -4 7 -7 21 -8 32 -1 14 -10 23 -28 28 -16 4 -28
3 -28 -1 0 -5 11 -10 24 -12 23 -3 23 -5 10 -23 -9 -12 -18 -16 -22 -10 -4 6
-23 10 -42 10 -23 0 -34 4 -32 13 2 14 -24 16 -33 2 -8 -14 19 -40 42 -40 17
-1 17 -1 -1 -12 -15 -8 -21 -8 -24 0 -2 7 -12 12 -22 12 -10 0 -20 5 -22 11
-2 5 -16 12 -31 13 -21 3 -25 0 -17 -9 8 -9 8 -15 0 -20 -5 -3 -10 -1 -10 4 0
6 -5 11 -11 11 -6 0 -9 -8 -6 -19 4 -16 0 -18 -38 -14 -33 4 -42 2 -42 -10 0
-10 8 -15 18 -14 10 1 17 -2 16 -8 -1 -5 -13 -10 -27 -9 -14 0 -24 6 -22 13 3
16 -25 26 -41 13 -6 -6 -29 -10 -49 -9 -28 1 -37 5 -35 16 1 12 -8 16 -38 18
-22 1 -32 -1 -22 -4 9 -2 14 -9 11 -15 -4 -6 -2 -8 4 -4 6 3 14 1 17 -5 4 -6
-2 -13 -14 -16 -12 -3 -21 -9 -21 -14 0 -13 44 -11 57 2 15 15 70 2 96 -24 16
-16 34 -21 74 -21 29 -1 53 2 53 7 0 4 -17 7 -37 7 -28 0 -34 3 -23 10 8 5 25
7 36 4 12 -3 25 -1 28 5 4 6 12 11 17 11 6 0 8 -4 5 -9 -4 -5 27 -8 74 -6 44
2 83 -1 86 -6 5 -9 -22 -12 -76 -10 -25 0 -25 0 3 -10 15 -6 25 -15 21 -20 -9
-16 20 -10 54 11 39 24 46 25 38 5 -3 -8 -1 -15 4 -15 5 0 21 -5 37 -12 41
-16 52 -17 47 -4 -3 7 6 12 23 13 16 1 22 -1 16 -4 -15 -6 -17 -23 -3 -23 5 0
18 7 27 15 10 8 27 21 38 29 25 18 15 29 -30 31 -19 0 -36 5 -38 10 -1 5 21 8
49 6 46 -2 52 0 74 28 12 17 31 31 41 31 25 0 33 18 17 37 -10 14 -10 15 0 9
8 -5 21 -1 33 10 26 24 25 43 -3 37 -20 -4 -21 -3 -6 7 13 8 23 8 38 0 13 -7
20 -7 20 0 0 5 -5 10 -11 10 -6 0 4 16 22 35 18 18 35 32 39 30 3 -2 13 10 22
26 17 28 16 29 -6 35 -27 6 -86 -20 -85 -39 0 -9 2 -9 6 1 7 18 20 15 26 -8 3
-11 2 -18 -3 -15 -4 3 -25 -3 -46 -12 -22 -9 -43 -17 -47 -17 -5 -1 -15 -9
-22 -20 -8 -10 -26 -18 -41 -18 -15 0 -46 -13 -67 -29 -22 -16 -42 -27 -45
-24 -8 8 30 45 46 45 9 0 12 3 8 7 -4 4 -15 8 -23 8 -10 0 -18 11 -20 28 -3
20 1 27 13 27 10 0 14 -3 11 -7 -11 -10 51 -33 71 -26 9 4 21 12 25 20 4 7 22
13 39 13 26 0 29 2 18 16 -23 26 -48 36 -69 25 -22 -12 -34 -48 -17 -55 6 -2
-1 -5 -16 -5 -18 -1 -29 5 -33 19 -5 16 -13 19 -48 16 -23 -2 -44 0 -47 4 -3
5 -22 2 -43 -5 -34 -12 -55 -1 -22 11 8 4 15 12 15 19 0 28 24 28 47 1 12 -15
23 -22 23 -15 0 8 16 9 54 5 43 -6 55 -4 59 8 4 10 19 16 38 16 18 0 30 3 26
6 -3 3 3 15 13 27 23 24 23 22 -12 31 -21 5 -28 3 -28 -9 0 -8 4 -15 10 -15 5
0 7 -7 4 -15 -8 -19 -19 -19 -37 -1 -8 8 -32 16 -53 18 -22 2 -46 8 -54 13
-13 8 -13 6 -1 -8 7 -9 23 -17 35 -17 20 -1 20 -1 2 -12 -14 -8 -24 -8 -38 1
-29 18 -107 30 -139 21 -16 -5 -29 -5 -29 0 0 4 12 11 28 15 l27 8 -29 12
c-40 17 -69 9 -56 -15 14 -27 13 -30 -12 -30 -19 0 -20 2 -8 10 10 6 11 10 3
10 -7 0 -13 6 -13 14 0 8 -7 17 -16 20 -24 9 -28 7 -15 -8z"/>
<path d="M4156 128 c4 -6 3 -8 -3 -5 -6 4 -23 0 -39 -8 -28 -14 -49 -11 -39 6
4 5 2 9 -4 9 -19 0 -20 -18 -2 -35 12 -10 33 -16 53 -14 46 3 96 -2 81 -8 -7
-2 -13 -9 -13 -15 0 -6 7 -8 15 -5 23 10 26 -8 4 -31 -19 -22 -19 -22 0 -22
11 0 22 6 24 13 4 9 6 9 6 0 1 -18 61 -17 61 1 0 8 7 17 16 20 8 3 12 10 9 16
-3 5 2 10 11 10 20 0 11 12 -14 18 -9 3 -36 5 -60 6 -30 1 -41 5 -37 14 3 9
-1 11 -15 7 -16 -5 -20 -2 -20 14 0 15 -6 21 -21 21 -13 0 -18 -4 -13 -12z"/>
</g>
</svg>
