<?xml version="1.0" standalone="no"?>
<!DOCTYPE svg PUBLIC "-//W3C//DTD SVG 20010904//EN"
 "http://www.w3.org/TR/2001/REC-SVG-20010904/DTD/svg10.dtd">
<svg version="1.0" xmlns="http://www.w3.org/2000/svg"
 width="1182.000000pt" height="664.000000pt" viewBox="0 0 1182.000000 664.000000"
 preserveAspectRatio="xMidYMid meet">
<metadata>
Created by potrace 1.13, written by Peter Selinger 2001-2015
</metadata>
<g transform="translate(0.000000,664.000000) scale(0.100000,-0.100000)"
fill="#000000" stroke="none">
<path d="M0 4670 l0 -1970 35 0 c19 0 35 5 35 11 0 8 5 8 15 -1 20 -17 122 -4
133 16 7 12 21 14 70 8 34 -3 60 -9 58 -13 -2 -3 26 -7 62 -9 65 -2 66 -2 39
13 -15 9 -27 20 -27 25 0 6 -6 10 -14 10 -18 0 -26 46 -12 66 10 12 17 13 41
4 16 -6 45 -9 63 -5 29 5 33 10 32 33 -4 49 -2 52 29 46 23 -5 34 -1 52 20 12
14 29 26 36 26 8 0 11 4 8 10 -4 6 6 10 22 10 28 0 39 -11 80 -84 l13 -21 0
23 c0 12 -4 22 -10 22 -5 0 -10 10 -10 22 0 11 -11 36 -25 53 -26 36 -24 45
12 45 22 0 23 3 18 48 -7 54 8 89 26 60 5 -10 17 -18 24 -18 18 0 19 -20 3
-55 -10 -22 -9 -28 3 -36 21 -13 67 -11 72 4 4 9 6 8 6 -2 1 -11 4 -11 15 -1
8 6 12 18 9 26 -10 26 6 62 31 68 18 4 25 15 30 46 5 31 11 41 31 46 18 4 25
13 25 29 0 16 10 27 34 39 49 23 66 20 97 -16 34 -41 57 -29 33 17 -8 16 -14
41 -12 55 2 20 8 25 31 24 25 -1 28 2 22 20 -20 61 -18 75 9 86 14 5 26 15 26
21 0 7 3 9 7 6 7 -8 53 31 53 45 0 13 -34 48 -47 48 -24 0 -14 40 13 52 22 11
28 10 40 -7 8 -10 14 -33 14 -51 0 -28 24 -64 35 -53 2 3 5 22 7 43 1 21 8 40
15 43 19 7 16 22 -9 42 -29 24 -15 44 25 35 18 -4 36 -13 42 -20 14 -19 69
-11 73 10 4 20 32 22 32 2 0 -8 14 -18 33 -21 17 -4 35 -12 38 -18 12 -17 31
34 25 65 -4 20 -1 30 9 34 21 8 19 31 -5 61 -11 14 -20 36 -20 49 0 13 -7 27
-16 32 -20 11 -15 46 8 50 12 2 18 -7 23 -37 4 -26 12 -41 21 -41 9 0 13 4 10
9 -4 5 6 24 21 41 24 29 25 34 11 44 -16 12 -10 48 12 61 8 5 8 11 -1 21 -6 8
-8 25 -5 40 6 24 10 26 44 21 l37 -6 1 49 c1 28 -3 50 -7 50 -5 0 -6 6 -4 13
3 6 -11 22 -31 35 -31 20 -34 21 -25 4 11 -20 -2 -52 -13 -33 -9 14 -76 15
-76 1 0 -6 8 -10 18 -8 12 2 17 -4 17 -22 0 -19 -5 -24 -19 -22 -10 2 -25 0
-35 -4 -13 -6 -12 -8 9 -15 l25 -9 -25 4 c-14 2 -34 7 -44 11 -16 7 -18 5 -13
-9 4 -10 3 -15 -3 -11 -6 3 -10 1 -10 -4 0 -6 -7 -11 -16 -11 -9 0 -31 -16
-50 -37 -28 -30 -36 -34 -49 -23 -22 18 -18 47 8 54 22 6 22 7 -5 22 -35 18
-35 23 -3 16 14 -2 25 0 25 6 0 5 9 12 20 15 31 8 24 27 -10 27 -21 0 -30 5
-30 16 0 9 5 12 11 8 8 -5 10 4 7 29 -4 35 15 61 25 34 3 -9 8 -9 18 0 10 10
9 16 -6 33 -19 22 -14 39 7 23 7 -5 32 -10 55 -11 41 -1 42 0 31 24 -7 15 -19
24 -35 24 -12 0 -23 5 -23 10 0 6 7 10 15 10 18 0 20 16 3 23 -9 4 -6 11 9 24
27 23 44 109 19 100 -10 -4 -16 -1 -16 8 0 8 3 15 8 15 4 0 7 15 7 33 0 32 0
32 50 31 34 0 54 4 63 15 8 11 11 12 10 3 -2 -8 7 -18 20 -23 15 -6 21 -5 17
1 -3 6 1 10 9 10 9 0 16 -4 16 -9 0 -5 11 -11 25 -13 14 -3 25 -2 25 3 0 5 20
0 45 -11 25 -11 45 -17 45 -15 0 3 17 -2 38 -11 45 -19 211 -23 222 -5 4 7 31
11 68 10 49 -2 62 -5 63 -18 0 -10 2 -12 6 -3 7 17 23 15 23 -3 0 -9 9 -15 25
-15 14 0 25 5 25 10 0 6 9 10 19 10 11 0 21 6 24 13 3 9 9 7 24 -5 21 -19 43
-24 43 -9 0 10 26 13 168 15 62 0 116 6 120 11 4 6 24 11 45 13 29 3 37 0 37
-13 0 -12 5 -15 16 -11 9 3 19 6 22 6 4 0 0 5 -8 10 -10 7 7 10 58 10 41 0 72
-4 72 -10 0 -11 53 -14 63 -4 4 4 45 6 92 5 49 -1 85 2 85 7 0 28 222 31 239
3 4 -5 19 -13 34 -16 15 -4 30 -11 33 -16 3 -5 14 -9 25 -9 10 0 19 -4 19 -10
0 -15 27 -12 44 6 14 13 21 14 53 2 21 -7 48 -23 60 -35 23 -24 53 -22 53 3 0
18 15 18 43 0 12 -8 38 -17 58 -20 21 -4 43 -13 49 -21 7 -9 30 -18 51 -21 22
-4 39 -10 39 -14 0 -4 15 -13 33 -21 17 -7 34 -15 37 -18 8 -9 96 -51 107 -51
6 0 16 -7 23 -15 7 -8 23 -15 37 -15 13 0 26 -7 29 -15 4 -8 11 -15 16 -15 6
0 7 7 4 16 -5 12 -1 14 17 8 31 -9 31 -10 32 -59 1 -31 -2 -42 -12 -38 -7 3
-13 0 -13 -7 0 -7 -14 -25 -31 -39 l-31 -28 7 -86 c5 -54 13 -91 21 -98 11 -9
14 -8 14 5 0 10 5 14 10 11 6 -3 10 -34 10 -68 l0 -62 58 -25 c34 -15 50 -26
40 -28 -10 -2 -28 4 -40 12 -12 9 -26 16 -31 16 -13 0 3 -111 19 -137 8 -12
14 -30 15 -40 0 -11 3 -13 6 -5 8 20 33 -5 33 -33 0 -13 7 -25 14 -28 9 -4 13
-1 11 6 -10 35 -14 127 -5 127 5 0 10 -9 10 -20 0 -13 5 -18 15 -14 12 5 14 0
9 -25 -5 -23 -3 -31 6 -29 16 3 51 -99 42 -121 -4 -10 -7 -11 -10 -3 -2 7 -8
12 -13 12 -5 0 -4 -11 3 -25 6 -13 14 -22 19 -20 4 3 11 0 15 -6 5 -8 3 -9 -6
-4 -9 6 -10 2 -5 -15 5 -14 3 -20 -3 -16 -6 3 -17 -1 -25 -9 -19 -19 -27 -19
-27 -1 0 8 -9 24 -20 37 l-20 24 11 -30 c6 -16 17 -38 26 -47 13 -14 18 -15
29 -4 16 16 121 29 167 21 27 -5 38 -1 65 24 29 28 64 42 61 24 -4 -27 3 -43
21 -43 13 0 20 -7 20 -19 0 -10 10 -30 21 -45 l21 -27 -53 6 c-30 4 -78 11
-108 16 -30 5 -64 9 -75 8 -42 -1 21 -18 134 -36 61 -9 110 -21 110 -25 0 -13
-99 -9 -174 7 -38 8 -72 13 -74 10 -6 -6 3 -9 113 -33 115 -25 90 -43 -29 -20
-77 15 -83 15 -134 -5 -29 -11 -51 -21 -50 -23 2 -1 29 4 60 13 53 15 62 15
137 -3 90 -21 97 -39 12 -31 -53 5 -55 4 -26 -9 17 -7 41 -13 55 -14 23 -1 24
-1 6 -12 -14 -8 -32 -8 -68 1 -42 11 -55 10 -113 -9 -37 -12 -65 -24 -62 -26
2 -2 32 6 66 17 l62 21 46 -20 c39 -17 43 -21 26 -26 -12 -4 -32 -2 -46 5 -19
9 -30 8 -53 -5 -27 -15 -27 -16 -4 -10 14 4 31 9 38 11 6 3 12 0 12 -6 0 -6 7
-11 16 -11 11 0 15 -6 11 -20 -3 -14 0 -20 10 -20 14 0 13 -4 -3 -22 l-19 -22
25 17 c27 19 75 23 85 7 4 -6 -7 -10 -26 -10 -48 0 -30 -9 23 -12 48 -3 52
-13 12 -28 -13 -5 -24 -16 -24 -24 0 -8 -7 -12 -17 -10 -22 6 -49 -44 -33 -60
8 -8 13 -7 19 2 7 12 24 18 54 21 4 1 7 9 8 19 0 14 2 14 9 -3 6 -15 9 -16 9
-4 1 9 11 24 22 35 12 10 25 28 30 39 6 17 8 17 8 3 1 -10 6 -18 12 -18 6 0 8
-9 4 -20 -5 -15 -2 -20 12 -20 17 -1 17 -2 -1 -15 -18 -14 -17 -15 25 -16 l44
-1 -67 -31 c-38 -17 -68 -35 -68 -39 0 -12 34 -10 47 3 14 14 47 4 38 -11 -4
-6 -10 -8 -15 -5 -10 6 -80 -35 -80 -48 0 -4 8 -3 18 3 9 6 42 16 72 24 54 14
56 13 76 -10 12 -13 32 -24 45 -25 20 0 19 -3 -11 -14 -42 -16 -61 -18 -40 -5
9 6 10 10 3 10 -6 0 -18 -6 -25 -14 -11 -11 -36 -23 -68 -31 -3 -1 -22 -9 -42
-18 -44 -20 -63 -43 -21 -26 59 24 69 28 116 39 26 7 50 11 53 8 7 -8 -7 -38
-19 -38 -5 0 1 -10 14 -21 l24 -22 -42 6 c-31 4 -40 2 -37 -8 3 -7 -6 -15 -22
-19 -14 -4 -25 -9 -23 -11 2 -2 51 7 109 20 111 25 139 29 104 15 -12 -4 -24
-18 -27 -29 -3 -12 -2 -19 2 -17 3 3 22 1 41 -4 22 -5 27 -8 14 -9 -22 -1
-214 -68 -224 -77 -6 -7 37 3 123 28 96 27 94 16 -3 -17 -44 -16 -78 -30 -76
-33 3 -2 53 10 111 28 154 45 149 32 -7 -19 -178 -58 -249 -83 -245 -87 1 -2
81 21 177 50 227 70 288 79 95 16 -203 -67 -297 -102 -292 -107 3 -2 38 7 78
20 134 45 420 129 424 125 5 -5 -101 -41 -300 -104 -82 -25 -154 -51 -160 -57
-7 -7 -4 -8 9 -3 10 3 60 18 110 32 50 14 147 44 215 65 68 22 131 38 140 36
14 -4 14 -5 -1 -6 -20 -1 -496 -159 -518 -172 -27 -15 2 -9 74 15 97 33 227
68 232 63 2 -2 -61 -26 -141 -52 -79 -27 -143 -51 -140 -53 3 -4 62 13 213 60
18 5 36 8 38 5 6 -5 -155 -65 -199 -74 -27 -5 -48 -23 -28 -23 5 0 67 20 137
45 70 25 129 43 131 41 5 -5 -146 -67 -230 -95 -38 -13 -66 -25 -64 -28 8 -7
205 57 257 84 35 18 91 17 84 -1 -6 -16 -59 -40 -71 -33 -5 3 -14 -3 -21 -14
-11 -17 -9 -19 15 -20 16 -1 33 -1 40 0 6 1 14 -3 18 -9 3 -5 -2 -10 -13 -10
-10 0 -47 -14 -81 -31 -34 -17 -68 -32 -76 -33 -8 -1 -18 -5 -21 -9 -4 -4 -16
-7 -26 -7 -10 0 -18 -5 -18 -10 0 -6 22 -10 50 -9 28 1 53 -1 58 -5 4 -5 -2
-7 -13 -6 -11 1 -31 2 -45 1 -19 -1 -22 -3 -10 -11 11 -7 3 -14 -34 -29 -26
-12 -53 -21 -59 -22 -7 0 -30 -9 -52 -19 -62 -29 -18 -23 80 10 49 17 94 28
100 26 5 -2 1 -7 -10 -11 -46 -16 -61 -25 -31 -18 21 4 27 3 22 -6 -4 -6 -11
-9 -15 -7 -4 3 -13 1 -21 -4 -26 -16 -1 -24 45 -13 40 9 45 8 45 -7 0 -11 -14
-21 -42 -30 -24 -8 -54 -23 -68 -33 l-25 -20 37 7 c38 7 62 -8 29 -19 -11 -3
-27 -18 -36 -33 -10 -15 -12 -22 -5 -15 7 6 19 9 26 6 23 -9 16 -41 -13 -58
l-28 -16 31 6 c21 4 35 1 44 -10 11 -13 9 -15 -9 -15 -11 0 -21 -4 -21 -8 0
-10 -65 -42 -85 -42 -8 0 -15 -4 -15 -10 0 -5 7 -10 15 -10 8 0 15 -4 15 -10
0 -5 -10 -10 -22 -10 -13 0 -32 -7 -42 -15 -11 -8 -28 -15 -37 -15 -10 0 -21
-5 -25 -12 -4 -6 -3 -9 2 -6 5 3 25 0 44 -8 19 -7 30 -13 23 -13 -7 -1 -24
-12 -38 -25 -16 -15 -34 -22 -48 -20 -12 2 -16 2 -9 -2 24 -11 13 -34 -17 -34
-38 0 -47 15 -22 37 19 15 19 17 3 29 -11 9 -12 13 -4 14 6 0 12 9 12 21 0 16
-4 19 -17 14 -10 -4 -49 -17 -88 -29 -38 -11 -76 -26 -83 -33 -7 -7 -18 -14
-23 -14 -5 -1 -13 -2 -18 -3 -5 0 -13 -5 -18 -10 -7 -8 48 -4 142 9 24 3 22 1
-10 -10 -22 -7 -61 -17 -87 -21 -29 -4 -48 -12 -48 -20 0 -7 -10 -20 -22 -30
-20 -14 -20 -15 -3 -9 11 5 38 10 60 12 32 3 36 2 23 -7 -10 -6 -24 -10 -30
-9 -24 3 -41 -1 -34 -8 3 -4 -6 -12 -21 -19 l-28 -13 35 5 c19 3 65 15 102 26
37 11 73 18 80 15 7 -3 3 -6 -9 -6 -12 -1 -25 -6 -28 -11 -4 -6 -10 -8 -15 -5
-4 3 -21 -2 -36 -10 -16 -8 -36 -15 -45 -15 -9 0 -19 -7 -23 -15 -3 -8 -18
-15 -33 -15 l-28 -1 30 -13 c34 -14 74 -7 137 25 21 11 45 19 55 18 12 0 10
-3 -7 -8 -14 -5 -48 -20 -77 -35 -29 -14 -59 -26 -67 -26 -12 0 -46 -40 -46
-54 0 -8 25 0 50 16 26 17 42 21 75 19 17 -1 18 -3 5 -11 -13 -9 -13 -10 1
-10 8 0 25 -11 36 -24 19 -22 20 -25 5 -40 -10 -10 -12 -16 -4 -16 7 0 9 -10
5 -30 -3 -20 -1 -30 6 -30 8 0 7 -5 -3 -15 -8 -8 -20 -15 -27 -15 -7 0 -10 -3
-7 -6 4 -3 22 -1 42 4 20 6 38 7 41 2 2 -4 -10 -11 -28 -15 -39 -9 -127 -16
-109 -9 22 10 13 21 -13 16 -26 -5 -32 -16 -15 -27 6 -3 10 -20 10 -37 0 -26
-2 -29 -15 -18 -12 10 -15 10 -15 -4 0 -9 8 -16 20 -16 24 0 26 -15 3 -24 -21
-9 -33 4 -43 46 -8 29 -8 26 -8 -22 1 -30 7 -72 15 -94 7 -21 13 -48 12 -60
-2 -61 -58 177 -60 258 -2 45 -5 54 -15 45 -7 -6 -18 -8 -24 -4 -20 13 -9 -14
12 -29 l23 -16 -28 -27 c-16 -17 -27 -22 -27 -14 0 11 -4 11 -18 -2 -18 -17
-102 -22 -102 -6 0 8 32 14 55 9 6 -1 6 3 -1 10 -18 18 -64 -5 -65 -32 0 -13
-3 -17 -6 -10 -7 18 -21 15 -28 -8 -4 -11 -11 -18 -16 -15 -5 3 -6 -1 -3 -9 3
-9 3 -24 -1 -33 -7 -16 -9 -15 -14 6 l-6 24 -31 -26 c-17 -15 -34 -24 -37 -21
-2 3 -20 7 -38 9 -30 4 -32 3 -14 -7 11 -7 43 -13 70 -13 28 -1 56 -4 64 -6
10 -3 17 7 22 26 4 17 7 26 8 21 0 -5 8 -2 18 5 15 13 15 12 4 -11 -10 -22 -8
-21 16 6 15 18 42 35 60 38 29 7 32 5 28 -15 -3 -12 -10 -26 -16 -29 -6 -4
-10 -11 -10 -16 2 -24 -16 -49 -93 -126 -66 -66 -87 -96 -107 -146 -15 -38
-29 -60 -36 -58 -7 3 -26 -8 -42 -24 -16 -17 -26 -30 -21 -30 4 0 10 -7 13
-14 4 -11 1 -13 -10 -9 -13 5 -14 3 -4 -15 13 -24 2 -29 -18 -10 -10 11 -11
10 -6 -4 7 -18 0 -22 -40 -19 -17 2 -17 0 -5 -8 20 -14 50 -14 50 0 0 8 5 8
15 -1 20 -17 19 -34 -2 -26 -14 6 -14 3 3 -15 17 -20 17 -22 2 -16 -10 4 -18
2 -18 -5 0 -7 -5 -6 -15 2 -8 7 -13 15 -11 19 2 3 -12 7 -32 9 -35 2 -112 46
-112 63 0 4 -25 13 -55 20 -52 11 -54 13 -35 26 12 8 29 12 38 8 15 -5 15 -4
-1 12 -15 15 -19 16 -26 4 -6 -10 -19 -12 -41 -7 -25 4 -31 3 -27 -8 4 -10 -1
-12 -16 -9 -18 5 -20 3 -9 -8 18 -20 15 -27 -13 -21 -14 2 -25 0 -25 -6 0 -7
-11 -8 -32 -1 -30 8 -108 -4 -108 -17 0 -3 9 -2 20 1 11 4 20 2 20 -4 0 -6
-19 -16 -41 -23 -38 -11 -40 -13 -20 -22 11 -5 21 -13 21 -17 0 -5 6 -6 14 -3
11 4 13 0 9 -15 -7 -28 -21 -26 -33 4 -6 16 -17 25 -30 25 -12 0 -18 4 -15 10
4 6 -8 10 -29 10 -37 0 -57 17 -36 30 9 5 9 9 1 14 -6 4 -16 4 -22 0 -6 -3
-15 0 -20 7 -6 10 -9 11 -9 2 0 -7 -5 -13 -11 -13 -6 0 -9 7 -5 15 4 12 -3 15
-34 15 -28 0 -42 5 -49 19 -7 13 -18 17 -35 14 -14 -3 -33 -2 -42 1 -16 6 -15
8 2 21 18 14 18 14 -3 15 -13 0 -23 5 -23 10 0 6 -7 10 -15 10 -8 0 -15 4 -15
9 0 8 -54 22 -100 27 -32 3 -34 6 -12 15 15 6 30 5 43 -1 11 -6 19 -7 19 -1 0
10 -53 31 -79 31 -9 0 -29 7 -45 15 -33 17 -39 19 -32 6 4 -5 1 -11 -6 -13
-13 -5 -60 44 -57 59 3 19 -2 33 -12 33 -5 0 -8 -4 -5 -9 3 -5 -6 -11 -20 -14
-16 -3 -28 1 -31 9 -3 8 -9 14 -14 14 -15 0 3 -30 24 -42 16 -8 22 -8 25 1 2
6 8 11 13 11 6 0 7 -4 4 -10 -3 -5 -2 -10 4 -10 6 0 8 -6 5 -13 -2 -7 15 -27
41 -45 54 -38 59 -39 44 -9 -11 21 -10 21 17 -4 56 -49 103 -79 135 -86 30 -6
31 -7 14 -20 -13 -9 -16 -16 -9 -23 13 -13 46 -2 37 13 -4 7 0 8 11 4 10 -4
22 -7 27 -7 5 0 9 -4 9 -10 0 -5 -9 -10 -20 -10 -11 0 -20 -5 -20 -11 0 -6 10
-9 23 -8 29 4 69 -10 62 -21 -3 -5 7 -9 22 -8 24 0 58 -9 148 -42 13 -5 4 -8
-28 -8 -45 0 -74 5 -122 24 -14 5 -11 0 9 -16 15 -13 44 -24 63 -25 20 -2 39
-9 44 -16 8 -12 12 -11 23 4 11 14 25 17 62 15 26 -2 49 -8 51 -14 3 -8 -13
-10 -48 -6 -37 3 -50 2 -45 -7 5 -7 -1 -11 -16 -12 -16 -1 -18 -3 -6 -6 9 -2
20 -13 23 -24 4 -10 15 -19 26 -19 10 0 19 -4 19 -10 0 -14 48 -36 93 -43 33
-5 37 -4 27 8 -7 8 -21 15 -31 15 -11 0 -19 5 -19 11 0 7 9 9 21 6 25 -7 51 2
43 14 -3 5 1 9 8 9 7 0 24 3 38 6 19 4 22 3 10 -5 -23 -16 -7 -21 35 -10 21 6
49 9 61 6 13 -2 24 0 24 4 0 5 -10 9 -22 9 -16 0 -19 3 -11 11 11 11 129 -6
146 -21 13 -12 47 1 47 17 0 8 -15 20 -32 28 -32 14 -26 19 20 18 6 -1 12 2
12 6 0 4 20 4 44 1 46 -5 102 -43 91 -60 -3 -6 1 -7 10 -3 10 3 20 1 24 -4 3
-6 17 -14 29 -18 21 -6 23 -4 17 15 -5 16 -2 23 14 27 15 4 18 9 12 22 -10 18
-3 69 11 88 5 7 7 26 3 43 -4 19 -3 30 4 30 6 0 11 -15 11 -34 0 -70 82 -118
111 -65 l11 21 12 -23 c14 -29 82 -40 92 -16 3 9 14 12 29 9 39 -7 78 6 71 25
-4 11 -2 14 9 9 26 -10 43 4 50 42 4 20 15 53 25 73 11 20 16 40 12 44 -4 5
-2 6 3 2 6 -3 19 -23 30 -44 10 -21 31 -54 46 -73 21 -27 25 -40 18 -53 -11
-19 -4 -37 14 -37 7 0 6 4 -3 10 -8 5 -11 12 -8 16 13 13 39 -6 49 -36 6 -16
17 -30 25 -30 8 0 23 -5 33 -12 18 -11 18 -12 1 -27 -11 -9 -21 -33 -24 -53
-7 -48 -44 -166 -63 -201 -10 -18 -16 -59 -17 -108 l-1 -79 211 0 c209 0 211
0 222 22 8 17 11 18 11 7 1 -12 13 -18 39 -22 74 -10 642 -8 642 2 0 6 -7 30
-15 54 -13 40 -13 49 0 81 8 20 21 36 28 36 13 0 37 -53 37 -84 0 -9 9 -35 20
-56 l20 -40 665 0 c572 0 665 2 665 14 0 8 5 18 11 22 7 4 9 0 5 -14 -6 -19
-2 -20 376 -21 350 -1 380 1 353 15 -36 18 -48 30 -20 20 11 -5 56 -10 100
-12 44 -2 86 -6 93 -9 8 -3 10 0 6 7 -5 8 6 9 41 5 26 -4 57 -8 69 -8 15 -1
13 -3 -9 -9 -47 -11 141 -11 211 0 39 6 60 6 62 0 2 -6 54 -9 130 -9 70 1 117
4 105 6 -12 2 -27 11 -33 19 -7 8 -22 14 -34 14 -11 0 -28 5 -36 11 -11 7 -5
8 21 3 22 -3 39 -2 43 5 5 7 -7 11 -33 11 -22 0 -43 5 -47 12 -5 7 -11 5 -21
-8 -13 -18 -15 -18 -24 -1 -6 9 -21 17 -34 17 -32 0 -43 20 -20 37 22 15 35
17 35 4 0 -5 -8 -12 -17 -15 -10 -2 17 -3 60 -2 42 2 80 0 83 -5 3 -5 -3 -6
-13 -2 -16 6 -16 5 -4 -10 8 -10 16 -15 19 -13 2 3 17 -1 33 -9 24 -13 30 -13
43 0 8 8 20 15 28 15 7 0 2 -7 -10 -16 -33 -23 -27 -34 17 -34 45 0 60 -14 34
-29 -17 -10 -17 -10 0 -11 15 0 19 6 16 26 -1 8 23 24 36 24 6 0 4 -4 -3 -9
-11 -6 -10 -10 5 -16 17 -7 17 -8 -2 -15 -11 -5 98 -8 242 -8 151 0 260 4 257
9 -3 5 -15 9 -27 10 -12 0 -16 3 -9 6 19 7 64 -6 57 -17 -4 -6 18 -10 57 -9
56 1 60 2 31 10 -18 5 -33 11 -33 13 0 3 28 3 62 1 35 -1 69 2 76 7 8 7 12 7
12 0 0 -6 -8 -16 -17 -22 -13 -7 50 -10 219 -9 173 1 236 5 231 13 -4 7 -1 6
8 -1 23 -18 206 -15 213 3 3 8 15 14 26 14 14 0 19 -4 14 -12 -5 -8 -2 -9 12
-3 10 4 30 9 44 11 14 2 17 1 8 -2 -43 -13 -11 -24 70 -24 48 0 82 4 75 8 -6
4 8 7 32 7 24 0 41 -3 39 -7 -3 -4 183 -7 413 -7 230 0 420 4 423 9 3 4 25 4
50 0 25 -5 105 -9 178 -10 l132 0 0 294 c0 226 -3 296 -12 299 -10 4 -10 6 0
6 9 1 12 612 12 3021 l0 3020 -5910 0 -5910 0 0 -1970z m11239 -1186 c16 -19
25 -43 27 -77 2 -27 6 -58 9 -68 5 -14 2 -17 -9 -13 -12 5 -16 0 -16 -21 0
-22 3 -25 13 -16 15 12 27 5 27 -16 0 -7 -9 -13 -20 -13 -13 0 -18 -5 -14 -15
4 -10 0 -15 -16 -15 -19 0 -20 4 -15 33 4 17 7 43 7 57 0 14 3 30 7 35 14 18
5 60 -19 93 -21 28 -24 30 -36 14 -7 -9 -10 -20 -8 -24 3 -5 -8 -8 -24 -8 -18
0 -32 -6 -36 -16 -10 -26 -7 -34 15 -34 16 0 19 -4 14 -22 -10 -33 -20 -41
-44 -33 -21 6 -24 35 -8 78 4 9 9 24 12 32 2 8 15 15 28 15 29 0 52 24 41 41
-5 9 -2 10 9 6 10 -3 17 -2 17 3 0 17 16 11 39 -16z m-4391 -2298 c62 -17 143
-23 160 -12 7 4 12 3 12 -2 0 -15 50 -24 66 -12 15 13 161 4 169 -10 3 -5 -5
-19 -17 -33 -18 -19 -31 -23 -63 -20 l-40 3 40 -13 c25 -8 42 -10 46 -4 4 6
14 -4 23 -22 18 -33 14 -40 -10 -16 -9 8 -25 15 -37 14 -21 0 -21 -1 -2 -9 19
-8 19 -9 -2 -9 -13 -1 -23 4 -23 10 0 6 -6 9 -12 6 -7 -2 -19 3 -26 12 -12 14
-13 13 -9 -6 4 -16 0 -21 -12 -18 -9 1 -38 6 -65 10 -33 4 -45 10 -36 15 8 5
19 6 24 2 6 -3 26 -7 46 -8 27 -3 31 -1 15 6 -14 6 -16 9 -5 10 10 1 7 5 -8
13 -19 8 -25 8 -33 -4 -5 -8 -9 -9 -9 -2 0 6 -9 9 -22 5 -14 -3 -19 -1 -14 6
5 8 2 10 -8 6 -9 -3 -16 -1 -16 5 0 6 -5 11 -11 11 -5 0 -7 -4 -4 -10 10 -15
-47 -12 -104 7 -28 9 -54 13 -57 10 -15 -14 12 -26 81 -38 102 -16 88 -23 -17
-9 -90 13 -153 29 -144 38 3 3 0 12 -7 20 -10 13 -9 14 11 3 12 -6 22 -16 22
-20 0 -12 27 -8 41 6 7 7 -2 15 -31 27 -23 9 -46 14 -51 11 -5 -4 -9 -1 -9 6
0 16 82 2 93 -16 8 -14 92 -14 106 1 3 4 -10 4 -30 0 -43 -8 -78 2 -57 15 9 6
4 9 -14 9 -16 0 -28 5 -28 10 0 13 15 12 78 -4z m-103 -106 c-11 -5 -15 -9 -8
-9 6 -1 19 -8 28 -18 14 -14 18 -14 26 -2 7 12 9 12 9 0 0 -10 11 -12 45 -9
25 3 47 2 50 -2 7 -12 63 -18 77 -8 9 5 7 8 -7 8 -11 0 -27 5 -35 11 -16 11
-6 10 113 -10 97 -17 227 -24 227 -13 0 11 27 13 73 5 46 -8 30 -18 -31 -20
-31 0 -68 -6 -82 -12 -23 -9 -21 -10 14 -7 36 3 120 -15 158 -35 10 -5 25 -9
33 -9 8 0 15 -4 15 -9 0 -14 35 -19 55 -8 12 7 16 6 11 -1 -9 -15 66 -34 101
-26 l28 6 -28 -16 c-23 -13 -40 -13 -110 -4 -103 13 -119 18 -94 27 17 6 16 8
-5 18 -38 19 -68 25 -68 14 0 -6 11 -11 25 -11 16 0 25 -6 25 -15 0 -8 0 -18
1 -22 0 -4 -5 -9 -12 -12 -8 -2 -10 2 -6 13 4 10 3 15 -3 11 -6 -3 -10 -2 -10
2 0 10 -108 36 -136 32 -19 -2 -23 -1 -84 20 -19 7 -49 14 -67 16 -18 2 -36 6
-42 9 -5 4 -12 2 -15 -2 -6 -10 -138 11 -253 40 -36 9 -43 15 -43 34 0 18 5
24 23 23 21 0 21 -1 2 -9z m90 -86 c28 -3 61 -7 75 -10 14 -4 61 -10 105 -16
44 -5 82 -13 83 -19 2 -5 10 -9 18 -9 8 0 14 -5 14 -11 0 -5 -5 -7 -11 -3 -8
4 -8 0 0 -15 7 -11 15 -21 20 -21 4 0 8 -6 8 -13 0 -10 -10 -12 -39 -7 -29 6
-38 4 -38 -6 0 -17 -22 -18 -37 -3 -6 6 -16 8 -23 4 -16 -10 7 -35 27 -28 11
4 14 2 11 -8 -3 -8 -12 -14 -20 -14 -21 0 -68 -26 -68 -37 0 -5 -9 -4 -21 2
-26 15 -35 7 -15 -13 8 -8 12 -17 9 -21 -11 -11 -23 -6 -23 9 0 11 -12 15 -46
15 -29 0 -43 -4 -39 -10 4 -6 15 -8 26 -5 11 4 19 2 19 -4 0 -6 9 -11 19 -11
10 0 22 -8 25 -17 6 -15 10 -13 25 11 18 27 19 28 26 7 4 -13 14 -21 28 -20
l22 0 -21 9 c-32 13 -38 39 -11 49 25 10 38 -6 16 -20 -11 -7 -9 -10 8 -15 13
-4 20 -11 16 -17 -4 -6 -1 -7 8 -1 13 8 51 7 109 -2 14 -2 45 -7 70 -10 25 -4
52 -14 60 -23 12 -12 38 -17 115 -18 55 -1 124 -5 153 -8 34 -4 52 -3 52 4 0
6 -8 11 -17 12 -11 0 -13 2 -5 6 7 3 20 2 30 -3 19 -8 29 -10 55 -12 9 -1 17
-7 17 -13 0 -8 -12 -10 -35 -6 -19 3 -35 2 -35 -2 0 -5 20 -8 45 -8 26 0 45 4
45 11 0 6 4 5 9 -3 5 -8 43 -17 100 -23 50 -6 89 -14 86 -17 -2 -4 11 -6 28
-4 18 2 42 4 55 4 12 1 22 5 22 10 0 5 6 6 14 3 8 -3 17 -1 21 5 3 6 11 11 16
11 6 0 7 -4 4 -10 -3 -6 5 -10 19 -10 14 0 27 -3 29 -7 3 -5 -14 -6 -38 -5
-24 2 -51 0 -60 -6 -13 -7 -3 -11 40 -16 45 -5 62 -3 75 9 14 13 22 14 46 3
l29 -12 -43 -4 c-23 -2 -40 -7 -37 -13 4 -5 -5 -9 -18 -9 -14 0 -30 -7 -37
-15 -7 -8 -17 -12 -22 -9 -6 4 -5 10 3 15 19 11 9 17 -34 22 -27 3 -40 0 -46
-11 -8 -13 -12 -14 -25 -3 -8 7 -20 10 -26 6 -13 -8 -38 16 -32 33 3 11 0 11
-17 0 -12 -7 -19 -19 -16 -25 2 -7 0 -13 -5 -13 -6 0 -10 9 -10 20 0 11 -4 20
-10 20 -5 0 -10 -4 -10 -10 0 -5 -5 -10 -11 -10 -6 0 -8 8 -5 17 4 13 1 12
-13 -5 -11 -12 -25 -22 -33 -23 -7 0 -4 -4 7 -9 16 -7 11 -9 -22 -9 -23 -1
-45 -6 -48 -12 -10 -16 4 -24 17 -11 7 7 21 12 33 12 15 0 17 -2 6 -9 -10 -7
-11 -13 -2 -27 6 -11 11 -13 11 -6 0 6 12 12 28 12 23 1 25 2 11 13 -9 7 -14
18 -12 25 3 8 11 5 24 -10 18 -22 20 -22 32 -6 13 16 14 15 15 -12 0 -20 -4
-30 -14 -30 -8 0 -14 -4 -14 -10 0 -14 90 -6 120 10 25 14 31 16 50 19 6 0 10
5 10 10 0 9 -88 6 -122 -5 -13 -4 -16 -1 -12 9 3 10 24 15 66 16 66 2 101 -5
93 -20 -4 -5 -1 -9 5 -9 6 0 9 -4 6 -9 -3 -5 -15 -7 -26 -4 -14 4 -20 0 -20
-10 0 -15 -41 -24 -140 -29 -38 -2 -45 1 -43 16 1 13 -4 15 -15 10 -10 -4 -26
-6 -37 -6 -11 1 -30 -5 -42 -13 -14 -9 -24 -11 -28 -5 -3 6 -15 10 -26 10 -21
0 -25 15 -7 26 7 4 8 3 4 -4 -5 -8 1 -12 16 -12 21 0 21 1 6 16 -12 13 -14 23
-7 40 8 23 7 24 -34 23 -23 -1 -32 -4 -21 -6 12 -2 24 -13 27 -24 4 -15 2 -19
-8 -15 -8 3 -15 1 -17 -4 -2 -4 -20 -3 -40 4 -26 10 -40 10 -48 2 -7 -7 -16
-7 -30 2 -12 7 -20 8 -20 2 0 -5 5 -10 10 -10 6 0 10 -7 10 -15 0 -9 -9 -15
-22 -15 -19 0 -20 2 -8 10 8 5 11 10 5 11 -5 1 -17 2 -25 3 -8 2 -30 3 -48 4
-19 1 -31 6 -27 12 9 15 -7 12 -29 -5 -21 -16 -81 -21 -72 -6 3 4 16 7 30 6
20 -3 24 1 21 21 -1 14 -6 28 -10 32 -4 4 -5 -2 -3 -13 2 -15 -3 -20 -22 -22
-14 -1 -18 0 -7 3 34 11 16 21 -28 16 -28 -3 -45 -1 -45 6 0 6 3 12 8 15 4 2
1 2 -5 1 -7 -2 -13 1 -13 7 0 6 -5 7 -11 3 -8 -4 -7 -9 2 -15 7 -4 11 -10 8
-14 -3 -3 -16 4 -29 15 -13 11 -36 20 -51 20 -15 0 -35 3 -43 6 -12 5 -15 2
-10 -10 5 -12 0 -16 -22 -16 -15 0 -36 -7 -46 -17 -14 -13 -23 -14 -41 -5 -12
6 -31 12 -42 14 -13 2 -20 12 -22 30 -1 20 2 25 13 21 8 -3 13 -11 10 -18 -6
-17 25 -29 35 -14 4 8 10 6 17 -7 9 -16 11 -16 25 -2 24 23 7 39 -31 29 -26
-8 -32 -7 -32 5 0 16 -28 30 -80 38 -31 6 -38 13 -62 64 -15 32 -53 87 -84
122 l-56 63 28 16 c16 8 34 14 41 13 21 -4 25 19 7 34 -17 13 -15 14 20 8 30
-5 37 -4 31 6 -5 8 -3 11 6 8 8 -3 13 -11 11 -17 -1 -6 5 -14 13 -17 8 -4 15
-10 15 -15 0 -5 -10 -4 -21 3 -17 10 -23 10 -26 1 -3 -7 -10 -13 -17 -13 -18
0 -49 -37 -41 -49 3 -6 21 -11 38 -10 29 1 30 2 8 8 -30 8 -39 28 -12 26 20
-1 71 -34 71 -46 0 -3 -23 -4 -51 -1 -37 3 -50 2 -45 -7 4 -6 25 -11 47 -11
39 0 48 -7 29 -26 -7 -7 -7 -11 2 -12 7 0 24 -4 38 -8 23 -7 24 -6 11 9 -12
16 -10 17 22 15 19 -2 33 -7 29 -12 -3 -5 2 -6 12 -3 10 4 24 7 32 7 8 0 14 9
14 20 0 22 16 27 23 8 4 -10 7 -10 18 0 10 9 10 12 0 12 -7 0 -10 4 -7 9 10
16 -5 39 -22 36 -9 -2 -20 -4 -24 -4 -19 -2 -6 -21 15 -22 l22 0 -23 -9 c-30
-13 -56 -2 -41 16 6 7 8 18 4 25 -5 8 0 9 16 4 19 -6 22 -5 12 6 -10 10 -18
10 -38 1 -14 -7 -31 -12 -38 -11 -7 0 -3 4 8 9 15 7 16 9 4 9 -20 1 -45 29
-35 39 4 4 11 0 16 -9 6 -9 25 -16 52 -17 42 -1 42 -1 13 9 -16 6 -40 15 -52
21 -11 6 -26 7 -33 3 -6 -4 -19 0 -28 8 -9 8 -30 22 -47 31 -27 15 -27 17 -5
11 14 -3 48 -8 75 -11z m919 -20 c-4 -17 -1 -26 10 -30 9 -3 13 -10 10 -15 -3
-5 -1 -9 5 -9 16 0 22 18 9 23 -7 2 -10 8 -6 12 4 4 15 2 23 -5 9 -8 44 -14
83 -14 40 -1 71 -6 77 -13 6 -7 35 -15 65 -19 30 -3 77 -12 104 -20 57 -16 99
-19 77 -5 -9 6 -5 9 13 9 21 0 24 -3 15 -14 -8 -9 -8 -14 -1 -14 6 0 14 5 17
10 3 6 16 10 28 9 21 0 21 -1 2 -9 -11 -5 -15 -9 -8 -9 6 -1 19 -4 29 -8 11
-4 15 -3 11 4 -4 6 0 13 8 17 9 3 15 0 15 -9 0 -8 3 -15 8 -15 4 0 41 -5 82
-11 41 -6 95 -12 119 -15 52 -6 80 -22 59 -35 -7 -5 -20 -9 -28 -9 -13 0 -13
1 0 10 22 13 4 18 -128 29 -62 6 -116 13 -121 15 -4 3 -13 1 -21 -5 -11 -6 -7
-9 15 -9 17 0 37 -5 45 -10 10 -6 2 -8 -25 -3 -22 3 -47 12 -56 19 -9 8 -42
17 -75 19 -74 7 -86 9 -100 17 -5 4 -27 5 -47 3 -20 -1 -34 1 -31 6 3 5 -7 4
-22 -1 -15 -6 -29 -8 -32 -6 -2 3 -11 -1 -19 -9 -8 -8 -20 -15 -26 -15 -7 0
-6 4 3 10 25 16 -6 34 -52 31 -10 0 -18 -8 -18 -16 0 -17 -2 -18 -24 -9 -19 7
-21 24 -3 24 8 0 24 9 36 19 l22 19 -26 -2 c-16 0 -23 -6 -20 -13 2 -7 -2 -13
-11 -13 -8 0 -17 -7 -20 -15 -4 -10 -20 -15 -50 -15 -24 0 -44 -4 -44 -10 0
-10 25 -12 135 -14 52 -1 84 -12 98 -30 5 -8 9 -8 15 -1 12 18 59 16 66 -1 4
-9 13 -14 21 -10 11 4 15 0 13 -12 -2 -13 3 -16 22 -14 58 6 69 12 63 30 -5
13 -3 14 7 5 7 -6 19 -9 28 -6 10 4 13 2 8 -5 -4 -7 -2 -12 3 -12 6 0 11 5 11
10 0 6 5 10 10 10 6 0 10 -8 8 -17 -2 -11 5 -19 17 -21 14 -2 16 0 7 6 -10 7
-10 11 2 21 12 10 21 9 47 -5 23 -11 34 -13 37 -5 6 17 39 13 46 -5 9 -23 8
-23 -46 -15 -27 5 -48 4 -48 -1 0 -4 18 -9 40 -9 22 -1 54 -2 71 -3 17 0 34 5
36 12 6 15 24 16 21 1 -2 -6 3 -14 10 -16 7 -3 12 4 13 19 0 13 3 17 6 11 6
-16 29 -17 38 -3 3 6 -4 14 -17 19 -21 9 -20 10 11 10 29 1 33 -2 28 -19 -4
-15 0 -20 16 -20 16 0 18 -3 9 -9 -10 -6 -10 -10 3 -21 11 -9 18 -10 29 -1 11
9 15 8 20 -5 5 -13 0 -15 -28 -13 -19 2 -38 0 -42 -4 -4 -4 -13 -2 -20 4 -8 7
-14 7 -19 -1 -7 -11 3 -16 45 -24 14 -2 -2 -3 -35 -1 -33 1 -71 8 -85 14 -25
11 -24 11 5 7 17 -3 37 -1 45 5 17 10 -18 14 -83 10 -21 -1 -45 3 -54 10 -12
11 -17 10 -24 -4 -6 -9 -19 -17 -30 -17 -11 0 -18 4 -15 9 8 12 -66 23 -78 11
-7 -7 -5 -10 4 -10 9 0 6 -6 -8 -16 -13 -9 -26 -13 -30 -9 -4 4 -1 10 6 12 21
8 13 23 -14 23 -14 0 -23 -4 -19 -10 11 -17 -20 -11 -41 8 -20 19 -54 36 -66
34 -5 -1 -8 3 -8 9 0 6 -9 8 -21 4 -15 -5 -19 -4 -15 4 9 15 5 14 -32 -5 -29
-14 -33 -14 -48 1 -14 13 -19 14 -25 3 -5 -7 -9 -8 -9 -2 0 5 5 15 12 22 9 9
1 12 -38 12 -27 0 -55 5 -62 12 -7 7 -12 8 -12 2 0 -6 5 -15 11 -21 9 -9 -4
-11 -52 -8 l-64 3 55 -15 c98 -26 103 -27 96 -14 -4 6 -2 11 4 11 6 0 8 5 5
10 -3 6 3 10 14 10 12 0 21 -7 21 -15 0 -9 -6 -12 -15 -9 -8 4 -15 1 -15 -5 0
-6 6 -11 14 -11 8 0 17 -4 20 -9 8 -12 -87 -9 -96 4 -5 6 -11 6 -20 -3 -14
-14 -32 -16 -23 -2 5 9 -8 12 -31 9 -4 0 -10 4 -13 10 -4 6 -16 12 -28 14 -12
1 -27 8 -35 14 -7 6 -24 14 -38 18 -22 7 -23 6 -8 -9 9 -9 23 -16 30 -17 7 0
4 -4 -7 -9 -19 -9 -19 -9 2 -16 34 -10 28 -54 -8 -54 -15 0 -37 9 -50 20 l-24
19 23 1 c12 0 21 -5 20 -12 -2 -7 7 -14 20 -16 16 -2 22 2 22 14 0 10 -3 15
-6 11 -11 -11 -33 17 -23 29 7 8 2 12 -15 12 -14 0 -42 9 -62 21 -20 12 -43
20 -50 17 -8 -3 -14 -2 -14 2 0 4 -28 14 -62 21 -66 14 -181 51 -175 57 2 2
19 -1 38 -6 43 -13 69 -13 69 -1 0 6 -20 13 -45 17 -25 3 -48 10 -51 15 -7 12
3 11 56 -5 25 -7 45 -19 45 -27 0 -17 28 -27 75 -27 28 -1 31 1 15 8 -18 8
-18 9 5 9 14 1 58 -5 98 -13 64 -12 75 -12 88 1 8 8 24 13 34 10 11 -3 20 0
21 6 0 8 2 8 6 0 2 -7 14 -13 26 -13 22 1 22 1 3 15 -19 14 -18 15 10 12 16
-2 38 -7 48 -12 19 -8 19 -9 0 -17 -13 -6 -8 -7 16 -3 34 5 78 35 52 35 -7 0
-12 -4 -12 -10 0 -6 -10 -5 -25 2 -14 6 -25 14 -25 17 0 4 -33 6 -72 6 -40 0
-76 4 -79 8 -3 4 -18 9 -34 11 -15 2 -32 11 -38 21 -8 16 -7 17 9 10 46 -19
122 -28 160 -17 35 9 36 11 17 17 -29 9 -23 20 11 21 22 2 25 -1 20 -22z m576
-529 c-7 -9 -20 -13 -29 -10 -19 6 -49 -11 -38 -21 4 -5 23 -7 42 -6 18 1 36
-1 38 -5 3 -5 -13 -8 -35 -9 -30 0 -44 -6 -59 -25 -10 -13 -16 -32 -13 -41 4
-12 0 -18 -11 -18 -9 0 -14 4 -10 9 3 5 1 12 -4 15 -5 4 -12 -2 -16 -13 -7
-23 -52 -54 -65 -46 -6 3 -10 16 -9 28 0 21 1 21 9 2 7 -16 9 -17 9 -3 1 9 10
20 21 23 11 3 20 11 20 16 0 13 -37 11 -45 -2 -4 -6 -13 -8 -21 -5 -8 3 -14
-1 -14 -9 0 -8 -5 -15 -12 -15 -9 0 -9 -3 0 -12 18 -18 14 -30 -5 -19 -10 5
-18 18 -18 28 0 14 -6 17 -28 15 -18 -2 -26 1 -22 7 3 6 -1 11 -9 11 -8 0 -18
-4 -21 -10 -9 -15 -52 -12 -52 4 0 8 8 12 21 9 19 -4 18 -3 -3 10 -28 16 -14
31 21 22 35 -9 250 -12 237 -4 -8 4 -5 11 9 18 13 7 19 17 15 27 -4 10 2 17
16 21 11 3 21 9 21 14 0 5 16 9 36 9 32 0 35 -2 24 -15z"/>
<path d="M6790 730 c-10 -6 -11 -10 -2 -10 6 0 12 -6 12 -13 0 -7 8 -13 18
-14 86 -5 104 -7 108 -15 3 -5 -25 -6 -63 -3 -52 4 -61 3 -38 -5 24 -8 61 -14
118 -19 5 -1 5 -6 2 -11 -4 -7 7 -9 32 -6 20 3 40 1 43 -4 7 -11 102 -16 119
-6 7 5 16 5 20 0 11 -16 52 -35 61 -29 6 4 10 -1 10 -9 0 -9 5 -16 10 -16 6 0
10 5 10 11 0 7 19 8 58 3 52 -6 86 -9 150 -13 13 0 22 -8 23 -18 0 -11 3 -13
6 -5 2 7 22 12 44 12 47 0 53 15 7 16 -18 1 -62 5 -98 10 -36 4 -77 7 -92 6
-16 -1 -28 3 -28 8 0 6 -20 10 -45 10 -38 0 -44 2 -33 14 7 7 20 11 28 9 10
-3 9 -1 -2 7 -10 6 -18 17 -18 24 0 17 -31 30 -39 18 -3 -5 -17 -9 -31 -8 -18
1 -24 -4 -22 -15 3 -20 -22 -28 -66 -21 -32 4 -40 27 -11 27 15 0 19 7 19 30
0 8 -5 15 -11 15 -5 0 -8 -4 -5 -9 3 -5 -1 -14 -9 -21 -12 -10 -15 -9 -15 4 0
9 -5 16 -11 16 -5 0 -7 -4 -4 -10 3 -6 -1 -7 -9 -4 -9 3 -16 10 -16 15 0 5 -4
9 -10 9 -5 0 -10 -6 -10 -14 0 -10 -11 -11 -50 -5 -27 4 -55 11 -61 14 -6 4
-25 7 -44 7 -25 0 -32 4 -28 14 6 16 -5 18 -27 4z"/>
<path d="M131 1381 c-9 -6 -10 -11 -2 -15 18 -12 -7 -46 -32 -45 l-22 2 23 4
c36 7 25 23 -18 25 -22 1 -48 2 -57 2 -11 1 -19 -8 -21 -21 -3 -19 1 -23 22
-23 14 0 26 5 26 12 0 9 3 9 12 0 7 -7 43 -13 83 -14 38 0 54 -3 35 -5 -126
-12 -143 -15 -129 -25 10 -7 5 -8 -19 -4 l-32 6 0 -130 0 -130 33 0 c18 0 38
-5 44 -11 6 -6 39 -13 74 -16 47 -3 60 -2 49 6 -8 6 -35 11 -59 11 -29 0 -42
3 -35 10 17 17 154 -9 226 -43 38 -18 68 -35 68 -39 0 -4 -17 -5 -37 -3 -21 1
-44 3 -52 4 -11 1 -11 4 -2 15 17 20 -11 21 -201 10 -91 -5 -108 -9 -108 -23
0 -9 17 -24 38 -33 l37 -18 -38 6 -37 5 0 -45 c0 -38 3 -45 23 -49 l22 -4 -22
-2 c-20 -1 -23 -7 -23 -40 0 -37 1 -38 33 -38 17 1 62 0 98 -1 57 -2 67 -5 72
-22 3 -13 13 -20 29 -19 23 2 23 2 1 6 -15 3 -23 12 -23 24 0 20 15 26 25 9 3
-5 18 -9 33 -9 17 1 21 3 10 6 -10 2 -18 8 -18 13 0 4 -14 13 -32 19 -39 14
-34 20 14 14 23 -3 35 -9 32 -17 -5 -14 63 -9 72 5 3 5 31 8 62 8 31 -1 46 -4
32 -6 -26 -5 -87 -59 -78 -69 4 -3 16 0 28 6 34 18 181 60 214 61 25 1 20 3
-22 13 -29 8 -83 12 -120 10 -37 -2 -87 0 -112 4 l-45 9 37 7 c34 8 35 9 20
27 -11 13 -30 19 -58 19 -36 0 -43 3 -48 24 -6 24 -7 24 -37 9 -36 -18 -99
-10 -99 12 0 9 9 15 23 15 16 0 18 -3 9 -9 -10 -6 -9 -10 7 -14 14 -3 21 0 21
9 0 16 9 18 30 4 9 -5 19 -5 27 1 7 7 18 7 30 1 27 -14 95 -23 88 -11 -8 12
27 12 59 -1 31 -11 33 -50 2 -42 -12 3 -17 1 -12 -6 3 -6 2 -13 -4 -17 -15 -9
-12 -25 6 -25 8 0 12 5 9 10 -8 13 71 13 111 1 53 -17 94 -21 91 -9 -5 23 23
18 29 -6 7 -29 14 -32 32 -14 6 6 14 9 17 6 12 -12 -8 -35 -40 -48 -19 -8 -35
-17 -35 -22 0 -12 10 -10 55 12 22 11 51 19 66 20 28 0 79 -21 79 -32 0 -13
38 -9 46 4 5 7 1 9 -13 6 -16 -4 -19 -1 -16 13 4 15 9 16 29 7 13 -6 24 -15
24 -20 0 -4 5 -8 11 -8 6 0 9 6 6 14 -4 11 5 14 41 14 26 0 52 -4 57 -8 6 -4
39 -1 74 6 36 7 74 11 86 8 12 -3 50 1 85 9 35 8 69 13 76 10 7 -2 22 1 35 7
17 9 19 14 8 20 -7 5 -22 4 -33 -2 -11 -6 -44 -8 -83 -4 -35 4 -69 4 -75 0 -6
-4 -41 -9 -77 -10 -45 -3 -61 0 -51 6 8 5 25 10 38 10 13 0 21 4 18 9 -8 13
28 17 131 17 50 -1 86 2 80 6 -7 4 -25 8 -42 9 -26 2 -27 2 -6 6 13 3 44 0 69
-7 28 -7 49 -7 54 -2 6 6 -4 12 -26 16 -35 7 -52 36 -21 36 8 0 15 -4 15 -9 0
-5 8 -12 18 -15 10 -4 6 4 -11 19 -35 31 -72 34 -64 5 4 -15 0 -20 -15 -20
-10 0 -17 4 -14 9 3 5 -6 12 -21 16 -16 3 -30 10 -33 14 -6 9 -70 23 -70 15 0
-3 14 -10 30 -15 17 -6 30 -17 30 -25 0 -15 -27 -18 -55 -8 -13 5 -14 8 -3 15
18 12 -48 12 -89 0 -19 -6 -35 -5 -41 1 -6 6 -17 6 -32 -2 -13 -7 -26 -8 -33
-2 -7 5 -39 13 -71 17 -39 4 -55 10 -45 15 11 7 10 10 -4 16 -9 3 -24 4 -32 1
-8 -4 -17 -2 -20 2 -2 5 7 12 21 15 20 5 33 1 49 -14 18 -17 26 -19 50 -10 15
6 56 10 91 8 35 -1 66 1 70 5 4 4 0 7 -9 7 -9 0 -17 5 -17 10 0 6 -12 10 -27
10 -16 0 -35 5 -43 10 -11 8 -3 10 31 8 25 -1 51 2 57 6 7 4 12 1 12 -8 0 -9
5 -16 10 -16 6 0 10 -6 10 -14 0 -11 14 -13 58 -11 76 4 74 3 67 15 -4 6 -15
8 -26 5 -14 -5 -17 -2 -13 8 4 10 -4 16 -26 19 -23 3 -30 1 -26 -9 3 -7 1 -13
-4 -13 -5 0 -12 9 -15 20 -5 15 -15 20 -39 20 -18 0 -36 3 -40 7 -10 11 -50
10 -58 -1 -4 -6 -18 -4 -35 4 -40 19 -94 24 -104 9 -6 -10 -13 -10 -36 0 -15
7 -57 15 -92 17 -36 2 -68 9 -72 15 -4 7 -19 9 -33 7 -18 -4 -26 -1 -26 8 0 8
-10 14 -22 15 -13 0 -18 3 -11 5 7 3 49 -1 95 -9 46 -9 101 -13 123 -10 80 9
114 7 132 -9 27 -24 73 -32 73 -13 0 8 -6 15 -12 15 -7 0 -24 12 -37 25 -20
21 -21 25 -6 25 15 0 15 2 4 16 -9 11 -22 14 -41 10 -15 -3 -28 -1 -28 4 0 12
28 20 68 18 26 -1 36 -7 43 -25 8 -23 39 -33 39 -12 0 6 12 8 33 5 l32 -6 -29
14 c-37 17 -18 29 23 15 30 -11 43 -29 19 -29 -6 0 -8 -3 -4 -7 3 -4 26 -6 49
-6 l42 2 -35 -10 c-19 -5 -45 -6 -57 -4 -13 3 -23 4 -23 1 0 -10 93 -46 119
-46 32 0 50 -15 29 -23 -7 -3 4 -6 24 -6 20 -1 44 -8 53 -17 21 -22 14 -27
-19 -14 -15 5 -37 10 -49 10 -27 -1 48 -30 78 -30 17 0 17 -2 5 -10 -8 -5 -10
-10 -4 -10 5 0 19 -8 30 -18 11 -10 32 -22 47 -26 22 -5 27 -3 27 13 0 10 7
21 14 24 9 4 13 1 10 -6 -3 -8 11 -13 40 -15 32 -2 45 1 49 13 8 18 -4 20 -21
3 -9 -9 -15 -10 -20 -2 -11 17 -60 26 -82 14 -17 -9 -22 -7 -29 12 -7 20 -5
24 19 31 20 7 37 4 68 -12 49 -25 59 -26 42 -6 -11 13 -8 15 14 15 15 0 29 -7
32 -15 4 -8 16 -15 28 -15 13 0 26 -3 29 -7 16 -15 106 -39 152 -40 l50 -2
-45 9 c-25 5 -70 15 -100 24 l-55 15 45 1 45 2 -45 9 c-25 5 -51 7 -58 4 -6
-2 -28 7 -48 20 -20 14 -45 25 -55 25 -11 0 -19 4 -19 9 0 4 -10 7 -22 5 -65
-9 -157 -11 -152 -3 3 5 -8 12 -25 15 -18 4 -31 13 -31 21 0 10 6 12 23 7 27
-9 91 -14 84 -8 -3 3 -33 12 -68 20 -46 11 -65 12 -67 4 -2 -6 -11 -2 -19 9
-8 12 -25 21 -39 21 -13 0 -24 4 -24 9 0 5 -9 13 -20 16 -11 3 -20 13 -20 21
0 8 -9 14 -19 14 -34 0 -33 19 1 23 18 2 -28 4 -102 4 -74 -1 -153 4 -175 9
-45 11 -88 7 -80 -6 3 -5 12 -7 20 -3 9 3 15 -1 15 -11 0 -20 -55 -22 -63 -2
-4 11 -20 13 -68 9 -44 -4 -60 -2 -55 6 5 7 -3 11 -23 11 -17 0 -31 5 -31 10
0 6 -9 10 -20 10 -11 0 -20 4 -20 10 0 5 -12 9 -27 8 -16 -1 -58 4 -95 10 -36
7 -73 9 -82 6 -23 -9 -20 5 6 26 18 14 27 16 43 7 23 -13 165 -26 165 -14 0 6
-69 11 -115 8 -15 -2 -17 0 -6 7 11 8 11 10 0 15 -8 4 11 4 41 1 43 -4 52 -3
40 6 -12 9 -8 10 19 6 18 -3 37 -6 42 -6 5 0 9 -5 9 -11 0 -6 -9 -8 -22 -3
l-23 6 24 -20 c16 -15 31 -19 51 -16 15 4 31 1 34 -5 9 -13 45 -14 65 -2 10 6
3 9 -21 9 -37 0 -98 26 -98 41 0 5 -14 12 -30 16 -17 4 -37 13 -45 22 -10 9
-15 10 -15 2 0 -8 -4 -8 -12 -2 -7 6 -26 13 -43 17 -20 4 -25 3 -16 -3 9 -6
-1 -10 -34 -13 -31 -2 -49 1 -52 9 -3 8 -12 9 -29 3 -15 -6 -24 -6 -24 0 0 12
-40 13 -59 1z"/>
<path d="M1893 1097 c-24 -15 -43 -35 -43 -43 0 -11 -6 -13 -19 -9 -11 3 -22
2 -25 -3 -3 -6 -20 -8 -38 -7 -18 2 -45 3 -60 4 -18 1 -28 7 -28 17 0 8 -4 12
-10 9 -20 -13 -9 -25 38 -38 33 -10 51 -11 60 -4 10 8 12 7 10 -4 -2 -8 7 -15
22 -17 14 -1 35 -8 47 -14 12 -6 42 -8 67 -6 25 3 47 1 48 -4 2 -5 20 -2 41 7
21 9 42 13 47 10 12 -7 13 -32 3 -38 -5 -2 -1 -2 7 1 8 2 22 5 30 5 18 0 41
22 33 31 -10 10 -35 7 -28 -4 3 -5 -1 -10 -10 -10 -8 0 -18 7 -21 15 -4 8 -12
15 -20 15 -7 0 -18 9 -24 20 -8 15 -17 19 -34 14 -15 -3 -23 -1 -23 8 0 7 -7
27 -14 44 l-14 30 -42 -29z"/>
<path d="M3604 838 c-10 -17 7 -46 31 -52 14 -4 25 -13 25 -21 0 -10 11 -15
33 -15 19 0 37 -3 41 -7 4 -5 11 -8 14 -9 46 -5 80 -18 76 -29 -8 -19 53 -39
84 -27 9 3 9 8 2 17 -5 6 -6 15 -2 19 4 5 0 7 -8 5 -23 -5 -66 21 -50 31 18
11 2 31 -23 28 -12 -2 -21 2 -20 8 1 6 -10 9 -29 6 -20 -3 -29 -1 -24 6 3 6 1
14 -5 18 -7 4 -9 3 -5 -4 4 -7 -7 -9 -34 -7 -38 2 -70 15 -39 15 9 0 6 5 -6
14 -22 15 -53 17 -61 4z"/>
<path d="M1738 793 c12 -2 22 -9 22 -15 0 -6 22 -8 54 -6 44 2 57 -1 65 -15
10 -16 7 -17 -34 -13 -25 2 -42 0 -39 -5 3 -5 -9 -6 -25 -3 -17 4 -37 2 -43
-3 -19 -13 -75 -16 -83 -4 -4 8 -12 8 -26 1 -13 -8 -19 -7 -19 0 0 7 -14 10
-34 9 -19 -2 -38 0 -42 3 -3 4 -13 0 -21 -8 -8 -8 -18 -12 -21 -10 -18 11
-121 16 -127 6 -4 -6 -37 -11 -78 -10 -77 0 -98 -2 -240 -21 -51 -7 -123 -13
-162 -12 -38 0 -58 -2 -42 -4 15 -2 27 -9 27 -15 0 -11 -41 -7 -74 7 -14 6
-18 5 -14 -6 3 -8 13 -15 24 -17 39 -6 49 -12 35 -21 -8 -5 3 -12 33 -20 47
-11 64 -25 46 -36 -6 -4 -22 0 -35 9 -13 9 -32 16 -42 16 -13 0 -9 -6 13 -19
22 -13 55 -20 116 -22 65 -3 89 -8 102 -22 24 -23 12 -35 -13 -13 -15 14 -36
17 -105 15 -74 -1 -89 1 -100 16 -7 10 -28 20 -45 21 -27 2 -30 0 -20 -12 7
-9 20 -12 33 -8 17 5 19 4 9 -7 -11 -11 -8 -15 15 -25 l27 -12 -25 -1 c-14 -1
-30 7 -37 18 -11 17 -41 28 -103 37 -24 4 -24 4 -6 -11 11 -8 23 -15 28 -15 4
0 8 -4 8 -9 0 -6 -12 -6 -30 -1 -27 8 -28 7 -18 -10 9 -14 8 -22 -6 -35 -16
-17 -17 -16 -14 11 3 24 -1 29 -30 35 -23 5 -43 1 -69 -12 -20 -10 -39 -15
-42 -11 -9 13 -148 8 -212 -7 -51 -12 -59 -12 -102 8 -26 12 -52 19 -58 15 -6
-3 -43 -7 -82 -8 l-72 -2 -3 -101 c-2 -90 -1 -102 15 -106 17 -4 17 -5 1 -6
-22 -1 -23 -30 -2 -46 15 -10 15 -13 0 -27 -26 -26 -20 -56 12 -61 l27 -4 -30
-2 c-30 -3 -30 -3 -5 -11 24 -8 24 -8 3 -9 -22 -1 -23 -5 -23 -71 l0 -70 203
0 c143 0 198 3 187 11 -11 7 -3 8 30 3 84 -12 371 -14 364 -2 -5 8 0 9 17 3
13 -5 161 -10 329 -12 275 -2 302 -1 276 12 -15 8 -34 15 -41 15 -7 0 -15 5
-17 11 -2 7 -13 9 -27 4 -13 -4 -20 -12 -18 -20 4 -9 -4 -12 -26 -9 -18 1 -40
3 -50 3 -10 1 -16 5 -13 9 3 5 19 7 36 4 51 -7 33 13 -28 31 -70 21 -88 21
-47 2 l30 -15 -35 6 c-19 4 -45 13 -57 21 -17 11 -27 12 -36 5 -8 -7 -18 -7
-27 -2 -12 8 -9 10 10 11 62 4 99 0 155 -14 33 -8 98 -16 145 -17 47 -1 100
-4 118 -5 17 -2 32 0 32 5 0 23 175 10 198 -15 4 -4 -9 -5 -28 -1 -19 4 -60 9
-90 11 l-55 5 35 -14 c30 -12 32 -15 16 -21 -11 -5 -21 -3 -27 6 -8 12 -11 12
-20 -1 -8 -11 -12 -12 -16 -2 -6 14 -52 16 -73 2 -12 -8 -12 -10 5 -10 16 0
17 -2 6 -9 -10 -6 19 -10 82 -10 72 0 100 3 111 14 17 17 83 20 88 4 5 -15
138 -25 138 -11 0 5 10 8 22 4 14 -3 19 -1 14 6 -8 13 64 9 134 -7 27 -6 185
-10 391 -9 329 2 346 3 341 20 -5 19 -22 25 -22 8 0 -5 -7 -10 -16 -10 -9 0
-14 6 -11 12 5 15 -64 19 -74 5 -3 -4 -13 -5 -23 -1 -14 5 -15 9 -4 15 21 14
109 9 153 -7 101 -38 178 -52 199 -35 10 8 21 8 40 1 15 -5 39 -7 53 -4 22 6
23 8 9 22 -12 13 -18 13 -31 2 -13 -11 -14 -10 -9 5 6 15 3 16 -27 11 -19 -3
-28 -3 -20 0 10 5 6 12 -14 30 -24 20 -29 21 -42 9 -19 -20 -57 -19 -74 1 -12
15 -11 16 10 9 15 -5 21 -4 17 3 -7 12 -64 13 -72 1 -2 -4 5 -10 16 -14 11 -3
20 -10 20 -15 0 -5 -21 -3 -47 5 -27 8 -52 15 -56 15 -5 0 -5 5 -2 10 4 6 -8
10 -28 10 -23 0 -37 6 -41 16 -7 17 10 54 24 54 6 0 10 4 10 9 0 13 -63 11
-72 -3 -6 -8 -10 -8 -16 1 -4 6 -20 10 -35 9 -15 -2 -31 2 -35 8 -4 6 -22 19
-41 29 -28 15 -32 15 -27 2 9 -23 -3 -43 -23 -38 -10 2 -41 0 -69 -5 -29 -5
-52 -5 -52 -1 0 5 12 10 28 10 23 2 24 2 5 6 -13 2 -23 8 -23 13 0 5 -8 10
-17 12 -15 3 -15 5 2 21 18 18 18 19 -6 15 -13 -2 -23 -9 -21 -16 3 -17 -16
-15 -34 3 -10 9 -13 23 -9 36 6 19 4 21 -19 17 -14 -3 -26 -2 -26 2 0 17 49
16 71 -1 13 -10 31 -18 39 -18 10 0 8 3 -5 9 -16 7 -17 9 -3 9 9 1 21 -5 25
-12 9 -14 113 -38 127 -29 5 3 1 9 -10 13 -14 6 -10 8 17 8 22 1 42 -5 49 -14
7 -9 19 -14 25 -11 6 2 25 -2 41 -9 16 -7 46 -21 66 -30 37 -17 58 -14 58 8 0
8 -3 7 -9 -2 -5 -8 -10 -9 -12 -3 -2 6 -15 12 -29 14 -14 2 -42 12 -62 22 -20
10 -42 15 -48 11 -5 -3 -13 1 -16 9 -3 9 -10 14 -14 11 -5 -3 -16 2 -24 11
-12 11 -25 14 -48 9 -26 -6 -30 -5 -25 9 7 17 -5 28 -37 31 -36 4 -37 5 -31
15 4 6 11 8 16 5 5 -4 9 -1 9 4 0 17 27 13 34 -4 3 -9 11 -15 18 -13 7 1 30
-4 51 -11 20 -7 43 -10 50 -8 6 3 2 6 -10 6 -22 1 -55 41 -33 41 5 0 10 -4 10
-9 0 -14 68 -23 88 -12 19 11 7 15 -33 11 -19 -1 -19 -1 -2 12 15 12 12 13
-28 10 -28 -3 -45 0 -45 7 0 6 -5 11 -11 11 -5 0 -7 -4 -4 -10 3 -6 -1 -7 -9
-4 -9 3 -14 11 -13 17 1 8 -11 11 -33 9 -27 -2 -32 0 -20 8 9 6 41 8 80 5 57
-5 63 -4 48 8 -10 8 -15 17 -11 20 3 4 -1 7 -10 7 -9 0 -17 -4 -17 -10 0 -5
-20 -10 -44 -10 -38 0 -43 2 -39 19 3 10 0 22 -5 25 -14 8 -43 -4 -36 -15 7
-12 1 -11 -31 5 -33 17 -26 22 53 30 44 5 62 4 62 -5 0 -6 -7 -8 -16 -5 -14 5
-15 4 -5 -8 9 -11 9 -15 -1 -19 -8 -4 -7 -6 5 -6 9 -1 17 5 17 13 0 8 6 16 14
19 19 7 56 -3 56 -15 0 -6 11 -8 23 -4 17 4 24 1 24 -10 0 -9 -6 -13 -14 -10
-8 3 -11 1 -8 -4 4 -6 37 -10 75 -8 47 1 66 5 60 12 -4 6 -28 11 -53 10 -35 0
-44 3 -40 14 3 7 14 11 24 9 12 -3 19 0 19 9 0 12 -12 14 -52 12 -35 -2 -53 1
-56 10 -3 9 4 11 22 8 14 -3 26 0 26 5 0 5 -4 9 -10 9 -5 0 -10 5 -10 11 0 5
8 9 18 7 9 -1 23 1 30 5 6 5 12 4 12 -2 0 -6 7 -7 17 -4 11 4 14 3 9 -5 -4 -7
-19 -12 -33 -12 -38 0 -25 -6 25 -13 39 -5 42 -3 37 14 -5 14 -1 19 12 20 14
0 12 3 -6 10 -14 5 -30 8 -37 5 -7 -3 -11 0 -8 7 3 9 -13 12 -57 11 -40 0 -74
6 -96 17 -21 11 -49 16 -73 13 -22 -2 -40 1 -40 6 0 5 -6 7 -14 4 -9 -3 -12
-12 -9 -21 5 -13 2 -15 -16 -10 -17 4 -21 2 -18 -11 2 -9 7 -16 13 -16 5 1 18
-7 28 -17 12 -11 15 -19 7 -19 -7 0 -9 -5 -5 -11 12 -20 -60 2 -81 25 -18 19
-30 21 -125 20 -58 0 -113 -4 -122 -8 -11 -5 -18 -4 -18 3 0 21 37 27 152 26
86 -1 115 1 111 10 -10 29 -83 41 -83 14 0 -5 -4 -9 -10 -9 -17 0 -11 29 9 40
16 8 18 13 8 35 -7 13 -18 27 -25 30 -7 2 -10 0 -7 -5 12 -20 -29 -9 -61 15
-22 17 -32 20 -28 10 7 -17 -16 -21 -32 -5 -10 10 -51 13 -104 8 -17 -2 -24 1
-22 11 3 12 0 12 -12 2 -13 -11 -17 -10 -22 3 -5 12 -17 14 -61 10 -36 -3 -52
-1 -48 6 4 6 -6 9 -27 9 -23 -1 -26 -3 -10 -6z m204 -162 c21 -1 56 -37 69
-70 12 -29 10 -31 -21 -19 -20 7 -22 11 -10 18 13 8 12 11 -5 24 -11 8 -23 12
-27 10 -3 -2 -18 0 -32 6 -37 14 -32 -5 4 -20 54 -23 23 -23 -49 0 -39 12 -75
18 -82 15 -6 -4 -45 -8 -87 -10 -53 -2 -66 0 -42 5 35 7 35 7 -11 9 -31 1 -51
-4 -59 -14 -13 -16 -55 -20 -64 -7 -3 5 -29 5 -58 0 -135 -21 -138 -21 -138
-7 0 10 16 15 53 16 28 1 86 7 127 13 41 6 120 13 174 15 55 3 103 8 108 13 7
7 58 8 150 3z m-833 -290 c12 -12 20 -29 19 -37 -2 -12 8 -16 43 -19 48 -3 89
-19 89 -35 0 -6 -4 -10 -10 -10 -5 0 -10 4 -10 8 0 4 -17 12 -37 18 -31 7 -45
6 -73 -9 l-35 -18 51 7 c33 4 54 2 58 -5 4 -6 29 -13 56 -17 27 -4 54 -12 60
-19 8 -9 -1 -10 -39 -4 -27 4 -59 12 -70 18 -11 6 -41 11 -68 12 -58 0 -145
16 -100 18 25 1 27 3 13 16 -8 8 -26 15 -41 15 -15 0 -24 4 -20 10 3 6 -3 10
-15 10 -12 0 -18 4 -15 11 4 6 14 8 23 4 13 -5 12 -2 -3 15 -10 11 -25 20 -34
20 -9 0 -22 4 -29 8 -7 5 28 8 76 7 77 -2 92 -5 111 -24z m1064 -51 c7 -6 27
-20 46 -33 19 -12 39 -31 45 -41 6 -11 19 -28 29 -38 24 -25 13 -37 -12 -14
-11 10 -24 15 -30 12 -6 -4 -8 2 -6 14 5 26 -24 42 -64 34 -27 -6 -29 -9 -19
-22 11 -13 9 -14 -12 -7 -14 4 -26 12 -28 16 -7 17 -30 9 -35 -12 -7 -26 13
-34 83 -33 52 0 88 -15 72 -31 -4 -4 10 -4 30 0 21 4 44 2 55 -4 16 -9 14 -10
-12 -11 -41 0 -75 -10 -75 -22 0 -5 8 -7 18 -4 9 2 28 7 42 11 l25 6 -25 -15
c-14 -9 -20 -16 -15 -16 6 0 4 -4 -3 -9 -16 -9 -74 -7 -92 4 -9 5 -11 4 -6 -3
5 -8 -2 -12 -18 -12 -14 0 -26 -6 -26 -12 0 -14 -76 -18 -98 -5 -6 5 -16 5
-22 2 -5 -3 -10 -2 -10 3 0 5 -33 12 -72 15 -57 5 -77 11 -90 27 -9 11 -23 20
-32 20 -9 0 -16 5 -16 10 0 6 -9 10 -21 10 -14 0 -19 5 -16 14 4 11 1 13 -10
9 -11 -4 -14 -2 -9 5 4 7 2 12 -6 12 -9 0 -9 3 2 10 13 8 13 10 -2 10 -9 0
-18 5 -20 11 -4 13 -107 18 -111 5 -2 -5 -12 -4 -23 2 -11 6 -33 9 -50 7 -38
-5 -95 5 -89 15 3 5 21 6 40 3 20 -3 41 -1 49 6 9 8 29 10 53 6 28 -5 34 -4
23 4 -12 9 -11 11 7 11 13 0 24 -8 28 -20 5 -15 12 -19 25 -15 11 3 38 -4 62
-16 24 -12 54 -25 68 -30 18 -5 20 -8 6 -8 -15 -1 -16 -4 -6 -16 19 -23 53
-20 45 4 -8 28 51 35 77 9 10 -10 31 -18 47 -18 17 0 33 -5 37 -12 5 -8 2 -9
-9 -5 -27 10 -76 -12 -74 -34 1 -21 27 -27 27 -6 0 9 13 14 35 15 19 1 35 -3
35 -9 0 -6 -9 -8 -20 -4 -13 4 -20 2 -20 -7 0 -9 16 -13 53 -13 28 -1 44 1 35
3 -25 5 -23 22 2 22 22 0 64 36 56 49 -3 4 -28 7 -55 7 -45 -1 -50 1 -45 18 4
10 0 23 -7 28 -11 8 -10 9 3 5 9 -3 21 0 27 7 15 18 -12 40 -39 33 -11 -3 -23
-1 -26 4 -3 5 -13 5 -23 -1 -13 -6 -27 -5 -45 3 -29 13 -34 27 -11 27 8 0 15
-5 15 -10 0 -7 13 -9 33 -5 17 4 54 1 81 -5 30 -7 52 -7 60 -1 7 6 25 3 50
-10 22 -10 42 -17 44 -14 3 2 -3 7 -12 11 -9 3 -13 10 -10 15 3 5 -2 9 -10 9
-17 0 -21 12 -9 23 9 9 12 9 26 -3z m-1184 -41 c17 -16 42 -24 100 -29 42 -5
79 -6 83 -4 4 3 40 -6 80 -20 87 -29 168 -42 168 -27 0 14 37 14 46 0 3 -6 0
-15 -7 -20 -11 -7 -10 -11 6 -23 17 -12 18 -15 4 -21 -8 -3 -26 -1 -40 4 -23
9 -23 10 -2 10 16 1 21 5 16 17 -5 13 -16 15 -54 12 -26 -3 -52 -2 -56 2 -10
9 -63 22 -63 15 0 -2 17 -12 37 -20 29 -12 34 -18 23 -25 -9 -6 -25 -3 -45 9
-17 10 -42 17 -57 14 -21 -3 -26 0 -22 11 4 9 -5 15 -28 19 -18 3 -49 8 -69
11 -20 3 -52 13 -72 21 -42 17 -50 19 -43 6 3 -4 26 -14 51 -21 25 -7 48 -17
52 -23 4 -6 -3 -8 -18 -3 -13 4 -42 10 -64 13 -22 3 -47 12 -56 20 -22 18 -48
7 -42 -18 4 -14 0 -19 -13 -18 -11 0 -14 3 -8 5 7 3 10 14 7 24 -5 21 -26 25
-105 22 -20 -1 -40 3 -43 8 -3 6 -25 9 -48 8 -37 -1 -38 -2 -9 -5 17 -2 32 -8
32 -13 0 -5 -16 -6 -35 -3 -33 5 -51 -10 -22 -20 6 -2 1 -2 -13 0 -26 5 -77
49 -67 60 4 3 12 1 19 -5 9 -7 36 -8 78 -3 67 8 96 5 118 -12 8 -7 12 -5 12 7
0 16 26 21 94 16 18 -1 26 2 22 9 -13 20 30 12 53 -10z"/>
<path d="M3167 705 c13 -9 48 -20 79 -25 31 -5 62 -14 70 -20 7 -7 22 -9 32
-6 10 4 32 -1 48 -9 l29 -15 -45 5 -45 6 44 -20 c24 -12 49 -21 56 -21 7 0 24
-9 38 -20 24 -19 25 -19 30 -1 5 20 45 36 120 46 58 8 55 18 -5 17 -24 -1 -57
3 -74 8 -29 10 -94 20 -141 24 -13 0 -23 5 -23 10 0 5 -20 6 -45 3 -25 -4 -57
-2 -72 5 -16 6 -37 11 -48 12 -11 1 -31 6 -45 10 l-25 8 22 -17z"/>
<path d="M2683 668 c2 -13 18 -29 38 -39 47 -24 263 -80 322 -84 27 -1 54 -8
60 -15 10 -10 4 -11 -28 -7 -22 3 -32 3 -22 1 9 -3 17 -9 17 -14 0 -5 -8 -11
-17 -13 -10 -3 -3 -4 15 -4 19 1 35 4 38 8 2 4 22 0 45 -8 23 -7 49 -12 58
-10 10 3 8 5 -6 6 -13 0 -23 5 -23 10 0 5 8 7 19 4 23 -6 37 13 15 21 -8 3
-12 2 -9 -4 8 -12 8 -12 -35 0 -25 7 -36 7 -41 -2 -5 -7 -10 -1 -14 18 -11 51
-14 54 -39 54 -15 0 -25 -7 -29 -20 -7 -26 -35 -26 -39 1 -3 18 -11 22 -63 26
-33 2 -62 7 -65 12 -5 8 -91 34 -119 36 -9 1 -27 7 -40 14 -19 10 -21 15 -10
22 10 6 8 9 -8 9 -18 0 -22 -5 -20 -22z"/>
<path d="M0 654 c0 -9 11 -14 34 -14 19 0 38 -5 41 -11 10 -16 -4 -24 -17 -11
-7 7 -22 12 -35 12 -21 0 -23 -5 -23 -44 0 -51 15 -59 90 -47 43 6 44 7 16 14
-16 5 -43 5 -60 2 -23 -5 -27 -4 -16 4 22 16 101 13 134 -4 15 -8 37 -15 47
-15 27 0 24 20 -3 21 -13 0 -32 5 -43 10 -15 7 -10 8 20 4 22 -3 50 -8 63 -11
13 -4 22 -2 22 5 0 6 -6 11 -14 11 -8 0 -17 4 -20 9 -3 4 11 5 32 1 20 -3 102
-3 182 2 80 5 181 6 225 4 44 -3 87 -1 95 4 16 10 2 11 -200 15 -84 1 -115 6
-155 24 -36 16 -67 22 -115 21 -36 0 -118 1 -182 4 -98 4 -118 2 -118 -10z"/>
<path d="M2851 526 c-9 -10 -21 -12 -49 -5 -52 12 -58 11 -41 -7 9 -8 31 -17
50 -20 19 -2 57 -8 84 -12 53 -9 47 -13 -38 -27 -45 -7 -74 6 -37 17 22 6 21
7 -10 6 -59 0 -96 3 -82 9 20 8 14 23 -9 23 -15 0 -19 -4 -15 -16 3 -9 6 -18
6 -20 0 -2 7 -4 16 -4 9 0 14 -6 11 -12 -3 -8 -21 -12 -48 -11 -35 1 -39 0
-19 -7 29 -9 27 -11 -18 -15 -24 -2 -30 0 -23 9 7 8 -1 10 -31 7 -35 -3 -39
-5 -22 -14 10 -6 25 -17 32 -24 27 -26 101 -73 116 -73 9 0 16 -4 16 -10 0
-14 -37 -12 -68 4 -15 8 -45 14 -67 14 l-40 0 29 -15 c15 -8 58 -17 94 -19 72
-6 91 -12 71 -25 -9 -5 -3 -7 17 -5 19 3 39 -3 55 -16 l24 -19 -35 6 -35 6 32
-15 c17 -8 37 -25 44 -37 15 -29 49 -58 69 -59 12 0 12 -2 2 -9 -10 -6 -7 -10
12 -13 14 -3 26 -1 26 3 0 5 4 9 10 9 5 0 7 -6 4 -13 -7 -18 27 -47 62 -53 16
-2 41 -18 56 -34 l28 -30 487 1 c269 0 482 3 475 6 -6 3 -10 9 -6 14 3 5 -4 9
-15 9 -28 0 -37 21 -16 37 17 12 17 13 2 13 -9 0 -17 -4 -17 -10 0 -17 -29
-11 -50 10 -12 12 -24 19 -28 16 -4 -2 -16 3 -27 11 -19 15 -19 15 5 8 14 -3
35 -11 47 -17 16 -8 29 -8 45 -1 l23 11 -27 10 c-14 6 -29 16 -33 21 -3 6 -12
11 -18 11 -7 0 -3 -7 7 -15 25 -19 18 -25 -13 -14 -15 6 -21 14 -17 25 3 8 2
12 -3 9 -5 -3 -12 -1 -16 5 -8 12 -55 13 -75 0 -9 -5 -19 -5 -26 1 -9 7 -25 7
-51 0 -31 -9 -40 -8 -53 5 -13 14 -13 15 0 14 30 -4 40 0 40 18 0 10 3 13 8 6
10 -16 60 -26 67 -14 4 6 16 8 28 5 20 -6 21 -5 5 8 -10 8 -18 17 -18 21 0 4
-9 17 -20 29 -12 12 -16 23 -10 25 5 2 8 7 6 11 -3 4 3 12 13 18 15 10 18 9
17 -5 -1 -12 6 -16 22 -15 13 2 21 -1 18 -6 -15 -23 22 -15 47 11 22 23 26 32
17 48 -11 21 -82 44 -111 37 -11 -3 -22 -1 -25 4 -3 5 -9 9 -15 9 -11 0 -7
-28 9 -57 11 -21 10 -23 -8 -23 -11 0 -20 7 -20 15 0 8 -8 15 -17 14 -11 0
-13 -3 -5 -6 6 -2 10 -9 6 -14 -3 -5 -14 -4 -26 2 -17 9 -18 13 -7 20 9 6 1 7
-21 3 -19 -4 -39 -11 -45 -16 -6 -6 -3 -7 8 -2 14 5 26 -1 43 -21 13 -16 21
-31 18 -34 -3 -3 -13 4 -21 16 -10 14 -25 23 -42 23 -20 0 -23 -2 -11 -10 8
-5 11 -12 7 -16 -4 -4 -13 -2 -19 4 -7 7 -20 12 -30 12 -22 0 -13 -30 11 -31
12 0 12 -2 -4 -8 -14 -6 -24 -2 -35 11 -12 15 -22 18 -44 12 -24 -6 -26 -8
-12 -16 9 -5 14 -13 11 -19 -4 -5 -1 -9 4 -9 6 0 11 -4 11 -10 0 -5 -9 -10
-21 -10 -11 0 -18 4 -15 8 6 11 -54 9 -71 -1 -7 -4 -22 -5 -35 -2 -19 5 -26 0
-37 -27 -11 -24 -11 -33 -3 -36 7 -2 10 -8 6 -13 -7 -13 -25 -11 -22 2 5 21
-30 35 -52 21 -24 -15 -60 -16 -60 -1 0 5 3 8 8 6 4 -2 23 1 42 9 l35 12 -30
1 c-40 2 -57 14 -49 35 6 16 8 16 25 0 18 -16 20 -16 39 1 11 10 28 15 40 12
11 -3 23 -1 26 4 3 5 -6 9 -20 9 -14 0 -25 4 -24 9 4 12 -10 12 -52 1 -22 -6
-38 -6 -44 0 -6 6 -7 10 -3 10 4 0 -2 9 -14 21 -11 11 -27 18 -35 15 -8 -3
-17 -5 -20 -5 -4 0 -10 -5 -15 -13 -6 -10 -13 -8 -29 10 -22 23 -40 29 -40 13
0 -6 -23 -9 -51 -9 -35 1 -46 4 -34 10 8 5 26 8 38 6 12 -1 32 5 45 14 19 13
20 16 7 22 -10 4 -14 2 -9 -5 5 -9 -4 -10 -30 -5 -26 5 -36 3 -36 -6 0 -8 -5
-6 -11 5 -5 9 -8 21 -5 25 7 11 -18 40 -45 51 -17 7 -19 10 -6 10 20 1 22 12
5 29 -7 7 -8 12 -4 12 5 0 14 -7 20 -14 6 -8 25 -18 41 -22 l30 -7 -19 22
c-11 11 -23 21 -29 21 -5 0 -18 11 -28 24 -13 17 -25 22 -41 18 -16 -4 -19 -2
-13 8 6 10 4 12 -9 7 -10 -4 -20 -7 -22 -7 -3 0 -2 -4 1 -10 3 -5 -1 -10 -9
-10 -9 0 -16 7 -16 15 0 19 -14 19 -29 1z"/>
<path d="M3125 449 c-29 -6 -29 -7 10 -9 22 -2 45 -4 50 -5 6 -2 22 -3 38 -4
15 0 27 -5 27 -11 0 -5 -8 -7 -17 -3 -16 5 -15 3 2 -15 30 -31 41 -46 54 -69
6 -12 23 -24 38 -27 58 -12 103 -15 103 -6 0 6 -12 10 -27 10 -61 0 -95 22
-53 33 11 3 18 2 15 -3 -8 -13 27 -21 41 -9 10 8 18 8 27 1 10 -9 19 -7 35 4
31 21 19 34 -28 30 -28 -2 -40 1 -40 10 0 8 -6 11 -15 8 -8 -4 -15 -1 -15 5 0
6 -7 11 -15 11 -8 0 -15 5 -15 11 0 5 5 7 10 4 6 -3 10 1 10 9 0 20 -17 30
-24 14 -3 -9 -8 -8 -16 5 -12 19 -42 19 -104 0 -13 -3 -16 -1 -11 7 6 9 3 9
-12 1 -11 -5 -24 -7 -29 -2 -5 4 -22 4 -39 0z"/>
</g>
</svg>
