<?xml version="1.0" standalone="no"?>
<!DOCTYPE svg PUBLIC "-//W3C//DTD SVG 20010904//EN"
 "http://www.w3.org/TR/2001/REC-SVG-20010904/DTD/svg10.dtd">
<svg version="1.0" xmlns="http://www.w3.org/2000/svg"
 width="1182.000000pt" height="664.000000pt" viewBox="0 0 1182.000000 664.000000"
 preserveAspectRatio="xMidYMid meet">
<metadata>
Created by potrace 1.13, written by Peter Selinger 2001-2015
</metadata>
<g transform="translate(0.000000,664.000000) scale(0.100000,-0.100000)"
fill="#000000" stroke="none">
<path d="M2 4638 l3 -2003 45 -3 c150 -9 150 -9 150 10 0 22 7 23 26 4 21 -21
105 -19 111 3 3 14 18 17 79 18 56 1 80 5 94 18 13 11 29 16 46 12 29 -5 84
10 84 23 0 4 20 16 45 27 42 17 45 20 45 56 0 20 9 53 19 73 15 27 17 42 11
60 -6 16 -5 26 2 30 7 4 13 3 15 -3 2 -6 14 -8 25 -5 17 4 20 2 14 -13 -4 -10
0 -28 10 -42 11 -18 13 -28 5 -36 -16 -16 -14 -44 4 -50 20 -8 28 8 20 43 -5
24 -3 32 12 37 10 4 26 15 36 24 15 14 16 19 5 26 -13 8 -24 24 -52 73 -12 21
-12 28 -1 43 13 18 14 18 36 -4 l22 -22 9 22 c5 14 14 21 23 18 10 -4 12 -1 8
11 -6 15 -5 15 11 2 16 -13 20 -12 32 5 8 10 14 24 14 29 0 6 18 19 40 30 36
17 52 35 54 61 1 5 18 13 39 18 34 8 38 13 34 33 -4 22 3 29 26 25 4 0 7 8 7
18 0 14 -8 21 -27 23 -26 3 -26 4 -9 21 10 9 28 17 41 17 13 0 30 7 39 15 21
21 49 8 43 -21 -2 -14 2 -25 9 -28 16 -6 19 -36 4 -36 -5 0 -10 5 -10 10 0 6
-11 10 -25 10 -19 0 -25 -5 -25 -23 0 -25 -31 -57 -55 -57 -10 0 -15 -12 -16
-37 -1 -21 -3 -45 -4 -53 -1 -8 -3 -21 -4 -28 0 -7 -5 -10 -11 -7 -5 3 -10 -1
-10 -9 0 -9 4 -16 9 -16 20 0 41 13 41 25 0 6 9 20 20 30 11 10 20 24 20 31 0
7 7 17 17 22 10 6 14 16 10 26 -5 12 0 16 18 16 14 0 39 9 57 20 18 11 28 20
21 20 -20 0 -2 40 26 58 14 9 28 17 30 19 6 4 -31 43 -41 43 -5 0 -16 6 -23
14 -12 12 -11 16 6 32 19 17 21 17 48 1 16 -9 39 -17 51 -17 21 0 21 1 7 23
-18 27 -4 44 44 54 l32 6 -37 19 c-20 10 -36 22 -36 27 0 5 19 18 43 30 37 19
43 19 53 6 6 -8 17 -15 25 -15 12 0 12 -2 1 -9 -9 -5 -3 -8 17 -7 28 1 31 4
31 34 0 26 4 32 21 32 11 0 28 -7 36 -16 14 -14 18 -14 31 -1 20 20 6 39 -26
35 -14 -2 -27 3 -29 10 -3 6 2 12 11 12 18 0 22 36 4 42 -13 5 -20 38 -8 38 5
0 10 -5 12 -11 3 -8 16 -10 41 -5 35 6 37 9 38 44 0 20 3 32 5 25 8 -17 34 -4
34 17 0 10 -7 21 -16 24 -9 4 -14 13 -10 21 3 9 -3 24 -14 35 -11 11 -20 25
-20 30 0 16 -14 12 -43 -15 -32 -30 -61 -22 -69 20 -4 19 -1 25 13 25 25 0 24
8 -3 30 l-23 18 28 -5 c16 -3 27 -1 27 6 0 6 9 11 20 11 11 0 20 5 20 10 0 6
-8 10 -17 10 -10 0 -25 5 -33 10 -13 8 -13 11 -1 19 11 7 11 15 3 40 -9 27 -8
32 8 41 14 8 21 6 28 -6 6 -11 12 -13 16 -6 3 6 2 13 -4 17 -5 3 -10 15 -10
27 0 16 3 18 14 9 7 -6 21 -9 30 -5 9 3 23 1 32 -6 11 -10 18 -10 26 -2 9 9 8
12 -6 12 -13 0 -16 5 -12 16 5 13 1 15 -24 12 -35 -5 -35 -5 -14 16 8 9 11 16
6 16 -6 0 -8 8 -5 18 2 10 -2 24 -10 31 -8 6 -13 19 -11 29 6 24 -6 38 -40 46
-27 7 -28 6 -23 -21 5 -25 3 -29 -16 -28 -39 1 -51 15 -29 33 22 19 38 62 24
62 -6 0 -9 11 -8 24 0 13 5 22 10 18 5 -3 7 10 3 31 -5 30 -2 37 14 42 22 7
59 -2 59 -16 0 -5 5 -9 10 -9 6 0 10 7 10 16 0 15 10 16 83 10 57 -5 86 -11
94 -22 6 -9 16 -13 21 -10 5 3 22 -4 37 -16 23 -18 39 -21 125 -20 54 0 107 5
119 11 11 6 38 10 60 8 23 -2 41 0 41 5 0 4 -7 8 -16 8 -8 0 -13 4 -10 9 3 4
17 6 31 4 13 -3 22 -9 19 -14 -5 -8 9 -13 21 -6 2 1 11 -7 19 -18 9 -11 16
-14 16 -7 0 6 9 12 19 12 11 0 22 6 25 13 3 8 8 7 16 -5 12 -20 79 -21 92 -3
4 6 56 10 118 10 62 0 114 4 118 10 4 6 24 11 45 13 28 3 37 0 37 -12 0 -12
10 -16 43 -15 23 0 36 3 30 6 -7 2 -13 9 -13 14 0 12 52 12 84 0 13 -6 26 -6
28 -2 2 5 36 10 76 13 54 3 72 0 72 -9 0 -7 9 -13 20 -13 11 0 20 5 20 10 0 6
6 10 13 10 7 0 33 10 57 21 38 18 54 20 118 15 87 -8 122 -20 122 -41 0 -14
27 -21 73 -17 9 1 17 -3 17 -9 0 -6 9 -9 20 -6 11 3 20 2 20 -3 0 -4 32 -10
72 -14 39 -3 78 -11 85 -18 7 -6 38 -10 69 -10 30 0 66 -6 81 -13 14 -7 32
-11 41 -8 8 4 13 2 10 -3 -4 -5 6 -10 20 -11 14 0 31 -8 38 -17 6 -9 16 -16
22 -16 6 0 12 -4 14 -8 2 -5 21 -16 43 -24 22 -9 39 -22 37 -28 -2 -8 5 -10
23 -6 15 4 25 2 25 -4 0 -7 8 -9 20 -5 19 6 30 -10 11 -17 -5 -1 -20 -26 -33
-53 -19 -39 -22 -58 -16 -80 5 -17 10 -46 13 -65 6 -47 23 -109 24 -89 1 9 8
22 16 29 13 11 15 8 15 -16 0 -98 15 -232 26 -249 8 -11 14 -29 14 -42 0 -23
19 -43 21 -21 0 7 7 -1 15 -19 19 -45 34 -50 34 -12 0 26 2 30 15 19 8 -6 23
-9 35 -5 13 4 20 2 21 -7 3 -45 8 -60 27 -77 26 -22 20 -48 -11 -54 -19 -4
-18 -4 4 -6 23 -1 26 -5 21 -27 -2 -14 -10 -23 -16 -21 -7 3 -23 -1 -37 -9
-22 -12 -22 -13 -4 -15 11 -1 25 0 30 1 6 1 37 4 69 6 118 8 149 12 157 25 4
7 29 14 56 15 33 2 43 0 33 -6 -12 -8 -12 -12 -3 -18 7 -4 23 -28 36 -54 l23
-45 -46 4 c-56 5 -169 22 -193 29 -9 3 -17 1 -17 -4 0 -9 106 -31 223 -47 26
-3 47 -10 47 -16 0 -14 -88 -11 -176 6 -71 14 -110 14 -67 1 34 -10 168 -36
193 -37 20 -1 18 -3 -12 -11 -25 -7 -58 -6 -110 4 -62 12 -81 12 -109 1 l-34
-13 38 5 c51 8 215 -25 192 -38 -11 -6 -42 -5 -89 2 -59 10 -78 9 -111 -3 -47
-17 -38 -21 14 -5 29 8 49 7 106 -9 52 -15 65 -22 52 -27 -10 -4 -42 -3 -71 4
-43 10 -58 9 -87 -3 -39 -17 -27 -21 17 -6 22 8 40 6 78 -8 48 -19 46 -32 -7
-32 -20 -1 -20 -2 -5 -11 11 -6 15 -16 11 -26 -4 -11 -3 -14 5 -9 7 4 12 3 12
-2 0 -6 -7 -12 -15 -16 -8 -3 -15 -10 -15 -16 0 -6 12 -2 26 9 33 26 84 27
113 2 l22 -19 -31 -28 c-32 -31 -40 -64 -15 -64 8 0 15 7 15 16 0 8 5 12 11 9
6 -4 17 2 25 14 8 12 22 21 30 21 8 0 14 10 15 23 0 14 2 17 6 7 3 -8 12 -19
20 -23 12 -8 12 -11 -1 -26 -15 -16 -14 -17 14 -13 25 3 29 1 24 -12 -4 -12 0
-16 15 -16 31 0 25 -14 -11 -28 -25 -9 -30 -15 -19 -21 9 -6 21 -5 32 2 27 17
37 -1 11 -19 -30 -20 -28 -36 3 -28 18 4 37 -1 65 -20 22 -14 40 -30 40 -34 0
-4 -28 -16 -62 -25 -78 -22 -78 -22 -103 -31 -11 -5 -27 -10 -35 -13 -11 -4
-12 -7 -3 -10 7 -3 37 3 65 13 29 9 62 18 73 20 12 1 43 9 69 18 27 9 50 15
53 13 2 -2 -22 -13 -54 -24 -61 -20 -80 -46 -43 -58 31 -10 16 -19 -26 -17
-22 2 -36 -2 -40 -12 -3 -8 -34 -27 -70 -42 -35 -15 -63 -29 -61 -31 2 -1 30
6 63 17 32 11 78 20 102 20 24 0 41 4 38 9 -6 10 47 32 73 30 10 0 12 -2 4 -6
-14 -5 -18 -35 -5 -30 4 1 8 -2 9 -8 2 -5 -10 -10 -26 -10 -16 0 -33 -3 -37
-7 -4 -5 -17 -9 -28 -9 -14 -1 -11 -3 9 -8 28 -6 24 -9 -55 -40 -72 -29 -136
-61 -120 -61 3 0 54 16 114 35 60 19 111 33 113 31 2 -2 -45 -22 -104 -45
-136 -52 -80 -43 92 15 152 52 190 58 60 10 -191 -71 -236 -89 -231 -93 3 -3
62 14 131 37 128 44 187 52 73 10 -140 -50 -169 -62 -165 -66 2 -3 75 18 163
45 160 51 217 62 102 21 -113 -40 -219 -82 -215 -86 2 -2 53 12 113 31 60 19
113 35 119 35 14 -1 -143 -64 -253 -101 -51 -18 -91 -34 -88 -36 2 -2 51 11
107 30 154 52 211 69 215 64 3 -2 -65 -30 -151 -62 -86 -32 -154 -60 -151 -63
3 -2 18 0 33 6 112 43 226 82 229 79 3 -2 -10 -10 -28 -17 -18 -7 -67 -27
-108 -45 -41 -18 -97 -40 -123 -50 -27 -9 -46 -19 -44 -21 6 -6 134 40 212 76
63 29 199 69 234 70 30 0 2 -10 -95 -36 -54 -14 -115 -35 -134 -46 -19 -12
-71 -36 -115 -54 -44 -18 -75 -33 -70 -33 18 -1 118 35 189 68 82 37 237 77
196 51 -13 -9 -13 -10 0 -10 28 -1 -12 -20 -41 -20 -15 0 -38 -9 -52 -20 -14
-11 -32 -20 -40 -20 -18 0 -32 -18 -23 -28 4 -3 17 0 29 7 31 20 90 27 85 9
-4 -11 -77 -57 -113 -71 -5 -3 -7 -8 -3 -12 3 -4 31 0 61 9 64 19 67 19 67 7
0 -5 -16 -15 -35 -22 -19 -7 -35 -16 -35 -19 0 -4 -16 -12 -35 -20 -19 -8 -35
-17 -35 -22 0 -11 0 -11 58 17 60 29 62 29 62 11 0 -7 -11 -21 -25 -30 -14 -9
-25 -13 -25 -10 0 4 -8 0 -17 -8 -10 -9 -36 -23 -58 -33 -22 -10 -58 -26 -80
-37 -38 -18 -39 -19 -10 -16 17 1 35 6 41 10 7 5 16 8 20 7 5 -1 22 3 37 9 19
8 34 9 45 3 14 -8 11 -11 -15 -17 -18 -3 -33 -10 -33 -15 0 -5 -33 -25 -72
-44 l-73 -34 41 -1 c22 0 44 3 48 7 8 8 46 15 46 8 0 -2 -20 -13 -45 -24 -49
-22 -59 -41 -22 -41 34 0 30 -27 -7 -53 -17 -12 -33 -25 -34 -29 -2 -5 -9 -5
-14 -2 -7 4 -8 2 -4 -5 4 -6 13 -11 19 -10 7 1 18 1 26 0 23 -2 -34 -48 -69
-56 -16 -4 -30 -11 -30 -15 0 -5 -7 -6 -17 -3 -11 5 -14 3 -8 -6 4 -7 18 -11
32 -8 31 6 25 -14 -10 -31 -45 -22 -33 -35 26 -29 28 3 45 4 37 0 -8 -3 -28
-11 -45 -18 -29 -13 -68 -24 -109 -32 -24 -4 -31 -11 -23 -20 7 -6 91 10 152
28 49 16 16 -7 -45 -30 -30 -12 -84 -26 -120 -31 -36 -6 -72 -13 -81 -16 -20
-6 -19 34 2 47 11 7 11 9 -3 9 -22 0 -24 18 -3 26 8 4 15 10 15 15 0 5 -18 0
-40 -11 -21 -11 -50 -20 -62 -20 -21 -1 -22 -1 -5 -11 11 -6 30 -9 43 -6 32 6
31 -9 -1 -17 -14 -4 -25 -11 -25 -16 0 -5 8 -7 18 -3 14 5 15 3 5 -7 -7 -7
-27 -13 -45 -13 -39 1 -98 -15 -98 -27 0 -5 14 -4 32 1 17 5 34 7 36 4 8 -8
-10 -25 -27 -25 -18 0 -63 -29 -45 -30 5 0 14 4 20 9 13 12 64 23 64 14 0 -8
-48 -33 -63 -33 -11 0 -47 -39 -47 -52 0 -4 27 5 60 22 33 17 60 29 60 26 0
-2 -36 -27 -80 -55 -44 -29 -80 -55 -80 -57 0 -7 44 7 50 16 7 9 89 39 119 42
30 4 37 -14 16 -36 -9 -9 -12 -16 -7 -16 6 0 10 -16 9 -35 -1 -22 -6 -35 -14
-35 -7 0 -13 5 -13 10 0 6 -5 10 -10 10 -6 0 -5 -8 2 -20 7 -11 21 -19 30 -18
26 4 22 -16 -4 -24 -22 -6 -22 -6 4 -7 38 -1 43 -17 8 -25 -17 -3 -30 -10 -30
-15 0 -6 12 -6 32 0 40 11 38 11 38 -1 0 -5 -17 -14 -38 -20 -42 -11 -75 -30
-54 -30 7 0 27 6 45 13 18 8 38 12 46 9 7 -2 -13 -13 -45 -24 -76 -26 -107
-30 -100 -12 3 8 0 11 -10 7 -8 -3 -13 -12 -10 -19 3 -8 0 -15 -7 -16 -7 0 8
-4 33 -7 25 -3 47 -4 50 -1 3 3 18 12 33 20 25 12 29 12 37 0 7 -10 10 -11 10
-2 0 6 4 12 9 12 6 0 9 -10 8 -21 -1 -14 -13 -27 -33 -35 -18 -8 -34 -19 -37
-26 -4 -10 -6 -10 -6 0 -1 6 -6 12 -12 12 -5 0 -7 -4 -4 -10 6 -10 -7 -14 -32
-11 -7 1 -13 -3 -13 -9 0 -6 -4 -9 -9 -5 -5 3 -12 1 -16 -5 -8 -13 -61 -13
-85 0 -29 15 -34 -6 -8 -30 17 -16 19 -20 5 -14 -15 5 -16 3 -7 -20 6 -17 6
-26 0 -26 -13 0 -29 40 -35 92 -7 53 -12 58 -35 29 -16 -22 -60 -37 -60 -21 0
3 -9 6 -20 7 -31 3 -24 -11 15 -28 33 -14 34 -16 20 -34 -13 -18 -14 -18 -15
-2 0 9 -7 17 -16 17 -8 0 -13 -4 -9 -9 3 -5 1 -30 -5 -55 -6 -29 -6 -54 0 -70
9 -24 8 -25 -19 -20 -28 6 -58 -15 -33 -24 20 -6 2 -53 -34 -90 -23 -23 -39
-32 -50 -28 -14 5 -15 4 -5 -8 17 -20 -5 -32 -26 -14 -14 11 -15 10 -9 -8 6
-19 2 -22 -26 -23 -41 -1 -141 -9 -148 -12 -3 -1 -8 -1 -12 0 -18 3 -6 -31 12
-36 24 -6 25 -10 6 -29 -13 -12 -15 -11 -21 6 -6 20 -35 28 -35 10 0 -5 -4
-10 -10 -10 -5 0 -10 7 -10 15 0 8 -9 15 -21 15 -11 0 -17 4 -14 10 3 5 1 10
-4 10 -6 0 -11 5 -11 10 0 6 11 10 25 10 14 0 25 4 25 9 0 4 -12 6 -26 3 -19
-3 -31 1 -43 16 -12 16 -20 19 -31 12 -10 -6 -11 -10 -2 -10 6 0 12 -4 12 -10
0 -5 -16 -10 -35 -10 -20 0 -35 -5 -35 -12 0 -6 -7 -4 -18 5 -10 10 -29 17
-42 17 -22 0 -22 1 -7 18 18 19 13 28 -37 69 -7 7 -16 18 -19 25 -4 10 -8 10
-14 2 -11 -16 -42 -20 -72 -10 -14 5 -27 4 -34 -3 -8 -8 -3 -11 19 -11 16 0
36 -5 44 -11 13 -9 12 -10 -2 -5 -24 7 -23 -11 1 -26 10 -6 17 -18 13 -26 -4
-11 0 -13 17 -7 20 6 22 5 12 -13 -8 -16 -6 -21 17 -33 15 -8 33 -20 40 -26 7
-7 21 -13 29 -13 12 0 10 5 -8 20 -46 38 -49 41 -49 50 0 21 20 8 57 -35 21
-25 42 -45 46 -45 5 0 5 5 2 10 -3 6 1 10 9 10 19 0 21 -11 4 -28 -9 -9 -9
-12 4 -12 8 0 27 -11 42 -25 17 -16 45 -28 72 -32 25 -3 47 -10 51 -16 4 -6
-4 -8 -21 -5 -28 6 -31 1 -16 -22 5 -8 10 -10 10 -4 0 7 10 14 23 17 12 2 30
8 40 12 10 4 17 3 17 -4 0 -6 -7 -11 -16 -11 -8 0 -21 -6 -28 -12 -10 -11 1
-13 53 -14 86 -2 103 -5 118 -20 7 -7 13 -14 13 -16 0 -2 -34 -3 -75 -2 -41 1
-75 -2 -75 -6 0 -4 6 -7 13 -7 26 2 137 -27 137 -36 0 -10 -62 -4 -93 8 -17 7
-17 5 -7 -11 7 -12 24 -19 46 -20 67 -3 74 -4 74 -15 0 -5 -4 -8 -9 -5 -5 4
-11 2 -13 -4 -2 -6 -14 -4 -30 4 -15 8 -29 12 -32 9 -9 -9 17 -41 30 -36 6 2
15 0 19 -6 12 -21 -38 -11 -57 11 -18 21 -20 21 -53 5 -19 -9 -43 -14 -52 -11
-13 4 -15 3 -5 -4 11 -7 11 -10 -2 -15 -19 -7 -66 8 -66 22 0 5 -9 11 -20 14
-11 3 -20 2 -20 -3 0 -11 -49 -19 -55 -9 -3 4 3 12 12 18 18 10 14 13 -21 15
-28 1 -31 22 -4 30 22 6 22 7 -7 21 l-30 13 33 1 c17 1 32 -3 32 -8 0 -5 11
-11 25 -13 17 -4 25 -1 25 8 0 17 22 18 38 2 9 -9 12 -7 12 9 0 17 5 20 23 16
12 -3 19 -2 15 2 -4 4 -29 9 -55 11 -26 2 -61 7 -78 10 -16 3 -40 5 -52 5 -13
0 -23 4 -23 9 0 6 5 10 11 10 5 0 8 4 4 10 -6 9 -36 2 -45 -11 -3 -5 -21 -15
-40 -23 l-35 -16 45 6 c25 4 47 7 50 6 22 0 30 -3 30 -13 0 -6 -10 -10 -22 -9
-52 5 -68 0 -61 -16 5 -15 3 -15 -20 1 -16 10 -27 13 -27 6 0 -6 -7 -11 -15
-11 -8 0 -15 9 -15 21 0 11 -4 17 -10 14 -5 -3 -10 -2 -10 3 0 5 -8 12 -18 14
-15 4 -18 1 -14 -18 3 -19 0 -24 -17 -24 -12 0 -20 -4 -17 -9 4 -5 0 -12 -6
-14 -7 -3 -3 -6 8 -6 12 -1 27 -8 34 -16 7 -8 23 -15 36 -15 13 0 24 -5 24
-11 0 -6 7 -3 16 5 8 9 21 16 27 16 8 0 8 -3 -1 -9 -19 -12 13 -42 35 -34 10
4 14 2 10 -4 -4 -6 4 -13 18 -16 45 -8 36 10 -10 24 -33 10 -41 15 -28 20 10
3 33 0 51 -8 43 -18 139 -81 169 -111 13 -13 30 -21 38 -18 18 7 98 -28 87
-38 -4 -4 5 -3 19 4 30 14 109 -3 109 -22 0 -9 -3 -9 -12 0 -15 15 -72 16 -63
2 4 -6 15 -8 24 -5 11 3 24 -2 32 -11 12 -15 10 -16 -21 -9 -19 4 -39 11 -45
15 -5 4 -28 10 -50 14 -22 3 -51 9 -65 12 -22 5 -21 3 8 -15 18 -12 39 -21 47
-21 8 0 15 -4 15 -9 0 -5 19 -8 42 -6 46 4 67 -3 47 -16 -10 -6 -8 -9 9 -9 12
0 22 6 22 14 0 17 28 41 37 32 4 -4 2 -10 -4 -14 -7 -5 2 -12 24 -19 34 -10
35 -10 30 13 -2 13 0 24 5 24 5 0 6 10 3 23 -4 12 -3 17 2 10 4 -6 25 -11 46
-11 39 0 49 11 20 22 -10 3 -24 9 -32 12 -9 4 -11 2 -7 -5 4 -6 2 -11 -3 -11
-6 0 -11 4 -11 8 0 4 -16 6 -35 4 -40 -5 -44 -14 -12 -30 28 -14 7 -15 -28 -2
-26 10 -26 10 -6 31 14 15 26 19 43 14 16 -5 20 -4 13 3 -5 6 -23 14 -40 17
-20 5 -26 4 -16 -3 7 -5 9 -12 5 -14 -17 -10 -200 -1 -220 10 -18 10 -17 11 9
21 31 12 37 26 7 16 -14 -5 -20 -2 -20 9 0 21 9 20 70 -4 55 -22 90 -26 90
-10 0 6 -4 10 -10 10 -5 0 -10 4 -10 10 0 5 16 8 35 6 34 -2 50 17 22 27 -6 2
-9 8 -4 12 4 5 20 -3 35 -17 15 -14 44 -31 64 -38 46 -14 62 -33 21 -25 -27 6
-27 5 5 -9 17 -8 32 -20 32 -26 0 -5 14 -10 31 -10 16 0 28 4 25 9 -4 5 3 7
15 4 12 -3 25 0 29 7 4 7 13 9 19 6 6 -4 8 -12 5 -18 -4 -6 -3 -8 3 -5 5 3 29
0 54 -8 43 -13 43 -14 12 -14 -22 -1 -34 -6 -34 -16 -1 -8 -2 -20 -3 -27 -2
-23 207 -66 230 -47 12 9 14 4 14 -30 l0 -41 220 0 c192 0 221 2 227 16 3 9
13 14 24 11 13 -3 16 0 12 12 -3 9 6 4 21 -11 l25 -28 326 0 c360 0 337 -5
310 69 -12 36 -12 45 1 76 8 19 20 35 27 35 13 0 37 -53 37 -84 0 -9 9 -35 20
-56 l20 -40 410 0 410 0 12 25 c10 23 13 24 21 9 6 -11 5 -19 -4 -25 -10 -6
-4 -9 18 -9 26 0 30 3 26 20 -3 13 0 20 8 20 8 0 20 9 27 20 7 11 22 20 33 20
12 0 34 11 51 25 19 16 41 25 61 24 18 -1 24 -3 14 -6 -9 -2 -15 -9 -12 -14 4
-5 -5 -9 -19 -9 -14 0 -26 -4 -26 -9 0 -5 -12 -12 -27 -16 -16 -3 -43 -16 -60
-28 -65 -44 -51 -47 217 -47 216 0 250 2 250 15 0 17 16 20 24 6 4 -5 0 -12
-6 -14 -7 -3 12 -6 42 -6 37 0 50 2 40 8 -8 6 -17 8 -20 6 -4 -2 -7 2 -7 10 0
11 5 12 21 3 14 -7 21 -8 24 0 4 12 42 4 42 -10 0 -5 10 -6 21 -3 14 5 19 3
15 -3 -10 -17 44 -9 54 8 9 13 11 13 20 0 7 -11 10 -12 10 -2 0 14 39 7 50 -8
8 -11 241 -10 262 1 12 6 18 6 18 -1 0 -16 147 -13 153 3 3 9 -4 12 -28 9 -18
-2 -36 1 -39 7 -7 10 23 17 49 11 6 -1 39 -2 75 -3 36 0 53 -2 38 -4 -14 -2
-29 -11 -32 -19 -4 -11 6 -14 50 -14 34 0 53 4 49 10 -3 5 3 10 14 10 12 0 21
-4 21 -10 0 -6 40 -10 103 -9 60 1 92 4 77 8 -21 6 -18 9 24 15 40 6 51 5 58
-8 8 -14 83 -15 671 -14 364 0 655 2 645 5 -9 2 -19 11 -22 20 -5 13 0 14 28
9 19 -4 36 -2 38 3 1 5 17 7 33 3 l30 -5 -40 -18 c-40 -18 -38 -18 248 -19
190 0 286 3 282 10 -3 6 1 10 10 10 9 0 13 -4 10 -10 -4 -7 52 -10 162 -10
112 0 163 4 153 10 -11 7 -7 10 18 10 17 0 32 -4 32 -10 0 -5 11 -10 25 -10
26 0 34 14 13 24 -7 3 6 4 30 1 28 -4 41 -2 37 5 -3 5 -1 10 4 10 6 0 11 -6
11 -14 0 -9 -13 -16 -32 -19 -18 -2 173 -4 425 -5 l457 -1 0 255 0 256 -26 -6
c-24 -6 -25 -5 -11 9 9 8 20 15 26 15 8 0 11 889 11 3055 l0 3055 -5910 0
-5910 0 2 -2002z m11047 -1429 c17 -23 23 -46 25 -94 2 -35 0 -62 -5 -60 -7 5
-19 -18 -19 -38 0 -7 4 -6 10 3 7 11 12 12 21 3 15 -15 3 -34 -16 -26 -11 4
-13 1 -9 -11 4 -12 0 -16 -15 -16 -12 0 -21 1 -21 3 0 1 4 17 10 36 19 66 21
147 5 161 -8 7 -15 19 -15 27 0 13 -3 13 -15 3 -9 -7 -13 -20 -10 -28 4 -11
-1 -13 -24 -9 -25 5 -30 3 -36 -21 -3 -15 -8 -35 -11 -44 -3 -10 -1 -18 5 -18
6 0 11 6 11 13 0 13 73 17 86 4 4 -4 0 -7 -9 -7 -10 0 -14 -6 -11 -14 3 -8 1
-17 -5 -20 -5 -4 -12 3 -16 14 -3 11 -13 20 -22 20 -9 0 -13 -6 -10 -14 3 -8
-2 -16 -11 -18 -27 -7 -42 2 -42 27 0 29 27 95 40 96 6 1 15 3 20 4 6 1 15 3
20 4 6 0 10 10 10 20 0 17 11 27 31 30 3 1 15 -13 28 -30z m-4219 -2174 c49
-5 94 -15 148 -31 9 -3 6 2 -8 11 -24 16 -24 16 25 10 28 -3 86 -8 130 -11 44
-3 96 -9 115 -15 19 -5 64 -9 99 -9 l64 0 -19 -21 c-19 -21 -81 -58 -71 -42 3
4 -18 8 -46 8 -52 0 -83 -18 -37 -22 58 -4 116 -16 130 -28 8 -7 22 -15 30
-18 13 -5 13 -5 0 -6 -8 0 -33 6 -55 13 -22 8 -61 17 -85 21 -25 3 -50 13 -56
21 -6 8 -17 14 -25 14 -11 0 -11 -2 1 -10 10 -7 11 -10 2 -10 -7 0 -15 7 -18
15 -4 9 -19 15 -38 15 -18 0 -37 5 -44 12 -6 6 -15 9 -19 5 -12 -12 13 -29 48
-31 47 -4 49 -5 49 -16 0 -5 -15 -7 -32 -5 -18 3 -27 2 -19 -1 11 -5 11 -8 0
-16 -10 -7 -5 -8 16 -4 21 5 26 4 15 -3 -11 -8 -9 -12 15 -21 17 -7 40 -12 53
-12 12 0 25 -4 28 -9 3 -5 16 -9 30 -9 36 0 29 -20 -8 -21 -32 -1 -32 -2 7
-10 22 -4 51 -8 65 -7 l25 0 -25 8 c-24 8 -23 8 8 9 33 1 38 -4 23 -27 -6 -10
-18 -11 -49 -3 -23 5 -42 5 -42 1 0 -4 17 -10 38 -14 51 -8 74 -8 68 2 -5 9
111 4 134 -5 8 -4 17 -7 20 -7 3 -1 11 -5 18 -9 6 -5 12 -4 12 1 0 5 11 7 25
4 14 -2 25 -10 25 -17 0 -16 18 -23 50 -19 14 1 33 3 43 3 10 1 15 6 12 11 -7
11 1 12 32 4 13 -4 20 -11 16 -20 -4 -10 0 -12 11 -8 9 3 13 10 10 15 -3 6 6
7 23 3 15 -3 46 -6 68 -6 22 0 61 -6 88 -13 27 -8 47 -10 47 -4 0 5 -5 9 -11
9 -5 0 -7 5 -3 11 4 7 0 9 -12 5 -28 -9 -109 8 -107 22 2 7 -2 12 -7 12 -6 0
-10 -4 -10 -10 0 -12 -94 -12 -130 0 -22 8 -20 9 12 7 20 -1 40 2 44 6 4 4 -5
7 -19 7 -34 0 -37 1 -64 11 -12 5 -25 4 -28 -1 -3 -4 0 -10 6 -12 7 -2 9 -13
5 -25 -5 -15 -13 -19 -31 -15 -14 2 -25 8 -25 12 0 5 9 6 20 3 11 -3 20 0 20
6 0 6 -5 11 -11 11 -5 0 -8 4 -5 8 3 5 -15 6 -39 2 -25 -4 -45 -3 -45 2 0 4
10 9 23 9 12 1 2 5 -23 9 -25 4 -53 3 -63 -2 -10 -5 -27 -6 -38 -3 -12 4 -36
7 -55 7 -21 0 -34 5 -34 13 0 14 47 17 56 4 3 -5 15 -9 27 -9 12 0 17 4 11 8
-18 16 -93 33 -119 26 -15 -4 -25 -2 -25 5 0 6 -11 11 -25 11 -14 0 -25 4 -25
8 0 4 11 9 25 10 14 1 25 -2 25 -7 0 -6 8 -10 18 -10 9 0 41 0 71 -1 32 -1 57
3 61 10 4 6 22 10 41 8 26 -2 33 -7 31 -20 -2 -14 4 -18 28 -18 17 0 29 -4 25
-9 -3 -5 0 -13 6 -17 7 -4 9 -3 5 4 -3 6 7 13 25 17 21 5 34 3 40 -6 4 -7 31
-16 61 -20 29 -3 68 -13 87 -20 29 -12 35 -12 39 0 4 11 6 11 13 0 7 -11 11
-11 17 -2 4 7 17 10 31 6 17 -4 19 -8 9 -14 -10 -7 -10 -9 2 -9 8 0 22 4 30 9
10 7 18 4 28 -11 9 -12 21 -18 34 -15 11 3 52 -1 91 -9 67 -14 95 -24 69 -24
-7 0 -12 -5 -12 -11 0 -5 4 -8 9 -5 10 7 41 -3 41 -13 0 -6 -53 -7 -100 -2
-24 3 -24 4 5 11 26 7 23 8 -22 9 -56 1 -83 -6 -83 -21 0 -5 5 -6 10 -3 6 4
17 1 25 -5 8 -6 18 -9 24 -6 5 3 24 3 42 -1 l34 -7 -27 -7 c-16 -4 -51 -1 -80
6 -44 11 -73 13 -108 6 -3 -1 2 -6 10 -12 11 -8 5 -9 -25 -4 -22 4 -44 11 -50
16 -7 7 0 8 20 4 25 -5 27 -4 12 5 -10 7 -25 9 -33 6 -8 -3 -25 -1 -38 4 -29
11 -86 -7 -86 -27 0 -7 -7 -13 -15 -13 -22 0 -18 13 8 29 l22 14 -29 8 c-18 5
-35 4 -42 -2 -9 -7 -19 -7 -30 -1 -12 7 -24 6 -36 -2 -15 -9 -21 -8 -29 4 -8
11 -12 12 -16 3 -2 -7 -14 -12 -26 -12 -17 1 -18 2 -4 6 10 3 17 14 16 26 0
21 -1 21 -9 2 -5 -11 -9 -14 -9 -7 -1 6 -8 12 -16 12 -9 0 -28 8 -43 17 -26
17 -26 17 -13 0 8 -10 12 -19 10 -21 -13 -11 -46 -14 -59 -5 -12 9 -12 10 3 5
26 -8 41 3 26 20 -13 16 -33 19 -24 4 3 -5 -1 -10 -9 -10 -9 0 -16 -5 -16 -11
0 -7 -14 -10 -35 -7 -19 2 -35 0 -35 -4 0 -4 5 -8 11 -8 5 0 7 -5 4 -10 -4 -7
-14 -3 -25 10 -11 12 -24 19 -29 15 -6 -3 -11 -2 -11 2 0 5 -16 15 -35 22 -19
7 -35 17 -35 22 0 5 -12 8 -27 8 -19 -1 -22 -3 -10 -6 13 -3 17 -11 14 -24 -5
-20 8 -27 16 -9 3 6 4 5 3 -2 -4 -19 -31 -16 -28 3 3 19 -49 34 -59 17 -4 -6
-9 -2 -13 8 -5 18 -23 25 -117 50 -9 3 -24 -2 -32 -11 -14 -13 -17 -13 -33 2
-13 13 -19 14 -22 5 -6 -19 -62 -15 -62 4 0 14 3 14 15 4 12 -10 15 -10 15 0
0 9 12 11 43 7 l42 -6 -32 15 c-44 19 -42 24 5 12 20 -5 46 -11 57 -13 11 -2
22 -4 25 -5 3 -1 15 -1 28 0 12 1 22 -4 22 -10 0 -8 12 -10 38 -6 20 3 53 6
72 7 29 0 31 1 15 9 -11 5 -37 9 -57 9 -20 1 -40 6 -43 11 -4 7 3 9 22 5 l28
-5 -30 14 c-16 7 -41 16 -55 20 -25 6 -25 6 -2 -6 25 -13 24 -31 -3 -36 -9 -2
-15 0 -11 6 3 5 -2 12 -12 15 -9 3 -31 10 -49 15 -26 8 -31 8 -26 -4 3 -9 -2
-14 -16 -14 -12 0 -24 7 -27 15 -8 19 -52 32 -154 45 -64 7 -89 15 -105 31
-20 21 -20 21 0 11 11 -5 26 -7 33 -5 6 3 12 0 12 -6 0 -16 72 -13 94 4 11 8
25 15 30 15 6 0 4 -5 -4 -10 -13 -8 -13 -10 2 -10 9 0 25 -3 35 -6 16 -5 16
-4 -2 12 -18 15 -18 16 -2 10 11 -3 25 0 33 9 14 13 8 15 -49 15 -36 0 -74 3
-84 7 -16 6 -15 8 7 14 24 7 24 7 3 8 -16 1 -23 7 -23 22 0 15 5 19 18 15 9
-3 42 -8 72 -11z m42 -313 c-12 -2 -20 -8 -16 -13 3 -5 10 -7 15 -4 5 4 9 -3
9 -14 0 -11 4 -22 9 -25 4 -3 6 7 4 22 -3 19 -2 23 5 13 7 -9 42 -14 123 -17
69 -2 115 -8 120 -15 4 -6 11 -9 17 -5 6 3 12 1 14 -4 2 -6 37 -15 78 -21 89
-11 108 -12 138 -4 12 3 22 1 22 -5 0 -5 -8 -11 -17 -11 -10 -1 -4 -5 12 -9
54 -14 65 -11 66 13 1 17 2 18 6 4 3 -12 12 -17 26 -15 13 2 21 -2 19 -9 -2
-15 24 -18 33 -3 3 5 13 6 21 3 12 -4 13 -8 3 -14 -8 -5 2 -10 27 -14 21 -4
48 -9 58 -12 18 -5 18 -7 3 -18 -9 -6 -14 -14 -11 -17 2 -3 -2 -8 -11 -12 -13
-4 -14 -2 -5 14 14 25 13 30 -4 24 -8 -3 -24 -1 -35 6 -15 7 -21 7 -21 0 0 -6
9 -14 20 -18 13 -5 17 -11 11 -21 -5 -7 -14 -10 -20 -7 -6 4 -9 11 -6 15 2 5
-8 11 -23 14 -16 3 -34 17 -42 31 -8 16 -22 26 -34 25 -21 0 -21 -1 -1 -10 16
-8 15 -8 -8 -4 -19 4 -26 2 -22 -5 3 -6 -3 -10 -14 -10 -12 0 -21 5 -21 11 0
5 -5 7 -12 3 -7 -5 -5 -11 7 -21 19 -13 9 -18 -19 -7 -9 3 -13 11 -10 16 4 6
1 8 -7 6 -8 -3 -20 4 -27 16 -13 20 -13 20 -8 -6 4 -15 2 -30 -4 -33 -9 -5
-15 15 -11 37 0 4 -6 5 -15 1 -13 -5 -13 -7 -2 -14 24 -15 -8 -31 -73 -34 -66
-4 -64 -1 6 10 37 7 38 8 16 16 -14 5 -27 6 -30 2 -6 -8 -9 -9 -58 -12 -22 -1
-25 -3 -13 -11 11 -8 8 -10 -15 -8 -17 1 -36 -1 -42 -5 -6 -4 -14 -3 -18 3 -4
6 -10 8 -15 5 -5 -3 -21 -3 -35 1 -18 5 -23 9 -14 14 7 5 19 6 27 2 10 -3 13
-1 8 6 -4 7 -1 15 8 18 21 8 21 24 0 24 -9 0 -12 5 -8 12 4 7 3 8 -5 4 -6 -4
-10 -15 -9 -24 3 -14 -7 -17 -58 -17 -38 0 -67 -5 -78 -14 -23 -19 -30 -8 -49
70 -9 36 -19 73 -22 81 -5 12 1 14 27 9 26 -4 28 -6 10 -9z m-2318 -18 c3 -9
6 -28 7 -42 0 -22 2 -23 8 -9 6 15 13 9 43 -35 21 -29 58 -75 83 -101 47 -50
57 -77 28 -77 -15 0 -16 -2 -3 -10 10 -6 20 -4 32 6 9 9 22 13 28 9 8 -5 4
-11 -11 -19 -34 -17 -35 -36 -2 -37 15 0 44 -7 63 -14 l35 -14 -46 6 c-25 3
-55 0 -66 -5 -19 -10 -44 -78 -57 -154 -2 -14 -12 -37 -21 -51 -15 -23 -18
-24 -43 -11 -23 12 -28 11 -35 -1 -9 -17 -43 -20 -52 -5 -10 17 -25 11 -25
-10 0 -11 -7 -20 -15 -20 -8 0 -15 5 -15 11 0 6 -7 3 -16 -5 -17 -17 -28 -21
-20 -7 7 11 -22 23 -35 16 -5 -4 -6 1 -3 10 5 12 10 13 17 6 13 -13 41 -15 33
-3 -10 16 40 35 61 24 21 -11 63 -5 63 8 0 12 -29 18 -65 15 -16 -1 -36 2 -42
7 -7 6 -20 8 -28 4 -10 -3 -15 1 -15 13 0 11 -9 21 -22 24 -13 3 -33 8 -45 12
-16 5 -23 2 -28 -14 -9 -28 -29 -26 -59 4 -30 29 -29 30 13 9 30 -15 33 -15
45 2 10 13 22 16 49 11 37 -6 60 6 32 17 -29 11 -17 33 15 28 16 -2 28 -8 25
-12 -3 -4 12 -11 33 -15 36 -7 36 -8 12 -17 l-25 -9 34 -15 c25 -11 43 -12 70
-4 45 12 74 13 67 1 -7 -10 19 -23 28 -14 17 17 2 31 -39 37 -46 7 -72 26 -35
26 14 0 19 4 13 13 -8 12 -13 32 -15 55 -1 6 -7 12 -15 12 -10 0 -11 5 -3 19
8 16 6 23 -11 34 -11 8 -28 13 -39 10 -25 -7 -30 7 -20 52 6 28 5 46 -6 67
-13 25 -13 31 0 56 l15 27 1 -29 c0 -29 0 -29 21 -10 11 10 16 20 10 22 -6 2
-11 10 -11 18 0 9 -4 12 -10 9 -6 -4 -7 6 -4 24 4 19 2 37 -6 46 -10 12 -10
15 3 15 8 0 18 -7 21 -16z m2964 -148 c9 -6 10 -11 2 -21 -8 -9 -5 -11 15 -7
15 2 25 0 25 -7 0 -6 -6 -11 -12 -12 -43 -3 -61 -7 -66 -16 -4 -5 -22 -16 -39
-24 -18 -8 -33 -17 -33 -21 0 -5 -10 -8 -22 -8 -13 -1 -34 -7 -48 -15 -33 -19
-54 -19 -46 0 4 12 2 13 -14 3 -23 -14 -41 -2 -20 13 13 9 12 10 -2 6 -9 -3
-19 -3 -22 0 -3 4 -18 7 -33 9 -16 1 -44 6 -63 9 -27 5 -32 4 -20 -5 12 -9 10
-10 -10 -8 -15 2 -24 9 -22 17 2 10 -5 12 -25 7 -21 -5 -24 -4 -13 4 18 12
129 2 148 -13 9 -7 11 -6 6 7 -6 15 -1 16 37 9 74 -13 174 -10 171 5 -1 8 2
10 8 7 15 -9 80 23 80 39 0 8 -6 14 -12 13 -7 0 -22 1 -33 2 -16 1 -17 3 -6
10 16 10 50 9 69 -3z m12 -235 c0 -5 11 -8 25 -8 14 0 41 -13 60 -27 24 -18
42 -25 55 -21 22 7 27 25 8 26 -10 0 -10 2 -1 5 7 3 9 12 6 20 -3 8 0 14 6 14
7 0 14 -7 17 -15 4 -10 20 -15 49 -15 24 0 47 -4 50 -10 3 -5 11 -10 16 -10 6
0 7 5 4 10 -4 6 6 10 24 10 16 0 32 -4 35 -9 7 -11 -18 -33 -27 -24 -4 3 -13
0 -22 -7 -8 -7 -21 -10 -29 -7 -8 3 -16 1 -18 -5 -2 -6 -10 -4 -20 6 -18 18
-48 22 -48 6 0 -5 -12 -13 -27 -17 l-28 -6 29 -8 c16 -5 34 -5 40 -1 15 10 30
9 37 -1 4 -5 16 -4 28 2 17 10 22 9 27 -4 5 -12 14 -14 38 -9 27 6 29 5 17
-10 -7 -9 -20 -16 -28 -16 -8 0 -12 -4 -9 -9 4 -5 25 -7 48 -4 37 4 40 3 28
-12 -13 -16 -52 -16 -120 0 -21 5 -22 4 -5 -4 11 -5 15 -10 9 -10 -6 -1 -26
-4 -43 -7 -20 -4 -31 -3 -31 5 0 6 9 11 20 11 11 0 20 5 20 10 0 19 -42 10
-47 -10 -3 -11 -10 -20 -15 -20 -6 0 -8 7 -4 15 3 8 1 15 -4 15 -6 0 -10 7
-10 15 0 11 -8 13 -32 10 l-33 -5 30 15 30 16 -37 -5 c-23 -3 -38 -1 -38 6 0
5 -10 18 -22 29 -22 18 -22 18 -3 19 20 1 20 1 1 12 -15 8 -21 8 -24 0 -2 -7
-8 -12 -13 -12 -4 0 -5 8 -2 18 6 14 4 15 -9 4 -11 -9 -18 -10 -23 -2 -3 5
-15 10 -26 10 -24 0 -25 17 -1 23 29 8 42 7 42 -2z"/>
<path d="M1945 4080 c15 -17 15 -19 -5 -25 -12 -4 -27 -2 -33 4 -19 19 -26 12
-22 -19 3 -28 2 -30 -33 -31 -30 0 -33 -2 -17 -9 18 -8 18 -9 -5 -9 -15 -1
-32 5 -39 12 -11 10 -13 9 -8 -5 4 -13 -2 -18 -25 -23 -21 -5 -27 -10 -18 -15
7 -5 19 -6 26 -3 15 6 28 -13 14 -22 -11 -7 30 -45 48 -45 6 0 18 -7 26 -16 9
-8 16 -11 16 -5 0 5 9 13 20 16 14 4 20 15 20 35 0 32 19 43 57 34 23 -6 24
-5 11 15 -10 17 -10 25 0 41 16 26 15 30 -3 30 -11 0 -14 7 -11 24 3 18 -1 25
-16 29 -19 5 -19 5 -3 -13z"/>
<path d="M365 1409 c-22 -4 -56 -8 -76 -8 -28 -1 -41 -7 -53 -26 -20 -30 -36
-33 -31 -5 4 21 11 21 -130 5 -16 -1 -40 -3 -52 -4 -22 -1 -23 -5 -23 -76 0
-41 3 -75 6 -75 4 0 52 7 108 15 55 8 160 21 233 30 160 18 172 22 143 42 -11
8 -37 17 -58 19 -20 2 -53 10 -72 16 -37 12 -43 14 -73 16 -10 1 -15 7 -12 12
8 13 62 13 70 0 4 -6 27 -10 53 -8 28 1 47 -3 50 -10 4 -13 23 -17 21 -4 -3
20 2 24 14 8 17 -23 116 -46 192 -45 l60 2 -45 7 c-25 4 -49 5 -54 2 -5 -2 -7
1 -4 9 2 8 24 17 49 20 44 7 44 7 -10 6 -34 -1 -56 3 -59 11 -2 7 -11 12 -20
11 -11 0 -12 -2 -4 -6 6 -2 12 -11 12 -19 0 -16 -26 -19 -35 -4 -4 7 -13 6
-26 -1 -17 -9 -21 -7 -26 10 -3 12 -12 21 -19 21 -8 0 -14 7 -14 15 0 9 -9 15
-24 15 -13 0 -30 2 -38 4 -7 2 -31 0 -53 -5z"/>
<path d="M490 1260 c0 -5 7 -10 16 -10 8 0 12 -4 9 -10 -7 -11 4 -13 86 -14
54 -1 159 -39 159 -58 0 -18 38 -7 43 13 5 18 2 21 -23 17 -19 -3 -26 0 -23 8
7 18 31 25 51 14 9 -5 43 -14 74 -20 32 -6 60 -15 63 -20 3 -4 21 -4 40 0 20
4 35 4 35 -1 0 -5 15 -9 33 -8 17 0 25 3 17 6 -8 3 -26 10 -40 16 -26 10 -58
15 -125 21 -22 2 -42 5 -45 6 -3 1 -14 3 -24 5 -10 2 -22 8 -25 13 -7 10 -73
9 -112 -2 -16 -5 -29 -3 -33 3 -4 7 1 11 14 11 12 0 18 5 15 10 -3 6 -50 10
-106 10 -59 0 -99 -4 -99 -10z"/>
<path d="M540 1200 c0 -5 7 -10 15 -10 8 0 15 -5 15 -11 0 -6 -9 -8 -22 -3
-18 5 -85 6 -144 1 -5 0 -15 -11 -21 -24 -10 -21 -8 -24 15 -29 15 -3 37 -10
50 -16 16 -9 28 -8 47 2 14 7 28 10 32 7 3 -4 2 -7 -4 -7 -5 0 -10 -13 -11
-30 -1 -32 12 -40 22 -15 3 8 12 15 21 15 21 0 19 -20 -2 -21 -33 -1 40 -18
92 -21 35 -2 51 -7 48 -14 -5 -14 8 -24 44 -30 15 -3 33 -9 39 -15 12 -10 44
-2 44 11 0 5 -25 12 -55 15 -63 8 -65 26 -2 21 23 -2 32 -2 20 1 -13 2 -23 9
-23 14 0 5 -11 7 -24 3 -13 -3 -33 -1 -45 5 -11 6 -38 12 -60 13 -30 1 -42 6
-47 20 -3 10 -14 18 -25 18 -10 0 -19 5 -19 10 0 14 53 13 67 -1 7 -7 22 -9
40 -4 15 5 32 7 38 6 5 -2 7 1 3 5 -4 3 -27 9 -50 11 -64 7 -70 8 -101 21 -19
8 -34 9 -45 2 -12 -7 -13 -9 -3 -10 11 0 11 -3 1 -15 -7 -8 -18 -15 -24 -14
-7 0 -6 2 1 6 9 3 10 10 3 24 -9 15 -6 20 15 25 14 3 44 2 66 -4 23 -6 48 -8
55 -5 8 3 21 0 29 -7 8 -7 21 -10 30 -7 8 4 27 0 42 -8 16 -9 41 -13 58 -9 22
4 37 0 53 -15 13 -11 30 -17 37 -15 7 3 24 0 37 -7 13 -6 20 -8 16 -4 -12 13
35 33 49 22 7 -5 23 -7 35 -4 13 4 41 2 62 -3 50 -11 66 -2 29 17 -19 10 -42
12 -77 8 -34 -5 -47 -4 -42 4 4 6 0 11 -8 11 -9 0 -16 5 -16 10 0 6 -5 10 -11
10 -6 0 -9 -9 -6 -20 3 -11 1 -18 -3 -15 -5 3 -10 0 -12 -7 -3 -9 -20 -7 -64
6 -32 10 -71 20 -86 23 -16 3 -28 9 -28 14 0 5 -14 8 -32 7 -18 -1 -33 3 -36
10 -2 6 -19 12 -37 12 -19 0 -37 5 -40 10 -3 6 -15 10 -26 10 -10 0 -19 -4
-19 -10z"/>
<path d="M57 1186 c-3 -9 -15 -12 -31 -9 -25 5 -26 3 -26 -36 0 -35 3 -41 20
-41 12 0 38 -8 59 -19 43 -20 50 -8 16 29 -18 20 -18 20 12 20 17 0 41 -8 54
-18 30 -23 114 -41 158 -35 19 3 36 1 40 -6 10 -16 131 -27 131 -12 0 6 -6 11
-12 11 -9 0 -8 4 2 11 15 11 1 9 -65 -7 -16 -4 -25 -2 -25 6 0 7 8 9 22 4 20
-6 21 -5 6 10 -9 9 -23 16 -30 16 -8 0 -19 5 -24 10 -7 7 -19 7 -35 1 -23 -9
-23 -10 -2 -10 12 -1 25 -6 29 -13 5 -8 0 -9 -17 -5 -13 4 -30 7 -37 7 -7 0
-11 4 -7 9 3 5 0 13 -7 17 -7 4 -10 4 -6 -1 12 -13 -12 -35 -36 -34 -17 1 -17
2 -3 6 25 7 21 23 -7 23 -13 0 -26 4 -28 10 -1 5 -15 11 -29 12 -19 2 -25 7
-21 17 3 7 -3 20 -13 27 -24 18 -81 18 -88 0z"/>
<path d="M95 1030 c-11 -4 -26 -5 -33 -3 -6 3 -23 2 -37 -1 -21 -5 -25 -12
-25 -45 0 -33 4 -40 28 -49 38 -15 112 -22 112 -11 0 13 28 11 58 -5 34 -18
249 -45 410 -51 116 -5 124 -7 149 -31 14 -14 39 -31 54 -36 16 -5 29 -14 29
-20 0 -6 -7 -8 -14 -5 -10 4 -13 1 -9 -9 3 -9 13 -14 22 -11 44 12 46 12 49
-15 3 -27 -11 -38 -22 -19 -3 5 -18 12 -33 15 -44 11 -114 50 -109 62 5 14
-32 37 -46 28 -7 -4 -2 -14 13 -25 13 -10 19 -19 13 -19 -6 0 -14 3 -18 7 -7
8 -11 9 -37 12 -5 0 -8 5 -5 9 2 4 -3 8 -12 9 -9 1 -28 4 -41 9 -15 4 -22 3
-18 -3 3 -5 24 -16 47 -23 23 -7 46 -22 51 -32 13 -24 -5 -24 -39 1 -15 10
-49 25 -76 35 -58 19 -59 19 -51 7 3 -5 1 -12 -5 -16 -5 -3 -10 -1 -10 5 0 6
-10 8 -24 4 -19 -4 -26 -1 -31 15 -4 12 -12 18 -20 14 -8 -3 -13 -8 -11 -12 2
-3 -15 -6 -37 -6 -31 0 -44 5 -49 18 -4 9 -14 17 -23 17 -8 0 -15 6 -15 14 0
12 -6 12 -36 3 -26 -8 -37 -8 -43 1 -4 6 -26 13 -49 15 -24 3 -45 7 -49 11 -3
3 -28 6 -55 6 l-48 0 0 -184 0 -184 33 -11 c17 -5 48 -13 67 -16 33 -7 34 -6
15 9 -19 15 -19 15 10 16 39 0 66 -16 47 -29 -9 -5 6 -8 40 -9 40 0 47 2 28 8
-23 7 -23 8 9 9 27 1 32 -2 27 -15 -5 -14 -1 -15 26 -9 18 4 55 11 82 15 28 4
52 12 54 19 3 8 9 6 18 -6 11 -14 13 -15 14 -3 0 24 -13 36 -40 36 -14 1 -50
2 -80 4 -30 2 -64 -1 -75 -5 -19 -8 -19 -7 -3 11 17 19 16 20 -33 17 -43 -1
-48 1 -38 13 10 12 6 13 -22 9 -19 -3 -28 -3 -21 1 6 3 10 10 7 15 -3 5 29 6
75 2 54 -4 80 -2 80 5 0 6 -6 12 -12 15 -7 2 -10 8 -6 12 8 8 65 -32 73 -53 4
-10 1 -12 -12 -7 -37 15 -57 15 -24 0 19 -8 36 -13 39 -11 2 3 13 1 24 -5 10
-6 29 -7 41 -3 22 7 22 8 -3 15 -23 7 -23 7 8 8 26 1 32 -3 32 -19 0 -14 7
-20 21 -20 18 0 19 2 9 15 -8 9 -9 15 -2 15 6 0 13 -4 16 -9 5 -8 55 -8 121
-2 6 1 4 5 -4 10 -9 6 -10 10 -2 16 7 4 17 2 24 -4 8 -6 18 -6 27 -1 12 8 10
10 -7 10 -13 0 -23 5 -23 10 0 6 -7 10 -15 10 -8 0 -15 4 -15 9 0 5 -14 14
-30 20 -37 12 -39 -1 -4 -24 18 -11 23 -20 16 -27 -7 -7 -17 -5 -32 5 -12 9
-29 13 -38 10 -10 -4 -13 -2 -8 5 4 7 2 12 -5 12 -8 0 -8 4 1 15 11 14 10 14
-14 6 -29 -12 -86 -4 -86 11 0 8 18 5 56 -9 7 -2 15 0 19 6 4 7 -4 11 -19 11
-42 0 -30 17 17 24 23 3 48 7 55 8 7 1 10 9 6 20 -5 16 -2 18 23 12 34 -8 42
-14 20 -14 -16 0 -16 -1 1 -17 22 -23 100 -29 116 -9 15 19 123 29 133 12 18
-29 44 -33 105 -18 32 8 56 18 51 22 -15 14 -80 30 -96 24 -24 -9 -21 5 6 27
19 16 19 18 5 19 -10 0 -18 5 -18 10 0 6 -5 10 -11 10 -6 0 -17 6 -24 14 -8 7
-36 16 -64 20 -73 10 -66 30 7 22 31 -3 89 -8 127 -11 45 -4 74 -11 81 -20 6
-8 23 -15 37 -15 24 0 43 -23 32 -40 -3 -4 9 -10 26 -12 16 -3 32 -1 35 4 3 4
26 8 52 8 34 0 43 3 32 10 -8 5 -11 10 -7 10 4 0 19 -7 32 -16 15 -10 32 -13
42 -9 15 6 11 10 -17 18 -24 7 -29 12 -17 14 20 5 23 23 5 24 -106 4 -172 10
-176 14 -3 3 4 5 16 5 32 0 27 20 -5 21 -16 1 -34 1 -42 0 -25 -4 -1 16 26 22
16 3 36 9 46 12 10 4 17 3 17 -4 0 -6 -10 -11 -22 -11 -12 0 -19 -3 -15 -6 3
-4 17 -4 31 0 17 4 23 11 20 21 -4 9 0 15 9 15 8 0 18 -7 21 -16 4 -9 13 -14
21 -10 8 3 15 0 15 -7 0 -20 33 -34 60 -26 21 6 22 7 5 9 -12 1 -15 4 -7 7 21
8 44 -17 31 -33 -9 -11 -6 -14 14 -14 14 0 36 4 49 9 13 5 31 12 42 15 17 6
16 8 -10 28 -18 14 -29 18 -31 11 -3 -8 -21 -10 -56 -6 -53 6 -90 23 -49 23
14 0 22 6 22 16 0 13 -3 14 -15 4 -8 -7 -22 -9 -32 -6 -14 6 -12 9 11 21 16 8
35 15 43 15 8 0 12 4 9 8 -2 4 -23 6 -45 4 -34 -3 -41 -8 -41 -26 0 -20 -5
-21 -79 -21 -54 0 -77 3 -74 11 2 6 -3 18 -11 27 -12 12 -13 17 -3 20 6 3 -8
5 -33 5 -25 0 -36 -3 -26 -5 15 -4 16 -7 5 -14 -11 -7 -11 -9 4 -9 9 0 17 -5
17 -10 0 -10 -15 -8 -80 10 -14 4 -24 12 -23 19 3 13 -33 14 -62 1 -17 -7 -15
-9 13 -9 28 -1 66 -15 82 -31 3 -3 14 -5 24 -5 28 0 30 -35 3 -36 -16 -1 -13
-3 11 -10 18 -5 32 -16 32 -25 0 -13 -3 -13 -30 1 -16 8 -43 15 -60 15 -17 0
-29 4 -25 9 3 5 -4 12 -15 16 -20 6 -26 20 -12 28 4 2 2 3 -4 1 -6 -1 -16 2
-21 7 -6 6 -20 6 -38 -1 -23 -9 -26 -8 -21 5 3 10 -1 15 -13 15 -11 0 -21 -6
-23 -12 -5 -15 -131 -12 -136 3 -2 5 -12 9 -22 9 -10 0 -20 5 -22 11 -5 14
-148 29 -204 22 -23 -3 -50 0 -61 6 -11 5 -49 11 -84 13 -35 1 -72 5 -81 10
-10 4 -26 12 -35 17 -10 4 -27 5 -38 1z"/>
<path d="M2421 929 c-62 -11 -69 -15 -53 -31 7 -7 12 -8 12 -2 0 5 14 9 30 10
26 1 30 -3 31 -25 1 -18 3 -20 6 -8 4 16 12 18 71 11 68 -7 87 -13 65 -21 -7
-3 -13 -10 -13 -16 1 -18 37 -57 53 -57 8 0 20 -7 28 -16 11 -13 9 -14 -14 -9
-16 4 -27 3 -27 -3 0 -14 24 -22 49 -15 12 3 21 1 21 -5 0 -6 -8 -13 -17 -15
-13 -3 -11 -5 7 -7 14 -1 29 -2 34 -1 4 1 16 -7 26 -19 9 -11 25 -20 34 -20
10 0 25 -7 33 -16 10 -9 25 -13 38 -10 14 4 31 -2 45 -14 18 -15 31 -19 57
-14 38 7 44 -2 11 -16 -17 -8 -7 -9 37 -5 41 4 55 3 45 -4 -12 -8 -9 -12 13
-20 16 -6 34 -11 40 -10 7 0 1 5 -13 10 -18 7 -21 12 -11 18 9 6 3 12 -21 21
-18 7 -37 12 -41 11 -5 -1 -6 3 -2 9 3 5 3 11 -2 11 -35 6 -52 5 -47 -2 3 -5
-4 -9 -15 -9 -12 0 -21 7 -21 15 0 11 -10 14 -46 10 -32 -3 -44 0 -41 8 2 7
13 12 25 11 12 0 19 3 16 7 -11 18 61 34 104 24 34 -8 18 -22 -20 -18 -28 3
-30 2 -15 -7 10 -7 27 -10 38 -7 10 3 19 2 19 -1 0 -4 13 -14 29 -24 24 -13
33 -14 47 -4 12 9 14 15 6 20 -7 4 -12 3 -12 -2 0 -6 -9 -8 -21 -5 -16 5 -18
8 -7 15 9 7 7 8 -9 5 -16 -4 -23 0 -23 10 0 11 6 13 23 8 40 -13 150 -18 143
-7 -3 5 3 12 14 15 11 3 18 1 15 -4 -3 -4 9 -15 27 -23 66 -31 122 -72 108
-81 -16 -10 -11 -35 8 -35 14 0 15 -2 2 -10 -11 -7 -9 -11 14 -19 62 -24 180
-45 171 -30 -4 6 2 8 17 5 51 -11 71 -11 76 3 3 10 -2 13 -23 9 -15 -3 -42 0
-59 8 -17 7 -27 13 -22 14 5 0 2 7 -5 17 -13 15 -9 16 39 11 34 -3 50 -2 43 5
-5 5 -34 11 -64 12 l-54 3 1 -31 c1 -18 6 -35 11 -39 6 -4 -2 -8 -17 -8 -30 0
-35 9 -16 28 9 9 8 12 -5 12 -23 0 -21 9 9 41 l26 27 -32 16 c-19 9 -44 13
-59 10 -14 -3 -36 -7 -48 -10 -13 -2 -23 1 -23 7 0 6 -7 17 -15 25 -13 14 -15
14 -15 -1 0 -14 -4 -14 -29 4 -16 12 -34 21 -39 21 -6 0 -8 9 -5 20 3 11 9 20
13 20 18 0 40 -13 35 -20 -9 -14 84 -32 103 -20 15 10 14 10 -4 5 -13 -3 -26
1 -34 10 -7 8 -20 15 -29 15 -10 0 -17 9 -18 22 -1 11 -7 24 -14 28 -6 4 -8
13 -5 19 4 6 2 11 -3 11 -14 0 -14 -33 0 -47 8 -8 7 -13 -2 -18 -7 -5 -10 -4
-6 2 4 6 -5 13 -21 16 -64 12 -105 26 -112 38 -4 6 -13 8 -20 4 -9 -6 -9 -9 1
-16 22 -13 3 -21 -31 -14 -21 5 -30 11 -26 21 3 8 -1 14 -10 14 -11 0 -13 -6
-9 -21 6 -19 5 -20 -15 -9 -18 10 -20 14 -9 21 10 6 6 9 -13 9 -18 0 -28 5
-28 15 0 8 6 15 13 15 6 0 -3 8 -21 17 -24 12 -38 13 -55 5 -20 -9 -19 -10 12
-8 43 1 52 -20 11 -26 -16 -3 -30 0 -30 5 0 6 -29 8 -75 4 -63 -5 -75 -3 -75
10 0 12 -7 14 -32 9 -17 -3 -39 -13 -48 -21 -21 -19 -30 -19 -30 0 0 9 -7 18
-15 21 -8 4 -15 15 -15 25 0 15 -7 19 -34 19 -58 0 -98 11 -92 26 3 8 4 13 3
13 -1 -1 -26 -5 -56 -10z"/>
<path d="M1462 868 c2 -6 17 -12 32 -14 52 -5 62 -13 40 -29 -17 -14 -17 -14
10 -5 l29 11 -18 -27 c-14 -22 -15 -28 -4 -35 8 -5 19 -9 24 -9 6 0 3 5 -5 10
-12 8 -11 10 8 10 15 0 26 -8 31 -24 5 -13 20 -26 33 -29 18 -5 20 -9 10 -19
-20 -20 -14 -34 31 -64 23 -16 44 -29 47 -29 3 0 17 -10 30 -23 24 -23 25 -24
6 -38 -11 -8 -14 -14 -7 -14 6 0 23 -11 37 -25 33 -33 103 -79 109 -73 3 3
-24 26 -60 53 -36 26 -65 50 -65 52 0 3 14 3 31 -1 27 -5 30 -4 19 9 -10 12
-10 15 4 15 15 0 21 -17 17 -48 -1 -9 6 -11 22 -7 15 4 28 1 36 -9 16 -19 1
-22 -17 -4 -6 6 -14 9 -17 6 -4 -3 6 -18 20 -32 14 -14 23 -30 20 -35 -3 -6 6
-18 20 -28 15 -10 39 -28 55 -41 26 -20 34 -22 67 -13 55 16 69 14 100 -14 35
-31 9 -35 -30 -5 -14 11 -30 20 -36 20 -19 0 -12 -16 12 -28 12 -6 16 -11 9
-11 -7 -1 -24 6 -38 15 -13 9 -28 14 -31 10 -8 -7 41 -56 55 -56 23 0 159 -91
175 -117 4 -7 15 -13 22 -13 8 0 15 -4 15 -9 0 -5 21 -19 47 -31 26 -12 66
-38 89 -57 23 -18 58 -37 78 -40 20 -3 36 -10 36 -15 0 -5 43 -8 95 -7 52 1
95 5 95 10 0 5 7 9 15 9 8 0 15 -5 15 -10 0 -12 57 -10 84 3 10 5 16 5 13 0
-3 -4 28 -8 68 -8 59 -1 72 2 63 12 -6 7 -19 13 -30 13 -10 0 -17 4 -14 9 3 5
-11 8 -32 8 -20 -1 -50 2 -66 7 -27 7 -27 8 -10 21 12 9 33 12 59 9 28 -4 36
-3 26 4 -8 6 -21 8 -30 5 -13 -4 -13 -2 2 10 9 8 17 18 17 22 0 4 -7 2 -15 -5
-8 -6 -18 -9 -23 -6 -5 3 -18 -1 -28 -9 -27 -20 -40 -18 -40 6 0 14 5 19 18
16 11 -3 18 0 18 9 0 8 -7 14 -15 14 -8 0 -20 9 -27 19 -11 18 -12 18 -31 -5
-10 -13 -25 -24 -33 -24 -22 0 -16 -16 11 -28 14 -6 25 -18 25 -27 0 -16 -16
-21 -22 -6 -1 5 -18 12 -35 16 -25 5 -33 3 -33 -7 0 -8 -12 -15 -30 -16 -16
-1 -30 3 -30 9 0 6 8 8 20 4 14 -5 20 -2 20 9 0 18 -25 22 -35 6 -4 -7 -26 -9
-53 -5 -26 3 -41 2 -34 -1 6 -3 12 -10 12 -15 0 -8 -79 42 -108 69 -7 6 -20
12 -28 12 -8 0 -14 5 -14 10 0 13 23 13 37 -1 8 -8 17 -7 34 5 17 11 26 13 36
5 7 -6 20 -9 28 -5 8 3 15 2 15 -2 0 -5 12 -13 28 -19 l27 -10 -25 -11 c-14
-6 -20 -11 -13 -11 6 -1 20 -4 30 -7 13 -4 14 -3 5 4 -10 7 -5 11 18 16 18 3
37 3 44 0 6 -3 3 1 -7 9 -15 13 -16 17 -4 28 11 11 10 17 -11 36 -32 29 -78
31 -87 3 -6 -20 -45 -29 -45 -10 0 6 9 10 20 10 11 0 19 5 17 11 -5 24 31 34
69 20 33 -12 39 -12 49 3 7 9 21 16 31 16 18 1 18 1 0 15 -19 15 -19 15 2 15
41 0 23 18 -29 29 -57 13 -73 8 -64 -20 5 -15 1 -19 -16 -19 -33 0 -92 23
-106 40 -10 13 -14 13 -25 1 -9 -10 -9 -12 0 -7 6 4 12 2 12 -3 0 -14 -6 -14
-29 -1 -26 14 -101 -17 -101 -42 0 -10 -7 -18 -15 -18 -8 0 -15 7 -15 15 0 17
-18 19 -39 6 -19 -12 -79 9 -84 30 -4 16 0 18 33 15 21 -2 44 -7 49 -11 6 -3
23 -9 38 -11 24 -5 25 -3 12 12 -12 16 -12 17 2 12 9 -4 35 -2 58 4 37 10 40
12 24 24 -10 7 -22 13 -28 14 -5 0 -3 -5 5 -11 11 -8 8 -9 -13 -4 -19 4 -26 2
-22 -5 4 -6 -4 -10 -19 -10 -13 0 -32 -3 -42 -7 -12 -4 -15 -3 -10 6 4 6 4 11
-1 10 -22 -4 -46 2 -37 9 15 13 123 44 133 38 5 -3 11 0 14 8 4 9 15 13 29 10
22 -4 22 -4 -1 6 -14 6 -33 9 -44 8 -11 -2 -22 2 -24 8 -2 6 2 11 9 11 8 0 27
3 43 7 22 5 26 4 15 -4 -12 -8 -9 -10 13 -10 19 0 26 4 21 12 -5 8 -2 9 12 3
21 -8 105 -7 114 2 3 3 -1 8 -8 10 -6 3 -9 10 -5 15 4 7 -1 9 -15 6 -13 -4
-26 0 -34 10 -11 13 -10 15 5 9 9 -3 17 -3 17 2 0 5 -18 11 -41 14 -22 3 -46
12 -52 20 -15 19 -77 29 -70 11 3 -9 -2 -11 -18 -7 -14 4 -20 2 -16 -5 4 -5 4
-12 0 -15 -5 -2 -3 -2 4 -1 7 2 25 -3 40 -11 24 -13 25 -15 8 -21 -11 -5 -20
-3 -23 4 -4 14 -22 16 -22 3 0 -5 9 -13 20 -16 11 -3 20 -11 20 -16 0 -15 -37
-10 -44 6 -3 8 -15 15 -28 15 -20 0 -21 -1 -4 -13 16 -12 9 -13 -50 -12 -167
4 -161 3 -160 28 1 18 -5 23 -34 25 -19 2 -39 8 -44 13 -6 5 -20 9 -32 9 -12
0 -24 7 -28 15 -3 9 0 15 9 15 8 0 15 -5 15 -11 0 -5 5 -7 10 -4 8 5 7 12 -2
23 -11 13 -10 15 12 10 28 -7 62 3 61 17 -1 6 22 11 50 13 30 2 48 -1 45 -6
-3 -6 16 -13 42 -18 91 -15 121 -9 65 13 l-28 11 32 1 c27 1 34 -3 39 -24 6
-25 18 -32 28 -16 5 8 51 18 116 25 39 5 40 5 40 17 0 6 -7 8 -16 5 -9 -3 -21
-3 -27 1 -7 4 -32 9 -56 10 -44 2 -66 12 -44 20 9 3 8 9 -4 21 -12 12 -18 13
-21 4 -2 -6 -12 -12 -23 -12 -10 0 -19 -4 -19 -10 0 -5 5 -10 10 -10 6 0 10
-4 10 -9 0 -10 -81 -8 -98 3 -6 3 -13 2 -17 -4 -10 -16 -25 -12 -19 5 4 8 2
15 -4 15 -6 0 -12 -6 -15 -12 -3 -9 -12 -6 -30 11 -16 14 -30 20 -39 15 -10
-6 -11 -5 -2 7 9 11 8 17 -4 29 -14 13 -15 12 -9 -3 5 -14 4 -15 -13 -4 -11 6
-20 14 -20 17 1 8 75 40 96 41 10 0 13 3 7 6 -7 2 -13 14 -13 26 0 39 -13 50
-44 36 -18 -9 -30 -9 -34 -3 -7 11 -42 27 -42 19 0 -2 7 -11 16 -19 13 -13 13
-16 1 -16 -8 0 -20 7 -27 15 -7 8 -26 15 -42 15 -17 0 -27 4 -23 10 3 6 2 10
-4 10 -5 0 -13 -5 -17 -11 -3 -6 -17 -8 -29 -5 -13 3 -27 2 -30 -4 -8 -13 -52
-13 -60 0 -3 6 2 10 12 10 15 0 16 2 3 10 -8 5 -17 5 -20 0 -8 -13 -45 -16
-43 -3 3 12 -67 11 -167 -1 -19 -2 -37 0 -40 4 -8 14 -92 30 -88 18z"/>
<path d="M975 590 c3 -5 13 -10 21 -10 8 0 14 -4 14 -10 0 -5 -5 -10 -11 -10
-8 0 -8 -4 -1 -12 8 -10 5 -13 -13 -13 -13 0 -21 3 -18 8 2 4 0 7 -6 7 -6 0
-8 6 -5 14 4 10 -5 13 -38 12 -24 -1 -49 -5 -55 -9 -8 -5 -13 -3 -13 5 0 8
-13 13 -35 14 -25 0 -32 -3 -25 -11 5 -7 7 -14 4 -18 -7 -7 33 -20 44 -13 4 2
14 1 22 -5 13 -8 13 -9 1 -9 -11 0 -12 -3 -4 -11 8 -8 17 -8 31 0 11 6 28 8
36 5 14 -5 14 -8 1 -21 -16 -16 -12 -33 8 -33 8 0 7 3 -2 9 -11 7 -9 10 9 16
13 4 25 3 29 -4 6 -8 16 -8 40 0 28 10 35 9 49 -6 16 -17 16 -17 -1 -12 -11 4
-16 3 -12 -3 9 -14 42 -13 47 2 2 6 10 8 16 4 9 -5 8 -11 -3 -22 -8 -9 -20
-12 -26 -8 -10 6 -28 -11 -29 -27 0 -8 63 -19 144 -25 65 -6 85 -12 66 -24
-18 -11 32 -38 84 -44 30 -4 45 -2 41 4 -8 13 21 13 46 0 13 -7 19 -7 19 0 0
5 -7 10 -16 10 -8 0 -13 4 -10 8 3 5 34 4 68 -2 35 -7 72 -10 83 -7 23 5 -101
29 -157 30 -43 1 -52 20 -10 22 16 1 8 4 -21 9 -27 5 -56 15 -65 22 -10 8 -35
20 -57 27 -22 8 -48 22 -58 32 -10 11 -32 19 -50 20 l-32 1 28 10 c31 11 57 2
106 -34 13 -10 31 -18 40 -17 11 0 9 4 -7 12 -16 7 -22 17 -19 29 4 14 -1 18
-23 18 -16 0 -30 5 -32 11 -2 7 -32 12 -76 12 -49 1 -67 4 -57 10 9 5 19 6 22
3 4 -3 12 -1 20 5 11 10 10 14 -4 24 -13 9 -22 10 -30 3 -7 -6 -22 -8 -33 -5
-11 3 -20 1 -20 -3 0 -5 -12 -2 -27 6 -33 16 -47 18 -38 4z"/>
<path d="M2870 531 c0 -5 -10 -12 -22 -14 -23 -4 -23 -4 1 -6 18 -1 22 -5 16
-18 -5 -15 -4 -16 6 -5 17 16 29 15 29 -3 0 -8 11 -17 25 -21 21 -5 23 -9 14
-20 -9 -12 -9 -13 4 -9 8 4 18 2 22 -4 3 -6 34 -11 68 -11 58 0 69 -12 22 -23
-16 -4 -15 -5 5 -6 14 0 31 3 39 8 9 6 29 4 54 -5 51 -18 56 -18 53 4 -2 12
-14 18 -46 20 -23 2 -52 10 -64 17 -11 8 -23 14 -26 14 -3 0 -14 3 -24 7 -19
7 -19 8 0 15 17 7 17 8 -3 8 -24 1 -32 -24 -10 -32 9 -4 9 -6 -1 -6 -8 -1 -16
8 -19 19 -3 11 -10 20 -17 19 -23 -3 -36 1 -36 11 0 5 7 7 15 4 8 -4 15 -1 15
5 0 6 -16 11 -36 11 -23 0 -33 4 -28 11 4 8 0 9 -15 4 -12 -4 -21 -2 -21 4 0
6 -4 11 -10 11 -5 0 -10 -4 -10 -9z"/>
<path d="M484 488 c3 -13 3 -17 0 -10 -8 18 -37 15 -30 -3 5 -13 -7 -15 -85
-14 -63 2 -93 -1 -98 -10 -4 -7 -12 -11 -17 -9 -5 2 -10 -1 -12 -5 -1 -5 30
-11 69 -13 63 -4 71 -3 65 12 -5 14 0 15 46 9 50 -7 98 -29 98 -45 0 -10 64
-20 89 -13 17 4 18 7 6 19 -7 8 -26 14 -42 14 -24 1 -25 2 -10 11 22 13 109 7
114 -8 3 -7 -4 -10 -19 -7 -15 4 -12 0 9 -10 18 -8 54 -18 80 -22 26 -4 57
-13 68 -20 19 -14 135 -20 122 -7 -9 9 49 33 79 33 13 0 24 4 24 10 0 5 -8 7
-17 4 -15 -5 -15 -3 1 10 13 10 15 16 7 16 -11 0 -11 3 -1 15 10 12 9 15 -6
15 -16 0 -17 2 -4 10 13 9 13 10 0 10 -8 0 -22 -5 -30 -10 -12 -8 -13 -13 -2
-30 19 -30 16 -32 -35 -25 -27 3 -70 6 -98 6 -52 0 -105 15 -105 30 0 5 -10 8
-22 8 -13 -1 -36 4 -53 11 -16 7 -61 14 -99 15 -44 1 -71 6 -74 13 -7 22 -23
12 -18 -10z"/>
<path d="M73 404 c-18 -8 -33 -16 -33 -19 0 -2 19 -3 43 -2 23 1 60 -2 82 -7
31 -6 37 -5 25 4 -13 10 -12 11 3 6 10 -3 21 -6 23 -6 3 0 3 -4 -1 -10 -9 -14
49 -40 90 -40 19 0 35 -4 35 -10 0 -14 -83 -13 -98 2 -6 6 -31 13 -54 14 -97
6 -158 17 -151 27 4 7 0 8 -11 4 -10 -4 -21 -7 -24 -7 -4 0 0 -5 8 -10 10 -6
11 -10 3 -10 -22 0 -14 -16 12 -28 15 -7 25 -8 25 -2 0 15 79 12 135 -6 64
-19 255 -10 255 12 0 17 22 18 38 2 9 -9 29 -9 88 1 55 9 79 10 87 2 6 -6 21
-11 34 -11 12 0 37 -8 55 -18 47 -26 91 -37 86 -20 -3 7 -15 19 -29 25 -22 11
-19 18 5 14 5 -1 4 4 -2 12 -7 8 -8 17 -4 22 4 4 -2 5 -13 1 -12 -3 -32 2 -50
14 -33 22 -50 26 -40 10 8 -13 -4 -13 -44 1 -38 13 -55 4 -20 -11 l24 -11 -25
6 c-14 2 -43 5 -65 6 -32 0 -36 2 -20 9 14 6 2 9 -41 9 -34 1 -79 8 -100 17
-31 13 -61 15 -158 10 -65 -3 -124 -2 -130 3 -6 5 -24 3 -43 -5z"/>
<path d="M1100 360 c-25 -5 -59 -6 -76 -3 -18 3 -35 0 -38 -6 -4 -6 0 -11 9
-11 9 0 23 -7 31 -15 9 -8 33 -15 56 -15 40 0 41 0 23 20 -16 18 -16 20 -2 20
10 0 17 -4 17 -10 0 -5 7 -6 17 -3 11 4 14 3 9 -5 -7 -12 10 -17 52 -13 24 2
30 -14 10 -23 -7 -3 -3 -3 9 -1 12 3 24 1 28 -5 3 -6 -3 -10 -15 -10 -16 0
-20 -4 -16 -16 5 -12 2 -14 -17 -7 -12 4 -52 7 -89 5 -43 -2 -68 1 -68 8 0 13
-37 13 -45 1 -3 -6 -29 -8 -58 -5 -45 4 -48 3 -24 -7 29 -11 37 -29 13 -29 -9
0 -12 -7 -9 -20 4 -16 0 -20 -20 -20 -31 0 -45 17 -20 23 12 3 10 5 -7 6 -15
0 -30 5 -35 10 -6 5 -38 19 -72 31 -35 13 -63 27 -63 31 0 5 -18 9 -39 9 -22
0 -42 5 -44 13 -4 8 -6 7 -6 -3 -1 -12 -10 -15 -36 -12 -19 2 -35 0 -35 -4 0
-5 -43 -7 -96 -5 -68 2 -94 0 -90 -8 5 -7 -6 -11 -31 -11 -21 -1 -58 -5 -81
-9 -50 -10 -92 -4 -70 10 10 6 8 9 -7 9 -11 0 -31 3 -45 6 -19 4 -22 3 -10 -5
12 -8 6 -10 -22 -9 -21 1 -38 5 -38 10 0 4 -4 8 -10 8 -17 0 -11 -20 15 -46
14 -14 25 -28 25 -32 0 -19 49 -46 92 -50 26 -2 48 -9 48 -15 0 -5 -12 -7 -27
-4 -16 2 -37 1 -48 -3 -17 -7 -15 -9 12 -9 42 -1 63 -10 63 -27 0 -16 -16 -19
-25 -4 -3 6 -18 10 -33 10 -25 0 -89 39 -67 40 8 1 -83 50 -92 50 -2 0 -3 -9
-3 -20 0 -15 7 -20 26 -20 14 0 23 -4 20 -8 -3 -4 11 -16 30 -27 19 -10 34
-21 34 -25 0 -4 28 -15 63 -25 34 -10 66 -22 72 -27 5 -4 -48 -8 -118 -8 -120
0 -127 -1 -127 -20 0 -20 6 -20 358 -19 196 0 377 4 402 8 l45 8 -42 2 c-64 2
-60 19 5 21 129 4 131 4 119 19 -10 12 -9 14 6 8 9 -3 28 -2 42 3 20 7 25 6
25 -5 0 -10 -6 -12 -17 -8 -15 6 -16 4 -5 -9 10 -12 10 -18 1 -23 -24 -16 19
-25 119 -25 69 0 102 4 102 11 0 11 43 9 115 -7 29 -6 29 -6 10 10 -11 8 -36
16 -55 16 -35 1 -89 29 -59 31 8 1 -4 5 -26 10 -44 9 -102 2 -88 -11 4 -5 22
-10 38 -13 28 -4 27 -4 -6 -6 -24 0 -39 4 -42 13 -3 8 -23 18 -43 22 l-37 7
29 15 c15 8 34 20 41 27 7 8 44 12 98 13 108 0 103 -10 -7 -14 -53 -2 -84 -8
-89 -16 -10 -16 9 -38 19 -22 12 19 77 24 107 8 15 -8 38 -14 51 -14 15 0 24
-6 24 -16 0 -12 -3 -14 -13 -6 -8 7 -18 7 -27 2 -24 -15 14 -23 73 -17 43 5
48 5 27 -5 -25 -11 -24 -11 15 -20 21 -5 45 -6 53 -3 7 2 10 0 7 -5 -11 -18
69 -10 94 9 20 15 36 18 85 13 33 -3 67 -11 74 -19 15 -15 60 -17 80 -4 8 4
34 4 60 -2 33 -7 47 -6 50 2 2 6 19 11 38 11 19 0 34 5 34 10 0 6 -13 10 -29
10 -17 0 -33 5 -37 12 -5 8 -11 6 -20 -7 -10 -14 -21 -16 -51 -10 -21 3 -58 8
-83 10 -25 2 -47 4 -49 4 -3 1 4 7 14 15 18 13 18 14 -4 21 -18 6 -21 9 -10
16 10 6 4 9 -18 9 -18 0 -33 4 -33 10 0 20 -47 21 -90 0 -25 -11 -35 -19 -22
-16 34 6 26 -8 -12 -20 -18 -5 -42 -7 -52 -3 -17 6 -16 7 6 11 l25 5 -27 2
c-15 0 -30 6 -33 11 -4 6 -10 8 -15 5 -5 -3 -11 -1 -14 4 -3 5 21 8 54 6 33
-1 63 1 66 6 3 5 0 9 -6 9 -7 0 -10 6 -7 14 7 17 -11 36 -34 36 -10 0 -20 4
-23 9 -4 5 13 8 36 6 24 -2 52 -4 63 -4 20 -2 20 -2 0 -13 -17 -10 -13 -13 35
-25 30 -8 79 -16 108 -18 30 -3 64 -12 75 -20 13 -9 44 -15 79 -15 31 0 60 -5
63 -10 3 -6 11 -10 16 -10 6 0 3 7 -5 16 -9 8 -16 20 -16 25 0 5 -17 9 -37 9
-36 1 -37 1 -15 13 24 14 20 27 -10 27 -10 0 -18 5 -18 10 0 14 -46 13 -69 -2
-18 -11 -18 -13 -3 -25 14 -11 7 -12 -49 -8 -36 2 -76 9 -90 14 -23 9 -22 10
11 12 46 3 46 3 109 22 30 9 65 17 78 17 16 0 22 4 17 11 -5 9 1 10 21 5 25
-6 49 -1 150 34 28 9 27 10 -10 4 -78 -12 -110 -12 -138 -2 -21 8 -31 8 -36 0
-3 -5 -20 -9 -37 -8 -23 1 -30 -2 -27 -11 3 -7 1 -13 -5 -13 -6 0 -12 5 -14
12 -2 6 -14 13 -26 14 -15 3 -20 0 -16 -11 4 -8 1 -15 -5 -15 -6 0 -11 3 -11
8 0 4 -17 8 -37 10 -20 1 -41 6 -47 11 -6 4 -22 11 -36 13 -14 3 -34 9 -45 13
-11 4 -6 -2 10 -14 21 -14 25 -21 13 -21 -9 0 -20 5 -23 10 -3 6 -23 10 -43
11 -72 1 -153 24 -172 48 -10 14 -22 21 -29 17 -6 -4 -18 0 -27 8 -8 9 -18 15
-22 15 -4 -1 -27 -5 -52 -9z m-517 -144 c19 -14 39 -26 45 -26 7 0 11 -6 10
-12 -2 -7 8 -14 22 -16 20 -2 22 -1 10 7 -13 10 -13 11 0 11 13 0 13 1 0 10
-12 8 -11 10 7 10 16 0 21 -4 17 -15 -4 -9 0 -15 10 -15 9 0 16 5 16 10 0 6
11 5 28 -3 28 -15 92 -30 92 -22 0 15 -25 55 -37 59 -21 8 -33 -2 -26 -21 4
-10 2 -14 -6 -12 -7 3 -12 8 -12 12 1 4 1 14 1 22 0 25 44 17 85 -15 43 -35
46 -35 84 -15 30 15 43 12 35 -10 -3 -7 -14 -11 -25 -8 -21 6 -52 -14 -44 -28
3 -4 33 -6 66 -4 44 3 59 0 56 -8 -2 -7 -20 -11 -41 -10 -36 2 -73 -17 -59
-31 4 -3 -2 -6 -13 -6 -10 0 -29 13 -41 28 -20 25 -27 28 -80 26 -35 -1 -50 1
-38 5 17 7 16 8 -8 15 -16 4 -43 4 -62 0 -43 -8 -72 2 -80 27 -4 10 -13 19
-21 19 -17 0 -18 -12 -2 -28 9 -9 8 -12 -5 -12 -18 0 -41 35 -32 50 3 5 -10
12 -30 16 -19 3 -32 11 -29 16 10 16 71 1 107 -26z"/>
<path d="M3048 311 c9 -5 -16 -8 -61 -7 -56 1 -73 -2 -70 -12 4 -8 26 -11 72
-10 82 3 183 -7 207 -20 11 -6 28 -14 39 -18 19 -6 18 -7 -5 -14 l-25 -8 25
-2 c14 -2 48 -3 77 -4 55 -1 76 -12 53 -26 -12 -8 -12 -10 2 -15 10 -4 21 -4
27 -1 5 3 11 0 14 -6 3 -10 8 -10 18 1 10 9 10 15 3 18 -23 8 -49 32 -42 38 4
4 20 -2 36 -13 16 -12 33 -17 38 -13 5 5 18 11 29 14 18 4 18 5 -5 14 -18 7
-27 7 -32 0 -4 -6 -10 -8 -14 -4 -4 4 -3 12 3 18 14 14 62 0 74 -22 11 -21 39
-26 39 -8 0 8 13 9 40 5 31 -5 38 -3 34 8 -3 8 -15 14 -27 15 -49 1 -63 5 -74
20 -8 11 -12 12 -13 4 0 -19 -30 -16 -37 4 -6 15 -39 53 -46 53 -2 0 -15 -10
-28 -22 -17 -14 -19 -19 -6 -15 9 4 17 2 17 -3 0 -5 8 -11 18 -13 16 -4 16 -5
0 -6 -10 0 -18 -6 -18 -12 0 -6 -9 -8 -21 -4 -12 4 -19 3 -16 -1 3 -5 -19 -9
-48 -9 -29 0 -51 3 -48 8 2 4 -1 7 -6 7 -6 0 -10 3 -10 8 4 26 -2 34 -27 28
-19 -5 -24 -3 -22 8 3 14 0 16 -24 16 -9 0 -8 -3 2 -10 24 -15 6 -20 -44 -14
-26 4 -42 10 -36 14 7 4 -2 10 -20 14 -44 8 -58 8 -42 -3z"/>
<path d="M3651 221 c-11 -7 -10 -10 5 -14 15 -4 14 -5 -6 -6 -22 -1 -23 -3 -7
-12 9 -5 22 -7 27 -4 6 3 10 1 10 -4 0 -6 12 -11 27 -11 14 0 24 -2 21 -5 -3
-3 -45 -7 -94 -9 -82 -3 -91 -1 -118 21 -25 21 -31 22 -38 9 -5 -8 -16 -20
-26 -26 -16 -11 -16 -11 1 -6 19 6 24 -10 5 -17 -7 -2 4 -9 26 -17 24 -8 41
-9 45 -3 3 6 16 13 28 17 18 6 22 4 17 -7 -3 -8 2 -17 10 -20 9 -4 16 -14 16
-22 0 -10 -5 -13 -12 -9 -6 4 -25 8 -42 10 -49 4 -75 10 -82 17 -4 4 -14 7
-23 7 -14 0 -14 -2 -1 -10 13 -8 13 -10 -2 -10 -9 0 -18 3 -20 8 -1 4 -21 4
-43 1 -22 -3 -32 -7 -22 -8 9 0 17 -5 17 -11 0 -5 7 -10 15 -10 8 0 15 5 15
11 0 8 4 8 13 2 21 -16 98 -35 141 -34 23 1 68 3 101 4 58 3 115 -10 96 -22
-6 -4 22 -6 60 -6 46 0 72 4 78 13 6 10 14 10 35 2 15 -5 43 -10 62 -10 19 0
33 -4 30 -9 -3 -4 -25 -7 -48 -5 -24 2 -63 0 -88 -5 -36 -8 -19 -9 82 -9 79 1
125 5 121 11 -3 5 3 6 16 2 16 -5 20 -3 15 8 -3 8 2 21 10 30 20 20 20 27 1
27 -8 0 -15 -7 -15 -15 0 -16 -6 -15 -89 6 -19 4 -38 6 -42 3 -4 -2 -10 0 -13
5 -6 10 -126 11 -126 1 0 -3 -45 -6 -101 -7 l-100 -2 26 25 c19 17 38 24 68
25 35 0 38 2 20 9 -36 15 -27 20 21 14 38 -6 46 -4 55 15 11 19 10 20 -15 11
-17 -7 -31 -7 -42 1 -14 9 -14 10 6 6 12 -3 22 -1 22 4 0 5 9 9 21 9 18 0 19
2 5 15 -11 11 -21 13 -33 7 -22 -11 -105 -3 -97 9 7 12 -27 11 -45 0z"/>
<path d="M4315 67 c-22 -5 -50 -9 -62 -10 -26 -2 -32 -27 -6 -27 9 0 14 -3 11
-6 -3 -3 -33 0 -67 7 -64 14 -82 9 -62 -15 10 -12 47 -14 197 -13 101 0 184 4
184 9 0 4 -4 8 -8 8 -5 0 -22 11 -38 25 -15 13 -31 21 -34 16 -12 -20 -48 -22
-62 -3 -11 15 -20 16 -53 9z"/>
</g>
</svg>
