<?xml version="1.0" standalone="no"?>
<!DOCTYPE svg PUBLIC "-//W3C//DTD SVG 20010904//EN"
 "http://www.w3.org/TR/2001/REC-SVG-20010904/DTD/svg10.dtd">
<svg version="1.0" xmlns="http://www.w3.org/2000/svg"
 width="1182.000000pt" height="664.000000pt" viewBox="0 0 1182.000000 664.000000"
 preserveAspectRatio="xMidYMid meet">
<metadata>
Created by potrace 1.13, written by Peter Selinger 2001-2015
</metadata>
<g transform="translate(0.000000,664.000000) scale(0.100000,-0.100000)"
fill="#000000" stroke="none">
<path d="M0 4945 c0 -1688 0 -1695 20 -1695 13 0 20 7 20 18 0 20 44 64 54 55
11 -11 6 -62 -7 -70 -6 -4 -28 -13 -47 -18 -25 -7 -36 -17 -38 -33 -3 -18 1
-22 23 -22 34 0 55 -21 55 -57 0 -22 -2 -25 -10 -13 -7 11 -10 11 -10 2 0 -7
-4 -11 -9 -8 -5 4 -12 0 -15 -6 -3 -9 -9 -7 -20 6 -15 18 -16 13 -16 -67 0
-84 1 -87 23 -87 12 0 44 -8 70 -17 39 -14 52 -15 67 -5 11 7 29 12 40 12 31
0 24 32 -15 65 -42 36 -46 58 -10 49 14 -3 32 -1 40 6 8 6 19 9 24 6 15 -9 25
14 12 27 -8 8 -20 7 -46 -8 -28 -15 -38 -16 -48 -6 -9 10 -8 11 6 5 13 -5 16
-2 11 9 -7 19 23 67 39 63 7 -1 9 -1 5 1 -5 3 -4 12 0 21 4 9 7 29 6 45 0 15
1 25 4 22 6 -5 42 34 42 45 0 17 62 32 103 26 77 -13 127 -15 127 -5 0 5 7 9
15 9 8 0 15 3 15 6 0 10 -38 55 -46 54 -17 -3 -21 36 -8 58 8 12 12 26 9 31
-7 13 22 23 85 28 55 5 88 21 63 30 -19 7 -16 27 7 48 11 10 20 26 20 35 0 24
30 93 44 102 19 12 30 -10 28 -53 -3 -37 -1 -40 18 -34 14 5 20 2 20 -10 0 -9
6 -15 13 -13 6 1 23 -2 36 -6 15 -5 27 -4 35 4 8 10 6 11 -12 5 -22 -6 -23 -5
-20 58 2 42 7 62 13 57 18 -14 55 8 55 32 0 40 14 52 46 41 16 -5 37 -7 47 -5
18 4 23 27 7 37 -13 8 -13 45 0 45 6 0 10 -7 10 -16 0 -22 32 -74 45 -74 14 0
39 66 30 80 -3 5 -1 19 5 30 8 14 8 26 0 40 -8 16 -8 20 4 20 8 0 22 7 31 16
19 19 23 17 35 -25 5 -20 5 -31 -1 -31 -6 0 -7 -5 -3 -11 4 -8 9 -8 17 0 15
15 27 14 27 -4 0 -10 -10 -15 -30 -15 -17 0 -30 -5 -30 -12 0 -9 -4 -8 -10 2
-6 9 -10 10 -10 3 0 -6 4 -15 10 -18 6 -4 7 -35 3 -80 -5 -66 -4 -75 11 -75 9
0 16 -6 16 -14 0 -13 29 -31 37 -22 9 9 -17 128 -32 142 -17 17 -17 35 0 36 6
0 16 -17 23 -38 13 -39 27 -54 51 -54 9 0 11 8 6 27 -3 15 -7 32 -8 37 -1 5
-10 17 -19 27 -18 19 -16 62 3 101 9 17 62 34 78 24 10 -6 22 -63 24 -112 0
-27 4 -31 30 -32 29 -1 29 0 24 39 -3 21 -1 42 4 45 5 3 2 12 -6 20 -8 9 -15
22 -15 30 0 13 2 13 16 0 8 -9 20 -16 25 -16 12 0 12 37 -1 45 -5 3 -10 18 -9
33 0 15 3 21 6 14 2 -6 10 -9 15 -6 6 4 17 -1 25 -11 7 -11 13 -13 13 -7 0 7
9 12 19 12 11 0 23 5 26 10 7 11 26 -7 52 -47 11 -16 12 -16 12 8 1 15 8 29
16 33 8 3 15 9 14 13 -5 29 2 52 15 47 8 -3 17 0 21 6 4 7 -1 13 -11 16 -20 5
-47 51 -38 65 10 17 22 9 33 -21 12 -35 10 -34 46 -16 l28 15 -37 7 c-25 4
-36 11 -32 20 3 7 0 15 -7 18 -8 3 -3 13 13 27 17 16 20 20 7 16 -10 -4 -16
-3 -12 3 8 12 -36 56 -52 52 -9 -2 -13 10 -13 38 0 22 5 40 10 40 6 0 16 11
22 25 9 20 18 25 37 23 20 -2 27 2 29 18 2 12 12 24 23 27 10 3 17 1 14 -3 -3
-5 -1 -11 5 -15 6 -4 10 10 10 35 0 36 2 41 19 35 11 -3 22 -1 25 4 10 15 -16
51 -36 51 -12 0 -18 8 -18 23 1 20 2 21 14 5 7 -10 17 -18 21 -18 5 0 16 -7
25 -15 16 -14 18 -14 24 0 3 9 2 14 -3 11 -4 -3 -18 5 -30 18 l-23 24 29 6
c15 3 37 5 48 3 14 -1 19 3 17 16 -2 9 2 17 8 17 6 0 8 10 4 24 -4 18 -1 25
18 30 36 9 48 7 48 -9 0 -11 7 -14 23 -10 13 4 42 0 65 -8 23 -8 39 -11 36 -6
-3 5 9 9 25 9 21 0 31 -5 31 -15 0 -8 5 -15 10 -15 6 0 10 7 10 15 0 8 3 16 8
16 22 4 53 8 101 13 30 3 59 12 63 19 6 9 10 9 19 -3 8 -11 12 -12 16 -2 5 14
61 15 115 3 24 -6 40 -5 48 3 8 8 13 7 20 -4 7 -10 10 -11 10 -2 0 6 9 12 21
12 11 0 30 5 42 11 18 9 20 9 10 -2 -7 -7 -13 -16 -13 -19 0 -10 59 1 66 11 3
5 19 9 36 9 24 0 29 -3 24 -16 -5 -14 -4 -15 9 -4 13 11 15 10 10 -1 -12 -31
203 -20 240 13 12 11 28 10 21 -1 -3 -5 13 -5 37 1 71 16 97 17 97 5 0 -8 18
-12 50 -11 42 1 50 -2 50 -17 0 -16 7 -18 50 -16 31 2 58 -2 68 -9 9 -8 25
-14 35 -14 10 0 20 -7 24 -16 3 -9 13 -14 24 -11 11 3 19 1 19 -4 0 -13 34
-11 48 3 10 10 15 10 21 -1 5 -8 18 -12 30 -8 12 3 21 2 21 -3 0 -12 124 -9
132 3 4 7 10 8 20 0 7 -6 25 -13 39 -17 15 -3 51 -24 80 -46 49 -37 82 -47
129 -40 8 1 12 -1 8 -6 -15 -15 15 -34 53 -34 22 0 39 -4 39 -8 0 -5 16 -16
35 -25 19 -9 35 -21 35 -27 0 -5 5 -10 11 -10 6 0 17 -7 25 -15 9 -8 24 -15
35 -15 10 0 19 -4 19 -9 0 -5 27 -17 60 -27 57 -18 78 -34 45 -34 -8 0 -15 -9
-15 -20 0 -10 -7 -23 -16 -28 -20 -11 -34 -133 -24 -207 4 -27 8 -46 9 -41 0
5 7 3 15 -3 11 -10 15 -8 20 6 3 10 3 2 0 -17 -9 -70 -13 -83 -26 -91 -11 -7
-10 -9 1 -9 10 0 12 -11 9 -45 -4 -29 -1 -51 9 -65 8 -11 12 -28 9 -38 -3 -9
-1 -24 4 -32 6 -10 10 -11 10 -2 0 29 18 8 24 -29 8 -49 30 -85 56 -92 13 -3
21 1 25 15 5 15 10 17 21 7 10 -8 14 -8 14 0 0 6 4 11 9 11 13 0 21 -27 15
-45 -6 -14 -8 -13 -20 2 -12 17 -13 17 -14 -4 0 -34 3 -38 25 -35 15 1 16 0 6
-7 -7 -5 -9 -10 -3 -12 5 -2 12 -14 16 -26 7 -20 5 -21 -23 -10 -32 12 -52 4
-34 -14 16 -16 230 -20 246 -5 17 17 66 26 74 13 3 -5 1 -7 -4 -4 -6 4 -16 0
-23 -8 -10 -12 -9 -16 5 -21 9 -4 20 -2 24 4 8 13 80 -5 82 -20 1 -4 2 -14 3
-20 1 -7 -2 -19 -8 -26 -6 -9 -6 -12 4 -10 7 2 14 -2 17 -8 5 -13 -76 -2 -187
26 -67 17 -92 19 -78 5 2 -3 63 -19 134 -36 160 -39 168 -42 121 -47 -21 -2
-84 8 -139 23 -56 14 -103 23 -106 20 -6 -6 1 -8 127 -43 69 -19 97 -31 83
-34 -20 -6 -109 10 -181 31 -19 6 -41 7 -50 2 -9 -5 -33 -11 -55 -15 -21 -4
-36 -10 -33 -13 3 -2 30 0 60 7 49 10 64 8 143 -14 48 -14 89 -28 92 -31 13
-12 -91 -3 -128 11 -34 14 -47 14 -90 4 -27 -7 -52 -16 -55 -20 -3 -5 11 -4
31 2 45 12 92 6 164 -21 47 -17 50 -20 25 -21 -16 0 -51 7 -77 15 -41 12 -54
12 -85 1 l-38 -14 55 1 c62 1 147 -27 117 -38 -9 -4 -29 -4 -45 -1 l-27 7 25
-20 c22 -18 23 -21 7 -26 -9 -4 -15 -11 -12 -16 3 -4 13 -5 22 -2 30 12 3 -17
-30 -31 -18 -8 -25 -15 -17 -15 9 -1 33 8 55 19 41 21 95 25 130 10 17 -7 16
-9 -10 -10 -16 -1 -24 -4 -17 -7 10 -4 10 -8 1 -19 -9 -11 -8 -14 5 -14 9 0
16 -4 16 -10 0 -5 -9 -10 -21 -10 -13 0 -19 -5 -16 -13 3 -8 -4 -13 -22 -12
-21 0 -27 -5 -29 -27 -4 -30 6 -36 26 -16 12 12 70 13 107 1 16 -5 10 -10 -30
-24 l-50 -17 52 -1 c28 -1 64 4 80 9 27 10 27 9 8 -5 -11 -9 -30 -18 -42 -22
-39 -9 -26 -26 15 -19 34 5 35 4 12 -7 -36 -18 -70 -41 -70 -48 0 -3 21 -4 46
-1 40 4 46 1 51 -17 3 -11 9 -18 14 -15 5 3 9 1 9 -4 0 -6 10 -8 23 -5 17 4
19 3 7 -6 -8 -5 -32 -13 -53 -17 -21 -3 -51 -12 -65 -20 l-27 -14 31 0 c17 0
51 7 74 15 52 18 71 19 48 1 -25 -18 -22 -41 5 -53 20 -9 15 -12 -42 -29 -92
-25 -61 -29 47 -4 93 20 165 27 112 10 -16 -5 -19 -8 -8 -9 9 -1 20 -6 24 -13
5 -7 2 -9 -7 -6 -8 3 -20 -1 -27 -8 -11 -12 -9 -14 10 -14 22 0 22 -1 -4 -14
-14 -8 -43 -19 -65 -26 -21 -6 -47 -15 -58 -19 -11 -5 -46 -16 -77 -25 -32 -9
-60 -21 -63 -26 -3 -5 9 -4 27 1 159 49 288 82 294 76 2 -2 -44 -18 -104 -36
-209 -64 -334 -111 -294 -111 7 0 26 6 41 14 28 15 372 116 393 116 28 0 -10
-14 -153 -56 -148 -44 -283 -93 -276 -101 3 -2 17 1 33 7 87 34 473 142 488
137 5 -2 -12 -9 -40 -16 -49 -14 -128 -37 -284 -85 -94 -29 -196 -69 -208 -81
-4 -4 0 -5 8 -2 42 16 247 80 330 102 52 14 119 33 149 41 30 8 56 12 58 10 3
-3 -15 -10 -38 -16 -24 -6 -51 -13 -59 -16 -8 -3 -46 -14 -85 -25 -151 -41
-341 -106 -333 -115 3 -2 18 0 34 7 44 16 382 109 396 108 7 0 -25 -12 -72
-25 -208 -61 -385 -123 -376 -131 2 -3 53 11 113 31 113 36 257 76 270 75 5 0
-53 -20 -127 -45 -144 -47 -243 -85 -238 -90 2 -2 67 17 143 41 77 25 142 45
145 44 11 0 -66 -38 -79 -39 -18 0 -204 -70 -215 -80 -10 -10 192 52 268 82
63 24 70 18 8 -9 -48 -21 -275 -103 -284 -103 -3 0 -8 9 -11 20 -3 11 -13 20
-22 20 -19 0 -19 0 14 -125 10 -38 24 -70 30 -69 31 3 33 5 26 31 -4 16 -8 33
-10 38 -1 6 -7 23 -14 39 -6 16 -10 30 -9 31 7 7 194 65 208 65 8 0 37 11 64
24 46 22 86 24 86 5 0 -12 -35 -29 -59 -29 -12 0 -21 -4 -21 -8 0 -10 -50 -37
-62 -34 -5 1 -8 -2 -8 -8 0 -5 11 -10 25 -10 31 0 33 -16 2 -26 -12 -4 -25
-11 -28 -16 -3 -5 -17 -10 -30 -11 -13 0 -26 -4 -29 -7 -3 -3 -22 -14 -42 -24
-48 -24 -40 -36 23 -33 27 2 46 0 42 -4 -5 -3 -48 -23 -98 -43 -65 -26 -79
-34 -50 -30 22 4 47 10 55 14 8 4 29 10 45 14 24 5 26 4 13 -4 -21 -13 -24
-50 -5 -50 8 0 34 6 59 14 38 11 45 11 45 -1 0 -8 -10 -19 -23 -23 -12 -5 -25
-14 -29 -19 -3 -6 -14 -11 -23 -11 -9 0 -28 -10 -42 -21 l-25 -20 52 5 c45 4
51 2 39 -10 -8 -8 -20 -14 -26 -14 -7 0 -26 -12 -43 -26 l-30 -26 36 7 c41 8
49 -5 20 -33 -17 -18 -20 -19 -53 -21 -13 -1 -17 -6 -14 -16 7 -17 -31 -35
-56 -28 -13 4 -13 4 0 -6 13 -10 13 -12 0 -21 -8 -5 -21 -10 -27 -10 -7 0 -13
-6 -14 -12 0 -7 -5 -2 -10 11 -7 18 -6 27 3 33 10 6 8 8 -5 8 -9 0 -16 6 -15
12 4 16 -5 16 -62 -1 -25 -7 -61 -17 -81 -22 -20 -5 -47 -18 -60 -30 l-24 -22
25 6 c14 3 47 9 74 12 26 4 63 13 82 21 43 18 49 18 30 -1 -8 -8 -69 -30 -135
-48 -66 -18 -123 -36 -127 -40 -20 -20 39 -16 132 8 58 14 108 24 111 22 5 -5
-62 -30 -87 -32 -8 -1 -24 -6 -35 -12 -11 -6 -37 -14 -58 -18 -20 -4 -40 -11
-43 -16 -3 -5 -10 -7 -15 -4 -5 4 -9 1 -9 -6 0 -7 13 -10 35 -7 49 6 39 -15
-13 -26 -42 -9 -57 -31 -24 -38 10 -2 -3 -10 -30 -18 -51 -15 -55 -35 -4 -26
l31 5 -35 -19 c-22 -12 -55 -19 -89 -20 -30 0 -52 -2 -49 -5 9 -10 147 -8 160
2 17 13 69 23 62 12 -3 -5 -12 -9 -20 -9 -8 0 -29 -7 -47 -16 -21 -11 -53 -16
-95 -15 -42 1 -61 -2 -57 -9 3 -5 24 -10 46 -10 21 0 39 -4 39 -10 0 -5 -18
-10 -40 -10 -29 0 -40 -4 -40 -15 0 -12 4 -14 16 -7 9 5 25 7 35 5 10 -3 37 5
61 17 24 12 51 26 60 31 21 10 54 12 45 2 -4 -3 1 -11 10 -18 22 -16 8 -35
-22 -29 -28 5 -42 -11 -17 -21 16 -6 16 -7 -1 -20 -11 -8 -14 -16 -8 -19 6 -4
8 -13 5 -21 -5 -12 -1 -13 26 -3 26 8 34 8 41 -3 14 -22 5 -33 -34 -43 -20 -5
-37 -13 -37 -17 0 -4 -23 -10 -51 -14 -39 -5 -54 -4 -60 6 -6 10 -9 6 -9 -13
0 -15 -4 -30 -10 -33 -6 -3 -10 5 -10 19 0 13 -6 27 -12 29 -8 3 -6 6 5 6 30
2 18 19 -18 25 -40 8 -55 2 -55 -20 0 -11 6 -14 23 -9 17 5 19 4 7 -5 -13 -9
-13 -12 3 -21 10 -6 30 -24 44 -39 18 -20 39 -31 69 -36 52 -7 69 -24 25 -24
-22 0 -31 -5 -31 -16 0 -11 -6 -14 -22 -9 -13 4 -27 11 -32 16 -6 5 -18 9 -28
9 -13 0 -18 -8 -19 -32 l-1 -33 -8 30 c-10 38 -12 9 -3 -36 5 -24 8 -28 12
-16 5 14 9 11 18 -14 10 -25 10 -30 -2 -25 -8 3 -12 0 -10 -7 7 -19 -22 -50
-40 -43 -19 7 -11 26 11 26 8 0 14 5 14 11 0 16 -23 35 -40 33 -38 -3 -42 -5
-37 -18 3 -8 1 -17 -6 -19 -7 -3 -1 -9 12 -14 40 -16 9 -22 -34 -7 -22 7 -46
14 -53 14 -27 0 -120 53 -131 74 -6 11 -16 29 -23 38 -10 14 -9 21 7 40 l20
23 -23 -19 c-12 -11 -22 -25 -22 -33 0 -7 -9 -13 -20 -13 -11 0 -32 -14 -47
-31 -28 -30 -40 -32 -88 -14 -18 7 -18 6 3 -14 12 -12 20 -26 17 -32 -4 -5 -1
-9 4 -9 6 0 11 5 11 10 0 6 5 10 11 10 20 0 3 -24 -21 -30 -26 -6 -48 -54 -49
-109 -1 -19 -4 -32 -7 -28 -3 3 -19 1 -36 -5 -25 -9 -28 -12 -14 -20 14 -8 14
-11 1 -32 -8 -12 -12 -26 -8 -29 3 -4 -3 -7 -14 -7 -12 0 -24 -8 -28 -18 -6
-16 -7 -16 -16 0 -5 10 -17 14 -29 11 -11 -3 -18 -9 -15 -13 3 -4 -4 -10 -15
-13 -23 -6 -27 -27 -5 -27 8 0 15 -4 15 -10 0 -5 -15 -10 -32 -10 -31 -1 -32
-1 -14 -15 11 -8 14 -15 8 -15 -7 0 -12 -7 -12 -16 0 -12 -7 -15 -27 -10 l-28
5 26 -12 c20 -9 24 -16 19 -32 -4 -11 -5 -24 -3 -28 3 -4 0 -14 -6 -21 -7 -8
-11 -18 -10 -22 1 -5 -1 -17 -6 -27 -4 -10 -5 -40 -3 -68 l5 -50 -53 5 c-32 3
-54 1 -54 -4 0 -6 14 -10 30 -10 17 0 30 -5 30 -11 0 -6 6 -9 13 -6 45 19 47
19 47 2 0 -10 -5 -13 -12 -9 -7 4 -8 3 -4 -5 4 -6 11 -9 16 -6 11 7 34 -34 25
-43 -3 -4 -10 0 -15 8 -8 13 -10 12 -10 -3 0 -16 -2 -16 -30 -2 -17 9 -30 11
-30 5 0 -5 6 -10 14 -10 7 0 19 -6 25 -14 10 -12 16 -12 41 2 22 13 33 14 52
5 12 -6 41 -15 63 -19 44 -7 41 -10 -28 -19 -26 -3 -45 -10 -42 -15 6 -10 -23
-22 -36 -14 -5 3 -9 0 -9 -6 0 -6 -7 -10 -16 -8 -27 5 -28 -21 -1 -31 14 -6
28 -15 32 -20 3 -6 12 -11 18 -11 7 0 3 7 -7 15 -11 8 -14 15 -7 15 7 0 9 4 6
10 -9 14 3 13 19 -2 7 -7 10 -23 8 -36 -4 -19 -9 -22 -28 -18 -12 3 -25 2 -29
-4 -3 -5 -12 -7 -19 -4 -8 3 -17 1 -21 -5 -11 -18 57 -13 120 9 32 11 71 20
87 20 15 0 28 5 28 10 0 6 6 10 13 10 6 0 32 14 56 30 24 17 52 30 63 30 10 0
18 4 18 8 0 5 12 15 28 23 34 17 52 34 52 48 0 6 7 11 16 11 8 0 12 5 9 10 -3
6 1 10 9 10 9 0 16 6 16 13 0 6 13 26 30 44 25 27 36 31 70 29 47 -4 50 1 13
15 -20 7 -28 6 -35 -3 -5 -9 -8 -6 -8 10 0 18 -6 22 -29 22 -17 0 -33 -5 -37
-12 -4 -7 -3 -8 4 -4 7 4 20 2 29 -3 10 -6 12 -11 6 -11 -7 0 -13 -7 -13 -15
0 -8 -5 -15 -11 -15 -5 0 -7 5 -4 10 3 6 0 10 -9 10 -8 0 -16 -6 -18 -12 -3
-8 -10 -4 -17 10 -17 32 -7 52 25 52 18 0 25 4 21 14 -9 23 43 27 66 5 12 -10
17 -19 11 -19 -10 0 17 -20 28 -20 11 0 -4 33 -25 55 -10 11 -24 29 -29 40
-10 18 -10 19 7 5 16 -13 18 -13 13 0 -5 17 -32 25 -55 16 -13 -5 -14 -9 -5
-18 23 -23 13 -38 -23 -38 -23 0 -35 4 -34 12 2 7 -1 28 -5 47 -6 25 -5 37 5
45 24 19 43 85 29 101 -16 19 -11 19 50 -5 27 -11 50 -16 50 -12 0 4 9 -4 19
-17 19 -25 47 -21 37 5 -4 11 1 13 22 8 23 -4 24 -4 9 6 -10 7 -25 9 -33 6
-21 -8 -44 4 -37 20 3 8 9 14 15 14 5 0 6 -5 2 -12 -5 -7 -3 -8 5 -4 7 5 10
13 8 20 -3 6 1 20 9 31 8 10 14 30 14 43 0 30 53 84 74 76 12 -5 15 -2 9 12
-5 14 -3 16 11 11 10 -4 15 -3 11 4 -4 5 -2 16 5 24 7 9 8 15 0 20 -15 9 -12
25 6 25 8 0 13 -4 9 -9 -5 -10 23 -92 35 -101 11 -8 86 -124 93 -142 4 -11 -1
-18 -19 -22 -13 -4 -24 -12 -24 -18 0 -9 3 -9 12 0 22 22 55 14 68 -17 6 -16
18 -32 26 -35 21 -8 17 -26 -5 -26 -11 0 -21 -5 -23 -11 -3 -9 -9 -9 -25 0
-12 6 -32 11 -45 10 -23 -1 -23 -1 2 -9 l25 -7 -29 -4 c-28 -4 -28 -5 -11 -19
11 -9 16 -10 11 -2 -5 9 5 12 38 12 29 0 46 4 46 12 0 9 3 9 12 0 16 -16 31
-15 22 1 -5 8 -2 8 9 -2 26 -21 20 -32 -10 -20 -21 8 -30 7 -38 -4 -7 -10 -22
-13 -40 -11 -28 4 -28 4 -7 -6 13 -5 35 -7 48 -4 32 8 30 -1 -8 -45 -18 -20
-29 -28 -25 -18 5 14 1 17 -21 17 -16 0 -32 -4 -37 -8 -6 -5 -36 -17 -67 -26
-31 -10 -62 -24 -69 -32 -10 -12 -9 -13 5 -8 9 3 16 1 16 -5 0 -6 -12 -16 -26
-21 -14 -6 -22 -14 -19 -20 3 -5 1 -10 -5 -10 -6 0 -8 -5 -5 -10 3 -6 -1 -13
-10 -16 -9 -4 -14 -13 -11 -20 3 -8 0 -11 -10 -7 -7 3 -14 0 -14 -6 0 -6 5
-11 10 -11 21 0 -16 -40 -42 -45 -15 -4 -28 -13 -28 -21 0 -10 9 -9 38 7 20
12 40 26 44 33 8 11 9 8 12 -16 1 -9 18 -12 61 -9 51 3 58 1 47 -11 -6 -8 -9
-18 -5 -21 3 -4 -4 -7 -16 -7 -17 0 -21 -4 -17 -15 7 -20 2 -19 -50 11 -25 15
-44 21 -44 14 0 -7 -8 -9 -20 -5 -24 8 -28 -16 -5 -35 16 -13 20 -31 8 -29 -5
1 -18 -2 -31 -6 -16 -5 -21 -13 -17 -25 3 -10 1 -21 -5 -25 -5 -3 -10 1 -10 9
0 9 -4 16 -10 16 -5 0 -10 -8 -10 -17 0 -9 -3 -13 -7 -9 -5 4 -8 16 -8 27 0
18 -14 28 -16 12 -1 -5 -20 -13 -43 -18 -32 -8 -42 -7 -46 3 -4 9 -12 6 -28
-11 l-22 -23 48 2 c26 2 54 5 63 9 10 3 20 2 24 -4 3 -6 17 -11 31 -11 13 0
24 -4 24 -10 0 -6 305 -10 885 -10 559 0 885 4 885 10 0 5 -7 29 -15 53 -13
40 -13 49 0 81 9 22 22 36 33 36 13 0 14 -2 4 -9 -14 -8 -9 -30 31 -143 l9
-28 300 0 c256 0 299 2 304 15 4 8 14 15 23 15 14 0 14 -2 1 -11 -11 -7 -6 -9
20 -7 19 1 41 -1 48 -6 7 -4 22 -4 35 0 28 9 67 11 72 4 2 -3 76 -7 164 -9
128 -2 161 0 161 11 0 9 3 9 8 2 4 -6 44 -11 97 -12 76 0 85 1 55 10 -47 13
-61 28 -26 28 18 0 25 -4 20 -12 -5 -8 3 -10 28 -5 19 3 41 1 49 -5 10 -7 7
-7 -10 -3 -16 5 -21 4 -17 -4 4 -6 25 -11 47 -11 24 0 38 4 34 10 -3 6 -1 10
4 10 6 0 11 -5 11 -10 0 -7 106 -10 310 -9 190 1 310 5 310 11 0 5 -5 6 -11 3
-6 -4 -17 1 -24 11 -14 18 -14 18 -15 0 0 -15 -5 -17 -27 -10 -16 4 -44 7 -63
6 -23 -1 -30 1 -21 7 11 7 11 9 0 13 -8 3 -11 9 -7 13 4 4 26 -2 50 -14 l43
-21 3 21 c2 13 9 19 17 15 9 -3 12 0 9 9 -3 8 -13 11 -22 8 -9 -3 -3 6 13 20
29 26 65 36 65 18 0 -5 -11 -12 -25 -15 -14 -4 -25 -11 -25 -16 0 -11 12 -13
50 -10 20 1 23 -1 13 -11 -23 -23 -15 -39 20 -40 l32 -1 -30 -8 c-21 -5 -7 -7
45 -7 41 0 78 5 81 10 4 5 13 6 20 1 25 -15 53 -15 61 1 11 18 39 20 56 3 9
-9 12 -8 12 5 0 9 -8 17 -17 17 -15 0 -16 2 -3 10 18 11 40 -5 40 -31 0 -11 5
-19 10 -19 6 0 9 5 8 11 -2 6 3 14 9 16 7 3 13 -2 13 -11 0 -9 5 -16 11 -16
21 0 3 34 -21 41 -24 7 -24 7 -2 8 24 1 30 16 10 24 -8 3 -7 6 4 6 23 1 34
-19 17 -30 -10 -6 -4 -9 19 -9 17 0 32 -4 32 -10 0 -18 76 -11 103 10 28 22
37 25 37 10 0 -6 -3 -9 -7 -8 -9 3 -13 -5 -13 -27 0 -13 15 -15 90 -13 50 2
90 7 90 12 0 5 6 4 13 -2 7 -6 75 -11 165 -11 l152 -1 0 24 c0 13 -6 27 -12
30 -7 3 2 4 20 1 40 -4 55 -15 23 -15 -29 0 -17 -20 12 -21 21 0 21 -1 2 -10
-13 -6 13 -8 80 -5 61 2 101 8 103 15 2 6 8 11 13 11 4 0 6 -6 3 -13 -3 -10 6
-14 31 -15 21 -1 33 3 30 8 -3 6 -2 10 4 10 5 0 13 -5 16 -10 3 -6 27 -10 53
-10 34 0 43 3 32 10 -12 8 -11 10 7 10 12 0 25 -4 28 -10 9 -14 884 -14 922 1
19 7 29 7 31 0 3 -8 220 -11 703 -11 l699 0 0 129 c0 115 -2 130 -17 134 -17
4 -17 5 0 6 14 1 17 12 17 75 0 69 -2 75 -22 79 l-23 4 23 2 22 1 0 1185 0
1184 -27 15 c-34 17 -73 53 -73 66 0 21 40 9 69 -21 l31 -31 0 1906 0 1906
-5910 0 -5910 0 0 -1695z m1550 -141 c0 -3 -11 -9 -25 -14 -14 -5 -25 -16 -25
-25 0 -17 16 -20 25 -5 3 6 12 10 18 9 9 0 9 -2 0 -6 -26 -10 -12 -23 26 -23
22 0 43 -4 46 -10 3 -5 1 -10 -4 -10 -6 0 -11 -9 -11 -20 0 -11 -4 -20 -10
-20 -5 0 -10 -5 -10 -10 0 -17 -38 -53 -49 -46 -5 4 -18 -2 -28 -13 -12 -12
-39 -21 -78 -26 -33 -4 -63 -12 -67 -18 -10 -16 -22 -1 -15 18 4 8 16 15 27
15 23 0 24 4 9 32 -8 14 -8 23 0 31 6 6 11 22 11 37 0 17 3 21 9 12 13 -20 46
-10 49 15 2 14 8 20 17 17 14 -6 15 12 1 34 -4 7 -6 14 -5 15 2 1 13 7 23 13
18 9 66 8 66 -2z m5163 -3875 l32 -1 -30 -8 -30 -8 27 -1 c15 0 38 -5 52 -11
15 -5 26 -6 26 0 0 5 -10 11 -22 13 -13 2 -3 5 22 5 46 1 172 -34 135 -38 -11
-1 3 -8 30 -16 28 -8 57 -18 65 -21 8 -3 30 -5 48 -4 17 2 32 -2 32 -8 0 -6
12 -8 30 -4 20 3 30 1 30 -6 0 -7 5 -9 10 -6 6 3 10 1 10 -5 0 -7 7 -10 15 -6
8 3 15 1 15 -4 0 -5 12 -7 28 -4 15 3 42 -2 62 -11 l35 -16 -60 7 c-33 3 -73
8 -90 10 -16 2 -61 6 -100 8 -57 5 -64 4 -37 -5 17 -5 32 -14 32 -19 0 -11
-42 -9 -51 3 -3 5 -21 11 -40 14 -44 6 -50 13 -13 14 25 0 26 2 9 8 -11 5 -40
7 -64 4 -36 -3 -42 -1 -38 12 8 19 -2 19 -27 0 -17 -13 -17 -14 10 -22 16 -4
37 -6 48 -4 10 1 22 -1 25 -6 17 -24 180 -55 165 -32 -3 5 5 9 18 9 13 0 18
-3 12 -8 -8 -5 -4 -13 11 -25 15 -10 26 -13 30 -7 10 15 43 12 53 -6 5 -8 27
-18 50 -21 23 -3 42 -10 42 -16 0 -5 6 -4 14 2 12 10 19 8 35 -8 11 -11 21
-15 23 -10 2 6 15 4 32 -5 16 -8 44 -13 65 -10 l36 4 -35 -9 c-19 -5 -48 -7
-65 -5 -22 4 -17 0 15 -12 30 -11 45 -13 48 -5 7 20 22 11 18 -11 -1 -13 -6
-22 -9 -20 -51 22 -150 51 -158 46 -5 -3 -9 -2 -9 3 0 4 -10 8 -22 9 -39 2
-88 14 -131 33 -61 26 -129 41 -124 27 2 -6 27 -15 55 -20 29 -5 52 -13 52
-18 0 -5 -11 -6 -25 -2 -19 5 -25 2 -25 -10 0 -19 -26 -20 -85 -5 -22 5 -73
11 -112 13 -40 1 -76 6 -80 10 -5 5 19 6 52 3 45 -5 55 -3 41 5 -10 5 -43 8
-73 6 -34 -3 -49 -1 -39 4 8 5 32 9 51 10 28 1 33 4 20 10 -8 5 -26 8 -38 7
-12 -1 -29 1 -37 4 -28 10 -80 14 -80 5 0 -5 -9 -6 -20 -3 -11 4 -20 2 -20 -4
0 -6 -9 -11 -19 -11 -11 0 -22 -6 -25 -12 -3 -7 -3 0 -1 17 3 16 9 31 15 33 5
2 7 8 4 13 -3 6 -17 -2 -30 -16 l-25 -27 -20 26 c-11 14 -17 31 -13 37 4 7 3
9 -3 6 -5 -3 -20 7 -32 24 -18 24 -20 33 -10 45 9 10 15 11 25 3 10 -8 19 -6
36 6 l23 17 -24 -7 c-18 -5 -22 -4 -16 6 6 9 3 10 -11 5 -18 -7 -18 -6 1 13
17 16 27 18 63 12 37 -7 56 -1 35 12 -5 2 -2 2 5 0 8 -1 28 -4 45 -4z m1019
-260 c60 -8 88 -16 88 -25 0 -7 8 -11 20 -9 13 2 20 -2 20 -11 0 -8 8 -14 18
-13 10 0 12 3 5 6 -24 9 -13 19 23 20 21 1 37 -4 41 -12 2 -8 18 -17 34 -20
16 -4 29 -11 29 -16 0 -5 14 -9 30 -9 17 0 30 -5 30 -10 0 -10 -32 -6 -78 11
-31 12 -72 11 -72 0 0 -5 8 -12 18 -15 30 -9 146 -28 179 -30 17 0 29 -5 26
-9 -2 -4 22 -8 54 -8 137 -1 197 -4 181 -7 -21 -4 -22 -7 -7 -33 8 -16 6 -23
-13 -39 -25 -21 -38 -25 -38 -11 0 5 10 11 22 15 22 5 22 6 3 20 -12 9 -15 15
-7 16 7 0 10 5 7 10 -3 6 -21 10 -38 9 -27 0 -29 -2 -12 -9 17 -7 17 -9 3 -9
-21 -1 -23 -12 -5 -30 10 -10 9 -11 -5 -6 -10 4 -20 15 -23 25 -5 16 -32 26
-100 35 -11 2 -36 7 -55 10 -19 4 -47 8 -62 9 -16 0 -28 4 -28 8 0 5 -18 8
-40 8 -22 0 -40 4 -40 10 0 5 -17 12 -37 16 -33 6 -35 8 -15 15 41 15 22 24
-52 24 -44 0 -74 4 -73 10 1 6 -9 10 -23 11 -62 3 -71 5 -66 13 7 11 -12 27
-39 34 -37 9 8 7 97 -4z m-927 -24 c35 -22 79 -27 100 -11 23 18 59 21 50 5
-4 -6 -14 -8 -22 -5 -8 3 -12 2 -9 -3 12 -19 -20 -31 -55 -21 -18 6 -43 10
-54 9 -17 0 -16 -2 5 -11 14 -5 36 -12 50 -14 14 -3 45 -10 69 -15 24 -5 46
-8 48 -5 3 3 -11 8 -31 11 -20 4 -33 11 -30 16 6 10 54 1 69 -12 5 -5 20 -9
35 -9 14 0 47 -7 74 -15 27 -8 60 -12 73 -9 23 6 25 5 18 -17 -7 -21 -6 -22 9
-10 13 11 20 11 40 -2 18 -12 26 -13 35 -4 9 9 11 8 6 -4 -4 -12 2 -15 30 -16
20 -1 41 -6 49 -12 7 -6 16 -8 20 -4 4 4 11 1 16 -7 6 -9 10 -10 10 -3 0 6 -7
19 -16 27 -8 9 -11 16 -6 16 5 0 17 -9 27 -20 10 -11 31 -20 47 -20 16 0 27
-3 25 -7 -3 -5 5 -9 16 -9 36 -3 101 -14 105 -19 3 -2 14 0 25 6 12 7 17 7 13
1 -8 -13 17 -22 60 -22 35 0 46 -13 19 -24 -8 -3 -15 -1 -15 4 0 6 -7 10 -15
10 -18 0 -20 -17 -2 -22 6 -3 -2 -5 -20 -5 -18 0 -30 4 -27 9 3 4 -2 8 -11 8
-9 0 -29 7 -46 15 -16 9 -53 18 -82 20 -47 4 -79 9 -142 22 -11 2 -30 5 -42 6
-13 1 -23 4 -23 7 0 3 -19 5 -42 5 -40 0 -70 24 -31 26 13 0 14 2 4 6 -8 3
-20 -2 -28 -13 -7 -10 -13 -12 -13 -6 0 7 -5 12 -11 12 -5 0 -7 -5 -3 -11 4
-7 0 -9 -13 -5 -10 3 -38 7 -61 8 -23 1 -40 3 -38 6 3 2 -5 15 -17 27 -17 18
-35 24 -77 26 -30 2 -60 7 -67 12 -7 5 -17 6 -23 2 -5 -3 -10 -2 -10 3 0 5
-13 8 -30 7 -26 -2 -41 11 -44 38 -2 14 -27 24 -50 20 -13 -3 -28 2 -36 12
-13 16 -11 17 30 10 25 -4 54 -13 65 -20z m1947 -68 c16 -15 78 -22 78 -9 0 6
-6 13 -12 16 -7 4 3 3 22 0 19 -4 59 -6 88 -5 28 1 52 -2 52 -7 0 -6 -16 -9
-35 -7 -20 2 -33 -1 -30 -6 4 -5 15 -9 26 -9 10 0 19 -5 19 -11 0 -6 -8 -8
-17 -5 -10 3 -66 8 -125 11 -98 6 -108 5 -108 -11 0 -14 7 -16 40 -11 22 3 43
1 46 -4 3 -5 -9 -10 -25 -10 -17 -1 -37 -2 -43 -3 -7 -1 -17 0 -23 3 -5 3 -40
6 -76 7 -36 1 -87 9 -114 18 -28 10 -60 14 -77 11 -16 -4 -28 -2 -28 4 0 6
-11 7 -30 1 -16 -5 -30 -5 -30 0 0 14 55 16 126 4 89 -16 97 -16 88 -3 -3 6 4
5 17 -3 20 -13 58 -15 114 -9 15 2 -25 23 -60 32 -19 5 -9 6 28 2 39 -3 57 -2
57 6 0 15 15 14 32 -2z m-38 -92 c60 -18 137 -19 155 -2 10 8 12 9 7 0 -7 -13
24 -21 109 -27 131 -10 175 -23 145 -41 -5 -3 -10 -2 -10 3 0 5 -16 9 -35 10
-48 2 -202 21 -219 28 -8 3 -15 -3 -18 -14 -4 -15 0 -19 18 -19 14 0 27 3 30
8 9 15 24 10 18 -6 -5 -11 1 -15 20 -15 14 0 26 5 26 10 0 7 6 7 19 0 11 -5
26 -7 34 -4 8 3 18 1 22 -5 3 -6 -1 -11 -9 -11 -9 0 -16 -4 -16 -9 0 -6 -15
-5 -37 1 -20 5 -54 8 -74 5 -29 -4 -36 -2 -32 8 3 10 -2 12 -17 8 -12 -3 -32
0 -44 7 -18 9 -29 9 -44 1 -11 -6 -27 -11 -34 -11 -7 1 -3 6 10 14 27 15 18
26 -35 44 -26 9 -36 8 -47 -3 -10 -11 -22 -12 -45 -5 -18 5 -31 5 -31 0 0 -13
74 -32 78 -20 2 6 20 10 40 10 34 0 35 -1 19 -17 -17 -17 -92 -30 -82 -14 5 9
-42 21 -81 21 -22 0 -23 1 -8 19 12 14 25 17 56 13 26 -2 38 -1 34 6 -5 9 6
19 24 21 3 0 27 -6 54 -14z m-1970 -79 c-9 -24 16 -42 50 -38 28 5 30 3 17
-12 -8 -9 -21 -14 -30 -11 -10 3 -20 -5 -28 -22 -18 -37 -16 -43 9 -43 19 0
20 -2 8 -14 -8 -8 -28 -16 -45 -18 -16 -3 -24 -3 -17 -1 17 6 -4 33 -24 33 -8
0 -14 4 -14 9 0 22 -36 15 -52 -9 -14 -20 -18 -21 -18 -7 0 10 12 29 27 43 15
14 21 24 13 22 -9 -2 -16 6 -18 20 -2 12 1 22 7 22 6 0 11 -7 11 -16 0 -14 1
-14 16 0 19 19 31 20 37 4 5 -15 18 -6 21 14 2 19 16 38 26 38 5 0 7 -7 4 -14z
m882 -167 c2 -5 12 -5 22 -2 9 3 14 3 10 -2 -4 -4 -3 -14 2 -20 15 -18 -32
-33 -93 -30 -45 2 -59 -6 -37 -20 8 -5 7 -11 -1 -21 -18 -22 1 -34 44 -27 23
3 37 11 37 20 0 9 -6 13 -15 10 -8 -4 -17 -2 -20 4 -7 11 5 16 58 24 24 3 36
1 32 -5 -3 -5 -14 -10 -23 -10 -11 0 -18 -8 -18 -19 0 -11 5 -17 13 -14 7 3
13 0 13 -6 0 -6 -9 -11 -20 -11 -11 0 -23 -7 -26 -15 -5 -12 -9 -13 -20 -4 -8
7 -17 9 -21 5 -3 -3 0 -6 8 -7 20 -1 -31 -17 -60 -18 -15 -1 -21 3 -18 12 6
16 -40 40 -50 25 -3 -7 -1 -8 5 -4 7 4 12 2 12 -3 0 -6 -4 -11 -9 -11 -14 0
-41 30 -40 43 0 8 2 8 6 -1 2 -6 10 -9 16 -5 6 4 25 8 41 10 40 4 53 18 37 37
-11 13 -9 17 14 28 24 11 25 13 8 19 -12 5 -6 8 22 9 35 2 37 3 15 10 -22 7
-20 8 13 7 21 0 40 -4 43 -8z m-622 -19 c11 -11 -12 -42 -25 -34 -5 3 -14 2
-21 -2 -8 -5 -6 -10 7 -14 15 -5 11 -8 -18 -14 -21 -4 -35 -11 -32 -17 4 -5 2
-9 -4 -9 -6 0 -8 -7 -4 -16 5 -13 7 -13 14 -2 7 10 9 10 9 1 0 -7 7 -13 16
-13 14 0 14 3 4 15 -18 22 2 44 24 26 23 -19 8 -49 -27 -53 -17 -2 -32 -8 -34
-15 -3 -9 4 -10 26 -3 27 7 31 6 31 -11 0 -10 -7 -19 -15 -19 -8 0 -15 4 -15
9 0 6 -8 9 -17 9 -10 0 -31 3 -47 7 -18 5 -27 4 -23 -2 6 -10 -18 -35 -45 -46
-10 -3 -19 0 -22 9 -10 27 -7 34 19 34 14 0 25 5 25 11 0 8 -12 10 -35 6 -27
-4 -35 -2 -35 9 0 10 7 13 23 10 66 -14 96 -16 102 -6 3 5 -2 11 -12 11 -17 1
-17 2 0 6 9 2 17 9 17 15 0 6 -11 8 -27 4 -15 -4 -29 -3 -33 3 -4 7 -17 8 -37
2 -21 -6 -35 -5 -42 2 -14 14 -14 37 -1 37 6 0 10 -4 10 -10 0 -5 12 -9 28 -9
15 0 45 -2 68 -4 36 -3 40 -1 36 15 -3 14 -8 16 -17 8 -8 -7 -15 -7 -19 -2 -3
6 1 13 10 16 24 9 46 7 39 -4 -10 -17 22 -11 36 6 11 14 11 18 -4 29 -14 10
-15 14 -5 18 16 7 60 -1 72 -13z m922 -30 c21 -8 29 -8 36 2 6 11 8 11 8 0 0
-10 10 -12 36 -7 20 3 40 8 45 11 5 3 9 -1 9 -9 0 -18 95 -28 112 -12 8 7 9 6
4 -2 -4 -7 -4 -13 1 -14 4 0 22 -2 38 -4 38 -4 67 4 60 16 -4 5 -1 9 4 9 6 0
11 -7 11 -15 0 -8 6 -15 13 -15 8 0 7 -4 -3 -10 -12 -7 -8 -11 17 -16 18 -4
30 -10 28 -14 -6 -10 -75 10 -75 21 0 4 -25 5 -55 3 -35 -3 -55 -1 -55 6 0 5
-7 10 -15 10 -8 0 -12 -6 -9 -13 3 -8 -2 -20 -10 -27 -17 -13 -46 -7 -46 9 0
6 7 8 15 5 27 -11 16 4 -20 26 l-36 22 -23 -27 c-13 -15 -26 -23 -30 -17 -3 6
-14 8 -24 5 -13 -3 -28 6 -44 25 -14 17 -34 32 -44 35 -17 4 -16 5 3 6 12 0
34 -4 49 -9z"/>
<path d="M195 1158 c-19 -19 -71 -26 -60 -8 4 6 -1 7 -11 3 -11 -4 -13 -8 -6
-11 16 -5 16 -33 0 -29 -7 1 -14 -8 -16 -20 -5 -31 -58 -33 -67 -3 -8 25 -30
26 -32 1 -1 -13 7 -21 25 -26 14 -3 38 -17 53 -29 34 -29 98 -43 110 -25 5 9
38 12 111 12 80 -1 98 1 81 9 -23 11 -33 58 -13 58 6 0 10 4 10 10 0 5 -13 7
-30 4 -31 -7 -39 3 -18 24 9 9 9 12 0 12 -7 0 -12 -4 -12 -10 0 -5 -6 -7 -14
-4 -8 3 -17 1 -21 -5 -9 -15 -25 -14 -25 2 0 7 -10 22 -23 33 -22 19 -23 19
-42 2z"/>
<path d="M527 1077 c3 -5 15 -13 27 -18 19 -8 18 -9 -6 -6 -37 5 -36 -10 0
-18 24 -5 29 -11 29 -37 0 -18 5 -34 11 -36 6 -2 8 -10 5 -18 -3 -8 1 -14 11
-14 9 0 16 -6 16 -14 0 -17 61 -30 71 -15 4 8 10 6 16 -6 13 -22 72 -29 80 -9
4 11 10 11 38 -1 21 -8 44 -11 62 -6 26 7 25 8 -22 21 -62 16 -61 16 -41 35
31 31 18 50 -31 48 -7 -1 -13 5 -13 12 0 7 -14 12 -32 13 -29 0 -30 -1 -10 -9
12 -4 22 -15 22 -24 0 -8 7 -15 15 -15 8 0 15 -7 15 -15 0 -16 -35 -21 -45 -6
-3 5 -20 13 -38 17 -28 6 -29 8 -12 15 19 7 19 8 1 8 -19 1 -19 1 0 19 11 11
26 22 34 25 11 4 9 6 -5 6 -11 0 -27 -3 -35 -9 -9 -5 -19 -5 -27 2 -7 5 -20 8
-28 4 -9 -3 -13 -2 -10 4 3 6 -2 10 -11 10 -16 0 -16 1 2 16 16 13 16 15 2 10
-11 -3 -18 0 -18 7 0 7 -15 12 -39 12 -22 0 -37 -4 -34 -8z"/>
<path d="M325 985 c-22 -8 -48 -17 -57 -21 -9 -3 -14 -12 -12 -19 4 -8 -4 -15
-18 -18 -17 -3 -15 -5 10 -6 19 0 31 -5 27 -11 -3 -6 -18 -7 -33 -3 -25 6 -26
5 -13 -11 13 -16 12 -17 -15 -10 -16 4 -35 11 -41 17 -17 12 -17 -5 -1 -21 9
-9 4 -12 -25 -12 -24 0 -40 5 -43 15 -4 8 -17 15 -31 15 -22 0 -24 -2 -13 -15
7 -8 20 -15 29 -16 9 -1 5 -4 -9 -8 -14 -4 28 -7 92 -7 67 1 121 5 127 11 7 7
35 8 71 5 33 -3 60 -2 60 2 0 4 -7 8 -15 8 -8 0 -15 5 -15 10 0 6 11 8 26 4
25 -6 26 -6 13 17 -7 13 -12 27 -11 32 1 4 -6 7 -15 7 -15 0 -16 2 -3 10 12 8
11 10 -7 10 -25 0 -39 16 -21 23 30 12 -20 5 -57 -8z"/>
<path d="M2290 911 c0 -12 22 -28 44 -32 11 -2 21 -10 24 -17 3 -9 -7 -11 -40
-6 -32 4 -39 3 -28 -5 8 -6 27 -11 41 -11 20 0 28 -6 33 -26 6 -21 9 -24 22
-13 16 13 16 14 32 -23 8 -19 17 -26 30 -23 28 5 88 -17 115 -44 21 -19 28
-20 53 -10 27 10 28 12 9 20 -13 6 -4 7 28 4 51 -5 57 9 8 20 -26 6 -65 35
-46 35 4 0 2 7 -5 15 -7 8 -16 12 -21 9 -5 -3 -9 0 -9 5 0 6 -9 11 -21 11 -11
0 -17 5 -14 10 4 6 23 8 43 5 l37 -6 -42 16 c-29 11 -48 12 -65 6 -17 -7 -18
-10 -5 -10 28 -1 20 -21 -9 -21 -19 0 -25 4 -20 15 4 10 -1 15 -15 15 -11 0
-17 5 -14 10 3 6 -4 10 -17 10 -16 0 -19 -3 -10 -9 9 -5 2 -8 -20 -8 -18 0
-25 2 -15 4 10 3 17 14 17 26 -1 20 -2 20 -11 5 -13 -24 -23 -23 -50 7 -23 24
-59 34 -59 16z"/>
<path d="M784 858 c3 -7 9 -20 12 -30 3 -9 14 -18 25 -21 16 -4 17 -9 8 -37
-9 -24 -8 -38 2 -58 13 -29 16 -36 18 -53 0 -6 8 -9 16 -5 9 3 15 0 15 -8 0
-9 8 -12 24 -9 21 4 25 1 28 -23 2 -22 9 -30 27 -32 15 -2 21 0 17 7 -4 6 0
11 8 11 9 0 16 -7 16 -15 0 -18 12 -19 28 -3 16 16 28 2 13 -16 -10 -11 -8
-17 6 -25 11 -6 13 -11 5 -11 -10 0 -12 -8 -7 -30 6 -28 5 -30 -22 -30 -16 0
-38 7 -49 16 -18 15 -18 15 3 9 18 -5 22 -3 17 10 -4 10 -13 13 -25 10 -10 -3
-27 -1 -39 5 -22 12 -27 1 -8 -18 22 -22 -1 -24 -54 -3 -54 20 -55 25 -5 21
33 -2 35 7 5 21 l-23 10 23 -5 c28 -5 28 5 1 22 -16 10 -19 10 -13 1 5 -9 2
-10 -10 -6 -10 4 -22 7 -27 7 -6 0 -7 5 -4 10 4 6 1 18 -6 26 -10 12 -9 13 7
8 17 -6 17 -5 4 8 -19 19 -69 28 -95 18 -17 -7 -17 -9 -2 -9 24 -1 22 -21 -2
-21 -11 0 -23 -5 -26 -10 -5 -8 -11 -7 -21 1 -8 6 -18 9 -22 5 -4 -4 0 -13 10
-20 18 -13 19 -66 1 -66 -6 0 -15 5 -18 10 -3 6 -13 10 -21 10 -8 0 -12 -4 -9
-10 4 -6 -9 -10 -32 -10 l-37 0 39 -20 c22 -11 50 -20 63 -20 13 0 39 -15 59
-35 34 -33 35 -35 13 -35 -13 0 -20 3 -17 6 11 11 -38 43 -87 56 -37 10 -51
10 -66 0 -12 -7 -20 -8 -20 -2 0 5 -10 10 -21 10 -18 0 -19 3 -9 15 16 19 -9
48 -31 34 -22 -13 -29 -11 -29 11 0 17 -5 19 -32 13 -20 -4 -29 -3 -25 4 9 14
-24 22 -93 24 l-55 2 50 6 c61 7 49 18 -24 20 -29 1 -58 4 -62 7 -20 12 -26
-8 -16 -47 6 -27 7 -43 0 -48 -5 -3 -16 -19 -24 -36 -14 -30 -59 -48 -59 -25
0 7 -7 10 -15 7 -21 -9 -28 10 -8 22 15 8 11 10 -19 11 -21 0 -38 5 -38 10 0
6 10 10 22 10 l22 0 -23 16 c-26 19 -45 8 -39 -22 2 -12 13 -20 30 -22 34 -4
27 -32 -8 -32 -17 0 -24 -6 -24 -19 0 -19 18 -31 47 -31 18 0 73 -38 73 -51 0
-19 -40 -8 -56 16 -10 15 -26 25 -40 25 l-24 0 0 -149 c0 -110 3 -151 13 -154
9 -4 9 -6 0 -6 -8 -1 -13 -16 -13 -42 0 -38 2 -41 23 -35 12 3 25 6 30 6 4 0
7 7 7 15 0 20 36 20 44 0 11 -28 105 -11 286 54 47 16 123 35 170 41 146 18
227 36 245 53 10 11 33 17 60 17 24 0 79 13 122 29 43 15 105 32 138 36 59 8
59 8 28 18 -38 11 -42 22 -13 30 11 3 20 10 20 16 0 16 -15 14 -30 -4 -7 -8
-22 -16 -34 -16 -17 -1 -17 -2 -3 -6 9 -2 17 -8 17 -13 0 -5 -19 -2 -42 6 -23
8 -48 12 -56 9 -21 -8 -384 -36 -390 -30 -3 3 0 5 6 5 7 0 12 5 12 10 0 6 -18
10 -41 10 -25 0 -38 4 -34 10 4 6 16 8 26 5 11 -4 26 -2 33 4 9 8 23 5 51 -9
40 -20 71 -25 99 -14 23 9 9 24 -20 24 -14 0 -23 4 -20 9 3 5 34 7 68 5 100
-4 106 -6 68 -15 -24 -6 -11 -7 43 -4 43 3 90 11 104 18 24 13 21 15 -68 33
-77 16 -96 24 -104 42 -5 12 -18 25 -27 28 -31 10 -19 22 25 26 58 6 81 0 96
-24 15 -25 0 -47 -21 -31 -23 18 -50 24 -46 11 3 -7 9 -13 14 -13 5 -1 26 -7
48 -14 29 -10 40 -10 46 -2 3 7 22 11 41 10 49 -3 113 10 157 31 20 11 33 19
27 20 -20 1 20 20 43 20 12 0 40 11 62 25 21 13 57 28 80 31 43 7 60 21 40 34
-10 6 -9 9 1 12 8 3 -7 9 -33 13 -26 4 -54 5 -63 2 -8 -4 -45 0 -82 8 -73 16
-110 19 -100 9 4 -4 29 -12 56 -18 27 -6 49 -14 48 -17 -1 -3 4 -13 12 -22 12
-15 11 -17 -5 -17 -11 0 -25 9 -32 20 -7 11 -17 20 -23 20 -5 0 -7 -4 -4 -10
3 -5 -1 -10 -9 -10 -9 0 -16 4 -16 9 0 5 -17 12 -38 16 -56 9 -75 24 -32 26
l35 1 -40 10 c-22 5 -47 12 -55 16 -25 10 62 18 98 9 19 -5 51 -6 71 -2 20 3
49 1 65 -4 32 -13 86 -4 64 10 -9 6 -7 9 10 9 29 0 83 51 73 69 -5 8 -17 11
-29 7 -11 -4 -23 -2 -27 4 -3 5 -1 10 5 10 6 0 8 5 5 10 -7 12 -45 14 -45 3 0
-14 15 -29 33 -36 20 -8 21 -17 4 -41 -18 -25 -91 -30 -112 -9 -10 9 -36 16
-65 17 -29 0 -52 6 -55 14 -2 6 -14 12 -26 12 -12 0 -19 5 -16 13 4 13 28 14
72 3 17 -4 24 -3 20 4 -8 12 7 13 21 1 5 -5 20 -12 34 -16 21 -7 22 -6 10 7
-20 20 -77 38 -96 31 -14 -5 -35 2 -88 29 -13 7 -23 6 -33 -5 -18 -18 -9 -38
15 -36 15 1 15 2 0 6 -10 2 -18 9 -18 14 0 15 27 10 45 -8 16 -15 15 -17 -7
-29 -22 -12 -22 -13 -3 -19 11 -4 29 -10 40 -15 17 -7 16 -9 -10 -10 -16 -1
-24 -4 -17 -7 19 -7 14 -23 -7 -23 -23 0 -101 40 -101 52 0 4 11 8 25 8 14 0
25 5 25 11 0 6 -7 9 -15 5 -8 -3 -14 0 -12 7 1 7 -10 12 -28 12 -37 0 -48 31
-13 38 21 4 21 4 -4 6 -15 0 -30 6 -33 12 -4 5 -17 9 -28 8 -30 -3 -58 10 -84
38 -24 25 -38 30 -29 11z"/>
<path d="M2910 750 c0 -5 -8 -10 -17 -10 -10 0 -31 -7 -47 -15 -34 -18 -70
-19 -96 -3 -15 10 -22 9 -37 -3 -10 -9 -37 -21 -61 -28 -23 -6 -41 -15 -38
-19 2 -4 -13 -6 -35 -4 -29 3 -40 0 -45 -12 -3 -9 -14 -16 -23 -16 -14 0 -14
2 -1 11 12 9 11 10 -5 4 -10 -3 -40 -9 -65 -12 -25 -3 -53 -14 -63 -24 -10
-11 -25 -19 -35 -20 -9 0 3 -6 28 -13 25 -7 49 -9 54 -4 6 4 27 8 47 8 21 0
40 4 44 9 9 15 66 41 88 41 27 0 87 22 87 32 0 4 11 3 25 -2 17 -6 25 -6 25 1
0 6 10 9 23 8 20 -2 177 65 177 76 0 3 -7 5 -15 5 -8 0 -15 -4 -15 -10z"/>
<path d="M2873 696 c-6 -8 -9 -17 -6 -20 4 -3 -2 -13 -13 -20 -18 -14 -18 -15
7 -25 15 -5 29 -15 31 -22 3 -9 9 -8 26 2 17 11 24 11 34 1 9 -9 7 -12 -10
-12 -12 0 -22 -5 -22 -11 0 -7 -9 -9 -21 -6 -17 5 -18 3 -8 -10 11 -13 8 -14
-27 -7 -48 8 -54 13 -27 20 22 6 22 6 2 27 -10 11 -19 24 -19 29 0 12 -48 10
-56 -3 -3 -6 -15 -8 -26 -6 -14 4 -18 1 -16 -11 2 -10 16 -19 33 -22 20 -4 26
-8 18 -13 -7 -5 -13 -17 -13 -28 0 -10 -5 -19 -11 -19 -7 0 4 -13 22 -30 19
-16 39 -30 45 -30 6 0 19 -9 29 -20 18 -20 17 -20 -28 -20 -26 0 -47 -5 -47
-10 0 -6 -6 -10 -12 -9 -39 5 -57 -2 -51 -18 5 -13 2 -15 -11 -10 -10 4 -24 7
-32 7 -8 0 -14 5 -14 11 0 6 8 8 19 4 12 -3 21 0 25 10 3 8 12 15 21 15 8 0
15 4 15 9 0 5 11 12 25 15 37 9 30 26 -10 26 -19 0 -35 -4 -35 -10 0 -5 -9
-10 -19 -10 -11 0 -22 -4 -25 -9 -3 -5 -16 -7 -28 -3 -17 4 -20 2 -15 -11 4
-11 2 -14 -9 -10 -9 3 -14 -1 -14 -12 0 -11 5 -15 14 -12 8 3 17 -1 20 -8 6
-17 -13 -32 -23 -18 -3 5 -17 17 -31 26 -13 9 -19 17 -13 17 6 0 19 7 27 16 9
8 35 22 58 29 27 9 33 13 16 11 -16 -2 -36 3 -45 10 -17 12 -16 13 6 14 13 0
21 3 18 7 -4 3 4 16 18 28 23 22 23 23 4 28 -10 3 -19 1 -19 -4 0 -6 -8 -5
-19 1 -25 13 -34 13 -26 0 9 -14 -8 -12 -24 3 -11 10 -13 9 -8 -4 4 -13 1 -15
-14 -12 -27 7 -62 -3 -89 -27 -28 -24 -34 -25 -55 -4 -15 15 -18 15 -38 -4
-12 -10 -46 -27 -74 -37 -29 -9 -53 -20 -53 -25 0 -4 -18 -11 -41 -15 -22 -4
-53 -13 -67 -21 -15 -8 -34 -14 -41 -14 -10 0 -11 -3 -5 -9 12 -13 85 -21 78
-10 -3 5 2 12 11 15 13 6 14 8 3 15 -21 14 11 10 57 -6 72 -26 122 -29 173
-10 86 31 85 31 88 8 2 -10 11 -23 20 -30 15 -11 15 -13 -10 -22 -37 -15 -33
-21 6 -10 18 5 44 8 58 8 20 -1 21 -2 5 -6 -11 -2 -34 -11 -52 -20 -25 -14
-34 -14 -47 -4 -12 10 -20 9 -45 -4 -17 -8 -31 -12 -31 -7 0 5 10 13 22 19 15
6 18 12 10 17 -7 4 -12 2 -12 -4 0 -6 -11 -5 -30 5 -36 19 -51 19 -44 1 3 -9
-6 -18 -27 -25 l-33 -11 38 -26 c42 -28 32 -30 128 17 23 12 31 11 23 -1 -3
-5 1 -10 9 -10 9 0 16 -5 16 -11 0 -6 -6 -9 -14 -6 -23 9 -87 -15 -82 -30 3
-7 1 -13 -4 -13 -6 0 -10 -4 -10 -10 0 -13 37 -13 45 0 3 6 12 10 18 9 9 0 9
-2 0 -6 -7 -2 -13 -9 -13 -15 0 -11 25 -4 85 22 22 10 61 26 87 36 27 11 48
22 48 27 0 4 7 7 15 7 7 0 18 6 22 14 4 7 18 18 31 25 17 9 22 9 22 -1 0 -8 4
-7 10 4 6 9 34 24 63 33 28 10 59 26 67 36 14 18 42 21 56 6 12 -11 59 -8 72
5 7 7 12 22 12 35 0 26 9 29 29 11 11 -11 12 -8 7 15 -6 27 2 35 19 18 6 -6
16 -5 25 2 30 23 67 89 41 73 -17 -11 -101 6 -101 20 0 7 -10 22 -22 34 -18
17 -19 20 -5 20 22 0 21 6 -1 28 -21 21 -89 22 -102 2 -7 -11 -11 -10 -25 3
-19 20 -17 20 -32 3z"/>
<path d="M1910 640 c-21 -4 -27 -8 -15 -9 l20 -2 -20 -9 c-19 -8 -19 -9 2 -9
61 -2 74 -36 13 -36 -28 0 -44 -6 -54 -20 -13 -18 -15 -18 -21 -3 -4 9 -12 19
-19 21 -11 4 -11 0 -2 -19 6 -13 20 -24 31 -24 16 0 17 -2 5 -10 -10 -6 11 -7
60 -3 41 3 82 12 91 19 8 8 29 15 45 15 17 1 22 3 11 6 -9 2 -15 8 -12 13 3 5
12 7 19 4 8 -3 17 -1 21 5 5 10 -25 15 -72 14 -7 -1 -13 6 -13 14 0 10 6 12
20 8 29 -9 25 4 -5 15 -41 16 -68 18 -105 10z"/>
<path d="M2247 576 c-3 -7 -17 -16 -32 -18 -19 -4 -25 -2 -21 8 4 9 -4 11 -32
8 -66 -9 -83 -14 -77 -24 4 -6 -11 -10 -35 -10 -25 0 -39 -4 -35 -10 3 -5 12
-10 20 -10 8 0 31 -11 51 -25 40 -27 114 -32 114 -7 0 6 -5 12 -11 12 -5 0 -7
5 -4 10 4 6 15 8 26 5 12 -4 21 -1 25 9 3 9 14 16 24 16 10 0 23 6 29 14 10
12 8 13 -10 9 -18 -5 -21 -3 -16 10 4 10 2 17 -2 17 -5 0 -11 -6 -14 -14z"/>
<path d="M3280 469 c0 -4 6 -10 13 -12 6 -3 2 -6 -10 -6 -12 -1 -24 3 -27 7
-2 4 -17 7 -33 6 -39 -3 -41 -4 -18 -14 18 -8 18 -9 2 -9 -10 -1 -15 -6 -12
-11 4 -6 10 -8 15 -5 5 3 12 1 15 -5 4 -6 15 -8 26 -5 11 4 19 2 19 -4 0 -6
-4 -11 -10 -11 -5 0 -7 -7 -4 -15 7 -16 -11 -21 -21 -5 -3 5 -12 7 -19 4 -8
-3 -17 -1 -21 5 -7 12 -55 15 -55 4 0 -11 51 -33 61 -27 5 3 9 -1 9 -9 0 -8
10 -18 23 -22 13 -4 17 -8 9 -12 -7 -2 -26 0 -43 6 -27 9 -30 9 -19 -4 7 -8
24 -15 39 -15 22 -1 24 -2 8 -11 -9 -5 -22 -7 -27 -4 -6 4 -25 8 -43 10 l-32
4 39 -20 c22 -10 43 -25 48 -32 6 -9 8 -9 8 2 0 11 4 11 18 -2 10 -10 25 -17
33 -17 8 0 24 -7 36 -15 14 -10 24 -11 28 -5 3 5 -14 15 -39 22 -31 8 -42 15
-33 21 8 6 6 7 -5 3 -10 -3 -18 -2 -18 3 0 11 152 1 164 -10 13 -12 26 -11 26
1 0 5 -18 13 -40 16 -21 4 -38 11 -37 17 1 6 -18 15 -42 21 -25 7 -47 18 -49
25 -3 10 0 12 14 7 37 -15 84 -19 84 -7 0 6 9 11 21 11 37 0 14 24 -31 32 -61
11 -62 18 -1 14 58 -4 73 5 34 23 -14 6 -23 14 -20 17 3 4 20 -1 38 -10 43
-22 50 -20 15 3 -16 11 -33 27 -38 35 -11 20 -32 21 -24 1 6 -16 -9 -21 -18
-6 -7 11 -56 21 -56 10z"/>
<path d="M1682 453 c-13 -3 -19 -9 -16 -15 5 -7 1 -9 -9 -5 -9 3 -42 -3 -74
-14 -31 -10 -64 -17 -74 -14 -10 3 -20 1 -24 -5 -3 -5 -34 -10 -69 -10 -50 0
-67 -4 -81 -20 -18 -20 -65 -28 -65 -10 0 5 -10 15 -22 21 -15 8 -7 -5 22 -40
55 -64 100 -131 100 -149 0 -7 10 -34 22 -60 12 -26 22 -52 22 -57 1 -19 40
-52 75 -64 41 -13 220 -15 241 -1 12 7 8 11 -17 16 -48 10 -40 22 10 17 38 -5
43 -3 44 16 1 12 -4 21 -12 21 -9 0 -12 -6 -9 -15 6 -15 -7 -21 -19 -9 -13 13
19 44 46 44 17 0 26 4 22 11 -4 6 -19 7 -36 4 -24 -5 -29 -3 -29 12 0 15 -2
15 -10 3 -8 -12 -10 -12 -16 3 -4 11 -16 16 -33 15 -32 -2 -102 23 -95 34 3 4
15 8 27 8 22 1 22 1 -3 21 -20 17 -32 19 -67 14 -26 -4 -43 -2 -43 4 0 17 -40
23 -57 9 -13 -11 -18 -9 -31 10 -8 12 -21 22 -28 22 -8 0 -13 4 -11 9 1 5 -7
16 -18 24 -27 21 -14 30 21 16 16 -6 54 -12 85 -14 31 -1 66 -6 78 -10 11 -3
21 -2 21 3 0 5 -20 12 -45 15 -46 5 -63 12 -53 23 3 3 15 0 25 -6 15 -10 28
-7 71 19 29 17 61 31 71 31 11 0 21 7 25 15 6 16 36 21 36 5 0 -12 29 -2 52
18 14 11 15 18 7 29 -12 13 -16 14 -57 6z"/>
<path d="M2047 406 c-20 -16 -39 -135 -19 -122 5 3 13 0 15 -6 4 -10 6 -10 6
0 2 26 21 10 21 -18 0 -39 19 -39 27 0 6 31 17 38 29 19 3 -6 17 -8 31 -4 19
4 29 1 40 -15 8 -11 20 -20 27 -20 8 0 17 -12 21 -27 4 -16 10 -22 12 -15 3 7
21 19 41 27 28 12 37 13 44 3 11 -19 10 -25 -6 -31 -8 -3 -16 -1 -18 5 -4 12
-38 4 -38 -9 0 -13 73 -9 77 5 3 6 10 12 17 12 6 0 12 10 13 23 0 12 -1 16 -4
10 -7 -20 -23 -15 -23 6 0 12 -9 21 -24 25 -14 3 -31 12 -38 19 -27 25 -90 49
-102 37 -8 -8 -7 -13 4 -20 8 -5 18 -6 22 -4 5 3 11 -2 14 -10 4 -10 19 -16
38 -17 26 0 28 -2 11 -8 l-20 -8 20 -5 c16 -5 14 -6 -7 -7 -16 0 -28 3 -28 7
0 5 -18 17 -39 27 -30 13 -41 24 -43 44 -2 20 -8 26 -25 25 -13 0 -23 3 -23 7
0 4 -10 5 -22 1 -14 -3 -19 -2 -14 6 4 7 1 15 -8 18 -8 3 -12 12 -9 20 6 17 3
17 -20 0z"/>
<path d="M1750 331 c32 -9 17 -17 -47 -26 -29 -4 -55 -11 -58 -15 -3 -4 -24
-6 -48 -4 l-42 3 40 -8 c22 -5 50 -5 62 0 14 5 25 4 29 -3 8 -13 91 -3 110 13
8 6 22 8 31 4 17 -7 16 -8 -2 -15 -19 -8 -19 -9 3 -9 12 -1 22 -4 22 -8 0 -17
69 -63 85 -57 14 6 14 8 -1 25 -9 10 -21 16 -27 12 -5 -3 -8 0 -5 8 2 7 -5 22
-16 31 -20 17 -20 18 -1 11 11 -3 33 -19 50 -36 16 -16 41 -34 55 -40 l25 -11
-25 -3 c-14 -2 -39 -9 -57 -14 -30 -9 -31 -12 -20 -32 16 -30 27 -37 58 -37
15 0 29 -7 33 -15 3 -8 13 -15 23 -15 18 1 65 30 47 30 -5 0 -2 5 6 10 11 7 4
9 -25 5 -39 -5 -88 16 -72 31 4 4 12 2 19 -4 7 -5 38 -12 68 -13 44 -3 55 -1
55 11 0 10 -13 16 -41 18 -36 3 -41 6 -37 23 6 23 -19 55 -62 75 -29 14 -52
27 -85 49 -8 5 -51 10 -95 11 -44 1 -69 -1 -55 -5z"/>
<path d="M3002 278 c3 -7 14 -14 26 -16 12 -2 22 -8 22 -13 0 -5 9 -9 19 -9
11 0 23 -4 26 -10 3 -5 -1 -10 -9 -10 -9 0 -18 -11 -22 -25 -6 -24 -7 -24 -29
-7 -13 9 -21 20 -18 25 2 4 -5 7 -16 7 -30 0 -26 -14 9 -27 35 -13 42 -38 8
-27 -13 4 -25 10 -28 13 -5 7 -24 10 -73 11 -9 1 -15 5 -12 11 4 5 -6 9 -22 9
l-28 0 29 -15 c15 -8 36 -15 46 -15 10 0 23 -7 30 -15 10 -12 7 -15 -13 -20
-34 -9 -70 3 -63 21 6 15 -3 18 -28 8 -9 -3 -16 -12 -16 -20 0 -9 -11 -14 -29
-14 -35 0 -44 -18 -23 -43 11 -13 12 -17 2 -17 -7 0 -18 8 -25 17 -10 14 -17
15 -36 6 l-24 -12 23 0 c12 -1 22 -6 22 -12 0 -7 -16 -9 -50 -4 -41 6 -50 4
-50 -8 0 -9 -11 -17 -27 -20 -24 -3 -22 -5 15 -12 23 -4 42 -12 42 -17 0 -5 5
-6 10 -3 6 3 10 1 10 -4 0 -7 27 -11 70 -11 40 0 70 4 70 10 0 6 -11 10 -24
10 -14 0 -27 4 -30 9 -7 11 20 22 38 15 7 -3 20 1 28 9 23 24 54 29 68 12 8
-10 30 -15 61 -15 26 0 50 -4 53 -9 4 -5 -18 -9 -49 -9 -32 0 -62 -5 -72 -13
-15 -12 -16 -12 -10 3 5 14 1 18 -18 18 -13 0 -27 -5 -31 -12 -5 -8 -2 -9 9
-5 20 7 23 -8 5 -17 -17 -8 70 1 101 10 17 5 22 4 17 -4 -5 -9 7 -12 39 -12
42 0 46 2 40 20 -5 15 -2 20 13 20 11 0 22 -7 26 -15 3 -8 13 -15 23 -14 16 0
16 1 -2 9 l-20 9 20 1 c15 1 16 3 5 7 -8 3 -18 10 -21 16 -10 15 2 47 18 47 8
0 12 -4 9 -9 -3 -5 1 -11 9 -15 21 -8 19 6 -5 32 -26 27 -25 32 4 32 13 0 26
5 28 11 2 7 18 5 48 -5 45 -16 119 -22 107 -9 -7 7 -99 41 -132 50 -16 4 -17
3 -5 -6 23 -16 -3 -14 -50 5 -37 15 -39 18 -23 29 19 14 19 14 -55 40 -7 3
-10 10 -6 17 5 8 2 9 -9 5 -10 -3 -17 -2 -17 3 0 6 -7 10 -16 10 -9 0 -14 -6
-12 -12z"/>
<path d="M2400 205 c0 -3 10 -10 23 -15 17 -8 12 -9 -20 -4 -35 5 -43 3 -43
-10 0 -10 -14 -17 -46 -22 -34 -5 -43 -9 -31 -15 9 -6 26 -5 42 1 34 13 52 13
40 1 -6 -5 -28 -11 -50 -13 -22 -2 -48 -11 -59 -20 -10 -9 -31 -16 -47 -16
-15 1 -35 -5 -44 -12 -8 -7 -18 -10 -22 -7 -3 4 6 12 21 18 37 17 32 26 -16
31 -29 3 -46 0 -51 -9 -4 -7 -14 -13 -22 -13 -9 0 -12 -6 -9 -15 4 -10 15 -13
37 -9 l32 5 -34 -15 c-39 -19 -44 -19 -36 -6 4 6 -16 10 -53 10 -44 0 -61 -4
-66 -15 -4 -11 -14 -13 -38 -8 -31 6 -32 5 -19 -11 12 -14 27 -17 78 -14 53 2
61 1 46 -9 -15 -11 -12 -13 19 -13 42 0 93 17 177 59 82 40 200 83 212 75 5
-3 12 2 15 11 4 9 15 15 25 13 10 -2 18 1 18 7 0 5 8 13 18 17 15 7 14 8 -4 4
-12 -2 -30 2 -40 10 -18 13 -53 19 -53 9z"/>
<path d="M1005 149 c-4 -5 -14 -9 -23 -8 -56 5 -64 -13 -15 -32 14 -5 23 -12
20 -16 -4 -3 -22 2 -41 11 -19 9 -41 16 -49 16 -9 0 -19 5 -23 11 -8 14 -70 5
-110 -16 -16 -8 -38 -12 -49 -9 -16 5 -18 4 -7 -7 21 -22 13 -30 -13 -13 -25
16 -70 16 -109 -1 -14 -6 -17 -5 -12 3 4 7 1 12 -7 12 -16 0 -41 -26 -50 -52
-7 -21 -59 -24 -102 -8 -18 7 -33 7 -46 0 -13 -7 -19 -7 -19 0 0 5 -4 10 -10
10 -18 0 -11 -29 10 -40 25 -13 623 -13 615 1 -4 5 0 9 7 9 9 1 8 4 -3 10 -20
12 -91 1 -82 -13 4 -6 -2 -8 -18 -3 -13 4 -34 8 -47 10 -13 2 -29 9 -35 16
-10 10 -5 11 23 6 21 -4 30 -3 21 3 -20 13 -3 17 76 19 71 2 71 2 82 -28 5
-17 16 -33 23 -35 8 -3 99 -4 203 -3 188 3 190 3 163 21 -15 11 -44 20 -65 22
-21 1 -29 1 -18 -2 45 -9 50 -16 20 -23 -45 -11 -83 -12 -66 -1 16 10 6 31
-15 31 -8 0 -12 -4 -9 -10 3 -5 -1 -10 -10 -10 -9 0 -13 5 -10 10 4 6 -14 10
-47 11 -42 0 -48 2 -30 9 28 12 28 16 -4 45 -26 24 -13 37 14 15 7 -5 6 -3 -2
6 -15 17 -57 11 -53 -8 1 -6 -4 -13 -10 -15 -7 -3 -13 0 -13 6 0 6 -19 11 -42
11 -32 0 -39 3 -28 10 8 5 33 10 54 10 45 0 45 5 -1 13 -18 4 -35 2 -38 -4z"/>
</g>
</svg>
