<?xml version="1.0" standalone="no"?>
<!DOCTYPE svg PUBLIC "-//W3C//DTD SVG 20010904//EN"
 "http://www.w3.org/TR/2001/REC-SVG-20010904/DTD/svg10.dtd">
<svg version="1.0" xmlns="http://www.w3.org/2000/svg"
 width="1182.000000pt" height="664.000000pt" viewBox="0 0 1182.000000 664.000000"
 preserveAspectRatio="xMidYMid meet">
<metadata>
Created by potrace 1.14, written by Peter Selinger 2001-2017
</metadata>
<g transform="translate(0.000000,664.000000) scale(0.100000,-0.100000)"
fill="#000000" stroke="none">
<path d="M0 4751 l0 -1889 46 2 c31 1 50 7 59 19 17 23 42 22 50 -3 5 -14 15
-20 37 -20 17 0 36 -7 43 -16 15 -21 85 -11 85 11 0 8 8 15 18 16 10 0 12 3 5
6 -30 12 -75 64 -69 79 4 9 1 23 -5 30 -9 11 -8 19 6 34 14 16 16 23 7 32 -19
19 -14 37 16 52 39 20 92 71 92 88 0 21 37 57 65 64 14 3 25 10 25 15 0 5 9 9
20 9 11 0 20 -5 20 -10 0 -6 10 -9 23 -7 40 7 77 26 77 41 0 7 8 16 17 20 10
3 24 9 30 12 10 4 13 -9 13 -50 0 -63 12 -79 30 -36 10 25 14 27 31 17 17 -10
23 -8 39 13 18 23 20 23 20 5 0 -14 7 -20 25 -21 14 -1 25 2 25 7 0 4 7 6 15
3 8 -4 15 -1 15 5 0 6 -8 11 -19 11 -25 0 -45 25 -38 50 3 13 0 20 -9 20 -18
0 -18 5 2 35 l15 24 21 -21 c11 -11 23 -17 26 -13 4 3 1 9 -5 13 -13 8 -45 94
-37 101 10 11 39 -17 39 -38 0 -13 9 -27 18 -33 14 -7 15 -13 7 -23 -13 -15 3
-55 21 -55 6 0 7 4 4 10 -3 6 -1 10 4 10 6 0 11 9 11 21 0 11 7 28 16 36 11
12 14 26 10 52 -9 53 -8 75 4 79 5 2 10 17 10 33 0 16 6 30 13 30 23 2 42 -3
49 -14 5 -8 12 -6 22 8 18 23 20 51 6 60 -21 13 1 23 45 20 34 -3 45 0 45 11
0 8 4 14 10 14 5 0 9 -16 8 -35 -1 -36 11 -60 19 -37 3 6 15 12 27 12 21 0 56
31 56 50 0 6 4 10 10 10 5 0 9 26 8 60 -1 35 3 65 10 72 7 7 12 20 12 30 0 13
8 18 25 18 14 0 25 5 25 10 0 6 -7 10 -16 10 -14 0 -14 3 -4 15 17 20 40 19
41 -2 1 -12 4 -9 8 7 8 30 36 38 45 14 4 -11 -1 -25 -14 -39 -25 -27 -25 -47
0 -70 16 -15 22 -15 35 -5 11 9 15 9 15 1 0 -7 5 -9 10 -6 8 5 7 12 -2 22 -29
35 -10 118 24 107 27 -8 23 29 -4 41 -28 12 -35 40 -12 49 16 6 26 -2 38 -29
3 -6 8 -4 14 4 10 14 52 7 52 -9 0 -4 9 -6 20 -3 11 3 20 10 20 15 0 5 7 2 16
-6 8 -9 22 -16 30 -16 8 0 14 -6 14 -12 0 -8 7 -5 15 6 13 17 12 23 -6 53 -18
28 -18 33 -5 33 15 0 21 12 17 34 -1 5 5 6 13 3 8 -3 17 0 20 8 2 7 -2 16 -11
19 -11 4 -14 15 -11 37 4 27 1 33 -25 44 -18 7 -25 15 -18 19 6 4 9 12 5 17
-3 5 -10 7 -15 4 -5 -4 -9 -1 -9 4 0 18 45 12 69 -8 32 -28 54 -16 49 25 -4
35 8 44 29 23 6 -6 16 -8 22 -5 13 8 -26 56 -46 56 -7 0 -13 5 -13 10 0 6 -7
10 -15 10 -19 0 -20 -19 -1 -26 16 -6 9 -44 -8 -44 -18 0 -36 22 -36 42 0 15
-4 17 -17 9 -10 -5 -46 -15 -80 -21 -35 -7 -63 -17 -63 -22 0 -5 -10 -8 -22
-6 -15 2 -24 11 -26 26 -2 12 -8 22 -13 22 -6 0 -9 12 -7 28 2 20 8 26 23 25
11 -1 14 0 8 3 -7 3 -13 12 -13 20 0 9 4 13 9 10 5 -4 7 2 4 13 -5 21 12 37
22 20 5 -7 12 -3 22 10 8 12 22 21 31 21 9 0 24 5 32 10 13 8 13 11 -2 22 -27
20 -1 44 57 53 28 4 44 10 38 12 -7 3 -13 14 -13 25 0 18 4 19 34 14 25 -5 39
-2 50 10 13 13 22 14 48 5 42 -15 69 -14 82 3 10 13 17 13 55 -1 36 -12 45
-12 53 -1 7 10 11 10 14 1 9 -21 65 -24 184 -10 70 9 122 11 133 5 11 -5 17
-5 17 2 0 5 17 10 38 10 27 0 33 3 22 10 -12 8 -9 10 12 10 14 0 28 6 31 13 2
6 8 8 13 4 5 -4 2 -12 -5 -16 -7 -5 -10 -14 -7 -20 10 -16 36 -13 36 4 0 22
28 18 42 -5 16 -25 25 -25 33 0 8 25 16 25 45 0 21 -18 32 -20 97 -14 52 5 73
3 73 -5 0 -16 31 -14 44 3 15 19 162 29 188 13 14 -9 20 -9 26 0 9 15 115 32
134 22 7 -4 33 -6 58 -5 25 2 54 -2 65 -7 11 -6 29 -12 40 -13 11 -2 14 0 8 2
-25 11 -13 24 14 18 31 -8 58 -31 43 -36 -6 -2 -6 -9 1 -18 8 -13 11 -12 25 5
14 19 15 19 21 -3 3 -13 11 -21 17 -19 45 19 46 19 46 -1 0 -17 7 -19 70 -20
40 0 68 3 65 9 -3 5 1 6 9 3 9 -3 16 -10 16 -14 0 -4 34 -8 76 -7 69 1 77 -1
97 -25 13 -15 39 -29 59 -33 20 -4 44 -16 54 -26 10 -11 30 -19 51 -19 18 0
33 -4 33 -9 0 -5 14 -14 30 -21 17 -7 34 -20 39 -28 7 -13 12 -14 24 -4 12 10
15 8 19 -12 3 -14 1 -23 -3 -20 -5 3 -9 -3 -9 -14 0 -10 -11 -28 -25 -40 -23
-20 -24 -25 -22 -134 1 -76 6 -112 13 -111 7 1 9 -9 7 -25 -4 -23 -3 -24 7 -9
14 22 26 22 33 -3 3 -10 0 -18 -5 -17 -13 3 -31 -57 -19 -61 5 -2 7 -27 4 -56
-4 -34 -1 -56 6 -60 6 -4 11 -21 11 -38 0 -26 2 -29 15 -18 12 10 15 7 21 -14
3 -14 10 -26 15 -26 5 0 9 -13 9 -29 0 -17 4 -32 9 -35 5 -3 6 15 3 39 -3 30
-1 45 7 45 6 0 10 3 9 8 -1 4 2 18 6 31 7 20 13 22 39 17 17 -4 34 -11 37 -16
3 -5 20 -10 38 -12 23 -2 32 -7 32 -20 0 -9 -4 -19 -9 -22 -11 -7 -20 -66 -9
-66 4 0 7 -10 7 -22 -1 -13 2 -37 6 -55 6 -26 3 -33 -14 -43 -12 -6 -27 -8
-34 -5 -6 4 -3 -1 7 -9 26 -21 184 -22 224 -2 42 21 120 27 126 9 4 -8 4 -19
1 -24 -3 -4 3 -17 15 -29 11 -11 20 -29 20 -39 0 -11 2 -26 5 -33 7 -19 -69
-9 -179 21 -43 12 -81 19 -84 17 -3 -3 1 -7 9 -10 8 -2 46 -13 85 -25 39 -12
96 -27 127 -33 32 -7 57 -16 57 -21 0 -15 -107 -2 -188 23 -40 12 -75 20 -78
17 -5 -5 32 -17 171 -57 51 -15 56 -19 35 -24 -15 -4 -65 3 -123 19 -53 14
-103 25 -110 25 -14 -1 146 -55 195 -65 32 -8 32 -8 10 -18 -16 -8 -42 -5
-101 11 -43 12 -89 22 -102 21 -13 -1 -4 -5 21 -10 25 -5 54 -13 65 -18 11 -5
38 -16 60 -24 l40 -15 -28 -7 c-16 -4 -39 -3 -53 4 -35 16 -51 14 -28 -4 10
-8 29 -15 41 -15 l22 0 -23 -25 c-12 -13 -34 -29 -47 -35 l-24 -11 25 6 c14 4
31 7 38 7 6 1 12 5 12 10 0 4 4 8 10 8 15 0 0 -29 -18 -33 -10 -2 19 -4 62 -5
84 -2 100 -7 76 -23 -13 -9 -12 -10 2 -5 10 3 20 1 23 -4 4 -6 -3 -10 -14 -10
-12 0 -21 -6 -21 -14 0 -8 -7 -16 -15 -20 -8 -3 -15 -12 -15 -21 0 -8 -5 -15
-11 -15 -6 0 -4 -7 5 -15 18 -18 30 -20 23 -2 -2 6 1 18 9 24 10 10 13 10 17
0 3 -8 12 -4 27 11 15 17 25 20 34 13 9 -7 16 -7 23 0 6 6 17 8 23 4 9 -6 6
-13 -11 -27 l-24 -19 38 7 c37 6 55 -10 20 -19 -11 -2 -1 -7 22 -12 l40 -8
-40 -18 -40 -18 43 0 c42 -1 56 -14 27 -25 -27 -10 -16 -26 19 -26 24 0 38 -6
49 -24 9 -13 30 -26 48 -30 18 -3 30 -8 28 -10 -4 -5 -135 -34 -189 -43 -41
-6 -82 -22 -60 -22 8 0 52 5 98 13 46 7 85 9 88 5 3 -5 -1 -12 -10 -15 -22 -8
-27 -32 -10 -49 14 -13 12 -15 -18 -15 -18 0 -55 -9 -83 -20 -54 -21 -52 -25
5 -11 39 10 192 23 173 15 -7 -3 -13 -12 -13 -20 0 -8 -9 -14 -19 -14 -29 0
-35 -18 -9 -23 27 -4 28 -4 -102 -46 -94 -30 -81 -33 35 -6 63 15 147 28 130
21 -15 -6 -173 -53 -224 -66 -23 -6 -41 -13 -39 -15 2 -3 80 13 173 35 93 22
173 40 179 39 6 0 -56 -21 -139 -45 -160 -47 -129 -52 48 -8 54 14 104 23 110
21 7 -2 -31 -14 -83 -27 -52 -13 -108 -29 -125 -37 -29 -13 -29 -13 15 -7 25
3 88 17 140 30 52 13 104 24 115 24 11 -1 -20 -12 -70 -25 -118 -32 -213 -63
-197 -64 7 -1 60 10 118 24 58 14 111 25 117 25 19 -1 -121 -45 -221 -70 -51
-13 -91 -25 -88 -27 2 -2 46 6 97 17 52 12 103 23 114 25 11 3 39 9 61 16 23
6 50 9 60 6 13 -3 11 -5 -8 -6 -15 0 -45 -8 -65 -16 -21 -8 -93 -28 -161 -44
-68 -17 -131 -35 -140 -41 -15 -10 -15 -10 3 -6 93 25 188 46 191 44 1 -2 -49
-21 -112 -42 -63 -21 -113 -41 -110 -43 5 -5 72 15 161 47 66 24 279 60 263
45 -3 -3 -54 -14 -114 -24 -60 -9 -136 -29 -169 -43 -33 -15 -69 -29 -80 -33
-11 -4 -15 -9 -9 -12 6 -2 45 9 85 25 71 28 245 54 209 32 -8 -5 -23 -10 -32
-10 -11 0 -18 -8 -18 -20 0 -16 7 -20 34 -20 48 0 53 -16 11 -30 -19 -6 -35
-15 -35 -20 0 -5 -8 -11 -17 -13 -10 -3 6 -3 36 0 71 8 61 -7 -29 -43 -39 -15
-70 -29 -70 -31 0 -6 64 0 75 7 22 13 87 32 92 26 4 -3 -1 -6 -10 -6 -9 0 -17
-5 -17 -10 0 -6 -4 -9 -9 -8 -5 2 -9 -1 -9 -6 -1 -5 -13 -14 -29 -21 -15 -7
-50 -23 -78 -35 -27 -12 -60 -26 -74 -31 -46 -18 -13 -20 48 -3 58 16 63 16
79 1 15 -16 15 -17 -11 -17 -15 0 -27 -4 -27 -9 0 -5 -16 -15 -36 -21 -20 -7
-48 -19 -62 -27 -27 -14 -26 -15 18 -10 33 3 50 0 60 -11 13 -14 12 -15 -4 -9
-26 10 -54 -17 -49 -47 4 -18 -2 -25 -26 -36 -24 -10 -31 -19 -31 -41 0 -19
-6 -30 -21 -34 -26 -9 -20 -28 12 -35 22 -6 22 -7 -8 -11 -18 -3 -33 -2 -33 3
0 4 -9 -1 -20 -12 -28 -28 -25 -37 10 -32 16 2 28 7 25 11 -5 8 32 8 40 -1 3
-2 -14 -10 -37 -17 -24 -7 -56 -19 -71 -27 -16 -8 -45 -14 -65 -15 -20 0 -46
-4 -57 -9 -31 -13 77 -12 130 1 24 6 49 9 56 7 24 -8 -98 -37 -183 -43 -49 -4
-88 -10 -88 -15 0 -4 8 -7 18 -5 44 9 192 13 187 5 -3 -5 -13 -6 -22 -3 -11 4
-14 3 -9 -5 4 -7 1 -12 -6 -13 -7 0 -22 -2 -33 -4 -11 -2 -65 -9 -120 -16 -55
-6 -102 -14 -105 -16 -3 -3 51 -3 120 0 137 7 137 -5 0 -25 -144 -20 -169 -25
-133 -27 34 -1 53 -18 31 -26 -7 -3 -40 -9 -73 -14 l-60 -9 57 -1 c71 -1 84
-17 21 -27 -71 -10 -88 -23 -30 -24 26 0 62 7 78 16 17 8 33 13 36 10 6 -6
-68 -40 -132 -61 l-40 -13 35 -1 c19 0 53 8 75 19 22 11 49 19 60 19 14 0 11
-4 -10 -11 -16 -5 -49 -18 -72 -29 -24 -10 -50 -19 -58 -19 -8 0 -15 -4 -15
-10 0 -14 7 -13 104 15 47 14 96 25 108 25 12 0 30 7 40 17 10 9 18 11 18 6 0
-14 -84 -54 -89 -41 -1 5 -8 3 -15 -5 -6 -8 -40 -24 -76 -36 -123 -40 -119
-57 5 -20 39 11 81 22 94 25 13 3 32 9 43 15 11 6 25 6 34 1 12 -7 6 -10 -26
-15 -24 -3 -46 -10 -49 -15 -3 -5 -43 -22 -89 -37 -45 -15 -85 -32 -89 -38 -7
-12 21 -7 132 22 43 11 81 18 84 16 2 -3 -1 -5 -7 -5 -7 0 -12 -9 -12 -20 0
-17 -7 -20 -47 -21 -27 -1 -39 -4 -28 -6 55 -14 52 -42 -6 -75 -21 -12 -39
-28 -39 -35 0 -8 5 -11 10 -8 6 4 10 -6 10 -22 0 -22 -2 -25 -10 -13 -8 13
-10 13 -10 -1 0 -24 -29 -44 -95 -64 -33 -10 -72 -26 -87 -37 -15 -10 -29 -14
-33 -9 -3 6 -26 13 -50 17 -25 3 -43 9 -41 13 8 12 -28 28 -54 24 -14 -2 -37
-3 -51 -3 -15 0 -29 -7 -33 -15 -3 -9 -2 -13 4 -10 6 3 10 1 10 -4 0 -6 9 -11
20 -11 17 0 20 -6 19 -47 -1 -27 -3 -40 -6 -30 -2 9 -8 17 -13 17 -4 0 -6 -9
-3 -20 5 -17 1 -19 -26 -15 -17 3 -46 7 -63 9 l-33 5 30 -14 c17 -8 36 -14 43
-15 6 0 12 -5 12 -11 0 -8 4 -8 13 -1 7 6 26 16 42 21 28 10 29 10 10 -4 -19
-15 -19 -15 3 -31 12 -8 22 -20 22 -25 0 -6 -7 -3 -16 5 -8 9 -17 16 -20 16
-5 0 16 -39 34 -61 16 -20 5 -99 -13 -99 -7 0 -15 -7 -19 -15 -3 -8 -12 -15
-20 -15 -7 0 -29 -7 -47 -15 l-34 -16 33 6 c27 6 32 4 32 -14 0 -17 5 -19 38
-14 20 3 47 11 58 19 25 15 46 1 37 -24 -4 -10 -2 -13 5 -8 6 3 14 1 17 -5 11
-17 -1 -22 -24 -10 -30 17 -72 -8 -107 -63 -29 -45 -63 -68 -123 -81 -31 -7
-33 -9 -17 -20 16 -12 15 -14 -11 -34 -53 -39 -70 -62 -87 -113 -7 -22 -36
-24 -36 -3 0 8 -6 15 -14 15 -19 0 -151 59 -261 117 -11 6 -38 19 -60 30 -22
11 -49 24 -60 30 -11 6 -32 16 -48 24 -25 11 -26 14 -14 33 12 18 11 24 -5 40
-10 11 -17 21 -15 22 2 2 26 0 55 -5 29 -4 52 -5 52 0 0 4 9 5 20 2 12 -3 20
0 20 7 0 7 6 10 14 7 10 -4 12 0 9 14 -4 15 -2 18 12 12 13 -4 16 -3 11 5 -4
6 -2 20 4 31 8 16 7 22 -6 29 -14 8 -10 13 20 31 20 13 36 29 36 36 0 8 9 17
20 20 11 3 20 11 20 16 0 5 6 9 14 9 8 0 18 5 22 12 5 8 2 9 -11 4 -14 -5 -15
-4 -7 7 17 20 -49 43 -77 26 -15 -10 -25 -10 -43 -1 -21 10 -20 10 12 6 20 -3
-11 13 -70 36 -77 30 -112 49 -132 73 -20 23 -28 27 -28 15 0 -9 4 -19 10 -23
10 -6 2 -35 -10 -35 -5 0 -6 10 -3 21 5 19 3 21 -18 16 -18 -5 -28 -1 -37 13
-11 18 -10 20 9 20 15 0 19 4 15 16 -3 9 -6 18 -6 22 0 3 -11 -5 -24 -17 -15
-14 -22 -29 -19 -39 4 -10 2 -13 -5 -8 -27 17 -9 -14 28 -48 22 -20 36 -36 31
-36 -5 0 -28 18 -50 40 -36 36 -41 38 -50 22 -7 -10 -14 -13 -18 -7 -5 6 -23
11 -41 11 l-32 2 25 -20 c14 -10 30 -16 36 -12 8 4 9 -1 4 -17 -10 -32 -13
-35 -26 -22 -6 6 -18 9 -25 6 -12 -4 -12 -8 -2 -21 10 -12 10 -14 0 -8 -17 10
-35 -40 -27 -76 5 -23 3 -28 -12 -28 -15 0 -16 -2 -3 -10 12 -8 11 -10 -8 -10
-13 0 -37 -7 -55 -16 -22 -12 -32 -13 -35 -5 -2 6 -8 9 -13 6 -4 -3 -21 2 -36
11 -28 17 -28 17 2 -10 17 -15 40 -34 53 -42 25 -18 30 -54 7 -54 -9 0 -18 -6
-20 -12 -6 -14 -90 -23 -108 -11 -7 4 -20 9 -30 10 -27 4 -68 34 -61 45 3 5
14 6 25 3 11 -4 19 -2 19 6 0 8 -10 9 -30 5 -23 -4 -29 -2 -25 7 4 6 -3 1 -14
-13 -11 -14 -21 -19 -21 -12 0 6 -10 12 -22 12 -19 0 -20 -2 -8 -10 8 -5 13
-10 10 -11 -36 -6 -44 -9 -53 -18 -7 -7 -3 -8 12 -4 11 3 21 1 21 -5 0 -5 -16
-12 -35 -14 -19 -2 -35 0 -35 4 0 4 -6 8 -14 8 -9 0 -12 -7 -9 -20 6 -21 -6
-27 -23 -10 -12 12 -106 1 -98 -11 3 -5 10 -7 15 -3 6 3 18 -4 28 -15 17 -20
41 -28 41 -15 0 4 -8 13 -17 20 -16 12 -16 13 9 14 15 0 31 -6 35 -14 4 -7 18
-18 31 -25 12 -7 20 -16 17 -22 -9 -13 9 -11 23 3 6 6 15 8 19 4 4 -4 2 -11
-6 -15 -9 -6 -6 -10 10 -14 14 -4 30 0 40 9 14 12 18 12 27 1 7 -8 9 -17 5
-20 -3 -4 -1 -7 5 -7 6 0 14 5 18 11 3 6 15 9 25 6 11 -3 17 -1 14 3 -3 5 1
11 7 14 7 3 3 3 -9 0 -12 -3 -33 1 -45 8 -13 7 -26 11 -30 10 -5 -1 -8 3 -8 9
0 10 16 9 70 -5 8 -3 17 -5 20 -6 3 0 16 -9 28 -20 22 -18 22 -21 8 -36 -9 -8
-16 -29 -16 -45 0 -16 -5 -29 -11 -29 -7 0 -9 -9 -5 -24 4 -15 1 -27 -7 -30
-9 -5 -9 -7 1 -12 18 -8 15 -24 -5 -24 -11 0 -14 -3 -7 -8 11 -8 27 -42 19
-42 -3 0 -13 4 -23 9 -9 5 -25 12 -35 15 -10 3 -15 10 -12 16 7 11 -8 14 -18
4 -4 -4 2 -15 14 -25 14 -12 16 -18 7 -22 -7 -3 6 -6 30 -6 31 -1 42 -5 42
-16 0 -9 11 -33 25 -55 l26 -41 -23 6 c-34 8 -88 13 -88 8 0 -2 6 -11 14 -19
8 -7 16 -19 18 -26 4 -10 8 -9 20 2 19 20 58 18 88 -3 26 -18 17 -26 -36 -30
-23 -2 -29 2 -27 17 1 17 0 17 -15 3 -13 -13 -13 -21 -4 -42 10 -21 9 -25 -5
-25 -14 0 -14 -2 2 -20 16 -18 29 -20 84 -18 59 3 65 5 66 26 1 12 -4 27 -12
33 -7 6 -13 15 -13 19 0 10 99 10 105 -1 4 -5 14 -9 23 -8 13 0 12 3 -5 11
-13 6 -23 15 -23 20 0 12 24 10 38 -4 7 -7 12 -9 12 -5 0 3 -10 16 -22 27 -21
19 -19 19 32 -4 42 -19 65 -24 97 -19 39 5 41 7 32 30 -12 32 -12 32 9 28 45
-9 116 -14 106 -7 -6 4 -14 19 -17 34 -7 25 -5 26 29 23 28 -2 45 -11 70 -41
18 -22 31 -45 29 -51 -2 -7 4 -13 13 -13 10 0 37 -18 60 -40 23 -22 53 -45 67
-50 35 -13 2195 -14 2195 0 0 5 -7 30 -16 56 -14 42 -14 49 1 80 15 31 50 50
40 22 -2 -7 8 -47 24 -88 l27 -75 208 -3 c127 -1 205 1 202 7 -11 17 13 63 29
57 8 -3 15 -1 15 3 0 12 89 11 96 -1 3 -4 14 -8 25 -8 10 0 19 -5 19 -10 0
-11 -30 -8 -64 6 -11 4 -21 2 -27 -7 -7 -11 -9 -11 -9 4 0 9 -5 17 -11 17 -6
0 -8 -7 -5 -16 3 -9 6 -19 6 -24 0 -4 9 -10 21 -13 13 -4 19 -1 16 6 -3 9 10
11 44 9 36 -3 46 -7 42 -18 -4 -11 5 -14 37 -14 29 0 39 3 34 12 -5 8 -2 9 12
3 10 -5 46 -11 79 -13 59 -4 60 -4 42 15 -27 30 -22 46 13 40 23 -5 33 -1 48
18 l20 25 0 -25 c0 -14 -4 -22 -9 -19 -5 3 -9 0 -9 -5 0 -6 -7 -11 -15 -11 -8
0 -15 -7 -15 -15 0 -12 4 -13 19 -5 26 14 31 13 25 -5 -5 -13 7 -15 77 -15 81
1 83 1 51 15 -18 8 -38 12 -46 9 -7 -3 -19 2 -26 11 -8 10 -9 15 -1 15 6 0 11
-4 11 -8 0 -8 18 -11 95 -15 19 -1 35 -5 35 -9 0 -5 5 -8 11 -8 5 0 7 5 4 10
-3 6 0 10 8 10 8 0 17 -6 20 -13 4 -10 91 -13 423 -15 282 -2 414 1 404 8 -11
7 -3 10 30 10 31 0 41 -3 30 -10 -9 -5 739 -9 1943 -10 l1957 -1 0 244 c0 243
0 244 -22 256 l-23 12 23 -5 c16 -3 22 1 22 14 0 14 -5 17 -22 12 -14 -3 -19
-2 -14 6 4 7 14 12 22 12 12 0 14 400 14 3045 l0 3045 -5910 0 -5910 0 0
-1889z m6545 -3696 c40 -11 44 -14 21 -14 -38 -1 -31 -7 19 -15 29 -5 36 -4
25 3 -12 9 -12 11 -1 11 8 0 19 -7 25 -15 11 -16 80 -29 70 -14 -3 5 -15 9
-26 9 -12 0 -19 2 -16 5 9 9 88 -7 82 -16 -3 -5 -1 -9 5 -9 5 0 12 6 14 13 3
7 6 5 6 -5 1 -19 21 -26 21 -8 0 6 17 10 38 10 43 -1 197 -38 167 -40 -17 -2
-17 -3 -2 -7 9 -2 17 -8 17 -13 0 -10 60 -21 200 -34 25 -2 70 -11 100 -19 30
-8 91 -21 135 -27 123 -18 125 -31 5 -24 -158 10 -170 10 -169 0 0 -5 -5 -12
-11 -16 -8 -5 -1 -11 19 -18 17 -6 31 -16 31 -22 0 -6 -11 -5 -30 5 -16 8 -37
15 -47 14 -10 0 4 -9 31 -20 27 -11 65 -19 85 -17 25 1 47 -6 66 -20 17 -12
57 -26 90 -31 33 -5 71 -14 85 -20 23 -11 22 -11 -10 -6 -19 3 -64 9 -100 12
-36 3 -70 10 -77 15 -7 5 -17 7 -23 3 -5 -3 -10 -1 -10 6 0 7 8 9 21 6 28 -8
11 9 -19 18 -16 4 -22 3 -20 -6 2 -7 -6 -15 -17 -17 -11 -2 -24 -11 -28 -18
-6 -10 -13 -11 -25 -5 -9 5 -46 11 -82 14 -36 3 -67 6 -69 6 -2 1 2 8 9 16 8
10 16 12 20 6 3 -6 24 -13 45 -16 22 -2 53 -8 70 -11 25 -6 28 -4 17 8 -6 8
-9 18 -5 21 9 10 -87 49 -127 52 -44 3 -89 15 -115 28 -11 6 -24 12 -30 13 -5
1 -41 11 -79 23 -74 23 -111 27 -101 11 3 -5 21 -10 38 -10 30 0 126 -29 100
-30 -7 0 -13 -9 -13 -21 0 -18 4 -20 27 -14 33 8 33 8 58 6 19 -2 18 -3 -2
-11 -13 -5 -23 -16 -23 -24 0 -12 6 -13 31 -6 28 8 29 7 17 -7 -11 -15 -10
-16 9 -11 13 4 26 2 29 -3 3 -5 -7 -9 -23 -8 -38 1 -134 26 -106 28 42 2 35
21 -7 21 -31 0 -41 4 -37 13 4 10 -5 12 -31 10 -20 -1 -41 2 -47 7 -7 6 -44
12 -84 14 -72 3 -109 15 -55 17 16 1 35 1 42 0 6 -1 12 3 12 9 0 12 -11 16
-62 23 -26 4 -38 1 -42 -8 -4 -11 2 -13 27 -8 18 3 29 2 24 -2 -10 -11 -107
-14 -101 -3 3 4 12 8 20 8 8 0 14 5 14 10 0 19 -39 10 -45 -10 -3 -11 -13 -20
-22 -20 -9 0 -13 6 -10 14 4 10 1 13 -9 9 -25 -10 -15 -31 19 -35 17 -3 41 -9
51 -13 13 -6 17 -5 12 3 -4 7 3 10 21 8 40 -5 42 -7 8 -16 -28 -7 -28 -8 12
-9 23 0 45 4 48 9 8 12 25 13 25 1 0 -5 -10 -12 -22 -16 -21 -6 -20 -8 12 -15
19 -5 49 -7 65 -4 17 2 24 1 16 -2 -18 -9 53 -34 96 -34 17 0 35 -4 38 -10 3
-5 16 -10 29 -10 12 0 26 -4 32 -9 5 -5 24 -12 43 -16 26 -5 32 -4 26 6 -6 9
-2 11 16 6 13 -4 33 -7 44 -7 17 0 18 -2 5 -11 -11 -7 -4 -8 25 -4 22 3 34 2
27 -1 -16 -8 -5 -25 12 -18 8 3 17 1 21 -5 9 -16 45 -13 51 4 4 8 11 15 16 15
6 0 5 -6 -2 -15 -7 -8 -9 -16 -4 -17 5 0 14 -2 19 -3 6 -2 18 -3 28 -4 10 0
15 -5 12 -11 -4 -6 7 -10 24 -10 18 0 31 5 31 13 0 6 8 2 18 -9 19 -24 59 -37
68 -23 10 16 30 9 30 -10 0 -17 -6 -19 -40 -15 -23 3 -43 9 -46 14 -3 5 -30
12 -60 15 -30 4 -65 14 -77 21 -27 17 -30 12 -7 -10 8 -9 27 -16 40 -16 18 0
24 -5 22 -16 -3 -19 48 -42 97 -44 l30 -1 -24 -19 c-13 -11 -30 -20 -39 -20
-13 0 -13 2 3 13 16 13 14 15 -28 25 -30 8 -48 19 -52 31 -3 11 -14 20 -23 19
-9 0 -27 3 -40 7 -18 6 -21 4 -16 -9 9 -24 -46 -43 -62 -22 -6 9 -19 16 -28
16 -10 0 -14 5 -10 11 5 8 -1 10 -19 5 -17 -4 -31 -1 -41 9 -8 8 -25 15 -38
14 l-23 0 23 -11 c29 -14 28 -28 -2 -28 -24 0 -41 24 -30 41 3 6 -5 8 -20 5
-14 -3 -28 -1 -31 4 -3 5 -12 7 -20 4 -8 -4 -12 -10 -9 -15 3 -5 -2 -9 -12 -9
-13 0 -14 3 -4 15 10 12 10 18 -1 31 -10 13 -10 17 2 25 10 6 11 9 1 9 -7 0
-11 4 -8 8 2 4 -14 8 -37 9 -83 2 -117 6 -117 15 0 5 -11 6 -25 2 -13 -3 -39
-1 -56 5 -39 13 -50 6 -23 -14 19 -15 19 -15 -1 -8 -71 23 -45 45 45 37 47 -4
61 -3 50 5 -8 6 -30 11 -47 11 -20 0 -33 5 -33 13 0 8 -2 9 -8 1 -4 -7 -15 -8
-27 -3 -11 4 -14 8 -6 8 26 2 2 13 -56 28 -107 26 -108 26 -93 8 11 -13 8 -15
-21 -16 -19 0 -45 -2 -58 -5 -20 -4 -22 -2 -11 11 10 13 9 15 -8 15 -16 0 -20
-4 -15 -17 5 -15 3 -14 -10 2 -15 19 -14 20 16 26 l32 5 -27 8 c-37 11 -35 23
7 40 27 11 37 23 42 46 4 24 11 31 27 29 35 -2 47 1 42 10 -3 4 -17 6 -31 3
-22 -4 -25 -1 -25 26 0 25 8 63 14 62 0 -1 24 -7 51 -15z m1120 -261 c25 -4
45 -10 45 -15 0 -5 30 -9 68 -10 37 0 61 -3 55 -6 -43 -17 27 -37 78 -23 21 6
37 6 45 -1 7 -6 47 -13 89 -16 41 -3 78 -9 80 -13 3 -5 21 -4 40 0 19 4 35 5
35 1 0 -12 93 -10 108 2 9 7 11 5 6 -8 -5 -12 -4 -16 3 -12 6 4 23 3 38 -3 20
-8 26 -7 23 2 -3 7 -15 15 -29 19 -21 6 -21 7 -4 9 17 2 16 3 -5 10 -24 8 -23
8 7 9 25 1 31 -2 27 -14 -4 -8 -2 -15 2 -15 5 0 15 -4 23 -9 12 -8 12 -11 0
-23 -12 -13 -23 -13 -79 -1 -36 8 -108 15 -161 16 -54 1 -96 4 -94 7 2 3 -17
6 -43 7 -103 3 -178 11 -204 21 -15 6 -53 13 -85 16 -84 8 -163 26 -163 37 0
5 -10 14 -22 19 -24 11 7 9 117 -6z m982 -89 c-3 -14 54 -19 63 -5 5 9 28 9
86 2 58 -7 68 -10 39 -12 -35 -2 -37 -3 -15 -10 14 -4 43 -8 65 -8 35 -1 37 0
16 9 -13 5 -22 12 -19 14 6 6 71 -17 79 -28 4 -5 24 -10 45 -10 22 -1 47 -10
57 -19 16 -17 16 -18 -14 -18 -16 0 -28 4 -25 8 6 10 -112 33 -164 33 -53 -1
-132 6 -162 14 -17 4 -28 3 -28 -3 0 -5 -13 -15 -30 -21 -16 -5 -30 -15 -30
-20 0 -11 10 -13 93 -16 26 -1 50 -5 54 -8 3 -4 21 -7 38 -7 18 0 47 -3 64 -6
27 -6 30 -9 19 -23 -9 -11 -6 -10 9 3 14 12 29 16 40 11 22 -9 76 -15 165 -18
68 -2 84 -15 37 -28 -17 -5 -19 -7 -6 -8 10 -1 15 -6 12 -11 -4 -6 -16 -8 -28
-4 -31 9 -34 14 -17 24 11 7 4 10 -25 10 -22 0 -58 3 -80 6 -33 6 -38 4 -27
-7 20 -22 14 -31 -10 -15 -12 9 -27 16 -33 16 -5 0 -3 -4 5 -10 23 -14 4 -23
-22 -9 -12 7 -39 12 -58 11 -19 -2 -55 1 -80 6 -25 5 -57 5 -72 1 -25 -6 -27
-5 -18 12 8 13 7 19 0 19 -6 0 -13 -6 -16 -14 -6 -17 -41 -10 -41 9 0 8 14 13
39 13 21 1 38 -3 38 -8 0 -8 78 -6 86 3 3 2 -30 8 -73 12 -124 11 -143 18
-110 36 23 14 22 33 -3 26 -11 -3 -20 -1 -20 4 0 5 21 9 48 10 41 1 44 2 19 9
-15 5 -40 7 -55 5 -15 -2 -38 3 -52 11 -23 13 -21 14 29 8 31 -4 52 -3 48 2
-3 5 5 9 18 9 13 0 23 -4 22 -10z m-1792 -94 c-10 -9 32 -30 63 -31 17 0 32
-4 32 -8 0 -5 15 -8 33 -7 38 3 54 -4 36 -16 -7 -4 -10 -12 -5 -16 5 -4 13 -1
18 8 16 23 146 6 171 -24 16 -18 21 -19 38 -8 20 12 63 6 55 -8 -7 -11 -173
-14 -180 -3 -4 6 5 9 19 7 16 -1 24 2 22 9 -2 6 -9 11 -15 10 -7 -1 -21 -2
-32 -2 -13 -2 -17 -7 -14 -17 5 -11 2 -13 -10 -9 -11 4 -16 0 -16 -14 0 -21
-46 -37 -75 -26 -10 4 -15 0 -15 -15 0 -12 -5 -21 -11 -21 -6 0 -8 8 -5 18 3
9 1 24 -4 32 -8 12 -10 9 -10 -12 0 -25 -3 -28 -32 -27 -31 2 -31 2 -5 6 23 4
25 6 13 19 -8 8 -21 11 -29 8 -8 -3 -17 2 -21 12 -5 12 -14 15 -36 10 -17 -3
-30 -1 -30 4 0 6 -8 10 -17 11 -10 1 -4 6 14 11 35 12 56 54 22 45 -10 -3 -19
-2 -19 2 0 4 -10 7 -21 8 -27 2 -50 22 -28 25 7 0 19 2 24 3 6 2 15 3 20 4 6
1 3 6 -5 11 -11 8 -5 10 22 8 21 -1 35 -4 33 -7z m755 -17 c0 -8 10 -14 23
-13 12 0 16 3 10 6 -15 5 -17 23 -4 23 5 0 13 -9 16 -20 4 -13 15 -20 33 -20
30 0 55 -13 51 -26 -1 -5 6 -10 17 -11 10 -2 13 0 6 3 -23 10 -3 21 30 16 32
-5 32 -6 8 -14 -16 -5 -8 -6 23 -2 63 7 199 -16 193 -32 -3 -7 0 -15 7 -18 7
-4 -3 -4 -21 -1 -18 2 -40 12 -48 20 -9 8 -18 15 -22 16 -4 0 -27 2 -52 4 -32
4 -39 2 -25 -4 19 -9 19 -9 -5 -19 l-25 -11 30 -1 c22 0 26 -3 16 -9 -8 -5
-21 -7 -29 -3 -10 3 -13 1 -8 -6 3 -6 2 -13 -4 -17 -5 -3 -10 3 -10 14 0 12
-5 21 -11 21 -5 0 -8 4 -5 9 8 13 -13 19 -107 31 -85 11 -162 27 -138 29 7 1
11 7 7 16 -3 9 1 15 11 15 12 0 13 3 4 14 -10 12 -8 13 8 9 12 -3 21 -12 21
-19z m-963 -14 c-3 -10 0 -21 7 -24 6 -2 1 -5 -11 -5 -13 -1 -23 3 -23 9 0 5
-7 7 -15 4 -21 -8 -19 -21 5 -29 11 -4 18 -11 15 -16 -4 -5 -13 -2 -21 6 -18
18 -50 20 -60 3 -5 -8 0 -9 14 -6 12 4 22 2 22 -3 0 -5 -8 -9 -17 -9 -10 0
-25 -5 -33 -11 -11 -7 0 -8 35 -3 28 4 58 8 67 8 9 0 14 4 12 8 -3 4 2 8 11 8
9 0 14 4 11 8 -2 4 4 8 15 8 10 0 19 -3 19 -7 0 -3 12 -4 28 -1 18 3 24 1 17
-6 -5 -6 -25 -13 -43 -15 -40 -7 -55 -17 -23 -17 12 0 20 -4 17 -9 -4 -5 -23
-5 -46 1 -42 11 -75 5 -65 -12 3 -5 -1 -10 -9 -10 -9 0 -16 5 -16 10 0 6 -8
10 -17 9 -11 0 -13 -3 -5 -6 6 -2 12 -11 12 -19 0 -9 10 -14 27 -14 19 0 24
-3 16 -11 -7 -7 -22 -7 -51 0 -33 9 -39 15 -35 32 4 14 0 22 -15 25 -13 4 -22
16 -24 36 -5 29 -4 30 27 25 17 -3 38 -1 46 4 8 5 10 9 5 9 -11 0 25 29 37 30
5 0 5 -5 1 -12 -5 -8 0 -9 17 -5 13 4 28 7 32 7 5 0 5 5 2 10 -3 6 -1 10 6 10
6 0 9 -8 6 -20z m770 -83 c28 -1 49 -5 47 -9 -7 -11 125 -14 173 -5 33 7 46 5
58 -7 14 -13 11 -14 -20 -9 -45 7 -48 -15 -4 -39 17 -10 27 -23 23 -29 -4 -8
3 -9 25 -4 26 5 31 4 31 -11 0 -13 -3 -15 -11 -7 -8 8 -21 8 -48 0 -39 -13
-130 -15 -148 -4 -6 4 -14 3 -18 -3 -3 -5 -20 -10 -36 -10 -18 0 -28 4 -24 10
8 13 -1 13 -26 0 -15 -8 -19 -7 -19 5 0 8 -5 15 -11 15 -5 0 -7 -4 -4 -10 3
-5 2 -10 -3 -10 -21 0 -19 14 6 35 23 20 24 25 13 39 -11 13 -11 16 1 16 8 0
23 -6 33 -14 18 -13 18 -14 -3 -20 -12 -4 -22 -14 -22 -22 0 -17 20 -19 21 -1
0 10 2 10 6 0 6 -17 40 -17 46 0 4 9 7 9 14 0 5 -7 19 -11 32 -8 12 2 33 -1
46 -7 13 -6 32 -7 42 -3 10 5 24 7 31 6 30 -5 -26 35 -68 49 -50 16 -54 16
-90 6 -16 -5 -20 -4 -12 2 11 7 10 11 -4 16 -10 4 -20 2 -22 -3 -2 -7 -11 -7
-25 1 -31 17 -80 19 -73 3 5 -14 -23 -30 -33 -19 -3 4 -1 9 6 11 13 5 6 33 -9
33 -5 0 -6 -4 -3 -10 3 -5 -1 -10 -9 -10 -16 0 -22 21 -10 33 4 4 17 4 28 1
12 -3 45 -6 73 -7z m-3949 -47 c17 -7 32 -16 32 -21 0 -5 7 -9 15 -9 44 0 121
-25 148 -49 18 -15 57 -38 87 -50 112 -46 130 -55 130 -63 0 -4 -4 -8 -8 -8
-5 0 -14 -11 -20 -25 -10 -22 -16 -24 -49 -19 -21 3 -41 10 -44 16 -4 5 -17 8
-30 6 -16 -2 -32 6 -47 22 -19 20 -25 22 -33 10 -5 -8 -7 -23 -5 -32 3 -14 -2
-18 -21 -18 -22 0 -24 -2 -13 -15 18 -22 -3 -18 -34 6 -15 12 -29 19 -32 16
-3 -2 6 -14 20 -25 14 -10 22 -22 19 -26 -3 -3 1 -7 10 -7 9 -1 23 -2 30 -3 6
-1 22 4 33 12 13 7 33 10 47 7 23 -6 24 -9 15 -36 -9 -27 -10 -28 -34 -12 -32
20 -43 9 -18 -19 18 -20 18 -21 1 -15 -10 4 -25 7 -33 7 -9 0 -12 5 -9 10 3 6
-1 10 -9 10 -9 0 -16 4 -16 10 0 5 -7 7 -15 4 -9 -4 -26 5 -42 20 -14 14 -32
26 -39 26 -8 0 -14 5 -14 10 0 6 -8 10 -17 10 -15 0 -16 2 -3 10 13 8 12 10
-3 10 -10 0 -15 4 -12 10 3 5 0 7 -9 4 -9 -3 -19 3 -27 18 -7 12 -18 29 -26
36 -19 20 -14 72 9 72 5 0 7 -4 4 -8 -2 -4 4 -9 15 -9 10 -1 19 2 19 6 0 4 15
6 33 5 29 -3 30 -3 7 5 -14 5 -37 9 -52 10 -21 1 -28 7 -33 31 -4 17 -10 30
-15 30 -17 0 -19 31 -3 50 17 19 18 19 38 1 11 -10 35 -24 53 -31z m3734 -9
c-8 -4 -24 -6 -38 -3 -13 2 -24 2 -24 -1 0 -12 43 -29 49 -21 12 17 49 33 87
38 l39 6 -35 -12 c-30 -10 -32 -12 -12 -16 24 -4 29 -17 10 -26 -7 -3 1 -3 19
0 26 4 34 1 44 -18 7 -13 17 -26 23 -30 6 -4 -1 -8 -16 -8 -16 0 -28 5 -28 11
0 5 6 7 13 3 9 -5 9 -4 0 6 -6 7 -29 14 -50 16 -21 1 -49 5 -63 8 -14 3 -37 8
-51 11 -18 4 -28 1 -32 -9 -5 -11 1 -14 26 -10 24 4 35 1 43 -13 10 -15 7 -18
-15 -20 -14 0 -28 3 -31 8 -7 10 -148 32 -159 25 -15 -10 -71 -16 -71 -9 0 13
49 32 71 28 12 -2 19 2 19 11 0 8 5 14 11 14 5 0 8 -4 4 -9 -3 -5 -1 -13 5
-16 6 -4 9 -1 8 7 -2 8 8 14 25 16 15 2 27 8 27 13 0 6 4 8 9 5 4 -3 28 -2 52
3 47 8 62 5 41 -8z m-673 -71 c24 -6 55 -9 68 -5 18 4 23 2 17 -6 -5 -9 -2
-10 9 -6 21 8 49 -2 41 -14 -3 -5 2 -9 11 -9 9 0 13 5 10 10 -4 6 5 10 20 10
15 0 24 -4 20 -10 -7 -12 -3 -12 20 -4 13 5 14 8 3 15 -10 7 -9 9 5 9 10 0 17
-8 17 -20 0 -11 5 -20 12 -20 34 0 -7 -10 -77 -19 -68 -8 -88 -7 -135 8 -81
27 -118 32 -124 18 -2 -7 -5 -5 -5 5 -1 9 7 22 17 27 9 6 11 11 5 11 -7 0 -13
5 -13 11 0 6 8 8 18 5 9 -3 37 -10 61 -16z m454 -23 c10 -4 15 -11 12 -17 -3
-5 -2 -10 4 -10 5 0 18 -3 28 -6 17 -5 17 -5 1 9 -26 21 -22 28 8 17 33 -13
34 -13 27 7 -4 11 -3 14 5 9 7 -4 12 -15 13 -24 0 -11 2 -13 6 -4 4 10 9 9 24
-4 13 -12 28 -15 49 -10 27 5 29 4 17 -9 -8 -8 -24 -11 -36 -8 -12 3 -21 1
-21 -6 0 -16 42 -13 68 5 18 12 26 13 38 4 8 -8 28 -10 48 -7 19 3 37 3 41 -1
13 -13 74 -11 86 4 15 18 35 18 43 -1 3 -8 12 -12 21 -9 20 8 33 -25 14 -37
-22 -14 -33 -10 -19 6 10 12 10 15 -3 15 -8 0 -17 -10 -20 -21 -5 -17 -12 -21
-36 -17 -17 2 -32 0 -34 -6 -3 -6 -8 -8 -12 -3 -5 4 -3 13 3 19 19 19 14 33
-5 16 -17 -14 -87 -22 -78 -8 2 3 -5 7 -16 7 -17 2 -18 -1 -9 -13 7 -8 20 -14
29 -14 14 0 14 -2 1 -10 -19 -12 -33 -13 -26 -1 3 5 -12 11 -35 15 -22 3 -42
13 -45 21 -4 8 -15 15 -26 15 -11 0 -16 -5 -13 -10 15 -23 -69 4 -97 32 -20
20 -48 24 -48 8 0 -12 -42 -7 -135 17 -67 18 -88 29 -50 28 14 -1 28 -5 32 -8
3 -4 19 -7 35 -7 15 0 28 -6 29 -12 0 -8 2 -9 5 -2 2 6 21 9 42 8 31 -3 34 -1
18 8 -11 6 -32 11 -48 10 -15 0 -28 4 -28 10 0 6 11 8 25 6 14 -3 28 -1 31 4
4 6 9 6 13 1 3 -5 14 -12 24 -16z m-472 -62 c30 -8 69 -18 86 -21 18 -4 30
-11 27 -16 -4 -5 2 -9 12 -7 26 3 117 -12 129 -21 6 -5 28 -10 50 -12 22 -1
43 -7 46 -11 8 -10 150 -44 268 -63 101 -16 125 -24 73 -24 -17 0 -33 -3 -36
-8 -2 -4 13 -6 35 -4 25 3 39 0 39 -7 0 -7 6 -9 18 -4 26 12 112 7 112 -6 0
-4 -12 -7 -27 -5 -16 2 -20 1 -10 -2 9 -3 17 -10 17 -15 0 -14 30 -11 36 4 5
14 30 14 114 -3 30 -6 64 -11 75 -11 31 -1 259 -31 264 -35 3 -2 -35 -3 -82
-2 -48 2 -87 6 -87 9 0 3 -19 6 -42 7 -24 1 -80 7 -126 12 -46 6 -88 7 -95 3
-7 -4 -25 -6 -42 -4 -16 2 -46 4 -65 5 -29 1 -34 4 -32 21 2 14 0 16 -6 7 -6
-9 -15 -10 -33 -3 -13 5 -18 10 -10 10 8 1 12 4 8 7 -3 3 -12 2 -19 -2 -23
-15 -70 -13 -64 2 3 7 1 16 -4 19 -6 4 -10 1 -10 -5 0 -7 -6 -10 -14 -7 -8 3
-20 -1 -26 -9 -7 -8 -17 -14 -23 -14 -5 0 -2 9 8 20 18 20 17 20 -10 20 -20 0
-26 -4 -21 -15 6 -17 -29 -22 -39 -5 -3 5 1 10 9 10 9 0 16 5 16 10 0 6 -3 9
-7 8 -5 0 -15 1 -23 4 -37 14 -183 39 -201 35 -10 -3 -19 -1 -19 5 0 6 -9 8
-20 5 -10 -3 -20 -2 -22 2 -5 11 -128 42 -139 35 -5 -3 -15 -2 -22 3 -7 5 -18
8 -24 7 -7 -1 -17 -2 -23 -3 -5 0 -10 -7 -10 -15 0 -11 10 -13 40 -9 26 4 40
2 40 -5 0 -7 -11 -9 -28 -6 -22 5 -29 2 -29 -11 0 -14 7 -15 36 -10 30 6 33 5
23 -8 -10 -12 -8 -16 10 -21 l23 -7 -26 -10 c-21 -8 -40 -4 -90 16 -46 18 -54
23 -29 19 26 -4 31 -3 20 5 -8 6 -23 11 -32 11 -11 0 -18 7 -18 18 0 14 2 15
10 2 11 -18 23 -8 14 13 -3 9 -12 13 -22 10 -13 -4 -12 -2 3 10 11 9 27 16 35
16 10 0 8 -3 -5 -10 -17 -7 -17 -8 -2 -6 34 4 18 21 -34 34 -29 8 -55 15 -57
17 -2 3 2 14 8 26 7 14 17 19 29 15 9 -3 42 -12 72 -20z"/>
<path d="M579 1155 c-3 -2 -44 -7 -91 -10 -48 -3 -98 -9 -113 -15 -14 -5 -39
-10 -55 -10 -23 0 -27 -3 -23 -20 6 -21 -11 -28 -23 -9 -4 6 -17 8 -33 3 -14
-4 -60 -8 -101 -9 -41 -1 -90 -6 -107 -9 -31 -7 -33 -11 -33 -47 0 -36 2 -40
21 -34 27 9 129 -4 129 -16 0 -5 -13 -9 -30 -9 -16 0 -30 -4 -30 -9 0 -5 -20
-6 -45 -3 -41 4 -45 3 -45 -17 0 -14 6 -21 20 -21 11 0 20 -5 20 -11 0 -6 -9
-9 -20 -6 -30 8 -24 -10 8 -21 15 -6 21 -11 15 -11 -7 -1 -13 -6 -13 -11 0 -7
16 -9 43 -5 49 8 61 15 24 15 -52 0 -38 20 15 22 73 2 102 -2 106 -13 2 -5 14
-9 27 -9 13 0 27 -4 30 -10 3 -5 11 -10 16 -10 6 0 7 5 3 12 -5 8 0 9 17 3 35
-11 121 -13 142 -3 9 4 25 12 36 17 10 6 59 13 107 17 49 4 91 10 94 14 3 3
43 3 90 -1 90 -8 116 -5 56 6 -20 4 -36 11 -36 16 0 12 63 11 131 -1 30 -5 67
-6 83 -2 37 10 47 31 12 25 l-26 -5 17 33 c9 19 21 37 27 41 6 5 2 8 -11 8
-12 0 -23 -6 -25 -12 -5 -15 -40 -17 -50 -3 -5 6 -12 4 -18 -5 -5 -8 -10 -10
-10 -5 0 6 -4 3 -9 -5 -14 -20 -4 -30 30 -30 16 0 29 -3 29 -7 0 -5 -25 -6
-55 -5 -30 2 -53 8 -49 13 14 23 12 50 -6 59 -22 12 -110 2 -110 -13 0 -5 -9
-7 -20 -4 -11 3 -17 1 -14 -4 3 -5 -16 -9 -45 -8 -28 1 -48 6 -45 11 8 13 -9
9 -30 -7 -22 -16 -46 -20 -46 -7 0 9 47 36 65 37 6 0 16 4 23 9 7 4 25 6 40 3
15 -2 22 -2 15 0 -6 2 -14 10 -17 18 -4 10 3 12 30 8 20 -3 34 -1 34 5 0 5 -8
8 -17 6 -12 -3 -24 5 -34 25 -14 24 -23 29 -53 29 -20 0 -42 5 -50 11 -7 6
-15 9 -17 6z"/>
<path d="M2392 883 c12 -21 33 -53 46 -70 23 -32 23 -33 4 -33 -21 0 -46 23
-35 33 3 4 -6 7 -21 7 -18 0 -25 -4 -20 -12 4 -7 3 -8 -5 -4 -6 4 -9 12 -6 17
4 5 2 9 -4 9 -5 0 -17 3 -27 7 -12 5 -15 3 -9 -6 4 -7 -4 -5 -19 4 -18 12 -26
14 -24 5 2 -7 -3 -15 -9 -17 -7 -3 -13 0 -13 6 0 6 -7 11 -15 11 -8 0 -15 4
-15 8 0 4 -12 9 -26 10 -33 3 -46 11 -38 24 8 12 -12 3 -36 -18 -8 -7 -26 -13
-40 -13 -41 -1 -75 -7 -88 -15 -17 -10 -32 2 -32 25 0 21 -25 26 -33 7 -3 -7
-6 -3 -6 10 -1 26 -31 31 -31 4 0 -34 24 -54 68 -55 23 -1 42 -5 42 -9 0 -5 7
-8 17 -8 9 0 13 3 10 7 -6 5 36 33 50 33 13 0 -5 -36 -22 -42 -19 -6 -18 -6 3
-7 12 -1 22 -5 22 -10 0 -5 16 -15 35 -22 33 -12 47 -29 25 -29 -5 0 -7 -7 -3
-16 5 -14 1 -16 -21 -12 -30 6 -46 -8 -19 -16 10 -3 34 -5 54 -4 19 0 44 -4
54 -10 17 -9 16 -11 -15 -17 -31 -5 -90 8 -175 40 -19 7 -19 7 -1 -7 17 -14
15 -15 -30 -14 -27 1 -55 5 -61 9 -8 5 -23 1 -35 -7 -29 -21 -35 -20 -41 5 -4
14 -10 18 -19 13 -24 -15 -36 -12 -60 13 l-23 25 41 -6 c31 -6 41 -4 41 7 0
10 -16 14 -61 15 -52 0 -58 -1 -43 -12 10 -8 17 -26 17 -44 0 -26 5 -32 35
-42 40 -13 130 -16 163 -6 12 4 22 3 22 -2 0 -12 -24 -22 -53 -23 -12 0 0 -7
26 -15 29 -9 47 -20 44 -27 -2 -7 -13 -11 -23 -9 -10 2 -32 3 -48 2 -47 -1
-136 20 -136 33 0 8 -3 8 -11 0 -15 -15 -39 -5 -39 16 0 10 -3 12 -8 5 -13
-19 -40 -23 -52 -8 -7 8 -21 14 -31 14 -25 0 -25 -32 1 -50 12 -9 18 -21 14
-32 -5 -15 1 -18 37 -18 23 0 40 -3 36 -6 -9 -9 -99 -6 -106 3 -3 4 -16 14
-28 21 -27 14 -153 16 -153 2 0 -5 -12 -11 -27 -11 -19 -1 -22 -3 -10 -6 11
-3 16 -11 13 -19 -6 -15 -1 -18 46 -28 19 -4 26 -11 22 -21 -4 -11 1 -15 17
-15 17 0 20 -3 12 -11 -14 -14 -67 -3 -58 11 3 6 -3 10 -14 10 -26 0 -27 -9
-3 -26 21 -17 3 -18 -48 -4 -22 6 -64 6 -115 -1 -112 -14 -115 -14 -164 -5
-35 7 -42 6 -35 -5 6 -11 5 -12 -8 -2 -8 7 -17 12 -19 10 -2 -1 1 3 7 8 9 8 4
15 -19 25 -25 11 -28 15 -14 18 10 2 36 -6 58 -17 57 -30 117 -32 144 -5 12
13 19 14 28 5 16 -16 109 -14 148 4 l34 15 -40 -6 c-22 -3 -52 -7 -66 -10 -18
-3 -36 4 -64 26 -35 28 -41 30 -51 15 -8 -10 -14 -12 -19 -6 -3 6 -16 11 -28
11 -17 0 -19 2 -7 9 8 6 19 7 25 4 5 -3 2 2 -7 13 -18 18 -33 20 -146 13 -31
-2 -57 2 -64 9 -16 16 -38 15 -38 -2 0 -7 9 -16 21 -19 12 -3 18 -10 15 -15
-3 -5 5 -7 17 -5 12 2 31 -3 42 -11 19 -15 17 -15 -23 -12 -24 2 -48 8 -55 15
-6 6 -22 11 -35 11 -18 0 -22 4 -17 19 4 14 0 20 -17 25 -35 9 -116 7 -122 -3
-6 -9 -193 -7 -202 2 -4 3 9 6 27 5 19 0 72 3 119 7 138 11 204 11 213 0 6 -6
10 -6 14 3 7 17 30 15 37 -3 3 -8 10 -15 16 -15 18 0 5 24 -25 45 -51 36 -61
40 -41 17 26 -30 5 -28 -28 3 -15 14 -38 25 -52 25 -25 0 -33 -15 -11 -23 6
-3 0 -6 -15 -6 -15 -1 -30 4 -33 9 -3 6 -18 7 -32 4 -18 -5 -24 -3 -19 5 4 6
14 11 22 11 8 0 12 5 9 10 -4 6 10 10 34 10 24 0 41 5 41 11 0 7 11 9 30 5 25
-4 28 -3 18 7 -6 8 -23 11 -36 9 -17 -3 -23 -1 -18 7 4 6 3 11 -3 11 -5 0 -13
-4 -16 -10 -3 -6 -17 -10 -31 -10 -15 0 -23 4 -19 11 4 6 13 8 21 5 8 -3 14
-1 14 4 0 10 -24 14 -73 10 -15 -1 -27 3 -27 9 0 6 19 12 43 12 23 1 32 4 21
6 -16 3 -20 9 -17 24 6 22 33 26 33 5 0 -9 15 -15 45 -18 31 -2 45 1 45 9 0 7
5 13 12 13 6 0 8 -3 5 -7 -11 -11 14 -33 37 -33 20 1 20 2 -4 15 -20 11 -21
14 -7 15 10 0 26 -4 36 -10 22 -11 94 6 85 21 -4 6 -11 6 -20 -2 -14 -12 -19
-3 -15 27 1 7 -6 14 -14 18 -9 3 -14 2 -11 -3 5 -8 -24 -20 -46 -21 -17 0 -7
19 12 25 11 3 20 10 20 15 0 14 -85 16 -111 3 -17 -9 -19 -13 -7 -13 9 0 20
-5 24 -11 5 -9 -1 -10 -20 -5 -16 4 -33 3 -39 -2 -20 -14 -57 -12 -57 4 0 10
-13 14 -42 16 l-43 1 45 7 c62 10 5 12 -70 3 l-55 -7 50 -12 50 -13 -67 5
c-44 3 -68 1 -68 -6 0 -6 -15 -8 -40 -4 -25 4 -40 3 -40 -4 0 -6 6 -12 13 -15
6 -2 9 -8 5 -11 -3 -4 -21 -1 -40 7 -18 8 -46 18 -63 22 -39 9 -119 7 -123 -3
-1 -5 -17 -6 -34 -4 -21 3 -29 1 -24 -6 5 -8 -8 -11 -41 -10 -87 3 -106 0 -91
-15 7 -7 24 -18 38 -25 l25 -13 -25 6 c-14 3 -33 8 -44 10 -10 2 -24 9 -30 14
-10 8 -13 1 -14 -28 -2 -32 2 -40 21 -45 20 -7 20 -8 4 -14 -18 -8 -18 -9 1
-32 14 -17 30 -24 63 -25 53 -2 89 -13 89 -26 0 -14 -59 -10 -105 6 -61 22
-75 20 -75 -14 0 -22 6 -32 23 -37 l22 -8 -25 -7 c-20 -6 -15 -8 25 -10 28 -2
73 -4 100 -6 28 -2 60 -3 73 -3 85 4 122 1 155 -11 41 -15 49 -29 16 -29 -18
0 -19 -2 -5 -15 8 -8 24 -15 35 -15 12 0 21 -4 21 -8 0 -15 -115 -13 -135 3
-19 13 -18 14 20 15 30 0 36 3 25 10 -8 5 -11 10 -6 10 5 0 3 7 -4 15 -14 17
-85 21 -95 5 -4 -6 -11 -7 -17 -4 -6 4 -13 2 -17 -4 -8 -13 -27 -16 -89 -14
-28 1 -41 6 -36 13 3 6 20 9 36 7 16 -3 31 -1 34 4 3 4 -31 8 -75 8 l-81 0 0
-29 c0 -24 5 -29 31 -35 53 -10 92 -7 110 10 16 14 18 14 28 -3 7 -14 22 -20
58 -22 55 -3 55 -2 43 -20 -7 -12 -13 -12 -41 -1 -23 10 -34 11 -36 3 -3 -8
-14 -8 -35 -3 -16 5 -51 10 -77 11 -25 1 -53 6 -63 10 -15 8 -16 -4 -17 -130
-1 -81 2 -142 8 -145 11 -7 10 -46 -1 -46 -4 0 -8 -20 -8 -45 0 -41 2 -45 25
-45 14 0 25 -4 25 -9 0 -4 -11 -6 -25 -3 -15 2 -25 0 -25 -7 0 -7 19 -11 48
-11 43 1 46 2 28 15 -32 24 9 24 90 -1 41 -12 100 -14 302 -12 226 3 252 5
270 21 16 15 25 16 41 8 11 -6 28 -11 38 -10 16 0 16 1 -2 8 -15 6 -12 9 19
14 38 6 66 1 66 -13 0 -4 -11 -5 -25 -3 -15 3 -31 -1 -41 -12 -17 -16 -13 -17
72 -10 49 4 91 11 94 15 10 14 49 30 75 30 14 0 24 4 20 9 -3 5 3 12 12 14 10
3 3 5 -14 6 -18 0 -33 6 -33 12 0 6 -9 8 -21 4 -13 -5 -19 -3 -15 3 8 13 56
22 56 9 0 -6 18 -8 45 -5 24 3 42 2 39 -3 -3 -5 5 -9 18 -9 18 0 20 2 8 10
-26 16 0 25 73 24 45 -1 64 2 52 7 -11 4 -30 8 -43 8 -14 1 -21 5 -16 12 3 6
0 15 -7 20 -10 6 -11 9 -1 9 6 0 12 4 12 10 0 5 -28 8 -67 6 -50 -3 -63 -2
-49 6 17 10 46 12 131 10 58 -2 64 -2 129 -8 79 -8 147 3 139 22 -6 18 20 19
47 2 16 -10 25 -9 52 6 24 15 51 19 107 19 63 0 68 1 31 6 -25 4 -54 13 -65
20 -16 10 -16 11 -2 7 10 -3 26 3 37 14 20 20 66 28 55 10 -4 -6 6 -10 24 -10
16 0 33 4 36 10 3 5 18 11 33 11 25 2 25 2 4 6 -22 4 -23 5 -5 18 10 8 21 15
24 15 7 0 22 -40 20 -53 -1 -8 16 -9 46 -1 13 4 20 10 17 15 -3 5 -10 7 -15 4
-5 -4 -19 -3 -32 1 -19 7 -17 9 18 15 64 12 105 10 121 -6 9 -9 33 -15 57 -14
31 0 37 2 22 8 l-20 8 20 6 c11 3 0 3 -24 0 -39 -5 -44 -4 -38 11 6 16 2 17
-45 12 l-53 -6 37 14 c44 16 118 19 118 5 0 -5 18 0 41 11 28 15 50 19 70 15
17 -4 29 -2 29 4 0 5 -17 11 -37 14 l-38 3 32 8 c22 6 30 13 28 25 -2 12 3 17
18 17 13 -1 21 4 19 12 -1 6 5 12 14 12 8 0 12 5 9 10 -3 6 5 10 19 10 14 0
27 4 30 9 5 7 -29 8 -84 2 -13 -1 -13 -2 0 -11 12 -8 12 -10 1 -10 -8 0 -20 8
-28 18 -13 16 -14 15 -8 -5 5 -18 2 -20 -15 -16 -11 3 -23 9 -26 14 -7 13 -44
11 -44 -2 0 -6 -9 -8 -20 -4 -16 5 -20 2 -20 -19 0 -25 -15 -36 -22 -17 -2 6
-30 7 -73 2 -38 -5 -64 -9 -57 -10 15 -1 16 -21 1 -21 -7 0 -18 -8 -25 -17
-11 -15 -13 -16 -14 -2 0 8 5 20 12 27 9 9 9 12 0 12 -6 0 -15 -8 -21 -17 -5
-10 -20 -18 -33 -19 -12 -1 -34 -6 -48 -12 -17 -6 -29 -6 -37 0 -9 7 -13 7
-13 -1 0 -6 -11 -11 -24 -11 -25 0 -56 -23 -56 -41 0 -15 -43 -6 -57 11 -7 8
-13 10 -13 5 0 -22 -67 -48 -104 -41 -23 4 -36 3 -36 -4 0 -5 -7 -10 -15 -10
-8 0 -15 5 -15 11 0 6 -8 8 -19 4 -21 -6 -53 4 -46 15 3 4 37 7 76 6 88 -2
100 10 16 17 -42 3 -72 0 -91 -9 -16 -8 -38 -14 -49 -14 -12 0 -17 -5 -14 -14
4 -9 -1 -16 -11 -18 -9 -2 18 -10 61 -17 60 -11 83 -11 103 -2 28 12 44 7 44
-13 0 -9 -14 -14 -41 -14 -50 -1 -66 -12 -18 -13 19 0 43 -4 54 -9 17 -7 16
-9 -10 -10 -16 -2 -34 -2 -39 -1 -6 1 -27 3 -48 3 -30 0 -36 3 -28 13 21 25
-10 28 -33 3 -12 -13 -31 -28 -42 -33 -32 -13 -105 -13 -117 2 -6 7 -30 13
-54 13 -52 0 -56 10 -13 29 32 14 79 3 79 -19 0 -5 10 -10 23 -9 12 0 16 3 10
6 -24 9 -13 19 21 20 26 1 33 -3 29 -13 -7 -20 11 -17 38 5 23 19 24 20 4 28
-11 4 -46 8 -77 8 -62 -1 -77 9 -29 18 15 3 42 17 59 31 16 15 39 26 51 26 12
0 29 4 39 9 27 14 109 31 147 31 39 0 189 27 220 40 55 22 115 40 155 46 25 4
50 10 55 14 14 9 82 28 130 35 21 4 52 13 68 22 16 8 43 15 60 15 18 0 37 4
42 8 6 4 33 13 60 20 28 7 54 17 60 21 5 5 20 9 33 9 15 0 22 5 19 13 -6 18
-154 13 -176 -6 -9 -8 -38 -15 -66 -16 -27 -1 -53 -5 -58 -10 -5 -5 -15 -7
-21 -5 -6 2 -22 -5 -34 -16 -14 -14 -22 -16 -22 -8 0 23 33 43 90 55 60 13
139 27 155 28 6 0 15 3 20 6 6 4 38 7 73 8 62 2 63 2 57 -22 -4 -14 -2 -28 4
-31 6 -4 11 -2 11 4 0 8 9 10 24 6 17 -4 40 2 71 18 25 14 66 28 90 32 25 3
45 10 45 14 0 5 12 10 27 12 27 3 48 38 23 38 -6 0 -9 -4 -5 -9 9 -16 -14 -22
-37 -10 -13 6 -20 8 -16 4 4 -4 0 -14 -8 -23 -13 -12 -17 -13 -24 -2 -6 10
-13 8 -30 -8 -17 -16 -25 -18 -35 -9 -10 10 -10 13 4 19 17 8 -47 3 -92 -7
-20 -4 -26 -2 -22 5 10 16 56 33 90 33 22 -1 24 1 8 4 -35 7 -28 26 7 21 17
-3 33 -1 36 4 3 4 -10 8 -29 8 -19 0 -40 7 -48 16 -7 8 -21 13 -31 11 -10 -3
-18 -1 -18 3 0 4 -9 6 -20 3 -11 -3 -20 0 -20 6 0 6 5 11 10 11 6 0 10 7 10
15 0 13 -4 14 -22 3 -13 -7 -29 -11 -36 -9 -8 1 -19 -3 -27 -9 -17 -14 -29 3
-21 28 5 13 -1 22 -19 30 -36 17 -37 16 -13 -25z m-2100 -169 c19 -4 26 -10
23 -24 -2 -10 4 -21 13 -25 13 -5 14 -8 3 -14 -9 -6 -5 -10 13 -13 14 -3 23
-2 21 2 -3 5 15 10 39 11 32 3 42 1 39 -8 -3 -7 -19 -13 -37 -13 l-31 -1 35
-13 c19 -8 51 -19 70 -26 19 -7 42 -19 50 -26 12 -12 11 -14 -12 -14 -14 0
-31 7 -38 15 -17 21 -51 20 -43 -1 5 -13 0 -13 -33 4 -21 11 -68 23 -103 27
-73 8 -149 36 -116 42 40 8 105 35 105 44 0 6 -5 7 -10 4 -6 -3 -13 1 -16 9
-4 10 -18 16 -39 16 -19 0 -37 5 -41 11 -6 11 25 9 108 -7z m-43 -375 c19 -11
41 -27 49 -36 10 -10 28 -13 56 -11 50 6 98 -8 76 -22 -12 -7 -12 -12 -2 -22
6 -6 12 -16 12 -20 0 -16 -90 -8 -124 11 -23 13 -37 16 -44 9 -7 -7 -14 -4
-21 10 -9 18 -8 21 12 25 12 2 -8 5 -45 6 -43 0 -68 5 -68 12 0 8 15 10 45 7
49 -6 52 -4 30 18 -10 11 -25 13 -45 9 -18 -4 -30 -3 -30 4 0 8 17 15 55 20 6
0 25 -8 44 -20z m921 -99 c25 -16 6 -20 -106 -24 -60 -3 -117 -5 -127 -5 -17
-1 -17 -2 -2 -18 15 -15 24 -15 75 -5 62 13 85 9 94 -14 3 -9 11 -12 18 -8 7
4 5 -1 -4 -11 -20 -21 -53 -13 -44 11 7 17 7 17 -101 -2 -21 -4 -33 -2 -33 5
0 20 -47 32 -75 19 -29 -13 -33 -28 -7 -28 9 0 23 -9 30 -20 11 -17 10 -20 -7
-20 -10 0 -21 7 -25 15 -6 17 -53 20 -58 4 -4 -13 -72 -16 -108 -4 -24 8 -24
8 -5 16 29 11 47 11 40 -1 -9 -15 12 -12 28 4 8 8 25 12 43 9 19 -3 25 -1 16
5 -21 14 4 28 88 46 41 10 86 21 100 25 34 12 152 13 170 1z"/>
<path d="M1120 879 c7 -13 7 -25 1 -37 -7 -13 -6 -23 1 -30 9 -9 9 -12 -1 -12
-7 0 -9 -4 -6 -10 3 -5 19 -7 35 -3 23 4 30 2 30 -11 0 -9 -6 -16 -12 -16 -9
0 -8 -4 2 -10 8 -5 13 -10 10 -10 -39 -7 -69 -6 -64 1 3 5 1 9 -5 9 -21 0 -19
-17 2 -27 56 -25 91 -33 104 -22 7 6 20 9 28 5 8 -3 15 -1 15 5 0 10 16 10 75
-4 11 -2 14 -2 8 0 -38 13 9 31 86 34 26 1 29 3 12 6 -19 4 -21 7 -10 14 11 7
9 10 -8 15 -13 4 -23 9 -23 13 0 3 -35 6 -77 6 l-78 0 0 43 c0 41 -8 55 -18
30 -4 -10 -6 -10 -6 0 -1 7 -6 10 -12 7 -6 -4 -17 1 -24 11 -9 12 -14 14 -15
6 0 -7 -4 -10 -10 -7 -5 3 -19 8 -30 10 -17 3 -19 1 -10 -16z"/>
<path d="M1136 679 c3 -5 15 -9 27 -9 19 0 57 -30 57 -44 0 -2 -11 -7 -25 -10
-47 -12 -25 -23 54 -29 44 -3 87 -9 96 -15 12 -6 31 -6 54 1 20 5 65 12 100
16 63 6 63 6 42 25 -11 10 -18 23 -15 27 3 5 -2 9 -10 9 -8 0 -18 -4 -21 -10
-10 -16 -35 -12 -35 5 0 14 -3 14 -24 0 -17 -12 -30 -14 -43 -7 -30 15 -96 25
-88 13 8 -14 -35 -14 -71 -1 -26 10 -26 11 -8 25 10 8 14 15 9 15 -6 0 -15 -4
-21 -10 -5 -5 -24 -6 -46 -1 -22 5 -36 5 -32 0z"/>
<path d="M2480 360 l25 -7 -28 -12 c-16 -6 -54 -12 -85 -14 -46 -2 -57 -6 -56
-19 1 -15 -8 -17 -60 -16 -34 0 -71 -4 -83 -10 -14 -8 -31 -8 -54 -2 -34 10
-107 13 -79 3 8 -2 22 -7 30 -9 12 -4 12 -7 1 -13 -11 -7 -10 -12 1 -30 11
-19 19 -21 48 -16 19 3 64 8 100 11 36 3 72 12 80 19 9 8 38 19 65 25 28 5 86
23 130 39 44 17 94 33 110 36 27 7 28 8 10 15 -11 5 -56 8 -100 8 -52 0 -71
-3 -55 -8z"/>
<path d="M1715 220 c3 -5 15 -10 26 -10 11 0 17 -4 14 -10 -3 -5 -17 -10 -30
-10 -14 0 -29 -8 -35 -20 -9 -16 -8 -18 5 -14 8 4 15 10 15 15 0 5 14 9 31 9
17 0 28 -4 24 -10 -3 -5 2 -10 11 -10 10 0 26 -7 36 -17 15 -13 18 -13 18 -2
0 19 55 24 93 8 23 -10 30 -10 37 1 11 18 53 20 68 4 11 -12 9 -14 -10 -15
-13 -1 -27 -1 -32 0 -6 1 -20 -3 -33 -10 -18 -10 -26 -10 -35 -1 -7 7 -23 12
-38 12 -20 0 -22 -2 -10 -10 11 -7 0 -10 -38 -10 -36 0 -51 4 -46 11 4 8 -1 9
-16 4 -15 -5 -20 -4 -16 4 4 7 0 11 -12 11 -32 0 -34 -13 -5 -26 34 -15 11
-18 -37 -4 -31 8 -33 8 -17 -4 14 -11 15 -15 5 -20 -7 -3 3 -4 22 -1 19 2 41
1 48 -4 20 -12 -22 -23 -85 -21 -44 1 -52 -1 -47 -14 4 -11 0 -16 -13 -16 -26
0 -35 10 -22 26 8 9 6 12 -8 9 -145 -28 -139 -28 -167 -10 -21 14 -32 16 -49
7 -35 -17 -70 -26 -94 -23 -13 1 -33 -5 -45 -13 -16 -11 -18 -16 -8 -17 8 -1
38 -4 65 -6 76 -7 118 -7 144 2 17 6 22 5 17 -3 -14 -22 20 -12 44 13 24 25
54 33 65 16 3 -5 -9 -11 -27 -13 -66 -6 -25 -23 63 -26 72 -2 97 1 117 14 27
18 73 35 290 105 72 24 132 46 132 50 0 10 -153 21 -192 14 -57 -10 -150 -13
-141 -5 4 5 19 10 33 13 16 3 9 5 -18 6 -24 0 -41 5 -38 10 7 10 -17 21 -45
21 -11 0 -17 -4 -14 -10z"/>
<path d="M2703 208 c6 -16 0 -18 -41 -18 -36 0 -52 -5 -65 -21 -11 -13 -25
-18 -35 -15 -9 4 -6 -3 8 -14 l25 -20 -38 4 c-35 4 -37 3 -25 -12 7 -9 13 -18
14 -20 1 -2 11 2 22 9 17 10 23 10 37 -4 14 -14 14 -17 2 -17 -9 0 -17 -6 -20
-12 -3 -10 -7 -10 -19 -1 -12 10 -15 10 -15 -2 0 -8 4 -15 9 -15 4 0 8 -5 8
-11 0 -6 -9 -8 -21 -4 -15 5 -19 4 -15 -4 10 -16 43 -14 49 3 4 10 15 12 46 6
27 -5 44 -3 53 5 19 18 69 28 66 14 -2 -6 4 -14 12 -16 11 -3 12 -2 2 4 -10 7
-8 14 7 32 11 13 24 20 30 17 16 -10 25 16 9 28 -8 6 -18 21 -22 34 -4 12 -12
22 -17 22 -6 0 -7 5 -4 10 3 6 -4 10 -17 10 -13 0 -30 6 -37 13 -11 10 -13 9
-8 -5z"/>
<path d="M2386 66 c5 -12 -8 -14 -68 -13 -40 1 -90 -2 -112 -7 -35 -7 -37 -8
-20 -21 16 -11 20 -11 27 1 4 8 16 14 25 14 15 -1 15 -2 -1 -14 -10 -8 -15
-16 -10 -19 4 -2 80 -4 168 -5 88 0 152 2 143 5 -10 2 -18 9 -18 14 0 11 -25
39 -34 39 -3 0 -6 -7 -6 -15 0 -13 -3 -13 -20 -3 -11 7 -20 18 -20 25 0 8 -12
13 -30 13 -21 0 -28 -4 -24 -14z"/>
</g>
</svg>
