<?xml version="1.0" standalone="no"?>
<!DOCTYPE svg PUBLIC "-//W3C//DTD SVG 20010904//EN"
 "http://www.w3.org/TR/2001/REC-SVG-20010904/DTD/svg10.dtd">
<svg version="1.0" xmlns="http://www.w3.org/2000/svg"
 width="1182.000000pt" height="664.000000pt" viewBox="0 0 1182.000000 664.000000"
 preserveAspectRatio="xMidYMid meet">

<g transform="translate(0.000000,664.000000) scale(0.100000,-0.100000)"
fill="#000000" stroke="none">
<path d="M0 5024 c0 -1436 2 -1615 15 -1604 12 10 15 9 15 -4 0 -10 -7 -24
-15 -32 -22 -22 -22 -219 -1 -211 10 4 13 1 9 -9 -3 -7 -9 -14 -14 -14 -5 0
-9 -124 -9 -285 0 -157 3 -285 8 -285 4 0 18 7 30 16 27 18 83 12 102 -11 8
-9 32 -16 64 -16 29 -1 39 -4 24 -6 -16 -2 -28 -9 -28 -14 0 -5 11 -7 25 -3
14 3 31 1 39 -5 11 -9 17 -7 29 10 9 12 20 18 27 14 6 -4 34 -9 63 -11 29 -2
68 -7 87 -10 19 -3 55 -6 80 -7 30 -1 44 -6 43 -15 -2 -6 4 -12 13 -12 9 0 12
5 8 12 -5 8 15 10 79 5 48 -3 87 -2 87 2 0 11 59 20 66 10 2 -4 -2 -9 -8 -12
-25 -9 -1 -16 28 -8 30 8 47 41 21 41 -18 0 -29 24 -20 46 4 11 -1 22 -12 30
-17 13 -17 14 -2 14 9 0 17 5 17 10 0 6 15 10 34 10 19 0 38 5 41 10 3 5 21
10 40 10 19 0 46 5 62 11 15 6 54 11 86 11 31 -1 57 3 57 9 0 5 9 4 20 -3 15
-9 23 -10 28 -2 4 6 28 23 53 37 25 15 51 38 57 52 6 14 18 25 27 25 8 0 15 3
15 8 0 4 20 20 45 37 49 33 74 70 59 85 -18 18 -4 81 22 92 12 6 25 17 28 24
7 19 -14 30 -25 13 -6 -9 -9 -10 -9 -2 0 6 34 35 75 64 53 36 73 55 65 63 -12
12 -13 56 0 76 5 9 22 13 43 12 30 -2 35 1 35 20 0 13 3 33 7 46 7 21 5 23
-21 16 -28 -7 -28 -6 14 34 23 23 47 42 53 42 18 0 54 52 51 73 -2 10 1 24 8
31 6 8 11 30 12 50 1 28 5 36 20 36 23 0 24 26 1 39 -45 26 -47 29 -34 44 8
10 23 13 49 10 33 -4 42 -1 70 28 18 18 32 36 32 40 0 5 37 9 83 11 77 3 82 4
85 26 2 13 11 26 20 29 9 3 40 16 68 29 42 19 52 29 58 55 3 17 3 35 0 40 -3
5 3 9 13 9 14 0 15 2 4 9 -11 7 -10 10 5 14 10 3 2 5 -18 4 -36 -1 -81 22 -47
24 7 1 3 4 -11 8 -15 4 -24 14 -24 24 1 11 -6 17 -18 17 -10 0 -17 4 -13 9 3
5 1 12 -5 16 -5 3 -8 24 -7 45 2 36 3 38 16 23 12 -16 13 -12 9 28 -4 38 -2
46 11 45 9 0 20 -5 24 -11 5 -5 5 0 2 13 -5 19 -3 22 19 22 30 0 33 8 10 25
-15 11 -15 14 0 37 15 23 15 26 -5 46 -17 19 -18 23 -5 28 19 7 21 24 4 24 -7
0 -26 -7 -43 -16 -43 -24 -122 -17 -85 6 11 7 8 10 -13 10 -19 0 -27 4 -24 13
2 6 13 11 25 9 11 -2 23 1 26 7 3 5 15 7 25 4 26 -7 36 15 17 36 -9 9 -21 32
-27 49 -6 18 -15 32 -20 32 -15 0 -10 27 7 34 8 3 12 2 9 -3 -7 -13 10 -22 28
-15 11 4 14 16 10 45 -5 33 -3 39 13 40 18 0 18 1 -1 9 -14 6 -15 9 -5 10 10
1 9 4 -5 10 -17 7 -12 12 12 9 10 -1 21 31 22 64 1 34 24 59 54 59 41 0 122
-10 155 -21 25 -7 32 -7 32 4 0 8 7 11 20 8 11 -3 20 -12 20 -19 0 -8 10 -15
23 -15 12 -1 42 -3 67 -5 25 -2 52 -4 60 -5 8 0 51 -5 94 -10 54 -6 82 -6 86
1 10 16 80 25 80 11 0 -16 107 -15 112 1 3 9 28 13 77 13 39 0 75 5 79 10 8
11 322 17 322 7 0 -14 54 -10 68 5 12 12 16 12 23 1 7 -10 9 -10 9 0 0 6 9 12
20 12 11 0 20 -5 20 -12 0 -6 6 -3 14 8 13 17 17 17 37 6 13 -8 24 -10 28 -4
3 5 54 8 114 8 59 -1 107 2 107 6 0 4 10 6 23 4 12 -3 25 -5 28 -5 4 -1 9 -9
11 -19 4 -13 24 -24 69 -35 35 -9 66 -13 69 -9 8 12 74 13 90 2 13 -9 13 -11
0 -20 -13 -8 -12 -10 3 -10 11 0 21 9 24 20 3 11 10 17 15 14 5 -3 7 -12 4
-20 -3 -8 1 -14 9 -14 8 0 15 -4 15 -10 0 -5 20 -10 45 -10 25 0 45 -3 45 -8
0 -8 61 -38 73 -34 4 1 17 -3 29 -9 12 -6 38 -11 59 -11 64 1 53 -14 -21 -28
-71 -13 -107 -37 -97 -63 3 -8 0 -20 -6 -26 -8 -8 -7 -11 4 -11 8 0 19 4 24 8
27 23 113 32 220 22 141 -13 185 -20 185 -31 0 -5 12 -9 26 -9 28 0 54 -21 54
-43 0 -16 -26 -30 -40 -22 -4 3 -10 -4 -13 -15 -6 -22 -25 -24 -96 -11 -56 11
-286 -3 -403 -25 -71 -13 -97 -23 -134 -51 -43 -33 -46 -38 -41 -70 10 -59 20
-64 115 -62 74 2 86 0 99 -17 11 -15 15 -16 22 -5 6 9 10 10 13 1 2 -7 14 -2
32 15 27 25 33 26 86 20 36 -4 66 -14 79 -26 27 -25 35 -24 50 8 17 36 31 14
31 -49 l0 -47 -35 6 c-29 5 -41 1 -60 -17 -34 -32 -32 -43 15 -69 36 -20 45
-32 38 -45 -7 -12 49 -56 78 -62 18 -3 35 -12 38 -19 2 -7 27 -16 55 -20 l50
-7 12 -54 c9 -41 16 -54 31 -54 22 0 24 -18 3 -26 -8 -4 -15 -10 -15 -14 0
-12 83 15 142 48 29 15 61 27 72 24 12 -2 16 0 11 7 -3 6 -11 9 -16 6 -5 -4
-9 3 -9 14 0 12 -4 21 -10 21 -5 0 -10 -7 -10 -15 0 -20 -16 -19 -24 0 -4 10
3 19 19 25 32 12 48 44 47 99 -1 25 5 56 13 68 17 25 22 189 6 195 -10 3 -22
59 -26 123 -2 22 -3 44 -4 48 -1 5 -9 1 -18 -9 -17 -16 -18 -16 -21 -1 -3 15
-5 15 -18 3 -16 -17 -19 -30 -4 -21 11 7 14 -18 4 -28 -3 -3 -17 -1 -30 5 -27
13 -33 52 -8 62 9 3 12 11 8 18 -6 10 -5 10 8 0 19 -15 33 -1 41 42 6 34 -9
53 -48 60 -29 5 -80 35 -72 42 2 3 17 0 32 -6 21 -8 36 -8 57 1 29 12 58 7 58
-11 0 -5 -7 -10 -15 -10 -8 0 -15 -7 -15 -15 0 -8 4 -15 9 -15 5 0 16 -3 25
-6 12 -4 16 0 16 16 0 13 4 19 11 14 8 -4 8 0 0 15 -10 18 -9 21 7 21 10 0 23
-5 30 -12 14 -14 16 -62 2 -87 -7 -15 -3 -24 20 -44 19 -17 30 -22 34 -14 3 7
8 2 11 -10 4 -12 16 -25 26 -28 10 -4 20 -11 20 -16 1 -5 2 -13 3 -18 1 -11
63 -62 73 -60 27 5 53 -3 53 -16 0 -8 6 -16 13 -17 6 0 17 -2 22 -2 6 -1 25
-13 43 -26 19 -14 36 -24 38 -22 8 5 64 -29 64 -39 0 -6 7 -9 15 -5 8 3 21 -1
27 -10 27 -32 90 -89 106 -96 15 -6 15 -7 0 -7 -21 -1 -23 -8 -5 -25 6 -8 19
-23 27 -35 8 -11 22 -21 31 -21 17 0 39 -46 39 -81 0 -12 7 -19 20 -19 13 0
20 -7 20 -20 0 -11 4 -20 8 -20 5 0 14 -16 22 -35 8 -19 17 -35 22 -35 4 0 8
-11 8 -25 0 -21 5 -25 30 -25 23 0 30 -5 30 -19 0 -11 3 -27 7 -37 6 -16 7
-16 14 2 7 17 8 17 8 2 1 -12 9 -18 26 -18 28 0 35 -20 8 -20 -17 -1 -17 -1 0
-14 9 -7 17 -17 17 -22 1 -15 39 -56 47 -51 10 7 44 -18 42 -29 -5 -21 15 -43
42 -49 16 -4 29 -13 29 -21 0 -8 8 -14 18 -14 27 0 62 -29 62 -51 0 -11 4 -18
9 -15 10 7 62 -39 54 -48 -4 -3 3 -6 14 -6 18 0 35 -13 86 -68 9 -10 17 -24
17 -30 0 -7 7 -12 16 -12 13 0 15 -7 11 -36 -5 -27 -2 -37 11 -42 11 -4 18
-20 19 -41 1 -24 -1 -30 -8 -20 -12 19 -12 -3 1 -37 9 -23 9 -25 -4 -15 -9 7
-16 8 -20 2 -4 -5 3 -13 15 -16 17 -6 19 -9 8 -16 -12 -8 -12 -11 1 -19 14 -9
-8 -8 -92 5 -23 4 -28 1 -28 -15 0 -11 -4 -20 -8 -20 -4 0 -25 -15 -45 -34
-35 -32 -37 -33 -37 -11 0 18 -4 22 -20 18 -15 -4 -20 0 -20 13 0 16 -2 17
-10 4 -12 -20 -23 -7 -50 60 -41 102 -99 209 -125 230 -8 7 -15 18 -16 24 0 6
-16 31 -35 56 -18 25 -46 63 -60 85 -42 63 -292 303 -344 329 -25 13 -68 28
-95 34 -65 14 -232 26 -222 16 9 -9 13 -10 120 -19 42 -4 77 -11 77 -16 0 -5
-7 -9 -15 -9 -8 0 -15 -5 -15 -10 0 -6 10 -8 24 -4 13 3 27 1 31 -5 6 -11 0
-15 -48 -25 -15 -4 -25 -11 -22 -16 3 -6 -4 -10 -17 -10 -22 -1 -22 -1 -4 -15
19 -15 19 -15 -2 -15 -28 0 -28 -11 0 -35 14 -12 35 -18 55 -17 l33 3 -26 -26
c-33 -33 -21 -49 26 -35 18 5 35 8 38 6 2 -2 -7 -7 -20 -11 -13 -4 -53 -38
-90 -75 -37 -37 -101 -92 -143 -121 -41 -30 -75 -57 -75 -62 0 -12 149 94 214
153 89 81 109 92 46 26 -30 -32 -113 -103 -184 -157 -70 -54 -125 -99 -122
-99 21 0 294 203 313 233 5 7 21 23 38 37 28 24 28 24 -4 -15 -49 -58 -126
-127 -209 -187 -113 -82 -158 -126 -62 -61 112 76 151 106 229 178 l65 60 -54
-64 c-30 -35 -64 -68 -77 -74 -13 -5 -23 -13 -23 -17 0 -3 -41 -37 -90 -75
-50 -37 -88 -70 -86 -73 3 -2 22 9 43 25 21 16 49 36 63 45 14 9 58 44 99 78
40 34 71 56 69 49 -2 -8 -47 -49 -99 -92 -52 -43 -112 -94 -134 -113 l-40 -35
55 37 c70 47 133 97 189 148 25 23 39 32 33 21 -12 -24 -111 -113 -225 -203
-43 -34 -76 -62 -72 -62 5 0 167 119 224 165 14 11 38 33 53 49 15 15 28 25
28 22 0 -17 -37 -59 -83 -94 -29 -22 -61 -48 -72 -58 -11 -11 -46 -38 -77 -62
-31 -24 -63 -51 -70 -59 -14 -18 41 21 127 87 32 25 67 51 79 59 11 8 34 26
50 40 l30 26 -21 -27 c-11 -15 -40 -44 -64 -64 -113 -94 -139 -117 -135 -122
3 -2 31 18 63 45 67 57 111 88 118 81 3 -3 -15 -21 -39 -40 -68 -53 -128 -109
-123 -115 3 -2 22 11 44 29 72 63 111 89 116 75 4 -9 8 -8 16 3 5 8 8 17 6 20
-2 3 4 6 13 7 20 1 159 49 217 74 68 29 86 33 79 15 -3 -9 -16 -17 -28 -17
-16 -1 -17 -2 -4 -6 14 -3 15 -9 8 -28 -5 -14 -5 -27 0 -30 4 -3 10 0 12 7 2
6 15 13 29 14 l24 3 -24 -16 c-29 -21 -111 -57 -210 -92 -41 -14 -67 -27 -59
-29 9 -2 57 11 107 28 82 29 94 30 121 18 34 -14 41 -33 10 -25 -20 5 -28 -7
-10 -18 21 -13 -6 -37 -85 -75 -45 -22 -91 -40 -101 -40 -16 0 -17 -2 -4 -10
8 -5 25 -10 38 -10 24 0 28 -10 10 -28 -19 -19 -2 -25 34 -13 39 13 53 14 53
4 0 -16 17 -33 26 -28 5 4 9 1 9 -4 0 -6 -4 -11 -9 -11 -13 0 -19 -33 -10 -56
6 -17 19 -22 70 -27 34 -3 65 -11 69 -17 4 -7 27 -11 51 -10 61 3 67 1 46 -11
-13 -8 -17 -18 -13 -35 4 -14 2 -24 -4 -24 -5 0 -10 -6 -10 -12 0 -8 -32 -21
-77 -32 -43 -10 -91 -27 -108 -38 -16 -10 -44 -25 -62 -33 -17 -8 -34 -23 -37
-32 -3 -10 -19 -27 -36 -38 -17 -12 -30 -29 -30 -41 0 -28 -44 -52 -65 -34 -8
7 -13 16 -10 20 8 13 -35 20 -82 13 -46 -6 -55 -18 -23 -28 17 -5 18 -10 9
-27 -9 -17 -8 -23 5 -30 29 -16 18 -37 -24 -44 -41 -7 -58 -34 -21 -34 26 0
36 -17 20 -36 -10 -13 -10 -17 2 -25 8 -5 22 -9 31 -9 15 0 16 -4 6 -25 -6
-14 -14 -25 -18 -25 -3 0 -15 -6 -25 -14 -17 -12 -17 -16 -6 -30 11 -13 11
-20 3 -28 -7 -7 -12 -21 -12 -31 0 -11 -9 -21 -21 -24 -12 -3 -18 -11 -15 -19
3 -8 1 -14 -4 -14 -6 0 -10 -6 -10 -14 0 -13 -105 -36 -164 -36 -14 0 -26 -4
-26 -10 0 -8 74 -6 170 5 47 6 20 -9 -50 -26 -61 -15 -64 -16 -100 -19 -21 -2
-20 -3 10 -10 19 -5 57 -7 85 -4 44 4 46 3 20 -6 -16 -6 -61 -14 -99 -19 -92
-13 -103 -28 -16 -23 47 3 70 1 70 -7 0 -6 -3 -11 -7 -11 -57 -4 -120 -13
-126 -20 -5 -4 13 -11 40 -15 54 -9 54 -9 -69 -34 -32 -7 -58 -17 -58 -23 0
-6 12 -8 30 -4 19 3 29 2 25 -4 -3 -6 -17 -10 -31 -10 -14 0 -24 -6 -24 -14 0
-8 -17 -19 -37 -24 -34 -9 -32 -10 29 -8 37 2 65 -1 62 -5 -3 -5 -11 -9 -18
-9 -26 0 -157 -32 -152 -37 3 -3 48 2 101 12 59 10 110 14 133 10 35 -7 32 -8
-53 -27 -49 -10 -119 -24 -155 -29 -36 -6 -72 -15 -80 -21 -17 -10 -8 -9 165
15 147 21 185 24 185 16 0 -4 -15 -9 -32 -12 -18 -3 -73 -14 -123 -25 -49 -11
-138 -30 -198 -42 -59 -13 -105 -25 -103 -28 3 -2 65 5 138 17 73 12 147 23
163 26 17 2 45 7 64 10 33 6 34 5 27 -26 -3 -17 -6 -37 -6 -44 0 -16 -38 -27
-46 -13 -8 13 -24 -10 -24 -34 0 -11 8 -18 20 -18 17 0 18 -3 8 -19 -6 -10
-18 -17 -25 -14 -8 3 -13 -3 -13 -16 0 -12 -4 -21 -10 -21 -5 0 -10 -6 -10
-14 0 -16 -58 -28 -130 -27 -54 0 -120 -16 -120 -30 0 -6 -5 -7 -10 -4 -6 4
-16 2 -23 -3 -7 -5 -27 -13 -44 -17 -26 -5 -33 -12 -33 -31 0 -26 -4 -27 -130
-25 -30 1 -62 -3 -70 -9 -12 -7 -7 -10 20 -10 29 -1 32 -3 14 -10 -11 -4 -51
-7 -87 -5 -37 1 -67 -1 -67 -6 0 -5 26 -9 58 -10 31 0 80 -4 107 -9 41 -6 29
-8 -65 -9 -77 -1 -121 -5 -129 -14 -8 -7 -11 -7 -8 -1 4 7 -3 14 -18 16 -22 5
-24 3 -19 -21 14 -60 28 -76 69 -81 l40 -5 -55 -14 c-44 -11 -51 -16 -35 -22
17 -7 17 -8 -7 -8 -18 -1 -38 -14 -63 -44 -27 -30 -35 -36 -30 -19 7 25 3 27
-26 11 -14 -7 -18 -16 -14 -30 5 -16 1 -19 -27 -20 -18 0 -42 -4 -53 -8 -11
-5 -31 -4 -44 1 -36 13 -39 0 -3 -15 l30 -12 -29 -40 c-16 -21 -29 -46 -29
-55 0 -11 -15 -22 -40 -30 -22 -7 -40 -16 -40 -19 0 -3 -14 -12 -31 -20 -16
-7 -42 -31 -56 -52 -14 -21 -33 -39 -42 -39 -10 0 -12 -3 -5 -8 6 -4 13 -15
17 -24 5 -14 2 -16 -16 -9 -19 7 -31 -1 -82 -53 -33 -33 -58 -63 -57 -65 2 -2
-2 -7 -10 -12 -7 -5 -13 -14 -13 -21 0 -7 -13 -15 -30 -18 -16 -4 -49 -25 -71
-48 -23 -23 -51 -42 -63 -42 -11 0 -28 -12 -38 -26 -13 -21 -23 -25 -49 -22
-18 2 -30 0 -28 -4 3 -4 -2 -8 -10 -8 -9 0 -16 -4 -16 -10 0 -13 16 -13 43 1
23 11 -22 -32 -64 -62 -21 -15 -22 -18 -10 -47 l13 -32 1412 0 1412 0 30 31
c16 17 44 37 62 46 18 9 31 21 29 27 -5 12 20 66 29 66 4 0 4 -10 1 -22 -7
-27 18 -58 45 -58 15 0 18 5 12 23 -3 12 -7 22 -8 23 0 1 -10 6 -21 12 -19 11
-19 11 3 12 12 0 22 -4 22 -10 0 -5 7 -10 15 -10 31 0 47 -84 21 -118 -7 -11
-12 -8 -22 10 -12 23 -12 23 -11 -5 2 -18 7 -27 20 -27 9 0 17 5 17 12 0 9 3
9 12 0 14 -14 88 -16 88 -2 0 6 11 10 25 10 14 0 25 -4 25 -10 0 -6 41 -10
104 -10 90 0 105 2 108 17 2 13 14 17 46 18 23 1 42 -3 42 -7 0 -4 -19 -8 -42
-8 -48 0 -44 -11 6 -17 40 -4 51 8 51 54 0 32 -1 33 -45 33 -25 0 -54 -7 -64
-15 -11 -8 -30 -15 -43 -15 -13 0 -23 -4 -23 -10 0 -16 -30 -12 -36 5 -4 8
-12 15 -20 15 -8 0 -14 5 -14 10 0 6 11 8 25 4 17 -4 25 -2 25 7 0 10 14 14
43 15 23 1 32 0 20 -3 -24 -5 -53 -33 -34 -33 22 0 62 33 57 46 -4 10 4 14 27
13 26 0 28 -2 12 -9 -17 -6 -15 -9 16 -15 49 -9 102 -3 107 14 3 9 -2 11 -17
7 -11 -3 -29 -8 -40 -11 -12 -4 -21 1 -25 11 -8 21 4 34 33 37 22 1 22 2 4 17
-21 18 -28 40 -13 40 5 0 10 -6 10 -12 0 -7 5 -5 11 5 5 9 20 17 32 17 12 0
35 7 51 15 33 18 39 19 31 5 -3 -6 1 -7 9 -4 9 3 16 1 16 -5 0 -6 -13 -11 -29
-11 -16 0 -31 -5 -33 -10 -2 -6 -18 -11 -36 -13 -35 -2 -45 -17 -11 -17 11 0
17 -4 14 -10 -9 -14 7 -12 29 5 19 14 36 12 36 -4 0 -5 -15 -16 -32 -25 -28
-13 -29 -16 -11 -16 12 0 24 -3 27 -8 7 -11 -21 -45 -32 -38 -6 3 -8 -2 -5
-13 3 -10 0 -22 -6 -25 -6 -4 -11 -2 -11 3 0 6 -6 11 -14 11 -11 0 -12 -5 -3
-25 12 -25 27 -33 27 -14 0 5 5 7 12 3 7 -5 5 -11 -7 -21 -16 -11 -10 -13 53
-13 41 0 72 4 72 10 0 6 9 10 21 10 11 0 17 -4 14 -10 -10 -16 32 -11 49 6 26
25 19 33 -21 23 -45 -10 -120 -2 -148 17 -16 12 -17 14 -3 14 12 0 16 6 13 21
-3 14 0 19 9 16 8 -3 17 -2 22 3 5 4 34 4 64 -2 82 -15 130 -17 130 -6 0 5 17
8 38 6 21 -2 36 -8 35 -15 -2 -7 16 -11 52 -10 30 1 55 5 55 10 0 4 8 3 18 -2
9 -5 26 -13 37 -16 19 -7 19 -7 -3 -18 -16 -7 -33 -7 -62 3 -33 11 -50 11 -97
0 -31 -8 -51 -16 -44 -18 9 -3 9 -7 1 -17 -9 -11 -7 -14 7 -14 10 0 42 -3 71
-7 l52 -6 -10 26 c-7 21 -6 26 5 26 8 0 15 -7 15 -15 0 -8 5 -15 11 -15 5 0 8
-4 5 -8 -2 -4 72 -9 166 -11 107 -1 168 1 164 7 -3 6 1 13 10 16 24 9 28 7 14
-9 -11 -13 -8 -15 19 -15 21 0 30 4 25 11 -4 8 3 9 24 4 17 -3 33 -2 37 4 3 7
0 8 -9 5 -9 -3 -16 -1 -16 4 0 21 41 25 55 6 7 -11 11 -22 9 -26 -7 -11 8 -10
25 1 7 5 10 14 7 20 -4 6 0 11 9 11 11 0 15 -6 11 -18 -6 -16 0 -19 45 -21 32
-1 48 2 44 9 -3 5 -1 10 4 10 6 0 11 -5 11 -10 0 -7 352 -10 1065 -10 685 0
1064 4 1060 10 -3 6 -1 10 4 10 6 0 11 -4 11 -10 0 -6 52 -10 135 -10 124 0
136 2 147 20 17 27 43 27 28 0 -10 -19 -8 -20 40 -20 32 0 49 4 45 10 -3 5 -2
10 4 10 5 0 13 -5 17 -11 7 -11 51 -8 88 7 13 5 17 4 12 -4 -5 -9 88 -11 366
-11 243 0 375 4 379 11 4 7 13 6 27 -1 12 -6 77 -11 156 -11 l136 0 0 251 c0
246 0 250 -20 244 -13 -4 -20 -2 -20 6 0 7 3 9 7 6 3 -4 12 -2 20 4 18 16 19
265 1 272 -10 4 -10 6 0 6 17 1 17 207 0 214 -10 4 -10 8 -1 14 7 5 12 42 12
99 1 86 -1 92 -22 99 l-22 8 23 4 c19 4 22 10 22 58 0 51 -1 54 -27 58 l-28 4
28 2 27 1 0 1044 c0 581 -4 1046 -9 1048 -4 2 -12 13 -15 26 -6 16 -3 22 8 22
14 0 16 44 16 405 0 351 -2 406 -15 411 -8 4 -15 11 -15 16 0 6 6 5 15 -2 13
-11 15 118 15 1154 l0 1166 -5910 0 -5910 0 0 -1616z m4820 -769 c0 -19 4 -35
9 -35 5 0 12 -30 16 -67 3 -38 9 -78 12 -90 4 -19 1 -23 -17 -23 -13 0 -24 8
-27 19 -3 11 -12 21 -21 24 -24 6 -51 59 -34 64 7 3 12 23 12 51 0 66 9 92 31
92 15 0 19 -7 19 -35z m5973 -582 c10 -25 15 -57 13 -93 -2 -30 0 -60 5 -66
10 -12 -21 -54 -40 -54 -16 0 -14 60 3 66 8 3 11 15 8 30 -5 28 -22 33 -22 5
0 -20 -30 -38 -39 -22 -3 5 -17 11 -31 13 -20 2 -24 8 -22 28 4 46 23 78 49
85 27 7 59 -13 35 -22 -6 -3 -10 -9 -6 -14 3 -5 0 -9 -5 -9 -6 0 -11 -7 -11
-16 0 -11 6 -14 23 -9 37 12 43 23 24 54 -18 31 -22 61 -9 61 5 0 16 -17 25
-37z m-4937 -358 c-11 -8 -26 -15 -33 -15 -20 0 -16 -37 7 -58 20 -18 19 -18
-23 -37 -98 -43 -231 -85 -238 -74 -8 13 21 50 33 43 4 -3 5 1 2 9 -3 8 2 20
10 27 9 7 14 15 12 19 -5 8 71 43 164 74 89 30 91 31 66 12z m954 -1595 c5 8
24 10 64 5 46 -6 54 -10 45 -21 -9 -11 -7 -14 8 -14 11 0 23 -3 27 -7 3 -4 29
-6 57 -4 27 1 55 -2 62 -7 7 -5 26 -12 42 -16 27 -7 28 -6 12 6 -16 12 -7 13
62 5 44 -6 78 -13 76 -17 -3 -5 2 -11 11 -14 11 -4 15 -2 11 7 -4 10 15 11 92
5 53 -5 121 -13 152 -18 30 -6 76 -10 102 -10 26 0 47 -3 47 -7 0 -5 -25 -6
-56 -5 -39 3 -54 1 -50 -7 4 -6 27 -11 52 -11 28 0 43 -4 39 -10 -8 -13 1 -13
24 1 13 9 23 9 37 1 18 -11 18 -11 -1 -12 -17 0 -17 -2 -5 -10 11 -7 3 -10
-30 -11 -38 -1 -41 -2 -20 -9 21 -7 18 -8 -20 -10 l-45 -2 33 -9 c25 -8 41 -6
65 6 20 10 42 13 61 9 l30 -6 -32 -29 c-33 -29 -33 -29 -10 -38 49 -19 138
-34 177 -28 23 3 44 1 47 -4 3 -5 10 -7 15 -4 5 4 9 1 9 -5 0 -6 14 -8 41 -4
26 4 49 2 65 -6 20 -11 27 -11 37 0 10 10 8 12 -10 7 -13 -3 -26 -1 -29 4 -3
5 -25 9 -50 9 -24 0 -44 4 -44 9 0 5 -7 17 -16 25 -9 9 -11 16 -4 16 6 0 8 5
5 10 -3 6 -17 10 -31 10 -14 0 -22 -4 -19 -10 3 -5 2 -10 -4 -10 -5 0 -13 5
-16 10 -5 8 -11 8 -20 0 -9 -7 -16 -6 -26 7 -12 15 -12 16 2 11 9 -3 22 -2 30
3 10 6 7 9 -13 9 -24 0 -46 15 -37 25 11 10 44 8 42 -2 -2 -8 7 -13 20 -13 13
0 27 -4 32 -9 11 -10 103 -27 94 -17 -3 3 -23 15 -45 26 -38 20 -38 20 -8 15
17 -3 58 -8 90 -9 33 -2 66 -6 74 -9 33 -12 60 -15 54 -6 -3 5 6 10 20 10 14
1 32 2 39 3 6 1 17 -1 22 -5 20 -13 71 -22 145 -25 41 -1 86 -7 100 -14 24
-10 23 -10 -7 -6 -21 4 -38 0 -48 -10 -8 -9 -15 -11 -15 -5 0 6 -5 11 -11 11
-5 0 -7 -4 -4 -10 3 -5 0 -10 -9 -10 -8 0 -16 4 -18 8 -4 11 -78 3 -78 -8 0
-9 104 -25 136 -22 12 1 32 -2 45 -8 23 -10 23 -10 -3 -5 -16 3 -28 1 -28 -5
0 -5 7 -10 15 -10 8 0 15 -7 15 -15 0 -8 5 -15 10 -15 6 0 10 5 10 10 0 6 17
9 38 8 l37 -1 -35 -5 -35 -4 45 -14 c34 -10 46 -10 53 -1 7 9 10 9 14 0 7 -18
24 -16 17 2 -7 18 -1 18 45 5 40 -11 49 -7 30 12 -7 8 -25 12 -40 10 -24 -4
-145 16 -137 23 2 1 55 -1 118 -6 63 -4 140 -9 170 -10 30 -1 66 -4 80 -7 22
-5 23 -6 5 -12 -11 -4 -31 -4 -45 0 -38 10 -120 0 -120 -15 0 -16 -38 -26 -44
-11 -2 6 -5 3 -5 -7 -1 -14 6 -17 37 -16 20 1 69 -1 107 -4 l70 -5 -55 10
c-98 17 -101 28 -5 23 50 -3 99 -8 110 -12 11 -3 29 -7 40 -7 11 -1 19 -7 17
-14 -1 -7 2 -12 8 -12 5 0 10 7 10 14 0 12 6 13 28 6 27 -9 132 -19 267 -25
66 -4 154 -15 235 -30 26 -5 31 -4 20 4 -13 9 -13 11 3 11 9 0 17 -8 18 -17 0
-11 3 -13 6 -5 2 6 11 12 19 12 9 0 13 -4 9 -9 -3 -5 7 -9 22 -9 16 0 47 -5
69 -11 23 -6 49 -8 58 -5 9 3 16 2 16 -4 0 -12 -51 -23 -65 -14 -11 7 -17 8
-103 15 -34 3 -60 2 -58 -2 6 -9 -20 -12 -53 -5 -20 4 -22 7 -10 15 11 7 9 9
-8 9 -12 0 -30 3 -40 6 -15 5 -16 4 -3 -5 12 -10 9 -11 -15 -7 -16 2 -42 7
-57 11 -20 5 -28 3 -28 -6 0 -7 -11 -3 -27 12 -19 17 -25 19 -20 7 4 -13 2
-16 -11 -11 -9 3 -21 9 -27 13 -18 13 -165 21 -165 9 0 -6 -10 -9 -22 -7 -13
2 -22 9 -21 15 4 17 -40 0 -45 -17 -3 -9 1 -11 13 -6 10 3 23 2 30 -4 6 -5 51
-11 98 -12 48 -2 87 -6 87 -10 0 -5 -5 -8 -11 -8 -6 0 -8 -7 -5 -17 4 -10 4
-14 0 -10 -4 4 -13 -1 -20 -11 -7 -9 -15 -14 -19 -11 -3 4 2 14 11 23 9 9 14
19 11 22 -2 3 -47 7 -98 9 -52 2 -128 7 -169 10 -70 6 -74 5 -55 -10 19 -16
16 -16 -50 -10 -74 8 -80 10 -80 28 0 5 -5 12 -11 14 -7 2 -10 -6 -9 -22 3
-20 -1 -25 -18 -24 -12 1 -33 5 -47 10 -20 7 -17 7 13 3 20 -3 37 -1 37 4 0
11 -30 22 -80 28 -19 2 -41 6 -47 9 -7 2 -13 0 -13 -5 0 -6 -5 -10 -10 -10 -6
0 -9 6 -8 13 2 7 -14 14 -42 18 -25 3 -35 7 -22 7 15 1 21 6 16 14 -5 8 -2 9
12 4 10 -5 33 -10 49 -12 17 -2 53 -8 80 -14 81 -16 240 -21 226 -7 -7 7 -31
12 -54 12 -135 2 -157 5 -157 23 0 14 -2 14 -9 3 -8 -13 -18 -13 -68 -1 -32 7
-67 14 -78 14 -11 1 -26 5 -32 9 -9 5 -13 3 -13 -7 0 -23 -27 -20 -33 4 -3 13
-13 20 -29 19 l-23 -1 25 -8 c23 -7 23 -8 -9 -9 -25 -1 -32 -5 -27 -16 6 -17
-19 -21 -29 -5 -3 6 -1 10 5 10 6 0 8 5 5 10 -4 6 -11 8 -16 5 -5 -4 -9 -2 -9
3 0 13 -33 10 -42 -3 -4 -5 -40 -9 -79 -9 -45 1 -67 -1 -58 -7 12 -7 11 -9 -1
-9 -37 0 -58 12 -53 31 3 10 9 16 14 13 5 -3 6 -10 3 -16 -5 -8 -1 -9 10 -5
10 4 29 7 42 7 14 0 22 4 19 10 -3 6 -17 7 -30 4 -16 -4 -26 0 -33 11 -8 16
-10 16 -24 -4 -12 -17 -22 -20 -42 -15 -32 8 -34 -3 -3 -17 21 -9 21 -9 -3 -4
-14 2 -36 5 -50 5 l-25 1 28 15 c15 8 27 17 27 20 0 2 -9 0 -20 -6 -11 -6 -28
-10 -38 -8 -9 2 -16 -3 -15 -9 3 -15 -48 -18 -63 -3 -13 13 -153 32 -186 24
-17 -3 -28 -12 -28 -22 0 -12 3 -13 12 -4 17 17 31 15 24 -3 -3 -10 1 -15 14
-15 10 0 21 -4 24 -9 3 -4 17 -7 31 -6 14 2 25 -1 25 -6 0 -5 4 -9 9 -9 5 0 6
10 3 23 -5 20 -4 21 10 6 9 -8 49 -21 89 -28 41 -7 97 -16 124 -21 28 -5 71
-12 97 -15 39 -5 45 -9 35 -20 -8 -8 -18 -10 -29 -4 -9 5 -32 9 -50 8 -26 0
-29 -2 -14 -8 18 -7 18 -8 3 -14 -23 -9 -21 -34 3 -40 22 -6 27 -23 8 -29 -7
-3 -24 -1 -38 3 -14 4 -18 8 -10 8 12 1 13 3 1 10 -9 6 -10 14 -5 22 14 22 11
59 -4 59 -7 0 -10 -4 -7 -10 3 -5 -1 -10 -9 -10 -8 0 -18 9 -21 21 -5 14 -10
18 -17 11 -12 -12 -50 -4 -42 9 3 5 0 9 -5 9 -6 0 -11 -4 -11 -10 0 -5 -7 -10
-17 -10 -29 0 -9 -8 36 -14 24 -3 47 -9 50 -12 3 -3 -14 -4 -39 -1 -25 3 -58
7 -75 7 -23 1 -26 3 -12 9 32 12 -2 29 -73 35 -47 5 -59 4 -42 -3 12 -6 22
-12 22 -14 0 -2 -32 -1 -62 2 -4 1 -5 7 -2 15 7 19 -61 29 -89 13 -12 -7 -23
-12 -25 -13 -1 -1 0 -8 4 -17 3 -10 24 -18 57 -22 29 -4 90 -13 137 -20 117
-19 179 -23 183 -12 1 5 15 7 31 5 l28 -3 -20 -25 c-19 -22 -21 -23 -22 -6 0
15 -3 16 -15 6 -11 -9 -32 -11 -73 -6 -31 4 -86 10 -122 12 -36 2 -66 9 -68
14 -2 6 -8 10 -13 10 -6 0 -7 -5 -3 -11 4 -8 -11 -10 -51 -6 -39 3 -61 10 -67
21 -5 9 -16 16 -23 16 -8 0 -15 5 -15 10 0 6 -4 10 -10 10 -5 0 -7 -6 -4 -14
9 -24 -17 -31 -119 -32 -58 -1 -103 -6 -110 -13 -6 -6 -19 -11 -29 -11 -10 0
-18 -4 -18 -8 0 -5 -10 -13 -22 -18 -13 -6 -18 -9 -12 -8 6 1 17 -2 25 -7 10
-6 10 -9 2 -9 -7 0 -13 -4 -13 -10 0 -16 22 -12 36 8 13 16 13 16 14 -1 0 -14
5 -17 20 -12 11 4 20 2 20 -4 0 -6 -14 -11 -32 -11 -94 0 60 -28 172 -31 36
-1 68 -6 72 -12 3 -6 31 -12 62 -15 31 -2 54 -7 52 -11 -2 -3 16 -7 41 -8 25
-1 50 -6 56 -12 6 -6 24 -11 41 -11 36 0 32 -5 -11 -13 -24 -5 -33 -3 -33 7 0
8 -14 16 -30 18 -19 3 -29 1 -27 -6 2 -6 11 -10 20 -8 11 2 15 -2 11 -12 -5
-14 -25 -12 -49 4 -5 3 -30 8 -55 9 -25 2 -60 10 -78 18 -19 9 -54 15 -78 15
-24 -1 -44 2 -44 6 0 5 -11 14 -25 20 -19 9 -26 8 -32 -2 -4 -8 -19 -16 -33
-19 -18 -3 -15 -5 13 -6 23 0 36 3 32 9 -3 6 -2 10 4 10 16 0 22 -17 8 -28 -9
-8 -82 -9 -82 -2 0 1 -11 3 -25 5 -14 2 -52 8 -85 14 -33 5 -96 13 -140 16
-44 3 -93 10 -110 14 -65 20 -87 22 -79 10 5 -9 0 -10 -18 -6 -13 4 -47 9 -74
12 -27 4 -53 11 -59 17 -7 8 -5 9 8 5 9 -4 17 -2 17 3 0 6 -13 10 -29 10 -16
0 -42 5 -58 11 -19 7 -29 7 -31 0 -2 -6 -8 -11 -13 -11 -6 0 -8 4 -5 9 6 9
-16 21 -39 21 -13 0 -29 -39 -17 -41 80 -9 93 -9 87 0 -3 6 1 11 9 11 18 0 21
-17 7 -39 -5 -8 -14 -10 -21 -6 -8 5 -11 3 -8 -6 3 -8 13 -13 22 -13 9 1 16
-2 16 -6 0 -4 10 -8 23 -8 47 -1 90 -14 76 -23 -11 -7 -10 -9 4 -9 9 0 17 -3
17 -7 0 -5 14 -16 31 -25 16 -10 27 -14 24 -9 -3 5 3 12 12 14 11 3 7 5 -10 6
-30 1 -61 24 -49 35 10 10 -19 26 -48 26 -14 0 -32 5 -40 10 -10 7 6 9 55 7
51 -2 70 -7 70 -17 0 -7 7 -15 15 -17 13 -4 13 -3 0 7 -11 8 -1 9 40 5 39 -4
51 -2 40 5 -11 7 -11 10 -2 10 7 0 15 -6 18 -13 3 -8 17 -12 37 -10 20 1 13
-2 -18 -10 -47 -12 -49 -14 -28 -25 32 -18 54 -15 46 5 -4 11 -3 14 6 9 20
-13 66 -15 82 -4 12 8 11 9 -2 5 -9 -3 -22 -1 -30 5 -10 7 -2 8 26 4 22 -3 55
-6 74 -6 59 0 22 -17 -44 -20 -25 -1 -27 -3 -11 -9 14 -5 16 -10 8 -15 -7 -4
-17 -4 -22 -1 -6 3 -17 -1 -26 -9 -14 -14 -12 -15 15 -10 16 3 51 -1 78 -9 26
-8 61 -18 76 -21 17 -4 25 -11 21 -18 -5 -7 1 -9 20 -4 20 5 26 3 21 -5 -9
-14 12 -29 43 -29 12 0 22 -4 22 -8 0 -5 10 -14 23 -20 21 -10 20 -11 -10 -11
-17 -1 -35 -6 -38 -11 -4 -6 -13 -7 -23 -1 -9 4 -24 6 -32 3 -13 -5 -13 -3 -1
11 9 12 10 17 2 17 -6 0 -14 -6 -17 -14 -3 -8 -13 -12 -25 -9 -16 5 -18 8 -7
15 8 6 5 7 -12 2 -14 -4 -28 -11 -31 -16 -8 -13 -20 -12 -29 1 -5 9 -44 16
-112 21 -5 0 -8 5 -8 10 0 7 23 9 60 6 32 -2 62 -1 65 2 9 9 47 13 42 5 -3 -5
11 -9 30 -10 33 -2 34 -1 16 12 -15 11 -46 13 -123 11 -57 -2 -110 0 -119 4
-28 15 -82 29 -76 21 3 -5 -4 -7 -15 -4 -11 3 -18 8 -16 12 3 4 -23 20 -56 35
-49 24 -64 27 -79 18 -10 -7 -30 -12 -43 -12 -16 0 -26 -7 -31 -22 -4 -14 -8
-18 -12 -10 -2 6 -14 12 -26 12 -12 0 -34 6 -49 14 -19 10 -29 11 -37 3 -9 -9
0 -15 36 -24 l48 -12 -50 4 c-27 3 -54 10 -59 15 -6 6 -27 10 -47 10 -21 0
-41 4 -44 10 -4 6 9 7 34 4 22 -3 48 -1 58 5 15 9 14 10 -12 11 -41 0 -110 20
-99 28 5 4 15 19 23 35 14 27 31 36 31 17 0 -5 10 -10 22 -10 l21 0 -21 19
-22 18 25 52 c14 28 29 51 35 51 5 0 7 6 4 14 -7 17 35 43 45 29 3 -6 27 -9
54 -8 26 1 47 -1 47 -6 0 -14 70 -22 96 -10 21 9 24 8 24 -10 0 -19 4 -20 58
-13 59 7 81 14 44 14 -11 0 -28 7 -36 16 -15 15 -21 8 -17 -18 0 -5 -5 -8 -13
-8 -19 0 -29 31 -14 43 10 6 9 8 -3 4 -9 -3 -22 0 -29 6 -10 9 -12 8 -7 -5 5
-15 0 -18 -33 -18 -22 0 -40 5 -40 10 0 6 -15 10 -34 10 -19 0 -38 5 -41 10
-3 6 -15 10 -27 10 -14 0 -18 5 -14 15 3 10 -1 15 -13 15 -11 0 -21 -6 -24
-12 -2 -7 -8 5 -11 27 -4 22 -12 53 -17 69 -5 16 -7 31 -5 33 9 10 148 -11
161 -23 7 -8 26 -14 41 -14 46 0 95 -22 89 -40 -3 -9 1 -8 10 4 8 11 15 23 15
27 0 10 74 -2 78 -13 2 -5 19 -6 37 -2 19 3 51 -1 78 -10 26 -9 54 -13 63 -9
12 4 15 3 10 -5 -5 -8 4 -12 31 -12 31 0 39 4 40 20 1 11 -2 22 -8 25 -5 4 -9
1 -9 -5 0 -8 -11 -9 -32 -4 -18 4 -45 8 -61 9 -15 1 -30 5 -35 10 -4 4 3 4 16
1 13 -5 22 -3 22 3 0 6 -10 12 -22 12 -29 2 -39 4 -58 11 -8 4 -22 9 -30 11
-8 3 -4 6 11 6 14 1 30 -4 37 -11 8 -8 12 -9 12 -1 0 6 10 9 23 6 18 -4 19 -3
7 6 -8 6 -35 11 -59 11 -34 0 -42 3 -38 15 5 11 -2 13 -29 11 -27 -2 -33 1
-29 12 4 10 0 12 -11 8 -9 -4 -22 -2 -29 4 -9 8 -14 6 -19 -5 -3 -10 1 -15 13
-15 10 0 25 -8 32 -17 12 -15 12 -16 -4 -10 -10 4 -29 7 -43 7 -14 0 -22 5
-19 13 4 8 -7 13 -32 14 -28 2 -34 0 -23 -7 8 -5 10 -10 4 -10 -6 0 -11 -7
-11 -15 0 -18 9 -19 24 -4 7 7 14 6 24 -3 8 -8 40 -15 73 -16 33 -1 65 -7 72
-13 7 -6 18 -8 24 -4 5 3 18 -1 27 -11 17 -16 15 -17 -37 -10 -30 4 -58 13
-62 19 -4 6 -10 8 -14 4 -4 -4 -13 -2 -19 3 -16 14 -45 2 -45 -18 0 -12 -5
-11 -24 7 -14 13 -29 20 -35 17 -5 -4 -12 -2 -16 4 -3 5 -19 10 -36 10 -16 0
-29 5 -29 10 0 6 -11 10 -24 10 -14 0 -31 7 -40 15 -8 8 -17 15 -20 15 -3 0
-6 -7 -6 -15 0 -11 -11 -15 -42 -14 -24 0 -37 3 -30 6 9 3 10 9 2 18 -6 7 -7
31 -4 58 6 42 9 46 30 43 13 -3 26 -1 29 4 3 5 -9 10 -27 12 l-33 3 0 58 c0
31 -3 57 -7 57 -5 0 -8 4 -8 8 0 5 57 0 126 -11 96 -14 128 -16 134 -7z m777
-675 c13 -13 13 -15 -1 -15 -19 0 -22 -30 -3 -31 6 0 26 -2 44 -5 27 -3 31 -1
26 14 -6 15 -5 15 11 3 22 -18 188 -20 194 -2 2 7 14 5 35 -6 27 -15 29 -18
12 -21 -10 -2 -21 1 -23 7 -2 7 -10 8 -21 2 -9 -5 -40 -8 -69 -7 -41 2 -50 0
-41 -10 6 -7 18 -10 27 -7 13 5 14 3 6 -6 -9 -10 -19 -9 -44 4 -19 10 -36 13
-41 8 -9 -9 -95 5 -130 21 -9 4 -40 5 -70 3 -31 -3 -70 1 -93 9 -29 11 -42 11
-52 3 -9 -8 -14 -8 -14 -1 0 6 -12 13 -27 16 -16 2 26 3 92 2 124 -3 145 -1
145 15 0 6 -4 7 -10 4 -5 -3 -17 -2 -26 3 -11 6 -6 9 21 10 21 1 43 -5 52 -13z
m-1115 -76 c-3 -11 -1 -12 9 -1 15 14 49 16 49 3 0 -5 -6 -12 -12 -14 -7 -3
-3 -6 10 -6 13 -1 21 -5 18 -9 -3 -5 9 -6 26 -4 21 3 29 1 24 -7 -5 -7 0 -11
13 -11 11 0 23 5 26 10 3 6 16 10 28 10 18 0 19 -2 7 -10 -13 -9 -13 -11 -1
-19 8 -5 21 -7 28 -4 12 5 12 7 1 14 -7 5 4 6 27 2 51 -7 58 -13 17 -13 -18 0
-32 -5 -32 -11 0 -6 8 -8 19 -4 11 3 22 1 26 -5 3 -6 10 -8 15 -5 5 3 24 -3
42 -13 20 -12 47 -18 68 -16 l35 3 -31 -8 c-17 -4 -37 -11 -44 -16 -9 -5 -11
-4 -6 3 5 8 -3 10 -26 6 -25 -4 -29 -3 -18 5 8 6 12 11 8 11 -3 0 -13 3 -21 6
-12 4 -14 0 -10 -15 4 -17 2 -20 -11 -15 -9 3 -13 10 -10 16 4 6 -7 8 -26 4
-18 -2 -40 -1 -49 3 -34 17 -79 28 -104 25 -15 -1 -27 0 -27 4 0 15 -61 34
-88 26 -25 -7 -24 -8 17 -15 69 -13 72 -18 6 -12 -33 3 -58 3 -55 0 9 -10 262
-70 408 -98 34 -6 62 -16 62 -21 0 -5 -4 -7 -8 -4 -21 13 -360 75 -380 69 -23
-6 -102 23 -102 37 0 5 13 22 29 39 16 17 25 31 20 31 -5 0 -9 12 -9 26 0 19
4 25 18 22 9 -2 16 -11 14 -19z m931 -17 c-2 -7 4 -12 12 -12 8 0 15 -6 16
-12 0 -10 2 -10 5 -1 3 7 12 9 20 6 8 -3 14 0 14 7 0 6 -10 10 -22 8 -11 -2
-23 2 -25 9 -3 9 4 10 25 4 16 -5 46 -7 68 -5 29 3 35 2 24 -6 -11 -8 -2 -10
35 -6 28 3 41 3 30 0 -43 -11 -50 -15 -38 -22 6 -4 13 -16 16 -27 4 -18 5 -18
6 3 1 24 20 29 39 10 9 -9 12 -9 12 0 0 19 20 14 21 -5 0 -16 1 -16 8 1 7 18
8 18 14 3 3 -9 11 -17 17 -17 6 0 9 4 5 9 -3 6 4 15 15 21 13 7 20 7 20 0 0
-5 -4 -10 -9 -10 -5 0 -8 -11 -7 -25 1 -29 0 -29 27 -12 17 10 22 9 33 -5 7
-10 21 -18 32 -18 17 0 17 0 -1 13 -16 13 -15 14 13 9 18 -2 32 -9 32 -14 0
-5 8 -9 18 -8 9 1 28 -1 40 -5 18 -6 20 -10 10 -16 -10 -6 -10 -11 0 -21 9 -9
12 -9 12 0 0 7 8 12 18 12 9 0 13 -4 7 -8 -12 -8 -18 -32 -8 -32 3 0 15 8 25
17 12 10 22 13 26 8 4 -6 19 -16 35 -24 39 -20 34 -31 -15 -30 -29 0 -37 3
-25 8 17 6 18 8 3 21 -13 10 -20 10 -28 2 -20 -20 -58 -15 -58 8 0 11 -2 20
-4 20 -2 0 -13 3 -23 7 -16 6 -17 5 -3 -12 14 -17 13 -18 -22 -11 -37 7 -44 2
-39 -26 3 -21 -19 -4 -31 22 -7 17 -16 30 -20 30 -4 0 -5 6 -2 14 3 8 1 17 -5
21 -6 3 -11 1 -11 -5 0 -7 -7 -10 -15 -6 -8 3 -15 1 -15 -4 0 -6 -9 -10 -20
-10 -13 0 -20 7 -20 18 0 10 -7 19 -15 19 -8 0 -13 -3 -10 -5 10 -10 -53 -31
-74 -25 -14 3 -21 1 -21 -8 -1 -9 -4 -8 -11 4 -6 10 -17 16 -27 13 -9 -3 -24
-1 -32 4 -12 8 -9 10 11 10 18 0 29 8 37 24 12 27 4 39 -36 49 -20 5 -22 3
-11 -11 7 -9 20 -23 28 -29 13 -11 13 -13 -3 -13 -9 0 -24 7 -32 15 -15 14
-44 11 -44 -6 0 -5 -9 0 -20 11 -11 11 -30 20 -43 20 -31 0 -38 9 -26 32 11
20 46 20 42 0z m-940 -136 c20 2 37 -1 37 -5 0 -5 21 -12 46 -16 53 -8 94 -24
94 -37 0 -5 4 -6 10 -3 5 3 19 1 31 -6 12 -6 42 -13 66 -15 26 -3 52 -13 63
-24 22 -22 44 -27 37 -7 -2 6 -11 11 -21 9 -9 -2 -16 2 -16 8 0 5 6 10 14 10
20 0 48 -29 40 -42 -5 -7 17 -9 67 -4 45 4 80 2 89 -4 11 -7 1 -8 -32 -4 -78
11 -55 -3 27 -17 42 -6 78 -15 80 -20 8 -11 -13 -21 -27 -13 -6 4 -25 9 -42
11 -17 2 -42 6 -56 7 -14 2 -25 5 -25 6 0 1 -9 4 -20 5 -11 2 -45 8 -75 14
-30 7 -71 12 -90 13 -19 0 -39 3 -45 6 -5 4 -16 7 -25 8 -31 5 -90 29 -90 37
0 5 -4 5 -10 2 -23 -14 -9 -31 23 -28 30 3 31 3 7 -7 -19 -9 -21 -13 -11 -20
8 -4 21 -4 30 1 11 7 33 4 70 -9 39 -14 49 -21 35 -25 -14 -3 -11 -5 9 -6 15
0 27 -6 27 -12 0 -6 -7 -8 -16 -5 -9 3 -29 6 -45 6 -29 0 -40 15 -16 23 6 2 1
2 -13 0 -14 -3 -28 -9 -31 -14 -10 -16 -54 0 -64 24 -6 12 -23 28 -38 35 l-29
14 34 23 c18 12 40 20 48 17 8 -3 12 -2 8 2 -3 4 -17 9 -30 11 -12 1 -27 4
-33 6 -5 2 -11 0 -12 -6 -1 -5 5 -9 14 -7 13 3 13 1 2 -11 -10 -11 -19 -12
-36 -4 -12 5 -20 13 -18 17 4 6 -37 30 -50 30 -15 0 -1 -40 15 -45 11 -4 18
-11 15 -16 -4 -5 -1 -9 5 -9 6 0 8 -4 5 -10 -3 -6 1 -7 9 -4 9 3 16 1 16 -5 0
-6 -4 -11 -10 -11 -5 0 -10 -4 -10 -9 0 -5 10 -7 23 -3 21 5 21 4 5 -15 -26
-28 -22 -36 12 -28 19 4 30 3 30 -4 0 -6 -4 -11 -9 -11 -6 0 -8 -9 -6 -20 3
-16 -2 -20 -22 -20 -21 0 -24 -2 -13 -15 10 -13 9 -15 -9 -15 -11 0 -21 5 -21
10 0 6 -7 10 -16 10 -12 0 -15 7 -12 29 2 17 1 28 -3 25 -5 -2 -13 6 -20 18
-11 21 -11 22 4 9 13 -10 17 -10 17 -1 0 6 -9 14 -20 17 -24 6 -26 19 -5 27
22 8 18 26 -6 26 -11 0 -17 5 -14 10 4 6 12 7 18 3 7 -4 6 1 -2 11 -8 9 -20
15 -28 12 -20 -8 -16 3 10 25 l22 19 -27 -6 c-21 -4 -27 -1 -33 15 -10 33 4
45 29 23 14 -13 33 -18 59 -16z m411 -203 c18 -10 19 -12 3 -28 -21 -21 -21
-26 0 -18 11 4 14 3 9 -5 -5 -8 1 -12 16 -12 18 0 20 2 8 10 -8 5 -10 10 -4
10 6 0 14 -3 18 -7 12 -13 46 -13 43 0 -1 8 9 11 30 11 20 -1 30 2 27 8 -4 6
-1 8 7 4 8 -3 22 -9 32 -12 23 -9 21 -23 -5 -33 -19 -7 -17 -9 15 -14 21 -3
44 -12 52 -20 12 -13 12 -16 -6 -20 -15 -4 -19 -2 -15 8 6 16 -20 28 -45 20
-12 -4 -22 1 -29 15 -9 16 -8 20 5 20 8 0 15 5 15 10 0 13 -1 13 -40 -7 -18
-9 -48 -16 -67 -15 -18 1 -33 -2 -33 -7 0 -11 -51 -33 -59 -26 -3 4 2 11 12
16 9 6 15 15 11 21 -4 7 -9 7 -13 -1 -4 -6 -20 -12 -37 -14 -16 -2 -40 -9 -52
-16 -13 -7 -30 -10 -38 -7 -9 3 -12 1 -9 -4 8 -12 -5 -13 -24 -1 -12 8 -9 11
11 16 15 4 31 4 37 1 5 -4 12 -2 15 3 10 15 -31 23 -55 11 -12 -7 -32 -9 -47
-4 -15 4 -31 6 -35 5 -5 -1 -6 3 -2 8 3 6 25 9 49 7 33 -2 48 2 60 16 19 22
21 34 4 21 -7 -5 -29 -6 -48 -3 -34 6 -34 6 15 12 28 4 61 5 75 4 14 -2 32 -4
42 -5 9 0 15 -8 13 -18 -1 -10 0 -12 2 -5 3 6 9 12 14 12 21 0 7 19 -21 29
-16 5 -30 13 -30 16 0 9 52 1 74 -12z m-31 -175 c45 -1 94 -1 110 0 15 1 27
-3 27 -9 0 -8 -14 -10 -40 -6 -22 3 -40 1 -40 -4 0 -5 9 -9 20 -9 11 0 20 -5
20 -11 0 -6 -9 -8 -20 -5 -11 3 -29 8 -39 11 -11 3 -22 1 -26 -4 -3 -6 -26 -9
-52 -6 -29 3 -52 0 -61 -8 -12 -9 -16 -9 -19 1 -3 6 -11 12 -19 12 -8 0 -11
-6 -8 -15 4 -8 14 -15 23 -15 9 0 23 -5 31 -11 12 -8 10 -9 -7 -4 -19 5 -22 3
-16 -11 4 -11 3 -15 -4 -11 -7 5 -9 0 -6 -13 3 -12 14 -20 27 -20 17 0 18 -2
6 -10 -20 -13 -60 -13 -60 1 0 7 -9 9 -24 5 -13 -3 -35 -2 -48 3 -19 7 -15 9
31 16 33 4 49 10 41 15 -7 4 -10 15 -7 23 6 16 -21 33 -65 40 -20 3 -25 0 -20
-11 4 -12 -3 -14 -41 -10 -26 3 -47 2 -47 -3 0 -5 8 -9 18 -10 15 0 14 -1 -3
-8 -17 -7 -17 -8 8 -15 15 -3 27 -11 27 -17 0 -6 -6 -6 -19 1 -11 5 -29 10
-40 10 -12 0 -21 5 -21 10 0 6 -7 10 -15 10 -8 0 -15 5 -15 10 0 13 6 13 32
-1 16 -9 19 -8 16 2 -3 8 -15 16 -29 20 -23 7 -23 7 -2 8 12 1 25 6 28 11 5 8
11 8 19 1 9 -8 29 -6 66 5 41 12 54 13 61 3 5 -9 12 -8 26 6 16 17 16 18 1 12
-22 -8 -55 3 -39 12 21 14 80 0 86 -20 7 -21 20 -25 31 -7 4 6 -5 22 -22 37
-16 13 -22 22 -13 19 9 -3 22 -2 30 3 10 6 15 3 17 -11 3 -18 12 -20 85 -22z"/>
<path d="M7370 1540 c-13 -8 -12 -10 4 -10 14 0 17 -5 12 -24 -7 -28 12 -46
25 -25 7 11 9 10 9 -3 0 -14 -8 -18 -37 -17 -21 1 -51 5 -68 9 l-30 9 35 -1
c50 0 58 2 35 12 -11 4 -32 6 -46 3 -15 -3 -30 0 -33 6 -4 6 -18 8 -33 5 -18
-5 -24 -3 -19 5 4 6 2 11 -3 11 -20 0 -11 -20 12 -30 l22 -9 -22 0 c-13 -1
-23 4 -23 10 0 6 -9 9 -20 6 -23 -6 -28 9 -5 16 12 4 11 5 -1 3 -10 0 -19 -7
-21 -13 -5 -15 37 -33 77 -33 16 0 32 -5 35 -10 4 -6 15 -8 26 -5 10 4 19 2
19 -3 0 -5 15 -8 33 -7 17 2 37 -2 44 -7 7 -5 17 -7 22 -4 5 4 13 1 17 -5 3
-6 19 -9 35 -5 17 3 29 1 29 -5 0 -6 4 -7 10 -4 5 3 25 -1 44 -10 21 -10 44
-14 58 -10 18 5 20 4 8 -4 -12 -9 -7 -11 20 -9 19 1 41 6 49 12 12 9 13 7 8
-6 -3 -10 -2 -18 4 -18 5 0 12 7 15 15 4 8 15 15 26 15 10 0 16 4 13 10 -4 6
12 9 40 8 25 -1 45 -5 45 -8 0 -3 10 -5 23 -6 12 0 45 -3 72 -7 28 -3 43 -2
35 2 -8 5 -53 14 -100 20 -47 7 -99 16 -116 20 -18 5 -38 5 -45 0 -10 -6 -7
-9 10 -9 37 0 21 -9 -27 -15 -36 -4 -41 -3 -30 9 7 8 17 11 22 8 5 -3 6 0 2 7
-4 6 0 14 8 17 12 5 13 9 3 18 -16 16 -47 27 -47 17 0 -5 10 -12 23 -15 l22
-7 -25 -11 c-33 -14 -79 -17 -168 -10 -60 4 -70 7 -61 19 7 8 16 10 23 4 6 -4
18 -9 26 -9 8 -1 35 -3 59 -6 24 -3 41 -3 37 1 -3 4 -25 9 -48 12 -23 3 -43
12 -46 20 -3 9 0 11 9 6 7 -5 24 -10 38 -11 14 -1 37 -6 51 -10 14 -4 22 -3
17 1 -13 15 -70 31 -117 33 -25 2 -46 7 -48 13 -2 5 -14 9 -27 9 -13 0 -25 4
-27 10 -2 6 -8 6 -18 0z"/>
<path d="M845 1841 c14 -7 15 -10 5 -10 -13 -1 -13 -2 0 -11 13 -9 13 -11 0
-20 -11 -7 -11 -10 -2 -10 7 0 23 -9 35 -20 12 -11 27 -18 34 -16 7 3 10 -1 6
-10 -3 -9 1 -14 14 -14 11 0 28 -7 39 -15 24 -18 45 -19 41 -2 -1 8 13 13 41
15 33 2 42 0 36 -9 -5 -9 -2 -10 9 -6 10 3 17 2 17 -3 0 -6 7 -10 16 -10 8 0
12 5 9 10 -4 6 8 10 27 11 33 1 32 1 -7 9 -22 4 -43 6 -46 4 -4 -2 -12 3 -19
11 -7 8 -18 15 -24 15 -7 0 -30 9 -51 20 -31 16 -50 19 -87 15 -41 -6 -48 -4
-58 15 -11 20 -10 21 12 15 16 -5 20 -4 13 4 -6 6 -26 13 -45 16 -27 4 -30 3
-15 -4z"/>
<path d="M558 1773 c-14 -2 -32 -11 -38 -19 -7 -8 -19 -14 -26 -14 -30 0 -12
-20 19 -21 27 0 29 -2 11 -9 -24 -9 -330 -6 -446 5 l-78 8 0 -27 c0 -25 2 -26
68 -28 37 0 52 -3 35 -5 -18 -2 -33 -9 -33 -15 0 -5 7 -7 16 -4 9 3 29 6 45 6
18 0 28 4 24 10 -3 6 1 10 9 10 22 0 10 -25 -21 -41 l-25 -14 33 -8 c19 -5 53
-11 76 -14 24 -3 41 -9 38 -13 -8 -14 81 -16 555 -12 155 2 220 5 210 12 -8 6
-37 10 -65 9 -128 -2 -225 2 -225 10 0 5 58 8 130 8 72 -1 130 -1 130 1 0 11
-68 25 -134 27 -43 2 -84 9 -89 14 -14 14 -110 15 -102 1 3 -5 -3 -10 -14 -10
-12 0 -21 4 -21 9 0 4 -11 6 -25 3 -14 -2 -22 -9 -18 -15 3 -6 1 -7 -5 -3 -30
18 -242 14 -242 -5 0 -5 20 -9 44 -9 27 0 46 -5 49 -12 3 -10 8 -10 21 1 12
10 20 11 28 3 8 -8 17 -8 30 -1 17 9 19 8 16 -8 -2 -10 -11 -16 -19 -14 -8 2
-34 4 -59 3 -24 0 -48 2 -53 5 -8 5 -59 10 -145 16 -21 1 -31 6 -27 15 2 6 -2
12 -10 12 -9 0 -12 -6 -9 -15 4 -9 0 -15 -10 -15 -10 0 -13 6 -10 15 4 8 1 15
-7 15 -7 0 -9 3 -6 7 4 3 57 7 119 9 62 2 151 5 198 8 212 14 262 16 360 18
100 2 102 2 45 10 -33 4 -61 12 -63 16 -1 4 -19 7 -40 5 -34 -2 -35 -1 -7 5
25 6 27 9 12 15 -28 11 -95 8 -102 -3 -4 -6 -16 -8 -28 -4 -12 4 -31 7 -42 6
-11 -1 -15 2 -10 6 6 4 16 15 24 25 12 16 10 17 -25 16 -22 -1 -51 -4 -66 -6z"/>
<path d="M1080 1660 c0 -5 0 -13 0 -17 0 -9 38 -14 100 -13 l45 0 -28 -18
c-29 -20 -26 -32 7 -31 12 0 15 3 9 6 -36 14 2 18 149 16 90 -1 156 0 148 3
-43 16 -44 17 -15 24 l30 6 -37 5 c-22 3 -34 1 -31 -5 4 -6 -1 -6 -13 -1 -33
13 -207 25 -219 15 -16 -13 -78 -6 -83 9 -5 14 -62 15 -62 1z"/>
<path d="M1215 1560 c6 -10 -89 -22 -110 -14 -9 4 -20 2 -24 -4 -3 -6 -36 -12
-71 -13 -81 -2 -92 -1 -86 9 2 4 -27 9 -66 11 -48 2 -68 -1 -63 -8 8 -14 10
-13 -115 -17 -73 -1 -115 2 -139 12 -18 8 -54 13 -80 12 l-46 -1 45 -7 c34 -5
41 -8 27 -14 -19 -9 -141 -3 -172 8 -20 8 -20 7 -1 -8 19 -15 18 -16 -22 -16
-23 0 -42 5 -42 10 0 6 -11 10 -25 10 -29 0 -34 -16 -7 -23 9 -3 -36 -5 -101
-4 l-117 2 0 -72 c0 -60 3 -72 18 -76 16 -4 16 -5 0 -6 -14 -1 -18 -10 -18
-36 0 -34 2 -35 38 -36 l37 -1 -37 -10 c-27 -7 -38 -15 -38 -29 0 -17 9 -19
83 -21 79 -1 80 -2 27 -8 -50 -6 -55 -8 -32 -15 23 -6 80 -16 99 -18 12 0 19
-5 17 -9 -5 -7 48 -13 89 -10 9 1 17 -2 17 -7 0 -5 -30 -10 -67 -11 -38 -1
-86 -2 -108 -3 -22 -1 -59 2 -82 7 l-43 8 0 -61 c0 -60 0 -61 28 -60 24 0 25
1 7 10 -16 7 -13 8 13 4 20 -3 42 1 55 9 20 13 82 21 132 17 16 -1 17 -3 6
-10 -12 -8 -13 -12 -1 -25 10 -13 26 -15 68 -13 35 3 49 1 39 -5 -31 -17 -133
-14 -153 4 -11 9 -22 17 -26 17 -5 1 -11 1 -15 2 -5 0 1 4 12 9 18 8 17 9 -7
9 -22 1 -25 -2 -21 -20 5 -20 3 -21 -23 -16 -16 3 -48 0 -71 -6 -38 -10 -43
-14 -43 -40 0 -33 -8 -32 115 -7 33 6 75 9 95 6 19 -3 57 1 84 9 53 16 84 19
51 5 -18 -8 -17 -9 8 -9 15 -1 27 -6 27 -11 0 -6 -20 -8 -54 -4 -31 4 -61 2
-72 -4 -16 -9 -13 -12 21 -21 61 -17 77 -31 37 -31 -18 0 -42 -5 -52 -10 -13
-7 -21 -7 -25 0 -3 5 -34 11 -68 12 l-62 1 60 7 c33 4 52 7 42 8 -10 1 -15 6
-12 12 3 6 -3 10 -15 10 -12 0 -19 -4 -16 -9 3 -5 0 -9 -7 -8 -6 0 -45 -1 -84
-1 l-73 -2 0 -30 c0 -29 0 -29 67 -33 l68 -3 -67 -2 c-60 -2 -68 -4 -68 -21 0
-14 8 -21 28 -24 l27 -4 -27 -2 c-25 -1 -28 -5 -28 -37 0 -36 1 -36 33 -30 17
4 72 11 121 17 70 7 91 6 98 -3 5 -10 -7 -14 -49 -16 -43 -2 -54 -6 -43 -13
11 -8 8 -10 -12 -6 -16 2 -28 1 -28 -2 0 -4 -7 -16 -15 -27 -15 -19 -16 -19
-13 1 4 30 -38 32 -68 4 -13 -12 -24 -26 -24 -30 0 -4 62 -5 137 -2 134 6 137
6 119 -12 -15 -16 -21 -16 -38 -6 -31 19 -34 4 -4 -20 14 -11 24 -24 21 -29
-3 -5 -1 -11 5 -15 5 -3 10 -1 10 4 0 6 7 11 16 11 14 0 14 3 4 15 -10 13 -9
15 8 15 12 0 23 -4 27 -10 3 -5 11 -7 18 -5 7 2 23 7 37 10 14 2 37 8 53 11
21 5 27 3 27 -10 0 -10 -8 -16 -22 -16 -12 0 -35 -4 -52 -9 -17 -5 -53 -14
-81 -20 -27 -5 -58 -13 -68 -16 -13 -6 -17 -2 -17 14 0 13 -7 21 -17 22 -16 0
-16 1 1 8 16 6 17 9 5 16 -8 5 -27 9 -44 8 -19 -1 -22 0 -10 4 38 10 42 26 5
17 -19 -5 -59 -8 -87 -7 l-53 2 0 -59 c0 -58 1 -60 26 -60 15 0 23 -4 19 -10
-4 -6 -15 -8 -26 -5 -18 6 -19 1 -19 -67 0 -71 1 -75 27 -86 l28 -12 -27 5
c-21 4 -28 1 -28 -10 0 -8 5 -15 12 -15 9 0 9 -3 0 -12 -7 -7 -12 -38 -12 -69
l0 -56 50 -7 c27 -4 50 -11 50 -16 0 -13 -47 -13 -55 0 -3 6 -15 10 -26 10
-16 0 -19 -7 -19 -50 0 -49 1 -50 30 -50 17 0 30 -4 30 -10 0 -5 -13 -7 -30
-3 -47 9 -35 -11 15 -26 56 -16 70 -34 24 -29 -21 2 -33 8 -31 16 1 6 -7 12
-18 12 -13 0 -20 -7 -20 -20 0 -18 7 -20 78 -20 66 1 75 3 60 14 -16 11 -8 14
58 19 77 7 169 -7 158 -24 -3 -5 52 -9 124 -9 l128 0 0 30 c0 28 -2 30 -38 30
-40 0 -52 14 -18 23 11 3 20 1 20 -4 0 -5 10 -9 23 -9 21 0 62 -20 42 -20 -6
0 -11 -9 -12 -19 -2 -20 23 -31 67 -30 23 0 23 1 5 9 -13 6 -1 7 35 4 35 -3
70 1 95 10 l40 14 -30 7 c-54 12 -51 13 30 10 44 -1 91 2 105 7 31 12 100 0
100 -17 0 -10 -7 -10 -36 0 -29 10 -41 9 -70 -4 -30 -13 -32 -16 -17 -25 26
-14 145 -17 161 -4 8 7 16 8 20 2 11 -14 206 -11 224 4 9 7 24 9 34 5 17 -6
16 -7 -2 -14 -11 -5 9 -8 52 -8 55 -1 73 3 78 14 3 8 0 15 -7 15 -8 0 -8 3 2
9 11 7 11 10 0 15 -8 3 -3 4 10 2 14 -3 39 2 56 10 18 8 36 14 41 13 5 -1 27
-1 49 0 27 1 36 4 26 10 -7 5 -27 5 -43 1 -15 -5 -26 -5 -23 0 3 4 23 11 45
15 22 4 43 11 46 17 7 11 -13 9 -193 -28 -22 -4 -33 -12 -35 -28 -3 -19 -9
-21 -58 -20 -53 1 -55 2 -65 34 -9 31 -11 32 -57 28 -34 -4 -49 -1 -52 9 -3 7
1 13 9 13 8 0 15 7 15 15 0 8 -9 15 -21 15 -11 0 -18 -4 -15 -9 3 -4 -10 -1
-29 8 -33 14 -34 16 -14 24 15 5 25 3 30 -4 7 -12 58 -5 69 9 3 4 22 16 42 26
21 10 35 22 33 26 -5 8 55 40 74 40 6 0 28 10 49 23 20 13 61 34 90 47 28 14
52 28 52 31 0 4 12 10 26 13 15 4 24 9 21 12 -3 3 -26 -2 -51 -10 -26 -9 -69
-16 -96 -16 -55 0 -83 -8 -74 -21 3 -5 -2 -9 -11 -9 -9 0 -13 4 -10 10 3 5 -3
10 -14 10 -12 0 -21 5 -21 10 0 6 -11 10 -24 10 -19 0 -23 -4 -19 -20 3 -12 0
-20 -6 -20 -7 0 -9 5 -5 11 4 8 -4 9 -27 5 -19 -3 -27 -3 -19 1 8 3 21 12 28
20 7 7 21 13 30 13 24 0 102 31 102 41 0 5 8 9 18 9 14 0 15 2 2 10 -8 5 -12
11 -10 13 7 5 97 27 139 34 21 3 29 8 21 13 -8 5 -2 10 19 15 37 8 41 25 6 25
-14 0 -25 6 -25 13 0 8 -3 8 -9 -2 -8 -12 -12 -12 -25 -2 -13 11 -19 11 -31 1
-10 -9 -19 -9 -27 -2 -14 11 -78 4 -78 -8 0 -9 -74 11 -86 23 -4 4 -20 7 -36
7 -15 0 -28 5 -28 10 0 6 -15 10 -34 10 -57 0 -126 12 -120 21 3 5 -25 10 -63
10 -37 1 -56 4 -40 6 15 3 25 9 21 15 -4 6 3 8 17 7 13 -2 29 -1 34 3 6 3 29
9 53 13 35 6 42 4 42 -9 0 -10 9 -16 25 -16 31 0 33 20 3 21 -19 1 -17 3 7 9
23 6 14 8 -40 9 -76 1 -75 21 1 21 22 0 45 5 52 12 9 9 18 9 37 0 21 -10 25
-9 25 3 0 15 -23 20 -68 16 -12 -1 -30 3 -40 8 -13 8 -8 10 26 11 39 0 42 2
28 15 -8 8 -24 16 -35 18 -11 2 -24 6 -27 10 -4 4 -16 7 -26 7 -24 0 -23 17 2
25 11 4 29 0 42 -9 28 -20 42 -20 35 -2 -5 12 -1 13 24 4 23 -8 37 -7 54 2 25
14 69 5 59 -12 -5 -8 -1 -9 10 -5 10 4 21 7 24 7 4 0 -4 9 -17 19 -23 18 -23
18 -2 24 11 3 19 1 15 -4 -3 -5 2 -9 11 -9 11 0 15 -5 12 -14 -3 -8 1 -17 9
-20 8 -3 14 0 14 6 0 7 4 7 13 0 8 -7 31 -8 62 -4 l50 8 -45 27 c-25 15 -40
27 -35 27 6 0 1 7 -9 15 -19 14 -19 15 6 15 15 0 28 -4 30 -9 5 -12 48 -24 48
-13 0 5 -10 12 -22 16 -18 5 -20 8 -9 15 23 15 2 31 -40 31 -24 0 -38 4 -34
10 8 13 -15 13 -35 0 -13 -9 -13 -11 0 -21 11 -8 7 -9 -20 -6 -23 3 -38 -1
-45 -10 -12 -17 -115 -29 -115 -13 0 5 -5 10 -11 10 -6 0 -9 -9 -6 -20 3 -13
0 -20 -9 -20 -20 0 -17 -18 4 -23 11 -3 9 -5 -8 -6 -14 0 -32 3 -40 9 -10 6
-29 1 -60 -15 -25 -13 -76 -31 -113 -41 -37 -9 -66 -18 -64 -20 7 -8 106 9
101 17 -3 5 14 9 38 8 30 0 37 -3 24 -8 -14 -5 -16 -10 -8 -15 19 -11 14 -26
-8 -26 -11 0 -20 5 -20 10 0 15 -16 12 -34 -6 -15 -14 -16 -14 -16 0 0 20 -16
21 -28 1 -6 -12 -14 -14 -33 -7 -14 6 -56 5 -104 0 -58 -7 -80 -7 -83 2 -3 7
-12 5 -30 -6 -18 -12 -27 -13 -30 -6 -6 18 -42 14 -42 -4 0 -15 -10 -14 -58 3
-6 3 -12 0 -12 -6 0 -7 -21 -11 -55 -11 -39 0 -54 -4 -52 -12 1 -7 -5 -11 -13
-10 -8 2 -40 6 -70 10 -51 5 -53 6 -25 14 17 5 61 9 98 10 49 1 66 5 63 14 -3
9 4 11 28 7 19 -3 42 -1 52 5 18 10 17 11 -6 22 -21 9 -18 9 20 4 54 -7 124
-14 164 -14 34 -1 55 14 32 23 -8 3 -18 2 -21 -3 -8 -13 -52 -13 -60 0 -3 6
-18 10 -33 11 -24 1 -23 2 8 10 27 6 38 4 46 -7 7 -8 14 -11 15 -7 7 16 80 43
117 43 20 1 55 7 77 15 22 8 55 12 75 9 23 -4 52 1 85 14 47 19 49 21 26 29
-31 12 -11 26 21 15 27 -10 58 -5 58 9 0 6 -8 8 -18 5 -10 -4 -27 0 -38 8 -17
13 -11 14 56 12 80 -3 154 15 112 28 -11 4 -37 0 -58 -9 -45 -18 -67 -5 -33
19 23 16 23 16 -14 16 -35 0 -37 -2 -27 -20 9 -16 8 -20 -5 -20 -9 0 -18 7
-21 15 -8 19 -28 19 -62 1 -15 -8 -40 -17 -56 -21 l-29 -6 23 -25 23 -24 -31
0 c-20 0 -31 5 -30 13 2 7 -6 11 -21 9 -18 -3 -22 0 -18 12 6 14 3 15 -15 5
-16 -8 -18 -13 -8 -19 19 -12 -52 -24 -91 -16 -38 7 -119 -14 -119 -31 0 -16
-3 -16 -49 -2 -38 11 -102 2 -108 -17 -2 -6 37 -8 101 -6 75 3 106 0 111 -9 6
-9 -6 -10 -54 -5 -35 4 -61 3 -61 -2 0 -13 -79 -25 -94 -14 -6 4 -26 9 -45 11
-28 2 -33 0 -27 -14 5 -14 2 -16 -14 -12 -11 3 -20 1 -20 -4 0 -5 -9 -9 -20
-9 -11 0 -20 5 -20 10 0 6 -7 10 -16 10 -8 0 -12 -5 -9 -10 4 -6 -15 -10 -49
-10 -31 0 -56 -4 -56 -10 0 -5 -7 -10 -15 -10 -8 0 -12 -6 -9 -14 8 -20 -10
-28 -38 -17 -13 6 -17 10 -8 11 10 1 9 4 -5 10 l-20 9 20 1 c12 1 8 5 -13 10
-23 5 -43 3 -64 -8 -24 -12 -38 -13 -59 -5 -17 7 -29 7 -31 1 -2 -5 -12 -6
-22 -2 -19 7 -19 8 0 15 17 7 16 8 -6 8 -20 1 -22 3 -10 11 8 5 47 7 87 3 53
-4 77 -2 88 7 11 9 13 15 5 20 -7 4 8 16 34 29 54 25 66 26 66 7 0 -8 7 -17
16 -20 23 -9 27 -8 21 8 -7 16 13 26 51 26 31 0 46 9 54 31 5 14 -1 15 -50 7
-30 -5 -63 -7 -71 -5 -9 3 -4 5 11 6 15 0 30 6 33 11 10 16 106 12 124 -4 13
-12 26 -13 56 -6 22 5 55 10 73 10 37 0 71 24 49 34 -6 4 -1 4 13 0 32 -7 86
-5 130 5 19 5 78 10 130 11 52 1 111 5 130 10 29 6 20 8 -50 11 -134 4 -229
-1 -307 -17 -39 -7 -82 -13 -95 -12 -13 1 -75 -2 -138 -7 -63 -4 -113 -5 -110
-2 6 6 275 38 360 42 36 2 85 8 110 14 26 6 56 8 68 4 14 -3 22 -1 22 7 0 10
3 10 15 0 16 -13 63 -10 165 9 29 6 36 9 20 10 -40 3 60 26 195 45 192 27 390
64 382 72 -4 4 -45 -2 -202 -33 -88 -16 -244 -21 -315 -9 -116 20 -143 18
-298 -17 -72 -17 -88 -26 -46 -28 25 -1 24 -2 -11 -10 -59 -12 -72 -11 -90 7
-11 12 -23 14 -43 8 -15 -4 -36 -9 -47 -10 -86 -12 -136 -16 -175 -16 -31 0
-39 -2 -25 -7 19 -8 19 -8 -4 -16 -17 -5 -26 -3 -33 9 -5 9 -21 16 -36 15 -25
0 -26 -1 -6 -9 12 -5 25 -14 30 -21 5 -9 2 -10 -12 -4 -10 5 -60 9 -111 10
-89 0 -130 9 -82 18 13 3 94 15 179 27 85 11 170 24 189 27 26 4 32 3 26 -7
-6 -10 -3 -12 11 -7 95 29 129 35 135 25 4 -6 16 -8 30 -4 13 4 53 11 89 16
128 17 347 49 440 65 52 9 120 20 150 24 189 29 335 53 339 57 4 4 -86 -2
-156 -11 -18 -2 -33 0 -33 6 0 5 9 9 20 9 11 0 20 5 20 10 0 6 -16 8 -42 4
-45 -7 -63 -14 -35 -14 18 0 23 -15 9 -24 -17 -10 -52 6 -50 23 2 12 -4 15
-27 14 -16 -2 -56 -5 -89 -7 -32 -3 -63 -9 -69 -15 -6 -6 -26 -11 -43 -11 -18
0 -36 -5 -40 -11 -3 -6 -19 -9 -35 -7 -17 3 -29 0 -29 -6 0 -7 -24 -12 -57
-12 -32 -1 -85 -4 -118 -7 -39 -4 -46 -3 -20 1 22 4 46 11 53 16 7 4 31 9 54
11 96 9 149 18 154 26 3 5 16 9 30 9 13 0 24 5 24 10 0 6 19 11 43 11 l42 2
-40 6 c-25 5 -54 2 -78 -7 -26 -10 -62 -13 -112 -10 -58 4 -72 2 -68 -9 8 -20
-34 -16 -46 5 -10 16 -10 16 -11 -2 0 -12 -5 -16 -16 -12 -9 3 -18 6 -20 6 -3
0 -3 4 0 9 3 5 -18 7 -47 4 -124 -10 -252 -15 -317 -13 -71 3 -78 1 -50 -16
l25 -15 -30 6 c-16 3 -45 6 -64 5 -18 0 -40 5 -48 11 -9 8 -48 12 -103 12 -50
0 -90 3 -90 6 0 4 15 8 33 8 17 0 83 1 144 2 62 1 117 0 122 -4 5 -3 12 -1 16
5 3 6 -4 10 -17 11 -48 2 25 17 82 17 30 0 47 -2 38 -5 -10 -2 -18 -9 -18 -15
0 -7 20 -9 61 -4 34 3 74 6 88 6 l26 1 -23 13 c-14 7 -66 14 -125 16 -235 6
-355 15 -387 27 -25 10 41 19 84 12 24 -4 50 -2 65 5 24 11 23 11 -24 22 l-50
12 70 0 c64 0 95 4 148 19 18 5 18 6 0 25 -18 20 -17 20 22 11 47 -9 85 -9
260 0 72 5 177 10 235 13 58 2 132 11 165 19 l60 14 -54 -6 c-42 -4 -52 -2
-46 7 6 10 3 12 -12 8 -11 -3 -41 -2 -66 2 -25 4 -44 4 -42 0z m-115 -1059 c0
-5 -6 -12 -12 -14 -10 -4 -9 -8 2 -17 14 -10 51 -9 128 6 35 7 95 -12 86 -27
-3 -5 -11 -6 -17 -2 -7 3 -3 -3 7 -15 23 -26 16 -38 -12 -21 -16 10 -24 9 -48
-8 -46 -32 -74 -38 -39 -9 44 37 21 48 -86 40 -71 -5 -93 -3 -124 12 -21 10
-33 20 -27 22 7 2 9 9 5 15 -4 7 0 8 13 2 10 -4 35 -9 54 -11 19 -2 26 -1 15
2 -40 11 -42 27 -2 21 20 -3 37 -2 37 4 0 5 5 9 10 9 6 0 10 -4 10 -9z m-274
-26 c5 -12 16 -14 53 -9 46 6 46 6 59 -29 14 -39 34 -51 66 -41 21 7 21 7 1
15 -17 7 -17 8 7 8 15 1 29 -3 33 -8 3 -6 25 -13 49 -16 33 -5 46 -13 55 -31
9 -21 8 -24 -10 -24 -15 0 -19 -4 -15 -16 5 -13 2 -15 -11 -9 -10 4 -29 8 -43
7 l-25 0 27 11 c15 6 30 17 32 24 7 18 -24 30 -34 13 -6 -9 -23 -10 -81 0 -41
6 -78 16 -84 22 -7 8 -3 9 13 5 12 -3 22 -2 22 3 0 4 -21 11 -47 15 l-48 8 35
12 c32 12 28 13 -50 9 -51 -2 -75 0 -60 4 l25 8 -30 9 -30 8 25 7 c40 13 60
11 66 -5z m-626 -120 c9 -10 17 -12 23 -6 10 10 33 5 56 -13 8 -6 46 -11 85
-11 39 0 80 -4 91 -8 l20 -9 -20 18 -20 17 20 -8 c11 -4 50 -10 87 -14 84 -8
102 -22 22 -17 -32 2 -48 2 -34 -1 14 -3 43 -18 65 -35 l40 -30 -33 6 c-18 3
-40 13 -49 22 -13 12 -33 15 -97 13 -70 -3 -81 -1 -84 14 -4 18 -62 25 -62 7
0 -11 -79 -11 -125 -1 -27 7 -23 8 29 16 46 6 55 10 41 17 -11 7 -26 6 -43 -1
-19 -9 -27 -9 -33 0 -4 7 -20 18 -36 25 l-28 12 36 1 c22 1 42 -5 49 -14z"/>
<path d="M2575 1525 c-22 -5 -46 -14 -52 -18 -7 -4 -74 -17 -150 -28 -76 -10
-148 -24 -161 -29 -13 -6 -31 -10 -40 -10 -37 0 -93 -22 -117 -46 -18 -18 -37
-26 -66 -27 -23 -1 -36 -3 -30 -5 19 -6 12 -19 -19 -32 -34 -14 -90 -65 -90
-81 0 -7 -11 -9 -25 -7 -14 3 -25 1 -25 -3 0 -5 4 -9 9 -9 11 0 -9 -72 -24
-82 -5 -4 -20 -8 -32 -8 -13 0 -23 -4 -23 -10 0 -5 -7 -10 -15 -10 -9 0 -12
-6 -8 -17 5 -13 2 -15 -15 -11 -12 4 -25 2 -28 -3 -3 -5 -11 -9 -17 -9 -8 0
-8 3 1 9 11 7 11 9 -2 14 -9 4 -23 3 -33 0 -11 -4 -14 -3 -9 5 10 17 -6 15
-32 -4 -22 -15 -78 -26 -135 -27 -25 0 -26 -1 -12 -17 9 -9 13 -24 10 -32 -4
-11 2 -18 21 -22 14 -4 29 -5 31 -2 9 8 -8 26 -25 26 -10 0 -13 3 -6 10 13 13
54 1 54 -16 0 -19 16 -18 24 1 3 8 16 15 28 15 36 0 68 11 62 21 -3 5 2 9 10
9 8 0 17 -4 20 -9 3 -4 18 -6 33 -4 27 5 28 5 8 -12 -18 -15 -18 -16 -2 -11
27 9 73 -4 55 -15 -9 -6 -6 -9 12 -9 14 0 32 5 40 11 13 9 12 10 -3 5 -9 -3
-26 2 -37 11 -24 21 -26 38 -4 29 8 -3 12 -2 9 4 -3 6 -18 7 -32 4 -17 -5 -24
-3 -20 3 4 6 21 13 38 15 24 4 32 1 39 -16 4 -13 3 -24 -4 -29 -7 -6 -4 -7 6
-3 10 3 23 -1 30 -8 13 -12 21 -16 36 -16 4 0 0 -4 -8 -10 -11 -7 -9 -11 13
-19 16 -6 36 -11 45 -11 12 0 13 -3 5 -8 -10 -6 -8 -12 5 -23 38 -32 48 -35
30 -7 -16 25 -16 26 3 31 12 3 35 -4 56 -19 42 -28 51 -29 81 -8 20 14 24 14
50 -4 41 -29 57 -32 87 -16 15 8 31 11 36 8 19 -11 65 34 67 66 3 35 52 99 52
67 0 -13 4 -15 18 -7 9 5 40 14 67 20 28 6 61 14 74 17 14 4 22 2 18 -4 -4 -6
7 -7 26 -4 31 5 30 5 -18 17 -27 7 -66 12 -85 12 -29 -1 -30 -2 -7 -5 35 -6
35 -25 0 -21 -33 4 -41 29 -18 52 19 19 46 21 40 4 -4 -9 6 -13 30 -14 30 0
35 3 35 22 0 15 9 25 33 33 17 7 59 25 91 41 33 16 62 27 64 25 6 -5 -44 -46
-67 -57 -14 -6 -14 -7 -1 -7 8 -1 28 7 43 18 25 16 33 17 80 5 83 -21 103 -25
90 -18 -20 9 -15 24 7 24 11 0 20 4 20 8 0 4 14 13 31 19 17 7 33 21 36 32 3
11 12 22 22 24 14 4 14 5 -1 6 -15 1 -18 11 -18 56 0 33 -4 55 -11 55 -6 0
-24 14 -41 31 -22 21 -33 27 -38 18 -9 -14 -100 -3 -100 12 0 5 -15 9 -32 9
-47 0 -78 10 -78 25 0 7 -12 12 -32 11 -18 -1 -35 1 -38 4 -3 3 -23 1 -45 -5z"/>
<path d="M1355 1513 c-44 -7 -89 -15 -100 -16 -30 -4 -63 -27 -47 -33 6 -3 12
-10 12 -14 0 -13 -100 0 -133 17 -26 13 -97 9 -97 -6 0 -11 54 -31 85 -30 17
0 68 0 115 -2 118 -2 237 2 223 8 -26 10 -12 23 25 22 30 0 33 -2 17 -9 -13
-6 6 -9 61 -9 53 -1 87 4 99 13 10 7 28 11 39 8 15 -3 18 -2 11 6 -6 6 -31 14
-57 17 -35 4 -50 2 -63 -11 -13 -13 -19 -14 -24 -5 -9 14 -161 12 -161 -1 0
-11 -48 -10 -55 1 -3 6 25 13 64 17 44 4 72 11 75 20 8 21 -3 21 -89 7z"/>
<path d="M3395 1012 c6 -7 60 -28 120 -48 61 -20 135 -46 165 -59 30 -13 78
-28 105 -33 28 -6 62 -13 76 -16 18 -4 29 -1 32 8 4 10 -1 12 -16 9 -13 -3
-17 -1 -11 4 9 6 8 11 -2 21 -8 7 -14 8 -14 3 0 -5 -12 -3 -27 5 -16 7 -33 14
-39 14 -7 0 -14 9 -17 19 -2 11 -15 21 -28 23 -13 2 -23 9 -21 16 2 10 -3 10
-17 2 -24 -12 -64 -13 -57 -2 3 5 -19 16 -49 24 -43 12 -55 13 -55 3 0 -14 45
-29 60 -20 5 3 11 1 15 -5 6 -9 -6 -13 -45 -13 -27 -1 -70 15 -65 23 3 5 -3 8
-12 8 -23 -1 -83 11 -97 19 -8 4 -8 2 -1 -5z"/>
<path d="M3745 830 c2 -3 0 -12 -6 -20 -7 -12 -9 -12 -9 3 0 10 -5 15 -10 12
-6 -4 -8 -11 -5 -16 4 -5 -5 -5 -20 1 -17 7 -32 7 -43 0 -15 -8 -15 -9 3 -10
19 -1 19 -1 1 -15 -23 -17 -119 -39 -162 -36 -18 1 -37 -5 -44 -14 -10 -12
-10 -15 1 -15 19 0 -2 -17 -31 -24 -21 -6 -23 -5 -9 6 20 17 31 46 19 53 -6 4
-10 -3 -10 -14 0 -18 -6 -21 -52 -22 -49 -1 -51 -2 -22 -10 37 -11 66 -39 40
-39 -9 0 -16 -4 -16 -9 0 -5 18 -7 40 -4 26 4 40 2 40 -6 0 -6 -9 -11 -20 -11
-12 0 -34 -7 -50 -15 -29 -15 -65 -11 -54 7 3 5 12 7 19 4 9 -3 13 2 12 15 -1
15 -9 19 -38 19 -21 0 -40 6 -42 13 -3 7 -6 5 -6 -5 -1 -13 7 -18 24 -18 14 0
25 -4 25 -10 0 -14 -54 -12 -68 2 -9 9 -15 10 -20 2 -4 -7 -16 -14 -27 -17
-11 -2 0 -5 25 -6 33 -1 41 -4 30 -11 -8 -5 -24 -7 -35 -4 -18 4 -18 4 -2 -6
9 -6 21 -9 26 -6 5 3 29 2 53 -2 24 -5 54 -5 66 -1 12 5 24 4 27 0 2 -5 -6
-12 -20 -15 -14 -4 -25 -13 -25 -21 0 -8 -7 -15 -15 -15 -8 0 -15 -5 -15 -11
0 -6 -7 -9 -15 -5 -17 6 -65 -13 -65 -26 0 -4 -7 -8 -16 -8 -13 0 -14 -3 -4
-15 13 -16 6 -35 -15 -35 -8 0 -12 6 -9 14 3 9 -3 17 -17 21 -14 5 -18 10 -10
15 15 9 -44 12 -83 4 -20 -4 -25 -9 -16 -14 7 -5 20 -6 28 -2 10 3 13 1 8 -6
-9 -15 -1 -15 24 -2 15 8 21 6 30 -9 12 -23 -7 -42 -21 -20 -6 11 -11 11 -26
-2 -20 -16 -78 -45 -163 -80 -30 -12 -59 -27 -65 -34 -5 -6 -17 -10 -25 -8
-12 4 -13 3 -1 -5 11 -8 10 -12 -7 -21 -16 -8 -21 -7 -26 4 -7 18 -27 20 -23
3 1 -8 -10 -14 -25 -16 -31 -4 -39 14 -10 21 9 2 4 3 -13 1 -16 -2 -41 -6 -55
-10 -14 -4 -22 -3 -18 1 4 5 3 14 -3 22 -8 9 -8 13 -1 13 6 0 13 -4 17 -10 9
-14 34 0 28 16 -3 9 -11 13 -17 11 -20 -8 -58 12 -53 27 4 10 -7 17 -34 24
-22 6 -39 6 -39 1 0 -5 5 -9 10 -9 6 0 10 -5 10 -11 0 -7 -7 -8 -17 -4 -10 4
-29 9 -43 11 -14 2 -36 5 -50 7 -14 3 -17 2 -7 0 9 -2 17 -8 17 -13 0 -10 -48
-22 -60 -15 -6 4 -10 1 -10 -4 0 -6 18 -11 41 -11 25 0 38 -4 34 -10 -7 -11
10 -9 93 12 32 8 46 8 55 -1 8 -8 2 -11 -23 -12 -28 0 -31 -2 -15 -8 11 -5 26
-6 34 -3 10 4 12 1 6 -7 -6 -10 -25 -12 -76 -7 -71 7 -81 3 -51 -21 15 -12 12
-13 -28 -9 -25 3 -54 6 -65 6 l-20 1 20 8 c11 5 25 5 31 0 7 -6 16 -4 23 5 9
11 7 15 -11 18 -20 4 -58 4 -99 -1 -6 0 -9 -7 -6 -15 6 -16 -19 -25 -73 -27
l-35 -1 28 -11 c31 -12 37 -32 7 -22 -11 3 -20 2 -20 -4 0 -6 -11 -6 -32 0
-35 10 -91 -8 -84 -26 2 -5 7 -9 12 -8 5 1 25 4 45 8 26 5 40 2 52 -9 9 -9 34
-17 59 -17 l43 -1 -50 -9 c-39 -6 -53 -5 -66 7 -15 13 -16 12 -11 -12 3 -19 1
-25 -7 -20 -6 4 -11 3 -11 -3 0 -17 20 -23 35 -11 9 7 43 11 87 10 111 -3 117
-2 113 18 -2 9 -4 19 -4 21 -1 3 -6 0 -13 -7 -14 -14 -28 -16 -28 -3 0 5 15
13 33 16 17 4 37 11 42 16 6 4 30 7 53 6 23 -2 42 1 42 5 0 4 -4 8 -10 8 -5 0
-6 8 -3 18 5 14 4 15 -8 6 -28 -22 -47 -23 -65 -3 -17 19 -16 19 52 15 38 -3
84 -8 103 -12 22 -4 36 -3 41 6 9 15 30 4 30 -16 0 -8 4 -14 10 -14 5 0 18 -9
28 -20 17 -18 20 -19 32 -5 7 8 22 15 34 16 11 0 30 5 41 10 20 8 19 9 -1 6
-29 -3 -28 12 3 55 31 42 44 48 36 18 -3 -11 0 -20 6 -20 18 0 13 -28 -6 -33
-16 -4 -16 -5 -1 -6 9 0 24 6 33 15 15 16 16 16 13 -2 -2 -14 2 -18 16 -16 10
2 15 -1 12 -6 -3 -6 -23 -12 -43 -15 -21 -3 -47 -7 -58 -10 -11 -3 -33 -6 -50
-8 -30 -2 -30 -2 5 -8 19 -4 42 -4 50 0 8 3 32 9 54 12 35 6 37 5 20 -8 -18
-13 -17 -14 11 -14 17 0 39 4 50 8 19 8 19 8 -4 20 -17 10 -20 16 -12 24 13
13 111 17 111 5 0 -7 -34 -11 -85 -10 -16 1 -16 0 -3 -4 9 -3 20 -15 24 -27 7
-21 7 -21 14 -2 7 18 9 18 15 3 4 -9 13 -14 21 -11 8 3 14 0 14 -6 0 -6 -6
-11 -12 -11 -7 0 -5 -5 5 -11 12 -7 28 -7 51 1 18 6 40 8 49 4 10 -3 17 -1 17
5 0 6 -11 11 -24 11 -30 0 -42 16 -26 35 17 21 84 20 76 0 -3 -8 0 -15 7 -15
25 0 16 36 -11 48 -21 8 -22 11 -7 10 34 -1 41 2 25 12 -8 5 -11 12 -7 16 3 4
13 1 22 -6 9 -7 18 -10 21 -7 3 3 -5 12 -18 20 -29 18 -142 32 -133 16 4 -6
-2 -13 -15 -16 -16 -4 -18 -8 -9 -14 10 -6 5 -11 -14 -18 -40 -16 -60 -14 -53
4 3 8 0 15 -7 16 -7 1 -1 5 13 9 17 5 19 8 7 9 -15 1 -15 4 -5 21 8 12 22 19
38 18 25 -2 75 24 96 49 6 7 26 14 44 16 23 3 36 11 41 25 10 28 29 37 30 15
0 -15 2 -15 11 3 12 25 48 44 83 44 28 0 34 -17 10 -27 -12 -4 -10 -9 11 -19
31 -16 58 -18 49 -4 -8 13 6 13 60 -1 47 -12 53 -33 7 -24 -25 5 -25 5 -4 -4
12 -6 28 -8 36 -5 8 3 17 1 21 -5 3 -6 15 -11 26 -11 10 0 20 -3 20 -7 7 -39
5 -53 -8 -53 -8 0 -11 -5 -7 -12 5 -8 0 -9 -15 -5 -29 7 -51 -1 -51 -20 0 -8
-4 -12 -9 -8 -5 3 -12 1 -15 -4 -4 -5 3 -13 15 -16 11 -4 19 -9 16 -11 -2 -3
-17 1 -33 7 -42 17 -54 19 -78 9 -15 -6 -16 -9 -5 -9 9 -1 22 -8 29 -16 24
-29 120 -13 120 19 0 8 11 21 24 29 44 29 59 49 44 58 -9 6 -3 9 17 9 45 0
155 105 139 132 -20 32 -11 46 28 44 21 -1 38 1 38 6 0 4 -5 8 -11 8 -5 0 -7
5 -4 10 3 6 1 10 -4 10 -6 0 -11 5 -11 12 0 9 3 9 12 0 19 -19 49 -14 69 12
11 14 28 28 39 31 11 4 20 11 20 16 0 6 -6 6 -18 0 -20 -10 -72 -3 -72 10 0 5
8 9 18 9 23 1 50 22 45 37 -2 6 8 13 23 15 15 2 29 9 32 16 3 10 -2 10 -22 1
-23 -11 -29 -9 -49 9 -26 24 -47 14 -47 -21 0 -18 -2 -18 -35 3 l-36 22 -30
-32 c-17 -17 -31 -40 -32 -50 -1 -10 -6 -16 -11 -12 -13 7 -56 12 -56 6 0 -3
10 -9 23 -14 21 -8 20 -9 -11 -16 -18 -3 -35 -11 -38 -15 -3 -5 -23 -9 -46 -9
-30 0 -39 -3 -35 -14 4 -10 -5 -16 -29 -21 -19 -3 -32 -10 -29 -16 4 -5 -4 -9
-17 -8 -13 0 -17 3 -10 6 6 2 10 9 6 14 -3 5 -1 9 4 9 4 0 23 13 40 29 22 19
30 34 26 45 -3 9 -2 16 4 16 6 0 12 -6 14 -12 4 -12 83 42 100 67 17 27 46 52
81 70 56 29 55 36 -7 33 -30 -1 -53 -5 -51 -8z"/>
<path d="M1535 697 c20 -16 19 -16 -7 -17 -15 0 -30 -4 -33 -10 -4 -6 6 -7 27
-3 18 3 30 2 25 -2 -4 -5 -23 -10 -42 -12 -33 -3 -40 3 -36 30 0 4 -20 7 -45
7 -27 0 -43 -4 -39 -10 3 -5 17 -10 31 -10 14 0 24 -6 24 -14 0 -16 41 -23 90
-16 25 4 35 10 34 23 -1 9 3 17 10 17 18 0 67 -36 59 -44 -21 -21 -10 -36 25
-35 33 1 35 2 12 9 -23 7 -22 8 9 9 33 1 34 2 15 16 -18 14 -18 14 6 15 14 0
31 4 39 9 10 7 5 11 -17 16 -18 3 -37 3 -43 -1 -8 -4 -9 -3 -5 4 9 15 82 16
91 2 3 -5 16 -9 28 -9 17 1 18 2 5 6 -10 2 -18 11 -18 18 0 9 -10 12 -32 10
-72 -9 -194 -9 -213 -1 l-20 9 20 -16z"/>
<path d="M2102 578 c-13 -7 -21 -17 -18 -25 4 -11 1 -11 -15 -2 -26 13 -35 6
-14 -11 12 -10 26 -10 75 3 49 12 60 12 60 2 0 -8 8 -21 17 -31 17 -17 16 -17
-16 -11 -25 5 -32 4 -28 -6 4 -10 -3 -12 -23 -9 -16 2 -36 -1 -47 -6 -17 -10
-16 -11 7 -21 14 -5 19 -10 12 -10 -7 -1 -21 4 -31 10 -14 9 -25 9 -48 -3 -17
-8 -37 -12 -44 -8 -11 6 -62 7 -123 1 -5 -1 1 -9 12 -20 31 -26 28 -31 -18
-31 -27 0 -43 -5 -46 -15 -7 -17 -34 -21 -34 -5 0 6 -9 10 -20 10 -17 0 -19
-5 -13 -32 3 -18 6 -34 7 -35 1 -1 28 7 60 18 33 10 69 19 81 19 11 0 30 6 41
14 10 8 30 13 44 10 22 -5 23 -4 6 7 -15 9 -16 13 -5 20 9 6 -1 9 -28 9 -24 0
-43 4 -43 9 0 13 64 20 71 9 4 -6 39 -9 83 -6 42 2 76 0 76 -4 0 -9 50 12 68
29 16 15 62 17 62 4 0 -6 12 -3 28 5 15 7 32 14 37 14 15 0 95 44 95 52 0 9
-56 10 -88 2 -20 -6 -21 -8 -7 -18 13 -9 7 -11 -30 -11 -25 1 -50 6 -56 12 -6
6 -17 9 -24 7 -7 -3 -16 -1 -20 5 -4 7 9 11 37 12 24 1 57 5 73 9 28 7 27 8
-12 9 -24 0 -43 4 -43 9 0 4 -23 8 -51 9 -28 1 -58 4 -68 7 -9 2 -26 0 -39 -6z"/>
<path d="M3348 421 c-7 -12 -19 -21 -26 -21 -7 0 -10 -4 -7 -10 3 -5 -1 -10
-9 -10 -9 0 -16 -4 -16 -10 0 -5 -10 -9 -21 -7 -12 1 -24 -3 -26 -9 -2 -7 6
-12 19 -12 13 0 47 -9 76 -21 l52 -21 10 26 c8 19 15 24 28 19 38 -15 107 -23
117 -14 5 5 -1 9 -18 9 -46 0 -25 26 28 35 6 0 21 5 34 9 18 6 20 10 10 17 -8
4 -19 3 -26 -3 -7 -6 -13 -6 -13 -1 0 10 -80 31 -115 31 -11 0 -34 3 -52 7
-26 6 -34 3 -45 -14z"/>
<path d="M1650 296 c0 -9 -13 -18 -35 -22 -29 -5 -35 -11 -35 -31 0 -19 -4
-24 -16 -19 -27 10 -75 -16 -68 -36 4 -12 0 -18 -11 -18 -15 0 -15 -2 1 -17
11 -11 19 -14 21 -7 2 6 15 9 30 6 26 -5 26 -5 -8 -16 -28 -10 -39 -9 -64 5
-18 11 -41 15 -58 12 -24 -5 -27 -9 -25 -40 2 -38 16 -53 29 -32 8 12 10 12
18 0 7 -11 10 -10 18 4 6 11 43 27 94 41 46 13 73 23 59 22 -32 -1 -62 11 -54
23 3 5 0 9 -6 9 -6 0 -8 5 -5 10 4 6 11 8 16 4 5 -3 23 -2 41 1 22 5 27 9 17
16 -11 7 -11 9 2 9 9 0 22 7 29 15 10 12 10 15 -4 15 -25 0 -19 20 7 21 12 1
26 1 30 0 5 -1 7 6 5 15 -4 22 -28 31 -28 10z"/>
<path d="M2646 208 c3 -4 -32 -7 -76 -6 -45 0 -84 -3 -87 -6 -4 -3 12 -6 35
-6 23 0 42 -4 42 -10 0 -10 -20 -14 -52 -12 -10 1 -22 -7 -28 -19 -6 -11 -19
-19 -28 -18 -37 3 -45 0 -32 -15 9 -12 5 -16 -27 -21 -21 -3 -66 -15 -101 -26
-34 -10 -74 -19 -87 -19 -29 0 -32 -8 -7 -26 15 -12 11 -13 -27 -7 -33 4 -42
3 -37 -6 9 -14 313 -14 330 0 27 23 128 89 136 89 4 0 14 12 21 28 6 15 26 36
42 47 42 27 45 43 8 41 -16 0 -27 -4 -25 -8z"/>
<path d="M2862 133 c-17 -8 -30 -19 -27 -23 3 -4 -5 -10 -18 -14 -12 -3 -23
-1 -25 4 -2 6 -15 10 -29 10 -21 0 -24 -2 -13 -15 7 -8 8 -15 2 -15 -5 0 -15
7 -23 16 -14 17 -52 12 -75 -11 -11 -11 -11 -14 1 -18 7 -3 15 -1 17 5 2 6 12
3 23 -8 18 -19 18 -19 -11 -25 -28 -6 -28 -7 -4 -9 14 -1 29 -2 34 -1 4 1 17
-1 28 -5 16 -5 18 -8 7 -15 -10 -6 -8 -9 9 -9 14 0 36 13 53 31 20 22 35 30
49 26 21 -5 75 16 98 40 11 11 10 13 -6 13 -11 0 -23 -6 -25 -12 -3 -8 -6 -5
-6 6 -1 12 -6 16 -16 12 -8 -3 -15 -1 -15 3 0 5 5 11 12 13 7 3 8 7 2 10 -5 4
-24 0 -42 -9z"/>
<path d="M3216 132 c-11 -2 -28 -14 -37 -26 -15 -17 -18 -18 -19 -4 0 12 -6
15 -22 10 -14 -3 -19 -2 -14 6 4 7 2 12 -3 12 -6 0 -11 -4 -11 -10 0 -5 -8 -9
-17 -8 -35 3 -54 -2 -48 -12 3 -5 2 -10 -4 -10 -5 0 -11 5 -13 11 -6 17 -69
-16 -91 -46 -17 -23 -17 -26 -2 -32 10 -3 21 0 25 7 4 7 13 9 19 5 7 -4 23 1
37 10 14 9 33 14 42 10 13 -5 9 -10 -18 -22 -19 -8 -30 -17 -23 -20 7 -2 22 1
34 8 18 9 21 9 16 -4 -5 -13 14 -15 129 -15 120 -1 153 5 125 22 -5 4 -11 1
-13 -5 -3 -9 -10 -9 -27 1 -13 6 -34 10 -47 7 -13 -2 -24 0 -24 4 0 5 5 9 11
9 6 0 17 7 25 15 17 17 34 20 34 5 0 -5 7 -7 15 -4 8 4 15 2 15 -3 0 -5 7 -10
15 -10 11 0 12 4 6 10 -13 13 5 37 28 37 9 0 23 5 31 11 12 8 10 9 -9 4 -13
-4 -21 -3 -18 2 3 5 -13 8 -36 8 -23 -1 -46 1 -52 5 -17 12 -39 16 -59 12z"/>
</g>
</svg>
