<?xml version="1.0" standalone="no"?>
<!DOCTYPE svg PUBLIC "-//W3C//DTD SVG 20010904//EN"
 "http://www.w3.org/TR/2001/REC-SVG-20010904/DTD/svg10.dtd">
<svg version="1.0" xmlns="http://www.w3.org/2000/svg"
 width="1182.000000pt" height="664.000000pt" viewBox="0 0 1182.000000 664.000000"
 preserveAspectRatio="xMidYMid meet">
<metadata>
Created by potrace 1.14, written by Peter Selinger 2001-2017
</metadata>
<g transform="translate(0.000000,664.000000) scale(0.100000,-0.100000)"
fill="#000000" stroke="none">
<path d="M0 4664 c0 -1341 3 -1973 10 -1969 13 8 230 14 230 6 0 -3 16 -7 36
-8 30 -1 33 0 20 10 -13 10 3 12 81 12 68 0 98 4 101 13 2 7 22 12 49 12 32 0
51 6 62 18 18 21 82 34 176 36 36 1 63 6 68 14 5 7 13 10 18 6 6 -3 28 2 50
11 34 16 39 22 39 50 0 18 7 38 15 45 8 7 15 21 15 31 0 11 5 19 10 19 6 0 10
-7 10 -15 0 -22 31 -18 37 4 3 13 11 17 24 14 10 -3 19 -9 19 -14 0 -14 22
-10 41 7 10 9 37 26 60 38 23 13 44 32 45 42 2 10 12 25 23 33 28 18 26 37 -4
65 l-24 23 29 28 c17 16 30 36 30 44 0 9 10 21 22 26 13 6 24 18 26 27 5 26
80 97 86 81 3 -7 11 -13 18 -13 9 0 10 2 2 8 -7 4 -13 27 -15 51 -4 41 -2 45
28 62 18 10 40 16 48 13 10 -4 15 0 15 15 0 13 -5 19 -14 15 -8 -3 -17 2 -20
14 -7 22 18 88 36 94 10 4 10 10 0 32 -10 22 -9 28 4 33 9 3 21 -3 30 -16 19
-27 31 -27 39 0 5 16 12 19 30 15 13 -3 27 -2 30 4 3 5 -1 10 -10 10 -24 0
-12 24 14 28 16 3 24 -2 28 -17 7 -27 25 -27 60 2 41 32 70 47 93 47 17 0 18
-3 9 -19 -8 -11 -9 -26 -4 -37 8 -17 9 -16 13 6 2 14 8 30 14 37 5 6 8 31 6
54 -3 39 0 44 24 53 36 13 43 4 23 -28 -22 -34 -4 -33 32 0 18 18 24 28 16 31
-7 3 -13 18 -13 33 0 16 -4 32 -10 35 -5 3 -10 1 -10 -4 0 -20 -15 -11 -27 15
-13 27 -8 54 10 54 5 0 34 12 64 26 48 24 53 29 53 60 l0 34 55 0 c61 0 96
-20 88 -51 -4 -15 0 -19 20 -19 31 0 41 13 33 46 -5 17 -13 24 -31 24 -26 0
-33 14 -14 26 8 4 7 9 -2 15 -11 6 -10 9 2 14 16 6 51 -6 81 -27 9 -7 20 -9
24 -5 13 13 -18 56 -49 67 -17 5 -36 18 -43 28 -11 17 -20 18 -81 10 -70 -10
-100 -29 -60 -39 22 -5 22 -5 1 -11 -22 -6 -54 12 -54 31 0 7 -8 11 -17 9 -14
-2 -18 3 -16 25 1 15 9 34 17 43 9 8 16 26 16 40 0 27 20 34 21 7 0 -10 5 -4
10 13 6 22 17 34 34 38 28 7 33 21 10 30 -14 5 -14 8 0 29 13 21 14 30 3 63
-8 24 -20 40 -32 42 -11 3 -16 0 -12 -7 4 -6 1 -11 -6 -12 -7 0 -21 -2 -32 -4
-27 -5 -46 5 -39 21 3 9 -2 14 -16 14 -12 0 -21 5 -21 11 0 6 8 9 18 7 9 -2
23 3 29 12 11 13 14 13 22 1 5 -8 16 -11 25 -8 20 8 21 47 1 47 -8 0 -15 3
-16 8 0 4 -2 17 -3 28 -1 12 -10 30 -20 39 -10 10 -15 26 -13 37 4 13 -2 22
-18 28 -28 11 -36 30 -19 47 20 21 156 16 245 -9 44 -11 79 -24 79 -27 0 -4
36 -7 80 -6 47 0 80 -4 80 -10 0 -5 11 2 24 17 17 19 26 23 29 14 6 -16 34
-15 64 2 13 7 24 8 27 3 4 -5 0 -12 -6 -14 -8 -4 -7 -6 4 -6 9 -1 18 -6 20
-13 3 -8 10 -8 26 4 12 8 19 18 15 21 -3 4 -1 7 5 7 6 0 15 -8 21 -17 8 -14
26 -17 115 -18 58 0 106 3 106 7 0 5 6 8 14 8 8 0 16 4 18 10 2 6 32 6 83 1
78 -8 78 -8 23 -10 -32 0 -58 -5 -58 -11 0 -13 137 -13 142 0 6 17 112 27 198
16 62 -7 85 -6 88 2 5 16 29 15 34 0 4 -10 11 -10 33 0 21 10 30 10 35 1 6 -8
17 -8 46 2 22 7 63 12 92 11 28 0 52 3 52 8 0 5 8 8 18 8 9 -1 29 2 45 5 23 6
27 4 27 -13 0 -16 15 -24 78 -44 42 -13 69 -25 60 -25 -10 -1 -18 -5 -18 -11
0 -6 30 -10 70 -10 56 0 70 3 70 15 0 8 5 15 10 15 6 0 10 -4 10 -9 0 -5 26
-9 58 -9 123 1 126 0 173 -43 42 -39 46 -40 102 -37 31 2 57 0 57 -4 0 -5 -4
-8 -10 -8 -5 0 -15 -18 -21 -40 -7 -22 -16 -40 -21 -40 -4 0 -8 -9 -8 -19 0
-11 -4 -23 -10 -26 -5 -3 -10 -15 -10 -25 0 -30 43 -37 69 -11 24 24 53 26 96
7 l30 -13 -60 -8 c-231 -28 -290 -76 -288 -236 1 -52 7 -87 18 -106 9 -15 13
-19 9 -8 -4 11 -9 37 -12 58 -4 37 -4 37 22 26 14 -7 28 -20 31 -31 4 -10 13
-18 21 -18 8 0 17 -7 20 -15 4 -9 19 -15 40 -15 27 0 34 -4 34 -19 0 -31 14
-32 44 -4 24 22 31 24 50 13 13 -6 34 -10 47 -8 18 2 24 -2 25 -17 1 -67 18
-119 49 -149 18 -18 36 -43 40 -55 3 -11 11 -21 16 -21 5 0 9 -7 9 -15 0 -8 5
-15 11 -15 5 0 8 -4 5 -9 -9 -13 42 -59 79 -71 26 -8 35 -18 37 -38 3 -25 6
-27 43 -25 28 2 34 0 21 -5 -19 -8 -19 -9 2 -14 12 -4 22 -2 22 3 0 20 104 -6
120 -30 3 -4 19 -15 35 -24 l30 -16 -45 -1 c-25 -1 -54 -6 -65 -11 -14 -7 -4
-8 35 -4 37 3 50 1 40 -5 -8 -5 -26 -10 -40 -10 l-25 -1 25 -11 c24 -11 24
-12 -15 -18 -22 -4 -32 -8 -22 -9 38 -3 43 -21 42 -168 0 -79 3 -143 7 -143 4
0 8 -12 8 -27 0 -16 7 -41 16 -58 9 -16 26 -48 38 -70 27 -51 44 -72 134 -165
l73 -75 -28 -6 c-25 -6 -24 -7 10 -8 40 -1 73 -23 62 -41 -3 -5 -1 -10 5 -10
7 0 10 -6 7 -14 -6 -15 18 -30 33 -21 5 3 11 1 15 -5 4 -6 -9 -11 -32 -11 -23
-1 -29 -3 -15 -6 31 -6 28 -21 -5 -26 -18 -3 -11 -5 17 -5 63 0 67 -1 50 -12
-11 -7 -7 -10 18 -10 37 0 39 4 12 48 -11 18 -19 36 -18 40 1 4 -16 42 -37 85
-30 60 -35 81 -26 90 9 9 14 9 20 -2 7 -11 9 -11 13 0 4 10 14 6 36 -15 l31
-28 -30 -25 c-28 -24 -41 -52 -18 -37 6 3 15 1 19 -7 5 -7 16 -14 25 -15 40
-6 47 -14 40 -42 -5 -22 -4 -25 6 -14 7 6 19 12 27 12 18 0 45 -28 37 -39 -3
-5 -1 -12 5 -16 6 -4 8 -11 5 -16 -14 -21 8 -26 68 -15 78 15 95 11 71 -15
-17 -18 -17 -19 2 -18 41 4 64 -2 64 -16 0 -19 21 -19 66 0 20 8 41 12 47 8 6
-4 1 -10 -11 -14 -12 -5 -22 -15 -22 -24 0 -8 -4 -15 -10 -15 -5 0 -10 -7 -10
-16 0 -14 -9 -16 -50 -12 -46 5 -68 -4 -37 -15 19 -6 -7 -32 -57 -56 -48 -24
-72 -26 -79 -8 -3 9 -7 9 -17 0 -15 -14 -44 9 -54 45 -4 12 -12 22 -17 22 -5
0 -9 7 -9 15 0 19 -7 19 -26 1 -9 -9 -26 -13 -47 -10 -17 3 -72 -4 -122 -15
-60 -14 -73 -19 -40 -15 28 2 63 7 79 10 19 4 26 3 22 -5 -4 -5 -23 -13 -42
-17 -19 -3 -32 -9 -30 -12 7 -6 114 16 138 29 32 16 46 9 59 -28 13 -41 27
-55 47 -48 6 2 12 1 12 -4 0 -4 -25 -13 -55 -20 -61 -14 -69 -24 -27 -39 l27
-10 -32 -1 c-17 -1 -34 -5 -37 -10 -4 -5 -37 -14 -74 -21 -134 -22 -102 -34
41 -15 20 3 37 2 37 -1 0 -10 -33 -33 -48 -34 -7 0 -20 -7 -29 -15 -13 -14
-11 -17 18 -27 l32 -11 -34 -18 c-19 -10 -42 -18 -53 -19 -15 0 -16 -3 -6 -15
7 -8 21 -15 31 -15 11 0 19 -4 19 -8 0 -14 -35 -42 -53 -42 -22 0 -33 -20 -16
-30 7 -5 17 -6 21 -4 4 3 8 3 8 0 0 -2 -22 -18 -50 -35 -27 -17 -50 -34 -50
-38 1 -20 19 -29 65 -32 94 -5 76 -29 -24 -30 -43 -1 -60 -7 -90 -30 -20 -16
-67 -40 -106 -54 -81 -30 -77 -34 9 -10 34 9 70 25 82 35 23 21 102 39 91 21
-4 -6 -19 -14 -33 -17 -31 -8 -74 -35 -74 -46 0 -5 23 1 51 11 28 11 54 18 57
15 3 -3 -4 -8 -14 -12 -54 -17 -84 -31 -134 -61 -30 -18 -63 -33 -73 -33 -10
0 -15 -4 -12 -10 3 -5 30 -10 58 -11 62 -1 54 -5 -28 -14 -51 -6 -57 -9 -35
-17 24 -9 24 -9 -15 -33 -22 -13 -49 -25 -60 -25 -11 -1 -29 -6 -40 -11 -19
-9 68 -5 155 7 l35 5 -40 -14 c-22 -8 -74 -22 -115 -32 -165 -39 -140 -45 39
-10 104 21 126 22 142 11 17 -12 12 -14 -48 -24 -75 -11 -148 -28 -268 -61
-80 -22 -92 -27 -84 -35 4 -5 103 19 118 28 4 3 46 12 92 21 186 34 208 37
226 26 16 -9 15 -10 -6 -11 -14 0 -38 -4 -55 -10 -17 -5 -107 -28 -201 -50
-203 -48 -271 -68 -235 -69 14 -1 50 6 80 14 54 15 258 57 333 69 l37 6 0 -44
c0 -41 -2 -45 -30 -51 -21 -5 -30 -13 -30 -26 0 -10 5 -19 10 -19 6 0 10 -10
10 -22 0 -19 -2 -20 -10 -8 -8 13 -10 13 -10 -1 0 -23 -33 -49 -62 -49 -14 0
-31 -6 -37 -14 -7 -8 -28 -16 -49 -19 -89 -12 -228 -84 -234 -122 -3 -18 -15
-21 -133 -30 -125 -10 -128 -11 -85 -22 l45 -11 -69 -1 c-38 -1 -67 -3 -64 -6
3 -3 47 -9 99 -14 l94 -8 -102 -2 c-56 0 -105 -5 -108 -11 -4 -6 6 -10 22 -11
15 0 37 -5 48 -10 16 -7 12 -8 -14 -4 -18 3 -44 5 -58 5 -14 0 -21 4 -18 10 4
6 -10 10 -34 10 -23 0 -41 -5 -41 -11 0 -5 6 -7 13 -3 8 5 8 2 -2 -9 -11 -15
-11 -17 2 -17 10 0 13 -6 10 -19 -2 -10 2 -24 9 -32 8 -8 17 -21 20 -30 7 -17
88 -32 88 -17 0 5 12 8 27 8 20 0 24 -3 16 -11 -12 -12 -88 -14 -135 -4 -37 9
-29 -12 17 -44 43 -29 39 -36 -12 -22 -65 18 -139 -13 -169 -70 -13 -27 -20
-30 -47 -26 -76 11 -147 -49 -147 -124 0 -29 -3 -37 -14 -33 -16 6 -68 -24
-61 -36 5 -8 -66 -23 -73 -15 -2 2 11 17 30 34 22 20 28 31 17 31 -8 0 -24 -9
-36 -19 -12 -11 -25 -16 -33 -11 -8 5 -3 12 18 21 22 10 31 21 34 44 3 28 1
30 -29 31 -24 0 -30 -3 -23 -11 8 -9 2 -14 -21 -19 -43 -8 -58 -6 -34 4 16 7
17 9 3 9 -9 1 -20 -3 -23 -9 -6 -10 -85 17 -97 34 -10 15 -111 10 -102 -6 3
-4 0 -8 -5 -8 -6 0 -11 5 -11 11 0 5 -4 8 -9 4 -5 -3 -12 -1 -15 4 -3 5 1 12
10 15 8 3 12 10 9 16 -3 5 1 10 10 10 9 0 13 -4 10 -10 -3 -5 -3 -10 0 -10 6
0 12 4 66 50 20 16 42 30 48 30 6 0 11 5 11 10 0 6 4 9 8 8 4 -2 30 16 57 39
28 24 45 43 38 43 -6 0 -18 -7 -27 -15 -8 -8 -22 -15 -31 -15 -10 0 -13 -5 -9
-12 5 -8 2 -9 -11 -4 -11 4 -25 0 -35 -9 -17 -16 -119 -23 -157 -11 -14 4 -23
2 -26 -8 -5 -12 1 -13 29 -9 47 8 44 -13 -3 -26 -21 -6 -48 -11 -60 -11 -12 0
-29 -7 -37 -16 -9 -8 -20 -13 -25 -10 -5 3 -20 2 -33 -3 -22 -9 -22 -10 -2
-10 23 -1 51 -27 41 -38 -4 -3 -13 0 -22 7 -12 10 -18 10 -30 0 -8 -6 -18 -9
-24 -6 -13 8 -42 -4 -35 -15 3 -5 -10 -10 -28 -10 -23 -1 -26 -3 -10 -6 31 -6
27 -17 -11 -31 -39 -14 -73 -15 -38 -1 13 5 22 12 19 14 -3 3 -17 1 -32 -5
-18 -6 -25 -6 -21 0 3 6 1 10 -4 10 -6 0 -11 7 -11 15 0 10 9 13 29 10 16 -2
37 2 47 9 15 11 13 13 -13 13 -32 0 -93 23 -93 35 0 11 12 10 59 -7 22 -8 41
-13 42 -12 0 1 2 12 3 25 3 26 -8 38 -48 48 -22 5 -28 4 -24 -7 3 -8 12 -13
21 -11 8 1 18 -2 22 -8 3 -5 2 -10 -4 -10 -5 0 -16 -3 -25 -6 -11 -4 -19 1
-24 16 -8 20 -10 21 -24 6 -10 -9 -29 -14 -52 -12 -20 1 -36 -2 -36 -6 0 -5
-4 -6 -10 -3 -5 3 -10 -3 -10 -14 0 -24 -22 -28 -39 -8 -8 10 -4 20 18 41 16
16 34 25 39 22 6 -3 17 1 25 9 12 11 17 12 20 2 4 -9 8 -9 15 2 7 9 25 12 58
9 37 -3 53 1 67 15 18 18 18 19 0 33 -11 8 -29 11 -45 8 -23 -5 -28 -2 -28 14
0 13 -8 21 -25 24 -19 4 -25 1 -25 -13 0 -11 -7 -19 -15 -19 -8 0 -15 7 -15
15 0 8 -4 15 -10 15 -5 0 -10 -9 -10 -20 0 -11 7 -20 15 -20 8 0 15 -6 15 -13
0 -17 -51 -20 -87 -6 -21 8 -24 7 -19 -7 4 -11 2 -15 -8 -11 -8 3 -16 1 -18
-5 -2 -5 -25 -12 -51 -15 -25 -3 -44 -9 -41 -14 6 -10 -59 -12 -69 -2 -7 6 22
32 37 33 4 0 6 -7 2 -15 -3 -8 -1 -15 5 -15 5 0 15 14 20 30 6 17 15 30 21 30
5 0 6 5 3 10 -4 7 -14 3 -26 -11 -12 -14 -24 -19 -36 -15 -14 6 -15 9 -4 16
10 6 7 8 -10 9 -13 0 -35 2 -49 5 -14 2 -28 5 -31 5 -9 1 -18 52 -12 67 2 7
18 17 35 23 37 13 41 13 34 3 -3 -5 12 -6 32 -2 21 3 36 11 35 18 -5 19 17 14
48 -12 17 -14 25 -27 19 -31 -12 -7 -4 -25 11 -25 6 0 7 5 4 10 -3 6 -2 10 4
10 5 0 18 3 28 7 17 7 17 6 -1 -12 -14 -15 -15 -20 -5 -24 7 -2 15 1 17 8 2 6
18 11 35 12 18 0 25 3 17 6 -8 3 -17 9 -20 13 -3 4 -22 10 -44 13 -34 5 -55
19 -56 38 0 4 18 9 39 13 21 3 41 13 45 21 3 8 15 15 26 15 11 0 20 7 20 15 0
8 5 15 10 15 6 0 9 12 8 27 -3 26 0 28 31 29 20 0 37 6 39 13 3 9 0 11 -9 7
-8 -4 -5 0 6 9 20 17 20 17 -3 10 -19 -5 -32 2 -73 43 -48 48 -70 60 -27 15
12 -13 19 -25 16 -28 -7 -8 -110 92 -132 129 -14 21 -20 25 -26 15 -6 -9 -13
-2 -26 24 -17 35 -18 36 -63 31 -34 -4 -42 -3 -31 5 8 6 10 11 4 11 -6 0 -23
-9 -37 -20 -14 -11 -30 -20 -35 -20 -6 0 -25 -20 -43 -45 -19 -26 -40 -45 -48
-43 -16 2 -101 -42 -134 -71 -15 -12 -20 -13 -26 -2 -7 11 -10 11 -17 -1 -10
-16 -56 -38 -127 -62 -26 -9 -59 -23 -72 -32 -14 -9 -32 -13 -42 -10 -10 4
-14 4 -10 0 4 -4 -6 -15 -22 -25 -17 -10 -37 -30 -47 -44 -19 -29 -39 -32 -61
-10 -20 21 -8 33 17 17 11 -7 21 -8 25 -2 3 5 -4 14 -15 20 -11 6 -20 8 -20 5
0 -3 -15 2 -32 10 -24 12 -28 12 -15 2 22 -18 22 -24 -3 -37 -12 -6 -20 -7
-20 -1 0 5 8 12 18 14 9 3 -4 5 -29 6 -32 1 -51 7 -64 21 -10 11 -27 20 -37
20 -11 0 -16 4 -13 10 4 6 -5 10 -21 10 l-27 0 25 -23 c13 -12 43 -29 66 -36
23 -8 42 -18 42 -22 0 -4 15 -15 33 -24 17 -9 41 -23 52 -31 20 -15 20 -16 -9
-37 -33 -24 -70 -31 -62 -11 6 16 -10 28 -19 14 -3 -5 -19 -10 -34 -10 -16 0
-37 -10 -50 -24 l-23 -24 39 -1 c80 -1 94 -5 91 -26 -2 -12 -12 -21 -25 -23
-13 -2 -23 -7 -23 -12 0 -4 -8 -6 -18 -3 -16 4 -18 0 -14 -27 2 -17 11 -34 18
-37 8 -3 14 -10 14 -17 0 -6 10 -16 22 -21 16 -7 22 -18 21 -33 -2 -16 2 -22
17 -22 11 0 20 -4 20 -10 0 -5 7 -10 17 -10 13 0 12 -3 -5 -19 -37 -31 0 -43
51 -16 15 8 25 10 22 5 -4 -6 12 -10 36 -10 l43 0 -22 20 c-21 19 -21 50 0 50
6 0 8 -7 4 -15 -3 -9 0 -15 9 -15 8 0 24 -8 35 -17 15 -13 17 -19 7 -26 -7 -5
-2 -6 14 -3 21 5 28 1 32 -13 6 -24 -18 -35 -36 -17 -10 10 -48 14 -135 15
-68 1 -129 4 -137 7 -8 4 -15 2 -15 -4 0 -14 25 -22 71 -22 26 0 38 -4 34 -11
-8 -12 79 -2 107 12 16 9 24 1 54 -49 3 -5 84 42 84 49 0 6 56 39 66 39 8 0
-5 -35 -14 -38 -7 -2 -12 -7 -12 -12 0 -5 25 -7 56 -4 47 3 53 2 41 -10 -7 -8
-25 -12 -38 -9 -20 4 -25 0 -25 -16 0 -12 2 -21 3 -21 2 0 34 12 72 27 68 26
69 27 47 44 -18 16 -18 18 -4 19 9 0 29 -5 43 -12 19 -9 34 -8 66 2 33 11 38
15 23 21 -31 12 -82 10 -86 -3 -3 -9 -9 -8 -21 4 -21 21 -22 38 -2 38 8 0 15
-4 15 -8 0 -11 69 -2 76 9 3 5 -7 9 -22 9 -22 0 -25 3 -16 12 7 7 12 24 12 40
l0 27 38 -21 c20 -12 44 -27 52 -33 8 -7 42 -22 75 -35 33 -13 85 -41 116 -62
31 -21 63 -38 70 -38 8 0 37 -8 64 -19 66 -25 141 -35 150 -21 4 7 11 8 18 1
7 -5 26 -11 42 -13 17 -1 29 -8 28 -15 -2 -11 42 -4 67 12 6 4 18 1 26 -6 10
-8 18 -9 22 -2 4 5 49 18 99 28 51 9 90 21 87 26 -3 5 -9 7 -14 4 -4 -2 -18 3
-31 13 -13 10 -37 17 -52 16 -35 -4 -80 -31 -72 -45 4 -6 -15 -7 -52 -3 -51 5
-56 4 -41 -9 10 -8 15 -17 11 -20 -10 -10 -25 -8 -18 2 3 5 -20 13 -50 16 -58
8 -72 25 -34 41 l21 10 -21 24 c-17 20 -22 22 -30 11 -5 -8 -19 -12 -35 -9
-14 3 -23 1 -20 -3 3 -5 24 -9 47 -9 39 0 40 -1 24 -17 -17 -17 -33 -14 -87
18 -33 20 -64 30 -77 25 -14 -6 -15 0 -4 29 9 21 -7 45 -25 38 -18 -7 -29 18
-13 28 27 16 -19 21 -52 5 -44 -22 -72 -21 -65 2 5 14 -7 21 -67 40 -40 13
-80 20 -90 16 -28 -10 -107 5 -107 22 0 11 9 13 42 8 30 -5 39 -4 34 4 -4 7
-19 12 -34 12 -26 0 -26 0 -7 20 25 24 83 18 115 -12 13 -12 31 -18 49 -16 16
1 36 -3 44 -10 9 -7 29 -14 45 -14 23 -1 28 -5 25 -18 -6 -23 15 -30 66 -20
23 4 39 5 37 2 -3 -3 7 -11 22 -19 18 -10 44 -13 80 -9 50 5 52 5 42 -14 -10
-19 1 -34 24 -35 5 0 11 -6 14 -12 2 -9 -9 -13 -37 -13 -39 0 -53 11 -31 25
21 13 -1 24 -23 12 -12 -6 -23 -13 -25 -14 -2 -1 5 -10 16 -21 14 -14 32 -19
66 -18 26 1 50 -4 54 -11 4 -6 25 -12 47 -13 58 -3 74 1 45 10 l-25 8 25 2
c14 1 30 2 37 1 6 -1 14 3 18 9 4 6 12 6 25 -2 14 -9 25 -9 47 1 30 15 88 18
116 6 32 -13 18 -23 -28 -20 -25 1 -48 -2 -52 -7 -4 -7 16 -9 56 -6 63 4 82
-6 34 -19 l-28 -6 33 -14 c18 -7 35 -19 38 -27 3 -7 18 -12 35 -11 16 1 35 -5
42 -13 10 -13 7 -14 -28 -9 l-40 6 31 -14 c23 -10 46 -12 82 -6 38 6 56 4 75
-7 22 -14 26 -13 47 8 l23 23 -26 -7 c-22 -5 -26 -3 -24 15 1 15 6 19 23 15
14 -4 27 1 35 11 8 9 9 14 2 10 -17 -11 -43 3 -43 23 0 16 4 17 36 7 37 -11
62 -41 44 -52 -5 -3 -14 -4 -19 0 -5 3 -13 0 -17 -6 -4 -8 -3 -9 4 -5 7 4 12
4 12 -1 -1 -15 -25 -40 -35 -37 -5 2 -20 -14 -33 -34 -13 -21 -54 -69 -92
-107 -50 -52 -66 -73 -58 -83 7 -8 7 -12 -3 -13 -8 0 -24 -2 -37 -5 -13 -2
-31 0 -40 5 -9 5 -26 5 -37 0 -16 -6 -14 -8 13 -8 29 -1 32 -3 23 -20 -12 -22
-102 -84 -110 -75 -3 3 0 8 6 12 7 5 9 13 4 21 -6 10 -13 10 -30 2 -51 -27
-61 -31 -67 -31 -4 0 -1 7 6 15 11 13 8 15 -14 15 -15 0 -25 4 -21 9 3 6 -4
15 -15 21 -18 10 -22 8 -27 -9 -4 -17 -13 -21 -47 -21 -30 0 -37 3 -26 10 17
11 -13 14 -107 12 -29 0 -53 4 -53 9 0 5 10 9 23 9 12 0 35 7 51 15 25 13 31
13 60 -1 66 -35 68 -36 78 -26 7 7 -1 13 -26 17 -20 4 -33 11 -30 16 3 5 -5
10 -18 10 -17 1 -18 3 -5 6 20 5 22 19 5 26 -7 3 -3 6 10 6 26 1 55 15 92 43
l25 20 -25 -6 c-86 -18 -98 -17 -120 6 -19 20 -87 37 -75 18 8 -13 -35 -50
-58 -50 -17 0 -19 2 -8 9 11 7 5 12 -23 19 -44 13 -62 8 -69 -19 -3 -10 -12
-19 -21 -19 -9 0 -16 -7 -16 -15 0 -10 -7 -15 -17 -13 -13 2 -17 -3 -15 -15 3
-15 -1 -17 -17 -12 -15 4 -21 2 -21 -8 0 -16 -53 -31 -58 -16 -6 15 -32 10
-32 -6 0 -8 -5 -15 -12 -15 -6 0 -3 -6 7 -14 17 -12 14 -13 -26 -12 -24 1 -50
5 -57 10 -7 4 -16 5 -19 2 -3 -3 2 -8 11 -12 9 -3 16 -11 16 -16 0 -6 -7 -7
-16 -4 -8 3 -13 2 -10 -2 3 -5 -19 -7 -49 -4 -50 4 -55 3 -55 -16 0 -11 -7
-23 -16 -26 -22 -8 -26 -8 -19 4 4 7 -3 7 -20 0 -20 -8 -26 -7 -23 2 2 6 17
16 33 21 29 10 54 29 58 44 1 4 7 7 13 7 6 -1 16 8 23 18 7 11 8 17 2 14 -5
-4 -12 -2 -16 4 -3 5 1 10 9 10 8 0 18 -5 21 -11 5 -7 15 -5 31 5 13 9 32 16
42 16 11 0 26 7 33 16 20 24 122 88 136 86 8 -2 10 3 7 13 -6 15 16 21 56 15
11 -1 9 3 -4 13 -19 14 -18 15 14 22 19 4 45 14 58 23 12 8 41 16 63 18 46 3
66 14 26 14 -14 0 -29 5 -32 10 -4 6 -32 10 -63 9 -31 -2 -70 0 -87 3 -16 3
-24 3 -17 1 6 -2 12 -11 12 -19 0 -10 -7 -13 -25 -8 -15 4 -25 2 -25 -5 0 -10
-53 -8 -88 4 -7 3 -10 0 -7 -5 4 -6 -15 -10 -47 -11 -56 -1 -56 -4 5 -14 58
-9 44 -20 -25 -18 -35 1 -53 -1 -40 -4 51 -11 12 -32 -52 -28 -28 1 -36 -1
-32 -12 5 -11 1 -13 -17 -7 -25 8 -97 8 -140 -2 -36 -7 -33 18 3 28 18 5 14 6
-12 3 -27 -3 -38 0 -38 10 0 7 6 15 12 18 18 7 -71 7 -106 0 -21 -4 -25 -7
-15 -14 9 -6 3 -8 -18 -6 -18 1 -33 3 -33 4 0 1 24 14 53 27 65 32 37 34 -38
3 -34 -13 -53 -27 -50 -34 2 -7 -1 -14 -8 -14 -23 -3 108 -21 156 -21 30 -1
43 -4 35 -9 -7 -5 -8 -9 -3 -9 6 0 3 -5 -5 -9 -9 -5 -43 -3 -85 5 -38 7 -77
13 -85 14 -14 0 26 -25 78 -49 56 -26 -1 -55 -87 -44 -61 8 -50 23 14 18 32
-3 55 0 55 5 0 6 -16 10 -36 10 -24 0 -33 4 -28 12 5 8 -5 9 -34 5 -23 -3 -45
-1 -48 4 -3 5 -19 9 -36 9 l-30 0 23 20 c13 10 18 19 11 20 -23 0 -132 -33
-126 -39 3 -3 33 -7 67 -8 84 -3 89 -4 83 -19 -3 -7 0 -15 7 -18 7 -2 -4 -2
-23 1 -19 3 -38 10 -41 15 -3 6 -9 3 -12 -6 -5 -12 -13 -13 -38 -6 -20 6 -38
6 -50 0 -10 -6 -37 -10 -61 -9 l-43 0 45 19 c39 16 41 19 18 19 -15 1 -30 -3
-33 -9 -3 -5 -16 -10 -29 -10 -63 0 -20 -26 89 -55 37 -9 45 -14 32 -20 -9 -4
-23 -3 -30 3 -14 11 -123 23 -143 15 -31 -12 -11 -19 41 -15 40 3 62 0 80 -12
13 -9 33 -16 44 -16 26 0 51 -10 51 -21 0 -5 -11 -4 -25 1 -16 6 -25 6 -25 0
0 -6 9 -10 19 -10 11 0 23 -4 26 -10 10 -16 45 -12 39 4 -4 11 7 11 73 -1 43
-7 93 -12 111 -9 17 3 32 1 32 -5 0 -5 -9 -9 -20 -9 -27 0 -90 -31 -84 -42 3
-4 -3 -8 -13 -8 -10 0 -29 -7 -41 -16 -12 -8 -27 -12 -33 -9 -6 4 -29 2 -52
-3 -23 -6 -60 -13 -82 -16 -39 -5 -39 -5 -15 9 14 8 34 15 45 15 11 1 34 7 50
15 27 12 15 13 -115 9 -202 -6 -251 -17 -182 -42 25 -10 26 -10 4 -11 -13 -1
-32 3 -42 9 -20 11 -80 3 -80 -11 0 -14 58 -11 63 4 4 9 6 9 6 0 1 -9 21 -13
67 -13 56 0 63 2 52 14 -8 8 -23 16 -34 19 -11 3 -5 5 16 6 19 1 44 4 56 7 14
4 28 -3 45 -20 l24 -26 505 0 c381 0 509 3 518 12 9 9 12 9 12 0 0 -15 91 -12
102 3 12 16 9 25 -9 26 -12 0 -8 4 9 10 30 11 84 -10 95 -37 3 -10 19 -14 52
-13 29 1 36 4 19 6 -34 5 -37 23 -4 23 13 0 29 6 35 14 10 11 0 13 -58 12 -58
-2 -67 0 -55 11 21 22 131 19 224 -6 76 -20 75 -19 55 -41 -18 -20 -13 -20
1313 -20 l1332 0 0 30 c0 42 39 42 64 0 l18 -31 259 2 c207 1 262 4 276 16 17
13 16 13 -3 4 -18 -9 -23 -7 -27 9 -3 11 3 26 14 36 10 9 19 22 18 28 0 6 -3
6 -6 -1 -6 -16 -23 -17 -23 -1 0 6 -7 19 -16 29 -14 16 -14 18 5 24 12 3 21
11 21 16 0 5 9 9 20 9 11 0 20 -4 20 -10 0 -5 -4 -10 -10 -10 -5 0 -10 -5 -10
-10 0 -6 11 -8 25 -4 28 7 33 -7 10 -30 -19 -19 -19 -36 1 -36 9 0 12 -5 8
-12 -4 -7 2 -4 15 6 17 16 24 17 34 7 9 -11 9 -14 0 -18 -7 -3 -13 -16 -13
-29 l0 -24 110 1 c60 0 110 5 110 10 0 5 7 9 15 9 8 0 15 -6 15 -12 0 -10 2
-10 8 -1 4 7 19 11 32 8 65 -10 105 -10 105 3 0 6 5 12 10 11 6 0 9 -7 9 -15
-2 -12 68 -14 515 -13 367 1 518 5 523 13 5 8 8 7 8 -2 0 -10 90 -13 466 -11
256 1 478 5 493 9 14 5 19 9 11 9 -13 1 -13 2 0 11 12 8 10 10 -10 11 -14 1
-31 1 -39 0 -7 -2 -10 3 -6 9 4 6 13 9 21 6 8 -3 11 0 7 10 -5 12 -1 13 21 3
22 -10 29 -9 45 5 19 17 19 17 14 -3 -3 -11 -10 -19 -17 -18 -16 3 -14 -35 3
-41 8 -3 11 0 7 6 -4 6 2 8 14 5 11 -3 20 -9 20 -14 0 -5 8 -9 18 -9 15 0 15
2 2 11 -11 7 -7 9 20 8 81 -4 120 1 120 16 0 9 12 20 26 25 34 13 45 13 42 -2
-2 -7 8 -14 22 -16 14 -2 33 -11 44 -20 16 -16 91 -17 840 -19 750 -2 819 -1
801 13 -19 16 -19 16 5 9 14 -4 26 -12 28 -16 2 -5 35 -9 73 -9 44 0 68 4 64
10 -3 6 3 10 14 10 11 0 22 -4 25 -9 3 -4 141 -9 306 -10 l300 -1 0 294 0 295
-22 4 -23 4 23 2 c20 1 22 6 22 50 0 30 -5 51 -12 54 -10 4 -10 6 0 6 6 1 12
10 12 20 0 16 -8 21 -42 24 l-43 4 43 1 42 2 0 1476 c0 1490 0 1504 -34 1526
-6 5 -1 8 12 8 l22 0 0 1435 0 1435 -5910 0 -5910 0 0 -1976z m5233 -396 c2
-7 3 -43 2 -80 -1 -58 1 -68 15 -68 20 0 44 25 37 37 -3 5 3 9 13 9 10 0 16
-6 13 -13 -5 -11 15 -18 40 -14 4 0 7 -3 7 -7 0 -5 6 -9 13 -10 6 -1 42 -4 80
-8 66 -7 80 -17 56 -41 -6 -6 -12 -22 -13 -36 -3 -26 15 -42 42 -38 6 1 12 -3
12 -9 0 -5 8 -10 18 -10 13 0 14 -2 4 -9 -10 -6 -5 -11 17 -21 28 -11 31 -17
31 -56 0 -26 5 -44 11 -44 8 0 8 -4 0 -14 -6 -7 -9 -21 -5 -29 5 -15 -2 -16
-63 -9 -37 4 -105 7 -150 7 -65 0 -83 3 -83 14 0 29 -31 50 -63 44 -25 -5 -29
-3 -24 9 4 12 -2 17 -21 21 -15 3 -29 2 -32 -2 -3 -5 -16 -14 -29 -20 -21 -11
-23 -18 -18 -57 4 -40 2 -44 -17 -44 -19 0 -18 -2 7 -19 l28 -18 -46 -16 c-45
-14 -51 -14 -112 7 -73 24 -73 25 17 70 98 50 120 66 120 90 0 12 7 31 15 42
8 12 15 50 17 90 2 49 7 68 16 67 6 -2 11 0 11 5 -1 4 -1 49 0 100 1 71 4 92
15 92 8 0 16 -6 19 -12z m125 -579 c-2 -6 -6 -9 -8 -8 -9 5 -50 -22 -50 -32 0
-6 18 -8 48 -4 l47 6 -35 -29 c-19 -17 -37 -29 -40 -27 -3 2 -14 -3 -25 -11
-24 -18 -6 -18 42 0 21 8 47 14 57 13 17 0 15 -5 -12 -27 -33 -28 -33 -40 2
-40 18 0 17 -3 -9 -29 l-28 -30 18 -37 c10 -22 20 -32 24 -25 4 6 22 16 40 21
30 8 32 7 29 -13 -2 -12 -12 -26 -24 -32 -11 -5 -29 -18 -39 -28 -9 -10 -24
-16 -31 -13 -8 3 -13 1 -11 -3 1 -5 -29 -34 -68 -65 -54 -43 -71 -52 -77 -41
-23 41 -49 385 -29 385 5 0 17 7 26 16 13 14 14 19 3 26 -9 6 -5 7 10 3 13 -4
28 -2 35 3 7 6 32 14 57 20 25 5 47 10 48 11 2 1 2 -4 0 -10z m5236 -430 c13
-31 14 -49 7 -76 -6 -20 -8 -40 -5 -45 3 -5 0 -15 -6 -23 -10 -12 -9 -15 4
-15 9 0 16 -3 16 -8 0 -10 -38 -42 -50 -42 -12 0 -3 49 11 65 12 13 11 55 -1
55 -5 0 -10 -6 -10 -14 0 -25 -26 -39 -51 -26 -19 11 -21 10 -16 -4 4 -10 3
-15 -1 -12 -5 3 -15 -10 -22 -29 -8 -19 -18 -35 -23 -35 -15 0 2 63 19 73 11
6 12 12 4 22 -8 9 -6 24 6 55 18 43 50 65 72 48 18 -15 15 -31 -6 -26 -18 5
-19 2 -13 -44 1 -10 39 3 51 17 8 10 7 22 -4 44 -9 16 -16 37 -16 46 0 28 18
15 34 -26z m-3896 -1820 c47 -3 66 -6 112 -23 25 -8 56 -15 70 -15 l25 1 -25
9 c-23 8 -23 8 6 4 17 -2 71 -9 120 -15 53 -7 97 -19 108 -29 11 -9 16 -10 12
-3 -14 23 72 15 274 -27 l45 -9 -60 1 c-33 1 -63 7 -67 12 -5 6 -8 3 -8 -6 0
-12 13 -18 51 -21 28 -3 55 -12 61 -19 7 -11 11 -11 15 -1 2 6 9 12 14 12 12
0 44 -33 52 -53 6 -15 0 -16 -41 -11 -26 3 -48 9 -50 15 -2 5 -16 9 -30 9 -18
0 -23 3 -14 9 9 5 -6 12 -44 19 -63 13 -94 14 -54 3 14 -4 24 -13 22 -20 -2
-8 4 -10 18 -6 11 4 20 2 20 -4 0 -6 16 -11 36 -11 20 0 33 -4 29 -9 -7 -12
59 -26 74 -16 6 3 11 1 11 -6 0 -6 8 -9 20 -6 11 3 20 1 20 -4 0 -5 5 -9 11
-9 7 0 5 10 -5 25 -20 31 -21 41 -1 25 9 -7 18 -10 22 -6 3 3 1 6 -6 6 -7 0
-9 5 -6 10 3 6 -1 10 -9 10 -9 0 -16 4 -16 10 0 11 59 2 77 -12 7 -6 28 -10
48 -10 19 0 37 -3 39 -7 3 -3 35 -6 73 -5 37 0 77 -4 88 -9 18 -9 18 -8 7 6
-8 9 -23 18 -35 20 -12 2 -6 3 13 1 19 -2 60 -4 90 -4 42 -1 51 -3 37 -11 -9
-5 -21 -8 -26 -4 -5 3 -12 1 -15 -4 -9 -13 30 -24 87 -25 26 -1 43 0 37 2 -6
2 -8 8 -5 12 3 5 17 -2 30 -14 16 -15 33 -22 48 -19 14 3 31 -2 41 -12 9 -9
23 -14 31 -11 8 3 15 0 15 -5 0 -7 -10 -9 -27 -4 -45 11 -84 9 -95 -6 -7 -10
-11 -11 -14 -3 -6 15 -46 5 -41 -10 2 -6 13 -10 23 -9 56 6 115 3 159 -7 28
-6 67 -11 88 -11 21 0 48 -4 60 -10 22 -9 -190 -3 -225 7 -20 6 -25 -12 -5
-19 6 -3 1 -6 -12 -6 -24 -1 -24 -1 -5 -16 15 -11 21 -12 29 -1 14 18 43 27
50 16 9 -15 55 -12 55 3 0 9 2 9 9 -1 4 -8 17 -12 27 -10 10 2 18 -2 17 -7 -1
-6 7 -11 18 -11 21 0 25 12 7 19 -7 3 -3 6 10 6 12 1 22 -4 22 -9 0 -6 15 -8
39 -4 23 4 46 2 57 -6 16 -10 14 -11 -13 -6 -18 3 -33 2 -33 -2 0 -8 94 -32
125 -32 19 1 19 1 2 11 -9 5 -22 7 -27 4 -6 -3 -10 -1 -10 4 0 12 41 13 79 2
23 -6 23 -7 7 -24 -10 -9 -13 -17 -8 -17 5 0 15 7 22 15 8 10 30 15 61 15 35
0 53 5 66 19 13 13 26 18 46 14 29 -6 35 -17 15 -29 -6 -4 -14 -2 -16 4 -5 17
-27 15 -42 -3 -14 -17 -14 -16 70 -19 25 0 48 -5 51 -9 3 -4 32 -8 65 -8 32
-1 61 -5 64 -10 3 -4 41 -11 85 -14 44 -3 88 -8 98 -11 19 -6 24 12 5 19 -7 3
-3 6 10 6 24 1 28 -9 12 -25 -7 -7 2 -9 27 -7 54 5 144 -7 138 -18 -8 -12 -3
-11 31 1 18 7 30 7 40 -1 7 -6 17 -9 21 -6 11 6 53 -10 53 -21 0 -5 -11 -7
-25 -4 -14 2 -32 -1 -40 -8 -11 -9 -19 -9 -28 -2 -7 6 -23 9 -35 5 -12 -3 -29
0 -37 7 -8 6 -19 9 -25 5 -5 -3 -10 -1 -10 4 0 6 -9 11 -20 11 -11 0 -20 6
-20 13 0 7 -5 5 -10 -5 -9 -15 -50 -15 -50 1 0 4 -8 7 -17 7 -10 0 -48 4 -84
8 -45 5 -69 4 -74 -3 -3 -6 -15 -11 -26 -11 -30 0 -22 -17 9 -18 15 -1 59 -3
97 -6 50 -3 59 -2 30 3 l-40 8 38 2 c25 1 40 -4 43 -14 4 -9 19 -15 40 -15 19
0 34 -4 34 -9 0 -5 -25 -9 -55 -10 -31 0 -53 4 -50 8 2 5 -17 9 -43 8 -64 0
-201 11 -212 18 -5 3 -11 1 -15 -5 -3 -6 1 -13 10 -16 13 -5 14 -9 4 -15 -17
-10 -50 8 -43 24 3 8 -1 14 -8 14 -7 0 -26 3 -41 7 -16 4 -27 2 -27 -4 0 -5 9
-10 19 -10 11 0 23 -4 26 -10 4 -6 -5 -10 -19 -10 -15 0 -31 8 -38 20 -16 25
-34 26 -42 3 -6 -15 -9 -15 -16 -3 -5 8 -6 18 -4 22 3 4 0 8 -5 8 -6 0 -11 -4
-11 -10 0 -5 -7 -7 -15 -4 -8 4 -12 11 -8 18 4 6 0 5 -9 -2 -13 -10 -26 -11
-54 -3 -20 5 -34 7 -30 4 3 -3 1 -12 -5 -20 -9 -10 -8 -13 1 -13 8 0 11 -2 9
-4 -2 -2 -31 2 -64 9 l-60 14 50 -2 c42 -2 50 1 53 17 4 16 0 18 -27 13 -18
-4 -31 -2 -31 3 0 6 -6 10 -14 10 -7 0 -16 9 -19 19 -5 19 -4 19 29 0 19 -10
45 -19 58 -19 13 0 61 -6 107 -14 46 -8 120 -17 164 -20 44 -4 96 -8 116 -10
33 -3 37 -1 37 20 0 26 -13 32 -22 12 -3 -9 -9 -7 -20 6 -9 11 -16 15 -16 10
0 -6 5 -15 12 -22 9 -9 8 -12 -4 -12 -9 0 -20 5 -24 11 -5 8 -9 8 -14 -1 -6
-9 -13 -9 -29 -1 -11 6 -58 14 -103 16 -97 6 -119 9 -174 24 -23 6 -54 13 -70
15 -16 2 -44 9 -61 14 -31 10 -58 0 -31 -11 8 -3 6 -6 -4 -6 -10 -1 -18 4 -18
10 0 6 -21 9 -56 8 -30 -2 -59 2 -62 7 -4 6 -18 11 -31 11 -13 1 -27 7 -31 14
-6 8 -9 8 -14 0 -4 -6 -2 -11 3 -11 6 0 11 -7 11 -16 0 -14 -8 -15 -52 -10
-29 3 -55 6 -58 6 -3 1 4 5 15 10 18 7 16 9 -12 15 -18 4 -31 11 -28 15 6 9
-37 22 -45 13 -3 -3 1 -8 7 -10 10 -3 9 -9 -3 -21 -12 -12 -13 -17 -4 -20 7
-3 16 1 20 8 6 10 14 7 31 -9 l23 -21 -34 6 c-53 9 -62 13 -55 24 3 5 -3 10
-14 10 -11 0 -24 -7 -29 -16 -11 -20 -25 -3 -16 19 3 9 12 13 21 10 11 -4 14
-2 9 5 -4 7 -1 12 8 12 9 0 16 4 16 10 0 5 -11 9 -25 8 -13 -1 -22 -4 -20 -7
8 -7 -17 -31 -26 -25 -5 3 -9 0 -9 -7 0 -9 -4 -8 -15 1 -10 9 -22 9 -42 2
l-28 -10 27 -1 c15 -1 30 -5 33 -11 9 -15 -16 -12 -49 5 -16 9 -55 18 -85 21
-31 4 -60 10 -64 14 -5 4 -24 4 -43 -2 -20 -5 -43 -7 -52 -5 -12 3 -11 5 6 6
26 1 29 17 5 25 -10 3 4 3 31 0 27 -3 55 -8 62 -11 8 -3 14 0 14 6 0 11 -18
16 -90 25 -25 3 -54 8 -65 10 -11 3 -26 5 -34 5 -7 1 -11 7 -7 16 3 8 1 15 -3
15 -5 0 -11 -6 -14 -14 -4 -9 -15 -12 -32 -8 -15 2 -30 0 -34 -6 -4 -7 -21 -7
-51 -2 -66 13 -110 12 -125 -3 -11 -12 -5 -13 36 -9 28 2 49 0 49 -5 0 -5 -15
-8 -32 -7 l-33 3 35 -9 c21 -5 39 -5 44 1 13 11 29 12 22 0 -7 -11 79 -36 93
-27 5 4 14 -1 19 -10 6 -10 12 -13 16 -6 3 5 15 8 26 5 11 -3 18 -9 15 -13 -3
-4 4 -10 15 -13 11 -3 18 -1 14 4 -3 5 4 9 16 9 12 0 18 -4 15 -10 -3 -5 -1
-10 4 -10 6 0 11 5 11 10 0 6 8 10 18 10 13 0 14 -2 3 -9 -16 -10 35 -29 95
-36 52 -5 53 -6 24 -16 -20 -7 -17 -7 13 -3 35 5 130 -8 167 -23 8 -3 21 -5
29 -4 7 1 48 -5 90 -13 42 -8 119 -20 171 -27 52 -6 97 -13 100 -16 3 -3 -21
-3 -52 1 -52 5 -57 4 -51 -11 5 -16 4 -16 -9 0 -11 15 -33 20 -108 24 -91 5
-123 -1 -51 -9 23 -3 35 -10 37 -21 1 -9 -4 -17 -12 -17 -8 0 -14 7 -14 15 0
9 -11 16 -27 17 -16 1 -39 3 -53 4 -14 1 -37 2 -52 3 -16 0 -28 5 -28 10 0 4
24 7 53 5 l52 -3 -50 11 c-27 6 -53 15 -57 21 -4 6 -12 4 -22 -6 -21 -20 -20
-28 2 -21 16 5 16 5 -1 -6 -17 -11 -41 -5 -33 8 2 4 -7 17 -20 30 -13 12 -24
18 -24 12 0 -8 -11 -9 -30 -5 -19 4 -36 2 -45 -5 -8 -6 -23 -9 -35 -5 -12 4
-20 2 -20 -5 0 -8 -9 -10 -27 -6 -16 4 -34 7 -40 8 -7 1 -13 7 -13 13 0 8 10
10 25 7 14 -2 25 -8 25 -13 0 -5 7 -6 15 -3 18 7 20 34 3 34 -7 0 -30 3 -50 6
-31 5 -38 4 -38 -10 0 -9 -6 -16 -12 -17 -10 0 -10 -2 0 -6 6 -2 10 -8 7 -13
-5 -9 32 -18 190 -46 139 -24 204 -31 217 -22 7 4 23 8 36 8 16 0 22 -6 22
-23 0 -27 -17 -47 -40 -46 -9 0 -6 4 8 9 25 11 30 30 7 30 -8 0 -15 -4 -15
-10 0 -5 -11 -10 -25 -10 -18 0 -23 4 -19 15 4 10 0 15 -11 15 -9 0 -13 -5 -9
-11 5 -9 -4 -10 -32 -5 -46 9 -43 9 -71 7 -31 -1 -29 -21 1 -21 14 0 28 -4 31
-10 4 -6 -1 -7 -12 -3 -16 6 -16 5 -4 -11 16 -19 90 -20 103 -1 5 6 14 3 25
-7 16 -17 16 -18 -12 -19 -17 -1 -33 -1 -37 0 -5 0 -8 -4 -8 -9 0 -6 -15 -10
-32 -9 -31 1 -31 2 -8 8 24 7 24 7 -9 14 -51 11 -61 9 -61 -12 0 -27 -17 -35
-23 -12 -3 13 3 23 19 32 17 9 21 16 14 23 -8 8 -13 7 -18 -1 -4 -6 -29 -17
-55 -23 -26 -7 -47 -16 -47 -21 0 -5 -7 -9 -15 -9 -8 0 -15 7 -15 15 0 18 -12
19 -28 3 -10 -10 -15 -10 -22 2 -5 8 -10 11 -10 7 0 -9 -30 18 -30 27 0 3 12
6 26 6 14 0 23 -4 19 -10 -3 -6 4 -10 17 -10 13 0 29 -5 35 -11 8 -8 16 -8 30
0 16 9 16 10 -7 11 -23 1 -23 2 -5 10 21 8 21 8 -25 23 -8 3 2 6 23 6 30 1 37
-2 35 -16 -2 -10 5 -19 15 -21 13 -3 17 1 15 14 -2 9 3 19 10 21 6 3 12 -4 13
-14 0 -16 1 -16 9 2 12 29 12 32 -6 39 -8 3 -12 2 -9 -4 3 -6 -1 -7 -9 -4 -9
3 -14 10 -11 14 7 11 -24 20 -50 15 -11 -2 -22 -4 -25 -4 -3 -1 2 -6 10 -12
12 -8 10 -9 -10 -5 -14 3 -32 1 -40 -4 -13 -9 -13 -11 0 -20 12 -8 11 -10 -7
-10 -24 0 -31 14 -13 25 15 9 12 28 -3 22 -8 -3 -20 -2 -26 3 -9 5 -4 8 13 8
15 0 29 -4 32 -9 6 -10 34 0 34 13 0 5 -4 7 -9 3 -5 -3 -12 -1 -15 4 -4 5 -24
8 -46 6 -34 -4 -40 -2 -40 15 0 12 -7 20 -17 20 -11 0 -14 -3 -7 -8 15 -10 25
-64 10 -59 -6 2 -10 12 -10 21 1 9 -5 16 -13 16 -8 0 -11 -4 -8 -10 9 -14 -31
-21 -102 -17 -48 2 -63 -1 -63 -11 0 -9 7 -11 19 -7 11 3 22 1 26 -5 4 -6 -7
-10 -29 -10 -26 0 -34 4 -30 14 4 11 -8 16 -51 21 -31 4 -59 5 -62 1 -4 -3 10
-6 30 -6 20 0 39 -4 42 -10 4 -6 -14 -10 -46 -10 -29 0 -49 -3 -46 -7 4 -3 21
-6 39 -5 l33 0 -35 -18 c-26 -13 -37 -15 -43 -7 -6 8 -7 7 -4 -3 2 -10 13 -14
30 -12 29 4 34 -7 15 -26 -9 -9 -8 -12 6 -12 11 0 25 8 32 18 13 16 13 16 14
-2 0 -14 6 -17 25 -14 14 3 25 2 25 -2 0 -13 -38 -18 -82 -13 -24 3 -40 3 -37
-1 8 -9 262 -45 319 -46 43 -1 44 -1 25 -16 -19 -15 -19 -15 8 -9 20 5 27 3
27 -7 0 -10 -11 -15 -30 -16 -21 0 -30 4 -30 15 0 14 -3 14 -24 -1 -15 -10
-27 -12 -31 -6 -3 6 -25 19 -48 29 -42 19 -42 19 -45 0 -3 -17 -9 -19 -60 -13
-31 3 -75 10 -97 15 -51 11 -64 11 -45 -1 9 -5 72 -16 140 -26 69 -9 128 -20
132 -23 11 -10 -86 -4 -138 8 -87 19 -228 41 -264 40 -19 -1 -75 8 -124 20
-49 12 -98 19 -109 15 -11 -3 -17 -2 -14 2 3 5 -23 9 -58 9 -38 0 -69 6 -79
14 -19 16 -20 15 -33 -23 -5 -17 -15 -31 -21 -32 -7 -1 -8 0 -3 2 6 3 8 11 5
18 -8 20 30 61 47 50 16 -10 28 -12 84 -20 78 -10 20 14 -74 31 -51 9 -105 21
-120 27 -14 5 -47 12 -73 15 -39 4 -48 2 -48 -11 0 -9 5 -16 11 -16 5 0 7 5 4
10 -3 6 1 10 9 10 10 0 16 -9 16 -25 0 -14 4 -25 10 -25 5 0 7 -7 3 -15 -5
-14 -8 -14 -22 -1 -9 8 -35 20 -58 27 -24 7 -43 13 -43 15 0 15 14 32 23 27 6
-4 7 -1 3 6 -13 20 24 53 52 46 15 -4 21 -2 17 5 -3 5 -13 10 -21 10 -18 0
-18 15 1 33 8 8 11 17 8 21 -4 3 -2 6 4 6 6 0 14 -7 17 -16 4 -11 14 -14 35
-9 19 4 34 1 42 -8 12 -12 16 -12 27 2 12 14 13 14 8 -3 -5 -13 -2 -17 9 -13
8 4 17 2 20 -2 2 -5 24 -7 48 -6 24 2 50 -1 58 -7 11 -8 10 -9 -3 -4 -10 3
-18 2 -18 -3 0 -5 17 -12 38 -16 77 -14 191 -48 186 -57 -3 -4 -13 -4 -22 1
-9 4 -23 6 -30 4 -20 -7 -64 6 -57 17 4 6 -10 11 -32 11 -21 1 -48 3 -60 4
-13 1 -23 -1 -23 -5 0 -4 -15 -4 -32 0 -18 4 -32 12 -30 18 1 7 -11 12 -29 12
-19 0 -28 -4 -23 -11 4 -7 -1 -7 -16 1 -12 6 -28 9 -35 6 -8 -3 -17 -1 -20 4
-7 12 -35 13 -35 2 0 -10 123 -45 167 -47 18 -1 36 -5 40 -9 3 -3 18 -3 32 0
20 4 23 3 11 -5 -12 -9 -9 -11 15 -12 17 -1 36 -2 42 -2 7 1 10 -3 7 -8 -3 -5
-3 -9 1 -9 3 0 48 -9 100 -21 52 -11 99 -18 104 -14 5 3 12 1 16 -5 9 -15 32
-12 32 4 0 11 -17 17 -56 22 -31 4 -65 11 -76 15 -18 8 35 5 130 -8 84 -12
159 -13 145 -4 -8 6 -24 11 -35 12 -19 0 -19 1 -1 8 11 4 15 10 10 14 -6 3
-16 2 -24 -4 -21 -13 -32 -11 -24 4 6 9 4 9 -8 -1 -13 -10 -26 -10 -62 -1 -43
11 -84 39 -57 39 7 0 9 5 5 12 -5 7 -2 9 8 5 9 -3 21 0 27 6 9 9 14 9 19 1 4
-6 30 -14 58 -18 40 -5 54 -3 64 9 11 13 6 15 -39 15 -47 0 -51 2 -37 15 12
12 20 13 35 5 24 -12 31 -13 31 -2 0 5 -12 13 -27 18 -21 8 -34 7 -51 -5 -19
-12 -32 -12 -70 -3 -57 13 -129 14 -137 1 -4 -5 -1 -9 5 -9 6 0 8 -4 5 -10 -3
-5 1 -10 9 -10 10 0 13 6 10 18 -5 13 -4 14 4 3 6 -8 17 -11 25 -8 8 3 23 -1
34 -8 10 -8 13 -15 6 -15 -6 0 -9 -8 -6 -19 4 -15 0 -18 -22 -13 -15 2 -29 10
-31 17 -3 7 -27 13 -60 14 -62 2 -102 15 -119 38 -7 10 -26 15 -53 15 -23 0
-48 5 -54 12 -7 7 -29 16 -48 19 -60 12 -109 39 -102 55 4 11 1 13 -8 7 -8 -5
-11 -3 -8 6 5 15 56 21 106 13 30 -5 32 -7 20 -22 -12 -15 -11 -16 4 -3 10 7
15 17 13 22 -3 4 4 13 15 19 11 6 20 8 20 4 0 -4 9 1 20 11 25 22 59 13 39
-11 -11 -13 -9 -14 17 -9 28 6 28 6 10 -9 -19 -15 -19 -16 8 -16 24 0 27 -2
16 -15 -19 -23 13 -30 44 -10 14 10 33 15 41 11 9 -3 15 0 15 9 0 7 -10 17
-22 21 -13 4 -29 15 -36 25 -13 19 -48 27 -37 9 3 -5 -3 -10 -14 -10 -14 0
-19 6 -18 21 1 18 6 19 42 13 22 -3 43 -12 48 -20 5 -8 19 -11 42 -7 21 3 41
1 50 -7 8 -7 15 -10 15 -7 0 4 18 0 40 -8 30 -11 40 -11 40 -2 1 8 5 7 13 -3
7 -8 32 -16 57 -18 50 -4 54 -4 155 -26 90 -19 155 -25 155 -14 0 4 -6 8 -12
8 -10 0 -10 3 0 9 10 6 6 11 -17 19 -24 8 -34 8 -43 -2 -14 -15 -48 -9 -48 8
0 8 -11 11 -30 8 -25 -3 -29 -1 -24 12 5 13 -1 16 -32 15 -38 -1 -38 -2 -9 -9
l30 -7 -39 -8 c-28 -6 -40 -4 -47 6 -7 12 -9 12 -9 0 0 -11 -3 -11 -14 -1 -8
6 -12 18 -9 26 3 8 0 14 -6 14 -6 0 -11 -4 -11 -10 0 -5 -7 -10 -15 -10 -18 0
-20 16 -2 23 7 3 5 6 -5 6 -22 1 -24 31 -3 31 8 0 15 5 15 10 0 6 -26 11 -57
12 -69 2 -79 3 -118 12 -68 17 -69 18 -54 27 11 7 11 9 -3 9 -9 0 -24 3 -34 7
-12 4 -15 3 -10 -5 4 -7 2 -12 -4 -12 -7 0 -14 9 -17 19 -3 11 -11 17 -17 15
-7 -3 -19 2 -26 11 -18 22 -29 19 -22 -7 5 -21 4 -22 -13 -8 -11 9 -16 10 -11
3 10 -17 -6 -16 -30 2 -10 8 -23 14 -29 15 -5 0 -3 -5 5 -10 10 -6 11 -10 3
-10 -7 0 -13 -6 -13 -14 0 -8 -6 -17 -12 -20 -7 -3 -2 -3 11 0 19 5 23 3 18
-10 -7 -17 8 -22 18 -6 3 6 11 10 16 10 6 0 7 -5 3 -12 -5 -8 -2 -9 9 -5 10 3
17 2 17 -3 0 -6 7 -10 15 -10 8 0 15 -4 15 -10 0 -5 -5 -10 -11 -10 -8 0 -8
-4 0 -14 10 -12 9 -13 -7 -9 -11 2 -23 0 -26 -6 -9 -14 -56 -15 -56 -1 0 6 13
10 29 10 33 0 51 18 30 30 -7 5 -34 12 -59 15 -43 6 -47 9 -42 31 2 13 8 21
13 18 6 -3 8 6 5 20 -4 21 -1 26 17 27 18 0 19 2 5 7 -16 6 -16 10 -3 35 8 15
10 25 6 22 -14 -8 -21 21 -8 34 8 8 8 11 0 11 -6 0 -13 12 -15 28 -3 15 -9 36
-13 46 -8 17 -5 19 38 14 31 -4 47 -2 48 6 1 6 3 3 6 -6 3 -11 15 -18 31 -19z
m-245 -662 c-3 -4 -11 -6 -19 -3 -8 3 -14 1 -14 -4 0 -5 10 -12 23 -14 12 -3
34 -7 50 -11 29 -6 35 3 15 24 -7 7 -8 12 -3 11 22 -5 29 1 15 11 -11 7 -4 8
25 3 42 -7 74 -28 61 -41 -4 -4 -11 -1 -15 6 -6 9 -14 10 -25 4 -14 -7 -8 -13
30 -32 32 -17 48 -20 53 -12 5 8 14 5 28 -8 13 -12 30 -17 49 -15 16 2 23 1
17 -2 -16 -7 -17 -24 -2 -24 6 0 25 -10 42 -22 18 -13 38 -21 46 -20 13 3 13
1 1 -13 -9 -10 -15 -12 -20 -5 -4 6 -14 8 -23 4 -10 -3 -17 -1 -17 6 0 7 -11
4 -27 -8 -16 -11 -39 -18 -53 -17 -14 1 -31 3 -37 4 -7 0 -13 6 -13 12 0 6 9
9 19 6 10 -2 25 -1 32 4 9 6 1 9 -26 10 -22 1 -56 3 -75 6 -19 2 -43 4 -54 4
-10 0 -25 7 -33 15 -8 7 -29 14 -48 14 -22 0 -35 6 -39 18 -3 9 -9 23 -12 31
-5 9 -2 12 7 9 8 -3 23 -2 34 3 18 7 18 8 2 8 -17 1 -67 46 -67 61 0 4 18 2
39 -3 22 -6 37 -15 34 -20z m452 -73 c17 -1 32 -3 35 -3 2 -1 -1 -6 -8 -13
-16 -16 -15 -39 1 -37 6 1 25 -3 42 -10 23 -10 26 -14 15 -21 -12 -8 -10 -10
8 -10 12 0 22 5 22 10 0 6 12 10 28 10 24 1 25 2 9 11 -10 6 -21 8 -24 5 -3
-3 -19 2 -35 10 -31 16 -32 32 -1 19 10 -5 29 -10 42 -11 35 -4 81 -25 81 -36
0 -6 -8 -8 -18 -6 -24 7 -49 -20 -32 -35 9 -9 14 -8 23 3 13 17 24 20 83 27
43 5 70 -12 39 -24 -10 -3 -20 -1 -24 6 -6 8 -15 9 -34 2 -33 -13 -33 -15 -4
-18 61 -6 159 -42 150 -56 -5 -8 -8 -8 -11 1 -5 16 -22 15 -22 -2 0 -9 13 -13
39 -13 32 0 38 3 34 16 -4 14 -3 14 6 -1 6 -9 8 -23 5 -31 -4 -13 -11 -13 -51
-1 -25 8 -49 11 -54 8 -5 -3 -9 0 -9 6 0 14 -25 40 -38 40 -6 0 -8 -9 -5 -20
3 -11 10 -20 15 -20 5 0 7 -3 5 -8 -8 -12 -114 -14 -122 -2 -4 6 -15 8 -26 5
-10 -4 -24 -3 -31 2 -7 4 -17 8 -23 8 -5 1 -9 6 -7 13 2 14 -22 16 -47 3 -11
-6 -22 -6 -32 0 -11 8 -11 12 -1 16 23 9 12 22 -15 17 -19 -3 -38 2 -58 16
l-30 21 28 -7 c16 -4 27 -2 27 4 0 6 -8 12 -17 14 -15 3 -14 6 6 17 18 10 25
10 31 1 5 -8 10 -8 14 -2 9 15 -20 22 -66 16 -39 -6 -41 -5 -28 11 8 10 23 15
37 12 13 -2 31 2 40 10 16 12 14 13 -18 7 -22 -3 -39 -1 -43 5 -4 6 -1 11 6
12 7 0 4 5 -7 10 -15 7 -13 8 10 2 17 -3 44 -8 60 -9z m-209 -502 c13 -12 425
-95 539 -108 55 -7 57 -6 50 14 -5 17 -2 22 12 22 15 0 16 -2 3 -10 -13 -9
-13 -10 1 -10 8 0 21 6 28 13 10 10 12 8 9 -8 -2 -12 -10 -19 -21 -17 -9 2
-17 -2 -17 -8 0 -5 4 -10 9 -10 5 0 24 -3 42 -6 28 -6 32 -4 22 7 -18 18 -16
30 2 23 8 -4 15 -12 15 -20 0 -15 61 -30 85 -20 8 3 15 2 15 -3 0 -8 81 -22
160 -27 79 -6 77 -5 50 -13 -15 -5 -72 -1 -139 10 -63 10 -117 16 -122 14 -4
-3 -19 -1 -33 5 -44 16 -180 30 -187 18 -4 -7 -13 -7 -27 1 -11 6 -28 8 -38 4
-14 -5 -16 -3 -11 12 7 16 2 17 -43 13 -29 -3 -50 -1 -50 5 0 5 -11 7 -25 5
-13 -3 -26 -1 -27 4 -2 5 -28 11 -58 13 -30 2 -55 4 -55 5 0 3 -50 10 -92 13
-39 3 -74 17 -42 17 11 0 11 2 -1 10 -8 5 -24 9 -35 9 l-20 0 20 -9 c19 -8 19
-9 -2 -9 -12 -1 -25 4 -28 9 -8 13 -52 13 -60 0 -4 -6 -11 -8 -16 -5 -5 4 -9
1 -9 -4 0 -6 5 -11 11 -11 5 0 7 -4 4 -10 -7 -11 6 -13 29 -4 9 3 13 10 10 15
-7 12 3 11 29 -3 21 -12 21 -13 -13 -19 -35 -6 -35 -6 -10 -16 20 -8 29 -7 43
5 16 14 22 14 65 0 30 -10 39 -16 25 -17 -13 -1 -23 -6 -23 -12 0 -7 11 -9 29
-6 21 5 31 2 35 -10 4 -9 3 -19 0 -22 -4 -3 -9 -1 -11 5 -2 7 -23 10 -54 7
-32 -2 -48 0 -44 7 3 5 12 10 20 10 7 0 15 7 19 15 4 12 -2 15 -27 14 -30 -1
-31 -1 -7 -9 22 -7 21 -8 -12 -9 -20 -1 -39 -5 -43 -10 -3 -6 -17 -6 -35 1
-17 5 -28 13 -25 18 5 9 -43 53 -80 73 -18 9 -24 17 -16 21 6 4 18 1 26 -7 13
-13 21 -13 61 -1 26 8 50 16 52 19 8 8 27 6 38 -3z"/>
<path d="M6835 1280 c-10 -16 4 -30 28 -30 18 0 19 -2 7 -10 -12 -8 -9 -10 12
-10 15 0 30 -4 33 -10 3 -5 15 -10 26 -10 13 0 18 4 13 12 -4 6 -3 8 4 4 6 -3
22 -2 36 4 17 6 26 6 26 0 0 -6 -9 -10 -20 -10 -11 0 -20 -4 -20 -9 0 -13 68
-34 87 -27 9 4 19 2 22 -3 4 -5 18 -11 31 -13 14 -2 30 -6 35 -10 20 -13 94
-2 114 17 12 10 21 13 21 8 0 -6 25 -14 56 -18 44 -5 60 -3 71 8 14 13 13 16
-6 22 -12 3 -18 11 -15 17 4 6 3 8 -3 5 -12 -8 -133 11 -148 22 -16 13 -55 20
-55 11 0 -5 5 -12 11 -16 8 -4 7 -9 -2 -15 -19 -12 -49 -11 -49 1 0 6 7 10 16
10 8 0 13 4 10 9 -4 5 -16 4 -30 -2 -13 -7 -22 -16 -19 -21 4 -5 -4 -6 -18 -1
-13 4 -34 7 -46 7 -13 0 -23 4 -23 8 0 16 -32 20 -76 10 -37 -8 -48 -7 -60 5
-9 8 -22 15 -31 15 -9 0 -13 6 -9 15 6 17 -19 21 -29 5z"/>
<path d="M7565 1240 c3 -5 -3 -18 -14 -29 -18 -18 -18 -20 -2 -35 20 -18 216
-59 247 -51 13 3 24 -1 27 -9 3 -7 19 -15 36 -18 16 -2 28 -1 25 4 -3 4 5 8
18 9 23 1 23 1 -2 9 -14 4 -35 5 -46 3 -13 -3 -24 1 -27 11 -4 9 -16 16 -29
16 -17 0 -19 3 -10 12 18 18 14 27 -10 21 -19 -4 -20 -3 -8 6 10 7 11 11 3 11
-7 0 -13 5 -13 11 0 6 9 8 23 3 47 -15 51 -14 17 2 -19 9 -43 20 -52 25 -28
14 -32 10 -13 -11 17 -19 17 -20 0 -20 -18 0 -18 -1 1 -16 18 -15 18 -15 -3
-5 -12 6 -28 8 -36 6 -7 -3 -20 2 -28 11 -12 16 -12 17 3 11 9 -3 21 0 26 6 8
9 3 12 -16 12 -15 0 -49 4 -75 8 -30 4 -46 3 -42 -3z"/>
<path d="M0 1714 c0 -19 6 -36 12 -39 7 -2 74 -6 148 -10 74 -3 159 -8 188
-11 31 -2 51 0 48 5 -4 5 -34 10 -69 11 -100 3 -121 6 -125 19 -3 10 4 11 28
6 50 -11 28 11 -24 24 -57 14 -117 15 -96 1 21 -14 3 -12 -23 2 -12 6 -36 14
-54 19 -32 7 -33 6 -33 -27z"/>
<path d="M608 1592 c-21 -2 -38 -7 -38 -11 0 -4 -30 -4 -67 1 -54 6 -70 5 -82
-7 -14 -13 -13 -17 1 -31 18 -19 37 -19 133 -6 l70 9 -70 3 c-57 3 -62 4 -25
7 25 3 49 8 55 14 5 5 25 9 45 8 19 0 29 -3 23 -6 -7 -2 -13 -8 -13 -13 0 -11
172 -2 184 10 14 14 26 12 26 -4 0 -9 8 -12 27 -8 27 5 27 5 4 13 -12 5 -20
13 -17 18 6 9 -165 10 -256 3z"/>
<path d="M70 1544 c0 -3 10 -9 23 -14 16 -7 6 -8 -35 -4 -57 6 -58 6 -58 -19
0 -14 3 -28 8 -30 4 -3 45 -7 92 -10 51 -3 71 -2 50 3 l-35 7 30 3 c17 2 62 3
100 3 39 -1 58 1 43 4 -32 5 -37 19 -10 26 13 4 11 5 -5 6 -13 0 -23 5 -23 10
0 6 17 7 38 4 20 -3 35 -3 32 0 -10 11 -110 18 -110 8 0 -5 -16 -8 -35 -5 -19
2 -51 6 -70 8 -19 3 -35 3 -35 0z"/>
<path d="M937 1454 c-4 -4 -38 -12 -75 -16 -37 -4 -89 -10 -117 -14 -92 -11
-104 -11 -202 -13 -70 -2 -92 -5 -75 -11 12 -5 22 -11 22 -14 0 -3 -52 -1 -90
4 -3 0 1 4 9 9 9 6 -1 9 -28 9 -22 0 -44 3 -49 5 -4 3 -16 -1 -27 -10 -19 -14
-18 -15 15 -12 19 1 44 1 55 0 17 -1 18 -3 5 -11 -9 -6 -47 -8 -89 -5 -69 5
-72 5 -56 -11 15 -16 26 -16 108 -6 51 7 117 12 147 11 65 -1 345 19 379 28
17 4 22 2 17 -6 -4 -6 -15 -11 -24 -11 -9 0 -24 -5 -32 -11 -11 -7 -4 -9 26
-4 23 3 85 7 138 7 96 0 97 1 79 20 -14 15 -25 18 -53 13 -19 -4 -40 -11 -47
-17 -8 -6 -19 -6 -32 2 -33 17 -25 27 24 27 43 0 76 15 63 29 -10 10 -83 16
-91 8z"/>
<path d="M614 1326 c5 -22 2 -24 -47 -29 -28 -4 -145 -9 -260 -13 -154 -5
-207 -4 -207 4 0 8 21 12 58 13 31 1 49 3 39 6 -9 2 -14 9 -11 15 5 8 -1 9
-17 4 -13 -4 -51 -9 -83 -12 -68 -6 -88 -14 -60 -25 17 -7 17 -8 -3 -8 -16 -1
-23 -7 -23 -21 0 -17 5 -19 42 -15 72 7 187 15 308 21 63 3 129 7 145 9 17 2
95 9 175 15 136 10 387 34 455 44 17 3 -13 3 -65 0 -219 -11 -257 -12 -200 -5
80 9 48 20 -42 14 -57 -4 -78 -9 -78 -19 0 -10 -14 -14 -49 -14 -40 0 -50 3
-54 20 -3 11 -11 20 -17 20 -8 0 -10 -9 -6 -24z"/>
<path d="M982 980 c-18 -4 -36 -11 -40 -15 -4 -5 1 -5 10 -2 10 3 20 2 23 -3
4 -6 -1 -10 -9 -10 -8 0 -18 -9 -21 -20 -3 -11 -11 -20 -16 -20 -5 0 -9 -5 -9
-11 0 -5 4 -8 9 -5 5 3 30 -2 56 -10 34 -12 49 -13 54 -5 7 10 33 5 96 -20 19
-7 19 -8 -2 -8 -37 -1 -26 -18 15 -24 20 -3 46 -9 57 -13 17 -7 18 -6 7 8 -10
13 -10 17 5 23 17 6 17 8 -2 15 -11 4 -46 10 -77 14 -31 4 -61 13 -67 20 -8 9
-28 12 -64 8 -38 -3 -49 -1 -42 7 7 6 47 11 100 11 195 -1 305 2 276 7 -18 4
-21 7 -11 13 8 5 -9 11 -46 14 -32 4 -75 11 -94 16 -52 14 -170 19 -208 10z"/>
<path d="M3345 964 c-11 -9 -19 -18 -18 -22 3 -13 -52 -11 -84 4 -33 15 -118
10 -107 -7 3 -5 -4 -9 -15 -9 -12 0 -21 5 -21 10 0 6 -5 10 -11 10 -6 0 -9 -9
-6 -19 4 -17 2 -18 -20 -10 -16 6 -31 6 -41 -1 -15 -8 -15 -9 1 -10 11 0 32
-9 47 -20 15 -11 44 -21 63 -22 27 -2 33 -6 25 -15 -7 -9 -7 -13 1 -13 12 0
52 21 61 31 11 14 70 39 92 39 23 1 62 42 56 60 -2 5 -12 2 -23 -6z"/>
<path d="M258 947 l42 -12 -31 -14 c-17 -7 -41 -13 -52 -13 -40 0 -150 21
-156 29 -8 11 -61 15 -61 5 0 -9 66 -32 92 -32 9 0 21 -7 28 -15 7 -8 18 -15
24 -15 6 0 4 4 -4 10 -21 13 -7 22 20 12 18 -7 20 -11 10 -17 -11 -7 -10 -10
6 -17 14 -6 11 -7 -13 -5 -18 2 -33 0 -33 -5 0 -16 -18 -8 -50 22 -18 17 -43
30 -56 30 -33 0 -30 -18 4 -23 l27 -4 -27 -2 c-35 -1 -36 -17 -3 -25 14 -4 25
-13 25 -21 0 -13 -3 -13 -25 1 -15 10 -25 12 -25 5 0 -6 17 -18 38 -28 l37
-17 -40 -6 -40 -6 39 -8 c21 -5 48 -18 58 -28 13 -13 27 -18 41 -14 12 3 32 6
45 6 12 0 22 5 22 10 0 6 -7 10 -15 10 -7 0 -18 6 -22 14 -4 7 -15 16 -23 19
-11 4 -10 6 5 7 17 2 16 3 -5 10 -21 7 -18 8 19 9 24 1 41 -2 38 -6 -4 -3 1
-12 11 -19 15 -12 14 -12 -8 -7 -15 3 -22 2 -17 -3 10 -10 107 -13 101 -3 -2
4 -18 10 -36 14 -25 6 -28 9 -14 12 15 4 16 7 5 13 -31 20 2 20 41 0 23 -12
51 -19 63 -17 18 3 16 5 -11 12 -23 5 -29 10 -21 16 9 5 3 10 -17 14 -47 11
-51 13 -21 14 16 1 47 -4 71 -10 32 -8 55 -7 96 4 l55 14 -100 6 c-55 4 -122
5 -148 3 -67 -4 -69 11 -3 19 60 8 152 3 179 -9 10 -5 17 -4 17 3 0 5 -18 15
-40 21 -22 6 -40 16 -40 23 0 7 -8 13 -17 13 -10 0 -43 3 -73 6 l-55 7 43 -12z"/>
<path d="M3886 836 c6 -16 4 -18 -19 -14 -15 3 -27 1 -27 -5 0 -6 -3 -7 -6 -4
-4 3 -15 0 -26 -7 -11 -8 -29 -11 -41 -9 -18 5 -20 3 -9 -8 14 -16 16 -33 2
-24 -5 3 -10 1 -10 -5 0 -7 8 -9 21 -5 15 5 19 4 14 -5 -4 -7 4 -24 20 -40 15
-16 24 -33 21 -39 -4 -6 -1 -11 7 -11 10 0 14 10 13 33 l-1 32 53 -2 c30 -2
52 2 52 8 0 5 21 19 48 30 l47 21 -34 14 c-38 16 -64 19 -41 4 11 -7 0 -10
-37 -10 -54 0 -63 6 -41 28 9 9 9 15 -1 25 -10 10 -11 8 -5 -7z"/>
<path d="M1275 701 c4 -14 0 -20 -17 -24 -27 -7 -68 1 -68 14 0 5 -15 9 -32 8
-31 -1 -32 -1 -8 -9 14 -4 21 -9 15 -10 -17 -3 29 -19 57 -19 21 -1 25 -5 21
-21 -4 -13 1 -22 13 -26 11 -3 39 -15 64 -26 25 -12 50 -21 57 -20 6 2 14 -2
18 -8 8 -14 102 -13 111 1 5 8 -3 10 -26 7 -38 -6 -110 10 -110 23 0 13 34 11
47 -2 6 -6 19 -9 29 -6 16 4 15 5 -3 6 -27 1 -30 17 -5 25 9 3 0 3 -20 0 -20
-2 -39 0 -43 6 -3 5 -18 11 -33 11 -24 1 -23 3 8 9 l35 7 -30 2 c-16 1 -39 6
-50 11 -20 8 -20 9 1 9 22 1 30 31 7 31 -7 0 -13 5 -13 10 0 6 -7 10 -16 10
-10 0 -13 -6 -9 -19z"/>
<path d="M1625 585 c-33 -7 -54 -13 -46 -14 11 -1 11 -5 -2 -19 -10 -10 -17
-24 -17 -30 0 -18 -48 -14 -58 4 -5 9 -17 14 -28 12 -15 -4 -12 -8 16 -20 19
-9 55 -21 79 -28 28 -7 45 -18 48 -31 6 -22 14 -24 31 -7 7 7 12 9 12 5 0 -4
9 -3 20 3 14 7 32 8 55 1 21 -6 33 -6 30 0 -17 26 145 0 174 -29 11 -11 15
-11 22 -1 4 8 3 16 -3 20 -9 6 -8 12 2 23 19 24 9 27 -43 17 -28 -5 -47 -5
-47 1 0 4 -11 13 -25 18 -14 5 -25 15 -25 21 0 8 -13 10 -40 5 -32 -5 -40 -3
-40 9 0 8 -6 15 -12 15 -9 0 -8 3 2 10 9 5 19 5 26 -1 8 -7 14 -6 19 1 3 5 -1
10 -9 10 -9 0 -16 5 -16 10 0 13 -49 11 -125 -5z"/>
<path d="M1364 531 c3 -5 -4 -12 -17 -16 -21 -8 -21 -8 6 -12 15 -2 25 -8 22
-12 -2 -5 6 -6 19 -4 13 3 27 0 30 -6 5 -7 -8 -11 -39 -11 -32 0 -44 3 -39 12
5 8 -2 9 -26 5 -18 -4 -38 -7 -44 -7 -28 -1 23 -20 52 -20 21 0 31 -4 27 -11
-4 -6 -13 -8 -19 -6 -7 3 -13 -1 -13 -9 0 -9 12 -14 36 -14 20 0 32 4 26 8
-13 9 -17 32 -6 32 21 0 41 -13 41 -26 0 -8 9 -14 20 -14 11 0 28 -7 39 -16
11 -10 34 -18 53 -19 18 -1 44 -6 57 -10 18 -6 22 -5 17 4 -4 7 2 20 16 32
l23 19 -40 -4 c-22 -3 -32 -3 -22 0 20 6 23 24 5 24 -10 0 -9 3 1 9 16 11 5
17 -34 19 -40 2 -115 24 -115 34 0 4 -7 8 -15 8 -8 0 -15 5 -15 10 0 6 -12 10
-26 10 -14 0 -23 -4 -20 -9z"/>
<path d="M260 511 l-65 -6 45 -11 c44 -11 43 -11 -45 -13 -49 -2 -114 -4 -143
-4 -54 -2 -69 -12 -29 -20 l22 -4 -23 -2 c-28 -1 -20 -21 9 -21 10 0 19 -4 19
-10 0 -5 -5 -10 -11 -10 -5 0 -7 -4 -4 -10 9 -14 -9 -12 -24 3 -10 10 -12 3
-9 -33 3 -44 4 -45 33 -41 17 1 33 8 37 14 4 6 25 12 47 12 22 0 35 3 29 6 -6
4 11 10 38 14 27 4 63 13 79 21 l30 15 -47 -4 c-27 -3 -48 -1 -48 4 0 9 21 13
53 9 23 -2 169 31 163 37 -2 3 -28 0 -58 -6 -84 -16 -216 -24 -198 -12 8 6 31
11 49 11 19 0 73 5 120 11 48 6 105 13 129 15 28 4 42 10 42 20 0 9 12 15 33
15 29 2 30 2 5 6 -15 2 -37 -1 -50 -8 -34 -19 -138 -21 -138 -3 0 8 -6 13 -12
12 -7 -1 -42 -4 -78 -7z"/>
<path d="M2351 511 c-36 -9 -36 -25 1 -36 74 -23 19 -50 -66 -32 -28 6 -42 4
-47 -5 -7 -10 -9 -10 -9 0 0 6 -7 12 -15 12 -8 0 -15 -4 -15 -10 0 -5 -7 -10
-16 -10 -8 0 -12 5 -9 10 3 6 1 10 -4 10 -15 0 -14 -15 2 -28 15 -13 60 -15
155 -8 29 2 56 7 59 10 11 10 45 7 38 -4 -3 -5 3 -10 14 -10 10 0 27 -3 37 -7
11 -4 15 -3 10 5 -3 6 3 13 14 17 32 10 15 22 -42 30 l-51 7 23 18 c18 14 20
19 9 26 -17 11 -56 13 -88 5z"/>
<path d="M1080 492 c-41 -2 -79 -8 -85 -14 -7 -7 5 -9 40 -6 48 5 49 5 20 -8
-16 -7 -48 -14 -70 -14 -34 -1 -37 -3 -17 -10 32 -13 27 -23 -7 -15 -17 3 -39
1 -50 -5 -24 -12 -66 4 -55 21 4 6 -12 8 -44 3 -37 -5 -59 -2 -82 9 -17 9 -38
13 -46 10 -7 -3 -14 0 -14 6 0 6 -7 11 -16 11 -8 0 -13 -4 -10 -9 6 -9 -39
-21 -88 -22 -26 0 -28 -2 -11 -9 23 -10 14 -13 -34 -10 -22 1 -31 -2 -27 -9 4
-6 24 -11 44 -12 20 0 46 -5 57 -10 14 -6 4 -8 -38 -6 -32 2 -60 0 -63 -5 -3
-4 7 -8 23 -9 15 0 22 -3 15 -6 -18 -7 -4 -23 21 -24 20 -1 20 -2 -3 -9 -36
-11 -52 -11 -45 0 6 10 -5 13 -40 11 -15 -1 -17 0 -7 7 11 7 8 11 -10 15 -39
11 -66 8 -71 -8 -4 -8 -2 -17 4 -20 26 -17 -12 -25 -111 -25 -62 0 -111 -4
-115 -10 -3 -6 -15 -10 -26 -10 -11 0 -27 -7 -35 -15 -18 -18 -55 -20 -72 -3
-9 9 -12 8 -12 -5 0 -14 10 -17 53 -17 28 0 70 -5 92 -11 22 -6 51 -13 65 -16
51 -10 56 -13 40 -23 -13 -8 -12 -10 2 -10 9 0 20 -5 24 -11 5 -9 -1 -10 -22
-5 -16 4 -33 14 -37 22 -4 8 -23 14 -42 14 -18 0 -35 4 -37 9 -1 5 -33 10 -71
13 l-67 4 0 -28 c0 -24 4 -28 28 -29 l27 -1 -25 -7 c-25 -6 -32 -22 -18 -37 5
-4 8 -2 8 4 0 6 7 9 16 5 13 -5 13 -8 2 -15 -10 -7 -10 -11 0 -15 6 -2 12 -9
12 -15 0 -6 -11 -3 -25 6 l-25 16 0 -65 0 -65 287 0 c233 0 289 3 302 14 13
11 25 12 61 4 57 -13 86 -13 130 0 30 9 24 10 -52 11 -57 1 -88 5 -88 12 0 6
-7 8 -16 5 -11 -4 -18 1 -21 14 -4 17 -14 20 -54 20 -69 0 -70 17 -2 25 32 4
67 9 78 11 14 4 16 3 7 -4 -10 -6 0 -13 33 -22 25 -7 48 -17 51 -21 3 -5 21
-9 40 -9 20 0 33 4 29 10 -3 5 7 3 22 -5 15 -8 35 -15 43 -16 8 0 4 -5 -10
-11 -19 -9 -21 -12 -8 -15 9 -2 33 3 53 11 21 9 56 17 79 17 23 1 31 4 19 6
-28 5 -29 12 -5 29 15 12 10 14 -38 15 -30 1 -67 1 -82 0 -14 -1 -29 3 -33 8
-3 6 -31 11 -61 11 -30 0 -53 4 -50 8 3 5 29 7 58 5 110 -7 288 -8 288 0 0 7
-35 10 -131 11 -32 1 -55 -3 -52 -8 7 -11 -69 2 -81 15 -14 13 -77 11 -129 -3
-37 -10 -47 -9 -68 5 l-23 17 24 0 c18 0 21 3 12 9 -8 5 -34 6 -58 3 -35 -4
-44 -2 -44 11 0 8 -6 18 -12 20 -8 3 -5 6 5 6 34 2 7 20 -39 27 -55 8 -67 -1
-34 -26 20 -16 22 -20 8 -20 -10 0 -18 5 -18 10 0 6 -11 10 -25 10 -14 0 -25
4 -25 9 0 5 -8 12 -17 14 -13 3 -10 5 7 6 25 2 25 2 5 17 -11 9 -33 22 -50 30
-27 12 -19 13 85 12 64 -1 121 2 128 6 7 4 12 1 12 -8 0 -9 6 -16 13 -16 72
-2 167 -15 185 -24 19 -10 12 -11 -44 -8 -53 4 -66 2 -62 -9 6 -17 38 -25 47
-12 3 6 24 4 51 -3 26 -7 36 -12 23 -13 -34 -2 -17 -29 25 -41 51 -14 65 -13
58 5 -4 11 2 15 22 16 l27 0 -25 12 c-14 6 -31 17 -38 24 -9 9 -6 13 15 16 23
3 22 4 -8 6 -23 0 -39 7 -43 16 -3 8 -12 15 -20 15 -10 0 -13 6 -10 15 4 8 1
15 -5 15 -6 0 -11 7 -11 15 0 9 -10 15 -22 16 -20 1 -20 2 -4 6 11 3 37 -1 58
-8 27 -8 42 -9 49 -2 13 13 -14 43 -39 43 -9 0 -25 7 -35 14 -16 12 -15 14 14
20 20 4 35 1 45 -8 7 -8 31 -17 52 -21 49 -8 63 -17 65 -42 1 -20 2 -20 26 -4
34 22 55 18 141 -23 19 -9 26 -14 15 -11 -10 3 -38 9 -62 12 -23 3 -40 10 -37
14 3 5 -2 6 -10 3 -12 -5 -13 -11 -5 -25 6 -13 6 -19 -1 -19 -5 0 -10 -4 -10
-10 0 -5 14 -10 30 -10 17 0 30 5 30 10 0 6 7 10 16 10 9 0 12 -5 8 -12 -5 -8
0 -9 17 -4 50 15 89 18 89 6 0 -6 10 -15 23 -20 20 -9 20 -10 -8 -9 -45 2 -52
-1 -34 -11 8 -5 24 -7 35 -5 10 2 33 4 49 5 l30 1 -25 12 c-25 11 -25 11 9 15
27 3 31 6 20 14 -10 7 -6 8 14 3 19 -4 26 -2 22 5 -4 6 4 10 19 10 16 0 26 6
26 15 0 9 10 16 23 16 48 3 99 -8 108 -23 10 -16 21 -5 14 14 -10 24 -175 51
-175 28 0 -5 -13 -10 -30 -10 -23 0 -28 4 -23 16 4 11 9 12 16 5 15 -15 27
-14 27 4 0 10 -10 15 -27 16 -25 0 -26 1 -8 9 17 7 15 9 -13 9 -25 1 -32 5
-30 18 2 11 -5 19 -17 21 -16 2 -17 1 -5 -7 8 -6 13 -11 10 -12 -3 0 -13 -2
-22 -4 -10 -2 -20 1 -24 6 -3 5 -30 9 -61 9 -81 0 -58 11 33 16 76 5 134 21
89 25 -11 1 -2 5 20 9 l40 7 -47 2 c-29 0 -48 -4 -51 -11 -3 -9 -10 -10 -23
-3 -11 6 -53 9 -94 7z"/>
<path d="M3292 372 c-8 -5 -35 -8 -60 -6 -26 2 -40 1 -32 -2 8 -4 17 -10 20
-13 3 -3 25 -16 50 -28 25 -12 74 -38 109 -57 53 -29 67 -33 87 -24 27 13 31
26 9 34 -17 7 -18 13 -5 34 9 13 13 12 28 -8 17 -22 18 -22 34 -3 14 17 15 21
2 32 -12 10 -13 9 -8 -6 6 -15 5 -15 -14 -4 -12 7 -19 15 -16 18 2 2 -13 11
-33 19 -45 18 -153 26 -171 14z"/>
</g>
</svg>
